%TF.GenerationSoftware,KiCad,Pcbnew,8.0.7*%
%TF.CreationDate,2024-12-31T14:19:16-08:00*%
%TF.ProjectId,Avionics Instrumentation and Microcontroller Board,4176696f-6e69-4637-9320-496e73747275,3*%
%TF.SameCoordinates,Original*%
%TF.FileFunction,Soldermask,Bot*%
%TF.FilePolarity,Negative*%
%FSLAX46Y46*%
G04 Gerber Fmt 4.6, Leading zero omitted, Abs format (unit mm)*
G04 Created by KiCad (PCBNEW 8.0.7) date 2024-12-31 14:19:16*
%MOMM*%
%LPD*%
G01*
G04 APERTURE LIST*
G04 Aperture macros list*
%AMFreePoly0*
4,1,129,0.800119,0.804999,0.842119,0.803999,0.842356,0.803987,0.884356,0.800987,0.884724,0.800947,0.925724,0.794947,0.925841,0.794929,0.966841,0.787929,0.967185,0.787858,1.008185,0.777858,1.008437,0.777789,1.048437,0.765789,1.048652,0.765719,1.088652,0.751719,1.088940,0.751608,1.126940,0.735608,1.127140,0.735519,1.165140,0.717519,1.165378,0.717399,1.202378,0.697399,
1.202607,0.697266,1.238607,0.675266,1.238883,0.675085,1.272883,0.651085,1.273019,0.650985,1.306019,0.625985,1.306224,0.625821,1.338224,0.598821,1.338416,0.598651,1.369416,0.569651,1.369651,0.569416,1.398651,0.538416,1.398821,0.538224,1.425821,0.506224,1.425985,0.506019,1.450985,0.473019,1.451085,0.472883,1.475085,0.438883,1.475266,0.438607,1.497266,0.402607,
1.497399,0.402378,1.517399,0.365378,1.517519,0.365140,1.535519,0.327140,1.535608,0.326940,1.551608,0.288940,1.551719,0.288652,1.565719,0.248652,1.565789,0.248437,1.577789,0.208437,1.577858,0.208185,1.587858,0.167185,1.587929,0.166841,1.594929,0.125841,1.594947,0.125724,1.600947,0.084724,1.600987,0.084356,1.603987,0.042356,1.603999,0.042119,1.604999,0.000119,
1.604999,-0.000119,1.603999,-0.042119,1.603987,-0.042356,1.600987,-0.084356,1.600947,-0.084724,1.594947,-0.125724,1.594929,-0.125841,1.587929,-0.166841,1.587858,-0.167185,1.577858,-0.208185,1.577789,-0.208437,1.565789,-0.248437,1.565719,-0.248652,1.551719,-0.288652,1.551608,-0.288940,1.535608,-0.326940,1.535519,-0.327140,1.517519,-0.365140,1.517399,-0.365378,1.497399,-0.402378,
1.497266,-0.402607,1.475266,-0.438607,1.475085,-0.438883,1.451085,-0.472883,1.450985,-0.473019,1.425985,-0.506019,1.425821,-0.506224,1.398821,-0.538224,1.398651,-0.538416,1.369651,-0.569416,1.369416,-0.569651,1.338416,-0.598651,1.338224,-0.598821,1.306224,-0.625821,1.306019,-0.625985,1.273019,-0.650985,1.272883,-0.651085,1.238883,-0.675085,1.238607,-0.675266,1.202607,-0.697266,
1.202378,-0.697399,1.165378,-0.717399,1.165140,-0.717519,1.127140,-0.735519,1.126940,-0.735608,1.088940,-0.751608,1.088652,-0.751719,1.048652,-0.765719,1.048437,-0.765789,1.008437,-0.777789,1.008185,-0.777858,0.967185,-0.787858,0.966841,-0.787929,0.925841,-0.794929,0.925724,-0.794947,0.884724,-0.800947,0.884356,-0.800987,0.842356,-0.803987,0.842119,-0.803999,0.800119,-0.804999,
0.800000,-0.805000,-1.600000,-0.805000,-1.603536,-0.803536,-1.605000,-0.800000,-1.605000,0.800000,-1.603536,0.803536,-1.600000,0.805000,0.800000,0.805000,0.800119,0.804999,0.800119,0.804999,$1*%
%AMFreePoly1*
4,1,93,1.410453,0.804979,1.421453,0.803979,1.421498,0.803975,1.431498,0.802975,1.431894,0.802919,1.442894,0.800919,1.443437,0.800789,1.473437,0.791789,1.474031,0.791569,1.483031,0.787569,1.483236,0.787472,1.493236,0.782472,1.493428,0.782371,1.511428,0.772371,1.511774,0.772160,1.520774,0.766160,1.521293,0.765763,1.529155,0.758883,1.537000,0.753000,1.537763,0.752293,
1.544543,0.744543,1.552293,0.737763,1.553000,0.737000,1.558883,0.729155,1.565763,0.721293,1.566160,0.720774,1.572160,0.711774,1.572371,0.711428,1.582371,0.693428,1.582472,0.693236,1.587472,0.683236,1.587569,0.683031,1.591569,0.674031,1.591789,0.673437,1.600789,0.643437,1.600919,0.642894,1.602919,0.631894,1.602975,0.631498,1.603975,0.621498,1.603979,0.621453,
1.604979,0.610453,1.605000,0.610000,1.605000,-0.610000,1.604979,-0.610453,1.603979,-0.621453,1.603975,-0.621498,1.602975,-0.631498,1.602919,-0.631894,1.600919,-0.642894,1.600789,-0.643437,1.591789,-0.673437,1.591569,-0.674031,1.587569,-0.683031,1.587472,-0.683236,1.582472,-0.693236,1.582371,-0.693428,1.572371,-0.711428,1.572160,-0.711774,1.566160,-0.720774,1.565763,-0.721293,
1.558883,-0.729155,1.553000,-0.737000,1.552293,-0.737763,1.544543,-0.744543,1.537763,-0.752293,1.537000,-0.753000,1.529155,-0.758883,1.521293,-0.765763,1.520774,-0.766160,1.511774,-0.772160,1.511428,-0.772371,1.493428,-0.782371,1.493236,-0.782472,1.483236,-0.787472,1.483031,-0.787569,1.474031,-0.791569,1.473437,-0.791789,1.443437,-0.800789,1.442894,-0.800919,1.431894,-0.802919,
1.431498,-0.802975,1.421498,-0.803975,1.421453,-0.803979,1.410453,-0.804979,1.410000,-0.805000,-1.600000,-0.805000,-1.603536,-0.803536,-1.605000,-0.800000,-1.605000,0.800000,-1.603536,0.803536,-1.600000,0.805000,1.410000,0.805000,1.410453,0.804979,1.410453,0.804979,$1*%
%AMFreePoly2*
4,1,129,1.603536,0.803536,1.605000,0.800000,1.605000,-0.800000,1.603536,-0.803536,1.600000,-0.805000,-0.800000,-0.805000,-0.800119,-0.804999,-0.842119,-0.803999,-0.842356,-0.803987,-0.884356,-0.800987,-0.884724,-0.800947,-0.925724,-0.794947,-0.925841,-0.794929,-0.966841,-0.787929,-0.967185,-0.787858,-1.008185,-0.777858,-1.008437,-0.777789,-1.048437,-0.765789,-1.048652,-0.765719,-1.088652,-0.751719,
-1.088940,-0.751608,-1.126940,-0.735608,-1.127140,-0.735519,-1.165140,-0.717519,-1.165378,-0.717399,-1.202378,-0.697399,-1.202607,-0.697266,-1.238607,-0.675266,-1.238883,-0.675085,-1.272883,-0.651085,-1.273019,-0.650985,-1.306019,-0.625985,-1.306224,-0.625821,-1.338224,-0.598821,-1.338416,-0.598651,-1.369416,-0.569651,-1.369651,-0.569416,-1.398651,-0.538416,-1.398821,-0.538224,-1.425821,-0.506224,
-1.425985,-0.506019,-1.450985,-0.473019,-1.451085,-0.472883,-1.475085,-0.438883,-1.475266,-0.438607,-1.497266,-0.402607,-1.497399,-0.402378,-1.517399,-0.365378,-1.517519,-0.365140,-1.535519,-0.327140,-1.535608,-0.326940,-1.551608,-0.288940,-1.551719,-0.288652,-1.565719,-0.248652,-1.565789,-0.248437,-1.577789,-0.208437,-1.577858,-0.208185,-1.587858,-0.167185,-1.587929,-0.166841,-1.594929,-0.125841,
-1.594947,-0.125724,-1.600947,-0.084724,-1.600987,-0.084356,-1.603987,-0.042356,-1.603999,-0.042119,-1.604999,-0.000119,-1.604999,0.000119,-1.603999,0.042119,-1.603987,0.042356,-1.600987,0.084356,-1.600947,0.084724,-1.594947,0.125724,-1.594929,0.125841,-1.587929,0.166841,-1.587858,0.167185,-1.577858,0.208185,-1.577789,0.208437,-1.565789,0.248437,-1.565719,0.248652,-1.551719,0.288652,
-1.551608,0.288940,-1.535608,0.326940,-1.535519,0.327140,-1.517519,0.365140,-1.517399,0.365378,-1.497399,0.402378,-1.497266,0.402607,-1.475266,0.438607,-1.475085,0.438883,-1.451085,0.472883,-1.450985,0.473019,-1.425985,0.506019,-1.425821,0.506224,-1.398821,0.538224,-1.398651,0.538416,-1.369651,0.569416,-1.369416,0.569651,-1.338416,0.598651,-1.338224,0.598821,-1.306224,0.625821,
-1.306019,0.625985,-1.273019,0.650985,-1.272883,0.651085,-1.238883,0.675085,-1.238607,0.675266,-1.202607,0.697266,-1.202378,0.697399,-1.165378,0.717399,-1.165140,0.717519,-1.127140,0.735519,-1.126940,0.735608,-1.088940,0.751608,-1.088652,0.751719,-1.048652,0.765719,-1.048437,0.765789,-1.008437,0.777789,-1.008185,0.777858,-0.967185,0.787858,-0.966841,0.787929,-0.925841,0.794929,
-0.925724,0.794947,-0.884724,0.800947,-0.884356,0.800987,-0.842356,0.803987,-0.842119,0.803999,-0.800119,0.804999,-0.800000,0.805000,1.600000,0.805000,1.603536,0.803536,1.603536,0.803536,$1*%
%AMFreePoly3*
4,1,93,1.603536,0.803536,1.605000,0.800000,1.605000,-0.800000,1.603536,-0.803536,1.600000,-0.805000,-1.410000,-0.805000,-1.410453,-0.804979,-1.421453,-0.803979,-1.421498,-0.803975,-1.431498,-0.802975,-1.431894,-0.802919,-1.442894,-0.800919,-1.443437,-0.800789,-1.473437,-0.791789,-1.474031,-0.791569,-1.483031,-0.787569,-1.483236,-0.787472,-1.493236,-0.782472,-1.493428,-0.782371,-1.511428,-0.772371,
-1.511774,-0.772160,-1.520774,-0.766160,-1.521293,-0.765763,-1.529155,-0.758883,-1.537000,-0.753000,-1.537763,-0.752293,-1.544543,-0.744543,-1.552293,-0.737763,-1.553000,-0.737000,-1.558883,-0.729155,-1.565763,-0.721293,-1.566160,-0.720774,-1.572160,-0.711774,-1.572371,-0.711428,-1.582371,-0.693428,-1.582472,-0.693236,-1.587472,-0.683236,-1.587569,-0.683031,-1.591569,-0.674031,-1.591789,-0.673437,
-1.600789,-0.643437,-1.600919,-0.642894,-1.602919,-0.631894,-1.602975,-0.631498,-1.603975,-0.621498,-1.603979,-0.621453,-1.604979,-0.610453,-1.605000,-0.610000,-1.605000,0.610000,-1.604979,0.610453,-1.603979,0.621453,-1.603975,0.621498,-1.602975,0.631498,-1.602919,0.631894,-1.600919,0.642894,-1.600789,0.643437,-1.591789,0.673437,-1.591569,0.674031,-1.587569,0.683031,-1.587472,0.683236,
-1.582472,0.693236,-1.582371,0.693428,-1.572371,0.711428,-1.572160,0.711774,-1.566160,0.720774,-1.565763,0.721293,-1.558883,0.729155,-1.553000,0.737000,-1.552293,0.737763,-1.544543,0.744543,-1.537763,0.752293,-1.537000,0.753000,-1.529155,0.758883,-1.521293,0.765763,-1.520774,0.766160,-1.511774,0.772160,-1.511428,0.772371,-1.493428,0.782371,-1.493236,0.782472,-1.483236,0.787472,
-1.483031,0.787569,-1.474031,0.791569,-1.473437,0.791789,-1.443437,0.800789,-1.442894,0.800919,-1.431894,0.802919,-1.431498,0.802975,-1.421498,0.803975,-1.421453,0.803979,-1.410453,0.804979,-1.410000,0.805000,1.600000,0.805000,1.603536,0.803536,1.603536,0.803536,$1*%
%AMFreePoly4*
4,1,129,0.042119,1.603999,0.042356,1.603987,0.084356,1.600987,0.084724,1.600947,0.125724,1.594947,0.125841,1.594929,0.166841,1.587929,0.167185,1.587858,0.208185,1.577858,0.208437,1.577789,0.248437,1.565789,0.248652,1.565719,0.288652,1.551719,0.288940,1.551608,0.326940,1.535608,0.327140,1.535519,0.365140,1.517519,0.365378,1.517399,0.402378,1.497399,0.402607,1.497266,
0.438607,1.475266,0.438883,1.475085,0.472883,1.451085,0.473019,1.450985,0.506019,1.425985,0.506224,1.425821,0.538224,1.398821,0.538416,1.398651,0.569416,1.369651,0.569651,1.369416,0.598651,1.338416,0.598821,1.338224,0.625821,1.306224,0.625985,1.306019,0.650985,1.273019,0.651085,1.272883,0.675085,1.238883,0.675266,1.238607,0.697266,1.202607,0.697399,1.202378,
0.717399,1.165378,0.717519,1.165140,0.735519,1.127140,0.735608,1.126940,0.751608,1.088940,0.751719,1.088652,0.765719,1.048652,0.765789,1.048437,0.777789,1.008437,0.777858,1.008185,0.787858,0.967185,0.787929,0.966841,0.794929,0.925841,0.794947,0.925724,0.800947,0.884724,0.800987,0.884356,0.803987,0.842356,0.803999,0.842119,0.804999,0.800119,0.805000,0.800000,
0.805000,-1.600000,0.803536,-1.603536,0.800000,-1.605000,-0.800000,-1.605000,-0.803536,-1.603536,-0.805000,-1.600000,-0.805000,0.800000,-0.804999,0.800119,-0.803999,0.842119,-0.803987,0.842356,-0.800987,0.884356,-0.800947,0.884724,-0.794947,0.925724,-0.794929,0.925841,-0.787929,0.966841,-0.787858,0.967185,-0.777858,1.008185,-0.777789,1.008437,-0.765789,1.048437,-0.765719,1.048652,
-0.751719,1.088652,-0.751608,1.088940,-0.735608,1.126940,-0.735519,1.127140,-0.717519,1.165140,-0.717399,1.165378,-0.697399,1.202378,-0.697266,1.202607,-0.675266,1.238607,-0.675085,1.238883,-0.651085,1.272883,-0.650985,1.273019,-0.625985,1.306019,-0.625821,1.306224,-0.598821,1.338224,-0.598651,1.338416,-0.569651,1.369416,-0.569416,1.369651,-0.538416,1.398651,-0.538224,1.398821,
-0.506224,1.425821,-0.506019,1.425985,-0.473019,1.450985,-0.472883,1.451085,-0.438883,1.475085,-0.438607,1.475266,-0.402607,1.497266,-0.402378,1.497399,-0.365378,1.517399,-0.365140,1.517519,-0.327140,1.535519,-0.326940,1.535608,-0.288940,1.551608,-0.288652,1.551719,-0.248652,1.565719,-0.248437,1.565789,-0.208437,1.577789,-0.208185,1.577858,-0.167185,1.587858,-0.166841,1.587929,
-0.125841,1.594929,-0.125724,1.594947,-0.084724,1.600947,-0.084356,1.600987,-0.042356,1.603987,-0.042119,1.603999,-0.000119,1.604999,0.000119,1.604999,0.042119,1.603999,0.042119,1.603999,$1*%
%AMFreePoly5*
4,1,93,0.610453,1.604979,0.621453,1.603979,0.621498,1.603975,0.631498,1.602975,0.631894,1.602919,0.642894,1.600919,0.643437,1.600789,0.673437,1.591789,0.674031,1.591569,0.683031,1.587569,0.683236,1.587472,0.693236,1.582472,0.693428,1.582371,0.711428,1.572371,0.711774,1.572160,0.720774,1.566160,0.721293,1.565763,0.729155,1.558883,0.737000,1.553000,0.737763,1.552293,
0.744543,1.544543,0.752293,1.537763,0.753000,1.537000,0.758883,1.529155,0.765763,1.521293,0.766160,1.520774,0.772160,1.511774,0.772371,1.511428,0.782371,1.493428,0.782472,1.493236,0.787472,1.483236,0.787569,1.483031,0.791569,1.474031,0.791789,1.473437,0.800789,1.443437,0.800919,1.442894,0.802919,1.431894,0.802975,1.431498,0.803975,1.421498,0.803979,1.421453,
0.804979,1.410453,0.805000,1.410000,0.805000,-1.600000,0.803536,-1.603536,0.800000,-1.605000,-0.800000,-1.605000,-0.803536,-1.603536,-0.805000,-1.600000,-0.805000,1.410000,-0.804979,1.410453,-0.803979,1.421453,-0.803975,1.421498,-0.802975,1.431498,-0.802919,1.431894,-0.800919,1.442894,-0.800789,1.443437,-0.791789,1.473437,-0.791569,1.474031,-0.787569,1.483031,-0.787472,1.483236,
-0.782472,1.493236,-0.782371,1.493428,-0.772371,1.511428,-0.772160,1.511774,-0.766160,1.520774,-0.765763,1.521293,-0.758883,1.529155,-0.753000,1.537000,-0.752293,1.537763,-0.744543,1.544543,-0.737763,1.552293,-0.737000,1.553000,-0.729155,1.558883,-0.721293,1.565763,-0.720774,1.566160,-0.711774,1.572160,-0.711428,1.572371,-0.693428,1.582371,-0.693236,1.582472,-0.683236,1.587472,
-0.683031,1.587569,-0.674031,1.591569,-0.673437,1.591789,-0.643437,1.600789,-0.642894,1.600919,-0.631894,1.602919,-0.631498,1.602975,-0.621498,1.603975,-0.621453,1.603979,-0.610453,1.604979,-0.610000,1.605000,0.610000,1.605000,0.610453,1.604979,0.610453,1.604979,$1*%
G04 Aperture macros list end*
%ADD10C,0.100000*%
%ADD11C,0.150000*%
%ADD12C,0.300000*%
%ADD13C,0.400000*%
%ADD14C,3.800000*%
%ADD15FreePoly0,90.000000*%
%ADD16FreePoly1,90.000000*%
%ADD17FreePoly2,90.000000*%
%ADD18FreePoly3,90.000000*%
%ADD19FreePoly4,90.000000*%
%ADD20FreePoly5,90.000000*%
%ADD21R,1.700000X1.700000*%
%ADD22O,1.700000X1.700000*%
%ADD23C,3.000000*%
G04 APERTURE END LIST*
D10*
D11*
X90007200Y-104005800D02*
X198007200Y-104005800D01*
X198007200Y-136005800D01*
X90007200Y-136005800D01*
X90007200Y-104005800D01*
D10*
D11*
X10000000Y-10000000D02*
X200007200Y-10000000D01*
X200007200Y-138005800D01*
X10000000Y-138005800D01*
X10000000Y-10000000D01*
D10*
D11*
X12000000Y-12000000D02*
X198007200Y-12000000D01*
X198007200Y-136005800D01*
X12000000Y-136005800D01*
X12000000Y-12000000D01*
D10*
D11*
X60000000Y-12000000D02*
X60000000Y-10000000D01*
D10*
D11*
X110000000Y-12000000D02*
X110000000Y-10000000D01*
D10*
D11*
X160000000Y-12000000D02*
X160000000Y-10000000D01*
D10*
D11*
X36089160Y-11593604D02*
X35346303Y-11593604D01*
X35717731Y-11593604D02*
X35717731Y-10293604D01*
X35717731Y-10293604D02*
X35593922Y-10479319D01*
X35593922Y-10479319D02*
X35470112Y-10603128D01*
X35470112Y-10603128D02*
X35346303Y-10665033D01*
D10*
D11*
X85346303Y-10417414D02*
X85408207Y-10355509D01*
X85408207Y-10355509D02*
X85532017Y-10293604D01*
X85532017Y-10293604D02*
X85841541Y-10293604D01*
X85841541Y-10293604D02*
X85965350Y-10355509D01*
X85965350Y-10355509D02*
X86027255Y-10417414D01*
X86027255Y-10417414D02*
X86089160Y-10541223D01*
X86089160Y-10541223D02*
X86089160Y-10665033D01*
X86089160Y-10665033D02*
X86027255Y-10850747D01*
X86027255Y-10850747D02*
X85284398Y-11593604D01*
X85284398Y-11593604D02*
X86089160Y-11593604D01*
D10*
D11*
X135284398Y-10293604D02*
X136089160Y-10293604D01*
X136089160Y-10293604D02*
X135655826Y-10788842D01*
X135655826Y-10788842D02*
X135841541Y-10788842D01*
X135841541Y-10788842D02*
X135965350Y-10850747D01*
X135965350Y-10850747D02*
X136027255Y-10912652D01*
X136027255Y-10912652D02*
X136089160Y-11036461D01*
X136089160Y-11036461D02*
X136089160Y-11345985D01*
X136089160Y-11345985D02*
X136027255Y-11469795D01*
X136027255Y-11469795D02*
X135965350Y-11531700D01*
X135965350Y-11531700D02*
X135841541Y-11593604D01*
X135841541Y-11593604D02*
X135470112Y-11593604D01*
X135470112Y-11593604D02*
X135346303Y-11531700D01*
X135346303Y-11531700D02*
X135284398Y-11469795D01*
D10*
D11*
X185965350Y-10726938D02*
X185965350Y-11593604D01*
X185655826Y-10231700D02*
X185346303Y-11160271D01*
X185346303Y-11160271D02*
X186151064Y-11160271D01*
D10*
D11*
X60000000Y-136005800D02*
X60000000Y-138005800D01*
D10*
D11*
X110000000Y-136005800D02*
X110000000Y-138005800D01*
D10*
D11*
X160000000Y-136005800D02*
X160000000Y-138005800D01*
D10*
D11*
X36089160Y-137599404D02*
X35346303Y-137599404D01*
X35717731Y-137599404D02*
X35717731Y-136299404D01*
X35717731Y-136299404D02*
X35593922Y-136485119D01*
X35593922Y-136485119D02*
X35470112Y-136608928D01*
X35470112Y-136608928D02*
X35346303Y-136670833D01*
D10*
D11*
X85346303Y-136423214D02*
X85408207Y-136361309D01*
X85408207Y-136361309D02*
X85532017Y-136299404D01*
X85532017Y-136299404D02*
X85841541Y-136299404D01*
X85841541Y-136299404D02*
X85965350Y-136361309D01*
X85965350Y-136361309D02*
X86027255Y-136423214D01*
X86027255Y-136423214D02*
X86089160Y-136547023D01*
X86089160Y-136547023D02*
X86089160Y-136670833D01*
X86089160Y-136670833D02*
X86027255Y-136856547D01*
X86027255Y-136856547D02*
X85284398Y-137599404D01*
X85284398Y-137599404D02*
X86089160Y-137599404D01*
D10*
D11*
X135284398Y-136299404D02*
X136089160Y-136299404D01*
X136089160Y-136299404D02*
X135655826Y-136794642D01*
X135655826Y-136794642D02*
X135841541Y-136794642D01*
X135841541Y-136794642D02*
X135965350Y-136856547D01*
X135965350Y-136856547D02*
X136027255Y-136918452D01*
X136027255Y-136918452D02*
X136089160Y-137042261D01*
X136089160Y-137042261D02*
X136089160Y-137351785D01*
X136089160Y-137351785D02*
X136027255Y-137475595D01*
X136027255Y-137475595D02*
X135965350Y-137537500D01*
X135965350Y-137537500D02*
X135841541Y-137599404D01*
X135841541Y-137599404D02*
X135470112Y-137599404D01*
X135470112Y-137599404D02*
X135346303Y-137537500D01*
X135346303Y-137537500D02*
X135284398Y-137475595D01*
D10*
D11*
X185965350Y-136732738D02*
X185965350Y-137599404D01*
X185655826Y-136237500D02*
X185346303Y-137166071D01*
X185346303Y-137166071D02*
X186151064Y-137166071D01*
D10*
D11*
X10000000Y-60000000D02*
X12000000Y-60000000D01*
D10*
D11*
X10000000Y-110000000D02*
X12000000Y-110000000D01*
D10*
D11*
X10690476Y-35222176D02*
X11309523Y-35222176D01*
X10566666Y-35593604D02*
X10999999Y-34293604D01*
X10999999Y-34293604D02*
X11433333Y-35593604D01*
D10*
D11*
X11092857Y-84912652D02*
X11278571Y-84974557D01*
X11278571Y-84974557D02*
X11340476Y-85036461D01*
X11340476Y-85036461D02*
X11402380Y-85160271D01*
X11402380Y-85160271D02*
X11402380Y-85345985D01*
X11402380Y-85345985D02*
X11340476Y-85469795D01*
X11340476Y-85469795D02*
X11278571Y-85531700D01*
X11278571Y-85531700D02*
X11154761Y-85593604D01*
X11154761Y-85593604D02*
X10659523Y-85593604D01*
X10659523Y-85593604D02*
X10659523Y-84293604D01*
X10659523Y-84293604D02*
X11092857Y-84293604D01*
X11092857Y-84293604D02*
X11216666Y-84355509D01*
X11216666Y-84355509D02*
X11278571Y-84417414D01*
X11278571Y-84417414D02*
X11340476Y-84541223D01*
X11340476Y-84541223D02*
X11340476Y-84665033D01*
X11340476Y-84665033D02*
X11278571Y-84788842D01*
X11278571Y-84788842D02*
X11216666Y-84850747D01*
X11216666Y-84850747D02*
X11092857Y-84912652D01*
X11092857Y-84912652D02*
X10659523Y-84912652D01*
D10*
D11*
X11402380Y-135469795D02*
X11340476Y-135531700D01*
X11340476Y-135531700D02*
X11154761Y-135593604D01*
X11154761Y-135593604D02*
X11030952Y-135593604D01*
X11030952Y-135593604D02*
X10845238Y-135531700D01*
X10845238Y-135531700D02*
X10721428Y-135407890D01*
X10721428Y-135407890D02*
X10659523Y-135284080D01*
X10659523Y-135284080D02*
X10597619Y-135036461D01*
X10597619Y-135036461D02*
X10597619Y-134850747D01*
X10597619Y-134850747D02*
X10659523Y-134603128D01*
X10659523Y-134603128D02*
X10721428Y-134479319D01*
X10721428Y-134479319D02*
X10845238Y-134355509D01*
X10845238Y-134355509D02*
X11030952Y-134293604D01*
X11030952Y-134293604D02*
X11154761Y-134293604D01*
X11154761Y-134293604D02*
X11340476Y-134355509D01*
X11340476Y-134355509D02*
X11402380Y-134417414D01*
D10*
D11*
X200007200Y-60000000D02*
X198007200Y-60000000D01*
D10*
D11*
X200007200Y-110000000D02*
X198007200Y-110000000D01*
D10*
D11*
X198697676Y-35222176D02*
X199316723Y-35222176D01*
X198573866Y-35593604D02*
X199007199Y-34293604D01*
X199007199Y-34293604D02*
X199440533Y-35593604D01*
D10*
D11*
X199100057Y-84912652D02*
X199285771Y-84974557D01*
X199285771Y-84974557D02*
X199347676Y-85036461D01*
X199347676Y-85036461D02*
X199409580Y-85160271D01*
X199409580Y-85160271D02*
X199409580Y-85345985D01*
X199409580Y-85345985D02*
X199347676Y-85469795D01*
X199347676Y-85469795D02*
X199285771Y-85531700D01*
X199285771Y-85531700D02*
X199161961Y-85593604D01*
X199161961Y-85593604D02*
X198666723Y-85593604D01*
X198666723Y-85593604D02*
X198666723Y-84293604D01*
X198666723Y-84293604D02*
X199100057Y-84293604D01*
X199100057Y-84293604D02*
X199223866Y-84355509D01*
X199223866Y-84355509D02*
X199285771Y-84417414D01*
X199285771Y-84417414D02*
X199347676Y-84541223D01*
X199347676Y-84541223D02*
X199347676Y-84665033D01*
X199347676Y-84665033D02*
X199285771Y-84788842D01*
X199285771Y-84788842D02*
X199223866Y-84850747D01*
X199223866Y-84850747D02*
X199100057Y-84912652D01*
X199100057Y-84912652D02*
X198666723Y-84912652D01*
D10*
D11*
X199409580Y-135469795D02*
X199347676Y-135531700D01*
X199347676Y-135531700D02*
X199161961Y-135593604D01*
X199161961Y-135593604D02*
X199038152Y-135593604D01*
X199038152Y-135593604D02*
X198852438Y-135531700D01*
X198852438Y-135531700D02*
X198728628Y-135407890D01*
X198728628Y-135407890D02*
X198666723Y-135284080D01*
X198666723Y-135284080D02*
X198604819Y-135036461D01*
X198604819Y-135036461D02*
X198604819Y-134850747D01*
X198604819Y-134850747D02*
X198666723Y-134603128D01*
X198666723Y-134603128D02*
X198728628Y-134479319D01*
X198728628Y-134479319D02*
X198852438Y-134355509D01*
X198852438Y-134355509D02*
X199038152Y-134293604D01*
X199038152Y-134293604D02*
X199161961Y-134293604D01*
X199161961Y-134293604D02*
X199347676Y-134355509D01*
X199347676Y-134355509D02*
X199409580Y-134417414D01*
D10*
D11*
X113463026Y-131791928D02*
X113463026Y-130291928D01*
X113463026Y-130291928D02*
X113820169Y-130291928D01*
X113820169Y-130291928D02*
X114034455Y-130363357D01*
X114034455Y-130363357D02*
X114177312Y-130506214D01*
X114177312Y-130506214D02*
X114248741Y-130649071D01*
X114248741Y-130649071D02*
X114320169Y-130934785D01*
X114320169Y-130934785D02*
X114320169Y-131149071D01*
X114320169Y-131149071D02*
X114248741Y-131434785D01*
X114248741Y-131434785D02*
X114177312Y-131577642D01*
X114177312Y-131577642D02*
X114034455Y-131720500D01*
X114034455Y-131720500D02*
X113820169Y-131791928D01*
X113820169Y-131791928D02*
X113463026Y-131791928D01*
X115605884Y-131791928D02*
X115605884Y-131006214D01*
X115605884Y-131006214D02*
X115534455Y-130863357D01*
X115534455Y-130863357D02*
X115391598Y-130791928D01*
X115391598Y-130791928D02*
X115105884Y-130791928D01*
X115105884Y-130791928D02*
X114963026Y-130863357D01*
X115605884Y-131720500D02*
X115463026Y-131791928D01*
X115463026Y-131791928D02*
X115105884Y-131791928D01*
X115105884Y-131791928D02*
X114963026Y-131720500D01*
X114963026Y-131720500D02*
X114891598Y-131577642D01*
X114891598Y-131577642D02*
X114891598Y-131434785D01*
X114891598Y-131434785D02*
X114963026Y-131291928D01*
X114963026Y-131291928D02*
X115105884Y-131220500D01*
X115105884Y-131220500D02*
X115463026Y-131220500D01*
X115463026Y-131220500D02*
X115605884Y-131149071D01*
X116105884Y-130791928D02*
X116677312Y-130791928D01*
X116320169Y-130291928D02*
X116320169Y-131577642D01*
X116320169Y-131577642D02*
X116391598Y-131720500D01*
X116391598Y-131720500D02*
X116534455Y-131791928D01*
X116534455Y-131791928D02*
X116677312Y-131791928D01*
X117748741Y-131720500D02*
X117605884Y-131791928D01*
X117605884Y-131791928D02*
X117320170Y-131791928D01*
X117320170Y-131791928D02*
X117177312Y-131720500D01*
X117177312Y-131720500D02*
X117105884Y-131577642D01*
X117105884Y-131577642D02*
X117105884Y-131006214D01*
X117105884Y-131006214D02*
X117177312Y-130863357D01*
X117177312Y-130863357D02*
X117320170Y-130791928D01*
X117320170Y-130791928D02*
X117605884Y-130791928D01*
X117605884Y-130791928D02*
X117748741Y-130863357D01*
X117748741Y-130863357D02*
X117820170Y-131006214D01*
X117820170Y-131006214D02*
X117820170Y-131149071D01*
X117820170Y-131149071D02*
X117105884Y-131291928D01*
X118463026Y-131649071D02*
X118534455Y-131720500D01*
X118534455Y-131720500D02*
X118463026Y-131791928D01*
X118463026Y-131791928D02*
X118391598Y-131720500D01*
X118391598Y-131720500D02*
X118463026Y-131649071D01*
X118463026Y-131649071D02*
X118463026Y-131791928D01*
X118463026Y-130863357D02*
X118534455Y-130934785D01*
X118534455Y-130934785D02*
X118463026Y-131006214D01*
X118463026Y-131006214D02*
X118391598Y-130934785D01*
X118391598Y-130934785D02*
X118463026Y-130863357D01*
X118463026Y-130863357D02*
X118463026Y-131006214D01*
X120248741Y-130434785D02*
X120320169Y-130363357D01*
X120320169Y-130363357D02*
X120463027Y-130291928D01*
X120463027Y-130291928D02*
X120820169Y-130291928D01*
X120820169Y-130291928D02*
X120963027Y-130363357D01*
X120963027Y-130363357D02*
X121034455Y-130434785D01*
X121034455Y-130434785D02*
X121105884Y-130577642D01*
X121105884Y-130577642D02*
X121105884Y-130720500D01*
X121105884Y-130720500D02*
X121034455Y-130934785D01*
X121034455Y-130934785D02*
X120177312Y-131791928D01*
X120177312Y-131791928D02*
X121105884Y-131791928D01*
X122034455Y-130291928D02*
X122177312Y-130291928D01*
X122177312Y-130291928D02*
X122320169Y-130363357D01*
X122320169Y-130363357D02*
X122391598Y-130434785D01*
X122391598Y-130434785D02*
X122463026Y-130577642D01*
X122463026Y-130577642D02*
X122534455Y-130863357D01*
X122534455Y-130863357D02*
X122534455Y-131220500D01*
X122534455Y-131220500D02*
X122463026Y-131506214D01*
X122463026Y-131506214D02*
X122391598Y-131649071D01*
X122391598Y-131649071D02*
X122320169Y-131720500D01*
X122320169Y-131720500D02*
X122177312Y-131791928D01*
X122177312Y-131791928D02*
X122034455Y-131791928D01*
X122034455Y-131791928D02*
X121891598Y-131720500D01*
X121891598Y-131720500D02*
X121820169Y-131649071D01*
X121820169Y-131649071D02*
X121748740Y-131506214D01*
X121748740Y-131506214D02*
X121677312Y-131220500D01*
X121677312Y-131220500D02*
X121677312Y-130863357D01*
X121677312Y-130863357D02*
X121748740Y-130577642D01*
X121748740Y-130577642D02*
X121820169Y-130434785D01*
X121820169Y-130434785D02*
X121891598Y-130363357D01*
X121891598Y-130363357D02*
X122034455Y-130291928D01*
X123105883Y-130434785D02*
X123177311Y-130363357D01*
X123177311Y-130363357D02*
X123320169Y-130291928D01*
X123320169Y-130291928D02*
X123677311Y-130291928D01*
X123677311Y-130291928D02*
X123820169Y-130363357D01*
X123820169Y-130363357D02*
X123891597Y-130434785D01*
X123891597Y-130434785D02*
X123963026Y-130577642D01*
X123963026Y-130577642D02*
X123963026Y-130720500D01*
X123963026Y-130720500D02*
X123891597Y-130934785D01*
X123891597Y-130934785D02*
X123034454Y-131791928D01*
X123034454Y-131791928D02*
X123963026Y-131791928D01*
X125248740Y-130791928D02*
X125248740Y-131791928D01*
X124891597Y-130220500D02*
X124534454Y-131291928D01*
X124534454Y-131291928D02*
X125463025Y-131291928D01*
X126034453Y-131220500D02*
X127177311Y-131220500D01*
X128677311Y-131791928D02*
X127820168Y-131791928D01*
X128248739Y-131791928D02*
X128248739Y-130291928D01*
X128248739Y-130291928D02*
X128105882Y-130506214D01*
X128105882Y-130506214D02*
X127963025Y-130649071D01*
X127963025Y-130649071D02*
X127820168Y-130720500D01*
X129248739Y-130434785D02*
X129320167Y-130363357D01*
X129320167Y-130363357D02*
X129463025Y-130291928D01*
X129463025Y-130291928D02*
X129820167Y-130291928D01*
X129820167Y-130291928D02*
X129963025Y-130363357D01*
X129963025Y-130363357D02*
X130034453Y-130434785D01*
X130034453Y-130434785D02*
X130105882Y-130577642D01*
X130105882Y-130577642D02*
X130105882Y-130720500D01*
X130105882Y-130720500D02*
X130034453Y-130934785D01*
X130034453Y-130934785D02*
X129177310Y-131791928D01*
X129177310Y-131791928D02*
X130105882Y-131791928D01*
X130748738Y-131220500D02*
X131891596Y-131220500D01*
X132463024Y-130291928D02*
X133391596Y-130291928D01*
X133391596Y-130291928D02*
X132891596Y-130863357D01*
X132891596Y-130863357D02*
X133105881Y-130863357D01*
X133105881Y-130863357D02*
X133248739Y-130934785D01*
X133248739Y-130934785D02*
X133320167Y-131006214D01*
X133320167Y-131006214D02*
X133391596Y-131149071D01*
X133391596Y-131149071D02*
X133391596Y-131506214D01*
X133391596Y-131506214D02*
X133320167Y-131649071D01*
X133320167Y-131649071D02*
X133248739Y-131720500D01*
X133248739Y-131720500D02*
X133105881Y-131791928D01*
X133105881Y-131791928D02*
X132677310Y-131791928D01*
X132677310Y-131791928D02*
X132534453Y-131720500D01*
X132534453Y-131720500D02*
X132463024Y-131649071D01*
X134320167Y-130291928D02*
X134463024Y-130291928D01*
X134463024Y-130291928D02*
X134605881Y-130363357D01*
X134605881Y-130363357D02*
X134677310Y-130434785D01*
X134677310Y-130434785D02*
X134748738Y-130577642D01*
X134748738Y-130577642D02*
X134820167Y-130863357D01*
X134820167Y-130863357D02*
X134820167Y-131220500D01*
X134820167Y-131220500D02*
X134748738Y-131506214D01*
X134748738Y-131506214D02*
X134677310Y-131649071D01*
X134677310Y-131649071D02*
X134605881Y-131720500D01*
X134605881Y-131720500D02*
X134463024Y-131791928D01*
X134463024Y-131791928D02*
X134320167Y-131791928D01*
X134320167Y-131791928D02*
X134177310Y-131720500D01*
X134177310Y-131720500D02*
X134105881Y-131649071D01*
X134105881Y-131649071D02*
X134034452Y-131506214D01*
X134034452Y-131506214D02*
X133963024Y-131220500D01*
X133963024Y-131220500D02*
X133963024Y-130863357D01*
X133963024Y-130863357D02*
X134034452Y-130577642D01*
X134034452Y-130577642D02*
X134105881Y-130434785D01*
X134105881Y-130434785D02*
X134177310Y-130363357D01*
X134177310Y-130363357D02*
X134320167Y-130291928D01*
D10*
D11*
X90007200Y-132505800D02*
X198007200Y-132505800D01*
D10*
D11*
X91463026Y-134591928D02*
X91463026Y-133091928D01*
X92320169Y-134591928D02*
X91677312Y-133734785D01*
X92320169Y-133091928D02*
X91463026Y-133949071D01*
X92963026Y-134591928D02*
X92963026Y-133591928D01*
X92963026Y-133091928D02*
X92891598Y-133163357D01*
X92891598Y-133163357D02*
X92963026Y-133234785D01*
X92963026Y-133234785D02*
X93034455Y-133163357D01*
X93034455Y-133163357D02*
X92963026Y-133091928D01*
X92963026Y-133091928D02*
X92963026Y-133234785D01*
X94534455Y-134449071D02*
X94463027Y-134520500D01*
X94463027Y-134520500D02*
X94248741Y-134591928D01*
X94248741Y-134591928D02*
X94105884Y-134591928D01*
X94105884Y-134591928D02*
X93891598Y-134520500D01*
X93891598Y-134520500D02*
X93748741Y-134377642D01*
X93748741Y-134377642D02*
X93677312Y-134234785D01*
X93677312Y-134234785D02*
X93605884Y-133949071D01*
X93605884Y-133949071D02*
X93605884Y-133734785D01*
X93605884Y-133734785D02*
X93677312Y-133449071D01*
X93677312Y-133449071D02*
X93748741Y-133306214D01*
X93748741Y-133306214D02*
X93891598Y-133163357D01*
X93891598Y-133163357D02*
X94105884Y-133091928D01*
X94105884Y-133091928D02*
X94248741Y-133091928D01*
X94248741Y-133091928D02*
X94463027Y-133163357D01*
X94463027Y-133163357D02*
X94534455Y-133234785D01*
X95820170Y-134591928D02*
X95820170Y-133806214D01*
X95820170Y-133806214D02*
X95748741Y-133663357D01*
X95748741Y-133663357D02*
X95605884Y-133591928D01*
X95605884Y-133591928D02*
X95320170Y-133591928D01*
X95320170Y-133591928D02*
X95177312Y-133663357D01*
X95820170Y-134520500D02*
X95677312Y-134591928D01*
X95677312Y-134591928D02*
X95320170Y-134591928D01*
X95320170Y-134591928D02*
X95177312Y-134520500D01*
X95177312Y-134520500D02*
X95105884Y-134377642D01*
X95105884Y-134377642D02*
X95105884Y-134234785D01*
X95105884Y-134234785D02*
X95177312Y-134091928D01*
X95177312Y-134091928D02*
X95320170Y-134020500D01*
X95320170Y-134020500D02*
X95677312Y-134020500D01*
X95677312Y-134020500D02*
X95820170Y-133949071D01*
X97177313Y-134591928D02*
X97177313Y-133091928D01*
X97177313Y-134520500D02*
X97034455Y-134591928D01*
X97034455Y-134591928D02*
X96748741Y-134591928D01*
X96748741Y-134591928D02*
X96605884Y-134520500D01*
X96605884Y-134520500D02*
X96534455Y-134449071D01*
X96534455Y-134449071D02*
X96463027Y-134306214D01*
X96463027Y-134306214D02*
X96463027Y-133877642D01*
X96463027Y-133877642D02*
X96534455Y-133734785D01*
X96534455Y-133734785D02*
X96605884Y-133663357D01*
X96605884Y-133663357D02*
X96748741Y-133591928D01*
X96748741Y-133591928D02*
X97034455Y-133591928D01*
X97034455Y-133591928D02*
X97177313Y-133663357D01*
X99034455Y-133806214D02*
X99534455Y-133806214D01*
X99748741Y-134591928D02*
X99034455Y-134591928D01*
X99034455Y-134591928D02*
X99034455Y-133091928D01*
X99034455Y-133091928D02*
X99748741Y-133091928D01*
X100391598Y-134449071D02*
X100463027Y-134520500D01*
X100463027Y-134520500D02*
X100391598Y-134591928D01*
X100391598Y-134591928D02*
X100320170Y-134520500D01*
X100320170Y-134520500D02*
X100391598Y-134449071D01*
X100391598Y-134449071D02*
X100391598Y-134591928D01*
X101105884Y-134591928D02*
X101105884Y-133091928D01*
X101105884Y-133091928D02*
X101463027Y-133091928D01*
X101463027Y-133091928D02*
X101677313Y-133163357D01*
X101677313Y-133163357D02*
X101820170Y-133306214D01*
X101820170Y-133306214D02*
X101891599Y-133449071D01*
X101891599Y-133449071D02*
X101963027Y-133734785D01*
X101963027Y-133734785D02*
X101963027Y-133949071D01*
X101963027Y-133949071D02*
X101891599Y-134234785D01*
X101891599Y-134234785D02*
X101820170Y-134377642D01*
X101820170Y-134377642D02*
X101677313Y-134520500D01*
X101677313Y-134520500D02*
X101463027Y-134591928D01*
X101463027Y-134591928D02*
X101105884Y-134591928D01*
X102605884Y-134449071D02*
X102677313Y-134520500D01*
X102677313Y-134520500D02*
X102605884Y-134591928D01*
X102605884Y-134591928D02*
X102534456Y-134520500D01*
X102534456Y-134520500D02*
X102605884Y-134449071D01*
X102605884Y-134449071D02*
X102605884Y-134591928D01*
X103248742Y-134163357D02*
X103963028Y-134163357D01*
X103105885Y-134591928D02*
X103605885Y-133091928D01*
X103605885Y-133091928D02*
X104105885Y-134591928D01*
X104605884Y-134449071D02*
X104677313Y-134520500D01*
X104677313Y-134520500D02*
X104605884Y-134591928D01*
X104605884Y-134591928D02*
X104534456Y-134520500D01*
X104534456Y-134520500D02*
X104605884Y-134449071D01*
X104605884Y-134449071D02*
X104605884Y-134591928D01*
X106677313Y-133734785D02*
X106534456Y-133663357D01*
X106534456Y-133663357D02*
X106463027Y-133591928D01*
X106463027Y-133591928D02*
X106391599Y-133449071D01*
X106391599Y-133449071D02*
X106391599Y-133377642D01*
X106391599Y-133377642D02*
X106463027Y-133234785D01*
X106463027Y-133234785D02*
X106534456Y-133163357D01*
X106534456Y-133163357D02*
X106677313Y-133091928D01*
X106677313Y-133091928D02*
X106963027Y-133091928D01*
X106963027Y-133091928D02*
X107105885Y-133163357D01*
X107105885Y-133163357D02*
X107177313Y-133234785D01*
X107177313Y-133234785D02*
X107248742Y-133377642D01*
X107248742Y-133377642D02*
X107248742Y-133449071D01*
X107248742Y-133449071D02*
X107177313Y-133591928D01*
X107177313Y-133591928D02*
X107105885Y-133663357D01*
X107105885Y-133663357D02*
X106963027Y-133734785D01*
X106963027Y-133734785D02*
X106677313Y-133734785D01*
X106677313Y-133734785D02*
X106534456Y-133806214D01*
X106534456Y-133806214D02*
X106463027Y-133877642D01*
X106463027Y-133877642D02*
X106391599Y-134020500D01*
X106391599Y-134020500D02*
X106391599Y-134306214D01*
X106391599Y-134306214D02*
X106463027Y-134449071D01*
X106463027Y-134449071D02*
X106534456Y-134520500D01*
X106534456Y-134520500D02*
X106677313Y-134591928D01*
X106677313Y-134591928D02*
X106963027Y-134591928D01*
X106963027Y-134591928D02*
X107105885Y-134520500D01*
X107105885Y-134520500D02*
X107177313Y-134449071D01*
X107177313Y-134449071D02*
X107248742Y-134306214D01*
X107248742Y-134306214D02*
X107248742Y-134020500D01*
X107248742Y-134020500D02*
X107177313Y-133877642D01*
X107177313Y-133877642D02*
X107105885Y-133806214D01*
X107105885Y-133806214D02*
X106963027Y-133734785D01*
X107891598Y-134449071D02*
X107963027Y-134520500D01*
X107963027Y-134520500D02*
X107891598Y-134591928D01*
X107891598Y-134591928D02*
X107820170Y-134520500D01*
X107820170Y-134520500D02*
X107891598Y-134449071D01*
X107891598Y-134449071D02*
X107891598Y-134591928D01*
X108891599Y-133091928D02*
X109034456Y-133091928D01*
X109034456Y-133091928D02*
X109177313Y-133163357D01*
X109177313Y-133163357D02*
X109248742Y-133234785D01*
X109248742Y-133234785D02*
X109320170Y-133377642D01*
X109320170Y-133377642D02*
X109391599Y-133663357D01*
X109391599Y-133663357D02*
X109391599Y-134020500D01*
X109391599Y-134020500D02*
X109320170Y-134306214D01*
X109320170Y-134306214D02*
X109248742Y-134449071D01*
X109248742Y-134449071D02*
X109177313Y-134520500D01*
X109177313Y-134520500D02*
X109034456Y-134591928D01*
X109034456Y-134591928D02*
X108891599Y-134591928D01*
X108891599Y-134591928D02*
X108748742Y-134520500D01*
X108748742Y-134520500D02*
X108677313Y-134449071D01*
X108677313Y-134449071D02*
X108605884Y-134306214D01*
X108605884Y-134306214D02*
X108534456Y-134020500D01*
X108534456Y-134020500D02*
X108534456Y-133663357D01*
X108534456Y-133663357D02*
X108605884Y-133377642D01*
X108605884Y-133377642D02*
X108677313Y-133234785D01*
X108677313Y-133234785D02*
X108748742Y-133163357D01*
X108748742Y-133163357D02*
X108891599Y-133091928D01*
X110034455Y-134449071D02*
X110105884Y-134520500D01*
X110105884Y-134520500D02*
X110034455Y-134591928D01*
X110034455Y-134591928D02*
X109963027Y-134520500D01*
X109963027Y-134520500D02*
X110034455Y-134449071D01*
X110034455Y-134449071D02*
X110034455Y-134591928D01*
X110605884Y-133091928D02*
X111605884Y-133091928D01*
X111605884Y-133091928D02*
X110963027Y-134591928D01*
D10*
D11*
X90007200Y-129505800D02*
X198007200Y-129505800D01*
D10*
D12*
X177418853Y-131784128D02*
X176918853Y-131069842D01*
X176561710Y-131784128D02*
X176561710Y-130284128D01*
X176561710Y-130284128D02*
X177133139Y-130284128D01*
X177133139Y-130284128D02*
X177275996Y-130355557D01*
X177275996Y-130355557D02*
X177347425Y-130426985D01*
X177347425Y-130426985D02*
X177418853Y-130569842D01*
X177418853Y-130569842D02*
X177418853Y-130784128D01*
X177418853Y-130784128D02*
X177347425Y-130926985D01*
X177347425Y-130926985D02*
X177275996Y-130998414D01*
X177275996Y-130998414D02*
X177133139Y-131069842D01*
X177133139Y-131069842D02*
X176561710Y-131069842D01*
X178633139Y-131712700D02*
X178490282Y-131784128D01*
X178490282Y-131784128D02*
X178204568Y-131784128D01*
X178204568Y-131784128D02*
X178061710Y-131712700D01*
X178061710Y-131712700D02*
X177990282Y-131569842D01*
X177990282Y-131569842D02*
X177990282Y-130998414D01*
X177990282Y-130998414D02*
X178061710Y-130855557D01*
X178061710Y-130855557D02*
X178204568Y-130784128D01*
X178204568Y-130784128D02*
X178490282Y-130784128D01*
X178490282Y-130784128D02*
X178633139Y-130855557D01*
X178633139Y-130855557D02*
X178704568Y-130998414D01*
X178704568Y-130998414D02*
X178704568Y-131141271D01*
X178704568Y-131141271D02*
X177990282Y-131284128D01*
X179204567Y-130784128D02*
X179561710Y-131784128D01*
X179561710Y-131784128D02*
X179918853Y-130784128D01*
X180490281Y-131641271D02*
X180561710Y-131712700D01*
X180561710Y-131712700D02*
X180490281Y-131784128D01*
X180490281Y-131784128D02*
X180418853Y-131712700D01*
X180418853Y-131712700D02*
X180490281Y-131641271D01*
X180490281Y-131641271D02*
X180490281Y-131784128D01*
X180490281Y-130855557D02*
X180561710Y-130926985D01*
X180561710Y-130926985D02*
X180490281Y-130998414D01*
X180490281Y-130998414D02*
X180418853Y-130926985D01*
X180418853Y-130926985D02*
X180490281Y-130855557D01*
X180490281Y-130855557D02*
X180490281Y-130998414D01*
X182204567Y-130284128D02*
X183133139Y-130284128D01*
X183133139Y-130284128D02*
X182633139Y-130855557D01*
X182633139Y-130855557D02*
X182847424Y-130855557D01*
X182847424Y-130855557D02*
X182990282Y-130926985D01*
X182990282Y-130926985D02*
X183061710Y-130998414D01*
X183061710Y-130998414D02*
X183133139Y-131141271D01*
X183133139Y-131141271D02*
X183133139Y-131498414D01*
X183133139Y-131498414D02*
X183061710Y-131641271D01*
X183061710Y-131641271D02*
X182990282Y-131712700D01*
X182990282Y-131712700D02*
X182847424Y-131784128D01*
X182847424Y-131784128D02*
X182418853Y-131784128D01*
X182418853Y-131784128D02*
X182275996Y-131712700D01*
X182275996Y-131712700D02*
X182204567Y-131641271D01*
D10*
D11*
X91391598Y-131720500D02*
X91605884Y-131791928D01*
X91605884Y-131791928D02*
X91963026Y-131791928D01*
X91963026Y-131791928D02*
X92105884Y-131720500D01*
X92105884Y-131720500D02*
X92177312Y-131649071D01*
X92177312Y-131649071D02*
X92248741Y-131506214D01*
X92248741Y-131506214D02*
X92248741Y-131363357D01*
X92248741Y-131363357D02*
X92177312Y-131220500D01*
X92177312Y-131220500D02*
X92105884Y-131149071D01*
X92105884Y-131149071D02*
X91963026Y-131077642D01*
X91963026Y-131077642D02*
X91677312Y-131006214D01*
X91677312Y-131006214D02*
X91534455Y-130934785D01*
X91534455Y-130934785D02*
X91463026Y-130863357D01*
X91463026Y-130863357D02*
X91391598Y-130720500D01*
X91391598Y-130720500D02*
X91391598Y-130577642D01*
X91391598Y-130577642D02*
X91463026Y-130434785D01*
X91463026Y-130434785D02*
X91534455Y-130363357D01*
X91534455Y-130363357D02*
X91677312Y-130291928D01*
X91677312Y-130291928D02*
X92034455Y-130291928D01*
X92034455Y-130291928D02*
X92248741Y-130363357D01*
X92891597Y-131791928D02*
X92891597Y-130791928D01*
X92891597Y-130291928D02*
X92820169Y-130363357D01*
X92820169Y-130363357D02*
X92891597Y-130434785D01*
X92891597Y-130434785D02*
X92963026Y-130363357D01*
X92963026Y-130363357D02*
X92891597Y-130291928D01*
X92891597Y-130291928D02*
X92891597Y-130434785D01*
X93463026Y-130791928D02*
X94248741Y-130791928D01*
X94248741Y-130791928D02*
X93463026Y-131791928D01*
X93463026Y-131791928D02*
X94248741Y-131791928D01*
X95391598Y-131720500D02*
X95248741Y-131791928D01*
X95248741Y-131791928D02*
X94963027Y-131791928D01*
X94963027Y-131791928D02*
X94820169Y-131720500D01*
X94820169Y-131720500D02*
X94748741Y-131577642D01*
X94748741Y-131577642D02*
X94748741Y-131006214D01*
X94748741Y-131006214D02*
X94820169Y-130863357D01*
X94820169Y-130863357D02*
X94963027Y-130791928D01*
X94963027Y-130791928D02*
X95248741Y-130791928D01*
X95248741Y-130791928D02*
X95391598Y-130863357D01*
X95391598Y-130863357D02*
X95463027Y-131006214D01*
X95463027Y-131006214D02*
X95463027Y-131149071D01*
X95463027Y-131149071D02*
X94748741Y-131291928D01*
X96105883Y-131649071D02*
X96177312Y-131720500D01*
X96177312Y-131720500D02*
X96105883Y-131791928D01*
X96105883Y-131791928D02*
X96034455Y-131720500D01*
X96034455Y-131720500D02*
X96105883Y-131649071D01*
X96105883Y-131649071D02*
X96105883Y-131791928D01*
X96105883Y-130863357D02*
X96177312Y-130934785D01*
X96177312Y-130934785D02*
X96105883Y-131006214D01*
X96105883Y-131006214D02*
X96034455Y-130934785D01*
X96034455Y-130934785D02*
X96105883Y-130863357D01*
X96105883Y-130863357D02*
X96105883Y-131006214D01*
X97891598Y-131363357D02*
X98605884Y-131363357D01*
X97748741Y-131791928D02*
X98248741Y-130291928D01*
X98248741Y-130291928D02*
X98748741Y-131791928D01*
X99963026Y-130291928D02*
X99248740Y-130291928D01*
X99248740Y-130291928D02*
X99177312Y-131006214D01*
X99177312Y-131006214D02*
X99248740Y-130934785D01*
X99248740Y-130934785D02*
X99391598Y-130863357D01*
X99391598Y-130863357D02*
X99748740Y-130863357D01*
X99748740Y-130863357D02*
X99891598Y-130934785D01*
X99891598Y-130934785D02*
X99963026Y-131006214D01*
X99963026Y-131006214D02*
X100034455Y-131149071D01*
X100034455Y-131149071D02*
X100034455Y-131506214D01*
X100034455Y-131506214D02*
X99963026Y-131649071D01*
X99963026Y-131649071D02*
X99891598Y-131720500D01*
X99891598Y-131720500D02*
X99748740Y-131791928D01*
X99748740Y-131791928D02*
X99391598Y-131791928D01*
X99391598Y-131791928D02*
X99248740Y-131720500D01*
X99248740Y-131720500D02*
X99177312Y-131649071D01*
D10*
D11*
X176463026Y-134591928D02*
X176463026Y-133091928D01*
X177820170Y-134591928D02*
X177820170Y-133091928D01*
X177820170Y-134520500D02*
X177677312Y-134591928D01*
X177677312Y-134591928D02*
X177391598Y-134591928D01*
X177391598Y-134591928D02*
X177248741Y-134520500D01*
X177248741Y-134520500D02*
X177177312Y-134449071D01*
X177177312Y-134449071D02*
X177105884Y-134306214D01*
X177105884Y-134306214D02*
X177105884Y-133877642D01*
X177105884Y-133877642D02*
X177177312Y-133734785D01*
X177177312Y-133734785D02*
X177248741Y-133663357D01*
X177248741Y-133663357D02*
X177391598Y-133591928D01*
X177391598Y-133591928D02*
X177677312Y-133591928D01*
X177677312Y-133591928D02*
X177820170Y-133663357D01*
X178534455Y-134449071D02*
X178605884Y-134520500D01*
X178605884Y-134520500D02*
X178534455Y-134591928D01*
X178534455Y-134591928D02*
X178463027Y-134520500D01*
X178463027Y-134520500D02*
X178534455Y-134449071D01*
X178534455Y-134449071D02*
X178534455Y-134591928D01*
X178534455Y-133663357D02*
X178605884Y-133734785D01*
X178605884Y-133734785D02*
X178534455Y-133806214D01*
X178534455Y-133806214D02*
X178463027Y-133734785D01*
X178463027Y-133734785D02*
X178534455Y-133663357D01*
X178534455Y-133663357D02*
X178534455Y-133806214D01*
X181177313Y-134591928D02*
X180320170Y-134591928D01*
X180748741Y-134591928D02*
X180748741Y-133091928D01*
X180748741Y-133091928D02*
X180605884Y-133306214D01*
X180605884Y-133306214D02*
X180463027Y-133449071D01*
X180463027Y-133449071D02*
X180320170Y-133520500D01*
X182891598Y-133020500D02*
X181605884Y-134949071D01*
X184177313Y-134591928D02*
X183320170Y-134591928D01*
X183748741Y-134591928D02*
X183748741Y-133091928D01*
X183748741Y-133091928D02*
X183605884Y-133306214D01*
X183605884Y-133306214D02*
X183463027Y-133449071D01*
X183463027Y-133449071D02*
X183320170Y-133520500D01*
D10*
D11*
X90007200Y-125505800D02*
X198007200Y-125505800D01*
D10*
D13*
X91698928Y-126210238D02*
X92841785Y-126210238D01*
X92020357Y-128210238D02*
X92270357Y-126210238D01*
X93258452Y-128210238D02*
X93425119Y-126876904D01*
X93508452Y-126210238D02*
X93401309Y-126305476D01*
X93401309Y-126305476D02*
X93484643Y-126400714D01*
X93484643Y-126400714D02*
X93591786Y-126305476D01*
X93591786Y-126305476D02*
X93508452Y-126210238D01*
X93508452Y-126210238D02*
X93484643Y-126400714D01*
X94091786Y-126876904D02*
X94853690Y-126876904D01*
X94460833Y-126210238D02*
X94246548Y-127924523D01*
X94246548Y-127924523D02*
X94317976Y-128115000D01*
X94317976Y-128115000D02*
X94496548Y-128210238D01*
X94496548Y-128210238D02*
X94687024Y-128210238D01*
X95639405Y-128210238D02*
X95460833Y-128115000D01*
X95460833Y-128115000D02*
X95389405Y-127924523D01*
X95389405Y-127924523D02*
X95603690Y-126210238D01*
X97175119Y-128115000D02*
X96972738Y-128210238D01*
X96972738Y-128210238D02*
X96591785Y-128210238D01*
X96591785Y-128210238D02*
X96413214Y-128115000D01*
X96413214Y-128115000D02*
X96341785Y-127924523D01*
X96341785Y-127924523D02*
X96437024Y-127162619D01*
X96437024Y-127162619D02*
X96556071Y-126972142D01*
X96556071Y-126972142D02*
X96758452Y-126876904D01*
X96758452Y-126876904D02*
X97139404Y-126876904D01*
X97139404Y-126876904D02*
X97317976Y-126972142D01*
X97317976Y-126972142D02*
X97389404Y-127162619D01*
X97389404Y-127162619D02*
X97365595Y-127353095D01*
X97365595Y-127353095D02*
X96389404Y-127543571D01*
X98139405Y-128019761D02*
X98222738Y-128115000D01*
X98222738Y-128115000D02*
X98115595Y-128210238D01*
X98115595Y-128210238D02*
X98032262Y-128115000D01*
X98032262Y-128115000D02*
X98139405Y-128019761D01*
X98139405Y-128019761D02*
X98115595Y-128210238D01*
X98270357Y-126972142D02*
X98353690Y-127067380D01*
X98353690Y-127067380D02*
X98246548Y-127162619D01*
X98246548Y-127162619D02*
X98163214Y-127067380D01*
X98163214Y-127067380D02*
X98270357Y-126972142D01*
X98270357Y-126972142D02*
X98246548Y-127162619D01*
X100567977Y-127638809D02*
X101520358Y-127638809D01*
X100306072Y-128210238D02*
X101222739Y-126210238D01*
X101222739Y-126210238D02*
X101639405Y-128210238D01*
X102282263Y-126876904D02*
X102591787Y-128210238D01*
X102591787Y-128210238D02*
X103234644Y-126876904D01*
X103829882Y-128210238D02*
X103996549Y-126876904D01*
X104079882Y-126210238D02*
X103972739Y-126305476D01*
X103972739Y-126305476D02*
X104056073Y-126400714D01*
X104056073Y-126400714D02*
X104163216Y-126305476D01*
X104163216Y-126305476D02*
X104079882Y-126210238D01*
X104079882Y-126210238D02*
X104056073Y-126400714D01*
X105067978Y-128210238D02*
X104889406Y-128115000D01*
X104889406Y-128115000D02*
X104806073Y-128019761D01*
X104806073Y-128019761D02*
X104734644Y-127829285D01*
X104734644Y-127829285D02*
X104806073Y-127257857D01*
X104806073Y-127257857D02*
X104925120Y-127067380D01*
X104925120Y-127067380D02*
X105032263Y-126972142D01*
X105032263Y-126972142D02*
X105234644Y-126876904D01*
X105234644Y-126876904D02*
X105520358Y-126876904D01*
X105520358Y-126876904D02*
X105698930Y-126972142D01*
X105698930Y-126972142D02*
X105782263Y-127067380D01*
X105782263Y-127067380D02*
X105853692Y-127257857D01*
X105853692Y-127257857D02*
X105782263Y-127829285D01*
X105782263Y-127829285D02*
X105663216Y-128019761D01*
X105663216Y-128019761D02*
X105556073Y-128115000D01*
X105556073Y-128115000D02*
X105353692Y-128210238D01*
X105353692Y-128210238D02*
X105067978Y-128210238D01*
X106758454Y-126876904D02*
X106591787Y-128210238D01*
X106734644Y-127067380D02*
X106841787Y-126972142D01*
X106841787Y-126972142D02*
X107044168Y-126876904D01*
X107044168Y-126876904D02*
X107329882Y-126876904D01*
X107329882Y-126876904D02*
X107508454Y-126972142D01*
X107508454Y-126972142D02*
X107579882Y-127162619D01*
X107579882Y-127162619D02*
X107448930Y-128210238D01*
X108401311Y-128210238D02*
X108567978Y-126876904D01*
X108651311Y-126210238D02*
X108544168Y-126305476D01*
X108544168Y-126305476D02*
X108627502Y-126400714D01*
X108627502Y-126400714D02*
X108734645Y-126305476D01*
X108734645Y-126305476D02*
X108651311Y-126210238D01*
X108651311Y-126210238D02*
X108627502Y-126400714D01*
X110222740Y-128115000D02*
X110020359Y-128210238D01*
X110020359Y-128210238D02*
X109639407Y-128210238D01*
X109639407Y-128210238D02*
X109460835Y-128115000D01*
X109460835Y-128115000D02*
X109377502Y-128019761D01*
X109377502Y-128019761D02*
X109306073Y-127829285D01*
X109306073Y-127829285D02*
X109377502Y-127257857D01*
X109377502Y-127257857D02*
X109496549Y-127067380D01*
X109496549Y-127067380D02*
X109603692Y-126972142D01*
X109603692Y-126972142D02*
X109806073Y-126876904D01*
X109806073Y-126876904D02*
X110187026Y-126876904D01*
X110187026Y-126876904D02*
X110365597Y-126972142D01*
X110984645Y-128115000D02*
X111163216Y-128210238D01*
X111163216Y-128210238D02*
X111544169Y-128210238D01*
X111544169Y-128210238D02*
X111746550Y-128115000D01*
X111746550Y-128115000D02*
X111865597Y-127924523D01*
X111865597Y-127924523D02*
X111877502Y-127829285D01*
X111877502Y-127829285D02*
X111806073Y-127638809D01*
X111806073Y-127638809D02*
X111627502Y-127543571D01*
X111627502Y-127543571D02*
X111341788Y-127543571D01*
X111341788Y-127543571D02*
X111163216Y-127448333D01*
X111163216Y-127448333D02*
X111091788Y-127257857D01*
X111091788Y-127257857D02*
X111103693Y-127162619D01*
X111103693Y-127162619D02*
X111222740Y-126972142D01*
X111222740Y-126972142D02*
X111425121Y-126876904D01*
X111425121Y-126876904D02*
X111710835Y-126876904D01*
X111710835Y-126876904D02*
X111889407Y-126972142D01*
X115008455Y-127162619D02*
X115282265Y-127257857D01*
X115282265Y-127257857D02*
X115365598Y-127353095D01*
X115365598Y-127353095D02*
X115437027Y-127543571D01*
X115437027Y-127543571D02*
X115401312Y-127829285D01*
X115401312Y-127829285D02*
X115282265Y-128019761D01*
X115282265Y-128019761D02*
X115175122Y-128115000D01*
X115175122Y-128115000D02*
X114972741Y-128210238D01*
X114972741Y-128210238D02*
X114210836Y-128210238D01*
X114210836Y-128210238D02*
X114460836Y-126210238D01*
X114460836Y-126210238D02*
X115127503Y-126210238D01*
X115127503Y-126210238D02*
X115306074Y-126305476D01*
X115306074Y-126305476D02*
X115389408Y-126400714D01*
X115389408Y-126400714D02*
X115460836Y-126591190D01*
X115460836Y-126591190D02*
X115437027Y-126781666D01*
X115437027Y-126781666D02*
X115317979Y-126972142D01*
X115317979Y-126972142D02*
X115210836Y-127067380D01*
X115210836Y-127067380D02*
X115008455Y-127162619D01*
X115008455Y-127162619D02*
X114341789Y-127162619D01*
X116496551Y-128210238D02*
X116317979Y-128115000D01*
X116317979Y-128115000D02*
X116234646Y-128019761D01*
X116234646Y-128019761D02*
X116163217Y-127829285D01*
X116163217Y-127829285D02*
X116234646Y-127257857D01*
X116234646Y-127257857D02*
X116353693Y-127067380D01*
X116353693Y-127067380D02*
X116460836Y-126972142D01*
X116460836Y-126972142D02*
X116663217Y-126876904D01*
X116663217Y-126876904D02*
X116948931Y-126876904D01*
X116948931Y-126876904D02*
X117127503Y-126972142D01*
X117127503Y-126972142D02*
X117210836Y-127067380D01*
X117210836Y-127067380D02*
X117282265Y-127257857D01*
X117282265Y-127257857D02*
X117210836Y-127829285D01*
X117210836Y-127829285D02*
X117091789Y-128019761D01*
X117091789Y-128019761D02*
X116984646Y-128115000D01*
X116984646Y-128115000D02*
X116782265Y-128210238D01*
X116782265Y-128210238D02*
X116496551Y-128210238D01*
X118877503Y-128210238D02*
X119008455Y-127162619D01*
X119008455Y-127162619D02*
X118937027Y-126972142D01*
X118937027Y-126972142D02*
X118758455Y-126876904D01*
X118758455Y-126876904D02*
X118377503Y-126876904D01*
X118377503Y-126876904D02*
X118175122Y-126972142D01*
X118889408Y-128115000D02*
X118687027Y-128210238D01*
X118687027Y-128210238D02*
X118210836Y-128210238D01*
X118210836Y-128210238D02*
X118032265Y-128115000D01*
X118032265Y-128115000D02*
X117960836Y-127924523D01*
X117960836Y-127924523D02*
X117984646Y-127734047D01*
X117984646Y-127734047D02*
X118103694Y-127543571D01*
X118103694Y-127543571D02*
X118306075Y-127448333D01*
X118306075Y-127448333D02*
X118782265Y-127448333D01*
X118782265Y-127448333D02*
X118984646Y-127353095D01*
X119829884Y-128210238D02*
X119996551Y-126876904D01*
X119948932Y-127257857D02*
X120067979Y-127067380D01*
X120067979Y-127067380D02*
X120175122Y-126972142D01*
X120175122Y-126972142D02*
X120377503Y-126876904D01*
X120377503Y-126876904D02*
X120567979Y-126876904D01*
X121925122Y-128210238D02*
X122175122Y-126210238D01*
X121937027Y-128115000D02*
X121734646Y-128210238D01*
X121734646Y-128210238D02*
X121353694Y-128210238D01*
X121353694Y-128210238D02*
X121175122Y-128115000D01*
X121175122Y-128115000D02*
X121091789Y-128019761D01*
X121091789Y-128019761D02*
X121020360Y-127829285D01*
X121020360Y-127829285D02*
X121091789Y-127257857D01*
X121091789Y-127257857D02*
X121210836Y-127067380D01*
X121210836Y-127067380D02*
X121317979Y-126972142D01*
X121317979Y-126972142D02*
X121520360Y-126876904D01*
X121520360Y-126876904D02*
X121901313Y-126876904D01*
X121901313Y-126876904D02*
X122079884Y-126972142D01*
D10*
D11*
X91963026Y-123606214D02*
X91463026Y-123606214D01*
X91463026Y-124391928D02*
X91463026Y-122891928D01*
X91463026Y-122891928D02*
X92177312Y-122891928D01*
X92748740Y-124391928D02*
X92748740Y-123391928D01*
X92748740Y-122891928D02*
X92677312Y-122963357D01*
X92677312Y-122963357D02*
X92748740Y-123034785D01*
X92748740Y-123034785D02*
X92820169Y-122963357D01*
X92820169Y-122963357D02*
X92748740Y-122891928D01*
X92748740Y-122891928D02*
X92748740Y-123034785D01*
X93677312Y-124391928D02*
X93534455Y-124320500D01*
X93534455Y-124320500D02*
X93463026Y-124177642D01*
X93463026Y-124177642D02*
X93463026Y-122891928D01*
X94820169Y-124320500D02*
X94677312Y-124391928D01*
X94677312Y-124391928D02*
X94391598Y-124391928D01*
X94391598Y-124391928D02*
X94248740Y-124320500D01*
X94248740Y-124320500D02*
X94177312Y-124177642D01*
X94177312Y-124177642D02*
X94177312Y-123606214D01*
X94177312Y-123606214D02*
X94248740Y-123463357D01*
X94248740Y-123463357D02*
X94391598Y-123391928D01*
X94391598Y-123391928D02*
X94677312Y-123391928D01*
X94677312Y-123391928D02*
X94820169Y-123463357D01*
X94820169Y-123463357D02*
X94891598Y-123606214D01*
X94891598Y-123606214D02*
X94891598Y-123749071D01*
X94891598Y-123749071D02*
X94177312Y-123891928D01*
X95534454Y-124249071D02*
X95605883Y-124320500D01*
X95605883Y-124320500D02*
X95534454Y-124391928D01*
X95534454Y-124391928D02*
X95463026Y-124320500D01*
X95463026Y-124320500D02*
X95534454Y-124249071D01*
X95534454Y-124249071D02*
X95534454Y-124391928D01*
X95534454Y-123463357D02*
X95605883Y-123534785D01*
X95605883Y-123534785D02*
X95534454Y-123606214D01*
X95534454Y-123606214D02*
X95463026Y-123534785D01*
X95463026Y-123534785D02*
X95534454Y-123463357D01*
X95534454Y-123463357D02*
X95534454Y-123606214D01*
X97320169Y-123963357D02*
X98034455Y-123963357D01*
X97177312Y-124391928D02*
X97677312Y-122891928D01*
X97677312Y-122891928D02*
X98177312Y-124391928D01*
X98534454Y-123391928D02*
X98891597Y-124391928D01*
X98891597Y-124391928D02*
X99248740Y-123391928D01*
X99820168Y-124391928D02*
X99820168Y-123391928D01*
X99820168Y-122891928D02*
X99748740Y-122963357D01*
X99748740Y-122963357D02*
X99820168Y-123034785D01*
X99820168Y-123034785D02*
X99891597Y-122963357D01*
X99891597Y-122963357D02*
X99820168Y-122891928D01*
X99820168Y-122891928D02*
X99820168Y-123034785D01*
X100748740Y-124391928D02*
X100605883Y-124320500D01*
X100605883Y-124320500D02*
X100534454Y-124249071D01*
X100534454Y-124249071D02*
X100463026Y-124106214D01*
X100463026Y-124106214D02*
X100463026Y-123677642D01*
X100463026Y-123677642D02*
X100534454Y-123534785D01*
X100534454Y-123534785D02*
X100605883Y-123463357D01*
X100605883Y-123463357D02*
X100748740Y-123391928D01*
X100748740Y-123391928D02*
X100963026Y-123391928D01*
X100963026Y-123391928D02*
X101105883Y-123463357D01*
X101105883Y-123463357D02*
X101177312Y-123534785D01*
X101177312Y-123534785D02*
X101248740Y-123677642D01*
X101248740Y-123677642D02*
X101248740Y-124106214D01*
X101248740Y-124106214D02*
X101177312Y-124249071D01*
X101177312Y-124249071D02*
X101105883Y-124320500D01*
X101105883Y-124320500D02*
X100963026Y-124391928D01*
X100963026Y-124391928D02*
X100748740Y-124391928D01*
X101891597Y-123391928D02*
X101891597Y-124391928D01*
X101891597Y-123534785D02*
X101963026Y-123463357D01*
X101963026Y-123463357D02*
X102105883Y-123391928D01*
X102105883Y-123391928D02*
X102320169Y-123391928D01*
X102320169Y-123391928D02*
X102463026Y-123463357D01*
X102463026Y-123463357D02*
X102534455Y-123606214D01*
X102534455Y-123606214D02*
X102534455Y-124391928D01*
X103248740Y-124391928D02*
X103248740Y-123391928D01*
X103248740Y-122891928D02*
X103177312Y-122963357D01*
X103177312Y-122963357D02*
X103248740Y-123034785D01*
X103248740Y-123034785D02*
X103320169Y-122963357D01*
X103320169Y-122963357D02*
X103248740Y-122891928D01*
X103248740Y-122891928D02*
X103248740Y-123034785D01*
X104605884Y-124320500D02*
X104463026Y-124391928D01*
X104463026Y-124391928D02*
X104177312Y-124391928D01*
X104177312Y-124391928D02*
X104034455Y-124320500D01*
X104034455Y-124320500D02*
X103963026Y-124249071D01*
X103963026Y-124249071D02*
X103891598Y-124106214D01*
X103891598Y-124106214D02*
X103891598Y-123677642D01*
X103891598Y-123677642D02*
X103963026Y-123534785D01*
X103963026Y-123534785D02*
X104034455Y-123463357D01*
X104034455Y-123463357D02*
X104177312Y-123391928D01*
X104177312Y-123391928D02*
X104463026Y-123391928D01*
X104463026Y-123391928D02*
X104605884Y-123463357D01*
X105177312Y-124320500D02*
X105320169Y-124391928D01*
X105320169Y-124391928D02*
X105605883Y-124391928D01*
X105605883Y-124391928D02*
X105748740Y-124320500D01*
X105748740Y-124320500D02*
X105820169Y-124177642D01*
X105820169Y-124177642D02*
X105820169Y-124106214D01*
X105820169Y-124106214D02*
X105748740Y-123963357D01*
X105748740Y-123963357D02*
X105605883Y-123891928D01*
X105605883Y-123891928D02*
X105391598Y-123891928D01*
X105391598Y-123891928D02*
X105248740Y-123820500D01*
X105248740Y-123820500D02*
X105177312Y-123677642D01*
X105177312Y-123677642D02*
X105177312Y-123606214D01*
X105177312Y-123606214D02*
X105248740Y-123463357D01*
X105248740Y-123463357D02*
X105391598Y-123391928D01*
X105391598Y-123391928D02*
X105605883Y-123391928D01*
X105605883Y-123391928D02*
X105748740Y-123463357D01*
X107605883Y-124391928D02*
X107605883Y-122891928D01*
X108320169Y-123391928D02*
X108320169Y-124391928D01*
X108320169Y-123534785D02*
X108391598Y-123463357D01*
X108391598Y-123463357D02*
X108534455Y-123391928D01*
X108534455Y-123391928D02*
X108748741Y-123391928D01*
X108748741Y-123391928D02*
X108891598Y-123463357D01*
X108891598Y-123463357D02*
X108963027Y-123606214D01*
X108963027Y-123606214D02*
X108963027Y-124391928D01*
X109605884Y-124320500D02*
X109748741Y-124391928D01*
X109748741Y-124391928D02*
X110034455Y-124391928D01*
X110034455Y-124391928D02*
X110177312Y-124320500D01*
X110177312Y-124320500D02*
X110248741Y-124177642D01*
X110248741Y-124177642D02*
X110248741Y-124106214D01*
X110248741Y-124106214D02*
X110177312Y-123963357D01*
X110177312Y-123963357D02*
X110034455Y-123891928D01*
X110034455Y-123891928D02*
X109820170Y-123891928D01*
X109820170Y-123891928D02*
X109677312Y-123820500D01*
X109677312Y-123820500D02*
X109605884Y-123677642D01*
X109605884Y-123677642D02*
X109605884Y-123606214D01*
X109605884Y-123606214D02*
X109677312Y-123463357D01*
X109677312Y-123463357D02*
X109820170Y-123391928D01*
X109820170Y-123391928D02*
X110034455Y-123391928D01*
X110034455Y-123391928D02*
X110177312Y-123463357D01*
X110677313Y-123391928D02*
X111248741Y-123391928D01*
X110891598Y-122891928D02*
X110891598Y-124177642D01*
X110891598Y-124177642D02*
X110963027Y-124320500D01*
X110963027Y-124320500D02*
X111105884Y-124391928D01*
X111105884Y-124391928D02*
X111248741Y-124391928D01*
X111748741Y-124391928D02*
X111748741Y-123391928D01*
X111748741Y-123677642D02*
X111820170Y-123534785D01*
X111820170Y-123534785D02*
X111891599Y-123463357D01*
X111891599Y-123463357D02*
X112034456Y-123391928D01*
X112034456Y-123391928D02*
X112177313Y-123391928D01*
X113320170Y-123391928D02*
X113320170Y-124391928D01*
X112677312Y-123391928D02*
X112677312Y-124177642D01*
X112677312Y-124177642D02*
X112748741Y-124320500D01*
X112748741Y-124320500D02*
X112891598Y-124391928D01*
X112891598Y-124391928D02*
X113105884Y-124391928D01*
X113105884Y-124391928D02*
X113248741Y-124320500D01*
X113248741Y-124320500D02*
X113320170Y-124249071D01*
X114034455Y-124391928D02*
X114034455Y-123391928D01*
X114034455Y-123534785D02*
X114105884Y-123463357D01*
X114105884Y-123463357D02*
X114248741Y-123391928D01*
X114248741Y-123391928D02*
X114463027Y-123391928D01*
X114463027Y-123391928D02*
X114605884Y-123463357D01*
X114605884Y-123463357D02*
X114677313Y-123606214D01*
X114677313Y-123606214D02*
X114677313Y-124391928D01*
X114677313Y-123606214D02*
X114748741Y-123463357D01*
X114748741Y-123463357D02*
X114891598Y-123391928D01*
X114891598Y-123391928D02*
X115105884Y-123391928D01*
X115105884Y-123391928D02*
X115248741Y-123463357D01*
X115248741Y-123463357D02*
X115320170Y-123606214D01*
X115320170Y-123606214D02*
X115320170Y-124391928D01*
X116605884Y-124320500D02*
X116463027Y-124391928D01*
X116463027Y-124391928D02*
X116177313Y-124391928D01*
X116177313Y-124391928D02*
X116034455Y-124320500D01*
X116034455Y-124320500D02*
X115963027Y-124177642D01*
X115963027Y-124177642D02*
X115963027Y-123606214D01*
X115963027Y-123606214D02*
X116034455Y-123463357D01*
X116034455Y-123463357D02*
X116177313Y-123391928D01*
X116177313Y-123391928D02*
X116463027Y-123391928D01*
X116463027Y-123391928D02*
X116605884Y-123463357D01*
X116605884Y-123463357D02*
X116677313Y-123606214D01*
X116677313Y-123606214D02*
X116677313Y-123749071D01*
X116677313Y-123749071D02*
X115963027Y-123891928D01*
X117320169Y-123391928D02*
X117320169Y-124391928D01*
X117320169Y-123534785D02*
X117391598Y-123463357D01*
X117391598Y-123463357D02*
X117534455Y-123391928D01*
X117534455Y-123391928D02*
X117748741Y-123391928D01*
X117748741Y-123391928D02*
X117891598Y-123463357D01*
X117891598Y-123463357D02*
X117963027Y-123606214D01*
X117963027Y-123606214D02*
X117963027Y-124391928D01*
X118463027Y-123391928D02*
X119034455Y-123391928D01*
X118677312Y-122891928D02*
X118677312Y-124177642D01*
X118677312Y-124177642D02*
X118748741Y-124320500D01*
X118748741Y-124320500D02*
X118891598Y-124391928D01*
X118891598Y-124391928D02*
X119034455Y-124391928D01*
X120177313Y-124391928D02*
X120177313Y-123606214D01*
X120177313Y-123606214D02*
X120105884Y-123463357D01*
X120105884Y-123463357D02*
X119963027Y-123391928D01*
X119963027Y-123391928D02*
X119677313Y-123391928D01*
X119677313Y-123391928D02*
X119534455Y-123463357D01*
X120177313Y-124320500D02*
X120034455Y-124391928D01*
X120034455Y-124391928D02*
X119677313Y-124391928D01*
X119677313Y-124391928D02*
X119534455Y-124320500D01*
X119534455Y-124320500D02*
X119463027Y-124177642D01*
X119463027Y-124177642D02*
X119463027Y-124034785D01*
X119463027Y-124034785D02*
X119534455Y-123891928D01*
X119534455Y-123891928D02*
X119677313Y-123820500D01*
X119677313Y-123820500D02*
X120034455Y-123820500D01*
X120034455Y-123820500D02*
X120177313Y-123749071D01*
X120677313Y-123391928D02*
X121248741Y-123391928D01*
X120891598Y-122891928D02*
X120891598Y-124177642D01*
X120891598Y-124177642D02*
X120963027Y-124320500D01*
X120963027Y-124320500D02*
X121105884Y-124391928D01*
X121105884Y-124391928D02*
X121248741Y-124391928D01*
X121748741Y-124391928D02*
X121748741Y-123391928D01*
X121748741Y-122891928D02*
X121677313Y-122963357D01*
X121677313Y-122963357D02*
X121748741Y-123034785D01*
X121748741Y-123034785D02*
X121820170Y-122963357D01*
X121820170Y-122963357D02*
X121748741Y-122891928D01*
X121748741Y-122891928D02*
X121748741Y-123034785D01*
X122677313Y-124391928D02*
X122534456Y-124320500D01*
X122534456Y-124320500D02*
X122463027Y-124249071D01*
X122463027Y-124249071D02*
X122391599Y-124106214D01*
X122391599Y-124106214D02*
X122391599Y-123677642D01*
X122391599Y-123677642D02*
X122463027Y-123534785D01*
X122463027Y-123534785D02*
X122534456Y-123463357D01*
X122534456Y-123463357D02*
X122677313Y-123391928D01*
X122677313Y-123391928D02*
X122891599Y-123391928D01*
X122891599Y-123391928D02*
X123034456Y-123463357D01*
X123034456Y-123463357D02*
X123105885Y-123534785D01*
X123105885Y-123534785D02*
X123177313Y-123677642D01*
X123177313Y-123677642D02*
X123177313Y-124106214D01*
X123177313Y-124106214D02*
X123105885Y-124249071D01*
X123105885Y-124249071D02*
X123034456Y-124320500D01*
X123034456Y-124320500D02*
X122891599Y-124391928D01*
X122891599Y-124391928D02*
X122677313Y-124391928D01*
X123820170Y-123391928D02*
X123820170Y-124391928D01*
X123820170Y-123534785D02*
X123891599Y-123463357D01*
X123891599Y-123463357D02*
X124034456Y-123391928D01*
X124034456Y-123391928D02*
X124248742Y-123391928D01*
X124248742Y-123391928D02*
X124391599Y-123463357D01*
X124391599Y-123463357D02*
X124463028Y-123606214D01*
X124463028Y-123606214D02*
X124463028Y-124391928D01*
X126963028Y-124391928D02*
X126963028Y-123606214D01*
X126963028Y-123606214D02*
X126891599Y-123463357D01*
X126891599Y-123463357D02*
X126748742Y-123391928D01*
X126748742Y-123391928D02*
X126463028Y-123391928D01*
X126463028Y-123391928D02*
X126320170Y-123463357D01*
X126963028Y-124320500D02*
X126820170Y-124391928D01*
X126820170Y-124391928D02*
X126463028Y-124391928D01*
X126463028Y-124391928D02*
X126320170Y-124320500D01*
X126320170Y-124320500D02*
X126248742Y-124177642D01*
X126248742Y-124177642D02*
X126248742Y-124034785D01*
X126248742Y-124034785D02*
X126320170Y-123891928D01*
X126320170Y-123891928D02*
X126463028Y-123820500D01*
X126463028Y-123820500D02*
X126820170Y-123820500D01*
X126820170Y-123820500D02*
X126963028Y-123749071D01*
X127677313Y-123391928D02*
X127677313Y-124391928D01*
X127677313Y-123534785D02*
X127748742Y-123463357D01*
X127748742Y-123463357D02*
X127891599Y-123391928D01*
X127891599Y-123391928D02*
X128105885Y-123391928D01*
X128105885Y-123391928D02*
X128248742Y-123463357D01*
X128248742Y-123463357D02*
X128320171Y-123606214D01*
X128320171Y-123606214D02*
X128320171Y-124391928D01*
X129677314Y-124391928D02*
X129677314Y-122891928D01*
X129677314Y-124320500D02*
X129534456Y-124391928D01*
X129534456Y-124391928D02*
X129248742Y-124391928D01*
X129248742Y-124391928D02*
X129105885Y-124320500D01*
X129105885Y-124320500D02*
X129034456Y-124249071D01*
X129034456Y-124249071D02*
X128963028Y-124106214D01*
X128963028Y-124106214D02*
X128963028Y-123677642D01*
X128963028Y-123677642D02*
X129034456Y-123534785D01*
X129034456Y-123534785D02*
X129105885Y-123463357D01*
X129105885Y-123463357D02*
X129248742Y-123391928D01*
X129248742Y-123391928D02*
X129534456Y-123391928D01*
X129534456Y-123391928D02*
X129677314Y-123463357D01*
X131534456Y-124391928D02*
X131534456Y-122891928D01*
X131534456Y-122891928D02*
X132034456Y-123963357D01*
X132034456Y-123963357D02*
X132534456Y-122891928D01*
X132534456Y-122891928D02*
X132534456Y-124391928D01*
X133248742Y-124391928D02*
X133248742Y-123391928D01*
X133248742Y-122891928D02*
X133177314Y-122963357D01*
X133177314Y-122963357D02*
X133248742Y-123034785D01*
X133248742Y-123034785D02*
X133320171Y-122963357D01*
X133320171Y-122963357D02*
X133248742Y-122891928D01*
X133248742Y-122891928D02*
X133248742Y-123034785D01*
X134605886Y-124320500D02*
X134463028Y-124391928D01*
X134463028Y-124391928D02*
X134177314Y-124391928D01*
X134177314Y-124391928D02*
X134034457Y-124320500D01*
X134034457Y-124320500D02*
X133963028Y-124249071D01*
X133963028Y-124249071D02*
X133891600Y-124106214D01*
X133891600Y-124106214D02*
X133891600Y-123677642D01*
X133891600Y-123677642D02*
X133963028Y-123534785D01*
X133963028Y-123534785D02*
X134034457Y-123463357D01*
X134034457Y-123463357D02*
X134177314Y-123391928D01*
X134177314Y-123391928D02*
X134463028Y-123391928D01*
X134463028Y-123391928D02*
X134605886Y-123463357D01*
X135248742Y-124391928D02*
X135248742Y-123391928D01*
X135248742Y-123677642D02*
X135320171Y-123534785D01*
X135320171Y-123534785D02*
X135391600Y-123463357D01*
X135391600Y-123463357D02*
X135534457Y-123391928D01*
X135534457Y-123391928D02*
X135677314Y-123391928D01*
X136391599Y-124391928D02*
X136248742Y-124320500D01*
X136248742Y-124320500D02*
X136177313Y-124249071D01*
X136177313Y-124249071D02*
X136105885Y-124106214D01*
X136105885Y-124106214D02*
X136105885Y-123677642D01*
X136105885Y-123677642D02*
X136177313Y-123534785D01*
X136177313Y-123534785D02*
X136248742Y-123463357D01*
X136248742Y-123463357D02*
X136391599Y-123391928D01*
X136391599Y-123391928D02*
X136605885Y-123391928D01*
X136605885Y-123391928D02*
X136748742Y-123463357D01*
X136748742Y-123463357D02*
X136820171Y-123534785D01*
X136820171Y-123534785D02*
X136891599Y-123677642D01*
X136891599Y-123677642D02*
X136891599Y-124106214D01*
X136891599Y-124106214D02*
X136820171Y-124249071D01*
X136820171Y-124249071D02*
X136748742Y-124320500D01*
X136748742Y-124320500D02*
X136605885Y-124391928D01*
X136605885Y-124391928D02*
X136391599Y-124391928D01*
X138177314Y-124320500D02*
X138034456Y-124391928D01*
X138034456Y-124391928D02*
X137748742Y-124391928D01*
X137748742Y-124391928D02*
X137605885Y-124320500D01*
X137605885Y-124320500D02*
X137534456Y-124249071D01*
X137534456Y-124249071D02*
X137463028Y-124106214D01*
X137463028Y-124106214D02*
X137463028Y-123677642D01*
X137463028Y-123677642D02*
X137534456Y-123534785D01*
X137534456Y-123534785D02*
X137605885Y-123463357D01*
X137605885Y-123463357D02*
X137748742Y-123391928D01*
X137748742Y-123391928D02*
X138034456Y-123391928D01*
X138034456Y-123391928D02*
X138177314Y-123463357D01*
X139034456Y-124391928D02*
X138891599Y-124320500D01*
X138891599Y-124320500D02*
X138820170Y-124249071D01*
X138820170Y-124249071D02*
X138748742Y-124106214D01*
X138748742Y-124106214D02*
X138748742Y-123677642D01*
X138748742Y-123677642D02*
X138820170Y-123534785D01*
X138820170Y-123534785D02*
X138891599Y-123463357D01*
X138891599Y-123463357D02*
X139034456Y-123391928D01*
X139034456Y-123391928D02*
X139248742Y-123391928D01*
X139248742Y-123391928D02*
X139391599Y-123463357D01*
X139391599Y-123463357D02*
X139463028Y-123534785D01*
X139463028Y-123534785D02*
X139534456Y-123677642D01*
X139534456Y-123677642D02*
X139534456Y-124106214D01*
X139534456Y-124106214D02*
X139463028Y-124249071D01*
X139463028Y-124249071D02*
X139391599Y-124320500D01*
X139391599Y-124320500D02*
X139248742Y-124391928D01*
X139248742Y-124391928D02*
X139034456Y-124391928D01*
X140177313Y-123391928D02*
X140177313Y-124391928D01*
X140177313Y-123534785D02*
X140248742Y-123463357D01*
X140248742Y-123463357D02*
X140391599Y-123391928D01*
X140391599Y-123391928D02*
X140605885Y-123391928D01*
X140605885Y-123391928D02*
X140748742Y-123463357D01*
X140748742Y-123463357D02*
X140820171Y-123606214D01*
X140820171Y-123606214D02*
X140820171Y-124391928D01*
X141320171Y-123391928D02*
X141891599Y-123391928D01*
X141534456Y-122891928D02*
X141534456Y-124177642D01*
X141534456Y-124177642D02*
X141605885Y-124320500D01*
X141605885Y-124320500D02*
X141748742Y-124391928D01*
X141748742Y-124391928D02*
X141891599Y-124391928D01*
X142391599Y-124391928D02*
X142391599Y-123391928D01*
X142391599Y-123677642D02*
X142463028Y-123534785D01*
X142463028Y-123534785D02*
X142534457Y-123463357D01*
X142534457Y-123463357D02*
X142677314Y-123391928D01*
X142677314Y-123391928D02*
X142820171Y-123391928D01*
X143534456Y-124391928D02*
X143391599Y-124320500D01*
X143391599Y-124320500D02*
X143320170Y-124249071D01*
X143320170Y-124249071D02*
X143248742Y-124106214D01*
X143248742Y-124106214D02*
X143248742Y-123677642D01*
X143248742Y-123677642D02*
X143320170Y-123534785D01*
X143320170Y-123534785D02*
X143391599Y-123463357D01*
X143391599Y-123463357D02*
X143534456Y-123391928D01*
X143534456Y-123391928D02*
X143748742Y-123391928D01*
X143748742Y-123391928D02*
X143891599Y-123463357D01*
X143891599Y-123463357D02*
X143963028Y-123534785D01*
X143963028Y-123534785D02*
X144034456Y-123677642D01*
X144034456Y-123677642D02*
X144034456Y-124106214D01*
X144034456Y-124106214D02*
X143963028Y-124249071D01*
X143963028Y-124249071D02*
X143891599Y-124320500D01*
X143891599Y-124320500D02*
X143748742Y-124391928D01*
X143748742Y-124391928D02*
X143534456Y-124391928D01*
X144891599Y-124391928D02*
X144748742Y-124320500D01*
X144748742Y-124320500D02*
X144677313Y-124177642D01*
X144677313Y-124177642D02*
X144677313Y-122891928D01*
X145677313Y-124391928D02*
X145534456Y-124320500D01*
X145534456Y-124320500D02*
X145463027Y-124177642D01*
X145463027Y-124177642D02*
X145463027Y-122891928D01*
X146820170Y-124320500D02*
X146677313Y-124391928D01*
X146677313Y-124391928D02*
X146391599Y-124391928D01*
X146391599Y-124391928D02*
X146248741Y-124320500D01*
X146248741Y-124320500D02*
X146177313Y-124177642D01*
X146177313Y-124177642D02*
X146177313Y-123606214D01*
X146177313Y-123606214D02*
X146248741Y-123463357D01*
X146248741Y-123463357D02*
X146391599Y-123391928D01*
X146391599Y-123391928D02*
X146677313Y-123391928D01*
X146677313Y-123391928D02*
X146820170Y-123463357D01*
X146820170Y-123463357D02*
X146891599Y-123606214D01*
X146891599Y-123606214D02*
X146891599Y-123749071D01*
X146891599Y-123749071D02*
X146177313Y-123891928D01*
X147534455Y-124391928D02*
X147534455Y-123391928D01*
X147534455Y-123677642D02*
X147605884Y-123534785D01*
X147605884Y-123534785D02*
X147677313Y-123463357D01*
X147677313Y-123463357D02*
X147820170Y-123391928D01*
X147820170Y-123391928D02*
X147963027Y-123391928D01*
X150105883Y-123606214D02*
X150320169Y-123677642D01*
X150320169Y-123677642D02*
X150391598Y-123749071D01*
X150391598Y-123749071D02*
X150463026Y-123891928D01*
X150463026Y-123891928D02*
X150463026Y-124106214D01*
X150463026Y-124106214D02*
X150391598Y-124249071D01*
X150391598Y-124249071D02*
X150320169Y-124320500D01*
X150320169Y-124320500D02*
X150177312Y-124391928D01*
X150177312Y-124391928D02*
X149605883Y-124391928D01*
X149605883Y-124391928D02*
X149605883Y-122891928D01*
X149605883Y-122891928D02*
X150105883Y-122891928D01*
X150105883Y-122891928D02*
X150248741Y-122963357D01*
X150248741Y-122963357D02*
X150320169Y-123034785D01*
X150320169Y-123034785D02*
X150391598Y-123177642D01*
X150391598Y-123177642D02*
X150391598Y-123320500D01*
X150391598Y-123320500D02*
X150320169Y-123463357D01*
X150320169Y-123463357D02*
X150248741Y-123534785D01*
X150248741Y-123534785D02*
X150105883Y-123606214D01*
X150105883Y-123606214D02*
X149605883Y-123606214D01*
X151320169Y-124391928D02*
X151177312Y-124320500D01*
X151177312Y-124320500D02*
X151105883Y-124249071D01*
X151105883Y-124249071D02*
X151034455Y-124106214D01*
X151034455Y-124106214D02*
X151034455Y-123677642D01*
X151034455Y-123677642D02*
X151105883Y-123534785D01*
X151105883Y-123534785D02*
X151177312Y-123463357D01*
X151177312Y-123463357D02*
X151320169Y-123391928D01*
X151320169Y-123391928D02*
X151534455Y-123391928D01*
X151534455Y-123391928D02*
X151677312Y-123463357D01*
X151677312Y-123463357D02*
X151748741Y-123534785D01*
X151748741Y-123534785D02*
X151820169Y-123677642D01*
X151820169Y-123677642D02*
X151820169Y-124106214D01*
X151820169Y-124106214D02*
X151748741Y-124249071D01*
X151748741Y-124249071D02*
X151677312Y-124320500D01*
X151677312Y-124320500D02*
X151534455Y-124391928D01*
X151534455Y-124391928D02*
X151320169Y-124391928D01*
X153105884Y-124391928D02*
X153105884Y-123606214D01*
X153105884Y-123606214D02*
X153034455Y-123463357D01*
X153034455Y-123463357D02*
X152891598Y-123391928D01*
X152891598Y-123391928D02*
X152605884Y-123391928D01*
X152605884Y-123391928D02*
X152463026Y-123463357D01*
X153105884Y-124320500D02*
X152963026Y-124391928D01*
X152963026Y-124391928D02*
X152605884Y-124391928D01*
X152605884Y-124391928D02*
X152463026Y-124320500D01*
X152463026Y-124320500D02*
X152391598Y-124177642D01*
X152391598Y-124177642D02*
X152391598Y-124034785D01*
X152391598Y-124034785D02*
X152463026Y-123891928D01*
X152463026Y-123891928D02*
X152605884Y-123820500D01*
X152605884Y-123820500D02*
X152963026Y-123820500D01*
X152963026Y-123820500D02*
X153105884Y-123749071D01*
X153820169Y-124391928D02*
X153820169Y-123391928D01*
X153820169Y-123677642D02*
X153891598Y-123534785D01*
X153891598Y-123534785D02*
X153963027Y-123463357D01*
X153963027Y-123463357D02*
X154105884Y-123391928D01*
X154105884Y-123391928D02*
X154248741Y-123391928D01*
X155391598Y-124391928D02*
X155391598Y-122891928D01*
X155391598Y-124320500D02*
X155248740Y-124391928D01*
X155248740Y-124391928D02*
X154963026Y-124391928D01*
X154963026Y-124391928D02*
X154820169Y-124320500D01*
X154820169Y-124320500D02*
X154748740Y-124249071D01*
X154748740Y-124249071D02*
X154677312Y-124106214D01*
X154677312Y-124106214D02*
X154677312Y-123677642D01*
X154677312Y-123677642D02*
X154748740Y-123534785D01*
X154748740Y-123534785D02*
X154820169Y-123463357D01*
X154820169Y-123463357D02*
X154963026Y-123391928D01*
X154963026Y-123391928D02*
X155248740Y-123391928D01*
X155248740Y-123391928D02*
X155391598Y-123463357D01*
X156105883Y-124249071D02*
X156177312Y-124320500D01*
X156177312Y-124320500D02*
X156105883Y-124391928D01*
X156105883Y-124391928D02*
X156034455Y-124320500D01*
X156034455Y-124320500D02*
X156105883Y-124249071D01*
X156105883Y-124249071D02*
X156105883Y-124391928D01*
X156820169Y-124391928D02*
X156820169Y-122891928D01*
X156963027Y-123820500D02*
X157391598Y-124391928D01*
X157391598Y-123391928D02*
X156820169Y-123963357D01*
X158034455Y-124391928D02*
X158034455Y-123391928D01*
X158034455Y-122891928D02*
X157963027Y-122963357D01*
X157963027Y-122963357D02*
X158034455Y-123034785D01*
X158034455Y-123034785D02*
X158105884Y-122963357D01*
X158105884Y-122963357D02*
X158034455Y-122891928D01*
X158034455Y-122891928D02*
X158034455Y-123034785D01*
X159391599Y-124320500D02*
X159248741Y-124391928D01*
X159248741Y-124391928D02*
X158963027Y-124391928D01*
X158963027Y-124391928D02*
X158820170Y-124320500D01*
X158820170Y-124320500D02*
X158748741Y-124249071D01*
X158748741Y-124249071D02*
X158677313Y-124106214D01*
X158677313Y-124106214D02*
X158677313Y-123677642D01*
X158677313Y-123677642D02*
X158748741Y-123534785D01*
X158748741Y-123534785D02*
X158820170Y-123463357D01*
X158820170Y-123463357D02*
X158963027Y-123391928D01*
X158963027Y-123391928D02*
X159248741Y-123391928D01*
X159248741Y-123391928D02*
X159391599Y-123463357D01*
X160677313Y-124391928D02*
X160677313Y-123606214D01*
X160677313Y-123606214D02*
X160605884Y-123463357D01*
X160605884Y-123463357D02*
X160463027Y-123391928D01*
X160463027Y-123391928D02*
X160177313Y-123391928D01*
X160177313Y-123391928D02*
X160034455Y-123463357D01*
X160677313Y-124320500D02*
X160534455Y-124391928D01*
X160534455Y-124391928D02*
X160177313Y-124391928D01*
X160177313Y-124391928D02*
X160034455Y-124320500D01*
X160034455Y-124320500D02*
X159963027Y-124177642D01*
X159963027Y-124177642D02*
X159963027Y-124034785D01*
X159963027Y-124034785D02*
X160034455Y-123891928D01*
X160034455Y-123891928D02*
X160177313Y-123820500D01*
X160177313Y-123820500D02*
X160534455Y-123820500D01*
X160534455Y-123820500D02*
X160677313Y-123749071D01*
X162034456Y-124391928D02*
X162034456Y-122891928D01*
X162034456Y-124320500D02*
X161891598Y-124391928D01*
X161891598Y-124391928D02*
X161605884Y-124391928D01*
X161605884Y-124391928D02*
X161463027Y-124320500D01*
X161463027Y-124320500D02*
X161391598Y-124249071D01*
X161391598Y-124249071D02*
X161320170Y-124106214D01*
X161320170Y-124106214D02*
X161320170Y-123677642D01*
X161320170Y-123677642D02*
X161391598Y-123534785D01*
X161391598Y-123534785D02*
X161463027Y-123463357D01*
X161463027Y-123463357D02*
X161605884Y-123391928D01*
X161605884Y-123391928D02*
X161891598Y-123391928D01*
X161891598Y-123391928D02*
X162034456Y-123463357D01*
X162391599Y-124534785D02*
X163534456Y-124534785D01*
X163891598Y-123391928D02*
X163891598Y-124891928D01*
X163891598Y-123463357D02*
X164034456Y-123391928D01*
X164034456Y-123391928D02*
X164320170Y-123391928D01*
X164320170Y-123391928D02*
X164463027Y-123463357D01*
X164463027Y-123463357D02*
X164534456Y-123534785D01*
X164534456Y-123534785D02*
X164605884Y-123677642D01*
X164605884Y-123677642D02*
X164605884Y-124106214D01*
X164605884Y-124106214D02*
X164534456Y-124249071D01*
X164534456Y-124249071D02*
X164463027Y-124320500D01*
X164463027Y-124320500D02*
X164320170Y-124391928D01*
X164320170Y-124391928D02*
X164034456Y-124391928D01*
X164034456Y-124391928D02*
X163891598Y-124320500D01*
X165891599Y-124320500D02*
X165748741Y-124391928D01*
X165748741Y-124391928D02*
X165463027Y-124391928D01*
X165463027Y-124391928D02*
X165320170Y-124320500D01*
X165320170Y-124320500D02*
X165248741Y-124249071D01*
X165248741Y-124249071D02*
X165177313Y-124106214D01*
X165177313Y-124106214D02*
X165177313Y-123677642D01*
X165177313Y-123677642D02*
X165248741Y-123534785D01*
X165248741Y-123534785D02*
X165320170Y-123463357D01*
X165320170Y-123463357D02*
X165463027Y-123391928D01*
X165463027Y-123391928D02*
X165748741Y-123391928D01*
X165748741Y-123391928D02*
X165891599Y-123463357D01*
X166534455Y-124391928D02*
X166534455Y-122891928D01*
X166534455Y-123463357D02*
X166677313Y-123391928D01*
X166677313Y-123391928D02*
X166963027Y-123391928D01*
X166963027Y-123391928D02*
X167105884Y-123463357D01*
X167105884Y-123463357D02*
X167177313Y-123534785D01*
X167177313Y-123534785D02*
X167248741Y-123677642D01*
X167248741Y-123677642D02*
X167248741Y-124106214D01*
X167248741Y-124106214D02*
X167177313Y-124249071D01*
X167177313Y-124249071D02*
X167105884Y-124320500D01*
X167105884Y-124320500D02*
X166963027Y-124391928D01*
X166963027Y-124391928D02*
X166677313Y-124391928D01*
X166677313Y-124391928D02*
X166534455Y-124320500D01*
D10*
D11*
X90007200Y-119505800D02*
X198007200Y-119505800D01*
D10*
D11*
X91391598Y-121620500D02*
X91605884Y-121691928D01*
X91605884Y-121691928D02*
X91963026Y-121691928D01*
X91963026Y-121691928D02*
X92105884Y-121620500D01*
X92105884Y-121620500D02*
X92177312Y-121549071D01*
X92177312Y-121549071D02*
X92248741Y-121406214D01*
X92248741Y-121406214D02*
X92248741Y-121263357D01*
X92248741Y-121263357D02*
X92177312Y-121120500D01*
X92177312Y-121120500D02*
X92105884Y-121049071D01*
X92105884Y-121049071D02*
X91963026Y-120977642D01*
X91963026Y-120977642D02*
X91677312Y-120906214D01*
X91677312Y-120906214D02*
X91534455Y-120834785D01*
X91534455Y-120834785D02*
X91463026Y-120763357D01*
X91463026Y-120763357D02*
X91391598Y-120620500D01*
X91391598Y-120620500D02*
X91391598Y-120477642D01*
X91391598Y-120477642D02*
X91463026Y-120334785D01*
X91463026Y-120334785D02*
X91534455Y-120263357D01*
X91534455Y-120263357D02*
X91677312Y-120191928D01*
X91677312Y-120191928D02*
X92034455Y-120191928D01*
X92034455Y-120191928D02*
X92248741Y-120263357D01*
X92891597Y-121691928D02*
X92891597Y-120191928D01*
X93534455Y-121691928D02*
X93534455Y-120906214D01*
X93534455Y-120906214D02*
X93463026Y-120763357D01*
X93463026Y-120763357D02*
X93320169Y-120691928D01*
X93320169Y-120691928D02*
X93105883Y-120691928D01*
X93105883Y-120691928D02*
X92963026Y-120763357D01*
X92963026Y-120763357D02*
X92891597Y-120834785D01*
X94820169Y-121620500D02*
X94677312Y-121691928D01*
X94677312Y-121691928D02*
X94391598Y-121691928D01*
X94391598Y-121691928D02*
X94248740Y-121620500D01*
X94248740Y-121620500D02*
X94177312Y-121477642D01*
X94177312Y-121477642D02*
X94177312Y-120906214D01*
X94177312Y-120906214D02*
X94248740Y-120763357D01*
X94248740Y-120763357D02*
X94391598Y-120691928D01*
X94391598Y-120691928D02*
X94677312Y-120691928D01*
X94677312Y-120691928D02*
X94820169Y-120763357D01*
X94820169Y-120763357D02*
X94891598Y-120906214D01*
X94891598Y-120906214D02*
X94891598Y-121049071D01*
X94891598Y-121049071D02*
X94177312Y-121191928D01*
X96105883Y-121620500D02*
X95963026Y-121691928D01*
X95963026Y-121691928D02*
X95677312Y-121691928D01*
X95677312Y-121691928D02*
X95534454Y-121620500D01*
X95534454Y-121620500D02*
X95463026Y-121477642D01*
X95463026Y-121477642D02*
X95463026Y-120906214D01*
X95463026Y-120906214D02*
X95534454Y-120763357D01*
X95534454Y-120763357D02*
X95677312Y-120691928D01*
X95677312Y-120691928D02*
X95963026Y-120691928D01*
X95963026Y-120691928D02*
X96105883Y-120763357D01*
X96105883Y-120763357D02*
X96177312Y-120906214D01*
X96177312Y-120906214D02*
X96177312Y-121049071D01*
X96177312Y-121049071D02*
X95463026Y-121191928D01*
X96605883Y-120691928D02*
X97177311Y-120691928D01*
X96820168Y-120191928D02*
X96820168Y-121477642D01*
X96820168Y-121477642D02*
X96891597Y-121620500D01*
X96891597Y-121620500D02*
X97034454Y-121691928D01*
X97034454Y-121691928D02*
X97177311Y-121691928D01*
X97677311Y-121549071D02*
X97748740Y-121620500D01*
X97748740Y-121620500D02*
X97677311Y-121691928D01*
X97677311Y-121691928D02*
X97605883Y-121620500D01*
X97605883Y-121620500D02*
X97677311Y-121549071D01*
X97677311Y-121549071D02*
X97677311Y-121691928D01*
X97677311Y-120763357D02*
X97748740Y-120834785D01*
X97748740Y-120834785D02*
X97677311Y-120906214D01*
X97677311Y-120906214D02*
X97605883Y-120834785D01*
X97605883Y-120834785D02*
X97677311Y-120763357D01*
X97677311Y-120763357D02*
X97677311Y-120906214D01*
D10*
D12*
X91490282Y-118255557D02*
X92204568Y-118255557D01*
X91347425Y-118684128D02*
X91847425Y-117184128D01*
X91847425Y-117184128D02*
X92347425Y-118684128D01*
X92847424Y-118684128D02*
X92847424Y-117184128D01*
X93490282Y-118255557D02*
X94204568Y-118255557D01*
X93347425Y-118684128D02*
X93847425Y-117184128D01*
X93847425Y-117184128D02*
X94347425Y-118684128D01*
X94775996Y-118255557D02*
X95490282Y-118255557D01*
X94633139Y-118684128D02*
X95133139Y-117184128D01*
X95133139Y-117184128D02*
X95633139Y-118684128D01*
X97775995Y-117898414D02*
X97275995Y-117898414D01*
X97275995Y-118684128D02*
X97275995Y-117184128D01*
X97275995Y-117184128D02*
X97990281Y-117184128D01*
X98561709Y-118684128D02*
X98561709Y-117684128D01*
X98561709Y-117969842D02*
X98633138Y-117826985D01*
X98633138Y-117826985D02*
X98704567Y-117755557D01*
X98704567Y-117755557D02*
X98847424Y-117684128D01*
X98847424Y-117684128D02*
X98990281Y-117684128D01*
X100061709Y-118612700D02*
X99918852Y-118684128D01*
X99918852Y-118684128D02*
X99633138Y-118684128D01*
X99633138Y-118684128D02*
X99490280Y-118612700D01*
X99490280Y-118612700D02*
X99418852Y-118469842D01*
X99418852Y-118469842D02*
X99418852Y-117898414D01*
X99418852Y-117898414D02*
X99490280Y-117755557D01*
X99490280Y-117755557D02*
X99633138Y-117684128D01*
X99633138Y-117684128D02*
X99918852Y-117684128D01*
X99918852Y-117684128D02*
X100061709Y-117755557D01*
X100061709Y-117755557D02*
X100133138Y-117898414D01*
X100133138Y-117898414D02*
X100133138Y-118041271D01*
X100133138Y-118041271D02*
X99418852Y-118184128D01*
X100704566Y-118612700D02*
X100847423Y-118684128D01*
X100847423Y-118684128D02*
X101133137Y-118684128D01*
X101133137Y-118684128D02*
X101275994Y-118612700D01*
X101275994Y-118612700D02*
X101347423Y-118469842D01*
X101347423Y-118469842D02*
X101347423Y-118398414D01*
X101347423Y-118398414D02*
X101275994Y-118255557D01*
X101275994Y-118255557D02*
X101133137Y-118184128D01*
X101133137Y-118184128D02*
X100918852Y-118184128D01*
X100918852Y-118184128D02*
X100775994Y-118112700D01*
X100775994Y-118112700D02*
X100704566Y-117969842D01*
X100704566Y-117969842D02*
X100704566Y-117898414D01*
X100704566Y-117898414D02*
X100775994Y-117755557D01*
X100775994Y-117755557D02*
X100918852Y-117684128D01*
X100918852Y-117684128D02*
X101133137Y-117684128D01*
X101133137Y-117684128D02*
X101275994Y-117755557D01*
X101990280Y-117684128D02*
X101990280Y-118684128D01*
X101990280Y-117826985D02*
X102061709Y-117755557D01*
X102061709Y-117755557D02*
X102204566Y-117684128D01*
X102204566Y-117684128D02*
X102418852Y-117684128D01*
X102418852Y-117684128D02*
X102561709Y-117755557D01*
X102561709Y-117755557D02*
X102633138Y-117898414D01*
X102633138Y-117898414D02*
X102633138Y-118684128D01*
X103561709Y-118684128D02*
X103418852Y-118612700D01*
X103418852Y-118612700D02*
X103347423Y-118541271D01*
X103347423Y-118541271D02*
X103275995Y-118398414D01*
X103275995Y-118398414D02*
X103275995Y-117969842D01*
X103275995Y-117969842D02*
X103347423Y-117826985D01*
X103347423Y-117826985D02*
X103418852Y-117755557D01*
X103418852Y-117755557D02*
X103561709Y-117684128D01*
X103561709Y-117684128D02*
X103775995Y-117684128D01*
X103775995Y-117684128D02*
X103918852Y-117755557D01*
X103918852Y-117755557D02*
X103990281Y-117826985D01*
X103990281Y-117826985D02*
X104061709Y-117969842D01*
X104061709Y-117969842D02*
X104061709Y-118398414D01*
X104061709Y-118398414D02*
X103990281Y-118541271D01*
X103990281Y-118541271D02*
X103918852Y-118612700D01*
X103918852Y-118612700D02*
X103775995Y-118684128D01*
X103775995Y-118684128D02*
X103561709Y-118684128D01*
X105775995Y-118612700D02*
X105990281Y-118684128D01*
X105990281Y-118684128D02*
X106347423Y-118684128D01*
X106347423Y-118684128D02*
X106490281Y-118612700D01*
X106490281Y-118612700D02*
X106561709Y-118541271D01*
X106561709Y-118541271D02*
X106633138Y-118398414D01*
X106633138Y-118398414D02*
X106633138Y-118255557D01*
X106633138Y-118255557D02*
X106561709Y-118112700D01*
X106561709Y-118112700D02*
X106490281Y-118041271D01*
X106490281Y-118041271D02*
X106347423Y-117969842D01*
X106347423Y-117969842D02*
X106061709Y-117898414D01*
X106061709Y-117898414D02*
X105918852Y-117826985D01*
X105918852Y-117826985D02*
X105847423Y-117755557D01*
X105847423Y-117755557D02*
X105775995Y-117612700D01*
X105775995Y-117612700D02*
X105775995Y-117469842D01*
X105775995Y-117469842D02*
X105847423Y-117326985D01*
X105847423Y-117326985D02*
X105918852Y-117255557D01*
X105918852Y-117255557D02*
X106061709Y-117184128D01*
X106061709Y-117184128D02*
X106418852Y-117184128D01*
X106418852Y-117184128D02*
X106633138Y-117255557D01*
X107061709Y-117684128D02*
X107633137Y-117684128D01*
X107275994Y-117184128D02*
X107275994Y-118469842D01*
X107275994Y-118469842D02*
X107347423Y-118612700D01*
X107347423Y-118612700D02*
X107490280Y-118684128D01*
X107490280Y-118684128D02*
X107633137Y-118684128D01*
X108775995Y-118684128D02*
X108775995Y-117898414D01*
X108775995Y-117898414D02*
X108704566Y-117755557D01*
X108704566Y-117755557D02*
X108561709Y-117684128D01*
X108561709Y-117684128D02*
X108275995Y-117684128D01*
X108275995Y-117684128D02*
X108133137Y-117755557D01*
X108775995Y-118612700D02*
X108633137Y-118684128D01*
X108633137Y-118684128D02*
X108275995Y-118684128D01*
X108275995Y-118684128D02*
X108133137Y-118612700D01*
X108133137Y-118612700D02*
X108061709Y-118469842D01*
X108061709Y-118469842D02*
X108061709Y-118326985D01*
X108061709Y-118326985D02*
X108133137Y-118184128D01*
X108133137Y-118184128D02*
X108275995Y-118112700D01*
X108275995Y-118112700D02*
X108633137Y-118112700D01*
X108633137Y-118112700D02*
X108775995Y-118041271D01*
X109275995Y-117684128D02*
X109847423Y-117684128D01*
X109490280Y-117184128D02*
X109490280Y-118469842D01*
X109490280Y-118469842D02*
X109561709Y-118612700D01*
X109561709Y-118612700D02*
X109704566Y-118684128D01*
X109704566Y-118684128D02*
X109847423Y-118684128D01*
X110918852Y-118612700D02*
X110775995Y-118684128D01*
X110775995Y-118684128D02*
X110490281Y-118684128D01*
X110490281Y-118684128D02*
X110347423Y-118612700D01*
X110347423Y-118612700D02*
X110275995Y-118469842D01*
X110275995Y-118469842D02*
X110275995Y-117898414D01*
X110275995Y-117898414D02*
X110347423Y-117755557D01*
X110347423Y-117755557D02*
X110490281Y-117684128D01*
X110490281Y-117684128D02*
X110775995Y-117684128D01*
X110775995Y-117684128D02*
X110918852Y-117755557D01*
X110918852Y-117755557D02*
X110990281Y-117898414D01*
X110990281Y-117898414D02*
X110990281Y-118041271D01*
X110990281Y-118041271D02*
X110275995Y-118184128D01*
D10*
D11*
X91391598Y-115263357D02*
X92105884Y-115263357D01*
X91248741Y-115691928D02*
X91748741Y-114191928D01*
X91748741Y-114191928D02*
X92248741Y-115691928D01*
X93391598Y-114691928D02*
X93391598Y-115691928D01*
X92748740Y-114691928D02*
X92748740Y-115477642D01*
X92748740Y-115477642D02*
X92820169Y-115620500D01*
X92820169Y-115620500D02*
X92963026Y-115691928D01*
X92963026Y-115691928D02*
X93177312Y-115691928D01*
X93177312Y-115691928D02*
X93320169Y-115620500D01*
X93320169Y-115620500D02*
X93391598Y-115549071D01*
X93891598Y-114691928D02*
X94463026Y-114691928D01*
X94105883Y-114191928D02*
X94105883Y-115477642D01*
X94105883Y-115477642D02*
X94177312Y-115620500D01*
X94177312Y-115620500D02*
X94320169Y-115691928D01*
X94320169Y-115691928D02*
X94463026Y-115691928D01*
X94963026Y-115691928D02*
X94963026Y-114191928D01*
X95605884Y-115691928D02*
X95605884Y-114906214D01*
X95605884Y-114906214D02*
X95534455Y-114763357D01*
X95534455Y-114763357D02*
X95391598Y-114691928D01*
X95391598Y-114691928D02*
X95177312Y-114691928D01*
X95177312Y-114691928D02*
X95034455Y-114763357D01*
X95034455Y-114763357D02*
X94963026Y-114834785D01*
X96534455Y-115691928D02*
X96391598Y-115620500D01*
X96391598Y-115620500D02*
X96320169Y-115549071D01*
X96320169Y-115549071D02*
X96248741Y-115406214D01*
X96248741Y-115406214D02*
X96248741Y-114977642D01*
X96248741Y-114977642D02*
X96320169Y-114834785D01*
X96320169Y-114834785D02*
X96391598Y-114763357D01*
X96391598Y-114763357D02*
X96534455Y-114691928D01*
X96534455Y-114691928D02*
X96748741Y-114691928D01*
X96748741Y-114691928D02*
X96891598Y-114763357D01*
X96891598Y-114763357D02*
X96963027Y-114834785D01*
X96963027Y-114834785D02*
X97034455Y-114977642D01*
X97034455Y-114977642D02*
X97034455Y-115406214D01*
X97034455Y-115406214D02*
X96963027Y-115549071D01*
X96963027Y-115549071D02*
X96891598Y-115620500D01*
X96891598Y-115620500D02*
X96748741Y-115691928D01*
X96748741Y-115691928D02*
X96534455Y-115691928D01*
X97677312Y-115691928D02*
X97677312Y-114691928D01*
X97677312Y-114977642D02*
X97748741Y-114834785D01*
X97748741Y-114834785D02*
X97820170Y-114763357D01*
X97820170Y-114763357D02*
X97963027Y-114691928D01*
X97963027Y-114691928D02*
X98105884Y-114691928D01*
X98605883Y-115549071D02*
X98677312Y-115620500D01*
X98677312Y-115620500D02*
X98605883Y-115691928D01*
X98605883Y-115691928D02*
X98534455Y-115620500D01*
X98534455Y-115620500D02*
X98605883Y-115549071D01*
X98605883Y-115549071D02*
X98605883Y-115691928D01*
X98605883Y-114763357D02*
X98677312Y-114834785D01*
X98677312Y-114834785D02*
X98605883Y-114906214D01*
X98605883Y-114906214D02*
X98534455Y-114834785D01*
X98534455Y-114834785D02*
X98605883Y-114763357D01*
X98605883Y-114763357D02*
X98605883Y-114906214D01*
X101320169Y-115549071D02*
X101248741Y-115620500D01*
X101248741Y-115620500D02*
X101034455Y-115691928D01*
X101034455Y-115691928D02*
X100891598Y-115691928D01*
X100891598Y-115691928D02*
X100677312Y-115620500D01*
X100677312Y-115620500D02*
X100534455Y-115477642D01*
X100534455Y-115477642D02*
X100463026Y-115334785D01*
X100463026Y-115334785D02*
X100391598Y-115049071D01*
X100391598Y-115049071D02*
X100391598Y-114834785D01*
X100391598Y-114834785D02*
X100463026Y-114549071D01*
X100463026Y-114549071D02*
X100534455Y-114406214D01*
X100534455Y-114406214D02*
X100677312Y-114263357D01*
X100677312Y-114263357D02*
X100891598Y-114191928D01*
X100891598Y-114191928D02*
X101034455Y-114191928D01*
X101034455Y-114191928D02*
X101248741Y-114263357D01*
X101248741Y-114263357D02*
X101320169Y-114334785D01*
X102605884Y-115691928D02*
X102605884Y-114906214D01*
X102605884Y-114906214D02*
X102534455Y-114763357D01*
X102534455Y-114763357D02*
X102391598Y-114691928D01*
X102391598Y-114691928D02*
X102105884Y-114691928D01*
X102105884Y-114691928D02*
X101963026Y-114763357D01*
X102605884Y-115620500D02*
X102463026Y-115691928D01*
X102463026Y-115691928D02*
X102105884Y-115691928D01*
X102105884Y-115691928D02*
X101963026Y-115620500D01*
X101963026Y-115620500D02*
X101891598Y-115477642D01*
X101891598Y-115477642D02*
X101891598Y-115334785D01*
X101891598Y-115334785D02*
X101963026Y-115191928D01*
X101963026Y-115191928D02*
X102105884Y-115120500D01*
X102105884Y-115120500D02*
X102463026Y-115120500D01*
X102463026Y-115120500D02*
X102605884Y-115049071D01*
X103320169Y-115691928D02*
X103320169Y-114691928D01*
X103320169Y-114977642D02*
X103391598Y-114834785D01*
X103391598Y-114834785D02*
X103463027Y-114763357D01*
X103463027Y-114763357D02*
X103605884Y-114691928D01*
X103605884Y-114691928D02*
X103748741Y-114691928D01*
X104463026Y-115691928D02*
X104320169Y-115620500D01*
X104320169Y-115620500D02*
X104248740Y-115477642D01*
X104248740Y-115477642D02*
X104248740Y-114191928D01*
X105248740Y-115691928D02*
X105105883Y-115620500D01*
X105105883Y-115620500D02*
X105034454Y-115549071D01*
X105034454Y-115549071D02*
X104963026Y-115406214D01*
X104963026Y-115406214D02*
X104963026Y-114977642D01*
X104963026Y-114977642D02*
X105034454Y-114834785D01*
X105034454Y-114834785D02*
X105105883Y-114763357D01*
X105105883Y-114763357D02*
X105248740Y-114691928D01*
X105248740Y-114691928D02*
X105463026Y-114691928D01*
X105463026Y-114691928D02*
X105605883Y-114763357D01*
X105605883Y-114763357D02*
X105677312Y-114834785D01*
X105677312Y-114834785D02*
X105748740Y-114977642D01*
X105748740Y-114977642D02*
X105748740Y-115406214D01*
X105748740Y-115406214D02*
X105677312Y-115549071D01*
X105677312Y-115549071D02*
X105605883Y-115620500D01*
X105605883Y-115620500D02*
X105463026Y-115691928D01*
X105463026Y-115691928D02*
X105248740Y-115691928D01*
X106320169Y-115620500D02*
X106463026Y-115691928D01*
X106463026Y-115691928D02*
X106748740Y-115691928D01*
X106748740Y-115691928D02*
X106891597Y-115620500D01*
X106891597Y-115620500D02*
X106963026Y-115477642D01*
X106963026Y-115477642D02*
X106963026Y-115406214D01*
X106963026Y-115406214D02*
X106891597Y-115263357D01*
X106891597Y-115263357D02*
X106748740Y-115191928D01*
X106748740Y-115191928D02*
X106534455Y-115191928D01*
X106534455Y-115191928D02*
X106391597Y-115120500D01*
X106391597Y-115120500D02*
X106320169Y-114977642D01*
X106320169Y-114977642D02*
X106320169Y-114906214D01*
X106320169Y-114906214D02*
X106391597Y-114763357D01*
X106391597Y-114763357D02*
X106534455Y-114691928D01*
X106534455Y-114691928D02*
X106748740Y-114691928D01*
X106748740Y-114691928D02*
X106891597Y-114763357D01*
X109605883Y-115549071D02*
X109534455Y-115620500D01*
X109534455Y-115620500D02*
X109320169Y-115691928D01*
X109320169Y-115691928D02*
X109177312Y-115691928D01*
X109177312Y-115691928D02*
X108963026Y-115620500D01*
X108963026Y-115620500D02*
X108820169Y-115477642D01*
X108820169Y-115477642D02*
X108748740Y-115334785D01*
X108748740Y-115334785D02*
X108677312Y-115049071D01*
X108677312Y-115049071D02*
X108677312Y-114834785D01*
X108677312Y-114834785D02*
X108748740Y-114549071D01*
X108748740Y-114549071D02*
X108820169Y-114406214D01*
X108820169Y-114406214D02*
X108963026Y-114263357D01*
X108963026Y-114263357D02*
X109177312Y-114191928D01*
X109177312Y-114191928D02*
X109320169Y-114191928D01*
X109320169Y-114191928D02*
X109534455Y-114263357D01*
X109534455Y-114263357D02*
X109605883Y-114334785D01*
X110463026Y-115691928D02*
X110320169Y-115620500D01*
X110320169Y-115620500D02*
X110248740Y-115549071D01*
X110248740Y-115549071D02*
X110177312Y-115406214D01*
X110177312Y-115406214D02*
X110177312Y-114977642D01*
X110177312Y-114977642D02*
X110248740Y-114834785D01*
X110248740Y-114834785D02*
X110320169Y-114763357D01*
X110320169Y-114763357D02*
X110463026Y-114691928D01*
X110463026Y-114691928D02*
X110677312Y-114691928D01*
X110677312Y-114691928D02*
X110820169Y-114763357D01*
X110820169Y-114763357D02*
X110891598Y-114834785D01*
X110891598Y-114834785D02*
X110963026Y-114977642D01*
X110963026Y-114977642D02*
X110963026Y-115406214D01*
X110963026Y-115406214D02*
X110891598Y-115549071D01*
X110891598Y-115549071D02*
X110820169Y-115620500D01*
X110820169Y-115620500D02*
X110677312Y-115691928D01*
X110677312Y-115691928D02*
X110463026Y-115691928D01*
X111605883Y-115691928D02*
X111605883Y-114691928D01*
X111605883Y-114977642D02*
X111677312Y-114834785D01*
X111677312Y-114834785D02*
X111748741Y-114763357D01*
X111748741Y-114763357D02*
X111891598Y-114691928D01*
X111891598Y-114691928D02*
X112034455Y-114691928D01*
X112320169Y-114691928D02*
X112891597Y-114691928D01*
X112534454Y-114191928D02*
X112534454Y-115477642D01*
X112534454Y-115477642D02*
X112605883Y-115620500D01*
X112605883Y-115620500D02*
X112748740Y-115691928D01*
X112748740Y-115691928D02*
X112891597Y-115691928D01*
X113963026Y-115620500D02*
X113820169Y-115691928D01*
X113820169Y-115691928D02*
X113534455Y-115691928D01*
X113534455Y-115691928D02*
X113391597Y-115620500D01*
X113391597Y-115620500D02*
X113320169Y-115477642D01*
X113320169Y-115477642D02*
X113320169Y-114906214D01*
X113320169Y-114906214D02*
X113391597Y-114763357D01*
X113391597Y-114763357D02*
X113534455Y-114691928D01*
X113534455Y-114691928D02*
X113820169Y-114691928D01*
X113820169Y-114691928D02*
X113963026Y-114763357D01*
X113963026Y-114763357D02*
X114034455Y-114906214D01*
X114034455Y-114906214D02*
X114034455Y-115049071D01*
X114034455Y-115049071D02*
X113320169Y-115191928D01*
X114605883Y-115620500D02*
X114748740Y-115691928D01*
X114748740Y-115691928D02*
X115034454Y-115691928D01*
X115034454Y-115691928D02*
X115177311Y-115620500D01*
X115177311Y-115620500D02*
X115248740Y-115477642D01*
X115248740Y-115477642D02*
X115248740Y-115406214D01*
X115248740Y-115406214D02*
X115177311Y-115263357D01*
X115177311Y-115263357D02*
X115034454Y-115191928D01*
X115034454Y-115191928D02*
X114820169Y-115191928D01*
X114820169Y-115191928D02*
X114677311Y-115120500D01*
X114677311Y-115120500D02*
X114605883Y-114977642D01*
X114605883Y-114977642D02*
X114605883Y-114906214D01*
X114605883Y-114906214D02*
X114677311Y-114763357D01*
X114677311Y-114763357D02*
X114820169Y-114691928D01*
X114820169Y-114691928D02*
X115034454Y-114691928D01*
X115034454Y-114691928D02*
X115177311Y-114763357D01*
D10*
D11*
X91248741Y-111191928D02*
X92105884Y-111191928D01*
X91677312Y-112691928D02*
X91677312Y-111191928D01*
X92605883Y-112691928D02*
X92605883Y-111191928D01*
X93248741Y-112691928D02*
X93248741Y-111906214D01*
X93248741Y-111906214D02*
X93177312Y-111763357D01*
X93177312Y-111763357D02*
X93034455Y-111691928D01*
X93034455Y-111691928D02*
X92820169Y-111691928D01*
X92820169Y-111691928D02*
X92677312Y-111763357D01*
X92677312Y-111763357D02*
X92605883Y-111834785D01*
X94534455Y-112620500D02*
X94391598Y-112691928D01*
X94391598Y-112691928D02*
X94105884Y-112691928D01*
X94105884Y-112691928D02*
X93963026Y-112620500D01*
X93963026Y-112620500D02*
X93891598Y-112477642D01*
X93891598Y-112477642D02*
X93891598Y-111906214D01*
X93891598Y-111906214D02*
X93963026Y-111763357D01*
X93963026Y-111763357D02*
X94105884Y-111691928D01*
X94105884Y-111691928D02*
X94391598Y-111691928D01*
X94391598Y-111691928D02*
X94534455Y-111763357D01*
X94534455Y-111763357D02*
X94605884Y-111906214D01*
X94605884Y-111906214D02*
X94605884Y-112049071D01*
X94605884Y-112049071D02*
X93891598Y-112191928D01*
X96391597Y-112691928D02*
X96391597Y-111191928D01*
X96391597Y-111191928D02*
X96963026Y-111191928D01*
X96963026Y-111191928D02*
X97105883Y-111263357D01*
X97105883Y-111263357D02*
X97177312Y-111334785D01*
X97177312Y-111334785D02*
X97248740Y-111477642D01*
X97248740Y-111477642D02*
X97248740Y-111691928D01*
X97248740Y-111691928D02*
X97177312Y-111834785D01*
X97177312Y-111834785D02*
X97105883Y-111906214D01*
X97105883Y-111906214D02*
X96963026Y-111977642D01*
X96963026Y-111977642D02*
X96391597Y-111977642D01*
X97891597Y-112691928D02*
X97891597Y-111691928D01*
X97891597Y-111191928D02*
X97820169Y-111263357D01*
X97820169Y-111263357D02*
X97891597Y-111334785D01*
X97891597Y-111334785D02*
X97963026Y-111263357D01*
X97963026Y-111263357D02*
X97891597Y-111191928D01*
X97891597Y-111191928D02*
X97891597Y-111334785D01*
X99748740Y-112691928D02*
X99748740Y-111191928D01*
X99748740Y-111191928D02*
X100320169Y-111191928D01*
X100320169Y-111191928D02*
X100463026Y-111263357D01*
X100463026Y-111263357D02*
X100534455Y-111334785D01*
X100534455Y-111334785D02*
X100605883Y-111477642D01*
X100605883Y-111477642D02*
X100605883Y-111691928D01*
X100605883Y-111691928D02*
X100534455Y-111834785D01*
X100534455Y-111834785D02*
X100463026Y-111906214D01*
X100463026Y-111906214D02*
X100320169Y-111977642D01*
X100320169Y-111977642D02*
X99748740Y-111977642D01*
X101248740Y-112691928D02*
X101248740Y-111691928D01*
X101248740Y-111191928D02*
X101177312Y-111263357D01*
X101177312Y-111263357D02*
X101248740Y-111334785D01*
X101248740Y-111334785D02*
X101320169Y-111263357D01*
X101320169Y-111263357D02*
X101248740Y-111191928D01*
X101248740Y-111191928D02*
X101248740Y-111334785D01*
X102605884Y-112620500D02*
X102463026Y-112691928D01*
X102463026Y-112691928D02*
X102177312Y-112691928D01*
X102177312Y-112691928D02*
X102034455Y-112620500D01*
X102034455Y-112620500D02*
X101963026Y-112549071D01*
X101963026Y-112549071D02*
X101891598Y-112406214D01*
X101891598Y-112406214D02*
X101891598Y-111977642D01*
X101891598Y-111977642D02*
X101963026Y-111834785D01*
X101963026Y-111834785D02*
X102034455Y-111763357D01*
X102034455Y-111763357D02*
X102177312Y-111691928D01*
X102177312Y-111691928D02*
X102463026Y-111691928D01*
X102463026Y-111691928D02*
X102605884Y-111763357D01*
X103463026Y-112691928D02*
X103320169Y-112620500D01*
X103320169Y-112620500D02*
X103248740Y-112549071D01*
X103248740Y-112549071D02*
X103177312Y-112406214D01*
X103177312Y-112406214D02*
X103177312Y-111977642D01*
X103177312Y-111977642D02*
X103248740Y-111834785D01*
X103248740Y-111834785D02*
X103320169Y-111763357D01*
X103320169Y-111763357D02*
X103463026Y-111691928D01*
X103463026Y-111691928D02*
X103677312Y-111691928D01*
X103677312Y-111691928D02*
X103820169Y-111763357D01*
X103820169Y-111763357D02*
X103891598Y-111834785D01*
X103891598Y-111834785D02*
X103963026Y-111977642D01*
X103963026Y-111977642D02*
X103963026Y-112406214D01*
X103963026Y-112406214D02*
X103891598Y-112549071D01*
X103891598Y-112549071D02*
X103820169Y-112620500D01*
X103820169Y-112620500D02*
X103677312Y-112691928D01*
X103677312Y-112691928D02*
X103463026Y-112691928D01*
X106391598Y-111691928D02*
X106391598Y-112691928D01*
X105748740Y-111691928D02*
X105748740Y-112477642D01*
X105748740Y-112477642D02*
X105820169Y-112620500D01*
X105820169Y-112620500D02*
X105963026Y-112691928D01*
X105963026Y-112691928D02*
X106177312Y-112691928D01*
X106177312Y-112691928D02*
X106320169Y-112620500D01*
X106320169Y-112620500D02*
X106391598Y-112549071D01*
X107034455Y-112620500D02*
X107177312Y-112691928D01*
X107177312Y-112691928D02*
X107463026Y-112691928D01*
X107463026Y-112691928D02*
X107605883Y-112620500D01*
X107605883Y-112620500D02*
X107677312Y-112477642D01*
X107677312Y-112477642D02*
X107677312Y-112406214D01*
X107677312Y-112406214D02*
X107605883Y-112263357D01*
X107605883Y-112263357D02*
X107463026Y-112191928D01*
X107463026Y-112191928D02*
X107248741Y-112191928D01*
X107248741Y-112191928D02*
X107105883Y-112120500D01*
X107105883Y-112120500D02*
X107034455Y-111977642D01*
X107034455Y-111977642D02*
X107034455Y-111906214D01*
X107034455Y-111906214D02*
X107105883Y-111763357D01*
X107105883Y-111763357D02*
X107248741Y-111691928D01*
X107248741Y-111691928D02*
X107463026Y-111691928D01*
X107463026Y-111691928D02*
X107605883Y-111763357D01*
X108891598Y-112620500D02*
X108748741Y-112691928D01*
X108748741Y-112691928D02*
X108463027Y-112691928D01*
X108463027Y-112691928D02*
X108320169Y-112620500D01*
X108320169Y-112620500D02*
X108248741Y-112477642D01*
X108248741Y-112477642D02*
X108248741Y-111906214D01*
X108248741Y-111906214D02*
X108320169Y-111763357D01*
X108320169Y-111763357D02*
X108463027Y-111691928D01*
X108463027Y-111691928D02*
X108748741Y-111691928D01*
X108748741Y-111691928D02*
X108891598Y-111763357D01*
X108891598Y-111763357D02*
X108963027Y-111906214D01*
X108963027Y-111906214D02*
X108963027Y-112049071D01*
X108963027Y-112049071D02*
X108248741Y-112191928D01*
X109534455Y-112620500D02*
X109677312Y-112691928D01*
X109677312Y-112691928D02*
X109963026Y-112691928D01*
X109963026Y-112691928D02*
X110105883Y-112620500D01*
X110105883Y-112620500D02*
X110177312Y-112477642D01*
X110177312Y-112477642D02*
X110177312Y-112406214D01*
X110177312Y-112406214D02*
X110105883Y-112263357D01*
X110105883Y-112263357D02*
X109963026Y-112191928D01*
X109963026Y-112191928D02*
X109748741Y-112191928D01*
X109748741Y-112191928D02*
X109605883Y-112120500D01*
X109605883Y-112120500D02*
X109534455Y-111977642D01*
X109534455Y-111977642D02*
X109534455Y-111906214D01*
X109534455Y-111906214D02*
X109605883Y-111763357D01*
X109605883Y-111763357D02*
X109748741Y-111691928D01*
X109748741Y-111691928D02*
X109963026Y-111691928D01*
X109963026Y-111691928D02*
X110105883Y-111763357D01*
X111891598Y-111334785D02*
X111963026Y-111263357D01*
X111963026Y-111263357D02*
X112105884Y-111191928D01*
X112105884Y-111191928D02*
X112463026Y-111191928D01*
X112463026Y-111191928D02*
X112605884Y-111263357D01*
X112605884Y-111263357D02*
X112677312Y-111334785D01*
X112677312Y-111334785D02*
X112748741Y-111477642D01*
X112748741Y-111477642D02*
X112748741Y-111620500D01*
X112748741Y-111620500D02*
X112677312Y-111834785D01*
X112677312Y-111834785D02*
X111820169Y-112691928D01*
X111820169Y-112691928D02*
X112748741Y-112691928D01*
X113391597Y-112549071D02*
X113463026Y-112620500D01*
X113463026Y-112620500D02*
X113391597Y-112691928D01*
X113391597Y-112691928D02*
X113320169Y-112620500D01*
X113320169Y-112620500D02*
X113391597Y-112549071D01*
X113391597Y-112549071D02*
X113391597Y-112691928D01*
X114891598Y-112691928D02*
X114034455Y-112691928D01*
X114463026Y-112691928D02*
X114463026Y-111191928D01*
X114463026Y-111191928D02*
X114320169Y-111406214D01*
X114320169Y-111406214D02*
X114177312Y-111549071D01*
X114177312Y-111549071D02*
X114034455Y-111620500D01*
X116677311Y-112691928D02*
X116677311Y-111691928D01*
X116677311Y-111834785D02*
X116748740Y-111763357D01*
X116748740Y-111763357D02*
X116891597Y-111691928D01*
X116891597Y-111691928D02*
X117105883Y-111691928D01*
X117105883Y-111691928D02*
X117248740Y-111763357D01*
X117248740Y-111763357D02*
X117320169Y-111906214D01*
X117320169Y-111906214D02*
X117320169Y-112691928D01*
X117320169Y-111906214D02*
X117391597Y-111763357D01*
X117391597Y-111763357D02*
X117534454Y-111691928D01*
X117534454Y-111691928D02*
X117748740Y-111691928D01*
X117748740Y-111691928D02*
X117891597Y-111763357D01*
X117891597Y-111763357D02*
X117963026Y-111906214D01*
X117963026Y-111906214D02*
X117963026Y-112691928D01*
X118677311Y-112691928D02*
X118677311Y-111691928D01*
X118677311Y-111834785D02*
X118748740Y-111763357D01*
X118748740Y-111763357D02*
X118891597Y-111691928D01*
X118891597Y-111691928D02*
X119105883Y-111691928D01*
X119105883Y-111691928D02*
X119248740Y-111763357D01*
X119248740Y-111763357D02*
X119320169Y-111906214D01*
X119320169Y-111906214D02*
X119320169Y-112691928D01*
X119320169Y-111906214D02*
X119391597Y-111763357D01*
X119391597Y-111763357D02*
X119534454Y-111691928D01*
X119534454Y-111691928D02*
X119748740Y-111691928D01*
X119748740Y-111691928D02*
X119891597Y-111763357D01*
X119891597Y-111763357D02*
X119963026Y-111906214D01*
X119963026Y-111906214D02*
X119963026Y-112691928D01*
X121820168Y-112691928D02*
X121820168Y-111691928D01*
X121820168Y-111834785D02*
X121891597Y-111763357D01*
X121891597Y-111763357D02*
X122034454Y-111691928D01*
X122034454Y-111691928D02*
X122248740Y-111691928D01*
X122248740Y-111691928D02*
X122391597Y-111763357D01*
X122391597Y-111763357D02*
X122463026Y-111906214D01*
X122463026Y-111906214D02*
X122463026Y-112691928D01*
X122463026Y-111906214D02*
X122534454Y-111763357D01*
X122534454Y-111763357D02*
X122677311Y-111691928D01*
X122677311Y-111691928D02*
X122891597Y-111691928D01*
X122891597Y-111691928D02*
X123034454Y-111763357D01*
X123034454Y-111763357D02*
X123105883Y-111906214D01*
X123105883Y-111906214D02*
X123105883Y-112691928D01*
X124034454Y-112691928D02*
X123891597Y-112620500D01*
X123891597Y-112620500D02*
X123820168Y-112549071D01*
X123820168Y-112549071D02*
X123748740Y-112406214D01*
X123748740Y-112406214D02*
X123748740Y-111977642D01*
X123748740Y-111977642D02*
X123820168Y-111834785D01*
X123820168Y-111834785D02*
X123891597Y-111763357D01*
X123891597Y-111763357D02*
X124034454Y-111691928D01*
X124034454Y-111691928D02*
X124248740Y-111691928D01*
X124248740Y-111691928D02*
X124391597Y-111763357D01*
X124391597Y-111763357D02*
X124463026Y-111834785D01*
X124463026Y-111834785D02*
X124534454Y-111977642D01*
X124534454Y-111977642D02*
X124534454Y-112406214D01*
X124534454Y-112406214D02*
X124463026Y-112549071D01*
X124463026Y-112549071D02*
X124391597Y-112620500D01*
X124391597Y-112620500D02*
X124248740Y-112691928D01*
X124248740Y-112691928D02*
X124034454Y-112691928D01*
X125820169Y-111691928D02*
X125820169Y-112691928D01*
X125177311Y-111691928D02*
X125177311Y-112477642D01*
X125177311Y-112477642D02*
X125248740Y-112620500D01*
X125248740Y-112620500D02*
X125391597Y-112691928D01*
X125391597Y-112691928D02*
X125605883Y-112691928D01*
X125605883Y-112691928D02*
X125748740Y-112620500D01*
X125748740Y-112620500D02*
X125820169Y-112549071D01*
X126534454Y-111691928D02*
X126534454Y-112691928D01*
X126534454Y-111834785D02*
X126605883Y-111763357D01*
X126605883Y-111763357D02*
X126748740Y-111691928D01*
X126748740Y-111691928D02*
X126963026Y-111691928D01*
X126963026Y-111691928D02*
X127105883Y-111763357D01*
X127105883Y-111763357D02*
X127177312Y-111906214D01*
X127177312Y-111906214D02*
X127177312Y-112691928D01*
X127677312Y-111691928D02*
X128248740Y-111691928D01*
X127891597Y-111191928D02*
X127891597Y-112477642D01*
X127891597Y-112477642D02*
X127963026Y-112620500D01*
X127963026Y-112620500D02*
X128105883Y-112691928D01*
X128105883Y-112691928D02*
X128248740Y-112691928D01*
X128748740Y-112691928D02*
X128748740Y-111691928D01*
X128748740Y-111191928D02*
X128677312Y-111263357D01*
X128677312Y-111263357D02*
X128748740Y-111334785D01*
X128748740Y-111334785D02*
X128820169Y-111263357D01*
X128820169Y-111263357D02*
X128748740Y-111191928D01*
X128748740Y-111191928D02*
X128748740Y-111334785D01*
X129463026Y-111691928D02*
X129463026Y-112691928D01*
X129463026Y-111834785D02*
X129534455Y-111763357D01*
X129534455Y-111763357D02*
X129677312Y-111691928D01*
X129677312Y-111691928D02*
X129891598Y-111691928D01*
X129891598Y-111691928D02*
X130034455Y-111763357D01*
X130034455Y-111763357D02*
X130105884Y-111906214D01*
X130105884Y-111906214D02*
X130105884Y-112691928D01*
X131463027Y-111691928D02*
X131463027Y-112906214D01*
X131463027Y-112906214D02*
X131391598Y-113049071D01*
X131391598Y-113049071D02*
X131320169Y-113120500D01*
X131320169Y-113120500D02*
X131177312Y-113191928D01*
X131177312Y-113191928D02*
X130963027Y-113191928D01*
X130963027Y-113191928D02*
X130820169Y-113120500D01*
X131463027Y-112620500D02*
X131320169Y-112691928D01*
X131320169Y-112691928D02*
X131034455Y-112691928D01*
X131034455Y-112691928D02*
X130891598Y-112620500D01*
X130891598Y-112620500D02*
X130820169Y-112549071D01*
X130820169Y-112549071D02*
X130748741Y-112406214D01*
X130748741Y-112406214D02*
X130748741Y-111977642D01*
X130748741Y-111977642D02*
X130820169Y-111834785D01*
X130820169Y-111834785D02*
X130891598Y-111763357D01*
X130891598Y-111763357D02*
X131034455Y-111691928D01*
X131034455Y-111691928D02*
X131320169Y-111691928D01*
X131320169Y-111691928D02*
X131463027Y-111763357D01*
X133320169Y-112691928D02*
X133320169Y-111191928D01*
X133320169Y-111906214D02*
X134177312Y-111906214D01*
X134177312Y-112691928D02*
X134177312Y-111191928D01*
X135105884Y-112691928D02*
X134963027Y-112620500D01*
X134963027Y-112620500D02*
X134891598Y-112549071D01*
X134891598Y-112549071D02*
X134820170Y-112406214D01*
X134820170Y-112406214D02*
X134820170Y-111977642D01*
X134820170Y-111977642D02*
X134891598Y-111834785D01*
X134891598Y-111834785D02*
X134963027Y-111763357D01*
X134963027Y-111763357D02*
X135105884Y-111691928D01*
X135105884Y-111691928D02*
X135320170Y-111691928D01*
X135320170Y-111691928D02*
X135463027Y-111763357D01*
X135463027Y-111763357D02*
X135534456Y-111834785D01*
X135534456Y-111834785D02*
X135605884Y-111977642D01*
X135605884Y-111977642D02*
X135605884Y-112406214D01*
X135605884Y-112406214D02*
X135534456Y-112549071D01*
X135534456Y-112549071D02*
X135463027Y-112620500D01*
X135463027Y-112620500D02*
X135320170Y-112691928D01*
X135320170Y-112691928D02*
X135105884Y-112691928D01*
X136463027Y-112691928D02*
X136320170Y-112620500D01*
X136320170Y-112620500D02*
X136248741Y-112477642D01*
X136248741Y-112477642D02*
X136248741Y-111191928D01*
X137605884Y-112620500D02*
X137463027Y-112691928D01*
X137463027Y-112691928D02*
X137177313Y-112691928D01*
X137177313Y-112691928D02*
X137034455Y-112620500D01*
X137034455Y-112620500D02*
X136963027Y-112477642D01*
X136963027Y-112477642D02*
X136963027Y-111906214D01*
X136963027Y-111906214D02*
X137034455Y-111763357D01*
X137034455Y-111763357D02*
X137177313Y-111691928D01*
X137177313Y-111691928D02*
X137463027Y-111691928D01*
X137463027Y-111691928D02*
X137605884Y-111763357D01*
X137605884Y-111763357D02*
X137677313Y-111906214D01*
X137677313Y-111906214D02*
X137677313Y-112049071D01*
X137677313Y-112049071D02*
X136963027Y-112191928D01*
X138248741Y-112620500D02*
X138391598Y-112691928D01*
X138391598Y-112691928D02*
X138677312Y-112691928D01*
X138677312Y-112691928D02*
X138820169Y-112620500D01*
X138820169Y-112620500D02*
X138891598Y-112477642D01*
X138891598Y-112477642D02*
X138891598Y-112406214D01*
X138891598Y-112406214D02*
X138820169Y-112263357D01*
X138820169Y-112263357D02*
X138677312Y-112191928D01*
X138677312Y-112191928D02*
X138463027Y-112191928D01*
X138463027Y-112191928D02*
X138320169Y-112120500D01*
X138320169Y-112120500D02*
X138248741Y-111977642D01*
X138248741Y-111977642D02*
X138248741Y-111906214D01*
X138248741Y-111906214D02*
X138320169Y-111763357D01*
X138320169Y-111763357D02*
X138463027Y-111691928D01*
X138463027Y-111691928D02*
X138677312Y-111691928D01*
X138677312Y-111691928D02*
X138820169Y-111763357D01*
D10*
D11*
X91391598Y-109263357D02*
X92105884Y-109263357D01*
X91248741Y-109691928D02*
X91748741Y-108191928D01*
X91748741Y-108191928D02*
X92248741Y-109691928D01*
X92963026Y-109691928D02*
X92820169Y-109620500D01*
X92820169Y-109620500D02*
X92748740Y-109477642D01*
X92748740Y-109477642D02*
X92748740Y-108191928D01*
X93748740Y-109691928D02*
X93605883Y-109620500D01*
X93605883Y-109620500D02*
X93534454Y-109477642D01*
X93534454Y-109477642D02*
X93534454Y-108191928D01*
X95677311Y-109691928D02*
X95534454Y-109620500D01*
X95534454Y-109620500D02*
X95463025Y-109549071D01*
X95463025Y-109549071D02*
X95391597Y-109406214D01*
X95391597Y-109406214D02*
X95391597Y-108977642D01*
X95391597Y-108977642D02*
X95463025Y-108834785D01*
X95463025Y-108834785D02*
X95534454Y-108763357D01*
X95534454Y-108763357D02*
X95677311Y-108691928D01*
X95677311Y-108691928D02*
X95891597Y-108691928D01*
X95891597Y-108691928D02*
X96034454Y-108763357D01*
X96034454Y-108763357D02*
X96105883Y-108834785D01*
X96105883Y-108834785D02*
X96177311Y-108977642D01*
X96177311Y-108977642D02*
X96177311Y-109406214D01*
X96177311Y-109406214D02*
X96105883Y-109549071D01*
X96105883Y-109549071D02*
X96034454Y-109620500D01*
X96034454Y-109620500D02*
X95891597Y-109691928D01*
X95891597Y-109691928D02*
X95677311Y-109691928D01*
X96605883Y-108691928D02*
X97177311Y-108691928D01*
X96820168Y-108191928D02*
X96820168Y-109477642D01*
X96820168Y-109477642D02*
X96891597Y-109620500D01*
X96891597Y-109620500D02*
X97034454Y-109691928D01*
X97034454Y-109691928D02*
X97177311Y-109691928D01*
X97677311Y-109691928D02*
X97677311Y-108191928D01*
X98320169Y-109691928D02*
X98320169Y-108906214D01*
X98320169Y-108906214D02*
X98248740Y-108763357D01*
X98248740Y-108763357D02*
X98105883Y-108691928D01*
X98105883Y-108691928D02*
X97891597Y-108691928D01*
X97891597Y-108691928D02*
X97748740Y-108763357D01*
X97748740Y-108763357D02*
X97677311Y-108834785D01*
X99605883Y-109620500D02*
X99463026Y-109691928D01*
X99463026Y-109691928D02*
X99177312Y-109691928D01*
X99177312Y-109691928D02*
X99034454Y-109620500D01*
X99034454Y-109620500D02*
X98963026Y-109477642D01*
X98963026Y-109477642D02*
X98963026Y-108906214D01*
X98963026Y-108906214D02*
X99034454Y-108763357D01*
X99034454Y-108763357D02*
X99177312Y-108691928D01*
X99177312Y-108691928D02*
X99463026Y-108691928D01*
X99463026Y-108691928D02*
X99605883Y-108763357D01*
X99605883Y-108763357D02*
X99677312Y-108906214D01*
X99677312Y-108906214D02*
X99677312Y-109049071D01*
X99677312Y-109049071D02*
X98963026Y-109191928D01*
X100320168Y-109691928D02*
X100320168Y-108691928D01*
X100320168Y-108977642D02*
X100391597Y-108834785D01*
X100391597Y-108834785D02*
X100463026Y-108763357D01*
X100463026Y-108763357D02*
X100605883Y-108691928D01*
X100605883Y-108691928D02*
X100748740Y-108691928D01*
X102391596Y-109691928D02*
X102391596Y-108691928D01*
X102391596Y-108834785D02*
X102463025Y-108763357D01*
X102463025Y-108763357D02*
X102605882Y-108691928D01*
X102605882Y-108691928D02*
X102820168Y-108691928D01*
X102820168Y-108691928D02*
X102963025Y-108763357D01*
X102963025Y-108763357D02*
X103034454Y-108906214D01*
X103034454Y-108906214D02*
X103034454Y-109691928D01*
X103034454Y-108906214D02*
X103105882Y-108763357D01*
X103105882Y-108763357D02*
X103248739Y-108691928D01*
X103248739Y-108691928D02*
X103463025Y-108691928D01*
X103463025Y-108691928D02*
X103605882Y-108763357D01*
X103605882Y-108763357D02*
X103677311Y-108906214D01*
X103677311Y-108906214D02*
X103677311Y-109691928D01*
X104605882Y-109691928D02*
X104463025Y-109620500D01*
X104463025Y-109620500D02*
X104391596Y-109549071D01*
X104391596Y-109549071D02*
X104320168Y-109406214D01*
X104320168Y-109406214D02*
X104320168Y-108977642D01*
X104320168Y-108977642D02*
X104391596Y-108834785D01*
X104391596Y-108834785D02*
X104463025Y-108763357D01*
X104463025Y-108763357D02*
X104605882Y-108691928D01*
X104605882Y-108691928D02*
X104820168Y-108691928D01*
X104820168Y-108691928D02*
X104963025Y-108763357D01*
X104963025Y-108763357D02*
X105034454Y-108834785D01*
X105034454Y-108834785D02*
X105105882Y-108977642D01*
X105105882Y-108977642D02*
X105105882Y-109406214D01*
X105105882Y-109406214D02*
X105034454Y-109549071D01*
X105034454Y-109549071D02*
X104963025Y-109620500D01*
X104963025Y-109620500D02*
X104820168Y-109691928D01*
X104820168Y-109691928D02*
X104605882Y-109691928D01*
X106391597Y-108691928D02*
X106391597Y-109691928D01*
X105748739Y-108691928D02*
X105748739Y-109477642D01*
X105748739Y-109477642D02*
X105820168Y-109620500D01*
X105820168Y-109620500D02*
X105963025Y-109691928D01*
X105963025Y-109691928D02*
X106177311Y-109691928D01*
X106177311Y-109691928D02*
X106320168Y-109620500D01*
X106320168Y-109620500D02*
X106391597Y-109549071D01*
X107105882Y-108691928D02*
X107105882Y-109691928D01*
X107105882Y-108834785D02*
X107177311Y-108763357D01*
X107177311Y-108763357D02*
X107320168Y-108691928D01*
X107320168Y-108691928D02*
X107534454Y-108691928D01*
X107534454Y-108691928D02*
X107677311Y-108763357D01*
X107677311Y-108763357D02*
X107748740Y-108906214D01*
X107748740Y-108906214D02*
X107748740Y-109691928D01*
X108248740Y-108691928D02*
X108820168Y-108691928D01*
X108463025Y-108191928D02*
X108463025Y-109477642D01*
X108463025Y-109477642D02*
X108534454Y-109620500D01*
X108534454Y-109620500D02*
X108677311Y-109691928D01*
X108677311Y-109691928D02*
X108820168Y-109691928D01*
X109320168Y-109691928D02*
X109320168Y-108691928D01*
X109320168Y-108191928D02*
X109248740Y-108263357D01*
X109248740Y-108263357D02*
X109320168Y-108334785D01*
X109320168Y-108334785D02*
X109391597Y-108263357D01*
X109391597Y-108263357D02*
X109320168Y-108191928D01*
X109320168Y-108191928D02*
X109320168Y-108334785D01*
X110034454Y-108691928D02*
X110034454Y-109691928D01*
X110034454Y-108834785D02*
X110105883Y-108763357D01*
X110105883Y-108763357D02*
X110248740Y-108691928D01*
X110248740Y-108691928D02*
X110463026Y-108691928D01*
X110463026Y-108691928D02*
X110605883Y-108763357D01*
X110605883Y-108763357D02*
X110677312Y-108906214D01*
X110677312Y-108906214D02*
X110677312Y-109691928D01*
X112034455Y-108691928D02*
X112034455Y-109906214D01*
X112034455Y-109906214D02*
X111963026Y-110049071D01*
X111963026Y-110049071D02*
X111891597Y-110120500D01*
X111891597Y-110120500D02*
X111748740Y-110191928D01*
X111748740Y-110191928D02*
X111534455Y-110191928D01*
X111534455Y-110191928D02*
X111391597Y-110120500D01*
X112034455Y-109620500D02*
X111891597Y-109691928D01*
X111891597Y-109691928D02*
X111605883Y-109691928D01*
X111605883Y-109691928D02*
X111463026Y-109620500D01*
X111463026Y-109620500D02*
X111391597Y-109549071D01*
X111391597Y-109549071D02*
X111320169Y-109406214D01*
X111320169Y-109406214D02*
X111320169Y-108977642D01*
X111320169Y-108977642D02*
X111391597Y-108834785D01*
X111391597Y-108834785D02*
X111463026Y-108763357D01*
X111463026Y-108763357D02*
X111605883Y-108691928D01*
X111605883Y-108691928D02*
X111891597Y-108691928D01*
X111891597Y-108691928D02*
X112034455Y-108763357D01*
X113891597Y-109691928D02*
X113891597Y-108191928D01*
X114534455Y-109691928D02*
X114534455Y-108906214D01*
X114534455Y-108906214D02*
X114463026Y-108763357D01*
X114463026Y-108763357D02*
X114320169Y-108691928D01*
X114320169Y-108691928D02*
X114105883Y-108691928D01*
X114105883Y-108691928D02*
X113963026Y-108763357D01*
X113963026Y-108763357D02*
X113891597Y-108834785D01*
X115463026Y-109691928D02*
X115320169Y-109620500D01*
X115320169Y-109620500D02*
X115248740Y-109549071D01*
X115248740Y-109549071D02*
X115177312Y-109406214D01*
X115177312Y-109406214D02*
X115177312Y-108977642D01*
X115177312Y-108977642D02*
X115248740Y-108834785D01*
X115248740Y-108834785D02*
X115320169Y-108763357D01*
X115320169Y-108763357D02*
X115463026Y-108691928D01*
X115463026Y-108691928D02*
X115677312Y-108691928D01*
X115677312Y-108691928D02*
X115820169Y-108763357D01*
X115820169Y-108763357D02*
X115891598Y-108834785D01*
X115891598Y-108834785D02*
X115963026Y-108977642D01*
X115963026Y-108977642D02*
X115963026Y-109406214D01*
X115963026Y-109406214D02*
X115891598Y-109549071D01*
X115891598Y-109549071D02*
X115820169Y-109620500D01*
X115820169Y-109620500D02*
X115677312Y-109691928D01*
X115677312Y-109691928D02*
X115463026Y-109691928D01*
X116820169Y-109691928D02*
X116677312Y-109620500D01*
X116677312Y-109620500D02*
X116605883Y-109477642D01*
X116605883Y-109477642D02*
X116605883Y-108191928D01*
X117963026Y-109620500D02*
X117820169Y-109691928D01*
X117820169Y-109691928D02*
X117534455Y-109691928D01*
X117534455Y-109691928D02*
X117391597Y-109620500D01*
X117391597Y-109620500D02*
X117320169Y-109477642D01*
X117320169Y-109477642D02*
X117320169Y-108906214D01*
X117320169Y-108906214D02*
X117391597Y-108763357D01*
X117391597Y-108763357D02*
X117534455Y-108691928D01*
X117534455Y-108691928D02*
X117820169Y-108691928D01*
X117820169Y-108691928D02*
X117963026Y-108763357D01*
X117963026Y-108763357D02*
X118034455Y-108906214D01*
X118034455Y-108906214D02*
X118034455Y-109049071D01*
X118034455Y-109049071D02*
X117320169Y-109191928D01*
X118605883Y-109620500D02*
X118748740Y-109691928D01*
X118748740Y-109691928D02*
X119034454Y-109691928D01*
X119034454Y-109691928D02*
X119177311Y-109620500D01*
X119177311Y-109620500D02*
X119248740Y-109477642D01*
X119248740Y-109477642D02*
X119248740Y-109406214D01*
X119248740Y-109406214D02*
X119177311Y-109263357D01*
X119177311Y-109263357D02*
X119034454Y-109191928D01*
X119034454Y-109191928D02*
X118820169Y-109191928D01*
X118820169Y-109191928D02*
X118677311Y-109120500D01*
X118677311Y-109120500D02*
X118605883Y-108977642D01*
X118605883Y-108977642D02*
X118605883Y-108906214D01*
X118605883Y-108906214D02*
X118677311Y-108763357D01*
X118677311Y-108763357D02*
X118820169Y-108691928D01*
X118820169Y-108691928D02*
X119034454Y-108691928D01*
X119034454Y-108691928D02*
X119177311Y-108763357D01*
X121677312Y-109691928D02*
X121677312Y-108906214D01*
X121677312Y-108906214D02*
X121605883Y-108763357D01*
X121605883Y-108763357D02*
X121463026Y-108691928D01*
X121463026Y-108691928D02*
X121177312Y-108691928D01*
X121177312Y-108691928D02*
X121034454Y-108763357D01*
X121677312Y-109620500D02*
X121534454Y-109691928D01*
X121534454Y-109691928D02*
X121177312Y-109691928D01*
X121177312Y-109691928D02*
X121034454Y-109620500D01*
X121034454Y-109620500D02*
X120963026Y-109477642D01*
X120963026Y-109477642D02*
X120963026Y-109334785D01*
X120963026Y-109334785D02*
X121034454Y-109191928D01*
X121034454Y-109191928D02*
X121177312Y-109120500D01*
X121177312Y-109120500D02*
X121534454Y-109120500D01*
X121534454Y-109120500D02*
X121677312Y-109049071D01*
X122391597Y-109691928D02*
X122391597Y-108691928D01*
X122391597Y-108977642D02*
X122463026Y-108834785D01*
X122463026Y-108834785D02*
X122534455Y-108763357D01*
X122534455Y-108763357D02*
X122677312Y-108691928D01*
X122677312Y-108691928D02*
X122820169Y-108691928D01*
X123891597Y-109620500D02*
X123748740Y-109691928D01*
X123748740Y-109691928D02*
X123463026Y-109691928D01*
X123463026Y-109691928D02*
X123320168Y-109620500D01*
X123320168Y-109620500D02*
X123248740Y-109477642D01*
X123248740Y-109477642D02*
X123248740Y-108906214D01*
X123248740Y-108906214D02*
X123320168Y-108763357D01*
X123320168Y-108763357D02*
X123463026Y-108691928D01*
X123463026Y-108691928D02*
X123748740Y-108691928D01*
X123748740Y-108691928D02*
X123891597Y-108763357D01*
X123891597Y-108763357D02*
X123963026Y-108906214D01*
X123963026Y-108906214D02*
X123963026Y-109049071D01*
X123963026Y-109049071D02*
X123248740Y-109191928D01*
X125605882Y-108191928D02*
X126534454Y-108191928D01*
X126534454Y-108191928D02*
X126034454Y-108763357D01*
X126034454Y-108763357D02*
X126248739Y-108763357D01*
X126248739Y-108763357D02*
X126391597Y-108834785D01*
X126391597Y-108834785D02*
X126463025Y-108906214D01*
X126463025Y-108906214D02*
X126534454Y-109049071D01*
X126534454Y-109049071D02*
X126534454Y-109406214D01*
X126534454Y-109406214D02*
X126463025Y-109549071D01*
X126463025Y-109549071D02*
X126391597Y-109620500D01*
X126391597Y-109620500D02*
X126248739Y-109691928D01*
X126248739Y-109691928D02*
X125820168Y-109691928D01*
X125820168Y-109691928D02*
X125677311Y-109620500D01*
X125677311Y-109620500D02*
X125605882Y-109549071D01*
X128320167Y-109691928D02*
X128320167Y-108691928D01*
X128320167Y-108834785D02*
X128391596Y-108763357D01*
X128391596Y-108763357D02*
X128534453Y-108691928D01*
X128534453Y-108691928D02*
X128748739Y-108691928D01*
X128748739Y-108691928D02*
X128891596Y-108763357D01*
X128891596Y-108763357D02*
X128963025Y-108906214D01*
X128963025Y-108906214D02*
X128963025Y-109691928D01*
X128963025Y-108906214D02*
X129034453Y-108763357D01*
X129034453Y-108763357D02*
X129177310Y-108691928D01*
X129177310Y-108691928D02*
X129391596Y-108691928D01*
X129391596Y-108691928D02*
X129534453Y-108763357D01*
X129534453Y-108763357D02*
X129605882Y-108906214D01*
X129605882Y-108906214D02*
X129605882Y-109691928D01*
X130320167Y-109691928D02*
X130320167Y-108691928D01*
X130320167Y-108834785D02*
X130391596Y-108763357D01*
X130391596Y-108763357D02*
X130534453Y-108691928D01*
X130534453Y-108691928D02*
X130748739Y-108691928D01*
X130748739Y-108691928D02*
X130891596Y-108763357D01*
X130891596Y-108763357D02*
X130963025Y-108906214D01*
X130963025Y-108906214D02*
X130963025Y-109691928D01*
X130963025Y-108906214D02*
X131034453Y-108763357D01*
X131034453Y-108763357D02*
X131177310Y-108691928D01*
X131177310Y-108691928D02*
X131391596Y-108691928D01*
X131391596Y-108691928D02*
X131534453Y-108763357D01*
X131534453Y-108763357D02*
X131605882Y-108906214D01*
X131605882Y-108906214D02*
X131605882Y-109691928D01*
D10*
D11*
X110007200Y-129505800D02*
X110007200Y-132505800D01*
D10*
D11*
X174007200Y-129505800D02*
X174007200Y-136005800D01*
D14*
%TO.C,U1*%
X61844000Y-65555000D03*
X109414000Y-65555000D03*
X109414000Y-54165000D03*
X61844000Y-54155000D03*
D15*
X61214000Y-69545000D03*
X63754000Y-69545000D03*
D16*
X66294000Y-69545000D03*
D15*
X68834000Y-69545000D03*
X71374000Y-69545000D03*
X73914000Y-69545000D03*
X76454000Y-69545000D03*
D16*
X78994000Y-69545000D03*
D15*
X81534000Y-69545000D03*
X84074000Y-69545000D03*
X86614000Y-69545000D03*
X89154000Y-69545000D03*
D16*
X91694000Y-69545000D03*
D15*
X94234000Y-69545000D03*
X96774000Y-69545000D03*
X99314000Y-69545000D03*
X101854000Y-69545000D03*
D16*
X104394000Y-69545000D03*
D15*
X106934000Y-69545000D03*
X109474000Y-69545000D03*
D17*
X109474000Y-50165000D03*
X106934000Y-50165000D03*
D18*
X104394000Y-50165000D03*
D17*
X101854000Y-50165000D03*
X99314000Y-50165000D03*
X96774000Y-50165000D03*
X94234000Y-50165000D03*
D18*
X91694000Y-50165000D03*
D17*
X89154000Y-50165000D03*
X86614000Y-50165000D03*
X84074000Y-50165000D03*
X81534000Y-50165000D03*
D18*
X78994000Y-50165000D03*
D17*
X76454000Y-50165000D03*
X73914000Y-50165000D03*
X71374000Y-50165000D03*
X68834000Y-50165000D03*
D18*
X66294000Y-50165000D03*
D17*
X63754000Y-50165000D03*
X61214000Y-50165000D03*
D19*
X110044000Y-62395000D03*
D20*
X110044000Y-59855000D03*
D19*
X110044000Y-57315000D03*
%TD*%
D21*
%TO.C,J1*%
X48400000Y-87650000D03*
D22*
X45860000Y-87650000D03*
X43320000Y-87650000D03*
X40780000Y-87650000D03*
%TD*%
D23*
%TO.C,H5*%
X33550000Y-86125000D03*
%TD*%
%TO.C,H13*%
X34740000Y-41815000D03*
%TD*%
D21*
%TO.C,J2*%
X64175000Y-91295000D03*
D22*
X66715000Y-91295000D03*
X69255000Y-91295000D03*
X71795000Y-91295000D03*
X74335000Y-91295000D03*
X76875000Y-91295000D03*
X79415000Y-91295000D03*
%TD*%
D21*
%TO.C,J6*%
X97599734Y-29300000D03*
D22*
X100139734Y-29300000D03*
X97599734Y-31840000D03*
X100139734Y-31840000D03*
X97599734Y-34380000D03*
X100139734Y-34380000D03*
X97599734Y-36920000D03*
X100139734Y-36920000D03*
X97599734Y-39460000D03*
X100139734Y-39460000D03*
X97599734Y-42000000D03*
X100139734Y-42000000D03*
X97599734Y-44540000D03*
X100139734Y-44540000D03*
%TD*%
D23*
%TO.C,H1*%
X61860000Y-78685000D03*
%TD*%
D21*
%TO.C,J3*%
X129300000Y-80175000D03*
D22*
X126760000Y-80175000D03*
X124220000Y-80175000D03*
X121680000Y-80175000D03*
X119140000Y-80175000D03*
X116600000Y-80175000D03*
%TD*%
D23*
%TO.C,H10*%
X106700000Y-79650000D03*
%TD*%
D21*
%TO.C,J7*%
X55060000Y-23781000D03*
D22*
X52520000Y-23781000D03*
X49980000Y-23781000D03*
X47440000Y-23781000D03*
X44900000Y-23781000D03*
X42360000Y-23781000D03*
X39820000Y-23781000D03*
X37280000Y-23781000D03*
X34740000Y-23781000D03*
%TD*%
D23*
%TO.C,H7*%
X81690000Y-78685000D03*
%TD*%
%TO.C,H4*%
X54550000Y-55475000D03*
%TD*%
%TO.C,H12*%
X55060000Y-41815000D03*
%TD*%
%TO.C,H9*%
X89700000Y-79650000D03*
%TD*%
D21*
%TO.C,J5*%
X106045000Y-21844000D03*
D22*
X108585000Y-21844000D03*
X111125000Y-21844000D03*
X113665000Y-21844000D03*
X116205000Y-21844000D03*
%TD*%
D23*
%TO.C,H14*%
X130048000Y-21971000D03*
%TD*%
%TO.C,H11*%
X66840334Y-22899200D03*
%TD*%
%TO.C,H3*%
X54550000Y-86125000D03*
%TD*%
%TO.C,H2*%
X130048000Y-91821000D03*
%TD*%
%TO.C,H8*%
X66840334Y-44590800D03*
%TD*%
%TO.C,H6*%
X33550000Y-55475000D03*
%TD*%
D21*
%TO.C,J4*%
X89480000Y-92150000D03*
D22*
X92020000Y-92150000D03*
X94560000Y-92150000D03*
X97100000Y-92150000D03*
X99640000Y-92150000D03*
X102180000Y-92150000D03*
X104720000Y-92150000D03*
X107260000Y-92150000D03*
%TD*%
M02*
