%TF.GenerationSoftware,KiCad,Pcbnew,8.0.7*%
%TF.CreationDate,2024-12-31T14:19:16-08:00*%
%TF.ProjectId,Avionics Instrumentation and Microcontroller Board,4176696f-6e69-4637-9320-496e73747275,3*%
%TF.SameCoordinates,Original*%
%TF.FileFunction,Legend,Top*%
%TF.FilePolarity,Positive*%
%FSLAX46Y46*%
G04 Gerber Fmt 4.6, Leading zero omitted, Abs format (unit mm)*
G04 Created by KiCad (PCBNEW 8.0.7) date 2024-12-31 14:19:16*
%MOMM*%
%LPD*%
G01*
G04 APERTURE LIST*
%ADD10C,0.100000*%
%ADD11C,0.150000*%
%ADD12C,0.300000*%
%ADD13C,0.400000*%
%ADD14C,0.127000*%
%ADD15C,0.200000*%
%ADD16C,0.120000*%
G04 APERTURE END LIST*
D10*
D11*
X90007200Y-104005800D02*
X198007200Y-104005800D01*
X198007200Y-136005800D01*
X90007200Y-136005800D01*
X90007200Y-104005800D01*
D10*
D11*
X10000000Y-10000000D02*
X200007200Y-10000000D01*
X200007200Y-138005800D01*
X10000000Y-138005800D01*
X10000000Y-10000000D01*
D10*
D11*
X12000000Y-12000000D02*
X198007200Y-12000000D01*
X198007200Y-136005800D01*
X12000000Y-136005800D01*
X12000000Y-12000000D01*
D10*
D11*
X60000000Y-12000000D02*
X60000000Y-10000000D01*
D10*
D11*
X110000000Y-12000000D02*
X110000000Y-10000000D01*
D10*
D11*
X160000000Y-12000000D02*
X160000000Y-10000000D01*
D10*
D11*
X36089160Y-11593604D02*
X35346303Y-11593604D01*
X35717731Y-11593604D02*
X35717731Y-10293604D01*
X35717731Y-10293604D02*
X35593922Y-10479319D01*
X35593922Y-10479319D02*
X35470112Y-10603128D01*
X35470112Y-10603128D02*
X35346303Y-10665033D01*
D10*
D11*
X85346303Y-10417414D02*
X85408207Y-10355509D01*
X85408207Y-10355509D02*
X85532017Y-10293604D01*
X85532017Y-10293604D02*
X85841541Y-10293604D01*
X85841541Y-10293604D02*
X85965350Y-10355509D01*
X85965350Y-10355509D02*
X86027255Y-10417414D01*
X86027255Y-10417414D02*
X86089160Y-10541223D01*
X86089160Y-10541223D02*
X86089160Y-10665033D01*
X86089160Y-10665033D02*
X86027255Y-10850747D01*
X86027255Y-10850747D02*
X85284398Y-11593604D01*
X85284398Y-11593604D02*
X86089160Y-11593604D01*
D10*
D11*
X135284398Y-10293604D02*
X136089160Y-10293604D01*
X136089160Y-10293604D02*
X135655826Y-10788842D01*
X135655826Y-10788842D02*
X135841541Y-10788842D01*
X135841541Y-10788842D02*
X135965350Y-10850747D01*
X135965350Y-10850747D02*
X136027255Y-10912652D01*
X136027255Y-10912652D02*
X136089160Y-11036461D01*
X136089160Y-11036461D02*
X136089160Y-11345985D01*
X136089160Y-11345985D02*
X136027255Y-11469795D01*
X136027255Y-11469795D02*
X135965350Y-11531700D01*
X135965350Y-11531700D02*
X135841541Y-11593604D01*
X135841541Y-11593604D02*
X135470112Y-11593604D01*
X135470112Y-11593604D02*
X135346303Y-11531700D01*
X135346303Y-11531700D02*
X135284398Y-11469795D01*
D10*
D11*
X185965350Y-10726938D02*
X185965350Y-11593604D01*
X185655826Y-10231700D02*
X185346303Y-11160271D01*
X185346303Y-11160271D02*
X186151064Y-11160271D01*
D10*
D11*
X60000000Y-136005800D02*
X60000000Y-138005800D01*
D10*
D11*
X110000000Y-136005800D02*
X110000000Y-138005800D01*
D10*
D11*
X160000000Y-136005800D02*
X160000000Y-138005800D01*
D10*
D11*
X36089160Y-137599404D02*
X35346303Y-137599404D01*
X35717731Y-137599404D02*
X35717731Y-136299404D01*
X35717731Y-136299404D02*
X35593922Y-136485119D01*
X35593922Y-136485119D02*
X35470112Y-136608928D01*
X35470112Y-136608928D02*
X35346303Y-136670833D01*
D10*
D11*
X85346303Y-136423214D02*
X85408207Y-136361309D01*
X85408207Y-136361309D02*
X85532017Y-136299404D01*
X85532017Y-136299404D02*
X85841541Y-136299404D01*
X85841541Y-136299404D02*
X85965350Y-136361309D01*
X85965350Y-136361309D02*
X86027255Y-136423214D01*
X86027255Y-136423214D02*
X86089160Y-136547023D01*
X86089160Y-136547023D02*
X86089160Y-136670833D01*
X86089160Y-136670833D02*
X86027255Y-136856547D01*
X86027255Y-136856547D02*
X85284398Y-137599404D01*
X85284398Y-137599404D02*
X86089160Y-137599404D01*
D10*
D11*
X135284398Y-136299404D02*
X136089160Y-136299404D01*
X136089160Y-136299404D02*
X135655826Y-136794642D01*
X135655826Y-136794642D02*
X135841541Y-136794642D01*
X135841541Y-136794642D02*
X135965350Y-136856547D01*
X135965350Y-136856547D02*
X136027255Y-136918452D01*
X136027255Y-136918452D02*
X136089160Y-137042261D01*
X136089160Y-137042261D02*
X136089160Y-137351785D01*
X136089160Y-137351785D02*
X136027255Y-137475595D01*
X136027255Y-137475595D02*
X135965350Y-137537500D01*
X135965350Y-137537500D02*
X135841541Y-137599404D01*
X135841541Y-137599404D02*
X135470112Y-137599404D01*
X135470112Y-137599404D02*
X135346303Y-137537500D01*
X135346303Y-137537500D02*
X135284398Y-137475595D01*
D10*
D11*
X185965350Y-136732738D02*
X185965350Y-137599404D01*
X185655826Y-136237500D02*
X185346303Y-137166071D01*
X185346303Y-137166071D02*
X186151064Y-137166071D01*
D10*
D11*
X10000000Y-60000000D02*
X12000000Y-60000000D01*
D10*
D11*
X10000000Y-110000000D02*
X12000000Y-110000000D01*
D10*
D11*
X10690476Y-35222176D02*
X11309523Y-35222176D01*
X10566666Y-35593604D02*
X10999999Y-34293604D01*
X10999999Y-34293604D02*
X11433333Y-35593604D01*
D10*
D11*
X11092857Y-84912652D02*
X11278571Y-84974557D01*
X11278571Y-84974557D02*
X11340476Y-85036461D01*
X11340476Y-85036461D02*
X11402380Y-85160271D01*
X11402380Y-85160271D02*
X11402380Y-85345985D01*
X11402380Y-85345985D02*
X11340476Y-85469795D01*
X11340476Y-85469795D02*
X11278571Y-85531700D01*
X11278571Y-85531700D02*
X11154761Y-85593604D01*
X11154761Y-85593604D02*
X10659523Y-85593604D01*
X10659523Y-85593604D02*
X10659523Y-84293604D01*
X10659523Y-84293604D02*
X11092857Y-84293604D01*
X11092857Y-84293604D02*
X11216666Y-84355509D01*
X11216666Y-84355509D02*
X11278571Y-84417414D01*
X11278571Y-84417414D02*
X11340476Y-84541223D01*
X11340476Y-84541223D02*
X11340476Y-84665033D01*
X11340476Y-84665033D02*
X11278571Y-84788842D01*
X11278571Y-84788842D02*
X11216666Y-84850747D01*
X11216666Y-84850747D02*
X11092857Y-84912652D01*
X11092857Y-84912652D02*
X10659523Y-84912652D01*
D10*
D11*
X11402380Y-135469795D02*
X11340476Y-135531700D01*
X11340476Y-135531700D02*
X11154761Y-135593604D01*
X11154761Y-135593604D02*
X11030952Y-135593604D01*
X11030952Y-135593604D02*
X10845238Y-135531700D01*
X10845238Y-135531700D02*
X10721428Y-135407890D01*
X10721428Y-135407890D02*
X10659523Y-135284080D01*
X10659523Y-135284080D02*
X10597619Y-135036461D01*
X10597619Y-135036461D02*
X10597619Y-134850747D01*
X10597619Y-134850747D02*
X10659523Y-134603128D01*
X10659523Y-134603128D02*
X10721428Y-134479319D01*
X10721428Y-134479319D02*
X10845238Y-134355509D01*
X10845238Y-134355509D02*
X11030952Y-134293604D01*
X11030952Y-134293604D02*
X11154761Y-134293604D01*
X11154761Y-134293604D02*
X11340476Y-134355509D01*
X11340476Y-134355509D02*
X11402380Y-134417414D01*
D10*
D11*
X200007200Y-60000000D02*
X198007200Y-60000000D01*
D10*
D11*
X200007200Y-110000000D02*
X198007200Y-110000000D01*
D10*
D11*
X198697676Y-35222176D02*
X199316723Y-35222176D01*
X198573866Y-35593604D02*
X199007199Y-34293604D01*
X199007199Y-34293604D02*
X199440533Y-35593604D01*
D10*
D11*
X199100057Y-84912652D02*
X199285771Y-84974557D01*
X199285771Y-84974557D02*
X199347676Y-85036461D01*
X199347676Y-85036461D02*
X199409580Y-85160271D01*
X199409580Y-85160271D02*
X199409580Y-85345985D01*
X199409580Y-85345985D02*
X199347676Y-85469795D01*
X199347676Y-85469795D02*
X199285771Y-85531700D01*
X199285771Y-85531700D02*
X199161961Y-85593604D01*
X199161961Y-85593604D02*
X198666723Y-85593604D01*
X198666723Y-85593604D02*
X198666723Y-84293604D01*
X198666723Y-84293604D02*
X199100057Y-84293604D01*
X199100057Y-84293604D02*
X199223866Y-84355509D01*
X199223866Y-84355509D02*
X199285771Y-84417414D01*
X199285771Y-84417414D02*
X199347676Y-84541223D01*
X199347676Y-84541223D02*
X199347676Y-84665033D01*
X199347676Y-84665033D02*
X199285771Y-84788842D01*
X199285771Y-84788842D02*
X199223866Y-84850747D01*
X199223866Y-84850747D02*
X199100057Y-84912652D01*
X199100057Y-84912652D02*
X198666723Y-84912652D01*
D10*
D11*
X199409580Y-135469795D02*
X199347676Y-135531700D01*
X199347676Y-135531700D02*
X199161961Y-135593604D01*
X199161961Y-135593604D02*
X199038152Y-135593604D01*
X199038152Y-135593604D02*
X198852438Y-135531700D01*
X198852438Y-135531700D02*
X198728628Y-135407890D01*
X198728628Y-135407890D02*
X198666723Y-135284080D01*
X198666723Y-135284080D02*
X198604819Y-135036461D01*
X198604819Y-135036461D02*
X198604819Y-134850747D01*
X198604819Y-134850747D02*
X198666723Y-134603128D01*
X198666723Y-134603128D02*
X198728628Y-134479319D01*
X198728628Y-134479319D02*
X198852438Y-134355509D01*
X198852438Y-134355509D02*
X199038152Y-134293604D01*
X199038152Y-134293604D02*
X199161961Y-134293604D01*
X199161961Y-134293604D02*
X199347676Y-134355509D01*
X199347676Y-134355509D02*
X199409580Y-134417414D01*
D10*
D11*
X113463026Y-131791928D02*
X113463026Y-130291928D01*
X113463026Y-130291928D02*
X113820169Y-130291928D01*
X113820169Y-130291928D02*
X114034455Y-130363357D01*
X114034455Y-130363357D02*
X114177312Y-130506214D01*
X114177312Y-130506214D02*
X114248741Y-130649071D01*
X114248741Y-130649071D02*
X114320169Y-130934785D01*
X114320169Y-130934785D02*
X114320169Y-131149071D01*
X114320169Y-131149071D02*
X114248741Y-131434785D01*
X114248741Y-131434785D02*
X114177312Y-131577642D01*
X114177312Y-131577642D02*
X114034455Y-131720500D01*
X114034455Y-131720500D02*
X113820169Y-131791928D01*
X113820169Y-131791928D02*
X113463026Y-131791928D01*
X115605884Y-131791928D02*
X115605884Y-131006214D01*
X115605884Y-131006214D02*
X115534455Y-130863357D01*
X115534455Y-130863357D02*
X115391598Y-130791928D01*
X115391598Y-130791928D02*
X115105884Y-130791928D01*
X115105884Y-130791928D02*
X114963026Y-130863357D01*
X115605884Y-131720500D02*
X115463026Y-131791928D01*
X115463026Y-131791928D02*
X115105884Y-131791928D01*
X115105884Y-131791928D02*
X114963026Y-131720500D01*
X114963026Y-131720500D02*
X114891598Y-131577642D01*
X114891598Y-131577642D02*
X114891598Y-131434785D01*
X114891598Y-131434785D02*
X114963026Y-131291928D01*
X114963026Y-131291928D02*
X115105884Y-131220500D01*
X115105884Y-131220500D02*
X115463026Y-131220500D01*
X115463026Y-131220500D02*
X115605884Y-131149071D01*
X116105884Y-130791928D02*
X116677312Y-130791928D01*
X116320169Y-130291928D02*
X116320169Y-131577642D01*
X116320169Y-131577642D02*
X116391598Y-131720500D01*
X116391598Y-131720500D02*
X116534455Y-131791928D01*
X116534455Y-131791928D02*
X116677312Y-131791928D01*
X117748741Y-131720500D02*
X117605884Y-131791928D01*
X117605884Y-131791928D02*
X117320170Y-131791928D01*
X117320170Y-131791928D02*
X117177312Y-131720500D01*
X117177312Y-131720500D02*
X117105884Y-131577642D01*
X117105884Y-131577642D02*
X117105884Y-131006214D01*
X117105884Y-131006214D02*
X117177312Y-130863357D01*
X117177312Y-130863357D02*
X117320170Y-130791928D01*
X117320170Y-130791928D02*
X117605884Y-130791928D01*
X117605884Y-130791928D02*
X117748741Y-130863357D01*
X117748741Y-130863357D02*
X117820170Y-131006214D01*
X117820170Y-131006214D02*
X117820170Y-131149071D01*
X117820170Y-131149071D02*
X117105884Y-131291928D01*
X118463026Y-131649071D02*
X118534455Y-131720500D01*
X118534455Y-131720500D02*
X118463026Y-131791928D01*
X118463026Y-131791928D02*
X118391598Y-131720500D01*
X118391598Y-131720500D02*
X118463026Y-131649071D01*
X118463026Y-131649071D02*
X118463026Y-131791928D01*
X118463026Y-130863357D02*
X118534455Y-130934785D01*
X118534455Y-130934785D02*
X118463026Y-131006214D01*
X118463026Y-131006214D02*
X118391598Y-130934785D01*
X118391598Y-130934785D02*
X118463026Y-130863357D01*
X118463026Y-130863357D02*
X118463026Y-131006214D01*
X120248741Y-130434785D02*
X120320169Y-130363357D01*
X120320169Y-130363357D02*
X120463027Y-130291928D01*
X120463027Y-130291928D02*
X120820169Y-130291928D01*
X120820169Y-130291928D02*
X120963027Y-130363357D01*
X120963027Y-130363357D02*
X121034455Y-130434785D01*
X121034455Y-130434785D02*
X121105884Y-130577642D01*
X121105884Y-130577642D02*
X121105884Y-130720500D01*
X121105884Y-130720500D02*
X121034455Y-130934785D01*
X121034455Y-130934785D02*
X120177312Y-131791928D01*
X120177312Y-131791928D02*
X121105884Y-131791928D01*
X122034455Y-130291928D02*
X122177312Y-130291928D01*
X122177312Y-130291928D02*
X122320169Y-130363357D01*
X122320169Y-130363357D02*
X122391598Y-130434785D01*
X122391598Y-130434785D02*
X122463026Y-130577642D01*
X122463026Y-130577642D02*
X122534455Y-130863357D01*
X122534455Y-130863357D02*
X122534455Y-131220500D01*
X122534455Y-131220500D02*
X122463026Y-131506214D01*
X122463026Y-131506214D02*
X122391598Y-131649071D01*
X122391598Y-131649071D02*
X122320169Y-131720500D01*
X122320169Y-131720500D02*
X122177312Y-131791928D01*
X122177312Y-131791928D02*
X122034455Y-131791928D01*
X122034455Y-131791928D02*
X121891598Y-131720500D01*
X121891598Y-131720500D02*
X121820169Y-131649071D01*
X121820169Y-131649071D02*
X121748740Y-131506214D01*
X121748740Y-131506214D02*
X121677312Y-131220500D01*
X121677312Y-131220500D02*
X121677312Y-130863357D01*
X121677312Y-130863357D02*
X121748740Y-130577642D01*
X121748740Y-130577642D02*
X121820169Y-130434785D01*
X121820169Y-130434785D02*
X121891598Y-130363357D01*
X121891598Y-130363357D02*
X122034455Y-130291928D01*
X123105883Y-130434785D02*
X123177311Y-130363357D01*
X123177311Y-130363357D02*
X123320169Y-130291928D01*
X123320169Y-130291928D02*
X123677311Y-130291928D01*
X123677311Y-130291928D02*
X123820169Y-130363357D01*
X123820169Y-130363357D02*
X123891597Y-130434785D01*
X123891597Y-130434785D02*
X123963026Y-130577642D01*
X123963026Y-130577642D02*
X123963026Y-130720500D01*
X123963026Y-130720500D02*
X123891597Y-130934785D01*
X123891597Y-130934785D02*
X123034454Y-131791928D01*
X123034454Y-131791928D02*
X123963026Y-131791928D01*
X125248740Y-130791928D02*
X125248740Y-131791928D01*
X124891597Y-130220500D02*
X124534454Y-131291928D01*
X124534454Y-131291928D02*
X125463025Y-131291928D01*
X126034453Y-131220500D02*
X127177311Y-131220500D01*
X128677311Y-131791928D02*
X127820168Y-131791928D01*
X128248739Y-131791928D02*
X128248739Y-130291928D01*
X128248739Y-130291928D02*
X128105882Y-130506214D01*
X128105882Y-130506214D02*
X127963025Y-130649071D01*
X127963025Y-130649071D02*
X127820168Y-130720500D01*
X129248739Y-130434785D02*
X129320167Y-130363357D01*
X129320167Y-130363357D02*
X129463025Y-130291928D01*
X129463025Y-130291928D02*
X129820167Y-130291928D01*
X129820167Y-130291928D02*
X129963025Y-130363357D01*
X129963025Y-130363357D02*
X130034453Y-130434785D01*
X130034453Y-130434785D02*
X130105882Y-130577642D01*
X130105882Y-130577642D02*
X130105882Y-130720500D01*
X130105882Y-130720500D02*
X130034453Y-130934785D01*
X130034453Y-130934785D02*
X129177310Y-131791928D01*
X129177310Y-131791928D02*
X130105882Y-131791928D01*
X130748738Y-131220500D02*
X131891596Y-131220500D01*
X132463024Y-130291928D02*
X133391596Y-130291928D01*
X133391596Y-130291928D02*
X132891596Y-130863357D01*
X132891596Y-130863357D02*
X133105881Y-130863357D01*
X133105881Y-130863357D02*
X133248739Y-130934785D01*
X133248739Y-130934785D02*
X133320167Y-131006214D01*
X133320167Y-131006214D02*
X133391596Y-131149071D01*
X133391596Y-131149071D02*
X133391596Y-131506214D01*
X133391596Y-131506214D02*
X133320167Y-131649071D01*
X133320167Y-131649071D02*
X133248739Y-131720500D01*
X133248739Y-131720500D02*
X133105881Y-131791928D01*
X133105881Y-131791928D02*
X132677310Y-131791928D01*
X132677310Y-131791928D02*
X132534453Y-131720500D01*
X132534453Y-131720500D02*
X132463024Y-131649071D01*
X134320167Y-130291928D02*
X134463024Y-130291928D01*
X134463024Y-130291928D02*
X134605881Y-130363357D01*
X134605881Y-130363357D02*
X134677310Y-130434785D01*
X134677310Y-130434785D02*
X134748738Y-130577642D01*
X134748738Y-130577642D02*
X134820167Y-130863357D01*
X134820167Y-130863357D02*
X134820167Y-131220500D01*
X134820167Y-131220500D02*
X134748738Y-131506214D01*
X134748738Y-131506214D02*
X134677310Y-131649071D01*
X134677310Y-131649071D02*
X134605881Y-131720500D01*
X134605881Y-131720500D02*
X134463024Y-131791928D01*
X134463024Y-131791928D02*
X134320167Y-131791928D01*
X134320167Y-131791928D02*
X134177310Y-131720500D01*
X134177310Y-131720500D02*
X134105881Y-131649071D01*
X134105881Y-131649071D02*
X134034452Y-131506214D01*
X134034452Y-131506214D02*
X133963024Y-131220500D01*
X133963024Y-131220500D02*
X133963024Y-130863357D01*
X133963024Y-130863357D02*
X134034452Y-130577642D01*
X134034452Y-130577642D02*
X134105881Y-130434785D01*
X134105881Y-130434785D02*
X134177310Y-130363357D01*
X134177310Y-130363357D02*
X134320167Y-130291928D01*
D10*
D11*
X90007200Y-132505800D02*
X198007200Y-132505800D01*
D10*
D11*
X91463026Y-134591928D02*
X91463026Y-133091928D01*
X92320169Y-134591928D02*
X91677312Y-133734785D01*
X92320169Y-133091928D02*
X91463026Y-133949071D01*
X92963026Y-134591928D02*
X92963026Y-133591928D01*
X92963026Y-133091928D02*
X92891598Y-133163357D01*
X92891598Y-133163357D02*
X92963026Y-133234785D01*
X92963026Y-133234785D02*
X93034455Y-133163357D01*
X93034455Y-133163357D02*
X92963026Y-133091928D01*
X92963026Y-133091928D02*
X92963026Y-133234785D01*
X94534455Y-134449071D02*
X94463027Y-134520500D01*
X94463027Y-134520500D02*
X94248741Y-134591928D01*
X94248741Y-134591928D02*
X94105884Y-134591928D01*
X94105884Y-134591928D02*
X93891598Y-134520500D01*
X93891598Y-134520500D02*
X93748741Y-134377642D01*
X93748741Y-134377642D02*
X93677312Y-134234785D01*
X93677312Y-134234785D02*
X93605884Y-133949071D01*
X93605884Y-133949071D02*
X93605884Y-133734785D01*
X93605884Y-133734785D02*
X93677312Y-133449071D01*
X93677312Y-133449071D02*
X93748741Y-133306214D01*
X93748741Y-133306214D02*
X93891598Y-133163357D01*
X93891598Y-133163357D02*
X94105884Y-133091928D01*
X94105884Y-133091928D02*
X94248741Y-133091928D01*
X94248741Y-133091928D02*
X94463027Y-133163357D01*
X94463027Y-133163357D02*
X94534455Y-133234785D01*
X95820170Y-134591928D02*
X95820170Y-133806214D01*
X95820170Y-133806214D02*
X95748741Y-133663357D01*
X95748741Y-133663357D02*
X95605884Y-133591928D01*
X95605884Y-133591928D02*
X95320170Y-133591928D01*
X95320170Y-133591928D02*
X95177312Y-133663357D01*
X95820170Y-134520500D02*
X95677312Y-134591928D01*
X95677312Y-134591928D02*
X95320170Y-134591928D01*
X95320170Y-134591928D02*
X95177312Y-134520500D01*
X95177312Y-134520500D02*
X95105884Y-134377642D01*
X95105884Y-134377642D02*
X95105884Y-134234785D01*
X95105884Y-134234785D02*
X95177312Y-134091928D01*
X95177312Y-134091928D02*
X95320170Y-134020500D01*
X95320170Y-134020500D02*
X95677312Y-134020500D01*
X95677312Y-134020500D02*
X95820170Y-133949071D01*
X97177313Y-134591928D02*
X97177313Y-133091928D01*
X97177313Y-134520500D02*
X97034455Y-134591928D01*
X97034455Y-134591928D02*
X96748741Y-134591928D01*
X96748741Y-134591928D02*
X96605884Y-134520500D01*
X96605884Y-134520500D02*
X96534455Y-134449071D01*
X96534455Y-134449071D02*
X96463027Y-134306214D01*
X96463027Y-134306214D02*
X96463027Y-133877642D01*
X96463027Y-133877642D02*
X96534455Y-133734785D01*
X96534455Y-133734785D02*
X96605884Y-133663357D01*
X96605884Y-133663357D02*
X96748741Y-133591928D01*
X96748741Y-133591928D02*
X97034455Y-133591928D01*
X97034455Y-133591928D02*
X97177313Y-133663357D01*
X99034455Y-133806214D02*
X99534455Y-133806214D01*
X99748741Y-134591928D02*
X99034455Y-134591928D01*
X99034455Y-134591928D02*
X99034455Y-133091928D01*
X99034455Y-133091928D02*
X99748741Y-133091928D01*
X100391598Y-134449071D02*
X100463027Y-134520500D01*
X100463027Y-134520500D02*
X100391598Y-134591928D01*
X100391598Y-134591928D02*
X100320170Y-134520500D01*
X100320170Y-134520500D02*
X100391598Y-134449071D01*
X100391598Y-134449071D02*
X100391598Y-134591928D01*
X101105884Y-134591928D02*
X101105884Y-133091928D01*
X101105884Y-133091928D02*
X101463027Y-133091928D01*
X101463027Y-133091928D02*
X101677313Y-133163357D01*
X101677313Y-133163357D02*
X101820170Y-133306214D01*
X101820170Y-133306214D02*
X101891599Y-133449071D01*
X101891599Y-133449071D02*
X101963027Y-133734785D01*
X101963027Y-133734785D02*
X101963027Y-133949071D01*
X101963027Y-133949071D02*
X101891599Y-134234785D01*
X101891599Y-134234785D02*
X101820170Y-134377642D01*
X101820170Y-134377642D02*
X101677313Y-134520500D01*
X101677313Y-134520500D02*
X101463027Y-134591928D01*
X101463027Y-134591928D02*
X101105884Y-134591928D01*
X102605884Y-134449071D02*
X102677313Y-134520500D01*
X102677313Y-134520500D02*
X102605884Y-134591928D01*
X102605884Y-134591928D02*
X102534456Y-134520500D01*
X102534456Y-134520500D02*
X102605884Y-134449071D01*
X102605884Y-134449071D02*
X102605884Y-134591928D01*
X103248742Y-134163357D02*
X103963028Y-134163357D01*
X103105885Y-134591928D02*
X103605885Y-133091928D01*
X103605885Y-133091928D02*
X104105885Y-134591928D01*
X104605884Y-134449071D02*
X104677313Y-134520500D01*
X104677313Y-134520500D02*
X104605884Y-134591928D01*
X104605884Y-134591928D02*
X104534456Y-134520500D01*
X104534456Y-134520500D02*
X104605884Y-134449071D01*
X104605884Y-134449071D02*
X104605884Y-134591928D01*
X106677313Y-133734785D02*
X106534456Y-133663357D01*
X106534456Y-133663357D02*
X106463027Y-133591928D01*
X106463027Y-133591928D02*
X106391599Y-133449071D01*
X106391599Y-133449071D02*
X106391599Y-133377642D01*
X106391599Y-133377642D02*
X106463027Y-133234785D01*
X106463027Y-133234785D02*
X106534456Y-133163357D01*
X106534456Y-133163357D02*
X106677313Y-133091928D01*
X106677313Y-133091928D02*
X106963027Y-133091928D01*
X106963027Y-133091928D02*
X107105885Y-133163357D01*
X107105885Y-133163357D02*
X107177313Y-133234785D01*
X107177313Y-133234785D02*
X107248742Y-133377642D01*
X107248742Y-133377642D02*
X107248742Y-133449071D01*
X107248742Y-133449071D02*
X107177313Y-133591928D01*
X107177313Y-133591928D02*
X107105885Y-133663357D01*
X107105885Y-133663357D02*
X106963027Y-133734785D01*
X106963027Y-133734785D02*
X106677313Y-133734785D01*
X106677313Y-133734785D02*
X106534456Y-133806214D01*
X106534456Y-133806214D02*
X106463027Y-133877642D01*
X106463027Y-133877642D02*
X106391599Y-134020500D01*
X106391599Y-134020500D02*
X106391599Y-134306214D01*
X106391599Y-134306214D02*
X106463027Y-134449071D01*
X106463027Y-134449071D02*
X106534456Y-134520500D01*
X106534456Y-134520500D02*
X106677313Y-134591928D01*
X106677313Y-134591928D02*
X106963027Y-134591928D01*
X106963027Y-134591928D02*
X107105885Y-134520500D01*
X107105885Y-134520500D02*
X107177313Y-134449071D01*
X107177313Y-134449071D02*
X107248742Y-134306214D01*
X107248742Y-134306214D02*
X107248742Y-134020500D01*
X107248742Y-134020500D02*
X107177313Y-133877642D01*
X107177313Y-133877642D02*
X107105885Y-133806214D01*
X107105885Y-133806214D02*
X106963027Y-133734785D01*
X107891598Y-134449071D02*
X107963027Y-134520500D01*
X107963027Y-134520500D02*
X107891598Y-134591928D01*
X107891598Y-134591928D02*
X107820170Y-134520500D01*
X107820170Y-134520500D02*
X107891598Y-134449071D01*
X107891598Y-134449071D02*
X107891598Y-134591928D01*
X108891599Y-133091928D02*
X109034456Y-133091928D01*
X109034456Y-133091928D02*
X109177313Y-133163357D01*
X109177313Y-133163357D02*
X109248742Y-133234785D01*
X109248742Y-133234785D02*
X109320170Y-133377642D01*
X109320170Y-133377642D02*
X109391599Y-133663357D01*
X109391599Y-133663357D02*
X109391599Y-134020500D01*
X109391599Y-134020500D02*
X109320170Y-134306214D01*
X109320170Y-134306214D02*
X109248742Y-134449071D01*
X109248742Y-134449071D02*
X109177313Y-134520500D01*
X109177313Y-134520500D02*
X109034456Y-134591928D01*
X109034456Y-134591928D02*
X108891599Y-134591928D01*
X108891599Y-134591928D02*
X108748742Y-134520500D01*
X108748742Y-134520500D02*
X108677313Y-134449071D01*
X108677313Y-134449071D02*
X108605884Y-134306214D01*
X108605884Y-134306214D02*
X108534456Y-134020500D01*
X108534456Y-134020500D02*
X108534456Y-133663357D01*
X108534456Y-133663357D02*
X108605884Y-133377642D01*
X108605884Y-133377642D02*
X108677313Y-133234785D01*
X108677313Y-133234785D02*
X108748742Y-133163357D01*
X108748742Y-133163357D02*
X108891599Y-133091928D01*
X110034455Y-134449071D02*
X110105884Y-134520500D01*
X110105884Y-134520500D02*
X110034455Y-134591928D01*
X110034455Y-134591928D02*
X109963027Y-134520500D01*
X109963027Y-134520500D02*
X110034455Y-134449071D01*
X110034455Y-134449071D02*
X110034455Y-134591928D01*
X110605884Y-133091928D02*
X111605884Y-133091928D01*
X111605884Y-133091928D02*
X110963027Y-134591928D01*
D10*
D11*
X90007200Y-129505800D02*
X198007200Y-129505800D01*
D10*
D12*
X177418853Y-131784128D02*
X176918853Y-131069842D01*
X176561710Y-131784128D02*
X176561710Y-130284128D01*
X176561710Y-130284128D02*
X177133139Y-130284128D01*
X177133139Y-130284128D02*
X177275996Y-130355557D01*
X177275996Y-130355557D02*
X177347425Y-130426985D01*
X177347425Y-130426985D02*
X177418853Y-130569842D01*
X177418853Y-130569842D02*
X177418853Y-130784128D01*
X177418853Y-130784128D02*
X177347425Y-130926985D01*
X177347425Y-130926985D02*
X177275996Y-130998414D01*
X177275996Y-130998414D02*
X177133139Y-131069842D01*
X177133139Y-131069842D02*
X176561710Y-131069842D01*
X178633139Y-131712700D02*
X178490282Y-131784128D01*
X178490282Y-131784128D02*
X178204568Y-131784128D01*
X178204568Y-131784128D02*
X178061710Y-131712700D01*
X178061710Y-131712700D02*
X177990282Y-131569842D01*
X177990282Y-131569842D02*
X177990282Y-130998414D01*
X177990282Y-130998414D02*
X178061710Y-130855557D01*
X178061710Y-130855557D02*
X178204568Y-130784128D01*
X178204568Y-130784128D02*
X178490282Y-130784128D01*
X178490282Y-130784128D02*
X178633139Y-130855557D01*
X178633139Y-130855557D02*
X178704568Y-130998414D01*
X178704568Y-130998414D02*
X178704568Y-131141271D01*
X178704568Y-131141271D02*
X177990282Y-131284128D01*
X179204567Y-130784128D02*
X179561710Y-131784128D01*
X179561710Y-131784128D02*
X179918853Y-130784128D01*
X180490281Y-131641271D02*
X180561710Y-131712700D01*
X180561710Y-131712700D02*
X180490281Y-131784128D01*
X180490281Y-131784128D02*
X180418853Y-131712700D01*
X180418853Y-131712700D02*
X180490281Y-131641271D01*
X180490281Y-131641271D02*
X180490281Y-131784128D01*
X180490281Y-130855557D02*
X180561710Y-130926985D01*
X180561710Y-130926985D02*
X180490281Y-130998414D01*
X180490281Y-130998414D02*
X180418853Y-130926985D01*
X180418853Y-130926985D02*
X180490281Y-130855557D01*
X180490281Y-130855557D02*
X180490281Y-130998414D01*
X182204567Y-130284128D02*
X183133139Y-130284128D01*
X183133139Y-130284128D02*
X182633139Y-130855557D01*
X182633139Y-130855557D02*
X182847424Y-130855557D01*
X182847424Y-130855557D02*
X182990282Y-130926985D01*
X182990282Y-130926985D02*
X183061710Y-130998414D01*
X183061710Y-130998414D02*
X183133139Y-131141271D01*
X183133139Y-131141271D02*
X183133139Y-131498414D01*
X183133139Y-131498414D02*
X183061710Y-131641271D01*
X183061710Y-131641271D02*
X182990282Y-131712700D01*
X182990282Y-131712700D02*
X182847424Y-131784128D01*
X182847424Y-131784128D02*
X182418853Y-131784128D01*
X182418853Y-131784128D02*
X182275996Y-131712700D01*
X182275996Y-131712700D02*
X182204567Y-131641271D01*
D10*
D11*
X91391598Y-131720500D02*
X91605884Y-131791928D01*
X91605884Y-131791928D02*
X91963026Y-131791928D01*
X91963026Y-131791928D02*
X92105884Y-131720500D01*
X92105884Y-131720500D02*
X92177312Y-131649071D01*
X92177312Y-131649071D02*
X92248741Y-131506214D01*
X92248741Y-131506214D02*
X92248741Y-131363357D01*
X92248741Y-131363357D02*
X92177312Y-131220500D01*
X92177312Y-131220500D02*
X92105884Y-131149071D01*
X92105884Y-131149071D02*
X91963026Y-131077642D01*
X91963026Y-131077642D02*
X91677312Y-131006214D01*
X91677312Y-131006214D02*
X91534455Y-130934785D01*
X91534455Y-130934785D02*
X91463026Y-130863357D01*
X91463026Y-130863357D02*
X91391598Y-130720500D01*
X91391598Y-130720500D02*
X91391598Y-130577642D01*
X91391598Y-130577642D02*
X91463026Y-130434785D01*
X91463026Y-130434785D02*
X91534455Y-130363357D01*
X91534455Y-130363357D02*
X91677312Y-130291928D01*
X91677312Y-130291928D02*
X92034455Y-130291928D01*
X92034455Y-130291928D02*
X92248741Y-130363357D01*
X92891597Y-131791928D02*
X92891597Y-130791928D01*
X92891597Y-130291928D02*
X92820169Y-130363357D01*
X92820169Y-130363357D02*
X92891597Y-130434785D01*
X92891597Y-130434785D02*
X92963026Y-130363357D01*
X92963026Y-130363357D02*
X92891597Y-130291928D01*
X92891597Y-130291928D02*
X92891597Y-130434785D01*
X93463026Y-130791928D02*
X94248741Y-130791928D01*
X94248741Y-130791928D02*
X93463026Y-131791928D01*
X93463026Y-131791928D02*
X94248741Y-131791928D01*
X95391598Y-131720500D02*
X95248741Y-131791928D01*
X95248741Y-131791928D02*
X94963027Y-131791928D01*
X94963027Y-131791928D02*
X94820169Y-131720500D01*
X94820169Y-131720500D02*
X94748741Y-131577642D01*
X94748741Y-131577642D02*
X94748741Y-131006214D01*
X94748741Y-131006214D02*
X94820169Y-130863357D01*
X94820169Y-130863357D02*
X94963027Y-130791928D01*
X94963027Y-130791928D02*
X95248741Y-130791928D01*
X95248741Y-130791928D02*
X95391598Y-130863357D01*
X95391598Y-130863357D02*
X95463027Y-131006214D01*
X95463027Y-131006214D02*
X95463027Y-131149071D01*
X95463027Y-131149071D02*
X94748741Y-131291928D01*
X96105883Y-131649071D02*
X96177312Y-131720500D01*
X96177312Y-131720500D02*
X96105883Y-131791928D01*
X96105883Y-131791928D02*
X96034455Y-131720500D01*
X96034455Y-131720500D02*
X96105883Y-131649071D01*
X96105883Y-131649071D02*
X96105883Y-131791928D01*
X96105883Y-130863357D02*
X96177312Y-130934785D01*
X96177312Y-130934785D02*
X96105883Y-131006214D01*
X96105883Y-131006214D02*
X96034455Y-130934785D01*
X96034455Y-130934785D02*
X96105883Y-130863357D01*
X96105883Y-130863357D02*
X96105883Y-131006214D01*
X97891598Y-131363357D02*
X98605884Y-131363357D01*
X97748741Y-131791928D02*
X98248741Y-130291928D01*
X98248741Y-130291928D02*
X98748741Y-131791928D01*
X99963026Y-130291928D02*
X99248740Y-130291928D01*
X99248740Y-130291928D02*
X99177312Y-131006214D01*
X99177312Y-131006214D02*
X99248740Y-130934785D01*
X99248740Y-130934785D02*
X99391598Y-130863357D01*
X99391598Y-130863357D02*
X99748740Y-130863357D01*
X99748740Y-130863357D02*
X99891598Y-130934785D01*
X99891598Y-130934785D02*
X99963026Y-131006214D01*
X99963026Y-131006214D02*
X100034455Y-131149071D01*
X100034455Y-131149071D02*
X100034455Y-131506214D01*
X100034455Y-131506214D02*
X99963026Y-131649071D01*
X99963026Y-131649071D02*
X99891598Y-131720500D01*
X99891598Y-131720500D02*
X99748740Y-131791928D01*
X99748740Y-131791928D02*
X99391598Y-131791928D01*
X99391598Y-131791928D02*
X99248740Y-131720500D01*
X99248740Y-131720500D02*
X99177312Y-131649071D01*
D10*
D11*
X176463026Y-134591928D02*
X176463026Y-133091928D01*
X177820170Y-134591928D02*
X177820170Y-133091928D01*
X177820170Y-134520500D02*
X177677312Y-134591928D01*
X177677312Y-134591928D02*
X177391598Y-134591928D01*
X177391598Y-134591928D02*
X177248741Y-134520500D01*
X177248741Y-134520500D02*
X177177312Y-134449071D01*
X177177312Y-134449071D02*
X177105884Y-134306214D01*
X177105884Y-134306214D02*
X177105884Y-133877642D01*
X177105884Y-133877642D02*
X177177312Y-133734785D01*
X177177312Y-133734785D02*
X177248741Y-133663357D01*
X177248741Y-133663357D02*
X177391598Y-133591928D01*
X177391598Y-133591928D02*
X177677312Y-133591928D01*
X177677312Y-133591928D02*
X177820170Y-133663357D01*
X178534455Y-134449071D02*
X178605884Y-134520500D01*
X178605884Y-134520500D02*
X178534455Y-134591928D01*
X178534455Y-134591928D02*
X178463027Y-134520500D01*
X178463027Y-134520500D02*
X178534455Y-134449071D01*
X178534455Y-134449071D02*
X178534455Y-134591928D01*
X178534455Y-133663357D02*
X178605884Y-133734785D01*
X178605884Y-133734785D02*
X178534455Y-133806214D01*
X178534455Y-133806214D02*
X178463027Y-133734785D01*
X178463027Y-133734785D02*
X178534455Y-133663357D01*
X178534455Y-133663357D02*
X178534455Y-133806214D01*
X181177313Y-134591928D02*
X180320170Y-134591928D01*
X180748741Y-134591928D02*
X180748741Y-133091928D01*
X180748741Y-133091928D02*
X180605884Y-133306214D01*
X180605884Y-133306214D02*
X180463027Y-133449071D01*
X180463027Y-133449071D02*
X180320170Y-133520500D01*
X182891598Y-133020500D02*
X181605884Y-134949071D01*
X184177313Y-134591928D02*
X183320170Y-134591928D01*
X183748741Y-134591928D02*
X183748741Y-133091928D01*
X183748741Y-133091928D02*
X183605884Y-133306214D01*
X183605884Y-133306214D02*
X183463027Y-133449071D01*
X183463027Y-133449071D02*
X183320170Y-133520500D01*
D10*
D11*
X90007200Y-125505800D02*
X198007200Y-125505800D01*
D10*
D13*
X91698928Y-126210238D02*
X92841785Y-126210238D01*
X92020357Y-128210238D02*
X92270357Y-126210238D01*
X93258452Y-128210238D02*
X93425119Y-126876904D01*
X93508452Y-126210238D02*
X93401309Y-126305476D01*
X93401309Y-126305476D02*
X93484643Y-126400714D01*
X93484643Y-126400714D02*
X93591786Y-126305476D01*
X93591786Y-126305476D02*
X93508452Y-126210238D01*
X93508452Y-126210238D02*
X93484643Y-126400714D01*
X94091786Y-126876904D02*
X94853690Y-126876904D01*
X94460833Y-126210238D02*
X94246548Y-127924523D01*
X94246548Y-127924523D02*
X94317976Y-128115000D01*
X94317976Y-128115000D02*
X94496548Y-128210238D01*
X94496548Y-128210238D02*
X94687024Y-128210238D01*
X95639405Y-128210238D02*
X95460833Y-128115000D01*
X95460833Y-128115000D02*
X95389405Y-127924523D01*
X95389405Y-127924523D02*
X95603690Y-126210238D01*
X97175119Y-128115000D02*
X96972738Y-128210238D01*
X96972738Y-128210238D02*
X96591785Y-128210238D01*
X96591785Y-128210238D02*
X96413214Y-128115000D01*
X96413214Y-128115000D02*
X96341785Y-127924523D01*
X96341785Y-127924523D02*
X96437024Y-127162619D01*
X96437024Y-127162619D02*
X96556071Y-126972142D01*
X96556071Y-126972142D02*
X96758452Y-126876904D01*
X96758452Y-126876904D02*
X97139404Y-126876904D01*
X97139404Y-126876904D02*
X97317976Y-126972142D01*
X97317976Y-126972142D02*
X97389404Y-127162619D01*
X97389404Y-127162619D02*
X97365595Y-127353095D01*
X97365595Y-127353095D02*
X96389404Y-127543571D01*
X98139405Y-128019761D02*
X98222738Y-128115000D01*
X98222738Y-128115000D02*
X98115595Y-128210238D01*
X98115595Y-128210238D02*
X98032262Y-128115000D01*
X98032262Y-128115000D02*
X98139405Y-128019761D01*
X98139405Y-128019761D02*
X98115595Y-128210238D01*
X98270357Y-126972142D02*
X98353690Y-127067380D01*
X98353690Y-127067380D02*
X98246548Y-127162619D01*
X98246548Y-127162619D02*
X98163214Y-127067380D01*
X98163214Y-127067380D02*
X98270357Y-126972142D01*
X98270357Y-126972142D02*
X98246548Y-127162619D01*
X100567977Y-127638809D02*
X101520358Y-127638809D01*
X100306072Y-128210238D02*
X101222739Y-126210238D01*
X101222739Y-126210238D02*
X101639405Y-128210238D01*
X102282263Y-126876904D02*
X102591787Y-128210238D01*
X102591787Y-128210238D02*
X103234644Y-126876904D01*
X103829882Y-128210238D02*
X103996549Y-126876904D01*
X104079882Y-126210238D02*
X103972739Y-126305476D01*
X103972739Y-126305476D02*
X104056073Y-126400714D01*
X104056073Y-126400714D02*
X104163216Y-126305476D01*
X104163216Y-126305476D02*
X104079882Y-126210238D01*
X104079882Y-126210238D02*
X104056073Y-126400714D01*
X105067978Y-128210238D02*
X104889406Y-128115000D01*
X104889406Y-128115000D02*
X104806073Y-128019761D01*
X104806073Y-128019761D02*
X104734644Y-127829285D01*
X104734644Y-127829285D02*
X104806073Y-127257857D01*
X104806073Y-127257857D02*
X104925120Y-127067380D01*
X104925120Y-127067380D02*
X105032263Y-126972142D01*
X105032263Y-126972142D02*
X105234644Y-126876904D01*
X105234644Y-126876904D02*
X105520358Y-126876904D01*
X105520358Y-126876904D02*
X105698930Y-126972142D01*
X105698930Y-126972142D02*
X105782263Y-127067380D01*
X105782263Y-127067380D02*
X105853692Y-127257857D01*
X105853692Y-127257857D02*
X105782263Y-127829285D01*
X105782263Y-127829285D02*
X105663216Y-128019761D01*
X105663216Y-128019761D02*
X105556073Y-128115000D01*
X105556073Y-128115000D02*
X105353692Y-128210238D01*
X105353692Y-128210238D02*
X105067978Y-128210238D01*
X106758454Y-126876904D02*
X106591787Y-128210238D01*
X106734644Y-127067380D02*
X106841787Y-126972142D01*
X106841787Y-126972142D02*
X107044168Y-126876904D01*
X107044168Y-126876904D02*
X107329882Y-126876904D01*
X107329882Y-126876904D02*
X107508454Y-126972142D01*
X107508454Y-126972142D02*
X107579882Y-127162619D01*
X107579882Y-127162619D02*
X107448930Y-128210238D01*
X108401311Y-128210238D02*
X108567978Y-126876904D01*
X108651311Y-126210238D02*
X108544168Y-126305476D01*
X108544168Y-126305476D02*
X108627502Y-126400714D01*
X108627502Y-126400714D02*
X108734645Y-126305476D01*
X108734645Y-126305476D02*
X108651311Y-126210238D01*
X108651311Y-126210238D02*
X108627502Y-126400714D01*
X110222740Y-128115000D02*
X110020359Y-128210238D01*
X110020359Y-128210238D02*
X109639407Y-128210238D01*
X109639407Y-128210238D02*
X109460835Y-128115000D01*
X109460835Y-128115000D02*
X109377502Y-128019761D01*
X109377502Y-128019761D02*
X109306073Y-127829285D01*
X109306073Y-127829285D02*
X109377502Y-127257857D01*
X109377502Y-127257857D02*
X109496549Y-127067380D01*
X109496549Y-127067380D02*
X109603692Y-126972142D01*
X109603692Y-126972142D02*
X109806073Y-126876904D01*
X109806073Y-126876904D02*
X110187026Y-126876904D01*
X110187026Y-126876904D02*
X110365597Y-126972142D01*
X110984645Y-128115000D02*
X111163216Y-128210238D01*
X111163216Y-128210238D02*
X111544169Y-128210238D01*
X111544169Y-128210238D02*
X111746550Y-128115000D01*
X111746550Y-128115000D02*
X111865597Y-127924523D01*
X111865597Y-127924523D02*
X111877502Y-127829285D01*
X111877502Y-127829285D02*
X111806073Y-127638809D01*
X111806073Y-127638809D02*
X111627502Y-127543571D01*
X111627502Y-127543571D02*
X111341788Y-127543571D01*
X111341788Y-127543571D02*
X111163216Y-127448333D01*
X111163216Y-127448333D02*
X111091788Y-127257857D01*
X111091788Y-127257857D02*
X111103693Y-127162619D01*
X111103693Y-127162619D02*
X111222740Y-126972142D01*
X111222740Y-126972142D02*
X111425121Y-126876904D01*
X111425121Y-126876904D02*
X111710835Y-126876904D01*
X111710835Y-126876904D02*
X111889407Y-126972142D01*
X115008455Y-127162619D02*
X115282265Y-127257857D01*
X115282265Y-127257857D02*
X115365598Y-127353095D01*
X115365598Y-127353095D02*
X115437027Y-127543571D01*
X115437027Y-127543571D02*
X115401312Y-127829285D01*
X115401312Y-127829285D02*
X115282265Y-128019761D01*
X115282265Y-128019761D02*
X115175122Y-128115000D01*
X115175122Y-128115000D02*
X114972741Y-128210238D01*
X114972741Y-128210238D02*
X114210836Y-128210238D01*
X114210836Y-128210238D02*
X114460836Y-126210238D01*
X114460836Y-126210238D02*
X115127503Y-126210238D01*
X115127503Y-126210238D02*
X115306074Y-126305476D01*
X115306074Y-126305476D02*
X115389408Y-126400714D01*
X115389408Y-126400714D02*
X115460836Y-126591190D01*
X115460836Y-126591190D02*
X115437027Y-126781666D01*
X115437027Y-126781666D02*
X115317979Y-126972142D01*
X115317979Y-126972142D02*
X115210836Y-127067380D01*
X115210836Y-127067380D02*
X115008455Y-127162619D01*
X115008455Y-127162619D02*
X114341789Y-127162619D01*
X116496551Y-128210238D02*
X116317979Y-128115000D01*
X116317979Y-128115000D02*
X116234646Y-128019761D01*
X116234646Y-128019761D02*
X116163217Y-127829285D01*
X116163217Y-127829285D02*
X116234646Y-127257857D01*
X116234646Y-127257857D02*
X116353693Y-127067380D01*
X116353693Y-127067380D02*
X116460836Y-126972142D01*
X116460836Y-126972142D02*
X116663217Y-126876904D01*
X116663217Y-126876904D02*
X116948931Y-126876904D01*
X116948931Y-126876904D02*
X117127503Y-126972142D01*
X117127503Y-126972142D02*
X117210836Y-127067380D01*
X117210836Y-127067380D02*
X117282265Y-127257857D01*
X117282265Y-127257857D02*
X117210836Y-127829285D01*
X117210836Y-127829285D02*
X117091789Y-128019761D01*
X117091789Y-128019761D02*
X116984646Y-128115000D01*
X116984646Y-128115000D02*
X116782265Y-128210238D01*
X116782265Y-128210238D02*
X116496551Y-128210238D01*
X118877503Y-128210238D02*
X119008455Y-127162619D01*
X119008455Y-127162619D02*
X118937027Y-126972142D01*
X118937027Y-126972142D02*
X118758455Y-126876904D01*
X118758455Y-126876904D02*
X118377503Y-126876904D01*
X118377503Y-126876904D02*
X118175122Y-126972142D01*
X118889408Y-128115000D02*
X118687027Y-128210238D01*
X118687027Y-128210238D02*
X118210836Y-128210238D01*
X118210836Y-128210238D02*
X118032265Y-128115000D01*
X118032265Y-128115000D02*
X117960836Y-127924523D01*
X117960836Y-127924523D02*
X117984646Y-127734047D01*
X117984646Y-127734047D02*
X118103694Y-127543571D01*
X118103694Y-127543571D02*
X118306075Y-127448333D01*
X118306075Y-127448333D02*
X118782265Y-127448333D01*
X118782265Y-127448333D02*
X118984646Y-127353095D01*
X119829884Y-128210238D02*
X119996551Y-126876904D01*
X119948932Y-127257857D02*
X120067979Y-127067380D01*
X120067979Y-127067380D02*
X120175122Y-126972142D01*
X120175122Y-126972142D02*
X120377503Y-126876904D01*
X120377503Y-126876904D02*
X120567979Y-126876904D01*
X121925122Y-128210238D02*
X122175122Y-126210238D01*
X121937027Y-128115000D02*
X121734646Y-128210238D01*
X121734646Y-128210238D02*
X121353694Y-128210238D01*
X121353694Y-128210238D02*
X121175122Y-128115000D01*
X121175122Y-128115000D02*
X121091789Y-128019761D01*
X121091789Y-128019761D02*
X121020360Y-127829285D01*
X121020360Y-127829285D02*
X121091789Y-127257857D01*
X121091789Y-127257857D02*
X121210836Y-127067380D01*
X121210836Y-127067380D02*
X121317979Y-126972142D01*
X121317979Y-126972142D02*
X121520360Y-126876904D01*
X121520360Y-126876904D02*
X121901313Y-126876904D01*
X121901313Y-126876904D02*
X122079884Y-126972142D01*
D10*
D11*
X91963026Y-123606214D02*
X91463026Y-123606214D01*
X91463026Y-124391928D02*
X91463026Y-122891928D01*
X91463026Y-122891928D02*
X92177312Y-122891928D01*
X92748740Y-124391928D02*
X92748740Y-123391928D01*
X92748740Y-122891928D02*
X92677312Y-122963357D01*
X92677312Y-122963357D02*
X92748740Y-123034785D01*
X92748740Y-123034785D02*
X92820169Y-122963357D01*
X92820169Y-122963357D02*
X92748740Y-122891928D01*
X92748740Y-122891928D02*
X92748740Y-123034785D01*
X93677312Y-124391928D02*
X93534455Y-124320500D01*
X93534455Y-124320500D02*
X93463026Y-124177642D01*
X93463026Y-124177642D02*
X93463026Y-122891928D01*
X94820169Y-124320500D02*
X94677312Y-124391928D01*
X94677312Y-124391928D02*
X94391598Y-124391928D01*
X94391598Y-124391928D02*
X94248740Y-124320500D01*
X94248740Y-124320500D02*
X94177312Y-124177642D01*
X94177312Y-124177642D02*
X94177312Y-123606214D01*
X94177312Y-123606214D02*
X94248740Y-123463357D01*
X94248740Y-123463357D02*
X94391598Y-123391928D01*
X94391598Y-123391928D02*
X94677312Y-123391928D01*
X94677312Y-123391928D02*
X94820169Y-123463357D01*
X94820169Y-123463357D02*
X94891598Y-123606214D01*
X94891598Y-123606214D02*
X94891598Y-123749071D01*
X94891598Y-123749071D02*
X94177312Y-123891928D01*
X95534454Y-124249071D02*
X95605883Y-124320500D01*
X95605883Y-124320500D02*
X95534454Y-124391928D01*
X95534454Y-124391928D02*
X95463026Y-124320500D01*
X95463026Y-124320500D02*
X95534454Y-124249071D01*
X95534454Y-124249071D02*
X95534454Y-124391928D01*
X95534454Y-123463357D02*
X95605883Y-123534785D01*
X95605883Y-123534785D02*
X95534454Y-123606214D01*
X95534454Y-123606214D02*
X95463026Y-123534785D01*
X95463026Y-123534785D02*
X95534454Y-123463357D01*
X95534454Y-123463357D02*
X95534454Y-123606214D01*
X97320169Y-123963357D02*
X98034455Y-123963357D01*
X97177312Y-124391928D02*
X97677312Y-122891928D01*
X97677312Y-122891928D02*
X98177312Y-124391928D01*
X98534454Y-123391928D02*
X98891597Y-124391928D01*
X98891597Y-124391928D02*
X99248740Y-123391928D01*
X99820168Y-124391928D02*
X99820168Y-123391928D01*
X99820168Y-122891928D02*
X99748740Y-122963357D01*
X99748740Y-122963357D02*
X99820168Y-123034785D01*
X99820168Y-123034785D02*
X99891597Y-122963357D01*
X99891597Y-122963357D02*
X99820168Y-122891928D01*
X99820168Y-122891928D02*
X99820168Y-123034785D01*
X100748740Y-124391928D02*
X100605883Y-124320500D01*
X100605883Y-124320500D02*
X100534454Y-124249071D01*
X100534454Y-124249071D02*
X100463026Y-124106214D01*
X100463026Y-124106214D02*
X100463026Y-123677642D01*
X100463026Y-123677642D02*
X100534454Y-123534785D01*
X100534454Y-123534785D02*
X100605883Y-123463357D01*
X100605883Y-123463357D02*
X100748740Y-123391928D01*
X100748740Y-123391928D02*
X100963026Y-123391928D01*
X100963026Y-123391928D02*
X101105883Y-123463357D01*
X101105883Y-123463357D02*
X101177312Y-123534785D01*
X101177312Y-123534785D02*
X101248740Y-123677642D01*
X101248740Y-123677642D02*
X101248740Y-124106214D01*
X101248740Y-124106214D02*
X101177312Y-124249071D01*
X101177312Y-124249071D02*
X101105883Y-124320500D01*
X101105883Y-124320500D02*
X100963026Y-124391928D01*
X100963026Y-124391928D02*
X100748740Y-124391928D01*
X101891597Y-123391928D02*
X101891597Y-124391928D01*
X101891597Y-123534785D02*
X101963026Y-123463357D01*
X101963026Y-123463357D02*
X102105883Y-123391928D01*
X102105883Y-123391928D02*
X102320169Y-123391928D01*
X102320169Y-123391928D02*
X102463026Y-123463357D01*
X102463026Y-123463357D02*
X102534455Y-123606214D01*
X102534455Y-123606214D02*
X102534455Y-124391928D01*
X103248740Y-124391928D02*
X103248740Y-123391928D01*
X103248740Y-122891928D02*
X103177312Y-122963357D01*
X103177312Y-122963357D02*
X103248740Y-123034785D01*
X103248740Y-123034785D02*
X103320169Y-122963357D01*
X103320169Y-122963357D02*
X103248740Y-122891928D01*
X103248740Y-122891928D02*
X103248740Y-123034785D01*
X104605884Y-124320500D02*
X104463026Y-124391928D01*
X104463026Y-124391928D02*
X104177312Y-124391928D01*
X104177312Y-124391928D02*
X104034455Y-124320500D01*
X104034455Y-124320500D02*
X103963026Y-124249071D01*
X103963026Y-124249071D02*
X103891598Y-124106214D01*
X103891598Y-124106214D02*
X103891598Y-123677642D01*
X103891598Y-123677642D02*
X103963026Y-123534785D01*
X103963026Y-123534785D02*
X104034455Y-123463357D01*
X104034455Y-123463357D02*
X104177312Y-123391928D01*
X104177312Y-123391928D02*
X104463026Y-123391928D01*
X104463026Y-123391928D02*
X104605884Y-123463357D01*
X105177312Y-124320500D02*
X105320169Y-124391928D01*
X105320169Y-124391928D02*
X105605883Y-124391928D01*
X105605883Y-124391928D02*
X105748740Y-124320500D01*
X105748740Y-124320500D02*
X105820169Y-124177642D01*
X105820169Y-124177642D02*
X105820169Y-124106214D01*
X105820169Y-124106214D02*
X105748740Y-123963357D01*
X105748740Y-123963357D02*
X105605883Y-123891928D01*
X105605883Y-123891928D02*
X105391598Y-123891928D01*
X105391598Y-123891928D02*
X105248740Y-123820500D01*
X105248740Y-123820500D02*
X105177312Y-123677642D01*
X105177312Y-123677642D02*
X105177312Y-123606214D01*
X105177312Y-123606214D02*
X105248740Y-123463357D01*
X105248740Y-123463357D02*
X105391598Y-123391928D01*
X105391598Y-123391928D02*
X105605883Y-123391928D01*
X105605883Y-123391928D02*
X105748740Y-123463357D01*
X107605883Y-124391928D02*
X107605883Y-122891928D01*
X108320169Y-123391928D02*
X108320169Y-124391928D01*
X108320169Y-123534785D02*
X108391598Y-123463357D01*
X108391598Y-123463357D02*
X108534455Y-123391928D01*
X108534455Y-123391928D02*
X108748741Y-123391928D01*
X108748741Y-123391928D02*
X108891598Y-123463357D01*
X108891598Y-123463357D02*
X108963027Y-123606214D01*
X108963027Y-123606214D02*
X108963027Y-124391928D01*
X109605884Y-124320500D02*
X109748741Y-124391928D01*
X109748741Y-124391928D02*
X110034455Y-124391928D01*
X110034455Y-124391928D02*
X110177312Y-124320500D01*
X110177312Y-124320500D02*
X110248741Y-124177642D01*
X110248741Y-124177642D02*
X110248741Y-124106214D01*
X110248741Y-124106214D02*
X110177312Y-123963357D01*
X110177312Y-123963357D02*
X110034455Y-123891928D01*
X110034455Y-123891928D02*
X109820170Y-123891928D01*
X109820170Y-123891928D02*
X109677312Y-123820500D01*
X109677312Y-123820500D02*
X109605884Y-123677642D01*
X109605884Y-123677642D02*
X109605884Y-123606214D01*
X109605884Y-123606214D02*
X109677312Y-123463357D01*
X109677312Y-123463357D02*
X109820170Y-123391928D01*
X109820170Y-123391928D02*
X110034455Y-123391928D01*
X110034455Y-123391928D02*
X110177312Y-123463357D01*
X110677313Y-123391928D02*
X111248741Y-123391928D01*
X110891598Y-122891928D02*
X110891598Y-124177642D01*
X110891598Y-124177642D02*
X110963027Y-124320500D01*
X110963027Y-124320500D02*
X111105884Y-124391928D01*
X111105884Y-124391928D02*
X111248741Y-124391928D01*
X111748741Y-124391928D02*
X111748741Y-123391928D01*
X111748741Y-123677642D02*
X111820170Y-123534785D01*
X111820170Y-123534785D02*
X111891599Y-123463357D01*
X111891599Y-123463357D02*
X112034456Y-123391928D01*
X112034456Y-123391928D02*
X112177313Y-123391928D01*
X113320170Y-123391928D02*
X113320170Y-124391928D01*
X112677312Y-123391928D02*
X112677312Y-124177642D01*
X112677312Y-124177642D02*
X112748741Y-124320500D01*
X112748741Y-124320500D02*
X112891598Y-124391928D01*
X112891598Y-124391928D02*
X113105884Y-124391928D01*
X113105884Y-124391928D02*
X113248741Y-124320500D01*
X113248741Y-124320500D02*
X113320170Y-124249071D01*
X114034455Y-124391928D02*
X114034455Y-123391928D01*
X114034455Y-123534785D02*
X114105884Y-123463357D01*
X114105884Y-123463357D02*
X114248741Y-123391928D01*
X114248741Y-123391928D02*
X114463027Y-123391928D01*
X114463027Y-123391928D02*
X114605884Y-123463357D01*
X114605884Y-123463357D02*
X114677313Y-123606214D01*
X114677313Y-123606214D02*
X114677313Y-124391928D01*
X114677313Y-123606214D02*
X114748741Y-123463357D01*
X114748741Y-123463357D02*
X114891598Y-123391928D01*
X114891598Y-123391928D02*
X115105884Y-123391928D01*
X115105884Y-123391928D02*
X115248741Y-123463357D01*
X115248741Y-123463357D02*
X115320170Y-123606214D01*
X115320170Y-123606214D02*
X115320170Y-124391928D01*
X116605884Y-124320500D02*
X116463027Y-124391928D01*
X116463027Y-124391928D02*
X116177313Y-124391928D01*
X116177313Y-124391928D02*
X116034455Y-124320500D01*
X116034455Y-124320500D02*
X115963027Y-124177642D01*
X115963027Y-124177642D02*
X115963027Y-123606214D01*
X115963027Y-123606214D02*
X116034455Y-123463357D01*
X116034455Y-123463357D02*
X116177313Y-123391928D01*
X116177313Y-123391928D02*
X116463027Y-123391928D01*
X116463027Y-123391928D02*
X116605884Y-123463357D01*
X116605884Y-123463357D02*
X116677313Y-123606214D01*
X116677313Y-123606214D02*
X116677313Y-123749071D01*
X116677313Y-123749071D02*
X115963027Y-123891928D01*
X117320169Y-123391928D02*
X117320169Y-124391928D01*
X117320169Y-123534785D02*
X117391598Y-123463357D01*
X117391598Y-123463357D02*
X117534455Y-123391928D01*
X117534455Y-123391928D02*
X117748741Y-123391928D01*
X117748741Y-123391928D02*
X117891598Y-123463357D01*
X117891598Y-123463357D02*
X117963027Y-123606214D01*
X117963027Y-123606214D02*
X117963027Y-124391928D01*
X118463027Y-123391928D02*
X119034455Y-123391928D01*
X118677312Y-122891928D02*
X118677312Y-124177642D01*
X118677312Y-124177642D02*
X118748741Y-124320500D01*
X118748741Y-124320500D02*
X118891598Y-124391928D01*
X118891598Y-124391928D02*
X119034455Y-124391928D01*
X120177313Y-124391928D02*
X120177313Y-123606214D01*
X120177313Y-123606214D02*
X120105884Y-123463357D01*
X120105884Y-123463357D02*
X119963027Y-123391928D01*
X119963027Y-123391928D02*
X119677313Y-123391928D01*
X119677313Y-123391928D02*
X119534455Y-123463357D01*
X120177313Y-124320500D02*
X120034455Y-124391928D01*
X120034455Y-124391928D02*
X119677313Y-124391928D01*
X119677313Y-124391928D02*
X119534455Y-124320500D01*
X119534455Y-124320500D02*
X119463027Y-124177642D01*
X119463027Y-124177642D02*
X119463027Y-124034785D01*
X119463027Y-124034785D02*
X119534455Y-123891928D01*
X119534455Y-123891928D02*
X119677313Y-123820500D01*
X119677313Y-123820500D02*
X120034455Y-123820500D01*
X120034455Y-123820500D02*
X120177313Y-123749071D01*
X120677313Y-123391928D02*
X121248741Y-123391928D01*
X120891598Y-122891928D02*
X120891598Y-124177642D01*
X120891598Y-124177642D02*
X120963027Y-124320500D01*
X120963027Y-124320500D02*
X121105884Y-124391928D01*
X121105884Y-124391928D02*
X121248741Y-124391928D01*
X121748741Y-124391928D02*
X121748741Y-123391928D01*
X121748741Y-122891928D02*
X121677313Y-122963357D01*
X121677313Y-122963357D02*
X121748741Y-123034785D01*
X121748741Y-123034785D02*
X121820170Y-122963357D01*
X121820170Y-122963357D02*
X121748741Y-122891928D01*
X121748741Y-122891928D02*
X121748741Y-123034785D01*
X122677313Y-124391928D02*
X122534456Y-124320500D01*
X122534456Y-124320500D02*
X122463027Y-124249071D01*
X122463027Y-124249071D02*
X122391599Y-124106214D01*
X122391599Y-124106214D02*
X122391599Y-123677642D01*
X122391599Y-123677642D02*
X122463027Y-123534785D01*
X122463027Y-123534785D02*
X122534456Y-123463357D01*
X122534456Y-123463357D02*
X122677313Y-123391928D01*
X122677313Y-123391928D02*
X122891599Y-123391928D01*
X122891599Y-123391928D02*
X123034456Y-123463357D01*
X123034456Y-123463357D02*
X123105885Y-123534785D01*
X123105885Y-123534785D02*
X123177313Y-123677642D01*
X123177313Y-123677642D02*
X123177313Y-124106214D01*
X123177313Y-124106214D02*
X123105885Y-124249071D01*
X123105885Y-124249071D02*
X123034456Y-124320500D01*
X123034456Y-124320500D02*
X122891599Y-124391928D01*
X122891599Y-124391928D02*
X122677313Y-124391928D01*
X123820170Y-123391928D02*
X123820170Y-124391928D01*
X123820170Y-123534785D02*
X123891599Y-123463357D01*
X123891599Y-123463357D02*
X124034456Y-123391928D01*
X124034456Y-123391928D02*
X124248742Y-123391928D01*
X124248742Y-123391928D02*
X124391599Y-123463357D01*
X124391599Y-123463357D02*
X124463028Y-123606214D01*
X124463028Y-123606214D02*
X124463028Y-124391928D01*
X126963028Y-124391928D02*
X126963028Y-123606214D01*
X126963028Y-123606214D02*
X126891599Y-123463357D01*
X126891599Y-123463357D02*
X126748742Y-123391928D01*
X126748742Y-123391928D02*
X126463028Y-123391928D01*
X126463028Y-123391928D02*
X126320170Y-123463357D01*
X126963028Y-124320500D02*
X126820170Y-124391928D01*
X126820170Y-124391928D02*
X126463028Y-124391928D01*
X126463028Y-124391928D02*
X126320170Y-124320500D01*
X126320170Y-124320500D02*
X126248742Y-124177642D01*
X126248742Y-124177642D02*
X126248742Y-124034785D01*
X126248742Y-124034785D02*
X126320170Y-123891928D01*
X126320170Y-123891928D02*
X126463028Y-123820500D01*
X126463028Y-123820500D02*
X126820170Y-123820500D01*
X126820170Y-123820500D02*
X126963028Y-123749071D01*
X127677313Y-123391928D02*
X127677313Y-124391928D01*
X127677313Y-123534785D02*
X127748742Y-123463357D01*
X127748742Y-123463357D02*
X127891599Y-123391928D01*
X127891599Y-123391928D02*
X128105885Y-123391928D01*
X128105885Y-123391928D02*
X128248742Y-123463357D01*
X128248742Y-123463357D02*
X128320171Y-123606214D01*
X128320171Y-123606214D02*
X128320171Y-124391928D01*
X129677314Y-124391928D02*
X129677314Y-122891928D01*
X129677314Y-124320500D02*
X129534456Y-124391928D01*
X129534456Y-124391928D02*
X129248742Y-124391928D01*
X129248742Y-124391928D02*
X129105885Y-124320500D01*
X129105885Y-124320500D02*
X129034456Y-124249071D01*
X129034456Y-124249071D02*
X128963028Y-124106214D01*
X128963028Y-124106214D02*
X128963028Y-123677642D01*
X128963028Y-123677642D02*
X129034456Y-123534785D01*
X129034456Y-123534785D02*
X129105885Y-123463357D01*
X129105885Y-123463357D02*
X129248742Y-123391928D01*
X129248742Y-123391928D02*
X129534456Y-123391928D01*
X129534456Y-123391928D02*
X129677314Y-123463357D01*
X131534456Y-124391928D02*
X131534456Y-122891928D01*
X131534456Y-122891928D02*
X132034456Y-123963357D01*
X132034456Y-123963357D02*
X132534456Y-122891928D01*
X132534456Y-122891928D02*
X132534456Y-124391928D01*
X133248742Y-124391928D02*
X133248742Y-123391928D01*
X133248742Y-122891928D02*
X133177314Y-122963357D01*
X133177314Y-122963357D02*
X133248742Y-123034785D01*
X133248742Y-123034785D02*
X133320171Y-122963357D01*
X133320171Y-122963357D02*
X133248742Y-122891928D01*
X133248742Y-122891928D02*
X133248742Y-123034785D01*
X134605886Y-124320500D02*
X134463028Y-124391928D01*
X134463028Y-124391928D02*
X134177314Y-124391928D01*
X134177314Y-124391928D02*
X134034457Y-124320500D01*
X134034457Y-124320500D02*
X133963028Y-124249071D01*
X133963028Y-124249071D02*
X133891600Y-124106214D01*
X133891600Y-124106214D02*
X133891600Y-123677642D01*
X133891600Y-123677642D02*
X133963028Y-123534785D01*
X133963028Y-123534785D02*
X134034457Y-123463357D01*
X134034457Y-123463357D02*
X134177314Y-123391928D01*
X134177314Y-123391928D02*
X134463028Y-123391928D01*
X134463028Y-123391928D02*
X134605886Y-123463357D01*
X135248742Y-124391928D02*
X135248742Y-123391928D01*
X135248742Y-123677642D02*
X135320171Y-123534785D01*
X135320171Y-123534785D02*
X135391600Y-123463357D01*
X135391600Y-123463357D02*
X135534457Y-123391928D01*
X135534457Y-123391928D02*
X135677314Y-123391928D01*
X136391599Y-124391928D02*
X136248742Y-124320500D01*
X136248742Y-124320500D02*
X136177313Y-124249071D01*
X136177313Y-124249071D02*
X136105885Y-124106214D01*
X136105885Y-124106214D02*
X136105885Y-123677642D01*
X136105885Y-123677642D02*
X136177313Y-123534785D01*
X136177313Y-123534785D02*
X136248742Y-123463357D01*
X136248742Y-123463357D02*
X136391599Y-123391928D01*
X136391599Y-123391928D02*
X136605885Y-123391928D01*
X136605885Y-123391928D02*
X136748742Y-123463357D01*
X136748742Y-123463357D02*
X136820171Y-123534785D01*
X136820171Y-123534785D02*
X136891599Y-123677642D01*
X136891599Y-123677642D02*
X136891599Y-124106214D01*
X136891599Y-124106214D02*
X136820171Y-124249071D01*
X136820171Y-124249071D02*
X136748742Y-124320500D01*
X136748742Y-124320500D02*
X136605885Y-124391928D01*
X136605885Y-124391928D02*
X136391599Y-124391928D01*
X138177314Y-124320500D02*
X138034456Y-124391928D01*
X138034456Y-124391928D02*
X137748742Y-124391928D01*
X137748742Y-124391928D02*
X137605885Y-124320500D01*
X137605885Y-124320500D02*
X137534456Y-124249071D01*
X137534456Y-124249071D02*
X137463028Y-124106214D01*
X137463028Y-124106214D02*
X137463028Y-123677642D01*
X137463028Y-123677642D02*
X137534456Y-123534785D01*
X137534456Y-123534785D02*
X137605885Y-123463357D01*
X137605885Y-123463357D02*
X137748742Y-123391928D01*
X137748742Y-123391928D02*
X138034456Y-123391928D01*
X138034456Y-123391928D02*
X138177314Y-123463357D01*
X139034456Y-124391928D02*
X138891599Y-124320500D01*
X138891599Y-124320500D02*
X138820170Y-124249071D01*
X138820170Y-124249071D02*
X138748742Y-124106214D01*
X138748742Y-124106214D02*
X138748742Y-123677642D01*
X138748742Y-123677642D02*
X138820170Y-123534785D01*
X138820170Y-123534785D02*
X138891599Y-123463357D01*
X138891599Y-123463357D02*
X139034456Y-123391928D01*
X139034456Y-123391928D02*
X139248742Y-123391928D01*
X139248742Y-123391928D02*
X139391599Y-123463357D01*
X139391599Y-123463357D02*
X139463028Y-123534785D01*
X139463028Y-123534785D02*
X139534456Y-123677642D01*
X139534456Y-123677642D02*
X139534456Y-124106214D01*
X139534456Y-124106214D02*
X139463028Y-124249071D01*
X139463028Y-124249071D02*
X139391599Y-124320500D01*
X139391599Y-124320500D02*
X139248742Y-124391928D01*
X139248742Y-124391928D02*
X139034456Y-124391928D01*
X140177313Y-123391928D02*
X140177313Y-124391928D01*
X140177313Y-123534785D02*
X140248742Y-123463357D01*
X140248742Y-123463357D02*
X140391599Y-123391928D01*
X140391599Y-123391928D02*
X140605885Y-123391928D01*
X140605885Y-123391928D02*
X140748742Y-123463357D01*
X140748742Y-123463357D02*
X140820171Y-123606214D01*
X140820171Y-123606214D02*
X140820171Y-124391928D01*
X141320171Y-123391928D02*
X141891599Y-123391928D01*
X141534456Y-122891928D02*
X141534456Y-124177642D01*
X141534456Y-124177642D02*
X141605885Y-124320500D01*
X141605885Y-124320500D02*
X141748742Y-124391928D01*
X141748742Y-124391928D02*
X141891599Y-124391928D01*
X142391599Y-124391928D02*
X142391599Y-123391928D01*
X142391599Y-123677642D02*
X142463028Y-123534785D01*
X142463028Y-123534785D02*
X142534457Y-123463357D01*
X142534457Y-123463357D02*
X142677314Y-123391928D01*
X142677314Y-123391928D02*
X142820171Y-123391928D01*
X143534456Y-124391928D02*
X143391599Y-124320500D01*
X143391599Y-124320500D02*
X143320170Y-124249071D01*
X143320170Y-124249071D02*
X143248742Y-124106214D01*
X143248742Y-124106214D02*
X143248742Y-123677642D01*
X143248742Y-123677642D02*
X143320170Y-123534785D01*
X143320170Y-123534785D02*
X143391599Y-123463357D01*
X143391599Y-123463357D02*
X143534456Y-123391928D01*
X143534456Y-123391928D02*
X143748742Y-123391928D01*
X143748742Y-123391928D02*
X143891599Y-123463357D01*
X143891599Y-123463357D02*
X143963028Y-123534785D01*
X143963028Y-123534785D02*
X144034456Y-123677642D01*
X144034456Y-123677642D02*
X144034456Y-124106214D01*
X144034456Y-124106214D02*
X143963028Y-124249071D01*
X143963028Y-124249071D02*
X143891599Y-124320500D01*
X143891599Y-124320500D02*
X143748742Y-124391928D01*
X143748742Y-124391928D02*
X143534456Y-124391928D01*
X144891599Y-124391928D02*
X144748742Y-124320500D01*
X144748742Y-124320500D02*
X144677313Y-124177642D01*
X144677313Y-124177642D02*
X144677313Y-122891928D01*
X145677313Y-124391928D02*
X145534456Y-124320500D01*
X145534456Y-124320500D02*
X145463027Y-124177642D01*
X145463027Y-124177642D02*
X145463027Y-122891928D01*
X146820170Y-124320500D02*
X146677313Y-124391928D01*
X146677313Y-124391928D02*
X146391599Y-124391928D01*
X146391599Y-124391928D02*
X146248741Y-124320500D01*
X146248741Y-124320500D02*
X146177313Y-124177642D01*
X146177313Y-124177642D02*
X146177313Y-123606214D01*
X146177313Y-123606214D02*
X146248741Y-123463357D01*
X146248741Y-123463357D02*
X146391599Y-123391928D01*
X146391599Y-123391928D02*
X146677313Y-123391928D01*
X146677313Y-123391928D02*
X146820170Y-123463357D01*
X146820170Y-123463357D02*
X146891599Y-123606214D01*
X146891599Y-123606214D02*
X146891599Y-123749071D01*
X146891599Y-123749071D02*
X146177313Y-123891928D01*
X147534455Y-124391928D02*
X147534455Y-123391928D01*
X147534455Y-123677642D02*
X147605884Y-123534785D01*
X147605884Y-123534785D02*
X147677313Y-123463357D01*
X147677313Y-123463357D02*
X147820170Y-123391928D01*
X147820170Y-123391928D02*
X147963027Y-123391928D01*
X150105883Y-123606214D02*
X150320169Y-123677642D01*
X150320169Y-123677642D02*
X150391598Y-123749071D01*
X150391598Y-123749071D02*
X150463026Y-123891928D01*
X150463026Y-123891928D02*
X150463026Y-124106214D01*
X150463026Y-124106214D02*
X150391598Y-124249071D01*
X150391598Y-124249071D02*
X150320169Y-124320500D01*
X150320169Y-124320500D02*
X150177312Y-124391928D01*
X150177312Y-124391928D02*
X149605883Y-124391928D01*
X149605883Y-124391928D02*
X149605883Y-122891928D01*
X149605883Y-122891928D02*
X150105883Y-122891928D01*
X150105883Y-122891928D02*
X150248741Y-122963357D01*
X150248741Y-122963357D02*
X150320169Y-123034785D01*
X150320169Y-123034785D02*
X150391598Y-123177642D01*
X150391598Y-123177642D02*
X150391598Y-123320500D01*
X150391598Y-123320500D02*
X150320169Y-123463357D01*
X150320169Y-123463357D02*
X150248741Y-123534785D01*
X150248741Y-123534785D02*
X150105883Y-123606214D01*
X150105883Y-123606214D02*
X149605883Y-123606214D01*
X151320169Y-124391928D02*
X151177312Y-124320500D01*
X151177312Y-124320500D02*
X151105883Y-124249071D01*
X151105883Y-124249071D02*
X151034455Y-124106214D01*
X151034455Y-124106214D02*
X151034455Y-123677642D01*
X151034455Y-123677642D02*
X151105883Y-123534785D01*
X151105883Y-123534785D02*
X151177312Y-123463357D01*
X151177312Y-123463357D02*
X151320169Y-123391928D01*
X151320169Y-123391928D02*
X151534455Y-123391928D01*
X151534455Y-123391928D02*
X151677312Y-123463357D01*
X151677312Y-123463357D02*
X151748741Y-123534785D01*
X151748741Y-123534785D02*
X151820169Y-123677642D01*
X151820169Y-123677642D02*
X151820169Y-124106214D01*
X151820169Y-124106214D02*
X151748741Y-124249071D01*
X151748741Y-124249071D02*
X151677312Y-124320500D01*
X151677312Y-124320500D02*
X151534455Y-124391928D01*
X151534455Y-124391928D02*
X151320169Y-124391928D01*
X153105884Y-124391928D02*
X153105884Y-123606214D01*
X153105884Y-123606214D02*
X153034455Y-123463357D01*
X153034455Y-123463357D02*
X152891598Y-123391928D01*
X152891598Y-123391928D02*
X152605884Y-123391928D01*
X152605884Y-123391928D02*
X152463026Y-123463357D01*
X153105884Y-124320500D02*
X152963026Y-124391928D01*
X152963026Y-124391928D02*
X152605884Y-124391928D01*
X152605884Y-124391928D02*
X152463026Y-124320500D01*
X152463026Y-124320500D02*
X152391598Y-124177642D01*
X152391598Y-124177642D02*
X152391598Y-124034785D01*
X152391598Y-124034785D02*
X152463026Y-123891928D01*
X152463026Y-123891928D02*
X152605884Y-123820500D01*
X152605884Y-123820500D02*
X152963026Y-123820500D01*
X152963026Y-123820500D02*
X153105884Y-123749071D01*
X153820169Y-124391928D02*
X153820169Y-123391928D01*
X153820169Y-123677642D02*
X153891598Y-123534785D01*
X153891598Y-123534785D02*
X153963027Y-123463357D01*
X153963027Y-123463357D02*
X154105884Y-123391928D01*
X154105884Y-123391928D02*
X154248741Y-123391928D01*
X155391598Y-124391928D02*
X155391598Y-122891928D01*
X155391598Y-124320500D02*
X155248740Y-124391928D01*
X155248740Y-124391928D02*
X154963026Y-124391928D01*
X154963026Y-124391928D02*
X154820169Y-124320500D01*
X154820169Y-124320500D02*
X154748740Y-124249071D01*
X154748740Y-124249071D02*
X154677312Y-124106214D01*
X154677312Y-124106214D02*
X154677312Y-123677642D01*
X154677312Y-123677642D02*
X154748740Y-123534785D01*
X154748740Y-123534785D02*
X154820169Y-123463357D01*
X154820169Y-123463357D02*
X154963026Y-123391928D01*
X154963026Y-123391928D02*
X155248740Y-123391928D01*
X155248740Y-123391928D02*
X155391598Y-123463357D01*
X156105883Y-124249071D02*
X156177312Y-124320500D01*
X156177312Y-124320500D02*
X156105883Y-124391928D01*
X156105883Y-124391928D02*
X156034455Y-124320500D01*
X156034455Y-124320500D02*
X156105883Y-124249071D01*
X156105883Y-124249071D02*
X156105883Y-124391928D01*
X156820169Y-124391928D02*
X156820169Y-122891928D01*
X156963027Y-123820500D02*
X157391598Y-124391928D01*
X157391598Y-123391928D02*
X156820169Y-123963357D01*
X158034455Y-124391928D02*
X158034455Y-123391928D01*
X158034455Y-122891928D02*
X157963027Y-122963357D01*
X157963027Y-122963357D02*
X158034455Y-123034785D01*
X158034455Y-123034785D02*
X158105884Y-122963357D01*
X158105884Y-122963357D02*
X158034455Y-122891928D01*
X158034455Y-122891928D02*
X158034455Y-123034785D01*
X159391599Y-124320500D02*
X159248741Y-124391928D01*
X159248741Y-124391928D02*
X158963027Y-124391928D01*
X158963027Y-124391928D02*
X158820170Y-124320500D01*
X158820170Y-124320500D02*
X158748741Y-124249071D01*
X158748741Y-124249071D02*
X158677313Y-124106214D01*
X158677313Y-124106214D02*
X158677313Y-123677642D01*
X158677313Y-123677642D02*
X158748741Y-123534785D01*
X158748741Y-123534785D02*
X158820170Y-123463357D01*
X158820170Y-123463357D02*
X158963027Y-123391928D01*
X158963027Y-123391928D02*
X159248741Y-123391928D01*
X159248741Y-123391928D02*
X159391599Y-123463357D01*
X160677313Y-124391928D02*
X160677313Y-123606214D01*
X160677313Y-123606214D02*
X160605884Y-123463357D01*
X160605884Y-123463357D02*
X160463027Y-123391928D01*
X160463027Y-123391928D02*
X160177313Y-123391928D01*
X160177313Y-123391928D02*
X160034455Y-123463357D01*
X160677313Y-124320500D02*
X160534455Y-124391928D01*
X160534455Y-124391928D02*
X160177313Y-124391928D01*
X160177313Y-124391928D02*
X160034455Y-124320500D01*
X160034455Y-124320500D02*
X159963027Y-124177642D01*
X159963027Y-124177642D02*
X159963027Y-124034785D01*
X159963027Y-124034785D02*
X160034455Y-123891928D01*
X160034455Y-123891928D02*
X160177313Y-123820500D01*
X160177313Y-123820500D02*
X160534455Y-123820500D01*
X160534455Y-123820500D02*
X160677313Y-123749071D01*
X162034456Y-124391928D02*
X162034456Y-122891928D01*
X162034456Y-124320500D02*
X161891598Y-124391928D01*
X161891598Y-124391928D02*
X161605884Y-124391928D01*
X161605884Y-124391928D02*
X161463027Y-124320500D01*
X161463027Y-124320500D02*
X161391598Y-124249071D01*
X161391598Y-124249071D02*
X161320170Y-124106214D01*
X161320170Y-124106214D02*
X161320170Y-123677642D01*
X161320170Y-123677642D02*
X161391598Y-123534785D01*
X161391598Y-123534785D02*
X161463027Y-123463357D01*
X161463027Y-123463357D02*
X161605884Y-123391928D01*
X161605884Y-123391928D02*
X161891598Y-123391928D01*
X161891598Y-123391928D02*
X162034456Y-123463357D01*
X162391599Y-124534785D02*
X163534456Y-124534785D01*
X163891598Y-123391928D02*
X163891598Y-124891928D01*
X163891598Y-123463357D02*
X164034456Y-123391928D01*
X164034456Y-123391928D02*
X164320170Y-123391928D01*
X164320170Y-123391928D02*
X164463027Y-123463357D01*
X164463027Y-123463357D02*
X164534456Y-123534785D01*
X164534456Y-123534785D02*
X164605884Y-123677642D01*
X164605884Y-123677642D02*
X164605884Y-124106214D01*
X164605884Y-124106214D02*
X164534456Y-124249071D01*
X164534456Y-124249071D02*
X164463027Y-124320500D01*
X164463027Y-124320500D02*
X164320170Y-124391928D01*
X164320170Y-124391928D02*
X164034456Y-124391928D01*
X164034456Y-124391928D02*
X163891598Y-124320500D01*
X165891599Y-124320500D02*
X165748741Y-124391928D01*
X165748741Y-124391928D02*
X165463027Y-124391928D01*
X165463027Y-124391928D02*
X165320170Y-124320500D01*
X165320170Y-124320500D02*
X165248741Y-124249071D01*
X165248741Y-124249071D02*
X165177313Y-124106214D01*
X165177313Y-124106214D02*
X165177313Y-123677642D01*
X165177313Y-123677642D02*
X165248741Y-123534785D01*
X165248741Y-123534785D02*
X165320170Y-123463357D01*
X165320170Y-123463357D02*
X165463027Y-123391928D01*
X165463027Y-123391928D02*
X165748741Y-123391928D01*
X165748741Y-123391928D02*
X165891599Y-123463357D01*
X166534455Y-124391928D02*
X166534455Y-122891928D01*
X166534455Y-123463357D02*
X166677313Y-123391928D01*
X166677313Y-123391928D02*
X166963027Y-123391928D01*
X166963027Y-123391928D02*
X167105884Y-123463357D01*
X167105884Y-123463357D02*
X167177313Y-123534785D01*
X167177313Y-123534785D02*
X167248741Y-123677642D01*
X167248741Y-123677642D02*
X167248741Y-124106214D01*
X167248741Y-124106214D02*
X167177313Y-124249071D01*
X167177313Y-124249071D02*
X167105884Y-124320500D01*
X167105884Y-124320500D02*
X166963027Y-124391928D01*
X166963027Y-124391928D02*
X166677313Y-124391928D01*
X166677313Y-124391928D02*
X166534455Y-124320500D01*
D10*
D11*
X90007200Y-119505800D02*
X198007200Y-119505800D01*
D10*
D11*
X91391598Y-121620500D02*
X91605884Y-121691928D01*
X91605884Y-121691928D02*
X91963026Y-121691928D01*
X91963026Y-121691928D02*
X92105884Y-121620500D01*
X92105884Y-121620500D02*
X92177312Y-121549071D01*
X92177312Y-121549071D02*
X92248741Y-121406214D01*
X92248741Y-121406214D02*
X92248741Y-121263357D01*
X92248741Y-121263357D02*
X92177312Y-121120500D01*
X92177312Y-121120500D02*
X92105884Y-121049071D01*
X92105884Y-121049071D02*
X91963026Y-120977642D01*
X91963026Y-120977642D02*
X91677312Y-120906214D01*
X91677312Y-120906214D02*
X91534455Y-120834785D01*
X91534455Y-120834785D02*
X91463026Y-120763357D01*
X91463026Y-120763357D02*
X91391598Y-120620500D01*
X91391598Y-120620500D02*
X91391598Y-120477642D01*
X91391598Y-120477642D02*
X91463026Y-120334785D01*
X91463026Y-120334785D02*
X91534455Y-120263357D01*
X91534455Y-120263357D02*
X91677312Y-120191928D01*
X91677312Y-120191928D02*
X92034455Y-120191928D01*
X92034455Y-120191928D02*
X92248741Y-120263357D01*
X92891597Y-121691928D02*
X92891597Y-120191928D01*
X93534455Y-121691928D02*
X93534455Y-120906214D01*
X93534455Y-120906214D02*
X93463026Y-120763357D01*
X93463026Y-120763357D02*
X93320169Y-120691928D01*
X93320169Y-120691928D02*
X93105883Y-120691928D01*
X93105883Y-120691928D02*
X92963026Y-120763357D01*
X92963026Y-120763357D02*
X92891597Y-120834785D01*
X94820169Y-121620500D02*
X94677312Y-121691928D01*
X94677312Y-121691928D02*
X94391598Y-121691928D01*
X94391598Y-121691928D02*
X94248740Y-121620500D01*
X94248740Y-121620500D02*
X94177312Y-121477642D01*
X94177312Y-121477642D02*
X94177312Y-120906214D01*
X94177312Y-120906214D02*
X94248740Y-120763357D01*
X94248740Y-120763357D02*
X94391598Y-120691928D01*
X94391598Y-120691928D02*
X94677312Y-120691928D01*
X94677312Y-120691928D02*
X94820169Y-120763357D01*
X94820169Y-120763357D02*
X94891598Y-120906214D01*
X94891598Y-120906214D02*
X94891598Y-121049071D01*
X94891598Y-121049071D02*
X94177312Y-121191928D01*
X96105883Y-121620500D02*
X95963026Y-121691928D01*
X95963026Y-121691928D02*
X95677312Y-121691928D01*
X95677312Y-121691928D02*
X95534454Y-121620500D01*
X95534454Y-121620500D02*
X95463026Y-121477642D01*
X95463026Y-121477642D02*
X95463026Y-120906214D01*
X95463026Y-120906214D02*
X95534454Y-120763357D01*
X95534454Y-120763357D02*
X95677312Y-120691928D01*
X95677312Y-120691928D02*
X95963026Y-120691928D01*
X95963026Y-120691928D02*
X96105883Y-120763357D01*
X96105883Y-120763357D02*
X96177312Y-120906214D01*
X96177312Y-120906214D02*
X96177312Y-121049071D01*
X96177312Y-121049071D02*
X95463026Y-121191928D01*
X96605883Y-120691928D02*
X97177311Y-120691928D01*
X96820168Y-120191928D02*
X96820168Y-121477642D01*
X96820168Y-121477642D02*
X96891597Y-121620500D01*
X96891597Y-121620500D02*
X97034454Y-121691928D01*
X97034454Y-121691928D02*
X97177311Y-121691928D01*
X97677311Y-121549071D02*
X97748740Y-121620500D01*
X97748740Y-121620500D02*
X97677311Y-121691928D01*
X97677311Y-121691928D02*
X97605883Y-121620500D01*
X97605883Y-121620500D02*
X97677311Y-121549071D01*
X97677311Y-121549071D02*
X97677311Y-121691928D01*
X97677311Y-120763357D02*
X97748740Y-120834785D01*
X97748740Y-120834785D02*
X97677311Y-120906214D01*
X97677311Y-120906214D02*
X97605883Y-120834785D01*
X97605883Y-120834785D02*
X97677311Y-120763357D01*
X97677311Y-120763357D02*
X97677311Y-120906214D01*
D10*
D12*
X91490282Y-118255557D02*
X92204568Y-118255557D01*
X91347425Y-118684128D02*
X91847425Y-117184128D01*
X91847425Y-117184128D02*
X92347425Y-118684128D01*
X92847424Y-118684128D02*
X92847424Y-117184128D01*
X93490282Y-118255557D02*
X94204568Y-118255557D01*
X93347425Y-118684128D02*
X93847425Y-117184128D01*
X93847425Y-117184128D02*
X94347425Y-118684128D01*
X94775996Y-118255557D02*
X95490282Y-118255557D01*
X94633139Y-118684128D02*
X95133139Y-117184128D01*
X95133139Y-117184128D02*
X95633139Y-118684128D01*
X97775995Y-117898414D02*
X97275995Y-117898414D01*
X97275995Y-118684128D02*
X97275995Y-117184128D01*
X97275995Y-117184128D02*
X97990281Y-117184128D01*
X98561709Y-118684128D02*
X98561709Y-117684128D01*
X98561709Y-117969842D02*
X98633138Y-117826985D01*
X98633138Y-117826985D02*
X98704567Y-117755557D01*
X98704567Y-117755557D02*
X98847424Y-117684128D01*
X98847424Y-117684128D02*
X98990281Y-117684128D01*
X100061709Y-118612700D02*
X99918852Y-118684128D01*
X99918852Y-118684128D02*
X99633138Y-118684128D01*
X99633138Y-118684128D02*
X99490280Y-118612700D01*
X99490280Y-118612700D02*
X99418852Y-118469842D01*
X99418852Y-118469842D02*
X99418852Y-117898414D01*
X99418852Y-117898414D02*
X99490280Y-117755557D01*
X99490280Y-117755557D02*
X99633138Y-117684128D01*
X99633138Y-117684128D02*
X99918852Y-117684128D01*
X99918852Y-117684128D02*
X100061709Y-117755557D01*
X100061709Y-117755557D02*
X100133138Y-117898414D01*
X100133138Y-117898414D02*
X100133138Y-118041271D01*
X100133138Y-118041271D02*
X99418852Y-118184128D01*
X100704566Y-118612700D02*
X100847423Y-118684128D01*
X100847423Y-118684128D02*
X101133137Y-118684128D01*
X101133137Y-118684128D02*
X101275994Y-118612700D01*
X101275994Y-118612700D02*
X101347423Y-118469842D01*
X101347423Y-118469842D02*
X101347423Y-118398414D01*
X101347423Y-118398414D02*
X101275994Y-118255557D01*
X101275994Y-118255557D02*
X101133137Y-118184128D01*
X101133137Y-118184128D02*
X100918852Y-118184128D01*
X100918852Y-118184128D02*
X100775994Y-118112700D01*
X100775994Y-118112700D02*
X100704566Y-117969842D01*
X100704566Y-117969842D02*
X100704566Y-117898414D01*
X100704566Y-117898414D02*
X100775994Y-117755557D01*
X100775994Y-117755557D02*
X100918852Y-117684128D01*
X100918852Y-117684128D02*
X101133137Y-117684128D01*
X101133137Y-117684128D02*
X101275994Y-117755557D01*
X101990280Y-117684128D02*
X101990280Y-118684128D01*
X101990280Y-117826985D02*
X102061709Y-117755557D01*
X102061709Y-117755557D02*
X102204566Y-117684128D01*
X102204566Y-117684128D02*
X102418852Y-117684128D01*
X102418852Y-117684128D02*
X102561709Y-117755557D01*
X102561709Y-117755557D02*
X102633138Y-117898414D01*
X102633138Y-117898414D02*
X102633138Y-118684128D01*
X103561709Y-118684128D02*
X103418852Y-118612700D01*
X103418852Y-118612700D02*
X103347423Y-118541271D01*
X103347423Y-118541271D02*
X103275995Y-118398414D01*
X103275995Y-118398414D02*
X103275995Y-117969842D01*
X103275995Y-117969842D02*
X103347423Y-117826985D01*
X103347423Y-117826985D02*
X103418852Y-117755557D01*
X103418852Y-117755557D02*
X103561709Y-117684128D01*
X103561709Y-117684128D02*
X103775995Y-117684128D01*
X103775995Y-117684128D02*
X103918852Y-117755557D01*
X103918852Y-117755557D02*
X103990281Y-117826985D01*
X103990281Y-117826985D02*
X104061709Y-117969842D01*
X104061709Y-117969842D02*
X104061709Y-118398414D01*
X104061709Y-118398414D02*
X103990281Y-118541271D01*
X103990281Y-118541271D02*
X103918852Y-118612700D01*
X103918852Y-118612700D02*
X103775995Y-118684128D01*
X103775995Y-118684128D02*
X103561709Y-118684128D01*
X105775995Y-118612700D02*
X105990281Y-118684128D01*
X105990281Y-118684128D02*
X106347423Y-118684128D01*
X106347423Y-118684128D02*
X106490281Y-118612700D01*
X106490281Y-118612700D02*
X106561709Y-118541271D01*
X106561709Y-118541271D02*
X106633138Y-118398414D01*
X106633138Y-118398414D02*
X106633138Y-118255557D01*
X106633138Y-118255557D02*
X106561709Y-118112700D01*
X106561709Y-118112700D02*
X106490281Y-118041271D01*
X106490281Y-118041271D02*
X106347423Y-117969842D01*
X106347423Y-117969842D02*
X106061709Y-117898414D01*
X106061709Y-117898414D02*
X105918852Y-117826985D01*
X105918852Y-117826985D02*
X105847423Y-117755557D01*
X105847423Y-117755557D02*
X105775995Y-117612700D01*
X105775995Y-117612700D02*
X105775995Y-117469842D01*
X105775995Y-117469842D02*
X105847423Y-117326985D01*
X105847423Y-117326985D02*
X105918852Y-117255557D01*
X105918852Y-117255557D02*
X106061709Y-117184128D01*
X106061709Y-117184128D02*
X106418852Y-117184128D01*
X106418852Y-117184128D02*
X106633138Y-117255557D01*
X107061709Y-117684128D02*
X107633137Y-117684128D01*
X107275994Y-117184128D02*
X107275994Y-118469842D01*
X107275994Y-118469842D02*
X107347423Y-118612700D01*
X107347423Y-118612700D02*
X107490280Y-118684128D01*
X107490280Y-118684128D02*
X107633137Y-118684128D01*
X108775995Y-118684128D02*
X108775995Y-117898414D01*
X108775995Y-117898414D02*
X108704566Y-117755557D01*
X108704566Y-117755557D02*
X108561709Y-117684128D01*
X108561709Y-117684128D02*
X108275995Y-117684128D01*
X108275995Y-117684128D02*
X108133137Y-117755557D01*
X108775995Y-118612700D02*
X108633137Y-118684128D01*
X108633137Y-118684128D02*
X108275995Y-118684128D01*
X108275995Y-118684128D02*
X108133137Y-118612700D01*
X108133137Y-118612700D02*
X108061709Y-118469842D01*
X108061709Y-118469842D02*
X108061709Y-118326985D01*
X108061709Y-118326985D02*
X108133137Y-118184128D01*
X108133137Y-118184128D02*
X108275995Y-118112700D01*
X108275995Y-118112700D02*
X108633137Y-118112700D01*
X108633137Y-118112700D02*
X108775995Y-118041271D01*
X109275995Y-117684128D02*
X109847423Y-117684128D01*
X109490280Y-117184128D02*
X109490280Y-118469842D01*
X109490280Y-118469842D02*
X109561709Y-118612700D01*
X109561709Y-118612700D02*
X109704566Y-118684128D01*
X109704566Y-118684128D02*
X109847423Y-118684128D01*
X110918852Y-118612700D02*
X110775995Y-118684128D01*
X110775995Y-118684128D02*
X110490281Y-118684128D01*
X110490281Y-118684128D02*
X110347423Y-118612700D01*
X110347423Y-118612700D02*
X110275995Y-118469842D01*
X110275995Y-118469842D02*
X110275995Y-117898414D01*
X110275995Y-117898414D02*
X110347423Y-117755557D01*
X110347423Y-117755557D02*
X110490281Y-117684128D01*
X110490281Y-117684128D02*
X110775995Y-117684128D01*
X110775995Y-117684128D02*
X110918852Y-117755557D01*
X110918852Y-117755557D02*
X110990281Y-117898414D01*
X110990281Y-117898414D02*
X110990281Y-118041271D01*
X110990281Y-118041271D02*
X110275995Y-118184128D01*
D10*
D11*
X91391598Y-115263357D02*
X92105884Y-115263357D01*
X91248741Y-115691928D02*
X91748741Y-114191928D01*
X91748741Y-114191928D02*
X92248741Y-115691928D01*
X93391598Y-114691928D02*
X93391598Y-115691928D01*
X92748740Y-114691928D02*
X92748740Y-115477642D01*
X92748740Y-115477642D02*
X92820169Y-115620500D01*
X92820169Y-115620500D02*
X92963026Y-115691928D01*
X92963026Y-115691928D02*
X93177312Y-115691928D01*
X93177312Y-115691928D02*
X93320169Y-115620500D01*
X93320169Y-115620500D02*
X93391598Y-115549071D01*
X93891598Y-114691928D02*
X94463026Y-114691928D01*
X94105883Y-114191928D02*
X94105883Y-115477642D01*
X94105883Y-115477642D02*
X94177312Y-115620500D01*
X94177312Y-115620500D02*
X94320169Y-115691928D01*
X94320169Y-115691928D02*
X94463026Y-115691928D01*
X94963026Y-115691928D02*
X94963026Y-114191928D01*
X95605884Y-115691928D02*
X95605884Y-114906214D01*
X95605884Y-114906214D02*
X95534455Y-114763357D01*
X95534455Y-114763357D02*
X95391598Y-114691928D01*
X95391598Y-114691928D02*
X95177312Y-114691928D01*
X95177312Y-114691928D02*
X95034455Y-114763357D01*
X95034455Y-114763357D02*
X94963026Y-114834785D01*
X96534455Y-115691928D02*
X96391598Y-115620500D01*
X96391598Y-115620500D02*
X96320169Y-115549071D01*
X96320169Y-115549071D02*
X96248741Y-115406214D01*
X96248741Y-115406214D02*
X96248741Y-114977642D01*
X96248741Y-114977642D02*
X96320169Y-114834785D01*
X96320169Y-114834785D02*
X96391598Y-114763357D01*
X96391598Y-114763357D02*
X96534455Y-114691928D01*
X96534455Y-114691928D02*
X96748741Y-114691928D01*
X96748741Y-114691928D02*
X96891598Y-114763357D01*
X96891598Y-114763357D02*
X96963027Y-114834785D01*
X96963027Y-114834785D02*
X97034455Y-114977642D01*
X97034455Y-114977642D02*
X97034455Y-115406214D01*
X97034455Y-115406214D02*
X96963027Y-115549071D01*
X96963027Y-115549071D02*
X96891598Y-115620500D01*
X96891598Y-115620500D02*
X96748741Y-115691928D01*
X96748741Y-115691928D02*
X96534455Y-115691928D01*
X97677312Y-115691928D02*
X97677312Y-114691928D01*
X97677312Y-114977642D02*
X97748741Y-114834785D01*
X97748741Y-114834785D02*
X97820170Y-114763357D01*
X97820170Y-114763357D02*
X97963027Y-114691928D01*
X97963027Y-114691928D02*
X98105884Y-114691928D01*
X98605883Y-115549071D02*
X98677312Y-115620500D01*
X98677312Y-115620500D02*
X98605883Y-115691928D01*
X98605883Y-115691928D02*
X98534455Y-115620500D01*
X98534455Y-115620500D02*
X98605883Y-115549071D01*
X98605883Y-115549071D02*
X98605883Y-115691928D01*
X98605883Y-114763357D02*
X98677312Y-114834785D01*
X98677312Y-114834785D02*
X98605883Y-114906214D01*
X98605883Y-114906214D02*
X98534455Y-114834785D01*
X98534455Y-114834785D02*
X98605883Y-114763357D01*
X98605883Y-114763357D02*
X98605883Y-114906214D01*
X101320169Y-115549071D02*
X101248741Y-115620500D01*
X101248741Y-115620500D02*
X101034455Y-115691928D01*
X101034455Y-115691928D02*
X100891598Y-115691928D01*
X100891598Y-115691928D02*
X100677312Y-115620500D01*
X100677312Y-115620500D02*
X100534455Y-115477642D01*
X100534455Y-115477642D02*
X100463026Y-115334785D01*
X100463026Y-115334785D02*
X100391598Y-115049071D01*
X100391598Y-115049071D02*
X100391598Y-114834785D01*
X100391598Y-114834785D02*
X100463026Y-114549071D01*
X100463026Y-114549071D02*
X100534455Y-114406214D01*
X100534455Y-114406214D02*
X100677312Y-114263357D01*
X100677312Y-114263357D02*
X100891598Y-114191928D01*
X100891598Y-114191928D02*
X101034455Y-114191928D01*
X101034455Y-114191928D02*
X101248741Y-114263357D01*
X101248741Y-114263357D02*
X101320169Y-114334785D01*
X102605884Y-115691928D02*
X102605884Y-114906214D01*
X102605884Y-114906214D02*
X102534455Y-114763357D01*
X102534455Y-114763357D02*
X102391598Y-114691928D01*
X102391598Y-114691928D02*
X102105884Y-114691928D01*
X102105884Y-114691928D02*
X101963026Y-114763357D01*
X102605884Y-115620500D02*
X102463026Y-115691928D01*
X102463026Y-115691928D02*
X102105884Y-115691928D01*
X102105884Y-115691928D02*
X101963026Y-115620500D01*
X101963026Y-115620500D02*
X101891598Y-115477642D01*
X101891598Y-115477642D02*
X101891598Y-115334785D01*
X101891598Y-115334785D02*
X101963026Y-115191928D01*
X101963026Y-115191928D02*
X102105884Y-115120500D01*
X102105884Y-115120500D02*
X102463026Y-115120500D01*
X102463026Y-115120500D02*
X102605884Y-115049071D01*
X103320169Y-115691928D02*
X103320169Y-114691928D01*
X103320169Y-114977642D02*
X103391598Y-114834785D01*
X103391598Y-114834785D02*
X103463027Y-114763357D01*
X103463027Y-114763357D02*
X103605884Y-114691928D01*
X103605884Y-114691928D02*
X103748741Y-114691928D01*
X104463026Y-115691928D02*
X104320169Y-115620500D01*
X104320169Y-115620500D02*
X104248740Y-115477642D01*
X104248740Y-115477642D02*
X104248740Y-114191928D01*
X105248740Y-115691928D02*
X105105883Y-115620500D01*
X105105883Y-115620500D02*
X105034454Y-115549071D01*
X105034454Y-115549071D02*
X104963026Y-115406214D01*
X104963026Y-115406214D02*
X104963026Y-114977642D01*
X104963026Y-114977642D02*
X105034454Y-114834785D01*
X105034454Y-114834785D02*
X105105883Y-114763357D01*
X105105883Y-114763357D02*
X105248740Y-114691928D01*
X105248740Y-114691928D02*
X105463026Y-114691928D01*
X105463026Y-114691928D02*
X105605883Y-114763357D01*
X105605883Y-114763357D02*
X105677312Y-114834785D01*
X105677312Y-114834785D02*
X105748740Y-114977642D01*
X105748740Y-114977642D02*
X105748740Y-115406214D01*
X105748740Y-115406214D02*
X105677312Y-115549071D01*
X105677312Y-115549071D02*
X105605883Y-115620500D01*
X105605883Y-115620500D02*
X105463026Y-115691928D01*
X105463026Y-115691928D02*
X105248740Y-115691928D01*
X106320169Y-115620500D02*
X106463026Y-115691928D01*
X106463026Y-115691928D02*
X106748740Y-115691928D01*
X106748740Y-115691928D02*
X106891597Y-115620500D01*
X106891597Y-115620500D02*
X106963026Y-115477642D01*
X106963026Y-115477642D02*
X106963026Y-115406214D01*
X106963026Y-115406214D02*
X106891597Y-115263357D01*
X106891597Y-115263357D02*
X106748740Y-115191928D01*
X106748740Y-115191928D02*
X106534455Y-115191928D01*
X106534455Y-115191928D02*
X106391597Y-115120500D01*
X106391597Y-115120500D02*
X106320169Y-114977642D01*
X106320169Y-114977642D02*
X106320169Y-114906214D01*
X106320169Y-114906214D02*
X106391597Y-114763357D01*
X106391597Y-114763357D02*
X106534455Y-114691928D01*
X106534455Y-114691928D02*
X106748740Y-114691928D01*
X106748740Y-114691928D02*
X106891597Y-114763357D01*
X109605883Y-115549071D02*
X109534455Y-115620500D01*
X109534455Y-115620500D02*
X109320169Y-115691928D01*
X109320169Y-115691928D02*
X109177312Y-115691928D01*
X109177312Y-115691928D02*
X108963026Y-115620500D01*
X108963026Y-115620500D02*
X108820169Y-115477642D01*
X108820169Y-115477642D02*
X108748740Y-115334785D01*
X108748740Y-115334785D02*
X108677312Y-115049071D01*
X108677312Y-115049071D02*
X108677312Y-114834785D01*
X108677312Y-114834785D02*
X108748740Y-114549071D01*
X108748740Y-114549071D02*
X108820169Y-114406214D01*
X108820169Y-114406214D02*
X108963026Y-114263357D01*
X108963026Y-114263357D02*
X109177312Y-114191928D01*
X109177312Y-114191928D02*
X109320169Y-114191928D01*
X109320169Y-114191928D02*
X109534455Y-114263357D01*
X109534455Y-114263357D02*
X109605883Y-114334785D01*
X110463026Y-115691928D02*
X110320169Y-115620500D01*
X110320169Y-115620500D02*
X110248740Y-115549071D01*
X110248740Y-115549071D02*
X110177312Y-115406214D01*
X110177312Y-115406214D02*
X110177312Y-114977642D01*
X110177312Y-114977642D02*
X110248740Y-114834785D01*
X110248740Y-114834785D02*
X110320169Y-114763357D01*
X110320169Y-114763357D02*
X110463026Y-114691928D01*
X110463026Y-114691928D02*
X110677312Y-114691928D01*
X110677312Y-114691928D02*
X110820169Y-114763357D01*
X110820169Y-114763357D02*
X110891598Y-114834785D01*
X110891598Y-114834785D02*
X110963026Y-114977642D01*
X110963026Y-114977642D02*
X110963026Y-115406214D01*
X110963026Y-115406214D02*
X110891598Y-115549071D01*
X110891598Y-115549071D02*
X110820169Y-115620500D01*
X110820169Y-115620500D02*
X110677312Y-115691928D01*
X110677312Y-115691928D02*
X110463026Y-115691928D01*
X111605883Y-115691928D02*
X111605883Y-114691928D01*
X111605883Y-114977642D02*
X111677312Y-114834785D01*
X111677312Y-114834785D02*
X111748741Y-114763357D01*
X111748741Y-114763357D02*
X111891598Y-114691928D01*
X111891598Y-114691928D02*
X112034455Y-114691928D01*
X112320169Y-114691928D02*
X112891597Y-114691928D01*
X112534454Y-114191928D02*
X112534454Y-115477642D01*
X112534454Y-115477642D02*
X112605883Y-115620500D01*
X112605883Y-115620500D02*
X112748740Y-115691928D01*
X112748740Y-115691928D02*
X112891597Y-115691928D01*
X113963026Y-115620500D02*
X113820169Y-115691928D01*
X113820169Y-115691928D02*
X113534455Y-115691928D01*
X113534455Y-115691928D02*
X113391597Y-115620500D01*
X113391597Y-115620500D02*
X113320169Y-115477642D01*
X113320169Y-115477642D02*
X113320169Y-114906214D01*
X113320169Y-114906214D02*
X113391597Y-114763357D01*
X113391597Y-114763357D02*
X113534455Y-114691928D01*
X113534455Y-114691928D02*
X113820169Y-114691928D01*
X113820169Y-114691928D02*
X113963026Y-114763357D01*
X113963026Y-114763357D02*
X114034455Y-114906214D01*
X114034455Y-114906214D02*
X114034455Y-115049071D01*
X114034455Y-115049071D02*
X113320169Y-115191928D01*
X114605883Y-115620500D02*
X114748740Y-115691928D01*
X114748740Y-115691928D02*
X115034454Y-115691928D01*
X115034454Y-115691928D02*
X115177311Y-115620500D01*
X115177311Y-115620500D02*
X115248740Y-115477642D01*
X115248740Y-115477642D02*
X115248740Y-115406214D01*
X115248740Y-115406214D02*
X115177311Y-115263357D01*
X115177311Y-115263357D02*
X115034454Y-115191928D01*
X115034454Y-115191928D02*
X114820169Y-115191928D01*
X114820169Y-115191928D02*
X114677311Y-115120500D01*
X114677311Y-115120500D02*
X114605883Y-114977642D01*
X114605883Y-114977642D02*
X114605883Y-114906214D01*
X114605883Y-114906214D02*
X114677311Y-114763357D01*
X114677311Y-114763357D02*
X114820169Y-114691928D01*
X114820169Y-114691928D02*
X115034454Y-114691928D01*
X115034454Y-114691928D02*
X115177311Y-114763357D01*
D10*
D11*
X91248741Y-111191928D02*
X92105884Y-111191928D01*
X91677312Y-112691928D02*
X91677312Y-111191928D01*
X92605883Y-112691928D02*
X92605883Y-111191928D01*
X93248741Y-112691928D02*
X93248741Y-111906214D01*
X93248741Y-111906214D02*
X93177312Y-111763357D01*
X93177312Y-111763357D02*
X93034455Y-111691928D01*
X93034455Y-111691928D02*
X92820169Y-111691928D01*
X92820169Y-111691928D02*
X92677312Y-111763357D01*
X92677312Y-111763357D02*
X92605883Y-111834785D01*
X94534455Y-112620500D02*
X94391598Y-112691928D01*
X94391598Y-112691928D02*
X94105884Y-112691928D01*
X94105884Y-112691928D02*
X93963026Y-112620500D01*
X93963026Y-112620500D02*
X93891598Y-112477642D01*
X93891598Y-112477642D02*
X93891598Y-111906214D01*
X93891598Y-111906214D02*
X93963026Y-111763357D01*
X93963026Y-111763357D02*
X94105884Y-111691928D01*
X94105884Y-111691928D02*
X94391598Y-111691928D01*
X94391598Y-111691928D02*
X94534455Y-111763357D01*
X94534455Y-111763357D02*
X94605884Y-111906214D01*
X94605884Y-111906214D02*
X94605884Y-112049071D01*
X94605884Y-112049071D02*
X93891598Y-112191928D01*
X96391597Y-112691928D02*
X96391597Y-111191928D01*
X96391597Y-111191928D02*
X96963026Y-111191928D01*
X96963026Y-111191928D02*
X97105883Y-111263357D01*
X97105883Y-111263357D02*
X97177312Y-111334785D01*
X97177312Y-111334785D02*
X97248740Y-111477642D01*
X97248740Y-111477642D02*
X97248740Y-111691928D01*
X97248740Y-111691928D02*
X97177312Y-111834785D01*
X97177312Y-111834785D02*
X97105883Y-111906214D01*
X97105883Y-111906214D02*
X96963026Y-111977642D01*
X96963026Y-111977642D02*
X96391597Y-111977642D01*
X97891597Y-112691928D02*
X97891597Y-111691928D01*
X97891597Y-111191928D02*
X97820169Y-111263357D01*
X97820169Y-111263357D02*
X97891597Y-111334785D01*
X97891597Y-111334785D02*
X97963026Y-111263357D01*
X97963026Y-111263357D02*
X97891597Y-111191928D01*
X97891597Y-111191928D02*
X97891597Y-111334785D01*
X99748740Y-112691928D02*
X99748740Y-111191928D01*
X99748740Y-111191928D02*
X100320169Y-111191928D01*
X100320169Y-111191928D02*
X100463026Y-111263357D01*
X100463026Y-111263357D02*
X100534455Y-111334785D01*
X100534455Y-111334785D02*
X100605883Y-111477642D01*
X100605883Y-111477642D02*
X100605883Y-111691928D01*
X100605883Y-111691928D02*
X100534455Y-111834785D01*
X100534455Y-111834785D02*
X100463026Y-111906214D01*
X100463026Y-111906214D02*
X100320169Y-111977642D01*
X100320169Y-111977642D02*
X99748740Y-111977642D01*
X101248740Y-112691928D02*
X101248740Y-111691928D01*
X101248740Y-111191928D02*
X101177312Y-111263357D01*
X101177312Y-111263357D02*
X101248740Y-111334785D01*
X101248740Y-111334785D02*
X101320169Y-111263357D01*
X101320169Y-111263357D02*
X101248740Y-111191928D01*
X101248740Y-111191928D02*
X101248740Y-111334785D01*
X102605884Y-112620500D02*
X102463026Y-112691928D01*
X102463026Y-112691928D02*
X102177312Y-112691928D01*
X102177312Y-112691928D02*
X102034455Y-112620500D01*
X102034455Y-112620500D02*
X101963026Y-112549071D01*
X101963026Y-112549071D02*
X101891598Y-112406214D01*
X101891598Y-112406214D02*
X101891598Y-111977642D01*
X101891598Y-111977642D02*
X101963026Y-111834785D01*
X101963026Y-111834785D02*
X102034455Y-111763357D01*
X102034455Y-111763357D02*
X102177312Y-111691928D01*
X102177312Y-111691928D02*
X102463026Y-111691928D01*
X102463026Y-111691928D02*
X102605884Y-111763357D01*
X103463026Y-112691928D02*
X103320169Y-112620500D01*
X103320169Y-112620500D02*
X103248740Y-112549071D01*
X103248740Y-112549071D02*
X103177312Y-112406214D01*
X103177312Y-112406214D02*
X103177312Y-111977642D01*
X103177312Y-111977642D02*
X103248740Y-111834785D01*
X103248740Y-111834785D02*
X103320169Y-111763357D01*
X103320169Y-111763357D02*
X103463026Y-111691928D01*
X103463026Y-111691928D02*
X103677312Y-111691928D01*
X103677312Y-111691928D02*
X103820169Y-111763357D01*
X103820169Y-111763357D02*
X103891598Y-111834785D01*
X103891598Y-111834785D02*
X103963026Y-111977642D01*
X103963026Y-111977642D02*
X103963026Y-112406214D01*
X103963026Y-112406214D02*
X103891598Y-112549071D01*
X103891598Y-112549071D02*
X103820169Y-112620500D01*
X103820169Y-112620500D02*
X103677312Y-112691928D01*
X103677312Y-112691928D02*
X103463026Y-112691928D01*
X106391598Y-111691928D02*
X106391598Y-112691928D01*
X105748740Y-111691928D02*
X105748740Y-112477642D01*
X105748740Y-112477642D02*
X105820169Y-112620500D01*
X105820169Y-112620500D02*
X105963026Y-112691928D01*
X105963026Y-112691928D02*
X106177312Y-112691928D01*
X106177312Y-112691928D02*
X106320169Y-112620500D01*
X106320169Y-112620500D02*
X106391598Y-112549071D01*
X107034455Y-112620500D02*
X107177312Y-112691928D01*
X107177312Y-112691928D02*
X107463026Y-112691928D01*
X107463026Y-112691928D02*
X107605883Y-112620500D01*
X107605883Y-112620500D02*
X107677312Y-112477642D01*
X107677312Y-112477642D02*
X107677312Y-112406214D01*
X107677312Y-112406214D02*
X107605883Y-112263357D01*
X107605883Y-112263357D02*
X107463026Y-112191928D01*
X107463026Y-112191928D02*
X107248741Y-112191928D01*
X107248741Y-112191928D02*
X107105883Y-112120500D01*
X107105883Y-112120500D02*
X107034455Y-111977642D01*
X107034455Y-111977642D02*
X107034455Y-111906214D01*
X107034455Y-111906214D02*
X107105883Y-111763357D01*
X107105883Y-111763357D02*
X107248741Y-111691928D01*
X107248741Y-111691928D02*
X107463026Y-111691928D01*
X107463026Y-111691928D02*
X107605883Y-111763357D01*
X108891598Y-112620500D02*
X108748741Y-112691928D01*
X108748741Y-112691928D02*
X108463027Y-112691928D01*
X108463027Y-112691928D02*
X108320169Y-112620500D01*
X108320169Y-112620500D02*
X108248741Y-112477642D01*
X108248741Y-112477642D02*
X108248741Y-111906214D01*
X108248741Y-111906214D02*
X108320169Y-111763357D01*
X108320169Y-111763357D02*
X108463027Y-111691928D01*
X108463027Y-111691928D02*
X108748741Y-111691928D01*
X108748741Y-111691928D02*
X108891598Y-111763357D01*
X108891598Y-111763357D02*
X108963027Y-111906214D01*
X108963027Y-111906214D02*
X108963027Y-112049071D01*
X108963027Y-112049071D02*
X108248741Y-112191928D01*
X109534455Y-112620500D02*
X109677312Y-112691928D01*
X109677312Y-112691928D02*
X109963026Y-112691928D01*
X109963026Y-112691928D02*
X110105883Y-112620500D01*
X110105883Y-112620500D02*
X110177312Y-112477642D01*
X110177312Y-112477642D02*
X110177312Y-112406214D01*
X110177312Y-112406214D02*
X110105883Y-112263357D01*
X110105883Y-112263357D02*
X109963026Y-112191928D01*
X109963026Y-112191928D02*
X109748741Y-112191928D01*
X109748741Y-112191928D02*
X109605883Y-112120500D01*
X109605883Y-112120500D02*
X109534455Y-111977642D01*
X109534455Y-111977642D02*
X109534455Y-111906214D01*
X109534455Y-111906214D02*
X109605883Y-111763357D01*
X109605883Y-111763357D02*
X109748741Y-111691928D01*
X109748741Y-111691928D02*
X109963026Y-111691928D01*
X109963026Y-111691928D02*
X110105883Y-111763357D01*
X111891598Y-111334785D02*
X111963026Y-111263357D01*
X111963026Y-111263357D02*
X112105884Y-111191928D01*
X112105884Y-111191928D02*
X112463026Y-111191928D01*
X112463026Y-111191928D02*
X112605884Y-111263357D01*
X112605884Y-111263357D02*
X112677312Y-111334785D01*
X112677312Y-111334785D02*
X112748741Y-111477642D01*
X112748741Y-111477642D02*
X112748741Y-111620500D01*
X112748741Y-111620500D02*
X112677312Y-111834785D01*
X112677312Y-111834785D02*
X111820169Y-112691928D01*
X111820169Y-112691928D02*
X112748741Y-112691928D01*
X113391597Y-112549071D02*
X113463026Y-112620500D01*
X113463026Y-112620500D02*
X113391597Y-112691928D01*
X113391597Y-112691928D02*
X113320169Y-112620500D01*
X113320169Y-112620500D02*
X113391597Y-112549071D01*
X113391597Y-112549071D02*
X113391597Y-112691928D01*
X114891598Y-112691928D02*
X114034455Y-112691928D01*
X114463026Y-112691928D02*
X114463026Y-111191928D01*
X114463026Y-111191928D02*
X114320169Y-111406214D01*
X114320169Y-111406214D02*
X114177312Y-111549071D01*
X114177312Y-111549071D02*
X114034455Y-111620500D01*
X116677311Y-112691928D02*
X116677311Y-111691928D01*
X116677311Y-111834785D02*
X116748740Y-111763357D01*
X116748740Y-111763357D02*
X116891597Y-111691928D01*
X116891597Y-111691928D02*
X117105883Y-111691928D01*
X117105883Y-111691928D02*
X117248740Y-111763357D01*
X117248740Y-111763357D02*
X117320169Y-111906214D01*
X117320169Y-111906214D02*
X117320169Y-112691928D01*
X117320169Y-111906214D02*
X117391597Y-111763357D01*
X117391597Y-111763357D02*
X117534454Y-111691928D01*
X117534454Y-111691928D02*
X117748740Y-111691928D01*
X117748740Y-111691928D02*
X117891597Y-111763357D01*
X117891597Y-111763357D02*
X117963026Y-111906214D01*
X117963026Y-111906214D02*
X117963026Y-112691928D01*
X118677311Y-112691928D02*
X118677311Y-111691928D01*
X118677311Y-111834785D02*
X118748740Y-111763357D01*
X118748740Y-111763357D02*
X118891597Y-111691928D01*
X118891597Y-111691928D02*
X119105883Y-111691928D01*
X119105883Y-111691928D02*
X119248740Y-111763357D01*
X119248740Y-111763357D02*
X119320169Y-111906214D01*
X119320169Y-111906214D02*
X119320169Y-112691928D01*
X119320169Y-111906214D02*
X119391597Y-111763357D01*
X119391597Y-111763357D02*
X119534454Y-111691928D01*
X119534454Y-111691928D02*
X119748740Y-111691928D01*
X119748740Y-111691928D02*
X119891597Y-111763357D01*
X119891597Y-111763357D02*
X119963026Y-111906214D01*
X119963026Y-111906214D02*
X119963026Y-112691928D01*
X121820168Y-112691928D02*
X121820168Y-111691928D01*
X121820168Y-111834785D02*
X121891597Y-111763357D01*
X121891597Y-111763357D02*
X122034454Y-111691928D01*
X122034454Y-111691928D02*
X122248740Y-111691928D01*
X122248740Y-111691928D02*
X122391597Y-111763357D01*
X122391597Y-111763357D02*
X122463026Y-111906214D01*
X122463026Y-111906214D02*
X122463026Y-112691928D01*
X122463026Y-111906214D02*
X122534454Y-111763357D01*
X122534454Y-111763357D02*
X122677311Y-111691928D01*
X122677311Y-111691928D02*
X122891597Y-111691928D01*
X122891597Y-111691928D02*
X123034454Y-111763357D01*
X123034454Y-111763357D02*
X123105883Y-111906214D01*
X123105883Y-111906214D02*
X123105883Y-112691928D01*
X124034454Y-112691928D02*
X123891597Y-112620500D01*
X123891597Y-112620500D02*
X123820168Y-112549071D01*
X123820168Y-112549071D02*
X123748740Y-112406214D01*
X123748740Y-112406214D02*
X123748740Y-111977642D01*
X123748740Y-111977642D02*
X123820168Y-111834785D01*
X123820168Y-111834785D02*
X123891597Y-111763357D01*
X123891597Y-111763357D02*
X124034454Y-111691928D01*
X124034454Y-111691928D02*
X124248740Y-111691928D01*
X124248740Y-111691928D02*
X124391597Y-111763357D01*
X124391597Y-111763357D02*
X124463026Y-111834785D01*
X124463026Y-111834785D02*
X124534454Y-111977642D01*
X124534454Y-111977642D02*
X124534454Y-112406214D01*
X124534454Y-112406214D02*
X124463026Y-112549071D01*
X124463026Y-112549071D02*
X124391597Y-112620500D01*
X124391597Y-112620500D02*
X124248740Y-112691928D01*
X124248740Y-112691928D02*
X124034454Y-112691928D01*
X125820169Y-111691928D02*
X125820169Y-112691928D01*
X125177311Y-111691928D02*
X125177311Y-112477642D01*
X125177311Y-112477642D02*
X125248740Y-112620500D01*
X125248740Y-112620500D02*
X125391597Y-112691928D01*
X125391597Y-112691928D02*
X125605883Y-112691928D01*
X125605883Y-112691928D02*
X125748740Y-112620500D01*
X125748740Y-112620500D02*
X125820169Y-112549071D01*
X126534454Y-111691928D02*
X126534454Y-112691928D01*
X126534454Y-111834785D02*
X126605883Y-111763357D01*
X126605883Y-111763357D02*
X126748740Y-111691928D01*
X126748740Y-111691928D02*
X126963026Y-111691928D01*
X126963026Y-111691928D02*
X127105883Y-111763357D01*
X127105883Y-111763357D02*
X127177312Y-111906214D01*
X127177312Y-111906214D02*
X127177312Y-112691928D01*
X127677312Y-111691928D02*
X128248740Y-111691928D01*
X127891597Y-111191928D02*
X127891597Y-112477642D01*
X127891597Y-112477642D02*
X127963026Y-112620500D01*
X127963026Y-112620500D02*
X128105883Y-112691928D01*
X128105883Y-112691928D02*
X128248740Y-112691928D01*
X128748740Y-112691928D02*
X128748740Y-111691928D01*
X128748740Y-111191928D02*
X128677312Y-111263357D01*
X128677312Y-111263357D02*
X128748740Y-111334785D01*
X128748740Y-111334785D02*
X128820169Y-111263357D01*
X128820169Y-111263357D02*
X128748740Y-111191928D01*
X128748740Y-111191928D02*
X128748740Y-111334785D01*
X129463026Y-111691928D02*
X129463026Y-112691928D01*
X129463026Y-111834785D02*
X129534455Y-111763357D01*
X129534455Y-111763357D02*
X129677312Y-111691928D01*
X129677312Y-111691928D02*
X129891598Y-111691928D01*
X129891598Y-111691928D02*
X130034455Y-111763357D01*
X130034455Y-111763357D02*
X130105884Y-111906214D01*
X130105884Y-111906214D02*
X130105884Y-112691928D01*
X131463027Y-111691928D02*
X131463027Y-112906214D01*
X131463027Y-112906214D02*
X131391598Y-113049071D01*
X131391598Y-113049071D02*
X131320169Y-113120500D01*
X131320169Y-113120500D02*
X131177312Y-113191928D01*
X131177312Y-113191928D02*
X130963027Y-113191928D01*
X130963027Y-113191928D02*
X130820169Y-113120500D01*
X131463027Y-112620500D02*
X131320169Y-112691928D01*
X131320169Y-112691928D02*
X131034455Y-112691928D01*
X131034455Y-112691928D02*
X130891598Y-112620500D01*
X130891598Y-112620500D02*
X130820169Y-112549071D01*
X130820169Y-112549071D02*
X130748741Y-112406214D01*
X130748741Y-112406214D02*
X130748741Y-111977642D01*
X130748741Y-111977642D02*
X130820169Y-111834785D01*
X130820169Y-111834785D02*
X130891598Y-111763357D01*
X130891598Y-111763357D02*
X131034455Y-111691928D01*
X131034455Y-111691928D02*
X131320169Y-111691928D01*
X131320169Y-111691928D02*
X131463027Y-111763357D01*
X133320169Y-112691928D02*
X133320169Y-111191928D01*
X133320169Y-111906214D02*
X134177312Y-111906214D01*
X134177312Y-112691928D02*
X134177312Y-111191928D01*
X135105884Y-112691928D02*
X134963027Y-112620500D01*
X134963027Y-112620500D02*
X134891598Y-112549071D01*
X134891598Y-112549071D02*
X134820170Y-112406214D01*
X134820170Y-112406214D02*
X134820170Y-111977642D01*
X134820170Y-111977642D02*
X134891598Y-111834785D01*
X134891598Y-111834785D02*
X134963027Y-111763357D01*
X134963027Y-111763357D02*
X135105884Y-111691928D01*
X135105884Y-111691928D02*
X135320170Y-111691928D01*
X135320170Y-111691928D02*
X135463027Y-111763357D01*
X135463027Y-111763357D02*
X135534456Y-111834785D01*
X135534456Y-111834785D02*
X135605884Y-111977642D01*
X135605884Y-111977642D02*
X135605884Y-112406214D01*
X135605884Y-112406214D02*
X135534456Y-112549071D01*
X135534456Y-112549071D02*
X135463027Y-112620500D01*
X135463027Y-112620500D02*
X135320170Y-112691928D01*
X135320170Y-112691928D02*
X135105884Y-112691928D01*
X136463027Y-112691928D02*
X136320170Y-112620500D01*
X136320170Y-112620500D02*
X136248741Y-112477642D01*
X136248741Y-112477642D02*
X136248741Y-111191928D01*
X137605884Y-112620500D02*
X137463027Y-112691928D01*
X137463027Y-112691928D02*
X137177313Y-112691928D01*
X137177313Y-112691928D02*
X137034455Y-112620500D01*
X137034455Y-112620500D02*
X136963027Y-112477642D01*
X136963027Y-112477642D02*
X136963027Y-111906214D01*
X136963027Y-111906214D02*
X137034455Y-111763357D01*
X137034455Y-111763357D02*
X137177313Y-111691928D01*
X137177313Y-111691928D02*
X137463027Y-111691928D01*
X137463027Y-111691928D02*
X137605884Y-111763357D01*
X137605884Y-111763357D02*
X137677313Y-111906214D01*
X137677313Y-111906214D02*
X137677313Y-112049071D01*
X137677313Y-112049071D02*
X136963027Y-112191928D01*
X138248741Y-112620500D02*
X138391598Y-112691928D01*
X138391598Y-112691928D02*
X138677312Y-112691928D01*
X138677312Y-112691928D02*
X138820169Y-112620500D01*
X138820169Y-112620500D02*
X138891598Y-112477642D01*
X138891598Y-112477642D02*
X138891598Y-112406214D01*
X138891598Y-112406214D02*
X138820169Y-112263357D01*
X138820169Y-112263357D02*
X138677312Y-112191928D01*
X138677312Y-112191928D02*
X138463027Y-112191928D01*
X138463027Y-112191928D02*
X138320169Y-112120500D01*
X138320169Y-112120500D02*
X138248741Y-111977642D01*
X138248741Y-111977642D02*
X138248741Y-111906214D01*
X138248741Y-111906214D02*
X138320169Y-111763357D01*
X138320169Y-111763357D02*
X138463027Y-111691928D01*
X138463027Y-111691928D02*
X138677312Y-111691928D01*
X138677312Y-111691928D02*
X138820169Y-111763357D01*
D10*
D11*
X91391598Y-109263357D02*
X92105884Y-109263357D01*
X91248741Y-109691928D02*
X91748741Y-108191928D01*
X91748741Y-108191928D02*
X92248741Y-109691928D01*
X92963026Y-109691928D02*
X92820169Y-109620500D01*
X92820169Y-109620500D02*
X92748740Y-109477642D01*
X92748740Y-109477642D02*
X92748740Y-108191928D01*
X93748740Y-109691928D02*
X93605883Y-109620500D01*
X93605883Y-109620500D02*
X93534454Y-109477642D01*
X93534454Y-109477642D02*
X93534454Y-108191928D01*
X95677311Y-109691928D02*
X95534454Y-109620500D01*
X95534454Y-109620500D02*
X95463025Y-109549071D01*
X95463025Y-109549071D02*
X95391597Y-109406214D01*
X95391597Y-109406214D02*
X95391597Y-108977642D01*
X95391597Y-108977642D02*
X95463025Y-108834785D01*
X95463025Y-108834785D02*
X95534454Y-108763357D01*
X95534454Y-108763357D02*
X95677311Y-108691928D01*
X95677311Y-108691928D02*
X95891597Y-108691928D01*
X95891597Y-108691928D02*
X96034454Y-108763357D01*
X96034454Y-108763357D02*
X96105883Y-108834785D01*
X96105883Y-108834785D02*
X96177311Y-108977642D01*
X96177311Y-108977642D02*
X96177311Y-109406214D01*
X96177311Y-109406214D02*
X96105883Y-109549071D01*
X96105883Y-109549071D02*
X96034454Y-109620500D01*
X96034454Y-109620500D02*
X95891597Y-109691928D01*
X95891597Y-109691928D02*
X95677311Y-109691928D01*
X96605883Y-108691928D02*
X97177311Y-108691928D01*
X96820168Y-108191928D02*
X96820168Y-109477642D01*
X96820168Y-109477642D02*
X96891597Y-109620500D01*
X96891597Y-109620500D02*
X97034454Y-109691928D01*
X97034454Y-109691928D02*
X97177311Y-109691928D01*
X97677311Y-109691928D02*
X97677311Y-108191928D01*
X98320169Y-109691928D02*
X98320169Y-108906214D01*
X98320169Y-108906214D02*
X98248740Y-108763357D01*
X98248740Y-108763357D02*
X98105883Y-108691928D01*
X98105883Y-108691928D02*
X97891597Y-108691928D01*
X97891597Y-108691928D02*
X97748740Y-108763357D01*
X97748740Y-108763357D02*
X97677311Y-108834785D01*
X99605883Y-109620500D02*
X99463026Y-109691928D01*
X99463026Y-109691928D02*
X99177312Y-109691928D01*
X99177312Y-109691928D02*
X99034454Y-109620500D01*
X99034454Y-109620500D02*
X98963026Y-109477642D01*
X98963026Y-109477642D02*
X98963026Y-108906214D01*
X98963026Y-108906214D02*
X99034454Y-108763357D01*
X99034454Y-108763357D02*
X99177312Y-108691928D01*
X99177312Y-108691928D02*
X99463026Y-108691928D01*
X99463026Y-108691928D02*
X99605883Y-108763357D01*
X99605883Y-108763357D02*
X99677312Y-108906214D01*
X99677312Y-108906214D02*
X99677312Y-109049071D01*
X99677312Y-109049071D02*
X98963026Y-109191928D01*
X100320168Y-109691928D02*
X100320168Y-108691928D01*
X100320168Y-108977642D02*
X100391597Y-108834785D01*
X100391597Y-108834785D02*
X100463026Y-108763357D01*
X100463026Y-108763357D02*
X100605883Y-108691928D01*
X100605883Y-108691928D02*
X100748740Y-108691928D01*
X102391596Y-109691928D02*
X102391596Y-108691928D01*
X102391596Y-108834785D02*
X102463025Y-108763357D01*
X102463025Y-108763357D02*
X102605882Y-108691928D01*
X102605882Y-108691928D02*
X102820168Y-108691928D01*
X102820168Y-108691928D02*
X102963025Y-108763357D01*
X102963025Y-108763357D02*
X103034454Y-108906214D01*
X103034454Y-108906214D02*
X103034454Y-109691928D01*
X103034454Y-108906214D02*
X103105882Y-108763357D01*
X103105882Y-108763357D02*
X103248739Y-108691928D01*
X103248739Y-108691928D02*
X103463025Y-108691928D01*
X103463025Y-108691928D02*
X103605882Y-108763357D01*
X103605882Y-108763357D02*
X103677311Y-108906214D01*
X103677311Y-108906214D02*
X103677311Y-109691928D01*
X104605882Y-109691928D02*
X104463025Y-109620500D01*
X104463025Y-109620500D02*
X104391596Y-109549071D01*
X104391596Y-109549071D02*
X104320168Y-109406214D01*
X104320168Y-109406214D02*
X104320168Y-108977642D01*
X104320168Y-108977642D02*
X104391596Y-108834785D01*
X104391596Y-108834785D02*
X104463025Y-108763357D01*
X104463025Y-108763357D02*
X104605882Y-108691928D01*
X104605882Y-108691928D02*
X104820168Y-108691928D01*
X104820168Y-108691928D02*
X104963025Y-108763357D01*
X104963025Y-108763357D02*
X105034454Y-108834785D01*
X105034454Y-108834785D02*
X105105882Y-108977642D01*
X105105882Y-108977642D02*
X105105882Y-109406214D01*
X105105882Y-109406214D02*
X105034454Y-109549071D01*
X105034454Y-109549071D02*
X104963025Y-109620500D01*
X104963025Y-109620500D02*
X104820168Y-109691928D01*
X104820168Y-109691928D02*
X104605882Y-109691928D01*
X106391597Y-108691928D02*
X106391597Y-109691928D01*
X105748739Y-108691928D02*
X105748739Y-109477642D01*
X105748739Y-109477642D02*
X105820168Y-109620500D01*
X105820168Y-109620500D02*
X105963025Y-109691928D01*
X105963025Y-109691928D02*
X106177311Y-109691928D01*
X106177311Y-109691928D02*
X106320168Y-109620500D01*
X106320168Y-109620500D02*
X106391597Y-109549071D01*
X107105882Y-108691928D02*
X107105882Y-109691928D01*
X107105882Y-108834785D02*
X107177311Y-108763357D01*
X107177311Y-108763357D02*
X107320168Y-108691928D01*
X107320168Y-108691928D02*
X107534454Y-108691928D01*
X107534454Y-108691928D02*
X107677311Y-108763357D01*
X107677311Y-108763357D02*
X107748740Y-108906214D01*
X107748740Y-108906214D02*
X107748740Y-109691928D01*
X108248740Y-108691928D02*
X108820168Y-108691928D01*
X108463025Y-108191928D02*
X108463025Y-109477642D01*
X108463025Y-109477642D02*
X108534454Y-109620500D01*
X108534454Y-109620500D02*
X108677311Y-109691928D01*
X108677311Y-109691928D02*
X108820168Y-109691928D01*
X109320168Y-109691928D02*
X109320168Y-108691928D01*
X109320168Y-108191928D02*
X109248740Y-108263357D01*
X109248740Y-108263357D02*
X109320168Y-108334785D01*
X109320168Y-108334785D02*
X109391597Y-108263357D01*
X109391597Y-108263357D02*
X109320168Y-108191928D01*
X109320168Y-108191928D02*
X109320168Y-108334785D01*
X110034454Y-108691928D02*
X110034454Y-109691928D01*
X110034454Y-108834785D02*
X110105883Y-108763357D01*
X110105883Y-108763357D02*
X110248740Y-108691928D01*
X110248740Y-108691928D02*
X110463026Y-108691928D01*
X110463026Y-108691928D02*
X110605883Y-108763357D01*
X110605883Y-108763357D02*
X110677312Y-108906214D01*
X110677312Y-108906214D02*
X110677312Y-109691928D01*
X112034455Y-108691928D02*
X112034455Y-109906214D01*
X112034455Y-109906214D02*
X111963026Y-110049071D01*
X111963026Y-110049071D02*
X111891597Y-110120500D01*
X111891597Y-110120500D02*
X111748740Y-110191928D01*
X111748740Y-110191928D02*
X111534455Y-110191928D01*
X111534455Y-110191928D02*
X111391597Y-110120500D01*
X112034455Y-109620500D02*
X111891597Y-109691928D01*
X111891597Y-109691928D02*
X111605883Y-109691928D01*
X111605883Y-109691928D02*
X111463026Y-109620500D01*
X111463026Y-109620500D02*
X111391597Y-109549071D01*
X111391597Y-109549071D02*
X111320169Y-109406214D01*
X111320169Y-109406214D02*
X111320169Y-108977642D01*
X111320169Y-108977642D02*
X111391597Y-108834785D01*
X111391597Y-108834785D02*
X111463026Y-108763357D01*
X111463026Y-108763357D02*
X111605883Y-108691928D01*
X111605883Y-108691928D02*
X111891597Y-108691928D01*
X111891597Y-108691928D02*
X112034455Y-108763357D01*
X113891597Y-109691928D02*
X113891597Y-108191928D01*
X114534455Y-109691928D02*
X114534455Y-108906214D01*
X114534455Y-108906214D02*
X114463026Y-108763357D01*
X114463026Y-108763357D02*
X114320169Y-108691928D01*
X114320169Y-108691928D02*
X114105883Y-108691928D01*
X114105883Y-108691928D02*
X113963026Y-108763357D01*
X113963026Y-108763357D02*
X113891597Y-108834785D01*
X115463026Y-109691928D02*
X115320169Y-109620500D01*
X115320169Y-109620500D02*
X115248740Y-109549071D01*
X115248740Y-109549071D02*
X115177312Y-109406214D01*
X115177312Y-109406214D02*
X115177312Y-108977642D01*
X115177312Y-108977642D02*
X115248740Y-108834785D01*
X115248740Y-108834785D02*
X115320169Y-108763357D01*
X115320169Y-108763357D02*
X115463026Y-108691928D01*
X115463026Y-108691928D02*
X115677312Y-108691928D01*
X115677312Y-108691928D02*
X115820169Y-108763357D01*
X115820169Y-108763357D02*
X115891598Y-108834785D01*
X115891598Y-108834785D02*
X115963026Y-108977642D01*
X115963026Y-108977642D02*
X115963026Y-109406214D01*
X115963026Y-109406214D02*
X115891598Y-109549071D01*
X115891598Y-109549071D02*
X115820169Y-109620500D01*
X115820169Y-109620500D02*
X115677312Y-109691928D01*
X115677312Y-109691928D02*
X115463026Y-109691928D01*
X116820169Y-109691928D02*
X116677312Y-109620500D01*
X116677312Y-109620500D02*
X116605883Y-109477642D01*
X116605883Y-109477642D02*
X116605883Y-108191928D01*
X117963026Y-109620500D02*
X117820169Y-109691928D01*
X117820169Y-109691928D02*
X117534455Y-109691928D01*
X117534455Y-109691928D02*
X117391597Y-109620500D01*
X117391597Y-109620500D02*
X117320169Y-109477642D01*
X117320169Y-109477642D02*
X117320169Y-108906214D01*
X117320169Y-108906214D02*
X117391597Y-108763357D01*
X117391597Y-108763357D02*
X117534455Y-108691928D01*
X117534455Y-108691928D02*
X117820169Y-108691928D01*
X117820169Y-108691928D02*
X117963026Y-108763357D01*
X117963026Y-108763357D02*
X118034455Y-108906214D01*
X118034455Y-108906214D02*
X118034455Y-109049071D01*
X118034455Y-109049071D02*
X117320169Y-109191928D01*
X118605883Y-109620500D02*
X118748740Y-109691928D01*
X118748740Y-109691928D02*
X119034454Y-109691928D01*
X119034454Y-109691928D02*
X119177311Y-109620500D01*
X119177311Y-109620500D02*
X119248740Y-109477642D01*
X119248740Y-109477642D02*
X119248740Y-109406214D01*
X119248740Y-109406214D02*
X119177311Y-109263357D01*
X119177311Y-109263357D02*
X119034454Y-109191928D01*
X119034454Y-109191928D02*
X118820169Y-109191928D01*
X118820169Y-109191928D02*
X118677311Y-109120500D01*
X118677311Y-109120500D02*
X118605883Y-108977642D01*
X118605883Y-108977642D02*
X118605883Y-108906214D01*
X118605883Y-108906214D02*
X118677311Y-108763357D01*
X118677311Y-108763357D02*
X118820169Y-108691928D01*
X118820169Y-108691928D02*
X119034454Y-108691928D01*
X119034454Y-108691928D02*
X119177311Y-108763357D01*
X121677312Y-109691928D02*
X121677312Y-108906214D01*
X121677312Y-108906214D02*
X121605883Y-108763357D01*
X121605883Y-108763357D02*
X121463026Y-108691928D01*
X121463026Y-108691928D02*
X121177312Y-108691928D01*
X121177312Y-108691928D02*
X121034454Y-108763357D01*
X121677312Y-109620500D02*
X121534454Y-109691928D01*
X121534454Y-109691928D02*
X121177312Y-109691928D01*
X121177312Y-109691928D02*
X121034454Y-109620500D01*
X121034454Y-109620500D02*
X120963026Y-109477642D01*
X120963026Y-109477642D02*
X120963026Y-109334785D01*
X120963026Y-109334785D02*
X121034454Y-109191928D01*
X121034454Y-109191928D02*
X121177312Y-109120500D01*
X121177312Y-109120500D02*
X121534454Y-109120500D01*
X121534454Y-109120500D02*
X121677312Y-109049071D01*
X122391597Y-109691928D02*
X122391597Y-108691928D01*
X122391597Y-108977642D02*
X122463026Y-108834785D01*
X122463026Y-108834785D02*
X122534455Y-108763357D01*
X122534455Y-108763357D02*
X122677312Y-108691928D01*
X122677312Y-108691928D02*
X122820169Y-108691928D01*
X123891597Y-109620500D02*
X123748740Y-109691928D01*
X123748740Y-109691928D02*
X123463026Y-109691928D01*
X123463026Y-109691928D02*
X123320168Y-109620500D01*
X123320168Y-109620500D02*
X123248740Y-109477642D01*
X123248740Y-109477642D02*
X123248740Y-108906214D01*
X123248740Y-108906214D02*
X123320168Y-108763357D01*
X123320168Y-108763357D02*
X123463026Y-108691928D01*
X123463026Y-108691928D02*
X123748740Y-108691928D01*
X123748740Y-108691928D02*
X123891597Y-108763357D01*
X123891597Y-108763357D02*
X123963026Y-108906214D01*
X123963026Y-108906214D02*
X123963026Y-109049071D01*
X123963026Y-109049071D02*
X123248740Y-109191928D01*
X125605882Y-108191928D02*
X126534454Y-108191928D01*
X126534454Y-108191928D02*
X126034454Y-108763357D01*
X126034454Y-108763357D02*
X126248739Y-108763357D01*
X126248739Y-108763357D02*
X126391597Y-108834785D01*
X126391597Y-108834785D02*
X126463025Y-108906214D01*
X126463025Y-108906214D02*
X126534454Y-109049071D01*
X126534454Y-109049071D02*
X126534454Y-109406214D01*
X126534454Y-109406214D02*
X126463025Y-109549071D01*
X126463025Y-109549071D02*
X126391597Y-109620500D01*
X126391597Y-109620500D02*
X126248739Y-109691928D01*
X126248739Y-109691928D02*
X125820168Y-109691928D01*
X125820168Y-109691928D02*
X125677311Y-109620500D01*
X125677311Y-109620500D02*
X125605882Y-109549071D01*
X128320167Y-109691928D02*
X128320167Y-108691928D01*
X128320167Y-108834785D02*
X128391596Y-108763357D01*
X128391596Y-108763357D02*
X128534453Y-108691928D01*
X128534453Y-108691928D02*
X128748739Y-108691928D01*
X128748739Y-108691928D02*
X128891596Y-108763357D01*
X128891596Y-108763357D02*
X128963025Y-108906214D01*
X128963025Y-108906214D02*
X128963025Y-109691928D01*
X128963025Y-108906214D02*
X129034453Y-108763357D01*
X129034453Y-108763357D02*
X129177310Y-108691928D01*
X129177310Y-108691928D02*
X129391596Y-108691928D01*
X129391596Y-108691928D02*
X129534453Y-108763357D01*
X129534453Y-108763357D02*
X129605882Y-108906214D01*
X129605882Y-108906214D02*
X129605882Y-109691928D01*
X130320167Y-109691928D02*
X130320167Y-108691928D01*
X130320167Y-108834785D02*
X130391596Y-108763357D01*
X130391596Y-108763357D02*
X130534453Y-108691928D01*
X130534453Y-108691928D02*
X130748739Y-108691928D01*
X130748739Y-108691928D02*
X130891596Y-108763357D01*
X130891596Y-108763357D02*
X130963025Y-108906214D01*
X130963025Y-108906214D02*
X130963025Y-109691928D01*
X130963025Y-108906214D02*
X131034453Y-108763357D01*
X131034453Y-108763357D02*
X131177310Y-108691928D01*
X131177310Y-108691928D02*
X131391596Y-108691928D01*
X131391596Y-108691928D02*
X131534453Y-108763357D01*
X131534453Y-108763357D02*
X131605882Y-108906214D01*
X131605882Y-108906214D02*
X131605882Y-109691928D01*
D10*
D11*
X110007200Y-129505800D02*
X110007200Y-132505800D01*
D10*
D11*
X174007200Y-129505800D02*
X174007200Y-136005800D01*
D10*
X57050000Y-88625000D02*
X31050000Y-88625000D01*
X57600000Y-44355000D02*
X32200000Y-44355000D01*
X102425734Y-47080000D02*
X64325734Y-47080000D01*
X59360000Y-93965000D02*
X59360000Y-76185000D01*
X109200000Y-77150000D02*
X109200000Y-93150000D01*
X84190000Y-93965000D02*
X84190000Y-76185000D01*
X31050000Y-52975000D02*
X31050000Y-88625000D01*
X109200000Y-77150000D02*
X87200000Y-77150000D01*
X84190000Y-76185000D02*
X59360000Y-76185000D01*
X32200000Y-44355000D02*
X32200000Y-21495000D01*
X57600000Y-44355000D02*
X57600000Y-21495000D01*
X114475000Y-82175000D02*
X131475000Y-82175000D01*
X131475000Y-82175000D02*
X131475000Y-32175000D01*
X59360000Y-93965000D02*
X84190000Y-93965000D01*
X87200000Y-93150000D02*
X87200000Y-77150000D01*
X102425734Y-20410000D02*
X64325734Y-20410000D01*
X32200000Y-21495000D02*
X57600000Y-21495000D01*
X114475000Y-32175000D02*
X114475000Y-82175000D01*
X109200000Y-93150000D02*
X87200000Y-93150000D01*
X57050000Y-52975000D02*
X57050000Y-88625000D01*
X102425734Y-20410000D02*
X102425734Y-47080000D01*
X57050000Y-52975000D02*
X31050000Y-52975000D01*
X64325734Y-47080000D02*
X64325734Y-20410000D01*
X131475000Y-32175000D02*
X114475000Y-32175000D01*
D11*
X58485819Y-72241904D02*
X59295342Y-72241904D01*
X59295342Y-72241904D02*
X59390580Y-72194285D01*
X59390580Y-72194285D02*
X59438200Y-72146666D01*
X59438200Y-72146666D02*
X59485819Y-72051428D01*
X59485819Y-72051428D02*
X59485819Y-71860952D01*
X59485819Y-71860952D02*
X59438200Y-71765714D01*
X59438200Y-71765714D02*
X59390580Y-71718095D01*
X59390580Y-71718095D02*
X59295342Y-71670476D01*
X59295342Y-71670476D02*
X58485819Y-71670476D01*
X59485819Y-70670476D02*
X59485819Y-71241904D01*
X59485819Y-70956190D02*
X58485819Y-70956190D01*
X58485819Y-70956190D02*
X58628676Y-71051428D01*
X58628676Y-71051428D02*
X58723914Y-71146666D01*
X58723914Y-71146666D02*
X58771533Y-71241904D01*
X44166666Y-84729819D02*
X44166666Y-85444104D01*
X44166666Y-85444104D02*
X44119047Y-85586961D01*
X44119047Y-85586961D02*
X44023809Y-85682200D01*
X44023809Y-85682200D02*
X43880952Y-85729819D01*
X43880952Y-85729819D02*
X43785714Y-85729819D01*
X45166666Y-85729819D02*
X44595238Y-85729819D01*
X44880952Y-85729819D02*
X44880952Y-84729819D01*
X44880952Y-84729819D02*
X44785714Y-84872676D01*
X44785714Y-84872676D02*
X44690476Y-84967914D01*
X44690476Y-84967914D02*
X44595238Y-85015533D01*
X52240476Y-52654819D02*
X52240476Y-51654819D01*
X52240476Y-51654819D02*
X52811904Y-52654819D01*
X52811904Y-52654819D02*
X52811904Y-51654819D01*
X53288095Y-52131009D02*
X53621428Y-52131009D01*
X53764285Y-52654819D02*
X53288095Y-52654819D01*
X53288095Y-52654819D02*
X53288095Y-51654819D01*
X53288095Y-51654819D02*
X53764285Y-51654819D01*
X54383333Y-51654819D02*
X54573809Y-51654819D01*
X54573809Y-51654819D02*
X54669047Y-51702438D01*
X54669047Y-51702438D02*
X54764285Y-51797676D01*
X54764285Y-51797676D02*
X54811904Y-51988152D01*
X54811904Y-51988152D02*
X54811904Y-52321485D01*
X54811904Y-52321485D02*
X54764285Y-52511961D01*
X54764285Y-52511961D02*
X54669047Y-52607200D01*
X54669047Y-52607200D02*
X54573809Y-52654819D01*
X54573809Y-52654819D02*
X54383333Y-52654819D01*
X54383333Y-52654819D02*
X54288095Y-52607200D01*
X54288095Y-52607200D02*
X54192857Y-52511961D01*
X54192857Y-52511961D02*
X54145238Y-52321485D01*
X54145238Y-52321485D02*
X54145238Y-51988152D01*
X54145238Y-51988152D02*
X54192857Y-51797676D01*
X54192857Y-51797676D02*
X54288095Y-51702438D01*
X54288095Y-51702438D02*
X54383333Y-51654819D01*
X55669047Y-51654819D02*
X55478571Y-51654819D01*
X55478571Y-51654819D02*
X55383333Y-51702438D01*
X55383333Y-51702438D02*
X55335714Y-51750057D01*
X55335714Y-51750057D02*
X55240476Y-51892914D01*
X55240476Y-51892914D02*
X55192857Y-52083390D01*
X55192857Y-52083390D02*
X55192857Y-52464342D01*
X55192857Y-52464342D02*
X55240476Y-52559580D01*
X55240476Y-52559580D02*
X55288095Y-52607200D01*
X55288095Y-52607200D02*
X55383333Y-52654819D01*
X55383333Y-52654819D02*
X55573809Y-52654819D01*
X55573809Y-52654819D02*
X55669047Y-52607200D01*
X55669047Y-52607200D02*
X55716666Y-52559580D01*
X55716666Y-52559580D02*
X55764285Y-52464342D01*
X55764285Y-52464342D02*
X55764285Y-52226247D01*
X55764285Y-52226247D02*
X55716666Y-52131009D01*
X55716666Y-52131009D02*
X55669047Y-52083390D01*
X55669047Y-52083390D02*
X55573809Y-52035771D01*
X55573809Y-52035771D02*
X55383333Y-52035771D01*
X55383333Y-52035771D02*
X55288095Y-52083390D01*
X55288095Y-52083390D02*
X55240476Y-52131009D01*
X55240476Y-52131009D02*
X55192857Y-52226247D01*
X56192857Y-52654819D02*
X56192857Y-51654819D01*
X56192857Y-51654819D02*
X56526190Y-52369104D01*
X56526190Y-52369104D02*
X56859523Y-51654819D01*
X56859523Y-51654819D02*
X56859523Y-52654819D01*
X61166866Y-90749819D02*
X61166866Y-91464104D01*
X61166866Y-91464104D02*
X61119247Y-91606961D01*
X61119247Y-91606961D02*
X61024009Y-91702200D01*
X61024009Y-91702200D02*
X60881152Y-91749819D01*
X60881152Y-91749819D02*
X60785914Y-91749819D01*
X61595438Y-90845057D02*
X61643057Y-90797438D01*
X61643057Y-90797438D02*
X61738295Y-90749819D01*
X61738295Y-90749819D02*
X61976390Y-90749819D01*
X61976390Y-90749819D02*
X62071628Y-90797438D01*
X62071628Y-90797438D02*
X62119247Y-90845057D01*
X62119247Y-90845057D02*
X62166866Y-90940295D01*
X62166866Y-90940295D02*
X62166866Y-91035533D01*
X62166866Y-91035533D02*
X62119247Y-91178390D01*
X62119247Y-91178390D02*
X61547819Y-91749819D01*
X61547819Y-91749819D02*
X62166866Y-91749819D01*
X59771428Y-75191009D02*
X59914285Y-75238628D01*
X59914285Y-75238628D02*
X59961904Y-75286247D01*
X59961904Y-75286247D02*
X60009523Y-75381485D01*
X60009523Y-75381485D02*
X60009523Y-75524342D01*
X60009523Y-75524342D02*
X59961904Y-75619580D01*
X59961904Y-75619580D02*
X59914285Y-75667200D01*
X59914285Y-75667200D02*
X59819047Y-75714819D01*
X59819047Y-75714819D02*
X59438095Y-75714819D01*
X59438095Y-75714819D02*
X59438095Y-74714819D01*
X59438095Y-74714819D02*
X59771428Y-74714819D01*
X59771428Y-74714819D02*
X59866666Y-74762438D01*
X59866666Y-74762438D02*
X59914285Y-74810057D01*
X59914285Y-74810057D02*
X59961904Y-74905295D01*
X59961904Y-74905295D02*
X59961904Y-75000533D01*
X59961904Y-75000533D02*
X59914285Y-75095771D01*
X59914285Y-75095771D02*
X59866666Y-75143390D01*
X59866666Y-75143390D02*
X59771428Y-75191009D01*
X59771428Y-75191009D02*
X59438095Y-75191009D01*
X60438095Y-75714819D02*
X60438095Y-74714819D01*
X60438095Y-74714819D02*
X60771428Y-75429104D01*
X60771428Y-75429104D02*
X61104761Y-74714819D01*
X61104761Y-74714819D02*
X61104761Y-75714819D01*
X61580952Y-75714819D02*
X61580952Y-74714819D01*
X61580952Y-74714819D02*
X61961904Y-74714819D01*
X61961904Y-74714819D02*
X62057142Y-74762438D01*
X62057142Y-74762438D02*
X62104761Y-74810057D01*
X62104761Y-74810057D02*
X62152380Y-74905295D01*
X62152380Y-74905295D02*
X62152380Y-75048152D01*
X62152380Y-75048152D02*
X62104761Y-75143390D01*
X62104761Y-75143390D02*
X62057142Y-75191009D01*
X62057142Y-75191009D02*
X61961904Y-75238628D01*
X61961904Y-75238628D02*
X61580952Y-75238628D01*
X62533333Y-74810057D02*
X62580952Y-74762438D01*
X62580952Y-74762438D02*
X62676190Y-74714819D01*
X62676190Y-74714819D02*
X62914285Y-74714819D01*
X62914285Y-74714819D02*
X63009523Y-74762438D01*
X63009523Y-74762438D02*
X63057142Y-74810057D01*
X63057142Y-74810057D02*
X63104761Y-74905295D01*
X63104761Y-74905295D02*
X63104761Y-75000533D01*
X63104761Y-75000533D02*
X63057142Y-75143390D01*
X63057142Y-75143390D02*
X62485714Y-75714819D01*
X62485714Y-75714819D02*
X63104761Y-75714819D01*
X63676190Y-75143390D02*
X63580952Y-75095771D01*
X63580952Y-75095771D02*
X63533333Y-75048152D01*
X63533333Y-75048152D02*
X63485714Y-74952914D01*
X63485714Y-74952914D02*
X63485714Y-74905295D01*
X63485714Y-74905295D02*
X63533333Y-74810057D01*
X63533333Y-74810057D02*
X63580952Y-74762438D01*
X63580952Y-74762438D02*
X63676190Y-74714819D01*
X63676190Y-74714819D02*
X63866666Y-74714819D01*
X63866666Y-74714819D02*
X63961904Y-74762438D01*
X63961904Y-74762438D02*
X64009523Y-74810057D01*
X64009523Y-74810057D02*
X64057142Y-74905295D01*
X64057142Y-74905295D02*
X64057142Y-74952914D01*
X64057142Y-74952914D02*
X64009523Y-75048152D01*
X64009523Y-75048152D02*
X63961904Y-75095771D01*
X63961904Y-75095771D02*
X63866666Y-75143390D01*
X63866666Y-75143390D02*
X63676190Y-75143390D01*
X63676190Y-75143390D02*
X63580952Y-75191009D01*
X63580952Y-75191009D02*
X63533333Y-75238628D01*
X63533333Y-75238628D02*
X63485714Y-75333866D01*
X63485714Y-75333866D02*
X63485714Y-75524342D01*
X63485714Y-75524342D02*
X63533333Y-75619580D01*
X63533333Y-75619580D02*
X63580952Y-75667200D01*
X63580952Y-75667200D02*
X63676190Y-75714819D01*
X63676190Y-75714819D02*
X63866666Y-75714819D01*
X63866666Y-75714819D02*
X63961904Y-75667200D01*
X63961904Y-75667200D02*
X64009523Y-75619580D01*
X64009523Y-75619580D02*
X64057142Y-75524342D01*
X64057142Y-75524342D02*
X64057142Y-75333866D01*
X64057142Y-75333866D02*
X64009523Y-75238628D01*
X64009523Y-75238628D02*
X63961904Y-75191009D01*
X63961904Y-75191009D02*
X63866666Y-75143390D01*
X64676190Y-74714819D02*
X64771428Y-74714819D01*
X64771428Y-74714819D02*
X64866666Y-74762438D01*
X64866666Y-74762438D02*
X64914285Y-74810057D01*
X64914285Y-74810057D02*
X64961904Y-74905295D01*
X64961904Y-74905295D02*
X65009523Y-75095771D01*
X65009523Y-75095771D02*
X65009523Y-75333866D01*
X65009523Y-75333866D02*
X64961904Y-75524342D01*
X64961904Y-75524342D02*
X64914285Y-75619580D01*
X64914285Y-75619580D02*
X64866666Y-75667200D01*
X64866666Y-75667200D02*
X64771428Y-75714819D01*
X64771428Y-75714819D02*
X64676190Y-75714819D01*
X64676190Y-75714819D02*
X64580952Y-75667200D01*
X64580952Y-75667200D02*
X64533333Y-75619580D01*
X64533333Y-75619580D02*
X64485714Y-75524342D01*
X64485714Y-75524342D02*
X64438095Y-75333866D01*
X64438095Y-75333866D02*
X64438095Y-75095771D01*
X64438095Y-75095771D02*
X64485714Y-74905295D01*
X64485714Y-74905295D02*
X64533333Y-74810057D01*
X64533333Y-74810057D02*
X64580952Y-74762438D01*
X64580952Y-74762438D02*
X64676190Y-74714819D01*
X98536400Y-26424819D02*
X98536400Y-27139104D01*
X98536400Y-27139104D02*
X98488781Y-27281961D01*
X98488781Y-27281961D02*
X98393543Y-27377200D01*
X98393543Y-27377200D02*
X98250686Y-27424819D01*
X98250686Y-27424819D02*
X98155448Y-27424819D01*
X99441162Y-26424819D02*
X99250686Y-26424819D01*
X99250686Y-26424819D02*
X99155448Y-26472438D01*
X99155448Y-26472438D02*
X99107829Y-26520057D01*
X99107829Y-26520057D02*
X99012591Y-26662914D01*
X99012591Y-26662914D02*
X98964972Y-26853390D01*
X98964972Y-26853390D02*
X98964972Y-27234342D01*
X98964972Y-27234342D02*
X99012591Y-27329580D01*
X99012591Y-27329580D02*
X99060210Y-27377200D01*
X99060210Y-27377200D02*
X99155448Y-27424819D01*
X99155448Y-27424819D02*
X99345924Y-27424819D01*
X99345924Y-27424819D02*
X99441162Y-27377200D01*
X99441162Y-27377200D02*
X99488781Y-27329580D01*
X99488781Y-27329580D02*
X99536400Y-27234342D01*
X99536400Y-27234342D02*
X99536400Y-26996247D01*
X99536400Y-26996247D02*
X99488781Y-26901009D01*
X99488781Y-26901009D02*
X99441162Y-26853390D01*
X99441162Y-26853390D02*
X99345924Y-26805771D01*
X99345924Y-26805771D02*
X99155448Y-26805771D01*
X99155448Y-26805771D02*
X99060210Y-26853390D01*
X99060210Y-26853390D02*
X99012591Y-26901009D01*
X99012591Y-26901009D02*
X98964972Y-26996247D01*
X63658124Y-20441219D02*
X63658124Y-20774552D01*
X63134314Y-20917409D02*
X63134314Y-20441219D01*
X63134314Y-20441219D02*
X64134314Y-20441219D01*
X64134314Y-20441219D02*
X64134314Y-20917409D01*
X64134314Y-21203124D02*
X63134314Y-21536457D01*
X63134314Y-21536457D02*
X64134314Y-21869790D01*
X63420029Y-22155505D02*
X63420029Y-22631695D01*
X63134314Y-22060267D02*
X64134314Y-22393600D01*
X64134314Y-22393600D02*
X63134314Y-22726933D01*
X63134314Y-23536457D02*
X63134314Y-23060267D01*
X63134314Y-23060267D02*
X64134314Y-23060267D01*
X63515267Y-23869791D02*
X63515267Y-24631696D01*
X63420029Y-25060267D02*
X63420029Y-25536457D01*
X63134314Y-24965029D02*
X64134314Y-25298362D01*
X64134314Y-25298362D02*
X63134314Y-25631695D01*
X63134314Y-25965029D02*
X64134314Y-25965029D01*
X64134314Y-25965029D02*
X64134314Y-26203124D01*
X64134314Y-26203124D02*
X64086695Y-26345981D01*
X64086695Y-26345981D02*
X63991457Y-26441219D01*
X63991457Y-26441219D02*
X63896219Y-26488838D01*
X63896219Y-26488838D02*
X63705743Y-26536457D01*
X63705743Y-26536457D02*
X63562886Y-26536457D01*
X63562886Y-26536457D02*
X63372410Y-26488838D01*
X63372410Y-26488838D02*
X63277172Y-26441219D01*
X63277172Y-26441219D02*
X63181934Y-26345981D01*
X63181934Y-26345981D02*
X63134314Y-26203124D01*
X63134314Y-26203124D02*
X63134314Y-25965029D01*
X63658124Y-27298362D02*
X63658124Y-26965029D01*
X63134314Y-26965029D02*
X64134314Y-26965029D01*
X64134314Y-26965029D02*
X64134314Y-27441219D01*
X64134314Y-27726934D02*
X64134314Y-28393600D01*
X64134314Y-28393600D02*
X63134314Y-27965029D01*
X64134314Y-28965029D02*
X64134314Y-29060267D01*
X64134314Y-29060267D02*
X64086695Y-29155505D01*
X64086695Y-29155505D02*
X64039076Y-29203124D01*
X64039076Y-29203124D02*
X63943838Y-29250743D01*
X63943838Y-29250743D02*
X63753362Y-29298362D01*
X63753362Y-29298362D02*
X63515267Y-29298362D01*
X63515267Y-29298362D02*
X63324791Y-29250743D01*
X63324791Y-29250743D02*
X63229553Y-29203124D01*
X63229553Y-29203124D02*
X63181934Y-29155505D01*
X63181934Y-29155505D02*
X63134314Y-29060267D01*
X63134314Y-29060267D02*
X63134314Y-28965029D01*
X63134314Y-28965029D02*
X63181934Y-28869791D01*
X63181934Y-28869791D02*
X63229553Y-28822172D01*
X63229553Y-28822172D02*
X63324791Y-28774553D01*
X63324791Y-28774553D02*
X63515267Y-28726934D01*
X63515267Y-28726934D02*
X63753362Y-28726934D01*
X63753362Y-28726934D02*
X63943838Y-28774553D01*
X63943838Y-28774553D02*
X64039076Y-28822172D01*
X64039076Y-28822172D02*
X64086695Y-28869791D01*
X64086695Y-28869791D02*
X64134314Y-28965029D01*
X64039076Y-29679315D02*
X64086695Y-29726934D01*
X64086695Y-29726934D02*
X64134314Y-29822172D01*
X64134314Y-29822172D02*
X64134314Y-30060267D01*
X64134314Y-30060267D02*
X64086695Y-30155505D01*
X64086695Y-30155505D02*
X64039076Y-30203124D01*
X64039076Y-30203124D02*
X63943838Y-30250743D01*
X63943838Y-30250743D02*
X63848600Y-30250743D01*
X63848600Y-30250743D02*
X63705743Y-30203124D01*
X63705743Y-30203124D02*
X63134314Y-29631696D01*
X63134314Y-29631696D02*
X63134314Y-30250743D01*
X63134314Y-31203124D02*
X63134314Y-30631696D01*
X63134314Y-30917410D02*
X64134314Y-30917410D01*
X64134314Y-30917410D02*
X63991457Y-30822172D01*
X63991457Y-30822172D02*
X63896219Y-30726934D01*
X63896219Y-30726934D02*
X63848600Y-30631696D01*
X63515267Y-31631696D02*
X63515267Y-32393601D01*
X63134314Y-32869791D02*
X64134314Y-32869791D01*
X64134314Y-32869791D02*
X63134314Y-33441219D01*
X63134314Y-33441219D02*
X64134314Y-33441219D01*
X63134314Y-33917410D02*
X64134314Y-33917410D01*
X64134314Y-33917410D02*
X64134314Y-34155505D01*
X64134314Y-34155505D02*
X64086695Y-34298362D01*
X64086695Y-34298362D02*
X63991457Y-34393600D01*
X63991457Y-34393600D02*
X63896219Y-34441219D01*
X63896219Y-34441219D02*
X63705743Y-34488838D01*
X63705743Y-34488838D02*
X63562886Y-34488838D01*
X63562886Y-34488838D02*
X63372410Y-34441219D01*
X63372410Y-34441219D02*
X63277172Y-34393600D01*
X63277172Y-34393600D02*
X63181934Y-34298362D01*
X63181934Y-34298362D02*
X63134314Y-34155505D01*
X63134314Y-34155505D02*
X63134314Y-33917410D01*
X63658124Y-35250743D02*
X63610505Y-35393600D01*
X63610505Y-35393600D02*
X63562886Y-35441219D01*
X63562886Y-35441219D02*
X63467648Y-35488838D01*
X63467648Y-35488838D02*
X63324791Y-35488838D01*
X63324791Y-35488838D02*
X63229553Y-35441219D01*
X63229553Y-35441219D02*
X63181934Y-35393600D01*
X63181934Y-35393600D02*
X63134314Y-35298362D01*
X63134314Y-35298362D02*
X63134314Y-34917410D01*
X63134314Y-34917410D02*
X64134314Y-34917410D01*
X64134314Y-34917410D02*
X64134314Y-35250743D01*
X64134314Y-35250743D02*
X64086695Y-35345981D01*
X64086695Y-35345981D02*
X64039076Y-35393600D01*
X64039076Y-35393600D02*
X63943838Y-35441219D01*
X63943838Y-35441219D02*
X63848600Y-35441219D01*
X63848600Y-35441219D02*
X63753362Y-35393600D01*
X63753362Y-35393600D02*
X63705743Y-35345981D01*
X63705743Y-35345981D02*
X63658124Y-35250743D01*
X63658124Y-35250743D02*
X63658124Y-34917410D01*
X64134314Y-35822172D02*
X64134314Y-36488838D01*
X64134314Y-36488838D02*
X63134314Y-35822172D01*
X63134314Y-35822172D02*
X63134314Y-36488838D01*
X64134314Y-37345981D02*
X64134314Y-36869791D01*
X64134314Y-36869791D02*
X63658124Y-36822172D01*
X63658124Y-36822172D02*
X63705743Y-36869791D01*
X63705743Y-36869791D02*
X63753362Y-36965029D01*
X63753362Y-36965029D02*
X63753362Y-37203124D01*
X63753362Y-37203124D02*
X63705743Y-37298362D01*
X63705743Y-37298362D02*
X63658124Y-37345981D01*
X63658124Y-37345981D02*
X63562886Y-37393600D01*
X63562886Y-37393600D02*
X63324791Y-37393600D01*
X63324791Y-37393600D02*
X63229553Y-37345981D01*
X63229553Y-37345981D02*
X63181934Y-37298362D01*
X63181934Y-37298362D02*
X63134314Y-37203124D01*
X63134314Y-37203124D02*
X63134314Y-36965029D01*
X63134314Y-36965029D02*
X63181934Y-36869791D01*
X63181934Y-36869791D02*
X63229553Y-36822172D01*
X129170266Y-82427619D02*
X129170266Y-83141904D01*
X129170266Y-83141904D02*
X129122647Y-83284761D01*
X129122647Y-83284761D02*
X129027409Y-83380000D01*
X129027409Y-83380000D02*
X128884552Y-83427619D01*
X128884552Y-83427619D02*
X128789314Y-83427619D01*
X129551219Y-82427619D02*
X130170266Y-82427619D01*
X130170266Y-82427619D02*
X129836933Y-82808571D01*
X129836933Y-82808571D02*
X129979790Y-82808571D01*
X129979790Y-82808571D02*
X130075028Y-82856190D01*
X130075028Y-82856190D02*
X130122647Y-82903809D01*
X130122647Y-82903809D02*
X130170266Y-82999047D01*
X130170266Y-82999047D02*
X130170266Y-83237142D01*
X130170266Y-83237142D02*
X130122647Y-83332380D01*
X130122647Y-83332380D02*
X130075028Y-83380000D01*
X130075028Y-83380000D02*
X129979790Y-83427619D01*
X129979790Y-83427619D02*
X129694076Y-83427619D01*
X129694076Y-83427619D02*
X129598838Y-83380000D01*
X129598838Y-83380000D02*
X129551219Y-83332380D01*
X115122618Y-83429819D02*
X114789285Y-82953628D01*
X114551190Y-83429819D02*
X114551190Y-82429819D01*
X114551190Y-82429819D02*
X114932142Y-82429819D01*
X114932142Y-82429819D02*
X115027380Y-82477438D01*
X115027380Y-82477438D02*
X115074999Y-82525057D01*
X115074999Y-82525057D02*
X115122618Y-82620295D01*
X115122618Y-82620295D02*
X115122618Y-82763152D01*
X115122618Y-82763152D02*
X115074999Y-82858390D01*
X115074999Y-82858390D02*
X115027380Y-82906009D01*
X115027380Y-82906009D02*
X114932142Y-82953628D01*
X114932142Y-82953628D02*
X114551190Y-82953628D01*
X115741666Y-82953628D02*
X115741666Y-83429819D01*
X115408333Y-82429819D02*
X115741666Y-82953628D01*
X115741666Y-82953628D02*
X116074999Y-82429819D01*
X116884523Y-83429819D02*
X116408333Y-83429819D01*
X116408333Y-83429819D02*
X116408333Y-82429819D01*
X117789285Y-83429819D02*
X117455952Y-82953628D01*
X117217857Y-83429819D02*
X117217857Y-82429819D01*
X117217857Y-82429819D02*
X117598809Y-82429819D01*
X117598809Y-82429819D02*
X117694047Y-82477438D01*
X117694047Y-82477438D02*
X117741666Y-82525057D01*
X117741666Y-82525057D02*
X117789285Y-82620295D01*
X117789285Y-82620295D02*
X117789285Y-82763152D01*
X117789285Y-82763152D02*
X117741666Y-82858390D01*
X117741666Y-82858390D02*
X117694047Y-82906009D01*
X117694047Y-82906009D02*
X117598809Y-82953628D01*
X117598809Y-82953628D02*
X117217857Y-82953628D01*
X118360714Y-82858390D02*
X118265476Y-82810771D01*
X118265476Y-82810771D02*
X118217857Y-82763152D01*
X118217857Y-82763152D02*
X118170238Y-82667914D01*
X118170238Y-82667914D02*
X118170238Y-82620295D01*
X118170238Y-82620295D02*
X118217857Y-82525057D01*
X118217857Y-82525057D02*
X118265476Y-82477438D01*
X118265476Y-82477438D02*
X118360714Y-82429819D01*
X118360714Y-82429819D02*
X118551190Y-82429819D01*
X118551190Y-82429819D02*
X118646428Y-82477438D01*
X118646428Y-82477438D02*
X118694047Y-82525057D01*
X118694047Y-82525057D02*
X118741666Y-82620295D01*
X118741666Y-82620295D02*
X118741666Y-82667914D01*
X118741666Y-82667914D02*
X118694047Y-82763152D01*
X118694047Y-82763152D02*
X118646428Y-82810771D01*
X118646428Y-82810771D02*
X118551190Y-82858390D01*
X118551190Y-82858390D02*
X118360714Y-82858390D01*
X118360714Y-82858390D02*
X118265476Y-82906009D01*
X118265476Y-82906009D02*
X118217857Y-82953628D01*
X118217857Y-82953628D02*
X118170238Y-83048866D01*
X118170238Y-83048866D02*
X118170238Y-83239342D01*
X118170238Y-83239342D02*
X118217857Y-83334580D01*
X118217857Y-83334580D02*
X118265476Y-83382200D01*
X118265476Y-83382200D02*
X118360714Y-83429819D01*
X118360714Y-83429819D02*
X118551190Y-83429819D01*
X118551190Y-83429819D02*
X118646428Y-83382200D01*
X118646428Y-83382200D02*
X118694047Y-83334580D01*
X118694047Y-83334580D02*
X118741666Y-83239342D01*
X118741666Y-83239342D02*
X118741666Y-83048866D01*
X118741666Y-83048866D02*
X118694047Y-82953628D01*
X118694047Y-82953628D02*
X118646428Y-82906009D01*
X118646428Y-82906009D02*
X118551190Y-82858390D01*
X119217857Y-83429819D02*
X119408333Y-83429819D01*
X119408333Y-83429819D02*
X119503571Y-83382200D01*
X119503571Y-83382200D02*
X119551190Y-83334580D01*
X119551190Y-83334580D02*
X119646428Y-83191723D01*
X119646428Y-83191723D02*
X119694047Y-83001247D01*
X119694047Y-83001247D02*
X119694047Y-82620295D01*
X119694047Y-82620295D02*
X119646428Y-82525057D01*
X119646428Y-82525057D02*
X119598809Y-82477438D01*
X119598809Y-82477438D02*
X119503571Y-82429819D01*
X119503571Y-82429819D02*
X119313095Y-82429819D01*
X119313095Y-82429819D02*
X119217857Y-82477438D01*
X119217857Y-82477438D02*
X119170238Y-82525057D01*
X119170238Y-82525057D02*
X119122619Y-82620295D01*
X119122619Y-82620295D02*
X119122619Y-82858390D01*
X119122619Y-82858390D02*
X119170238Y-82953628D01*
X119170238Y-82953628D02*
X119217857Y-83001247D01*
X119217857Y-83001247D02*
X119313095Y-83048866D01*
X119313095Y-83048866D02*
X119503571Y-83048866D01*
X119503571Y-83048866D02*
X119598809Y-83001247D01*
X119598809Y-83001247D02*
X119646428Y-82953628D01*
X119646428Y-82953628D02*
X119694047Y-82858390D01*
X120551190Y-82429819D02*
X120360714Y-82429819D01*
X120360714Y-82429819D02*
X120265476Y-82477438D01*
X120265476Y-82477438D02*
X120217857Y-82525057D01*
X120217857Y-82525057D02*
X120122619Y-82667914D01*
X120122619Y-82667914D02*
X120075000Y-82858390D01*
X120075000Y-82858390D02*
X120075000Y-83239342D01*
X120075000Y-83239342D02*
X120122619Y-83334580D01*
X120122619Y-83334580D02*
X120170238Y-83382200D01*
X120170238Y-83382200D02*
X120265476Y-83429819D01*
X120265476Y-83429819D02*
X120455952Y-83429819D01*
X120455952Y-83429819D02*
X120551190Y-83382200D01*
X120551190Y-83382200D02*
X120598809Y-83334580D01*
X120598809Y-83334580D02*
X120646428Y-83239342D01*
X120646428Y-83239342D02*
X120646428Y-83001247D01*
X120646428Y-83001247D02*
X120598809Y-82906009D01*
X120598809Y-82906009D02*
X120551190Y-82858390D01*
X120551190Y-82858390D02*
X120455952Y-82810771D01*
X120455952Y-82810771D02*
X120265476Y-82810771D01*
X120265476Y-82810771D02*
X120170238Y-82858390D01*
X120170238Y-82858390D02*
X120122619Y-82906009D01*
X120122619Y-82906009D02*
X120075000Y-83001247D01*
X56671666Y-20095819D02*
X56671666Y-20810104D01*
X56671666Y-20810104D02*
X56624047Y-20952961D01*
X56624047Y-20952961D02*
X56528809Y-21048200D01*
X56528809Y-21048200D02*
X56385952Y-21095819D01*
X56385952Y-21095819D02*
X56290714Y-21095819D01*
X57052619Y-20095819D02*
X57719285Y-20095819D01*
X57719285Y-20095819D02*
X57290714Y-21095819D01*
X38958332Y-21209819D02*
X38958332Y-20209819D01*
X38958332Y-20209819D02*
X39291665Y-20924104D01*
X39291665Y-20924104D02*
X39624998Y-20209819D01*
X39624998Y-20209819D02*
X39624998Y-21209819D01*
X40101189Y-21209819D02*
X40101189Y-20543152D01*
X40101189Y-20209819D02*
X40053570Y-20257438D01*
X40053570Y-20257438D02*
X40101189Y-20305057D01*
X40101189Y-20305057D02*
X40148808Y-20257438D01*
X40148808Y-20257438D02*
X40101189Y-20209819D01*
X40101189Y-20209819D02*
X40101189Y-20305057D01*
X41005950Y-21162200D02*
X40910712Y-21209819D01*
X40910712Y-21209819D02*
X40720236Y-21209819D01*
X40720236Y-21209819D02*
X40624998Y-21162200D01*
X40624998Y-21162200D02*
X40577379Y-21114580D01*
X40577379Y-21114580D02*
X40529760Y-21019342D01*
X40529760Y-21019342D02*
X40529760Y-20733628D01*
X40529760Y-20733628D02*
X40577379Y-20638390D01*
X40577379Y-20638390D02*
X40624998Y-20590771D01*
X40624998Y-20590771D02*
X40720236Y-20543152D01*
X40720236Y-20543152D02*
X40910712Y-20543152D01*
X40910712Y-20543152D02*
X41005950Y-20590771D01*
X41434522Y-21209819D02*
X41434522Y-20543152D01*
X41434522Y-20733628D02*
X41482141Y-20638390D01*
X41482141Y-20638390D02*
X41529760Y-20590771D01*
X41529760Y-20590771D02*
X41624998Y-20543152D01*
X41624998Y-20543152D02*
X41720236Y-20543152D01*
X42196427Y-21209819D02*
X42101189Y-21162200D01*
X42101189Y-21162200D02*
X42053570Y-21114580D01*
X42053570Y-21114580D02*
X42005951Y-21019342D01*
X42005951Y-21019342D02*
X42005951Y-20733628D01*
X42005951Y-20733628D02*
X42053570Y-20638390D01*
X42053570Y-20638390D02*
X42101189Y-20590771D01*
X42101189Y-20590771D02*
X42196427Y-20543152D01*
X42196427Y-20543152D02*
X42339284Y-20543152D01*
X42339284Y-20543152D02*
X42434522Y-20590771D01*
X42434522Y-20590771D02*
X42482141Y-20638390D01*
X42482141Y-20638390D02*
X42529760Y-20733628D01*
X42529760Y-20733628D02*
X42529760Y-21019342D01*
X42529760Y-21019342D02*
X42482141Y-21114580D01*
X42482141Y-21114580D02*
X42434522Y-21162200D01*
X42434522Y-21162200D02*
X42339284Y-21209819D01*
X42339284Y-21209819D02*
X42196427Y-21209819D01*
X43672618Y-21162200D02*
X43815475Y-21209819D01*
X43815475Y-21209819D02*
X44053570Y-21209819D01*
X44053570Y-21209819D02*
X44148808Y-21162200D01*
X44148808Y-21162200D02*
X44196427Y-21114580D01*
X44196427Y-21114580D02*
X44244046Y-21019342D01*
X44244046Y-21019342D02*
X44244046Y-20924104D01*
X44244046Y-20924104D02*
X44196427Y-20828866D01*
X44196427Y-20828866D02*
X44148808Y-20781247D01*
X44148808Y-20781247D02*
X44053570Y-20733628D01*
X44053570Y-20733628D02*
X43863094Y-20686009D01*
X43863094Y-20686009D02*
X43767856Y-20638390D01*
X43767856Y-20638390D02*
X43720237Y-20590771D01*
X43720237Y-20590771D02*
X43672618Y-20495533D01*
X43672618Y-20495533D02*
X43672618Y-20400295D01*
X43672618Y-20400295D02*
X43720237Y-20305057D01*
X43720237Y-20305057D02*
X43767856Y-20257438D01*
X43767856Y-20257438D02*
X43863094Y-20209819D01*
X43863094Y-20209819D02*
X44101189Y-20209819D01*
X44101189Y-20209819D02*
X44244046Y-20257438D01*
X44672618Y-21209819D02*
X44672618Y-20209819D01*
X44672618Y-20209819D02*
X44910713Y-20209819D01*
X44910713Y-20209819D02*
X45053570Y-20257438D01*
X45053570Y-20257438D02*
X45148808Y-20352676D01*
X45148808Y-20352676D02*
X45196427Y-20447914D01*
X45196427Y-20447914D02*
X45244046Y-20638390D01*
X45244046Y-20638390D02*
X45244046Y-20781247D01*
X45244046Y-20781247D02*
X45196427Y-20971723D01*
X45196427Y-20971723D02*
X45148808Y-21066961D01*
X45148808Y-21066961D02*
X45053570Y-21162200D01*
X45053570Y-21162200D02*
X44910713Y-21209819D01*
X44910713Y-21209819D02*
X44672618Y-21209819D01*
X47005951Y-21114580D02*
X46958332Y-21162200D01*
X46958332Y-21162200D02*
X46815475Y-21209819D01*
X46815475Y-21209819D02*
X46720237Y-21209819D01*
X46720237Y-21209819D02*
X46577380Y-21162200D01*
X46577380Y-21162200D02*
X46482142Y-21066961D01*
X46482142Y-21066961D02*
X46434523Y-20971723D01*
X46434523Y-20971723D02*
X46386904Y-20781247D01*
X46386904Y-20781247D02*
X46386904Y-20638390D01*
X46386904Y-20638390D02*
X46434523Y-20447914D01*
X46434523Y-20447914D02*
X46482142Y-20352676D01*
X46482142Y-20352676D02*
X46577380Y-20257438D01*
X46577380Y-20257438D02*
X46720237Y-20209819D01*
X46720237Y-20209819D02*
X46815475Y-20209819D01*
X46815475Y-20209819D02*
X46958332Y-20257438D01*
X46958332Y-20257438D02*
X47005951Y-20305057D01*
X47863094Y-21209819D02*
X47863094Y-20686009D01*
X47863094Y-20686009D02*
X47815475Y-20590771D01*
X47815475Y-20590771D02*
X47720237Y-20543152D01*
X47720237Y-20543152D02*
X47529761Y-20543152D01*
X47529761Y-20543152D02*
X47434523Y-20590771D01*
X47863094Y-21162200D02*
X47767856Y-21209819D01*
X47767856Y-21209819D02*
X47529761Y-21209819D01*
X47529761Y-21209819D02*
X47434523Y-21162200D01*
X47434523Y-21162200D02*
X47386904Y-21066961D01*
X47386904Y-21066961D02*
X47386904Y-20971723D01*
X47386904Y-20971723D02*
X47434523Y-20876485D01*
X47434523Y-20876485D02*
X47529761Y-20828866D01*
X47529761Y-20828866D02*
X47767856Y-20828866D01*
X47767856Y-20828866D02*
X47863094Y-20781247D01*
X48339285Y-21209819D02*
X48339285Y-20543152D01*
X48339285Y-20733628D02*
X48386904Y-20638390D01*
X48386904Y-20638390D02*
X48434523Y-20590771D01*
X48434523Y-20590771D02*
X48529761Y-20543152D01*
X48529761Y-20543152D02*
X48624999Y-20543152D01*
X49386904Y-21209819D02*
X49386904Y-20209819D01*
X49386904Y-21162200D02*
X49291666Y-21209819D01*
X49291666Y-21209819D02*
X49101190Y-21209819D01*
X49101190Y-21209819D02*
X49005952Y-21162200D01*
X49005952Y-21162200D02*
X48958333Y-21114580D01*
X48958333Y-21114580D02*
X48910714Y-21019342D01*
X48910714Y-21019342D02*
X48910714Y-20733628D01*
X48910714Y-20733628D02*
X48958333Y-20638390D01*
X48958333Y-20638390D02*
X49005952Y-20590771D01*
X49005952Y-20590771D02*
X49101190Y-20543152D01*
X49101190Y-20543152D02*
X49291666Y-20543152D01*
X49291666Y-20543152D02*
X49386904Y-20590771D01*
X51196428Y-21209819D02*
X50863095Y-20733628D01*
X50625000Y-21209819D02*
X50625000Y-20209819D01*
X50625000Y-20209819D02*
X51005952Y-20209819D01*
X51005952Y-20209819D02*
X51101190Y-20257438D01*
X51101190Y-20257438D02*
X51148809Y-20305057D01*
X51148809Y-20305057D02*
X51196428Y-20400295D01*
X51196428Y-20400295D02*
X51196428Y-20543152D01*
X51196428Y-20543152D02*
X51148809Y-20638390D01*
X51148809Y-20638390D02*
X51101190Y-20686009D01*
X51101190Y-20686009D02*
X51005952Y-20733628D01*
X51005952Y-20733628D02*
X50625000Y-20733628D01*
X52005952Y-21162200D02*
X51910714Y-21209819D01*
X51910714Y-21209819D02*
X51720238Y-21209819D01*
X51720238Y-21209819D02*
X51625000Y-21162200D01*
X51625000Y-21162200D02*
X51577381Y-21066961D01*
X51577381Y-21066961D02*
X51577381Y-20686009D01*
X51577381Y-20686009D02*
X51625000Y-20590771D01*
X51625000Y-20590771D02*
X51720238Y-20543152D01*
X51720238Y-20543152D02*
X51910714Y-20543152D01*
X51910714Y-20543152D02*
X52005952Y-20590771D01*
X52005952Y-20590771D02*
X52053571Y-20686009D01*
X52053571Y-20686009D02*
X52053571Y-20781247D01*
X52053571Y-20781247D02*
X51577381Y-20876485D01*
X52910714Y-21209819D02*
X52910714Y-20686009D01*
X52910714Y-20686009D02*
X52863095Y-20590771D01*
X52863095Y-20590771D02*
X52767857Y-20543152D01*
X52767857Y-20543152D02*
X52577381Y-20543152D01*
X52577381Y-20543152D02*
X52482143Y-20590771D01*
X52910714Y-21162200D02*
X52815476Y-21209819D01*
X52815476Y-21209819D02*
X52577381Y-21209819D01*
X52577381Y-21209819D02*
X52482143Y-21162200D01*
X52482143Y-21162200D02*
X52434524Y-21066961D01*
X52434524Y-21066961D02*
X52434524Y-20971723D01*
X52434524Y-20971723D02*
X52482143Y-20876485D01*
X52482143Y-20876485D02*
X52577381Y-20828866D01*
X52577381Y-20828866D02*
X52815476Y-20828866D01*
X52815476Y-20828866D02*
X52910714Y-20781247D01*
X53815476Y-21209819D02*
X53815476Y-20209819D01*
X53815476Y-21162200D02*
X53720238Y-21209819D01*
X53720238Y-21209819D02*
X53529762Y-21209819D01*
X53529762Y-21209819D02*
X53434524Y-21162200D01*
X53434524Y-21162200D02*
X53386905Y-21114580D01*
X53386905Y-21114580D02*
X53339286Y-21019342D01*
X53339286Y-21019342D02*
X53339286Y-20733628D01*
X53339286Y-20733628D02*
X53386905Y-20638390D01*
X53386905Y-20638390D02*
X53434524Y-20590771D01*
X53434524Y-20590771D02*
X53529762Y-20543152D01*
X53529762Y-20543152D02*
X53720238Y-20543152D01*
X53720238Y-20543152D02*
X53815476Y-20590771D01*
X54672619Y-21162200D02*
X54577381Y-21209819D01*
X54577381Y-21209819D02*
X54386905Y-21209819D01*
X54386905Y-21209819D02*
X54291667Y-21162200D01*
X54291667Y-21162200D02*
X54244048Y-21066961D01*
X54244048Y-21066961D02*
X54244048Y-20686009D01*
X54244048Y-20686009D02*
X54291667Y-20590771D01*
X54291667Y-20590771D02*
X54386905Y-20543152D01*
X54386905Y-20543152D02*
X54577381Y-20543152D01*
X54577381Y-20543152D02*
X54672619Y-20590771D01*
X54672619Y-20590771D02*
X54720238Y-20686009D01*
X54720238Y-20686009D02*
X54720238Y-20781247D01*
X54720238Y-20781247D02*
X54244048Y-20876485D01*
X55148810Y-21209819D02*
X55148810Y-20543152D01*
X55148810Y-20733628D02*
X55196429Y-20638390D01*
X55196429Y-20638390D02*
X55244048Y-20590771D01*
X55244048Y-20590771D02*
X55339286Y-20543152D01*
X55339286Y-20543152D02*
X55434524Y-20543152D01*
X102934066Y-20286419D02*
X102934066Y-21000704D01*
X102934066Y-21000704D02*
X102886447Y-21143561D01*
X102886447Y-21143561D02*
X102791209Y-21238800D01*
X102791209Y-21238800D02*
X102648352Y-21286419D01*
X102648352Y-21286419D02*
X102553114Y-21286419D01*
X103886447Y-20286419D02*
X103410257Y-20286419D01*
X103410257Y-20286419D02*
X103362638Y-20762609D01*
X103362638Y-20762609D02*
X103410257Y-20714990D01*
X103410257Y-20714990D02*
X103505495Y-20667371D01*
X103505495Y-20667371D02*
X103743590Y-20667371D01*
X103743590Y-20667371D02*
X103838828Y-20714990D01*
X103838828Y-20714990D02*
X103886447Y-20762609D01*
X103886447Y-20762609D02*
X103934066Y-20857847D01*
X103934066Y-20857847D02*
X103934066Y-21095942D01*
X103934066Y-21095942D02*
X103886447Y-21191180D01*
X103886447Y-21191180D02*
X103838828Y-21238800D01*
X103838828Y-21238800D02*
X103743590Y-21286419D01*
X103743590Y-21286419D02*
X103505495Y-21286419D01*
X103505495Y-21286419D02*
X103410257Y-21238800D01*
X103410257Y-21238800D02*
X103362638Y-21191180D01*
X104545141Y-24575009D02*
X104687998Y-24622628D01*
X104687998Y-24622628D02*
X104735617Y-24670247D01*
X104735617Y-24670247D02*
X104783236Y-24765485D01*
X104783236Y-24765485D02*
X104783236Y-24908342D01*
X104783236Y-24908342D02*
X104735617Y-25003580D01*
X104735617Y-25003580D02*
X104687998Y-25051200D01*
X104687998Y-25051200D02*
X104592760Y-25098819D01*
X104592760Y-25098819D02*
X104211808Y-25098819D01*
X104211808Y-25098819D02*
X104211808Y-24098819D01*
X104211808Y-24098819D02*
X104545141Y-24098819D01*
X104545141Y-24098819D02*
X104640379Y-24146438D01*
X104640379Y-24146438D02*
X104687998Y-24194057D01*
X104687998Y-24194057D02*
X104735617Y-24289295D01*
X104735617Y-24289295D02*
X104735617Y-24384533D01*
X104735617Y-24384533D02*
X104687998Y-24479771D01*
X104687998Y-24479771D02*
X104640379Y-24527390D01*
X104640379Y-24527390D02*
X104545141Y-24575009D01*
X104545141Y-24575009D02*
X104211808Y-24575009D01*
X105640379Y-25098819D02*
X105640379Y-24575009D01*
X105640379Y-24575009D02*
X105592760Y-24479771D01*
X105592760Y-24479771D02*
X105497522Y-24432152D01*
X105497522Y-24432152D02*
X105307046Y-24432152D01*
X105307046Y-24432152D02*
X105211808Y-24479771D01*
X105640379Y-25051200D02*
X105545141Y-25098819D01*
X105545141Y-25098819D02*
X105307046Y-25098819D01*
X105307046Y-25098819D02*
X105211808Y-25051200D01*
X105211808Y-25051200D02*
X105164189Y-24955961D01*
X105164189Y-24955961D02*
X105164189Y-24860723D01*
X105164189Y-24860723D02*
X105211808Y-24765485D01*
X105211808Y-24765485D02*
X105307046Y-24717866D01*
X105307046Y-24717866D02*
X105545141Y-24717866D01*
X105545141Y-24717866D02*
X105640379Y-24670247D01*
X105973713Y-24432152D02*
X106354665Y-24432152D01*
X106116570Y-24098819D02*
X106116570Y-24955961D01*
X106116570Y-24955961D02*
X106164189Y-25051200D01*
X106164189Y-25051200D02*
X106259427Y-25098819D01*
X106259427Y-25098819D02*
X106354665Y-25098819D01*
X106545142Y-24432152D02*
X106926094Y-24432152D01*
X106687999Y-24098819D02*
X106687999Y-24955961D01*
X106687999Y-24955961D02*
X106735618Y-25051200D01*
X106735618Y-25051200D02*
X106830856Y-25098819D01*
X106830856Y-25098819D02*
X106926094Y-25098819D01*
X107640380Y-25051200D02*
X107545142Y-25098819D01*
X107545142Y-25098819D02*
X107354666Y-25098819D01*
X107354666Y-25098819D02*
X107259428Y-25051200D01*
X107259428Y-25051200D02*
X107211809Y-24955961D01*
X107211809Y-24955961D02*
X107211809Y-24575009D01*
X107211809Y-24575009D02*
X107259428Y-24479771D01*
X107259428Y-24479771D02*
X107354666Y-24432152D01*
X107354666Y-24432152D02*
X107545142Y-24432152D01*
X107545142Y-24432152D02*
X107640380Y-24479771D01*
X107640380Y-24479771D02*
X107687999Y-24575009D01*
X107687999Y-24575009D02*
X107687999Y-24670247D01*
X107687999Y-24670247D02*
X107211809Y-24765485D01*
X108116571Y-25098819D02*
X108116571Y-24432152D01*
X108116571Y-24622628D02*
X108164190Y-24527390D01*
X108164190Y-24527390D02*
X108211809Y-24479771D01*
X108211809Y-24479771D02*
X108307047Y-24432152D01*
X108307047Y-24432152D02*
X108402285Y-24432152D01*
X108640381Y-24432152D02*
X108878476Y-25098819D01*
X109116571Y-24432152D02*
X108878476Y-25098819D01*
X108878476Y-25098819D02*
X108783238Y-25336914D01*
X108783238Y-25336914D02*
X108735619Y-25384533D01*
X108735619Y-25384533D02*
X108640381Y-25432152D01*
X110592762Y-24575009D02*
X110735619Y-24622628D01*
X110735619Y-24622628D02*
X110783238Y-24670247D01*
X110783238Y-24670247D02*
X110830857Y-24765485D01*
X110830857Y-24765485D02*
X110830857Y-24908342D01*
X110830857Y-24908342D02*
X110783238Y-25003580D01*
X110783238Y-25003580D02*
X110735619Y-25051200D01*
X110735619Y-25051200D02*
X110640381Y-25098819D01*
X110640381Y-25098819D02*
X110259429Y-25098819D01*
X110259429Y-25098819D02*
X110259429Y-24098819D01*
X110259429Y-24098819D02*
X110592762Y-24098819D01*
X110592762Y-24098819D02*
X110688000Y-24146438D01*
X110688000Y-24146438D02*
X110735619Y-24194057D01*
X110735619Y-24194057D02*
X110783238Y-24289295D01*
X110783238Y-24289295D02*
X110783238Y-24384533D01*
X110783238Y-24384533D02*
X110735619Y-24479771D01*
X110735619Y-24479771D02*
X110688000Y-24527390D01*
X110688000Y-24527390D02*
X110592762Y-24575009D01*
X110592762Y-24575009D02*
X110259429Y-24575009D01*
X111402286Y-25098819D02*
X111307048Y-25051200D01*
X111307048Y-25051200D02*
X111259429Y-25003580D01*
X111259429Y-25003580D02*
X111211810Y-24908342D01*
X111211810Y-24908342D02*
X111211810Y-24622628D01*
X111211810Y-24622628D02*
X111259429Y-24527390D01*
X111259429Y-24527390D02*
X111307048Y-24479771D01*
X111307048Y-24479771D02*
X111402286Y-24432152D01*
X111402286Y-24432152D02*
X111545143Y-24432152D01*
X111545143Y-24432152D02*
X111640381Y-24479771D01*
X111640381Y-24479771D02*
X111688000Y-24527390D01*
X111688000Y-24527390D02*
X111735619Y-24622628D01*
X111735619Y-24622628D02*
X111735619Y-24908342D01*
X111735619Y-24908342D02*
X111688000Y-25003580D01*
X111688000Y-25003580D02*
X111640381Y-25051200D01*
X111640381Y-25051200D02*
X111545143Y-25098819D01*
X111545143Y-25098819D02*
X111402286Y-25098819D01*
X112592762Y-25098819D02*
X112592762Y-24575009D01*
X112592762Y-24575009D02*
X112545143Y-24479771D01*
X112545143Y-24479771D02*
X112449905Y-24432152D01*
X112449905Y-24432152D02*
X112259429Y-24432152D01*
X112259429Y-24432152D02*
X112164191Y-24479771D01*
X112592762Y-25051200D02*
X112497524Y-25098819D01*
X112497524Y-25098819D02*
X112259429Y-25098819D01*
X112259429Y-25098819D02*
X112164191Y-25051200D01*
X112164191Y-25051200D02*
X112116572Y-24955961D01*
X112116572Y-24955961D02*
X112116572Y-24860723D01*
X112116572Y-24860723D02*
X112164191Y-24765485D01*
X112164191Y-24765485D02*
X112259429Y-24717866D01*
X112259429Y-24717866D02*
X112497524Y-24717866D01*
X112497524Y-24717866D02*
X112592762Y-24670247D01*
X113068953Y-25098819D02*
X113068953Y-24432152D01*
X113068953Y-24622628D02*
X113116572Y-24527390D01*
X113116572Y-24527390D02*
X113164191Y-24479771D01*
X113164191Y-24479771D02*
X113259429Y-24432152D01*
X113259429Y-24432152D02*
X113354667Y-24432152D01*
X114116572Y-25098819D02*
X114116572Y-24098819D01*
X114116572Y-25051200D02*
X114021334Y-25098819D01*
X114021334Y-25098819D02*
X113830858Y-25098819D01*
X113830858Y-25098819D02*
X113735620Y-25051200D01*
X113735620Y-25051200D02*
X113688001Y-25003580D01*
X113688001Y-25003580D02*
X113640382Y-24908342D01*
X113640382Y-24908342D02*
X113640382Y-24622628D01*
X113640382Y-24622628D02*
X113688001Y-24527390D01*
X113688001Y-24527390D02*
X113735620Y-24479771D01*
X113735620Y-24479771D02*
X113830858Y-24432152D01*
X113830858Y-24432152D02*
X114021334Y-24432152D01*
X114021334Y-24432152D02*
X114116572Y-24479771D01*
X115926096Y-25003580D02*
X115878477Y-25051200D01*
X115878477Y-25051200D02*
X115735620Y-25098819D01*
X115735620Y-25098819D02*
X115640382Y-25098819D01*
X115640382Y-25098819D02*
X115497525Y-25051200D01*
X115497525Y-25051200D02*
X115402287Y-24955961D01*
X115402287Y-24955961D02*
X115354668Y-24860723D01*
X115354668Y-24860723D02*
X115307049Y-24670247D01*
X115307049Y-24670247D02*
X115307049Y-24527390D01*
X115307049Y-24527390D02*
X115354668Y-24336914D01*
X115354668Y-24336914D02*
X115402287Y-24241676D01*
X115402287Y-24241676D02*
X115497525Y-24146438D01*
X115497525Y-24146438D02*
X115640382Y-24098819D01*
X115640382Y-24098819D02*
X115735620Y-24098819D01*
X115735620Y-24098819D02*
X115878477Y-24146438D01*
X115878477Y-24146438D02*
X115926096Y-24194057D01*
X116497525Y-25098819D02*
X116402287Y-25051200D01*
X116402287Y-25051200D02*
X116354668Y-25003580D01*
X116354668Y-25003580D02*
X116307049Y-24908342D01*
X116307049Y-24908342D02*
X116307049Y-24622628D01*
X116307049Y-24622628D02*
X116354668Y-24527390D01*
X116354668Y-24527390D02*
X116402287Y-24479771D01*
X116402287Y-24479771D02*
X116497525Y-24432152D01*
X116497525Y-24432152D02*
X116640382Y-24432152D01*
X116640382Y-24432152D02*
X116735620Y-24479771D01*
X116735620Y-24479771D02*
X116783239Y-24527390D01*
X116783239Y-24527390D02*
X116830858Y-24622628D01*
X116830858Y-24622628D02*
X116830858Y-24908342D01*
X116830858Y-24908342D02*
X116783239Y-25003580D01*
X116783239Y-25003580D02*
X116735620Y-25051200D01*
X116735620Y-25051200D02*
X116640382Y-25098819D01*
X116640382Y-25098819D02*
X116497525Y-25098819D01*
X117259430Y-24432152D02*
X117259430Y-25098819D01*
X117259430Y-24527390D02*
X117307049Y-24479771D01*
X117307049Y-24479771D02*
X117402287Y-24432152D01*
X117402287Y-24432152D02*
X117545144Y-24432152D01*
X117545144Y-24432152D02*
X117640382Y-24479771D01*
X117640382Y-24479771D02*
X117688001Y-24575009D01*
X117688001Y-24575009D02*
X117688001Y-25098819D01*
X118164192Y-24432152D02*
X118164192Y-25098819D01*
X118164192Y-24527390D02*
X118211811Y-24479771D01*
X118211811Y-24479771D02*
X118307049Y-24432152D01*
X118307049Y-24432152D02*
X118449906Y-24432152D01*
X118449906Y-24432152D02*
X118545144Y-24479771D01*
X118545144Y-24479771D02*
X118592763Y-24575009D01*
X118592763Y-24575009D02*
X118592763Y-25098819D01*
X119449906Y-25051200D02*
X119354668Y-25098819D01*
X119354668Y-25098819D02*
X119164192Y-25098819D01*
X119164192Y-25098819D02*
X119068954Y-25051200D01*
X119068954Y-25051200D02*
X119021335Y-24955961D01*
X119021335Y-24955961D02*
X119021335Y-24575009D01*
X119021335Y-24575009D02*
X119068954Y-24479771D01*
X119068954Y-24479771D02*
X119164192Y-24432152D01*
X119164192Y-24432152D02*
X119354668Y-24432152D01*
X119354668Y-24432152D02*
X119449906Y-24479771D01*
X119449906Y-24479771D02*
X119497525Y-24575009D01*
X119497525Y-24575009D02*
X119497525Y-24670247D01*
X119497525Y-24670247D02*
X119021335Y-24765485D01*
X120354668Y-25051200D02*
X120259430Y-25098819D01*
X120259430Y-25098819D02*
X120068954Y-25098819D01*
X120068954Y-25098819D02*
X119973716Y-25051200D01*
X119973716Y-25051200D02*
X119926097Y-25003580D01*
X119926097Y-25003580D02*
X119878478Y-24908342D01*
X119878478Y-24908342D02*
X119878478Y-24622628D01*
X119878478Y-24622628D02*
X119926097Y-24527390D01*
X119926097Y-24527390D02*
X119973716Y-24479771D01*
X119973716Y-24479771D02*
X120068954Y-24432152D01*
X120068954Y-24432152D02*
X120259430Y-24432152D01*
X120259430Y-24432152D02*
X120354668Y-24479771D01*
X120640383Y-24432152D02*
X121021335Y-24432152D01*
X120783240Y-24098819D02*
X120783240Y-24955961D01*
X120783240Y-24955961D02*
X120830859Y-25051200D01*
X120830859Y-25051200D02*
X120926097Y-25098819D01*
X120926097Y-25098819D02*
X121021335Y-25098819D01*
X121354669Y-25098819D02*
X121354669Y-24432152D01*
X121354669Y-24098819D02*
X121307050Y-24146438D01*
X121307050Y-24146438D02*
X121354669Y-24194057D01*
X121354669Y-24194057D02*
X121402288Y-24146438D01*
X121402288Y-24146438D02*
X121354669Y-24098819D01*
X121354669Y-24098819D02*
X121354669Y-24194057D01*
X121973716Y-25098819D02*
X121878478Y-25051200D01*
X121878478Y-25051200D02*
X121830859Y-25003580D01*
X121830859Y-25003580D02*
X121783240Y-24908342D01*
X121783240Y-24908342D02*
X121783240Y-24622628D01*
X121783240Y-24622628D02*
X121830859Y-24527390D01*
X121830859Y-24527390D02*
X121878478Y-24479771D01*
X121878478Y-24479771D02*
X121973716Y-24432152D01*
X121973716Y-24432152D02*
X122116573Y-24432152D01*
X122116573Y-24432152D02*
X122211811Y-24479771D01*
X122211811Y-24479771D02*
X122259430Y-24527390D01*
X122259430Y-24527390D02*
X122307049Y-24622628D01*
X122307049Y-24622628D02*
X122307049Y-24908342D01*
X122307049Y-24908342D02*
X122259430Y-25003580D01*
X122259430Y-25003580D02*
X122211811Y-25051200D01*
X122211811Y-25051200D02*
X122116573Y-25098819D01*
X122116573Y-25098819D02*
X121973716Y-25098819D01*
X122735621Y-24432152D02*
X122735621Y-25098819D01*
X122735621Y-24527390D02*
X122783240Y-24479771D01*
X122783240Y-24479771D02*
X122878478Y-24432152D01*
X122878478Y-24432152D02*
X123021335Y-24432152D01*
X123021335Y-24432152D02*
X123116573Y-24479771D01*
X123116573Y-24479771D02*
X123164192Y-24575009D01*
X123164192Y-24575009D02*
X123164192Y-25098819D01*
X128809905Y-19225819D02*
X128809905Y-18225819D01*
X128809905Y-18702009D02*
X129381333Y-18702009D01*
X129381333Y-19225819D02*
X129381333Y-18225819D01*
X130381333Y-19225819D02*
X129809905Y-19225819D01*
X130095619Y-19225819D02*
X130095619Y-18225819D01*
X130095619Y-18225819D02*
X130000381Y-18368676D01*
X130000381Y-18368676D02*
X129905143Y-18463914D01*
X129905143Y-18463914D02*
X129809905Y-18511533D01*
X131238476Y-18559152D02*
X131238476Y-19225819D01*
X131000381Y-18178200D02*
X130762286Y-18892485D01*
X130762286Y-18892485D02*
X131381333Y-18892485D01*
X87885714Y-75677438D02*
X87790476Y-75629819D01*
X87790476Y-75629819D02*
X87647619Y-75629819D01*
X87647619Y-75629819D02*
X87504762Y-75677438D01*
X87504762Y-75677438D02*
X87409524Y-75772676D01*
X87409524Y-75772676D02*
X87361905Y-75867914D01*
X87361905Y-75867914D02*
X87314286Y-76058390D01*
X87314286Y-76058390D02*
X87314286Y-76201247D01*
X87314286Y-76201247D02*
X87361905Y-76391723D01*
X87361905Y-76391723D02*
X87409524Y-76486961D01*
X87409524Y-76486961D02*
X87504762Y-76582200D01*
X87504762Y-76582200D02*
X87647619Y-76629819D01*
X87647619Y-76629819D02*
X87742857Y-76629819D01*
X87742857Y-76629819D02*
X87885714Y-76582200D01*
X87885714Y-76582200D02*
X87933333Y-76534580D01*
X87933333Y-76534580D02*
X87933333Y-76201247D01*
X87933333Y-76201247D02*
X87742857Y-76201247D01*
X88552381Y-76153628D02*
X88552381Y-76629819D01*
X88219048Y-75629819D02*
X88552381Y-76153628D01*
X88552381Y-76153628D02*
X88885714Y-75629819D01*
X89219048Y-76248866D02*
X89980953Y-76248866D01*
X90933333Y-75629819D02*
X90457143Y-75629819D01*
X90457143Y-75629819D02*
X90409524Y-76106009D01*
X90409524Y-76106009D02*
X90457143Y-76058390D01*
X90457143Y-76058390D02*
X90552381Y-76010771D01*
X90552381Y-76010771D02*
X90790476Y-76010771D01*
X90790476Y-76010771D02*
X90885714Y-76058390D01*
X90885714Y-76058390D02*
X90933333Y-76106009D01*
X90933333Y-76106009D02*
X90980952Y-76201247D01*
X90980952Y-76201247D02*
X90980952Y-76439342D01*
X90980952Y-76439342D02*
X90933333Y-76534580D01*
X90933333Y-76534580D02*
X90885714Y-76582200D01*
X90885714Y-76582200D02*
X90790476Y-76629819D01*
X90790476Y-76629819D02*
X90552381Y-76629819D01*
X90552381Y-76629819D02*
X90457143Y-76582200D01*
X90457143Y-76582200D02*
X90409524Y-76534580D01*
X91361905Y-75725057D02*
X91409524Y-75677438D01*
X91409524Y-75677438D02*
X91504762Y-75629819D01*
X91504762Y-75629819D02*
X91742857Y-75629819D01*
X91742857Y-75629819D02*
X91838095Y-75677438D01*
X91838095Y-75677438D02*
X91885714Y-75725057D01*
X91885714Y-75725057D02*
X91933333Y-75820295D01*
X91933333Y-75820295D02*
X91933333Y-75915533D01*
X91933333Y-75915533D02*
X91885714Y-76058390D01*
X91885714Y-76058390D02*
X91314286Y-76629819D01*
X91314286Y-76629819D02*
X91933333Y-76629819D01*
X92885714Y-76629819D02*
X92314286Y-76629819D01*
X92600000Y-76629819D02*
X92600000Y-75629819D01*
X92600000Y-75629819D02*
X92504762Y-75772676D01*
X92504762Y-75772676D02*
X92409524Y-75867914D01*
X92409524Y-75867914D02*
X92314286Y-75915533D01*
X94076191Y-76629819D02*
X94076191Y-75629819D01*
X94076191Y-75629819D02*
X94409524Y-76344104D01*
X94409524Y-76344104D02*
X94742857Y-75629819D01*
X94742857Y-75629819D02*
X94742857Y-76629819D01*
X95219048Y-76629819D02*
X95219048Y-75629819D01*
X95219048Y-75629819D02*
X95600000Y-75629819D01*
X95600000Y-75629819D02*
X95695238Y-75677438D01*
X95695238Y-75677438D02*
X95742857Y-75725057D01*
X95742857Y-75725057D02*
X95790476Y-75820295D01*
X95790476Y-75820295D02*
X95790476Y-75963152D01*
X95790476Y-75963152D02*
X95742857Y-76058390D01*
X95742857Y-76058390D02*
X95695238Y-76106009D01*
X95695238Y-76106009D02*
X95600000Y-76153628D01*
X95600000Y-76153628D02*
X95219048Y-76153628D01*
X96219048Y-75629819D02*
X96219048Y-76439342D01*
X96219048Y-76439342D02*
X96266667Y-76534580D01*
X96266667Y-76534580D02*
X96314286Y-76582200D01*
X96314286Y-76582200D02*
X96409524Y-76629819D01*
X96409524Y-76629819D02*
X96600000Y-76629819D01*
X96600000Y-76629819D02*
X96695238Y-76582200D01*
X96695238Y-76582200D02*
X96742857Y-76534580D01*
X96742857Y-76534580D02*
X96790476Y-76439342D01*
X96790476Y-76439342D02*
X96790476Y-75629819D01*
X97266667Y-76248866D02*
X98028572Y-76248866D01*
X98933333Y-75629819D02*
X98742857Y-75629819D01*
X98742857Y-75629819D02*
X98647619Y-75677438D01*
X98647619Y-75677438D02*
X98600000Y-75725057D01*
X98600000Y-75725057D02*
X98504762Y-75867914D01*
X98504762Y-75867914D02*
X98457143Y-76058390D01*
X98457143Y-76058390D02*
X98457143Y-76439342D01*
X98457143Y-76439342D02*
X98504762Y-76534580D01*
X98504762Y-76534580D02*
X98552381Y-76582200D01*
X98552381Y-76582200D02*
X98647619Y-76629819D01*
X98647619Y-76629819D02*
X98838095Y-76629819D01*
X98838095Y-76629819D02*
X98933333Y-76582200D01*
X98933333Y-76582200D02*
X98980952Y-76534580D01*
X98980952Y-76534580D02*
X99028571Y-76439342D01*
X99028571Y-76439342D02*
X99028571Y-76201247D01*
X99028571Y-76201247D02*
X98980952Y-76106009D01*
X98980952Y-76106009D02*
X98933333Y-76058390D01*
X98933333Y-76058390D02*
X98838095Y-76010771D01*
X98838095Y-76010771D02*
X98647619Y-76010771D01*
X98647619Y-76010771D02*
X98552381Y-76058390D01*
X98552381Y-76058390D02*
X98504762Y-76106009D01*
X98504762Y-76106009D02*
X98457143Y-76201247D01*
X99647619Y-75629819D02*
X99742857Y-75629819D01*
X99742857Y-75629819D02*
X99838095Y-75677438D01*
X99838095Y-75677438D02*
X99885714Y-75725057D01*
X99885714Y-75725057D02*
X99933333Y-75820295D01*
X99933333Y-75820295D02*
X99980952Y-76010771D01*
X99980952Y-76010771D02*
X99980952Y-76248866D01*
X99980952Y-76248866D02*
X99933333Y-76439342D01*
X99933333Y-76439342D02*
X99885714Y-76534580D01*
X99885714Y-76534580D02*
X99838095Y-76582200D01*
X99838095Y-76582200D02*
X99742857Y-76629819D01*
X99742857Y-76629819D02*
X99647619Y-76629819D01*
X99647619Y-76629819D02*
X99552381Y-76582200D01*
X99552381Y-76582200D02*
X99504762Y-76534580D01*
X99504762Y-76534580D02*
X99457143Y-76439342D01*
X99457143Y-76439342D02*
X99409524Y-76248866D01*
X99409524Y-76248866D02*
X99409524Y-76010771D01*
X99409524Y-76010771D02*
X99457143Y-75820295D01*
X99457143Y-75820295D02*
X99504762Y-75725057D01*
X99504762Y-75725057D02*
X99552381Y-75677438D01*
X99552381Y-75677438D02*
X99647619Y-75629819D01*
X100885714Y-75629819D02*
X100409524Y-75629819D01*
X100409524Y-75629819D02*
X100361905Y-76106009D01*
X100361905Y-76106009D02*
X100409524Y-76058390D01*
X100409524Y-76058390D02*
X100504762Y-76010771D01*
X100504762Y-76010771D02*
X100742857Y-76010771D01*
X100742857Y-76010771D02*
X100838095Y-76058390D01*
X100838095Y-76058390D02*
X100885714Y-76106009D01*
X100885714Y-76106009D02*
X100933333Y-76201247D01*
X100933333Y-76201247D02*
X100933333Y-76439342D01*
X100933333Y-76439342D02*
X100885714Y-76534580D01*
X100885714Y-76534580D02*
X100838095Y-76582200D01*
X100838095Y-76582200D02*
X100742857Y-76629819D01*
X100742857Y-76629819D02*
X100504762Y-76629819D01*
X100504762Y-76629819D02*
X100409524Y-76582200D01*
X100409524Y-76582200D02*
X100361905Y-76534580D01*
X101552381Y-75629819D02*
X101647619Y-75629819D01*
X101647619Y-75629819D02*
X101742857Y-75677438D01*
X101742857Y-75677438D02*
X101790476Y-75725057D01*
X101790476Y-75725057D02*
X101838095Y-75820295D01*
X101838095Y-75820295D02*
X101885714Y-76010771D01*
X101885714Y-76010771D02*
X101885714Y-76248866D01*
X101885714Y-76248866D02*
X101838095Y-76439342D01*
X101838095Y-76439342D02*
X101790476Y-76534580D01*
X101790476Y-76534580D02*
X101742857Y-76582200D01*
X101742857Y-76582200D02*
X101647619Y-76629819D01*
X101647619Y-76629819D02*
X101552381Y-76629819D01*
X101552381Y-76629819D02*
X101457143Y-76582200D01*
X101457143Y-76582200D02*
X101409524Y-76534580D01*
X101409524Y-76534580D02*
X101361905Y-76439342D01*
X101361905Y-76439342D02*
X101314286Y-76248866D01*
X101314286Y-76248866D02*
X101314286Y-76010771D01*
X101314286Y-76010771D02*
X101361905Y-75820295D01*
X101361905Y-75820295D02*
X101409524Y-75725057D01*
X101409524Y-75725057D02*
X101457143Y-75677438D01*
X101457143Y-75677438D02*
X101552381Y-75629819D01*
D14*
%TO.C,U1*%
X58544000Y-55855000D02*
X59844000Y-55855000D01*
X58544000Y-63855000D02*
X58544000Y-55855000D01*
X59844000Y-49355000D02*
X60094000Y-49355000D01*
X59844000Y-55855000D02*
X59844000Y-49355000D01*
X59844000Y-63855000D02*
X58544000Y-63855000D01*
X59844000Y-70355000D02*
X59844000Y-63855000D01*
X60094000Y-70355000D02*
X59844000Y-70355000D01*
X110844000Y-49355000D02*
X110594000Y-49355000D01*
X110844000Y-49355000D02*
X110844000Y-56195000D01*
X110844000Y-63515000D02*
X110844000Y-70355000D01*
X110844000Y-70355000D02*
X110594000Y-70355000D01*
D15*
X61314000Y-72045000D02*
G75*
G02*
X61114000Y-72045000I-100000J0D01*
G01*
X61114000Y-72045000D02*
G75*
G02*
X61314000Y-72045000I100000J0D01*
G01*
D16*
%TO.C,J1*%
X39450000Y-86320000D02*
X39450000Y-88980000D01*
X47130000Y-86320000D02*
X39450000Y-86320000D01*
X47130000Y-86320000D02*
X47130000Y-88980000D01*
X47130000Y-88980000D02*
X39450000Y-88980000D01*
X49730000Y-87650000D02*
X49730000Y-88980000D01*
X49730000Y-88980000D02*
X48400000Y-88980000D01*
%TO.C,J2*%
X62845000Y-89965000D02*
X64175000Y-89965000D01*
X62845000Y-91295000D02*
X62845000Y-89965000D01*
X65445000Y-89965000D02*
X80745000Y-89965000D01*
X65445000Y-92625000D02*
X65445000Y-89965000D01*
X65445000Y-92625000D02*
X80745000Y-92625000D01*
X80745000Y-92625000D02*
X80745000Y-89965000D01*
%TO.C,J6*%
X96269734Y-27970000D02*
X97599734Y-27970000D01*
X96269734Y-29300000D02*
X96269734Y-27970000D01*
X96269734Y-30570000D02*
X96269734Y-45870000D01*
X96269734Y-30570000D02*
X98869734Y-30570000D01*
X96269734Y-45870000D02*
X101469734Y-45870000D01*
X98869734Y-27970000D02*
X101469734Y-27970000D01*
X98869734Y-30570000D02*
X98869734Y-27970000D01*
X101469734Y-27970000D02*
X101469734Y-45870000D01*
%TO.C,J3*%
X115270000Y-70085000D02*
X115270000Y-78715000D01*
X116240000Y-78715000D02*
X116240000Y-79125000D01*
X116960000Y-78715000D02*
X116960000Y-79125000D01*
X117870000Y-70085000D02*
X117870000Y-78715000D01*
X118780000Y-78715000D02*
X118780000Y-79125000D01*
X119500000Y-78715000D02*
X119500000Y-79125000D01*
X120410000Y-70085000D02*
X120410000Y-78715000D01*
X121320000Y-78715000D02*
X121320000Y-79125000D01*
X122040000Y-78715000D02*
X122040000Y-79125000D01*
X122950000Y-70085000D02*
X122950000Y-78715000D01*
X123860000Y-78715000D02*
X123860000Y-79125000D01*
X124580000Y-78715000D02*
X124580000Y-79125000D01*
X125490000Y-70085000D02*
X125490000Y-78715000D01*
X126400000Y-78715000D02*
X126400000Y-79125000D01*
X127120000Y-78715000D02*
X127120000Y-79125000D01*
X128030000Y-70085000D02*
X128030000Y-78715000D01*
X128148100Y-70085000D02*
X128148100Y-78715000D01*
X128266195Y-70085000D02*
X128266195Y-78715000D01*
X128384290Y-70085000D02*
X128384290Y-78715000D01*
X128502385Y-70085000D02*
X128502385Y-78715000D01*
X128620480Y-70085000D02*
X128620480Y-78715000D01*
X128738575Y-70085000D02*
X128738575Y-78715000D01*
X128856670Y-70085000D02*
X128856670Y-78715000D01*
X128940000Y-78715000D02*
X128940000Y-79065000D01*
X128974765Y-70085000D02*
X128974765Y-78715000D01*
X129092860Y-70085000D02*
X129092860Y-78715000D01*
X129210955Y-70085000D02*
X129210955Y-78715000D01*
X129329050Y-70085000D02*
X129329050Y-78715000D01*
X129447145Y-70085000D02*
X129447145Y-78715000D01*
X129565240Y-70085000D02*
X129565240Y-78715000D01*
X129660000Y-78715000D02*
X129660000Y-79065000D01*
X129683335Y-70085000D02*
X129683335Y-78715000D01*
X129801430Y-70085000D02*
X129801430Y-78715000D01*
X129919525Y-70085000D02*
X129919525Y-78715000D01*
X130037620Y-70085000D02*
X130037620Y-78715000D01*
X130155715Y-70085000D02*
X130155715Y-78715000D01*
X130273810Y-70085000D02*
X130273810Y-78715000D01*
X130391905Y-70085000D02*
X130391905Y-78715000D01*
X130510000Y-70085000D02*
X130510000Y-78715000D01*
X130630000Y-70085000D02*
X115270000Y-70085000D01*
X130630000Y-70085000D02*
X130630000Y-78715000D01*
X130630000Y-78715000D02*
X115270000Y-78715000D01*
X130630000Y-80175000D02*
X130630000Y-81285000D01*
X130630000Y-81285000D02*
X129300000Y-81285000D01*
%TO.C,J7*%
X33410000Y-22451000D02*
X33410000Y-25111000D01*
X53790000Y-22451000D02*
X33410000Y-22451000D01*
X53790000Y-22451000D02*
X53790000Y-25111000D01*
X53790000Y-25111000D02*
X33410000Y-25111000D01*
X56390000Y-23781000D02*
X56390000Y-25111000D01*
X56390000Y-25111000D02*
X55060000Y-25111000D01*
%TO.C,J5*%
X104715000Y-20514000D02*
X106045000Y-20514000D01*
X104715000Y-21844000D02*
X104715000Y-20514000D01*
X107315000Y-20514000D02*
X117535000Y-20514000D01*
X107315000Y-23174000D02*
X107315000Y-20514000D01*
X107315000Y-23174000D02*
X117535000Y-23174000D01*
X117535000Y-23174000D02*
X117535000Y-20514000D01*
%TO.C,J4*%
X88150000Y-90820000D02*
X89480000Y-90820000D01*
X88150000Y-92150000D02*
X88150000Y-90820000D01*
X90750000Y-90820000D02*
X108590000Y-90820000D01*
X90750000Y-93480000D02*
X90750000Y-90820000D01*
X90750000Y-93480000D02*
X108590000Y-93480000D01*
X108590000Y-93480000D02*
X108590000Y-90820000D01*
%TD*%
M02*
