M48
; DRILL file {KiCad 8.0.7} date 2024-12-31T14:19:10-0800
; FORMAT={-:-/ absolute / inch / decimal}
; #@! TF.CreationDate,2024-12-31T14:19:10-08:00
; #@! TF.GenerationSoftware,Kicad,Pcbnew,8.0.7
; #@! TF.FileFunction,Plated,1,2,PTH
FMAT,2
INCH
; #@! TA.AperFunction,Plated,PTH,ComponentDrill
T1C0.0394
%
G90
G05
T1
X1.3677Y-0.9363
X1.4677Y-0.9363
X1.5677Y-0.9363
X1.6055Y-3.4508
X1.6677Y-0.9363
X1.7055Y-3.4508
X1.7677Y-0.9363
X1.8055Y-3.4508
X1.8677Y-0.9363
X1.9055Y-3.4508
X1.9677Y-0.9363
X2.0677Y-0.9363
X2.1677Y-0.9363
X2.41Y-1.975
X2.41Y-2.738
X2.51Y-1.975
X2.51Y-2.738
X2.5266Y-3.5943
X2.61Y-1.975
X2.61Y-2.738
X2.6266Y-3.5943
X2.71Y-1.975
X2.71Y-2.738
X2.7266Y-3.5943
X2.81Y-1.975
X2.81Y-2.738
X2.8266Y-3.5943
X2.91Y-1.975
X2.91Y-2.738
X2.9266Y-3.5943
X3.01Y-1.975
X3.01Y-2.738
X3.0266Y-3.5943
X3.11Y-1.975
X3.11Y-2.738
X3.1266Y-3.5943
X3.21Y-1.975
X3.21Y-2.738
X3.31Y-1.975
X3.31Y-2.738
X3.41Y-1.975
X3.41Y-2.738
X3.51Y-1.975
X3.51Y-2.738
X3.5228Y-3.628
X3.61Y-1.975
X3.61Y-2.738
X3.6228Y-3.628
X3.71Y-1.975
X3.71Y-2.738
X3.7228Y-3.628
X3.81Y-1.975
X3.81Y-2.738
X3.8228Y-3.628
X3.8425Y-1.1535
X3.8425Y-1.2535
X3.8425Y-1.3535
X3.8425Y-1.4535
X3.8425Y-1.5535
X3.8425Y-1.6535
X3.8425Y-1.7535
X3.91Y-1.975
X3.91Y-2.738
X3.9228Y-3.628
X3.9425Y-1.1535
X3.9425Y-1.2535
X3.9425Y-1.3535
X3.9425Y-1.4535
X3.9425Y-1.5535
X3.9425Y-1.6535
X3.9425Y-1.7535
X4.01Y-1.975
X4.01Y-2.738
X4.0228Y-3.628
X4.11Y-1.975
X4.11Y-2.738
X4.1228Y-3.628
X4.175Y-0.86
X4.21Y-1.975
X4.21Y-2.738
X4.2228Y-3.628
X4.275Y-0.86
X4.31Y-1.975
X4.31Y-2.738
X4.3324Y-2.2565
X4.3324Y-2.3565
X4.3324Y-2.4565
X4.375Y-0.86
X4.475Y-0.86
X4.575Y-0.86
X4.5906Y-3.1565
X4.6906Y-3.1565
X4.7906Y-3.1565
X4.8906Y-3.1565
X4.9906Y-3.1565
X5.0906Y-3.1565
M30
