%TF.GenerationSoftware,KiCad,Pcbnew,8.0.6*%
%TF.CreationDate,2024-12-23T21:06:48-08:00*%
%TF.ProjectId,Avionics Power Regulation Board Subscale,4176696f-6e69-4637-9320-506f77657220,rev?*%
%TF.SameCoordinates,Original*%
%TF.FileFunction,Soldermask,Bot*%
%TF.FilePolarity,Negative*%
%FSLAX46Y46*%
G04 Gerber Fmt 4.6, Leading zero omitted, Abs format (unit mm)*
G04 Created by KiCad (PCBNEW 8.0.6) date 2024-12-23 21:06:48*
%MOMM*%
%LPD*%
G01*
G04 APERTURE LIST*
G04 Aperture macros list*
%AMFreePoly0*
4,1,129,0.800119,0.804999,0.842119,0.803999,0.842356,0.803987,0.884356,0.800987,0.884724,0.800947,0.925724,0.794947,0.925841,0.794929,0.966841,0.787929,0.967185,0.787858,1.008185,0.777858,1.008437,0.777789,1.048437,0.765789,1.048652,0.765719,1.088652,0.751719,1.088940,0.751608,1.126940,0.735608,1.127140,0.735519,1.165140,0.717519,1.165378,0.717399,1.202378,0.697399,
1.202607,0.697266,1.238607,0.675266,1.238883,0.675085,1.272883,0.651085,1.273019,0.650985,1.306019,0.625985,1.306224,0.625821,1.338224,0.598821,1.338416,0.598651,1.369416,0.569651,1.369651,0.569416,1.398651,0.538416,1.398821,0.538224,1.425821,0.506224,1.425985,0.506019,1.450985,0.473019,1.451085,0.472883,1.475085,0.438883,1.475266,0.438607,1.497266,0.402607,
1.497399,0.402378,1.517399,0.365378,1.517519,0.365140,1.535519,0.327140,1.535608,0.326940,1.551608,0.288940,1.551719,0.288652,1.565719,0.248652,1.565789,0.248437,1.577789,0.208437,1.577858,0.208185,1.587858,0.167185,1.587929,0.166841,1.594929,0.125841,1.594947,0.125724,1.600947,0.084724,1.600987,0.084356,1.603987,0.042356,1.603999,0.042119,1.604999,0.000119,
1.604999,-0.000119,1.603999,-0.042119,1.603987,-0.042356,1.600987,-0.084356,1.600947,-0.084724,1.594947,-0.125724,1.594929,-0.125841,1.587929,-0.166841,1.587858,-0.167185,1.577858,-0.208185,1.577789,-0.208437,1.565789,-0.248437,1.565719,-0.248652,1.551719,-0.288652,1.551608,-0.288940,1.535608,-0.326940,1.535519,-0.327140,1.517519,-0.365140,1.517399,-0.365378,1.497399,-0.402378,
1.497266,-0.402607,1.475266,-0.438607,1.475085,-0.438883,1.451085,-0.472883,1.450985,-0.473019,1.425985,-0.506019,1.425821,-0.506224,1.398821,-0.538224,1.398651,-0.538416,1.369651,-0.569416,1.369416,-0.569651,1.338416,-0.598651,1.338224,-0.598821,1.306224,-0.625821,1.306019,-0.625985,1.273019,-0.650985,1.272883,-0.651085,1.238883,-0.675085,1.238607,-0.675266,1.202607,-0.697266,
1.202378,-0.697399,1.165378,-0.717399,1.165140,-0.717519,1.127140,-0.735519,1.126940,-0.735608,1.088940,-0.751608,1.088652,-0.751719,1.048652,-0.765719,1.048437,-0.765789,1.008437,-0.777789,1.008185,-0.777858,0.967185,-0.787858,0.966841,-0.787929,0.925841,-0.794929,0.925724,-0.794947,0.884724,-0.800947,0.884356,-0.800987,0.842356,-0.803987,0.842119,-0.803999,0.800119,-0.804999,
0.800000,-0.805000,-1.600000,-0.805000,-1.603536,-0.803536,-1.605000,-0.800000,-1.605000,0.800000,-1.603536,0.803536,-1.600000,0.805000,0.800000,0.805000,0.800119,0.804999,0.800119,0.804999,$1*%
%AMFreePoly1*
4,1,93,1.410453,0.804979,1.421453,0.803979,1.421498,0.803975,1.431498,0.802975,1.431894,0.802919,1.442894,0.800919,1.443437,0.800789,1.473437,0.791789,1.474031,0.791569,1.483031,0.787569,1.483236,0.787472,1.493236,0.782472,1.493428,0.782371,1.511428,0.772371,1.511774,0.772160,1.520774,0.766160,1.521293,0.765763,1.529155,0.758883,1.537000,0.753000,1.537763,0.752293,
1.544543,0.744543,1.552293,0.737763,1.553000,0.737000,1.558883,0.729155,1.565763,0.721293,1.566160,0.720774,1.572160,0.711774,1.572371,0.711428,1.582371,0.693428,1.582472,0.693236,1.587472,0.683236,1.587569,0.683031,1.591569,0.674031,1.591789,0.673437,1.600789,0.643437,1.600919,0.642894,1.602919,0.631894,1.602975,0.631498,1.603975,0.621498,1.603979,0.621453,
1.604979,0.610453,1.605000,0.610000,1.605000,-0.610000,1.604979,-0.610453,1.603979,-0.621453,1.603975,-0.621498,1.602975,-0.631498,1.602919,-0.631894,1.600919,-0.642894,1.600789,-0.643437,1.591789,-0.673437,1.591569,-0.674031,1.587569,-0.683031,1.587472,-0.683236,1.582472,-0.693236,1.582371,-0.693428,1.572371,-0.711428,1.572160,-0.711774,1.566160,-0.720774,1.565763,-0.721293,
1.558883,-0.729155,1.553000,-0.737000,1.552293,-0.737763,1.544543,-0.744543,1.537763,-0.752293,1.537000,-0.753000,1.529155,-0.758883,1.521293,-0.765763,1.520774,-0.766160,1.511774,-0.772160,1.511428,-0.772371,1.493428,-0.782371,1.493236,-0.782472,1.483236,-0.787472,1.483031,-0.787569,1.474031,-0.791569,1.473437,-0.791789,1.443437,-0.800789,1.442894,-0.800919,1.431894,-0.802919,
1.431498,-0.802975,1.421498,-0.803975,1.421453,-0.803979,1.410453,-0.804979,1.410000,-0.805000,-1.600000,-0.805000,-1.603536,-0.803536,-1.605000,-0.800000,-1.605000,0.800000,-1.603536,0.803536,-1.600000,0.805000,1.410000,0.805000,1.410453,0.804979,1.410453,0.804979,$1*%
%AMFreePoly2*
4,1,129,1.603536,0.803536,1.605000,0.800000,1.605000,-0.800000,1.603536,-0.803536,1.600000,-0.805000,-0.800000,-0.805000,-0.800119,-0.804999,-0.842119,-0.803999,-0.842356,-0.803987,-0.884356,-0.800987,-0.884724,-0.800947,-0.925724,-0.794947,-0.925841,-0.794929,-0.966841,-0.787929,-0.967185,-0.787858,-1.008185,-0.777858,-1.008437,-0.777789,-1.048437,-0.765789,-1.048652,-0.765719,-1.088652,-0.751719,
-1.088940,-0.751608,-1.126940,-0.735608,-1.127140,-0.735519,-1.165140,-0.717519,-1.165378,-0.717399,-1.202378,-0.697399,-1.202607,-0.697266,-1.238607,-0.675266,-1.238883,-0.675085,-1.272883,-0.651085,-1.273019,-0.650985,-1.306019,-0.625985,-1.306224,-0.625821,-1.338224,-0.598821,-1.338416,-0.598651,-1.369416,-0.569651,-1.369651,-0.569416,-1.398651,-0.538416,-1.398821,-0.538224,-1.425821,-0.506224,
-1.425985,-0.506019,-1.450985,-0.473019,-1.451085,-0.472883,-1.475085,-0.438883,-1.475266,-0.438607,-1.497266,-0.402607,-1.497399,-0.402378,-1.517399,-0.365378,-1.517519,-0.365140,-1.535519,-0.327140,-1.535608,-0.326940,-1.551608,-0.288940,-1.551719,-0.288652,-1.565719,-0.248652,-1.565789,-0.248437,-1.577789,-0.208437,-1.577858,-0.208185,-1.587858,-0.167185,-1.587929,-0.166841,-1.594929,-0.125841,
-1.594947,-0.125724,-1.600947,-0.084724,-1.600987,-0.084356,-1.603987,-0.042356,-1.603999,-0.042119,-1.604999,-0.000119,-1.604999,0.000119,-1.603999,0.042119,-1.603987,0.042356,-1.600987,0.084356,-1.600947,0.084724,-1.594947,0.125724,-1.594929,0.125841,-1.587929,0.166841,-1.587858,0.167185,-1.577858,0.208185,-1.577789,0.208437,-1.565789,0.248437,-1.565719,0.248652,-1.551719,0.288652,
-1.551608,0.288940,-1.535608,0.326940,-1.535519,0.327140,-1.517519,0.365140,-1.517399,0.365378,-1.497399,0.402378,-1.497266,0.402607,-1.475266,0.438607,-1.475085,0.438883,-1.451085,0.472883,-1.450985,0.473019,-1.425985,0.506019,-1.425821,0.506224,-1.398821,0.538224,-1.398651,0.538416,-1.369651,0.569416,-1.369416,0.569651,-1.338416,0.598651,-1.338224,0.598821,-1.306224,0.625821,
-1.306019,0.625985,-1.273019,0.650985,-1.272883,0.651085,-1.238883,0.675085,-1.238607,0.675266,-1.202607,0.697266,-1.202378,0.697399,-1.165378,0.717399,-1.165140,0.717519,-1.127140,0.735519,-1.126940,0.735608,-1.088940,0.751608,-1.088652,0.751719,-1.048652,0.765719,-1.048437,0.765789,-1.008437,0.777789,-1.008185,0.777858,-0.967185,0.787858,-0.966841,0.787929,-0.925841,0.794929,
-0.925724,0.794947,-0.884724,0.800947,-0.884356,0.800987,-0.842356,0.803987,-0.842119,0.803999,-0.800119,0.804999,-0.800000,0.805000,1.600000,0.805000,1.603536,0.803536,1.603536,0.803536,$1*%
%AMFreePoly3*
4,1,93,1.603536,0.803536,1.605000,0.800000,1.605000,-0.800000,1.603536,-0.803536,1.600000,-0.805000,-1.410000,-0.805000,-1.410453,-0.804979,-1.421453,-0.803979,-1.421498,-0.803975,-1.431498,-0.802975,-1.431894,-0.802919,-1.442894,-0.800919,-1.443437,-0.800789,-1.473437,-0.791789,-1.474031,-0.791569,-1.483031,-0.787569,-1.483236,-0.787472,-1.493236,-0.782472,-1.493428,-0.782371,-1.511428,-0.772371,
-1.511774,-0.772160,-1.520774,-0.766160,-1.521293,-0.765763,-1.529155,-0.758883,-1.537000,-0.753000,-1.537763,-0.752293,-1.544543,-0.744543,-1.552293,-0.737763,-1.553000,-0.737000,-1.558883,-0.729155,-1.565763,-0.721293,-1.566160,-0.720774,-1.572160,-0.711774,-1.572371,-0.711428,-1.582371,-0.693428,-1.582472,-0.693236,-1.587472,-0.683236,-1.587569,-0.683031,-1.591569,-0.674031,-1.591789,-0.673437,
-1.600789,-0.643437,-1.600919,-0.642894,-1.602919,-0.631894,-1.602975,-0.631498,-1.603975,-0.621498,-1.603979,-0.621453,-1.604979,-0.610453,-1.605000,-0.610000,-1.605000,0.610000,-1.604979,0.610453,-1.603979,0.621453,-1.603975,0.621498,-1.602975,0.631498,-1.602919,0.631894,-1.600919,0.642894,-1.600789,0.643437,-1.591789,0.673437,-1.591569,0.674031,-1.587569,0.683031,-1.587472,0.683236,
-1.582472,0.693236,-1.582371,0.693428,-1.572371,0.711428,-1.572160,0.711774,-1.566160,0.720774,-1.565763,0.721293,-1.558883,0.729155,-1.553000,0.737000,-1.552293,0.737763,-1.544543,0.744543,-1.537763,0.752293,-1.537000,0.753000,-1.529155,0.758883,-1.521293,0.765763,-1.520774,0.766160,-1.511774,0.772160,-1.511428,0.772371,-1.493428,0.782371,-1.493236,0.782472,-1.483236,0.787472,
-1.483031,0.787569,-1.474031,0.791569,-1.473437,0.791789,-1.443437,0.800789,-1.442894,0.800919,-1.431894,0.802919,-1.431498,0.802975,-1.421498,0.803975,-1.421453,0.803979,-1.410453,0.804979,-1.410000,0.805000,1.600000,0.805000,1.603536,0.803536,1.603536,0.803536,$1*%
%AMFreePoly4*
4,1,129,0.042119,1.603999,0.042356,1.603987,0.084356,1.600987,0.084724,1.600947,0.125724,1.594947,0.125841,1.594929,0.166841,1.587929,0.167185,1.587858,0.208185,1.577858,0.208437,1.577789,0.248437,1.565789,0.248652,1.565719,0.288652,1.551719,0.288940,1.551608,0.326940,1.535608,0.327140,1.535519,0.365140,1.517519,0.365378,1.517399,0.402378,1.497399,0.402607,1.497266,
0.438607,1.475266,0.438883,1.475085,0.472883,1.451085,0.473019,1.450985,0.506019,1.425985,0.506224,1.425821,0.538224,1.398821,0.538416,1.398651,0.569416,1.369651,0.569651,1.369416,0.598651,1.338416,0.598821,1.338224,0.625821,1.306224,0.625985,1.306019,0.650985,1.273019,0.651085,1.272883,0.675085,1.238883,0.675266,1.238607,0.697266,1.202607,0.697399,1.202378,
0.717399,1.165378,0.717519,1.165140,0.735519,1.127140,0.735608,1.126940,0.751608,1.088940,0.751719,1.088652,0.765719,1.048652,0.765789,1.048437,0.777789,1.008437,0.777858,1.008185,0.787858,0.967185,0.787929,0.966841,0.794929,0.925841,0.794947,0.925724,0.800947,0.884724,0.800987,0.884356,0.803987,0.842356,0.803999,0.842119,0.804999,0.800119,0.805000,0.800000,
0.805000,-1.600000,0.803536,-1.603536,0.800000,-1.605000,-0.800000,-1.605000,-0.803536,-1.603536,-0.805000,-1.600000,-0.805000,0.800000,-0.804999,0.800119,-0.803999,0.842119,-0.803987,0.842356,-0.800987,0.884356,-0.800947,0.884724,-0.794947,0.925724,-0.794929,0.925841,-0.787929,0.966841,-0.787858,0.967185,-0.777858,1.008185,-0.777789,1.008437,-0.765789,1.048437,-0.765719,1.048652,
-0.751719,1.088652,-0.751608,1.088940,-0.735608,1.126940,-0.735519,1.127140,-0.717519,1.165140,-0.717399,1.165378,-0.697399,1.202378,-0.697266,1.202607,-0.675266,1.238607,-0.675085,1.238883,-0.651085,1.272883,-0.650985,1.273019,-0.625985,1.306019,-0.625821,1.306224,-0.598821,1.338224,-0.598651,1.338416,-0.569651,1.369416,-0.569416,1.369651,-0.538416,1.398651,-0.538224,1.398821,
-0.506224,1.425821,-0.506019,1.425985,-0.473019,1.450985,-0.472883,1.451085,-0.438883,1.475085,-0.438607,1.475266,-0.402607,1.497266,-0.402378,1.497399,-0.365378,1.517399,-0.365140,1.517519,-0.327140,1.535519,-0.326940,1.535608,-0.288940,1.551608,-0.288652,1.551719,-0.248652,1.565719,-0.248437,1.565789,-0.208437,1.577789,-0.208185,1.577858,-0.167185,1.587858,-0.166841,1.587929,
-0.125841,1.594929,-0.125724,1.594947,-0.084724,1.600947,-0.084356,1.600987,-0.042356,1.603987,-0.042119,1.603999,-0.000119,1.604999,0.000119,1.604999,0.042119,1.603999,0.042119,1.603999,$1*%
%AMFreePoly5*
4,1,93,0.610453,1.604979,0.621453,1.603979,0.621498,1.603975,0.631498,1.602975,0.631894,1.602919,0.642894,1.600919,0.643437,1.600789,0.673437,1.591789,0.674031,1.591569,0.683031,1.587569,0.683236,1.587472,0.693236,1.582472,0.693428,1.582371,0.711428,1.572371,0.711774,1.572160,0.720774,1.566160,0.721293,1.565763,0.729155,1.558883,0.737000,1.553000,0.737763,1.552293,
0.744543,1.544543,0.752293,1.537763,0.753000,1.537000,0.758883,1.529155,0.765763,1.521293,0.766160,1.520774,0.772160,1.511774,0.772371,1.511428,0.782371,1.493428,0.782472,1.493236,0.787472,1.483236,0.787569,1.483031,0.791569,1.474031,0.791789,1.473437,0.800789,1.443437,0.800919,1.442894,0.802919,1.431894,0.802975,1.431498,0.803975,1.421498,0.803979,1.421453,
0.804979,1.410453,0.805000,1.410000,0.805000,-1.600000,0.803536,-1.603536,0.800000,-1.605000,-0.800000,-1.605000,-0.803536,-1.603536,-0.805000,-1.600000,-0.805000,1.410000,-0.804979,1.410453,-0.803979,1.421453,-0.803975,1.421498,-0.802975,1.431498,-0.802919,1.431894,-0.800919,1.442894,-0.800789,1.443437,-0.791789,1.473437,-0.791569,1.474031,-0.787569,1.483031,-0.787472,1.483236,
-0.782472,1.493236,-0.782371,1.493428,-0.772371,1.511428,-0.772160,1.511774,-0.766160,1.520774,-0.765763,1.521293,-0.758883,1.529155,-0.753000,1.537000,-0.752293,1.537763,-0.744543,1.544543,-0.737763,1.552293,-0.737000,1.553000,-0.729155,1.558883,-0.721293,1.565763,-0.720774,1.566160,-0.711774,1.572160,-0.711428,1.572371,-0.693428,1.582371,-0.693236,1.582472,-0.683236,1.587472,
-0.683031,1.587569,-0.674031,1.591569,-0.673437,1.591789,-0.643437,1.600789,-0.642894,1.600919,-0.631894,1.602919,-0.631498,1.602975,-0.621498,1.603975,-0.621453,1.603979,-0.610453,1.604979,-0.610000,1.605000,0.610000,1.605000,0.610453,1.604979,0.610453,1.604979,$1*%
G04 Aperture macros list end*
%ADD10C,0.100000*%
%ADD11C,0.150000*%
%ADD12C,0.300000*%
%ADD13C,0.400000*%
%ADD14C,3.800000*%
%ADD15FreePoly0,0.000000*%
%ADD16FreePoly1,0.000000*%
%ADD17FreePoly2,0.000000*%
%ADD18FreePoly3,0.000000*%
%ADD19FreePoly4,0.000000*%
%ADD20FreePoly5,0.000000*%
%ADD21R,1.700000X1.700000*%
%ADD22O,1.700000X1.700000*%
%ADD23C,3.000000*%
G04 APERTURE END LIST*
D10*
D11*
X177002200Y-166007200D02*
X285002200Y-166007200D01*
X285002200Y-198007200D01*
X177002200Y-198007200D01*
X177002200Y-166007200D01*
D10*
D11*
X10000000Y-10000000D02*
X287002200Y-10000000D01*
X287002200Y-200007200D01*
X10000000Y-200007200D01*
X10000000Y-10000000D01*
D10*
D11*
X12000000Y-12000000D02*
X285002200Y-12000000D01*
X285002200Y-198007200D01*
X12000000Y-198007200D01*
X12000000Y-12000000D01*
D10*
D11*
X60000000Y-12000000D02*
X60000000Y-10000000D01*
D10*
D11*
X110000000Y-12000000D02*
X110000000Y-10000000D01*
D10*
D11*
X160000000Y-12000000D02*
X160000000Y-10000000D01*
D10*
D11*
X210000000Y-12000000D02*
X210000000Y-10000000D01*
D10*
D11*
X260000000Y-12000000D02*
X260000000Y-10000000D01*
D10*
D11*
X36089160Y-11593604D02*
X35346303Y-11593604D01*
X35717731Y-11593604D02*
X35717731Y-10293604D01*
X35717731Y-10293604D02*
X35593922Y-10479319D01*
X35593922Y-10479319D02*
X35470112Y-10603128D01*
X35470112Y-10603128D02*
X35346303Y-10665033D01*
D10*
D11*
X85346303Y-10417414D02*
X85408207Y-10355509D01*
X85408207Y-10355509D02*
X85532017Y-10293604D01*
X85532017Y-10293604D02*
X85841541Y-10293604D01*
X85841541Y-10293604D02*
X85965350Y-10355509D01*
X85965350Y-10355509D02*
X86027255Y-10417414D01*
X86027255Y-10417414D02*
X86089160Y-10541223D01*
X86089160Y-10541223D02*
X86089160Y-10665033D01*
X86089160Y-10665033D02*
X86027255Y-10850747D01*
X86027255Y-10850747D02*
X85284398Y-11593604D01*
X85284398Y-11593604D02*
X86089160Y-11593604D01*
D10*
D11*
X135284398Y-10293604D02*
X136089160Y-10293604D01*
X136089160Y-10293604D02*
X135655826Y-10788842D01*
X135655826Y-10788842D02*
X135841541Y-10788842D01*
X135841541Y-10788842D02*
X135965350Y-10850747D01*
X135965350Y-10850747D02*
X136027255Y-10912652D01*
X136027255Y-10912652D02*
X136089160Y-11036461D01*
X136089160Y-11036461D02*
X136089160Y-11345985D01*
X136089160Y-11345985D02*
X136027255Y-11469795D01*
X136027255Y-11469795D02*
X135965350Y-11531700D01*
X135965350Y-11531700D02*
X135841541Y-11593604D01*
X135841541Y-11593604D02*
X135470112Y-11593604D01*
X135470112Y-11593604D02*
X135346303Y-11531700D01*
X135346303Y-11531700D02*
X135284398Y-11469795D01*
D10*
D11*
X185965350Y-10726938D02*
X185965350Y-11593604D01*
X185655826Y-10231700D02*
X185346303Y-11160271D01*
X185346303Y-11160271D02*
X186151064Y-11160271D01*
D10*
D11*
X236027255Y-10293604D02*
X235408207Y-10293604D01*
X235408207Y-10293604D02*
X235346303Y-10912652D01*
X235346303Y-10912652D02*
X235408207Y-10850747D01*
X235408207Y-10850747D02*
X235532017Y-10788842D01*
X235532017Y-10788842D02*
X235841541Y-10788842D01*
X235841541Y-10788842D02*
X235965350Y-10850747D01*
X235965350Y-10850747D02*
X236027255Y-10912652D01*
X236027255Y-10912652D02*
X236089160Y-11036461D01*
X236089160Y-11036461D02*
X236089160Y-11345985D01*
X236089160Y-11345985D02*
X236027255Y-11469795D01*
X236027255Y-11469795D02*
X235965350Y-11531700D01*
X235965350Y-11531700D02*
X235841541Y-11593604D01*
X235841541Y-11593604D02*
X235532017Y-11593604D01*
X235532017Y-11593604D02*
X235408207Y-11531700D01*
X235408207Y-11531700D02*
X235346303Y-11469795D01*
D10*
D11*
X285965350Y-10293604D02*
X285717731Y-10293604D01*
X285717731Y-10293604D02*
X285593922Y-10355509D01*
X285593922Y-10355509D02*
X285532017Y-10417414D01*
X285532017Y-10417414D02*
X285408207Y-10603128D01*
X285408207Y-10603128D02*
X285346303Y-10850747D01*
X285346303Y-10850747D02*
X285346303Y-11345985D01*
X285346303Y-11345985D02*
X285408207Y-11469795D01*
X285408207Y-11469795D02*
X285470112Y-11531700D01*
X285470112Y-11531700D02*
X285593922Y-11593604D01*
X285593922Y-11593604D02*
X285841541Y-11593604D01*
X285841541Y-11593604D02*
X285965350Y-11531700D01*
X285965350Y-11531700D02*
X286027255Y-11469795D01*
X286027255Y-11469795D02*
X286089160Y-11345985D01*
X286089160Y-11345985D02*
X286089160Y-11036461D01*
X286089160Y-11036461D02*
X286027255Y-10912652D01*
X286027255Y-10912652D02*
X285965350Y-10850747D01*
X285965350Y-10850747D02*
X285841541Y-10788842D01*
X285841541Y-10788842D02*
X285593922Y-10788842D01*
X285593922Y-10788842D02*
X285470112Y-10850747D01*
X285470112Y-10850747D02*
X285408207Y-10912652D01*
X285408207Y-10912652D02*
X285346303Y-11036461D01*
D10*
D11*
X60000000Y-198007200D02*
X60000000Y-200007200D01*
D10*
D11*
X110000000Y-198007200D02*
X110000000Y-200007200D01*
D10*
D11*
X160000000Y-198007200D02*
X160000000Y-200007200D01*
D10*
D11*
X210000000Y-198007200D02*
X210000000Y-200007200D01*
D10*
D11*
X260000000Y-198007200D02*
X260000000Y-200007200D01*
D10*
D11*
X36089160Y-199600804D02*
X35346303Y-199600804D01*
X35717731Y-199600804D02*
X35717731Y-198300804D01*
X35717731Y-198300804D02*
X35593922Y-198486519D01*
X35593922Y-198486519D02*
X35470112Y-198610328D01*
X35470112Y-198610328D02*
X35346303Y-198672233D01*
D10*
D11*
X85346303Y-198424614D02*
X85408207Y-198362709D01*
X85408207Y-198362709D02*
X85532017Y-198300804D01*
X85532017Y-198300804D02*
X85841541Y-198300804D01*
X85841541Y-198300804D02*
X85965350Y-198362709D01*
X85965350Y-198362709D02*
X86027255Y-198424614D01*
X86027255Y-198424614D02*
X86089160Y-198548423D01*
X86089160Y-198548423D02*
X86089160Y-198672233D01*
X86089160Y-198672233D02*
X86027255Y-198857947D01*
X86027255Y-198857947D02*
X85284398Y-199600804D01*
X85284398Y-199600804D02*
X86089160Y-199600804D01*
D10*
D11*
X135284398Y-198300804D02*
X136089160Y-198300804D01*
X136089160Y-198300804D02*
X135655826Y-198796042D01*
X135655826Y-198796042D02*
X135841541Y-198796042D01*
X135841541Y-198796042D02*
X135965350Y-198857947D01*
X135965350Y-198857947D02*
X136027255Y-198919852D01*
X136027255Y-198919852D02*
X136089160Y-199043661D01*
X136089160Y-199043661D02*
X136089160Y-199353185D01*
X136089160Y-199353185D02*
X136027255Y-199476995D01*
X136027255Y-199476995D02*
X135965350Y-199538900D01*
X135965350Y-199538900D02*
X135841541Y-199600804D01*
X135841541Y-199600804D02*
X135470112Y-199600804D01*
X135470112Y-199600804D02*
X135346303Y-199538900D01*
X135346303Y-199538900D02*
X135284398Y-199476995D01*
D10*
D11*
X185965350Y-198734138D02*
X185965350Y-199600804D01*
X185655826Y-198238900D02*
X185346303Y-199167471D01*
X185346303Y-199167471D02*
X186151064Y-199167471D01*
D10*
D11*
X236027255Y-198300804D02*
X235408207Y-198300804D01*
X235408207Y-198300804D02*
X235346303Y-198919852D01*
X235346303Y-198919852D02*
X235408207Y-198857947D01*
X235408207Y-198857947D02*
X235532017Y-198796042D01*
X235532017Y-198796042D02*
X235841541Y-198796042D01*
X235841541Y-198796042D02*
X235965350Y-198857947D01*
X235965350Y-198857947D02*
X236027255Y-198919852D01*
X236027255Y-198919852D02*
X236089160Y-199043661D01*
X236089160Y-199043661D02*
X236089160Y-199353185D01*
X236089160Y-199353185D02*
X236027255Y-199476995D01*
X236027255Y-199476995D02*
X235965350Y-199538900D01*
X235965350Y-199538900D02*
X235841541Y-199600804D01*
X235841541Y-199600804D02*
X235532017Y-199600804D01*
X235532017Y-199600804D02*
X235408207Y-199538900D01*
X235408207Y-199538900D02*
X235346303Y-199476995D01*
D10*
D11*
X285965350Y-198300804D02*
X285717731Y-198300804D01*
X285717731Y-198300804D02*
X285593922Y-198362709D01*
X285593922Y-198362709D02*
X285532017Y-198424614D01*
X285532017Y-198424614D02*
X285408207Y-198610328D01*
X285408207Y-198610328D02*
X285346303Y-198857947D01*
X285346303Y-198857947D02*
X285346303Y-199353185D01*
X285346303Y-199353185D02*
X285408207Y-199476995D01*
X285408207Y-199476995D02*
X285470112Y-199538900D01*
X285470112Y-199538900D02*
X285593922Y-199600804D01*
X285593922Y-199600804D02*
X285841541Y-199600804D01*
X285841541Y-199600804D02*
X285965350Y-199538900D01*
X285965350Y-199538900D02*
X286027255Y-199476995D01*
X286027255Y-199476995D02*
X286089160Y-199353185D01*
X286089160Y-199353185D02*
X286089160Y-199043661D01*
X286089160Y-199043661D02*
X286027255Y-198919852D01*
X286027255Y-198919852D02*
X285965350Y-198857947D01*
X285965350Y-198857947D02*
X285841541Y-198796042D01*
X285841541Y-198796042D02*
X285593922Y-198796042D01*
X285593922Y-198796042D02*
X285470112Y-198857947D01*
X285470112Y-198857947D02*
X285408207Y-198919852D01*
X285408207Y-198919852D02*
X285346303Y-199043661D01*
D10*
D11*
X10000000Y-60000000D02*
X12000000Y-60000000D01*
D10*
D11*
X10000000Y-110000000D02*
X12000000Y-110000000D01*
D10*
D11*
X10000000Y-160000000D02*
X12000000Y-160000000D01*
D10*
D11*
X10690476Y-35222176D02*
X11309523Y-35222176D01*
X10566666Y-35593604D02*
X10999999Y-34293604D01*
X10999999Y-34293604D02*
X11433333Y-35593604D01*
D10*
D11*
X11092857Y-84912652D02*
X11278571Y-84974557D01*
X11278571Y-84974557D02*
X11340476Y-85036461D01*
X11340476Y-85036461D02*
X11402380Y-85160271D01*
X11402380Y-85160271D02*
X11402380Y-85345985D01*
X11402380Y-85345985D02*
X11340476Y-85469795D01*
X11340476Y-85469795D02*
X11278571Y-85531700D01*
X11278571Y-85531700D02*
X11154761Y-85593604D01*
X11154761Y-85593604D02*
X10659523Y-85593604D01*
X10659523Y-85593604D02*
X10659523Y-84293604D01*
X10659523Y-84293604D02*
X11092857Y-84293604D01*
X11092857Y-84293604D02*
X11216666Y-84355509D01*
X11216666Y-84355509D02*
X11278571Y-84417414D01*
X11278571Y-84417414D02*
X11340476Y-84541223D01*
X11340476Y-84541223D02*
X11340476Y-84665033D01*
X11340476Y-84665033D02*
X11278571Y-84788842D01*
X11278571Y-84788842D02*
X11216666Y-84850747D01*
X11216666Y-84850747D02*
X11092857Y-84912652D01*
X11092857Y-84912652D02*
X10659523Y-84912652D01*
D10*
D11*
X11402380Y-135469795D02*
X11340476Y-135531700D01*
X11340476Y-135531700D02*
X11154761Y-135593604D01*
X11154761Y-135593604D02*
X11030952Y-135593604D01*
X11030952Y-135593604D02*
X10845238Y-135531700D01*
X10845238Y-135531700D02*
X10721428Y-135407890D01*
X10721428Y-135407890D02*
X10659523Y-135284080D01*
X10659523Y-135284080D02*
X10597619Y-135036461D01*
X10597619Y-135036461D02*
X10597619Y-134850747D01*
X10597619Y-134850747D02*
X10659523Y-134603128D01*
X10659523Y-134603128D02*
X10721428Y-134479319D01*
X10721428Y-134479319D02*
X10845238Y-134355509D01*
X10845238Y-134355509D02*
X11030952Y-134293604D01*
X11030952Y-134293604D02*
X11154761Y-134293604D01*
X11154761Y-134293604D02*
X11340476Y-134355509D01*
X11340476Y-134355509D02*
X11402380Y-134417414D01*
D10*
D11*
X10659523Y-185593604D02*
X10659523Y-184293604D01*
X10659523Y-184293604D02*
X10969047Y-184293604D01*
X10969047Y-184293604D02*
X11154761Y-184355509D01*
X11154761Y-184355509D02*
X11278571Y-184479319D01*
X11278571Y-184479319D02*
X11340476Y-184603128D01*
X11340476Y-184603128D02*
X11402380Y-184850747D01*
X11402380Y-184850747D02*
X11402380Y-185036461D01*
X11402380Y-185036461D02*
X11340476Y-185284080D01*
X11340476Y-185284080D02*
X11278571Y-185407890D01*
X11278571Y-185407890D02*
X11154761Y-185531700D01*
X11154761Y-185531700D02*
X10969047Y-185593604D01*
X10969047Y-185593604D02*
X10659523Y-185593604D01*
D10*
D11*
X287002200Y-60000000D02*
X285002200Y-60000000D01*
D10*
D11*
X287002200Y-110000000D02*
X285002200Y-110000000D01*
D10*
D11*
X287002200Y-160000000D02*
X285002200Y-160000000D01*
D10*
D11*
X285692676Y-35222176D02*
X286311723Y-35222176D01*
X285568866Y-35593604D02*
X286002199Y-34293604D01*
X286002199Y-34293604D02*
X286435533Y-35593604D01*
D10*
D11*
X286095057Y-84912652D02*
X286280771Y-84974557D01*
X286280771Y-84974557D02*
X286342676Y-85036461D01*
X286342676Y-85036461D02*
X286404580Y-85160271D01*
X286404580Y-85160271D02*
X286404580Y-85345985D01*
X286404580Y-85345985D02*
X286342676Y-85469795D01*
X286342676Y-85469795D02*
X286280771Y-85531700D01*
X286280771Y-85531700D02*
X286156961Y-85593604D01*
X286156961Y-85593604D02*
X285661723Y-85593604D01*
X285661723Y-85593604D02*
X285661723Y-84293604D01*
X285661723Y-84293604D02*
X286095057Y-84293604D01*
X286095057Y-84293604D02*
X286218866Y-84355509D01*
X286218866Y-84355509D02*
X286280771Y-84417414D01*
X286280771Y-84417414D02*
X286342676Y-84541223D01*
X286342676Y-84541223D02*
X286342676Y-84665033D01*
X286342676Y-84665033D02*
X286280771Y-84788842D01*
X286280771Y-84788842D02*
X286218866Y-84850747D01*
X286218866Y-84850747D02*
X286095057Y-84912652D01*
X286095057Y-84912652D02*
X285661723Y-84912652D01*
D10*
D11*
X286404580Y-135469795D02*
X286342676Y-135531700D01*
X286342676Y-135531700D02*
X286156961Y-135593604D01*
X286156961Y-135593604D02*
X286033152Y-135593604D01*
X286033152Y-135593604D02*
X285847438Y-135531700D01*
X285847438Y-135531700D02*
X285723628Y-135407890D01*
X285723628Y-135407890D02*
X285661723Y-135284080D01*
X285661723Y-135284080D02*
X285599819Y-135036461D01*
X285599819Y-135036461D02*
X285599819Y-134850747D01*
X285599819Y-134850747D02*
X285661723Y-134603128D01*
X285661723Y-134603128D02*
X285723628Y-134479319D01*
X285723628Y-134479319D02*
X285847438Y-134355509D01*
X285847438Y-134355509D02*
X286033152Y-134293604D01*
X286033152Y-134293604D02*
X286156961Y-134293604D01*
X286156961Y-134293604D02*
X286342676Y-134355509D01*
X286342676Y-134355509D02*
X286404580Y-134417414D01*
D10*
D11*
X285661723Y-185593604D02*
X285661723Y-184293604D01*
X285661723Y-184293604D02*
X285971247Y-184293604D01*
X285971247Y-184293604D02*
X286156961Y-184355509D01*
X286156961Y-184355509D02*
X286280771Y-184479319D01*
X286280771Y-184479319D02*
X286342676Y-184603128D01*
X286342676Y-184603128D02*
X286404580Y-184850747D01*
X286404580Y-184850747D02*
X286404580Y-185036461D01*
X286404580Y-185036461D02*
X286342676Y-185284080D01*
X286342676Y-185284080D02*
X286280771Y-185407890D01*
X286280771Y-185407890D02*
X286156961Y-185531700D01*
X286156961Y-185531700D02*
X285971247Y-185593604D01*
X285971247Y-185593604D02*
X285661723Y-185593604D01*
D10*
D11*
X200458026Y-193793328D02*
X200458026Y-192293328D01*
X200458026Y-192293328D02*
X200815169Y-192293328D01*
X200815169Y-192293328D02*
X201029455Y-192364757D01*
X201029455Y-192364757D02*
X201172312Y-192507614D01*
X201172312Y-192507614D02*
X201243741Y-192650471D01*
X201243741Y-192650471D02*
X201315169Y-192936185D01*
X201315169Y-192936185D02*
X201315169Y-193150471D01*
X201315169Y-193150471D02*
X201243741Y-193436185D01*
X201243741Y-193436185D02*
X201172312Y-193579042D01*
X201172312Y-193579042D02*
X201029455Y-193721900D01*
X201029455Y-193721900D02*
X200815169Y-193793328D01*
X200815169Y-193793328D02*
X200458026Y-193793328D01*
X202600884Y-193793328D02*
X202600884Y-193007614D01*
X202600884Y-193007614D02*
X202529455Y-192864757D01*
X202529455Y-192864757D02*
X202386598Y-192793328D01*
X202386598Y-192793328D02*
X202100884Y-192793328D01*
X202100884Y-192793328D02*
X201958026Y-192864757D01*
X202600884Y-193721900D02*
X202458026Y-193793328D01*
X202458026Y-193793328D02*
X202100884Y-193793328D01*
X202100884Y-193793328D02*
X201958026Y-193721900D01*
X201958026Y-193721900D02*
X201886598Y-193579042D01*
X201886598Y-193579042D02*
X201886598Y-193436185D01*
X201886598Y-193436185D02*
X201958026Y-193293328D01*
X201958026Y-193293328D02*
X202100884Y-193221900D01*
X202100884Y-193221900D02*
X202458026Y-193221900D01*
X202458026Y-193221900D02*
X202600884Y-193150471D01*
X203100884Y-192793328D02*
X203672312Y-192793328D01*
X203315169Y-192293328D02*
X203315169Y-193579042D01*
X203315169Y-193579042D02*
X203386598Y-193721900D01*
X203386598Y-193721900D02*
X203529455Y-193793328D01*
X203529455Y-193793328D02*
X203672312Y-193793328D01*
X204743741Y-193721900D02*
X204600884Y-193793328D01*
X204600884Y-193793328D02*
X204315170Y-193793328D01*
X204315170Y-193793328D02*
X204172312Y-193721900D01*
X204172312Y-193721900D02*
X204100884Y-193579042D01*
X204100884Y-193579042D02*
X204100884Y-193007614D01*
X204100884Y-193007614D02*
X204172312Y-192864757D01*
X204172312Y-192864757D02*
X204315170Y-192793328D01*
X204315170Y-192793328D02*
X204600884Y-192793328D01*
X204600884Y-192793328D02*
X204743741Y-192864757D01*
X204743741Y-192864757D02*
X204815170Y-193007614D01*
X204815170Y-193007614D02*
X204815170Y-193150471D01*
X204815170Y-193150471D02*
X204100884Y-193293328D01*
X205458026Y-193650471D02*
X205529455Y-193721900D01*
X205529455Y-193721900D02*
X205458026Y-193793328D01*
X205458026Y-193793328D02*
X205386598Y-193721900D01*
X205386598Y-193721900D02*
X205458026Y-193650471D01*
X205458026Y-193650471D02*
X205458026Y-193793328D01*
X205458026Y-192864757D02*
X205529455Y-192936185D01*
X205529455Y-192936185D02*
X205458026Y-193007614D01*
X205458026Y-193007614D02*
X205386598Y-192936185D01*
X205386598Y-192936185D02*
X205458026Y-192864757D01*
X205458026Y-192864757D02*
X205458026Y-193007614D01*
D10*
D11*
X177002200Y-194507200D02*
X285002200Y-194507200D01*
D10*
D11*
X178458026Y-196593328D02*
X178458026Y-195093328D01*
X179315169Y-196593328D02*
X178672312Y-195736185D01*
X179315169Y-195093328D02*
X178458026Y-195950471D01*
X179958026Y-196593328D02*
X179958026Y-195593328D01*
X179958026Y-195093328D02*
X179886598Y-195164757D01*
X179886598Y-195164757D02*
X179958026Y-195236185D01*
X179958026Y-195236185D02*
X180029455Y-195164757D01*
X180029455Y-195164757D02*
X179958026Y-195093328D01*
X179958026Y-195093328D02*
X179958026Y-195236185D01*
X181529455Y-196450471D02*
X181458027Y-196521900D01*
X181458027Y-196521900D02*
X181243741Y-196593328D01*
X181243741Y-196593328D02*
X181100884Y-196593328D01*
X181100884Y-196593328D02*
X180886598Y-196521900D01*
X180886598Y-196521900D02*
X180743741Y-196379042D01*
X180743741Y-196379042D02*
X180672312Y-196236185D01*
X180672312Y-196236185D02*
X180600884Y-195950471D01*
X180600884Y-195950471D02*
X180600884Y-195736185D01*
X180600884Y-195736185D02*
X180672312Y-195450471D01*
X180672312Y-195450471D02*
X180743741Y-195307614D01*
X180743741Y-195307614D02*
X180886598Y-195164757D01*
X180886598Y-195164757D02*
X181100884Y-195093328D01*
X181100884Y-195093328D02*
X181243741Y-195093328D01*
X181243741Y-195093328D02*
X181458027Y-195164757D01*
X181458027Y-195164757D02*
X181529455Y-195236185D01*
X182815170Y-196593328D02*
X182815170Y-195807614D01*
X182815170Y-195807614D02*
X182743741Y-195664757D01*
X182743741Y-195664757D02*
X182600884Y-195593328D01*
X182600884Y-195593328D02*
X182315170Y-195593328D01*
X182315170Y-195593328D02*
X182172312Y-195664757D01*
X182815170Y-196521900D02*
X182672312Y-196593328D01*
X182672312Y-196593328D02*
X182315170Y-196593328D01*
X182315170Y-196593328D02*
X182172312Y-196521900D01*
X182172312Y-196521900D02*
X182100884Y-196379042D01*
X182100884Y-196379042D02*
X182100884Y-196236185D01*
X182100884Y-196236185D02*
X182172312Y-196093328D01*
X182172312Y-196093328D02*
X182315170Y-196021900D01*
X182315170Y-196021900D02*
X182672312Y-196021900D01*
X182672312Y-196021900D02*
X182815170Y-195950471D01*
X184172313Y-196593328D02*
X184172313Y-195093328D01*
X184172313Y-196521900D02*
X184029455Y-196593328D01*
X184029455Y-196593328D02*
X183743741Y-196593328D01*
X183743741Y-196593328D02*
X183600884Y-196521900D01*
X183600884Y-196521900D02*
X183529455Y-196450471D01*
X183529455Y-196450471D02*
X183458027Y-196307614D01*
X183458027Y-196307614D02*
X183458027Y-195879042D01*
X183458027Y-195879042D02*
X183529455Y-195736185D01*
X183529455Y-195736185D02*
X183600884Y-195664757D01*
X183600884Y-195664757D02*
X183743741Y-195593328D01*
X183743741Y-195593328D02*
X184029455Y-195593328D01*
X184029455Y-195593328D02*
X184172313Y-195664757D01*
X186029455Y-195807614D02*
X186529455Y-195807614D01*
X186743741Y-196593328D02*
X186029455Y-196593328D01*
X186029455Y-196593328D02*
X186029455Y-195093328D01*
X186029455Y-195093328D02*
X186743741Y-195093328D01*
X187386598Y-196450471D02*
X187458027Y-196521900D01*
X187458027Y-196521900D02*
X187386598Y-196593328D01*
X187386598Y-196593328D02*
X187315170Y-196521900D01*
X187315170Y-196521900D02*
X187386598Y-196450471D01*
X187386598Y-196450471D02*
X187386598Y-196593328D01*
X188100884Y-196593328D02*
X188100884Y-195093328D01*
X188100884Y-195093328D02*
X188458027Y-195093328D01*
X188458027Y-195093328D02*
X188672313Y-195164757D01*
X188672313Y-195164757D02*
X188815170Y-195307614D01*
X188815170Y-195307614D02*
X188886599Y-195450471D01*
X188886599Y-195450471D02*
X188958027Y-195736185D01*
X188958027Y-195736185D02*
X188958027Y-195950471D01*
X188958027Y-195950471D02*
X188886599Y-196236185D01*
X188886599Y-196236185D02*
X188815170Y-196379042D01*
X188815170Y-196379042D02*
X188672313Y-196521900D01*
X188672313Y-196521900D02*
X188458027Y-196593328D01*
X188458027Y-196593328D02*
X188100884Y-196593328D01*
X189600884Y-196450471D02*
X189672313Y-196521900D01*
X189672313Y-196521900D02*
X189600884Y-196593328D01*
X189600884Y-196593328D02*
X189529456Y-196521900D01*
X189529456Y-196521900D02*
X189600884Y-196450471D01*
X189600884Y-196450471D02*
X189600884Y-196593328D01*
X190243742Y-196164757D02*
X190958028Y-196164757D01*
X190100885Y-196593328D02*
X190600885Y-195093328D01*
X190600885Y-195093328D02*
X191100885Y-196593328D01*
X191600884Y-196450471D02*
X191672313Y-196521900D01*
X191672313Y-196521900D02*
X191600884Y-196593328D01*
X191600884Y-196593328D02*
X191529456Y-196521900D01*
X191529456Y-196521900D02*
X191600884Y-196450471D01*
X191600884Y-196450471D02*
X191600884Y-196593328D01*
X193672313Y-195736185D02*
X193529456Y-195664757D01*
X193529456Y-195664757D02*
X193458027Y-195593328D01*
X193458027Y-195593328D02*
X193386599Y-195450471D01*
X193386599Y-195450471D02*
X193386599Y-195379042D01*
X193386599Y-195379042D02*
X193458027Y-195236185D01*
X193458027Y-195236185D02*
X193529456Y-195164757D01*
X193529456Y-195164757D02*
X193672313Y-195093328D01*
X193672313Y-195093328D02*
X193958027Y-195093328D01*
X193958027Y-195093328D02*
X194100885Y-195164757D01*
X194100885Y-195164757D02*
X194172313Y-195236185D01*
X194172313Y-195236185D02*
X194243742Y-195379042D01*
X194243742Y-195379042D02*
X194243742Y-195450471D01*
X194243742Y-195450471D02*
X194172313Y-195593328D01*
X194172313Y-195593328D02*
X194100885Y-195664757D01*
X194100885Y-195664757D02*
X193958027Y-195736185D01*
X193958027Y-195736185D02*
X193672313Y-195736185D01*
X193672313Y-195736185D02*
X193529456Y-195807614D01*
X193529456Y-195807614D02*
X193458027Y-195879042D01*
X193458027Y-195879042D02*
X193386599Y-196021900D01*
X193386599Y-196021900D02*
X193386599Y-196307614D01*
X193386599Y-196307614D02*
X193458027Y-196450471D01*
X193458027Y-196450471D02*
X193529456Y-196521900D01*
X193529456Y-196521900D02*
X193672313Y-196593328D01*
X193672313Y-196593328D02*
X193958027Y-196593328D01*
X193958027Y-196593328D02*
X194100885Y-196521900D01*
X194100885Y-196521900D02*
X194172313Y-196450471D01*
X194172313Y-196450471D02*
X194243742Y-196307614D01*
X194243742Y-196307614D02*
X194243742Y-196021900D01*
X194243742Y-196021900D02*
X194172313Y-195879042D01*
X194172313Y-195879042D02*
X194100885Y-195807614D01*
X194100885Y-195807614D02*
X193958027Y-195736185D01*
X194886598Y-196450471D02*
X194958027Y-196521900D01*
X194958027Y-196521900D02*
X194886598Y-196593328D01*
X194886598Y-196593328D02*
X194815170Y-196521900D01*
X194815170Y-196521900D02*
X194886598Y-196450471D01*
X194886598Y-196450471D02*
X194886598Y-196593328D01*
X195886599Y-195093328D02*
X196029456Y-195093328D01*
X196029456Y-195093328D02*
X196172313Y-195164757D01*
X196172313Y-195164757D02*
X196243742Y-195236185D01*
X196243742Y-195236185D02*
X196315170Y-195379042D01*
X196315170Y-195379042D02*
X196386599Y-195664757D01*
X196386599Y-195664757D02*
X196386599Y-196021900D01*
X196386599Y-196021900D02*
X196315170Y-196307614D01*
X196315170Y-196307614D02*
X196243742Y-196450471D01*
X196243742Y-196450471D02*
X196172313Y-196521900D01*
X196172313Y-196521900D02*
X196029456Y-196593328D01*
X196029456Y-196593328D02*
X195886599Y-196593328D01*
X195886599Y-196593328D02*
X195743742Y-196521900D01*
X195743742Y-196521900D02*
X195672313Y-196450471D01*
X195672313Y-196450471D02*
X195600884Y-196307614D01*
X195600884Y-196307614D02*
X195529456Y-196021900D01*
X195529456Y-196021900D02*
X195529456Y-195664757D01*
X195529456Y-195664757D02*
X195600884Y-195379042D01*
X195600884Y-195379042D02*
X195672313Y-195236185D01*
X195672313Y-195236185D02*
X195743742Y-195164757D01*
X195743742Y-195164757D02*
X195886599Y-195093328D01*
X197029455Y-196450471D02*
X197100884Y-196521900D01*
X197100884Y-196521900D02*
X197029455Y-196593328D01*
X197029455Y-196593328D02*
X196958027Y-196521900D01*
X196958027Y-196521900D02*
X197029455Y-196450471D01*
X197029455Y-196450471D02*
X197029455Y-196593328D01*
X198386599Y-195093328D02*
X198100884Y-195093328D01*
X198100884Y-195093328D02*
X197958027Y-195164757D01*
X197958027Y-195164757D02*
X197886599Y-195236185D01*
X197886599Y-195236185D02*
X197743741Y-195450471D01*
X197743741Y-195450471D02*
X197672313Y-195736185D01*
X197672313Y-195736185D02*
X197672313Y-196307614D01*
X197672313Y-196307614D02*
X197743741Y-196450471D01*
X197743741Y-196450471D02*
X197815170Y-196521900D01*
X197815170Y-196521900D02*
X197958027Y-196593328D01*
X197958027Y-196593328D02*
X198243741Y-196593328D01*
X198243741Y-196593328D02*
X198386599Y-196521900D01*
X198386599Y-196521900D02*
X198458027Y-196450471D01*
X198458027Y-196450471D02*
X198529456Y-196307614D01*
X198529456Y-196307614D02*
X198529456Y-195950471D01*
X198529456Y-195950471D02*
X198458027Y-195807614D01*
X198458027Y-195807614D02*
X198386599Y-195736185D01*
X198386599Y-195736185D02*
X198243741Y-195664757D01*
X198243741Y-195664757D02*
X197958027Y-195664757D01*
X197958027Y-195664757D02*
X197815170Y-195736185D01*
X197815170Y-195736185D02*
X197743741Y-195807614D01*
X197743741Y-195807614D02*
X197672313Y-195950471D01*
D10*
D11*
X177002200Y-191507200D02*
X285002200Y-191507200D01*
D10*
D12*
X264413853Y-193785528D02*
X263913853Y-193071242D01*
X263556710Y-193785528D02*
X263556710Y-192285528D01*
X263556710Y-192285528D02*
X264128139Y-192285528D01*
X264128139Y-192285528D02*
X264270996Y-192356957D01*
X264270996Y-192356957D02*
X264342425Y-192428385D01*
X264342425Y-192428385D02*
X264413853Y-192571242D01*
X264413853Y-192571242D02*
X264413853Y-192785528D01*
X264413853Y-192785528D02*
X264342425Y-192928385D01*
X264342425Y-192928385D02*
X264270996Y-192999814D01*
X264270996Y-192999814D02*
X264128139Y-193071242D01*
X264128139Y-193071242D02*
X263556710Y-193071242D01*
X265628139Y-193714100D02*
X265485282Y-193785528D01*
X265485282Y-193785528D02*
X265199568Y-193785528D01*
X265199568Y-193785528D02*
X265056710Y-193714100D01*
X265056710Y-193714100D02*
X264985282Y-193571242D01*
X264985282Y-193571242D02*
X264985282Y-192999814D01*
X264985282Y-192999814D02*
X265056710Y-192856957D01*
X265056710Y-192856957D02*
X265199568Y-192785528D01*
X265199568Y-192785528D02*
X265485282Y-192785528D01*
X265485282Y-192785528D02*
X265628139Y-192856957D01*
X265628139Y-192856957D02*
X265699568Y-192999814D01*
X265699568Y-192999814D02*
X265699568Y-193142671D01*
X265699568Y-193142671D02*
X264985282Y-193285528D01*
X266199567Y-192785528D02*
X266556710Y-193785528D01*
X266556710Y-193785528D02*
X266913853Y-192785528D01*
X267485281Y-193642671D02*
X267556710Y-193714100D01*
X267556710Y-193714100D02*
X267485281Y-193785528D01*
X267485281Y-193785528D02*
X267413853Y-193714100D01*
X267413853Y-193714100D02*
X267485281Y-193642671D01*
X267485281Y-193642671D02*
X267485281Y-193785528D01*
X267485281Y-192856957D02*
X267556710Y-192928385D01*
X267556710Y-192928385D02*
X267485281Y-192999814D01*
X267485281Y-192999814D02*
X267413853Y-192928385D01*
X267413853Y-192928385D02*
X267485281Y-192856957D01*
X267485281Y-192856957D02*
X267485281Y-192999814D01*
D10*
D11*
X178386598Y-193721900D02*
X178600884Y-193793328D01*
X178600884Y-193793328D02*
X178958026Y-193793328D01*
X178958026Y-193793328D02*
X179100884Y-193721900D01*
X179100884Y-193721900D02*
X179172312Y-193650471D01*
X179172312Y-193650471D02*
X179243741Y-193507614D01*
X179243741Y-193507614D02*
X179243741Y-193364757D01*
X179243741Y-193364757D02*
X179172312Y-193221900D01*
X179172312Y-193221900D02*
X179100884Y-193150471D01*
X179100884Y-193150471D02*
X178958026Y-193079042D01*
X178958026Y-193079042D02*
X178672312Y-193007614D01*
X178672312Y-193007614D02*
X178529455Y-192936185D01*
X178529455Y-192936185D02*
X178458026Y-192864757D01*
X178458026Y-192864757D02*
X178386598Y-192721900D01*
X178386598Y-192721900D02*
X178386598Y-192579042D01*
X178386598Y-192579042D02*
X178458026Y-192436185D01*
X178458026Y-192436185D02*
X178529455Y-192364757D01*
X178529455Y-192364757D02*
X178672312Y-192293328D01*
X178672312Y-192293328D02*
X179029455Y-192293328D01*
X179029455Y-192293328D02*
X179243741Y-192364757D01*
X179886597Y-193793328D02*
X179886597Y-192793328D01*
X179886597Y-192293328D02*
X179815169Y-192364757D01*
X179815169Y-192364757D02*
X179886597Y-192436185D01*
X179886597Y-192436185D02*
X179958026Y-192364757D01*
X179958026Y-192364757D02*
X179886597Y-192293328D01*
X179886597Y-192293328D02*
X179886597Y-192436185D01*
X180458026Y-192793328D02*
X181243741Y-192793328D01*
X181243741Y-192793328D02*
X180458026Y-193793328D01*
X180458026Y-193793328D02*
X181243741Y-193793328D01*
X182386598Y-193721900D02*
X182243741Y-193793328D01*
X182243741Y-193793328D02*
X181958027Y-193793328D01*
X181958027Y-193793328D02*
X181815169Y-193721900D01*
X181815169Y-193721900D02*
X181743741Y-193579042D01*
X181743741Y-193579042D02*
X181743741Y-193007614D01*
X181743741Y-193007614D02*
X181815169Y-192864757D01*
X181815169Y-192864757D02*
X181958027Y-192793328D01*
X181958027Y-192793328D02*
X182243741Y-192793328D01*
X182243741Y-192793328D02*
X182386598Y-192864757D01*
X182386598Y-192864757D02*
X182458027Y-193007614D01*
X182458027Y-193007614D02*
X182458027Y-193150471D01*
X182458027Y-193150471D02*
X181743741Y-193293328D01*
X183100883Y-193650471D02*
X183172312Y-193721900D01*
X183172312Y-193721900D02*
X183100883Y-193793328D01*
X183100883Y-193793328D02*
X183029455Y-193721900D01*
X183029455Y-193721900D02*
X183100883Y-193650471D01*
X183100883Y-193650471D02*
X183100883Y-193793328D01*
X183100883Y-192864757D02*
X183172312Y-192936185D01*
X183172312Y-192936185D02*
X183100883Y-193007614D01*
X183100883Y-193007614D02*
X183029455Y-192936185D01*
X183029455Y-192936185D02*
X183100883Y-192864757D01*
X183100883Y-192864757D02*
X183100883Y-193007614D01*
X184886598Y-193364757D02*
X185600884Y-193364757D01*
X184743741Y-193793328D02*
X185243741Y-192293328D01*
X185243741Y-192293328D02*
X185743741Y-193793328D01*
X186886598Y-192793328D02*
X186886598Y-193793328D01*
X186529455Y-192221900D02*
X186172312Y-193293328D01*
X186172312Y-193293328D02*
X187100883Y-193293328D01*
D10*
D11*
X263458026Y-196593328D02*
X263458026Y-195093328D01*
X264815170Y-196593328D02*
X264815170Y-195093328D01*
X264815170Y-196521900D02*
X264672312Y-196593328D01*
X264672312Y-196593328D02*
X264386598Y-196593328D01*
X264386598Y-196593328D02*
X264243741Y-196521900D01*
X264243741Y-196521900D02*
X264172312Y-196450471D01*
X264172312Y-196450471D02*
X264100884Y-196307614D01*
X264100884Y-196307614D02*
X264100884Y-195879042D01*
X264100884Y-195879042D02*
X264172312Y-195736185D01*
X264172312Y-195736185D02*
X264243741Y-195664757D01*
X264243741Y-195664757D02*
X264386598Y-195593328D01*
X264386598Y-195593328D02*
X264672312Y-195593328D01*
X264672312Y-195593328D02*
X264815170Y-195664757D01*
X265529455Y-196450471D02*
X265600884Y-196521900D01*
X265600884Y-196521900D02*
X265529455Y-196593328D01*
X265529455Y-196593328D02*
X265458027Y-196521900D01*
X265458027Y-196521900D02*
X265529455Y-196450471D01*
X265529455Y-196450471D02*
X265529455Y-196593328D01*
X265529455Y-195664757D02*
X265600884Y-195736185D01*
X265600884Y-195736185D02*
X265529455Y-195807614D01*
X265529455Y-195807614D02*
X265458027Y-195736185D01*
X265458027Y-195736185D02*
X265529455Y-195664757D01*
X265529455Y-195664757D02*
X265529455Y-195807614D01*
X268172313Y-196593328D02*
X267315170Y-196593328D01*
X267743741Y-196593328D02*
X267743741Y-195093328D01*
X267743741Y-195093328D02*
X267600884Y-195307614D01*
X267600884Y-195307614D02*
X267458027Y-195450471D01*
X267458027Y-195450471D02*
X267315170Y-195521900D01*
X269886598Y-195021900D02*
X268600884Y-196950471D01*
X271172313Y-196593328D02*
X270315170Y-196593328D01*
X270743741Y-196593328D02*
X270743741Y-195093328D01*
X270743741Y-195093328D02*
X270600884Y-195307614D01*
X270600884Y-195307614D02*
X270458027Y-195450471D01*
X270458027Y-195450471D02*
X270315170Y-195521900D01*
D10*
D11*
X177002200Y-187507200D02*
X285002200Y-187507200D01*
D10*
D13*
X178693928Y-188211638D02*
X179836785Y-188211638D01*
X179015357Y-190211638D02*
X179265357Y-188211638D01*
X180253452Y-190211638D02*
X180420119Y-188878304D01*
X180503452Y-188211638D02*
X180396309Y-188306876D01*
X180396309Y-188306876D02*
X180479643Y-188402114D01*
X180479643Y-188402114D02*
X180586786Y-188306876D01*
X180586786Y-188306876D02*
X180503452Y-188211638D01*
X180503452Y-188211638D02*
X180479643Y-188402114D01*
X181086786Y-188878304D02*
X181848690Y-188878304D01*
X181455833Y-188211638D02*
X181241548Y-189925923D01*
X181241548Y-189925923D02*
X181312976Y-190116400D01*
X181312976Y-190116400D02*
X181491548Y-190211638D01*
X181491548Y-190211638D02*
X181682024Y-190211638D01*
X182634405Y-190211638D02*
X182455833Y-190116400D01*
X182455833Y-190116400D02*
X182384405Y-189925923D01*
X182384405Y-189925923D02*
X182598690Y-188211638D01*
X184170119Y-190116400D02*
X183967738Y-190211638D01*
X183967738Y-190211638D02*
X183586785Y-190211638D01*
X183586785Y-190211638D02*
X183408214Y-190116400D01*
X183408214Y-190116400D02*
X183336785Y-189925923D01*
X183336785Y-189925923D02*
X183432024Y-189164019D01*
X183432024Y-189164019D02*
X183551071Y-188973542D01*
X183551071Y-188973542D02*
X183753452Y-188878304D01*
X183753452Y-188878304D02*
X184134404Y-188878304D01*
X184134404Y-188878304D02*
X184312976Y-188973542D01*
X184312976Y-188973542D02*
X184384404Y-189164019D01*
X184384404Y-189164019D02*
X184360595Y-189354495D01*
X184360595Y-189354495D02*
X183384404Y-189544971D01*
X185134405Y-190021161D02*
X185217738Y-190116400D01*
X185217738Y-190116400D02*
X185110595Y-190211638D01*
X185110595Y-190211638D02*
X185027262Y-190116400D01*
X185027262Y-190116400D02*
X185134405Y-190021161D01*
X185134405Y-190021161D02*
X185110595Y-190211638D01*
X185265357Y-188973542D02*
X185348690Y-189068780D01*
X185348690Y-189068780D02*
X185241548Y-189164019D01*
X185241548Y-189164019D02*
X185158214Y-189068780D01*
X185158214Y-189068780D02*
X185265357Y-188973542D01*
X185265357Y-188973542D02*
X185241548Y-189164019D01*
D10*
D11*
X178958026Y-185607614D02*
X178458026Y-185607614D01*
X178458026Y-186393328D02*
X178458026Y-184893328D01*
X178458026Y-184893328D02*
X179172312Y-184893328D01*
X179743740Y-186393328D02*
X179743740Y-185393328D01*
X179743740Y-184893328D02*
X179672312Y-184964757D01*
X179672312Y-184964757D02*
X179743740Y-185036185D01*
X179743740Y-185036185D02*
X179815169Y-184964757D01*
X179815169Y-184964757D02*
X179743740Y-184893328D01*
X179743740Y-184893328D02*
X179743740Y-185036185D01*
X180672312Y-186393328D02*
X180529455Y-186321900D01*
X180529455Y-186321900D02*
X180458026Y-186179042D01*
X180458026Y-186179042D02*
X180458026Y-184893328D01*
X181815169Y-186321900D02*
X181672312Y-186393328D01*
X181672312Y-186393328D02*
X181386598Y-186393328D01*
X181386598Y-186393328D02*
X181243740Y-186321900D01*
X181243740Y-186321900D02*
X181172312Y-186179042D01*
X181172312Y-186179042D02*
X181172312Y-185607614D01*
X181172312Y-185607614D02*
X181243740Y-185464757D01*
X181243740Y-185464757D02*
X181386598Y-185393328D01*
X181386598Y-185393328D02*
X181672312Y-185393328D01*
X181672312Y-185393328D02*
X181815169Y-185464757D01*
X181815169Y-185464757D02*
X181886598Y-185607614D01*
X181886598Y-185607614D02*
X181886598Y-185750471D01*
X181886598Y-185750471D02*
X181172312Y-185893328D01*
X182529454Y-186250471D02*
X182600883Y-186321900D01*
X182600883Y-186321900D02*
X182529454Y-186393328D01*
X182529454Y-186393328D02*
X182458026Y-186321900D01*
X182458026Y-186321900D02*
X182529454Y-186250471D01*
X182529454Y-186250471D02*
X182529454Y-186393328D01*
X182529454Y-185464757D02*
X182600883Y-185536185D01*
X182600883Y-185536185D02*
X182529454Y-185607614D01*
X182529454Y-185607614D02*
X182458026Y-185536185D01*
X182458026Y-185536185D02*
X182529454Y-185464757D01*
X182529454Y-185464757D02*
X182529454Y-185607614D01*
X184315169Y-185964757D02*
X185029455Y-185964757D01*
X184172312Y-186393328D02*
X184672312Y-184893328D01*
X184672312Y-184893328D02*
X185172312Y-186393328D01*
X185529454Y-185393328D02*
X185886597Y-186393328D01*
X185886597Y-186393328D02*
X186243740Y-185393328D01*
X186815168Y-186393328D02*
X186815168Y-185393328D01*
X186815168Y-184893328D02*
X186743740Y-184964757D01*
X186743740Y-184964757D02*
X186815168Y-185036185D01*
X186815168Y-185036185D02*
X186886597Y-184964757D01*
X186886597Y-184964757D02*
X186815168Y-184893328D01*
X186815168Y-184893328D02*
X186815168Y-185036185D01*
X187743740Y-186393328D02*
X187600883Y-186321900D01*
X187600883Y-186321900D02*
X187529454Y-186250471D01*
X187529454Y-186250471D02*
X187458026Y-186107614D01*
X187458026Y-186107614D02*
X187458026Y-185679042D01*
X187458026Y-185679042D02*
X187529454Y-185536185D01*
X187529454Y-185536185D02*
X187600883Y-185464757D01*
X187600883Y-185464757D02*
X187743740Y-185393328D01*
X187743740Y-185393328D02*
X187958026Y-185393328D01*
X187958026Y-185393328D02*
X188100883Y-185464757D01*
X188100883Y-185464757D02*
X188172312Y-185536185D01*
X188172312Y-185536185D02*
X188243740Y-185679042D01*
X188243740Y-185679042D02*
X188243740Y-186107614D01*
X188243740Y-186107614D02*
X188172312Y-186250471D01*
X188172312Y-186250471D02*
X188100883Y-186321900D01*
X188100883Y-186321900D02*
X187958026Y-186393328D01*
X187958026Y-186393328D02*
X187743740Y-186393328D01*
X188886597Y-185393328D02*
X188886597Y-186393328D01*
X188886597Y-185536185D02*
X188958026Y-185464757D01*
X188958026Y-185464757D02*
X189100883Y-185393328D01*
X189100883Y-185393328D02*
X189315169Y-185393328D01*
X189315169Y-185393328D02*
X189458026Y-185464757D01*
X189458026Y-185464757D02*
X189529455Y-185607614D01*
X189529455Y-185607614D02*
X189529455Y-186393328D01*
X190243740Y-186393328D02*
X190243740Y-185393328D01*
X190243740Y-184893328D02*
X190172312Y-184964757D01*
X190172312Y-184964757D02*
X190243740Y-185036185D01*
X190243740Y-185036185D02*
X190315169Y-184964757D01*
X190315169Y-184964757D02*
X190243740Y-184893328D01*
X190243740Y-184893328D02*
X190243740Y-185036185D01*
X191600884Y-186321900D02*
X191458026Y-186393328D01*
X191458026Y-186393328D02*
X191172312Y-186393328D01*
X191172312Y-186393328D02*
X191029455Y-186321900D01*
X191029455Y-186321900D02*
X190958026Y-186250471D01*
X190958026Y-186250471D02*
X190886598Y-186107614D01*
X190886598Y-186107614D02*
X190886598Y-185679042D01*
X190886598Y-185679042D02*
X190958026Y-185536185D01*
X190958026Y-185536185D02*
X191029455Y-185464757D01*
X191029455Y-185464757D02*
X191172312Y-185393328D01*
X191172312Y-185393328D02*
X191458026Y-185393328D01*
X191458026Y-185393328D02*
X191600884Y-185464757D01*
X192172312Y-186321900D02*
X192315169Y-186393328D01*
X192315169Y-186393328D02*
X192600883Y-186393328D01*
X192600883Y-186393328D02*
X192743740Y-186321900D01*
X192743740Y-186321900D02*
X192815169Y-186179042D01*
X192815169Y-186179042D02*
X192815169Y-186107614D01*
X192815169Y-186107614D02*
X192743740Y-185964757D01*
X192743740Y-185964757D02*
X192600883Y-185893328D01*
X192600883Y-185893328D02*
X192386598Y-185893328D01*
X192386598Y-185893328D02*
X192243740Y-185821900D01*
X192243740Y-185821900D02*
X192172312Y-185679042D01*
X192172312Y-185679042D02*
X192172312Y-185607614D01*
X192172312Y-185607614D02*
X192243740Y-185464757D01*
X192243740Y-185464757D02*
X192386598Y-185393328D01*
X192386598Y-185393328D02*
X192600883Y-185393328D01*
X192600883Y-185393328D02*
X192743740Y-185464757D01*
X194600883Y-186393328D02*
X194600883Y-184893328D01*
X194600883Y-184893328D02*
X195172312Y-184893328D01*
X195172312Y-184893328D02*
X195315169Y-184964757D01*
X195315169Y-184964757D02*
X195386598Y-185036185D01*
X195386598Y-185036185D02*
X195458026Y-185179042D01*
X195458026Y-185179042D02*
X195458026Y-185393328D01*
X195458026Y-185393328D02*
X195386598Y-185536185D01*
X195386598Y-185536185D02*
X195315169Y-185607614D01*
X195315169Y-185607614D02*
X195172312Y-185679042D01*
X195172312Y-185679042D02*
X194600883Y-185679042D01*
X196315169Y-186393328D02*
X196172312Y-186321900D01*
X196172312Y-186321900D02*
X196100883Y-186250471D01*
X196100883Y-186250471D02*
X196029455Y-186107614D01*
X196029455Y-186107614D02*
X196029455Y-185679042D01*
X196029455Y-185679042D02*
X196100883Y-185536185D01*
X196100883Y-185536185D02*
X196172312Y-185464757D01*
X196172312Y-185464757D02*
X196315169Y-185393328D01*
X196315169Y-185393328D02*
X196529455Y-185393328D01*
X196529455Y-185393328D02*
X196672312Y-185464757D01*
X196672312Y-185464757D02*
X196743741Y-185536185D01*
X196743741Y-185536185D02*
X196815169Y-185679042D01*
X196815169Y-185679042D02*
X196815169Y-186107614D01*
X196815169Y-186107614D02*
X196743741Y-186250471D01*
X196743741Y-186250471D02*
X196672312Y-186321900D01*
X196672312Y-186321900D02*
X196529455Y-186393328D01*
X196529455Y-186393328D02*
X196315169Y-186393328D01*
X197315169Y-185393328D02*
X197600884Y-186393328D01*
X197600884Y-186393328D02*
X197886598Y-185679042D01*
X197886598Y-185679042D02*
X198172312Y-186393328D01*
X198172312Y-186393328D02*
X198458026Y-185393328D01*
X199600884Y-186321900D02*
X199458027Y-186393328D01*
X199458027Y-186393328D02*
X199172313Y-186393328D01*
X199172313Y-186393328D02*
X199029455Y-186321900D01*
X199029455Y-186321900D02*
X198958027Y-186179042D01*
X198958027Y-186179042D02*
X198958027Y-185607614D01*
X198958027Y-185607614D02*
X199029455Y-185464757D01*
X199029455Y-185464757D02*
X199172313Y-185393328D01*
X199172313Y-185393328D02*
X199458027Y-185393328D01*
X199458027Y-185393328D02*
X199600884Y-185464757D01*
X199600884Y-185464757D02*
X199672313Y-185607614D01*
X199672313Y-185607614D02*
X199672313Y-185750471D01*
X199672313Y-185750471D02*
X198958027Y-185893328D01*
X200315169Y-186393328D02*
X200315169Y-185393328D01*
X200315169Y-185679042D02*
X200386598Y-185536185D01*
X200386598Y-185536185D02*
X200458027Y-185464757D01*
X200458027Y-185464757D02*
X200600884Y-185393328D01*
X200600884Y-185393328D02*
X200743741Y-185393328D01*
X203243740Y-186393328D02*
X202743740Y-185679042D01*
X202386597Y-186393328D02*
X202386597Y-184893328D01*
X202386597Y-184893328D02*
X202958026Y-184893328D01*
X202958026Y-184893328D02*
X203100883Y-184964757D01*
X203100883Y-184964757D02*
X203172312Y-185036185D01*
X203172312Y-185036185D02*
X203243740Y-185179042D01*
X203243740Y-185179042D02*
X203243740Y-185393328D01*
X203243740Y-185393328D02*
X203172312Y-185536185D01*
X203172312Y-185536185D02*
X203100883Y-185607614D01*
X203100883Y-185607614D02*
X202958026Y-185679042D01*
X202958026Y-185679042D02*
X202386597Y-185679042D01*
X204458026Y-186321900D02*
X204315169Y-186393328D01*
X204315169Y-186393328D02*
X204029455Y-186393328D01*
X204029455Y-186393328D02*
X203886597Y-186321900D01*
X203886597Y-186321900D02*
X203815169Y-186179042D01*
X203815169Y-186179042D02*
X203815169Y-185607614D01*
X203815169Y-185607614D02*
X203886597Y-185464757D01*
X203886597Y-185464757D02*
X204029455Y-185393328D01*
X204029455Y-185393328D02*
X204315169Y-185393328D01*
X204315169Y-185393328D02*
X204458026Y-185464757D01*
X204458026Y-185464757D02*
X204529455Y-185607614D01*
X204529455Y-185607614D02*
X204529455Y-185750471D01*
X204529455Y-185750471D02*
X203815169Y-185893328D01*
X205815169Y-185393328D02*
X205815169Y-186607614D01*
X205815169Y-186607614D02*
X205743740Y-186750471D01*
X205743740Y-186750471D02*
X205672311Y-186821900D01*
X205672311Y-186821900D02*
X205529454Y-186893328D01*
X205529454Y-186893328D02*
X205315169Y-186893328D01*
X205315169Y-186893328D02*
X205172311Y-186821900D01*
X205815169Y-186321900D02*
X205672311Y-186393328D01*
X205672311Y-186393328D02*
X205386597Y-186393328D01*
X205386597Y-186393328D02*
X205243740Y-186321900D01*
X205243740Y-186321900D02*
X205172311Y-186250471D01*
X205172311Y-186250471D02*
X205100883Y-186107614D01*
X205100883Y-186107614D02*
X205100883Y-185679042D01*
X205100883Y-185679042D02*
X205172311Y-185536185D01*
X205172311Y-185536185D02*
X205243740Y-185464757D01*
X205243740Y-185464757D02*
X205386597Y-185393328D01*
X205386597Y-185393328D02*
X205672311Y-185393328D01*
X205672311Y-185393328D02*
X205815169Y-185464757D01*
X207172312Y-185393328D02*
X207172312Y-186393328D01*
X206529454Y-185393328D02*
X206529454Y-186179042D01*
X206529454Y-186179042D02*
X206600883Y-186321900D01*
X206600883Y-186321900D02*
X206743740Y-186393328D01*
X206743740Y-186393328D02*
X206958026Y-186393328D01*
X206958026Y-186393328D02*
X207100883Y-186321900D01*
X207100883Y-186321900D02*
X207172312Y-186250471D01*
X208100883Y-186393328D02*
X207958026Y-186321900D01*
X207958026Y-186321900D02*
X207886597Y-186179042D01*
X207886597Y-186179042D02*
X207886597Y-184893328D01*
X209315169Y-186393328D02*
X209315169Y-185607614D01*
X209315169Y-185607614D02*
X209243740Y-185464757D01*
X209243740Y-185464757D02*
X209100883Y-185393328D01*
X209100883Y-185393328D02*
X208815169Y-185393328D01*
X208815169Y-185393328D02*
X208672311Y-185464757D01*
X209315169Y-186321900D02*
X209172311Y-186393328D01*
X209172311Y-186393328D02*
X208815169Y-186393328D01*
X208815169Y-186393328D02*
X208672311Y-186321900D01*
X208672311Y-186321900D02*
X208600883Y-186179042D01*
X208600883Y-186179042D02*
X208600883Y-186036185D01*
X208600883Y-186036185D02*
X208672311Y-185893328D01*
X208672311Y-185893328D02*
X208815169Y-185821900D01*
X208815169Y-185821900D02*
X209172311Y-185821900D01*
X209172311Y-185821900D02*
X209315169Y-185750471D01*
X209815169Y-185393328D02*
X210386597Y-185393328D01*
X210029454Y-184893328D02*
X210029454Y-186179042D01*
X210029454Y-186179042D02*
X210100883Y-186321900D01*
X210100883Y-186321900D02*
X210243740Y-186393328D01*
X210243740Y-186393328D02*
X210386597Y-186393328D01*
X210886597Y-186393328D02*
X210886597Y-185393328D01*
X210886597Y-184893328D02*
X210815169Y-184964757D01*
X210815169Y-184964757D02*
X210886597Y-185036185D01*
X210886597Y-185036185D02*
X210958026Y-184964757D01*
X210958026Y-184964757D02*
X210886597Y-184893328D01*
X210886597Y-184893328D02*
X210886597Y-185036185D01*
X211815169Y-186393328D02*
X211672312Y-186321900D01*
X211672312Y-186321900D02*
X211600883Y-186250471D01*
X211600883Y-186250471D02*
X211529455Y-186107614D01*
X211529455Y-186107614D02*
X211529455Y-185679042D01*
X211529455Y-185679042D02*
X211600883Y-185536185D01*
X211600883Y-185536185D02*
X211672312Y-185464757D01*
X211672312Y-185464757D02*
X211815169Y-185393328D01*
X211815169Y-185393328D02*
X212029455Y-185393328D01*
X212029455Y-185393328D02*
X212172312Y-185464757D01*
X212172312Y-185464757D02*
X212243741Y-185536185D01*
X212243741Y-185536185D02*
X212315169Y-185679042D01*
X212315169Y-185679042D02*
X212315169Y-186107614D01*
X212315169Y-186107614D02*
X212243741Y-186250471D01*
X212243741Y-186250471D02*
X212172312Y-186321900D01*
X212172312Y-186321900D02*
X212029455Y-186393328D01*
X212029455Y-186393328D02*
X211815169Y-186393328D01*
X212958026Y-185393328D02*
X212958026Y-186393328D01*
X212958026Y-185536185D02*
X213029455Y-185464757D01*
X213029455Y-185464757D02*
X213172312Y-185393328D01*
X213172312Y-185393328D02*
X213386598Y-185393328D01*
X213386598Y-185393328D02*
X213529455Y-185464757D01*
X213529455Y-185464757D02*
X213600884Y-185607614D01*
X213600884Y-185607614D02*
X213600884Y-186393328D01*
X215958026Y-185607614D02*
X216172312Y-185679042D01*
X216172312Y-185679042D02*
X216243741Y-185750471D01*
X216243741Y-185750471D02*
X216315169Y-185893328D01*
X216315169Y-185893328D02*
X216315169Y-186107614D01*
X216315169Y-186107614D02*
X216243741Y-186250471D01*
X216243741Y-186250471D02*
X216172312Y-186321900D01*
X216172312Y-186321900D02*
X216029455Y-186393328D01*
X216029455Y-186393328D02*
X215458026Y-186393328D01*
X215458026Y-186393328D02*
X215458026Y-184893328D01*
X215458026Y-184893328D02*
X215958026Y-184893328D01*
X215958026Y-184893328D02*
X216100884Y-184964757D01*
X216100884Y-184964757D02*
X216172312Y-185036185D01*
X216172312Y-185036185D02*
X216243741Y-185179042D01*
X216243741Y-185179042D02*
X216243741Y-185321900D01*
X216243741Y-185321900D02*
X216172312Y-185464757D01*
X216172312Y-185464757D02*
X216100884Y-185536185D01*
X216100884Y-185536185D02*
X215958026Y-185607614D01*
X215958026Y-185607614D02*
X215458026Y-185607614D01*
X217172312Y-186393328D02*
X217029455Y-186321900D01*
X217029455Y-186321900D02*
X216958026Y-186250471D01*
X216958026Y-186250471D02*
X216886598Y-186107614D01*
X216886598Y-186107614D02*
X216886598Y-185679042D01*
X216886598Y-185679042D02*
X216958026Y-185536185D01*
X216958026Y-185536185D02*
X217029455Y-185464757D01*
X217029455Y-185464757D02*
X217172312Y-185393328D01*
X217172312Y-185393328D02*
X217386598Y-185393328D01*
X217386598Y-185393328D02*
X217529455Y-185464757D01*
X217529455Y-185464757D02*
X217600884Y-185536185D01*
X217600884Y-185536185D02*
X217672312Y-185679042D01*
X217672312Y-185679042D02*
X217672312Y-186107614D01*
X217672312Y-186107614D02*
X217600884Y-186250471D01*
X217600884Y-186250471D02*
X217529455Y-186321900D01*
X217529455Y-186321900D02*
X217386598Y-186393328D01*
X217386598Y-186393328D02*
X217172312Y-186393328D01*
X218958027Y-186393328D02*
X218958027Y-185607614D01*
X218958027Y-185607614D02*
X218886598Y-185464757D01*
X218886598Y-185464757D02*
X218743741Y-185393328D01*
X218743741Y-185393328D02*
X218458027Y-185393328D01*
X218458027Y-185393328D02*
X218315169Y-185464757D01*
X218958027Y-186321900D02*
X218815169Y-186393328D01*
X218815169Y-186393328D02*
X218458027Y-186393328D01*
X218458027Y-186393328D02*
X218315169Y-186321900D01*
X218315169Y-186321900D02*
X218243741Y-186179042D01*
X218243741Y-186179042D02*
X218243741Y-186036185D01*
X218243741Y-186036185D02*
X218315169Y-185893328D01*
X218315169Y-185893328D02*
X218458027Y-185821900D01*
X218458027Y-185821900D02*
X218815169Y-185821900D01*
X218815169Y-185821900D02*
X218958027Y-185750471D01*
X219672312Y-186393328D02*
X219672312Y-185393328D01*
X219672312Y-185679042D02*
X219743741Y-185536185D01*
X219743741Y-185536185D02*
X219815170Y-185464757D01*
X219815170Y-185464757D02*
X219958027Y-185393328D01*
X219958027Y-185393328D02*
X220100884Y-185393328D01*
X221243741Y-186393328D02*
X221243741Y-184893328D01*
X221243741Y-186321900D02*
X221100883Y-186393328D01*
X221100883Y-186393328D02*
X220815169Y-186393328D01*
X220815169Y-186393328D02*
X220672312Y-186321900D01*
X220672312Y-186321900D02*
X220600883Y-186250471D01*
X220600883Y-186250471D02*
X220529455Y-186107614D01*
X220529455Y-186107614D02*
X220529455Y-185679042D01*
X220529455Y-185679042D02*
X220600883Y-185536185D01*
X220600883Y-185536185D02*
X220672312Y-185464757D01*
X220672312Y-185464757D02*
X220815169Y-185393328D01*
X220815169Y-185393328D02*
X221100883Y-185393328D01*
X221100883Y-185393328D02*
X221243741Y-185464757D01*
X223029455Y-186321900D02*
X223243741Y-186393328D01*
X223243741Y-186393328D02*
X223600883Y-186393328D01*
X223600883Y-186393328D02*
X223743741Y-186321900D01*
X223743741Y-186321900D02*
X223815169Y-186250471D01*
X223815169Y-186250471D02*
X223886598Y-186107614D01*
X223886598Y-186107614D02*
X223886598Y-185964757D01*
X223886598Y-185964757D02*
X223815169Y-185821900D01*
X223815169Y-185821900D02*
X223743741Y-185750471D01*
X223743741Y-185750471D02*
X223600883Y-185679042D01*
X223600883Y-185679042D02*
X223315169Y-185607614D01*
X223315169Y-185607614D02*
X223172312Y-185536185D01*
X223172312Y-185536185D02*
X223100883Y-185464757D01*
X223100883Y-185464757D02*
X223029455Y-185321900D01*
X223029455Y-185321900D02*
X223029455Y-185179042D01*
X223029455Y-185179042D02*
X223100883Y-185036185D01*
X223100883Y-185036185D02*
X223172312Y-184964757D01*
X223172312Y-184964757D02*
X223315169Y-184893328D01*
X223315169Y-184893328D02*
X223672312Y-184893328D01*
X223672312Y-184893328D02*
X223886598Y-184964757D01*
X225172312Y-185393328D02*
X225172312Y-186393328D01*
X224529454Y-185393328D02*
X224529454Y-186179042D01*
X224529454Y-186179042D02*
X224600883Y-186321900D01*
X224600883Y-186321900D02*
X224743740Y-186393328D01*
X224743740Y-186393328D02*
X224958026Y-186393328D01*
X224958026Y-186393328D02*
X225100883Y-186321900D01*
X225100883Y-186321900D02*
X225172312Y-186250471D01*
X225886597Y-186393328D02*
X225886597Y-184893328D01*
X225886597Y-185464757D02*
X226029455Y-185393328D01*
X226029455Y-185393328D02*
X226315169Y-185393328D01*
X226315169Y-185393328D02*
X226458026Y-185464757D01*
X226458026Y-185464757D02*
X226529455Y-185536185D01*
X226529455Y-185536185D02*
X226600883Y-185679042D01*
X226600883Y-185679042D02*
X226600883Y-186107614D01*
X226600883Y-186107614D02*
X226529455Y-186250471D01*
X226529455Y-186250471D02*
X226458026Y-186321900D01*
X226458026Y-186321900D02*
X226315169Y-186393328D01*
X226315169Y-186393328D02*
X226029455Y-186393328D01*
X226029455Y-186393328D02*
X225886597Y-186321900D01*
X227172312Y-186321900D02*
X227315169Y-186393328D01*
X227315169Y-186393328D02*
X227600883Y-186393328D01*
X227600883Y-186393328D02*
X227743740Y-186321900D01*
X227743740Y-186321900D02*
X227815169Y-186179042D01*
X227815169Y-186179042D02*
X227815169Y-186107614D01*
X227815169Y-186107614D02*
X227743740Y-185964757D01*
X227743740Y-185964757D02*
X227600883Y-185893328D01*
X227600883Y-185893328D02*
X227386598Y-185893328D01*
X227386598Y-185893328D02*
X227243740Y-185821900D01*
X227243740Y-185821900D02*
X227172312Y-185679042D01*
X227172312Y-185679042D02*
X227172312Y-185607614D01*
X227172312Y-185607614D02*
X227243740Y-185464757D01*
X227243740Y-185464757D02*
X227386598Y-185393328D01*
X227386598Y-185393328D02*
X227600883Y-185393328D01*
X227600883Y-185393328D02*
X227743740Y-185464757D01*
X229100884Y-186321900D02*
X228958026Y-186393328D01*
X228958026Y-186393328D02*
X228672312Y-186393328D01*
X228672312Y-186393328D02*
X228529455Y-186321900D01*
X228529455Y-186321900D02*
X228458026Y-186250471D01*
X228458026Y-186250471D02*
X228386598Y-186107614D01*
X228386598Y-186107614D02*
X228386598Y-185679042D01*
X228386598Y-185679042D02*
X228458026Y-185536185D01*
X228458026Y-185536185D02*
X228529455Y-185464757D01*
X228529455Y-185464757D02*
X228672312Y-185393328D01*
X228672312Y-185393328D02*
X228958026Y-185393328D01*
X228958026Y-185393328D02*
X229100884Y-185464757D01*
X230386598Y-186393328D02*
X230386598Y-185607614D01*
X230386598Y-185607614D02*
X230315169Y-185464757D01*
X230315169Y-185464757D02*
X230172312Y-185393328D01*
X230172312Y-185393328D02*
X229886598Y-185393328D01*
X229886598Y-185393328D02*
X229743740Y-185464757D01*
X230386598Y-186321900D02*
X230243740Y-186393328D01*
X230243740Y-186393328D02*
X229886598Y-186393328D01*
X229886598Y-186393328D02*
X229743740Y-186321900D01*
X229743740Y-186321900D02*
X229672312Y-186179042D01*
X229672312Y-186179042D02*
X229672312Y-186036185D01*
X229672312Y-186036185D02*
X229743740Y-185893328D01*
X229743740Y-185893328D02*
X229886598Y-185821900D01*
X229886598Y-185821900D02*
X230243740Y-185821900D01*
X230243740Y-185821900D02*
X230386598Y-185750471D01*
X231315169Y-186393328D02*
X231172312Y-186321900D01*
X231172312Y-186321900D02*
X231100883Y-186179042D01*
X231100883Y-186179042D02*
X231100883Y-184893328D01*
X232458026Y-186321900D02*
X232315169Y-186393328D01*
X232315169Y-186393328D02*
X232029455Y-186393328D01*
X232029455Y-186393328D02*
X231886597Y-186321900D01*
X231886597Y-186321900D02*
X231815169Y-186179042D01*
X231815169Y-186179042D02*
X231815169Y-185607614D01*
X231815169Y-185607614D02*
X231886597Y-185464757D01*
X231886597Y-185464757D02*
X232029455Y-185393328D01*
X232029455Y-185393328D02*
X232315169Y-185393328D01*
X232315169Y-185393328D02*
X232458026Y-185464757D01*
X232458026Y-185464757D02*
X232529455Y-185607614D01*
X232529455Y-185607614D02*
X232529455Y-185750471D01*
X232529455Y-185750471D02*
X231815169Y-185893328D01*
X233172311Y-186250471D02*
X233243740Y-186321900D01*
X233243740Y-186321900D02*
X233172311Y-186393328D01*
X233172311Y-186393328D02*
X233100883Y-186321900D01*
X233100883Y-186321900D02*
X233172311Y-186250471D01*
X233172311Y-186250471D02*
X233172311Y-186393328D01*
X233886597Y-186393328D02*
X233886597Y-184893328D01*
X234029455Y-185821900D02*
X234458026Y-186393328D01*
X234458026Y-185393328D02*
X233886597Y-185964757D01*
X235100883Y-186393328D02*
X235100883Y-185393328D01*
X235100883Y-184893328D02*
X235029455Y-184964757D01*
X235029455Y-184964757D02*
X235100883Y-185036185D01*
X235100883Y-185036185D02*
X235172312Y-184964757D01*
X235172312Y-184964757D02*
X235100883Y-184893328D01*
X235100883Y-184893328D02*
X235100883Y-185036185D01*
X236458027Y-186321900D02*
X236315169Y-186393328D01*
X236315169Y-186393328D02*
X236029455Y-186393328D01*
X236029455Y-186393328D02*
X235886598Y-186321900D01*
X235886598Y-186321900D02*
X235815169Y-186250471D01*
X235815169Y-186250471D02*
X235743741Y-186107614D01*
X235743741Y-186107614D02*
X235743741Y-185679042D01*
X235743741Y-185679042D02*
X235815169Y-185536185D01*
X235815169Y-185536185D02*
X235886598Y-185464757D01*
X235886598Y-185464757D02*
X236029455Y-185393328D01*
X236029455Y-185393328D02*
X236315169Y-185393328D01*
X236315169Y-185393328D02*
X236458027Y-185464757D01*
X237743741Y-186393328D02*
X237743741Y-185607614D01*
X237743741Y-185607614D02*
X237672312Y-185464757D01*
X237672312Y-185464757D02*
X237529455Y-185393328D01*
X237529455Y-185393328D02*
X237243741Y-185393328D01*
X237243741Y-185393328D02*
X237100883Y-185464757D01*
X237743741Y-186321900D02*
X237600883Y-186393328D01*
X237600883Y-186393328D02*
X237243741Y-186393328D01*
X237243741Y-186393328D02*
X237100883Y-186321900D01*
X237100883Y-186321900D02*
X237029455Y-186179042D01*
X237029455Y-186179042D02*
X237029455Y-186036185D01*
X237029455Y-186036185D02*
X237100883Y-185893328D01*
X237100883Y-185893328D02*
X237243741Y-185821900D01*
X237243741Y-185821900D02*
X237600883Y-185821900D01*
X237600883Y-185821900D02*
X237743741Y-185750471D01*
X239100884Y-186393328D02*
X239100884Y-184893328D01*
X239100884Y-186321900D02*
X238958026Y-186393328D01*
X238958026Y-186393328D02*
X238672312Y-186393328D01*
X238672312Y-186393328D02*
X238529455Y-186321900D01*
X238529455Y-186321900D02*
X238458026Y-186250471D01*
X238458026Y-186250471D02*
X238386598Y-186107614D01*
X238386598Y-186107614D02*
X238386598Y-185679042D01*
X238386598Y-185679042D02*
X238458026Y-185536185D01*
X238458026Y-185536185D02*
X238529455Y-185464757D01*
X238529455Y-185464757D02*
X238672312Y-185393328D01*
X238672312Y-185393328D02*
X238958026Y-185393328D01*
X238958026Y-185393328D02*
X239100884Y-185464757D01*
X239458027Y-186536185D02*
X240600884Y-186536185D01*
X240958026Y-185393328D02*
X240958026Y-186893328D01*
X240958026Y-185464757D02*
X241100884Y-185393328D01*
X241100884Y-185393328D02*
X241386598Y-185393328D01*
X241386598Y-185393328D02*
X241529455Y-185464757D01*
X241529455Y-185464757D02*
X241600884Y-185536185D01*
X241600884Y-185536185D02*
X241672312Y-185679042D01*
X241672312Y-185679042D02*
X241672312Y-186107614D01*
X241672312Y-186107614D02*
X241600884Y-186250471D01*
X241600884Y-186250471D02*
X241529455Y-186321900D01*
X241529455Y-186321900D02*
X241386598Y-186393328D01*
X241386598Y-186393328D02*
X241100884Y-186393328D01*
X241100884Y-186393328D02*
X240958026Y-186321900D01*
X242958027Y-186321900D02*
X242815169Y-186393328D01*
X242815169Y-186393328D02*
X242529455Y-186393328D01*
X242529455Y-186393328D02*
X242386598Y-186321900D01*
X242386598Y-186321900D02*
X242315169Y-186250471D01*
X242315169Y-186250471D02*
X242243741Y-186107614D01*
X242243741Y-186107614D02*
X242243741Y-185679042D01*
X242243741Y-185679042D02*
X242315169Y-185536185D01*
X242315169Y-185536185D02*
X242386598Y-185464757D01*
X242386598Y-185464757D02*
X242529455Y-185393328D01*
X242529455Y-185393328D02*
X242815169Y-185393328D01*
X242815169Y-185393328D02*
X242958027Y-185464757D01*
X243600883Y-186393328D02*
X243600883Y-184893328D01*
X243600883Y-185464757D02*
X243743741Y-185393328D01*
X243743741Y-185393328D02*
X244029455Y-185393328D01*
X244029455Y-185393328D02*
X244172312Y-185464757D01*
X244172312Y-185464757D02*
X244243741Y-185536185D01*
X244243741Y-185536185D02*
X244315169Y-185679042D01*
X244315169Y-185679042D02*
X244315169Y-186107614D01*
X244315169Y-186107614D02*
X244243741Y-186250471D01*
X244243741Y-186250471D02*
X244172312Y-186321900D01*
X244172312Y-186321900D02*
X244029455Y-186393328D01*
X244029455Y-186393328D02*
X243743741Y-186393328D01*
X243743741Y-186393328D02*
X243600883Y-186321900D01*
D10*
D11*
X177002200Y-181507200D02*
X285002200Y-181507200D01*
D10*
D11*
X178386598Y-183621900D02*
X178600884Y-183693328D01*
X178600884Y-183693328D02*
X178958026Y-183693328D01*
X178958026Y-183693328D02*
X179100884Y-183621900D01*
X179100884Y-183621900D02*
X179172312Y-183550471D01*
X179172312Y-183550471D02*
X179243741Y-183407614D01*
X179243741Y-183407614D02*
X179243741Y-183264757D01*
X179243741Y-183264757D02*
X179172312Y-183121900D01*
X179172312Y-183121900D02*
X179100884Y-183050471D01*
X179100884Y-183050471D02*
X178958026Y-182979042D01*
X178958026Y-182979042D02*
X178672312Y-182907614D01*
X178672312Y-182907614D02*
X178529455Y-182836185D01*
X178529455Y-182836185D02*
X178458026Y-182764757D01*
X178458026Y-182764757D02*
X178386598Y-182621900D01*
X178386598Y-182621900D02*
X178386598Y-182479042D01*
X178386598Y-182479042D02*
X178458026Y-182336185D01*
X178458026Y-182336185D02*
X178529455Y-182264757D01*
X178529455Y-182264757D02*
X178672312Y-182193328D01*
X178672312Y-182193328D02*
X179029455Y-182193328D01*
X179029455Y-182193328D02*
X179243741Y-182264757D01*
X179886597Y-183693328D02*
X179886597Y-182193328D01*
X180529455Y-183693328D02*
X180529455Y-182907614D01*
X180529455Y-182907614D02*
X180458026Y-182764757D01*
X180458026Y-182764757D02*
X180315169Y-182693328D01*
X180315169Y-182693328D02*
X180100883Y-182693328D01*
X180100883Y-182693328D02*
X179958026Y-182764757D01*
X179958026Y-182764757D02*
X179886597Y-182836185D01*
X181815169Y-183621900D02*
X181672312Y-183693328D01*
X181672312Y-183693328D02*
X181386598Y-183693328D01*
X181386598Y-183693328D02*
X181243740Y-183621900D01*
X181243740Y-183621900D02*
X181172312Y-183479042D01*
X181172312Y-183479042D02*
X181172312Y-182907614D01*
X181172312Y-182907614D02*
X181243740Y-182764757D01*
X181243740Y-182764757D02*
X181386598Y-182693328D01*
X181386598Y-182693328D02*
X181672312Y-182693328D01*
X181672312Y-182693328D02*
X181815169Y-182764757D01*
X181815169Y-182764757D02*
X181886598Y-182907614D01*
X181886598Y-182907614D02*
X181886598Y-183050471D01*
X181886598Y-183050471D02*
X181172312Y-183193328D01*
X183100883Y-183621900D02*
X182958026Y-183693328D01*
X182958026Y-183693328D02*
X182672312Y-183693328D01*
X182672312Y-183693328D02*
X182529454Y-183621900D01*
X182529454Y-183621900D02*
X182458026Y-183479042D01*
X182458026Y-183479042D02*
X182458026Y-182907614D01*
X182458026Y-182907614D02*
X182529454Y-182764757D01*
X182529454Y-182764757D02*
X182672312Y-182693328D01*
X182672312Y-182693328D02*
X182958026Y-182693328D01*
X182958026Y-182693328D02*
X183100883Y-182764757D01*
X183100883Y-182764757D02*
X183172312Y-182907614D01*
X183172312Y-182907614D02*
X183172312Y-183050471D01*
X183172312Y-183050471D02*
X182458026Y-183193328D01*
X183600883Y-182693328D02*
X184172311Y-182693328D01*
X183815168Y-182193328D02*
X183815168Y-183479042D01*
X183815168Y-183479042D02*
X183886597Y-183621900D01*
X183886597Y-183621900D02*
X184029454Y-183693328D01*
X184029454Y-183693328D02*
X184172311Y-183693328D01*
X184672311Y-183550471D02*
X184743740Y-183621900D01*
X184743740Y-183621900D02*
X184672311Y-183693328D01*
X184672311Y-183693328D02*
X184600883Y-183621900D01*
X184600883Y-183621900D02*
X184672311Y-183550471D01*
X184672311Y-183550471D02*
X184672311Y-183693328D01*
X184672311Y-182764757D02*
X184743740Y-182836185D01*
X184743740Y-182836185D02*
X184672311Y-182907614D01*
X184672311Y-182907614D02*
X184600883Y-182836185D01*
X184600883Y-182836185D02*
X184672311Y-182764757D01*
X184672311Y-182764757D02*
X184672311Y-182907614D01*
D10*
D11*
X197002200Y-191507200D02*
X197002200Y-194507200D01*
D10*
D11*
X261002200Y-191507200D02*
X261002200Y-198007200D01*
D14*
%TO.C,U1*%
X218290000Y-45080000D03*
X218290000Y-92650000D03*
X229680000Y-92650000D03*
X229690000Y-45080000D03*
D15*
X214300000Y-44450000D03*
X214300000Y-46990000D03*
D16*
X214300000Y-49530000D03*
D15*
X214300000Y-52070000D03*
X214300000Y-54610000D03*
X214300000Y-57150000D03*
X214300000Y-59690000D03*
D16*
X214300000Y-62230000D03*
D15*
X214300000Y-64770000D03*
X214300000Y-67310000D03*
X214300000Y-69850000D03*
X214300000Y-72390000D03*
D16*
X214300000Y-74930000D03*
D15*
X214300000Y-77470000D03*
X214300000Y-80010000D03*
X214300000Y-82550000D03*
X214300000Y-85090000D03*
D16*
X214300000Y-87630000D03*
D15*
X214300000Y-90170000D03*
X214300000Y-92710000D03*
D17*
X233680000Y-92710000D03*
X233680000Y-90170000D03*
D18*
X233680000Y-87630000D03*
D17*
X233680000Y-85090000D03*
X233680000Y-82550000D03*
X233680000Y-80010000D03*
X233680000Y-77470000D03*
D18*
X233680000Y-74930000D03*
D17*
X233680000Y-72390000D03*
X233680000Y-69850000D03*
X233680000Y-67310000D03*
X233680000Y-64770000D03*
D18*
X233680000Y-62230000D03*
D17*
X233680000Y-59690000D03*
X233680000Y-57150000D03*
X233680000Y-54610000D03*
X233680000Y-52070000D03*
D18*
X233680000Y-49530000D03*
D17*
X233680000Y-46990000D03*
X233680000Y-44450000D03*
D19*
X221450000Y-93280000D03*
D20*
X223990000Y-93280000D03*
D19*
X226530000Y-93280000D03*
%TD*%
D21*
%TO.C,J1*%
X190950000Y-61225000D03*
D22*
X193490000Y-61225000D03*
X196030000Y-61225000D03*
X198570000Y-61225000D03*
%TD*%
D23*
%TO.C,H5*%
X205800000Y-62750000D03*
%TD*%
D21*
%TO.C,J2*%
X140800000Y-57010000D03*
D22*
X143340000Y-57010000D03*
X145880000Y-57010000D03*
X148420000Y-57010000D03*
X150960000Y-57010000D03*
X153500000Y-57010000D03*
X156040000Y-57010000D03*
%TD*%
D23*
%TO.C,H1*%
X138485000Y-44400000D03*
%TD*%
D21*
%TO.C,J3*%
X177825000Y-93900000D03*
D22*
X175285000Y-93900000D03*
X172745000Y-93900000D03*
X170205000Y-93900000D03*
X167665000Y-93900000D03*
X165125000Y-93900000D03*
%TD*%
D23*
%TO.C,H10*%
X208000000Y-44200000D03*
%TD*%
%TO.C,H2*%
X137541000Y-95859600D03*
%TD*%
%TO.C,H7*%
X158315000Y-44400000D03*
%TD*%
%TO.C,H4*%
X184800000Y-93400000D03*
%TD*%
%TO.C,H9*%
X191000000Y-44200000D03*
%TD*%
D21*
%TO.C,J5*%
X168097200Y-41402000D03*
D22*
X170637200Y-41402000D03*
X173177200Y-41402000D03*
X175717200Y-41402000D03*
X178257200Y-41402000D03*
%TD*%
D23*
%TO.C,H3*%
X184800000Y-62750000D03*
%TD*%
%TO.C,H6*%
X205800000Y-93400000D03*
%TD*%
D21*
%TO.C,J4*%
X190780000Y-56700000D03*
D22*
X193320000Y-56700000D03*
X195860000Y-56700000D03*
X198400000Y-56700000D03*
X200940000Y-56700000D03*
X203480000Y-56700000D03*
X206020000Y-56700000D03*
X208560000Y-56700000D03*
%TD*%
M02*
