%TF.GenerationSoftware,KiCad,Pcbnew,8.0.6*%
%TF.CreationDate,2024-12-10T15:52:01-08:00*%
%TF.ProjectId,Avionics Power Regulation Board,4176696f-6e69-4637-9320-506f77657220,2*%
%TF.SameCoordinates,Original*%
%TF.FileFunction,Copper,L2,Bot*%
%TF.FilePolarity,Positive*%
%FSLAX46Y46*%
G04 Gerber Fmt 4.6, Leading zero omitted, Abs format (unit mm)*
G04 Created by KiCad (PCBNEW 8.0.6) date 2024-12-10 15:52:01*
%MOMM*%
%LPD*%
G01*
G04 APERTURE LIST*
%TA.AperFunction,ComponentPad*%
%ADD10C,1.600000*%
%TD*%
%TA.AperFunction,ComponentPad*%
%ADD11C,2.000000*%
%TD*%
%TA.AperFunction,ComponentPad*%
%ADD12C,1.200000*%
%TD*%
%TA.AperFunction,ComponentPad*%
%ADD13C,1.778000*%
%TD*%
%TA.AperFunction,ComponentPad*%
%ADD14C,2.400000*%
%TD*%
%TA.AperFunction,ComponentPad*%
%ADD15R,2.200000X2.200000*%
%TD*%
%TA.AperFunction,ComponentPad*%
%ADD16O,2.200000X2.200000*%
%TD*%
%TA.AperFunction,WasherPad*%
%ADD17C,3.500000*%
%TD*%
%TA.AperFunction,ComponentPad*%
%ADD18R,1.473200X1.473200*%
%TD*%
%TA.AperFunction,ComponentPad*%
%ADD19C,1.473200*%
%TD*%
%TA.AperFunction,ComponentPad*%
%ADD20R,3.200000X3.200000*%
%TD*%
%TA.AperFunction,ComponentPad*%
%ADD21O,3.200000X3.200000*%
%TD*%
%TA.AperFunction,ComponentPad*%
%ADD22R,1.700000X1.700000*%
%TD*%
%TA.AperFunction,ComponentPad*%
%ADD23O,1.700000X1.700000*%
%TD*%
%TA.AperFunction,ViaPad*%
%ADD24C,0.600000*%
%TD*%
%TA.AperFunction,Conductor*%
%ADD25C,0.200000*%
%TD*%
%TA.AperFunction,Conductor*%
%ADD26C,1.367030*%
%TD*%
G04 APERTURE END LIST*
D10*
%TO.P,CC3,1*%
%TO.N,/Battery Monitor System/VC2*%
X177441500Y-84386400D03*
%TO.P,CC3,2*%
%TO.N,/Battery Monitor System/VC1*%
X177441500Y-82386400D03*
%TD*%
D11*
%TO.P,L1,1*%
%TO.N,Net-(D1-K)*%
X189103000Y-114046000D03*
%TO.P,L1,2*%
%TO.N,/VOUT*%
X185103000Y-114046000D03*
%TD*%
D12*
%TO.P,CSS1,1*%
%TO.N,Net-(U4-SS)*%
X187291500Y-103536400D03*
%TO.P,CSS1,2*%
%TO.N,GNDREF*%
X187291500Y-102036400D03*
%TD*%
D13*
%TO.P,Q2,1*%
%TO.N,Net-(D4-A)*%
X190591500Y-76076400D03*
%TO.P,Q2,2*%
%TO.N,/Battery Monitor System/CHG*%
X190591500Y-73536400D03*
%TO.P,Q2,3*%
%TO.N,GNDREF*%
X190591500Y-70996400D03*
%TD*%
D10*
%TO.P,C1,1*%
%TO.N,/VIN*%
X182500000Y-120350000D03*
%TO.P,C1,2*%
%TO.N,GNDREF*%
X182500000Y-118350000D03*
%TD*%
D12*
%TO.P,C5,1*%
%TO.N,/Battery Monitor System/SRN*%
X194641500Y-86736400D03*
%TO.P,C5,2*%
%TO.N,GNDREF*%
X194641500Y-88236400D03*
%TD*%
D10*
%TO.P,CC1,1*%
%TO.N,/Battery Monitor System/VC5*%
X177541500Y-95936400D03*
%TO.P,CC1,2*%
%TO.N,/Battery Monitor System/VC3*%
X177541500Y-93936400D03*
%TD*%
D14*
%TO.P,BT1,1+*%
%TO.N,Net-(BT1-Pad1+)*%
X160945000Y-124100000D03*
%TO.P,BT1,1-*%
%TO.N,GNDREF*%
X88045000Y-124100000D03*
%TO.P,BT1,2+*%
%TO.N,Net-(BT1-Pad2+)*%
X160945000Y-104800000D03*
%TO.P,BT1,2-*%
%TO.N,Net-(BT1-Pad1+)*%
X88045000Y-104800000D03*
%TO.P,BT1,3+*%
%TO.N,Net-(BT1-Pad3+)*%
X160945000Y-85500000D03*
%TO.P,BT1,3-*%
%TO.N,Net-(BT1-Pad2+)*%
X88045000Y-85500000D03*
%TO.P,BT1,4+*%
%TO.N,/Battery Monitor System/BAT +*%
X160945000Y-66200000D03*
%TO.P,BT1,4-*%
%TO.N,Net-(BT1-Pad3+)*%
X88045000Y-66200000D03*
%TD*%
D10*
%TO.P,C8,1*%
%TO.N,GNDREF*%
X169841500Y-77836400D03*
%TO.P,C8,2*%
%TO.N,Net-(U2-BAT)*%
X169841500Y-75836400D03*
%TD*%
D15*
%TO.P,D4,1,K*%
%TO.N,/Battery Monitor System/CHG*%
X193661500Y-73636400D03*
D16*
%TO.P,D4,2,A*%
%TO.N,Net-(D4-A)*%
X203821500Y-73636400D03*
%TD*%
D17*
%TO.P,H2,*%
%TO.N,*%
X207111600Y-57200800D03*
%TD*%
D10*
%TO.P,C2,1*%
%TO.N,/VOUT*%
X194191500Y-110236400D03*
%TO.P,C2,2*%
%TO.N,GNDREF*%
X199191500Y-110236400D03*
%TD*%
D15*
%TO.P,D5,1,K*%
%TO.N,Net-(D5-K)*%
X203871500Y-78336400D03*
D16*
%TO.P,D5,2,A*%
%TO.N,Net-(D4-A)*%
X193711500Y-78336400D03*
%TD*%
D13*
%TO.P,Q1,1*%
%TO.N,Net-(D3-K)*%
X190491500Y-68266400D03*
%TO.P,Q1,2*%
%TO.N,/Battery Monitor System/DSG*%
X190491500Y-65726400D03*
%TO.P,Q1,3*%
%TO.N,Net-(D3-A)*%
X190491500Y-63186400D03*
%TD*%
D15*
%TO.P,D3,1,K*%
%TO.N,Net-(D3-K)*%
X193641500Y-68636400D03*
D16*
%TO.P,D3,2,A*%
%TO.N,Net-(D3-A)*%
X203801500Y-68636400D03*
%TD*%
D12*
%TO.P,Cout2,1*%
%TO.N,/VIN*%
X168491500Y-117886400D03*
%TO.P,Cout2,2*%
%TO.N,GNDREF*%
X169991500Y-117886400D03*
%TD*%
%TO.P,C3,1*%
%TO.N,GNDREF*%
X205741500Y-86736400D03*
%TO.P,C3,2*%
%TO.N,/Battery Monitor System/SRP*%
X205741500Y-88236400D03*
%TD*%
D18*
%TO.P,L2,1*%
%TO.N,/REGOUT*%
X176050000Y-111450000D03*
D19*
%TO.P,L2,2*%
%TO.N,Net-(D2-A)*%
X176050000Y-117241200D03*
%TD*%
D12*
%TO.P,Cout1,1*%
%TO.N,/VIN*%
X168291500Y-111536400D03*
%TO.P,Cout1,2*%
%TO.N,GNDREF*%
X169791500Y-111536400D03*
%TD*%
D11*
%TO.P,SW1,1,1*%
%TO.N,Net-(R5-Pad1)*%
X201841500Y-61086400D03*
X195341500Y-61086400D03*
%TO.P,SW1,2,2*%
%TO.N,/Battery Monitor System/VC1*%
X201841500Y-56586400D03*
X195341500Y-56586400D03*
%TD*%
D20*
%TO.P,D1,1,K*%
%TO.N,Net-(D1-K)*%
X205391500Y-108926400D03*
D21*
%TO.P,D1,2,A*%
%TO.N,GNDREF*%
X205391500Y-93686400D03*
%TD*%
D12*
%TO.P,CIN1,1*%
%TO.N,/REGOUT*%
X195141500Y-103486400D03*
%TO.P,CIN1,2*%
%TO.N,GNDREF*%
X195141500Y-101986400D03*
%TD*%
D10*
%TO.P,CC4,1*%
%TO.N,/Battery Monitor System/VC1*%
X177441500Y-78636400D03*
%TO.P,CC4,2*%
%TO.N,GNDREF*%
X177441500Y-76636400D03*
%TD*%
D22*
%TO.P,J1,1,Pin_1*%
%TO.N,GNDREF*%
X170201500Y-58436400D03*
D23*
%TO.P,J1,2,Pin_2*%
%TO.N,/VOUT*%
X172741500Y-58436400D03*
%TO.P,J1,3,Pin_3*%
%TO.N,/SDA*%
X175281500Y-58436400D03*
%TO.P,J1,4,Pin_4*%
%TO.N,/SCL*%
X177821500Y-58436400D03*
%TO.P,J1,5,Pin_5*%
%TO.N,/ALERT*%
X180361500Y-58436400D03*
%TD*%
D10*
%TO.P,Ccomp1,1*%
%TO.N,Net-(Ccomp1-Pad1)*%
X177541500Y-101036400D03*
%TO.P,Ccomp1,2*%
%TO.N,GNDREF*%
X182541500Y-101036400D03*
%TD*%
D13*
%TO.P,Q3,1*%
%TO.N,Net-(D3-K)*%
X190541500Y-83726400D03*
%TO.P,Q3,2*%
%TO.N,Net-(D5-K)*%
X190541500Y-81186400D03*
%TO.P,Q3,3*%
%TO.N,Net-(D6-A)*%
X190541500Y-78646400D03*
%TD*%
D10*
%TO.P,CAP1,1*%
%TO.N,Net-(U2-CAP1)*%
X170241500Y-96436400D03*
%TO.P,CAP1,2*%
%TO.N,GNDREF*%
X170241500Y-98436400D03*
%TD*%
D12*
%TO.P,C7,1*%
%TO.N,GNDREF*%
X170941500Y-83786400D03*
%TO.P,C7,2*%
%TO.N,/REGOUT*%
X169441500Y-83786400D03*
%TD*%
D17*
%TO.P,H1,*%
%TO.N,*%
X207111600Y-132588000D03*
%TD*%
D10*
%TO.P,CC5,1*%
%TO.N,GNDREF*%
X177491500Y-72786400D03*
%TO.P,CC5,2*%
%TO.N,/Battery Monitor System/VC0*%
X177491500Y-70786400D03*
%TD*%
%TO.P,CC2,1*%
%TO.N,/Battery Monitor System/VC3*%
X177441500Y-90186400D03*
%TO.P,CC2,2*%
%TO.N,/Battery Monitor System/VC2*%
X177441500Y-88186400D03*
%TD*%
%TO.P,CBY1,1*%
%TO.N,/REGOUT*%
X182050000Y-107350000D03*
%TO.P,CBY1,2*%
%TO.N,GNDREF*%
X182050000Y-109350000D03*
%TD*%
%TO.P,C6,1*%
%TO.N,/Battery Monitor System/BAT +*%
X170191500Y-91736400D03*
%TO.P,C6,2*%
%TO.N,GNDREF*%
X170191500Y-89736400D03*
%TD*%
D15*
%TO.P,D6,1,K*%
%TO.N,Net-(D3-K)*%
X207391500Y-77526400D03*
D16*
%TO.P,D6,2,A*%
%TO.N,Net-(D6-A)*%
X207391500Y-67366400D03*
%TD*%
D12*
%TO.P,C4,1*%
%TO.N,/Battery Monitor System/SRP*%
X200191500Y-86736400D03*
%TO.P,C4,2*%
%TO.N,/Battery Monitor System/SRN*%
X200191500Y-88236400D03*
%TD*%
D24*
%TO.N,Net-(BT1-Pad1+)*%
X185991500Y-68886400D03*
X170091500Y-102036400D03*
%TO.N,GNDREF*%
X172091500Y-60786400D03*
X188991500Y-56036400D03*
X189484000Y-127508000D03*
X187091500Y-62836400D03*
%TO.N,Net-(BT1-Pad2+)*%
X188091500Y-70986400D03*
X188441500Y-74236400D03*
%TO.N,/VIN*%
X199390000Y-117094000D03*
%TO.N,/Battery Monitor System/SRP*%
X187091500Y-65886400D03*
%TO.N,/Battery Monitor System/SRN*%
X187867971Y-59212870D03*
X183396417Y-59350565D03*
X198791500Y-84986400D03*
X191841500Y-61936400D03*
%TO.N,/REGOUT*%
X174791500Y-106600000D03*
X167991500Y-65686400D03*
X174891500Y-96336400D03*
%TO.N,Net-(U2-CAP1)*%
X171591500Y-69536400D03*
%TO.N,/Battery Monitor System/VC5*%
X185541500Y-77036400D03*
%TO.N,/Battery Monitor System/VC3*%
X184191500Y-77286400D03*
%TO.N,/Battery Monitor System/VC2*%
X184091500Y-73036400D03*
%TO.N,/Battery Monitor System/VC1*%
X184141500Y-68836400D03*
%TO.N,/Battery Monitor System/VC0*%
X184041500Y-64736400D03*
%TO.N,Net-(D3-K)*%
X194641500Y-84736400D03*
X205091500Y-80936400D03*
%TO.N,Net-(D4-A)*%
X205141500Y-76086400D03*
%TO.N,/Battery Monitor System/CHG*%
X169141500Y-61836400D03*
X182741500Y-72436400D03*
%TO.N,Net-(U2-TS1)*%
X192041500Y-57586400D03*
X171915519Y-64521605D03*
%TO.N,/SCL*%
X171374744Y-63932057D03*
%TO.N,/SDA*%
X171291500Y-63136400D03*
%TD*%
D25*
%TO.N,Net-(BT1-Pad1+)*%
X184791500Y-70086400D02*
X185991500Y-68886400D01*
X170091500Y-102036400D02*
X171341500Y-100786400D01*
X171341500Y-100786400D02*
X171341500Y-97980765D01*
X171341500Y-97980765D02*
X184791500Y-84530765D01*
X184791500Y-84530765D02*
X184791500Y-70086400D01*
%TO.N,GNDREF*%
X169841500Y-77836400D02*
X169841500Y-82686400D01*
X169841500Y-82686400D02*
X170941500Y-83786400D01*
X170941500Y-83786400D02*
X170191500Y-84536400D01*
X170191500Y-84536400D02*
X170191500Y-89736400D01*
%TO.N,Net-(BT1-Pad2+)*%
X188441500Y-71336400D02*
X188441500Y-74236400D01*
X188091500Y-70986400D02*
X188441500Y-71336400D01*
D26*
%TO.N,/VIN*%
X186633929Y-117347441D02*
X183631370Y-120350000D01*
X193103985Y-116448885D02*
X186633929Y-116448885D01*
X168491500Y-117886400D02*
X168291500Y-117686400D01*
X177941500Y-114386400D02*
X177941500Y-116556870D01*
X183631370Y-120350000D02*
X182500000Y-120350000D01*
X186633929Y-116448885D02*
X186633929Y-117347441D01*
X169241500Y-114386400D02*
X177941500Y-114386400D01*
X168491500Y-115136400D02*
X169241500Y-114386400D01*
X193749100Y-117094000D02*
X193103985Y-116448885D01*
X181734630Y-120350000D02*
X182500000Y-120350000D01*
X168491500Y-117886400D02*
X168491500Y-115136400D01*
X199390000Y-117094000D02*
X193749100Y-117094000D01*
X177941500Y-116556870D02*
X181734630Y-120350000D01*
D25*
%TO.N,/Battery Monitor System/SRP*%
X190963000Y-77386400D02*
X190191500Y-77386400D01*
X195491500Y-86736400D02*
X195491500Y-86384318D01*
X194391500Y-85886400D02*
X191730500Y-83225400D01*
X195491500Y-86384318D02*
X194993582Y-85886400D01*
X191730500Y-78153900D02*
X190963000Y-77386400D01*
X187091500Y-74286400D02*
X187091500Y-65886400D01*
X194993582Y-85886400D02*
X194391500Y-85886400D01*
X190191500Y-77386400D02*
X187091500Y-74286400D01*
X200191500Y-86736400D02*
X195491500Y-86736400D01*
X191730500Y-83225400D02*
X191730500Y-78153900D01*
%TO.N,/Battery Monitor System/SRN*%
X194441500Y-72236400D02*
X194991500Y-72236400D01*
X183396417Y-59350565D02*
X187730276Y-59350565D01*
X191841500Y-69636400D02*
X194441500Y-72236400D01*
X194991500Y-72236400D02*
X195061500Y-72306400D01*
X195041500Y-82286400D02*
X197741500Y-84986400D01*
X187730276Y-59350565D02*
X187867971Y-59212870D01*
X197741500Y-84986400D02*
X198791500Y-84986400D01*
X191841500Y-61936400D02*
X191841500Y-69636400D01*
X195061500Y-72306400D02*
X195061500Y-78895589D01*
X195041500Y-78915589D02*
X195041500Y-82286400D01*
X195061500Y-78895589D02*
X195041500Y-78915589D01*
%TO.N,/REGOUT*%
X176050000Y-109394900D02*
X174791500Y-108136400D01*
X167991500Y-82336400D02*
X167991500Y-65686400D01*
X174791500Y-96436400D02*
X174791500Y-108136400D01*
X174891500Y-96336400D02*
X174791500Y-96436400D01*
X176050000Y-111450000D02*
X176050000Y-109394900D01*
X169441500Y-83786400D02*
X167991500Y-82336400D01*
%TO.N,Net-(U2-CAP1)*%
X171841500Y-69786400D02*
X171591500Y-69536400D01*
X170241500Y-96436400D02*
X171841500Y-94836400D01*
X171841500Y-94836400D02*
X171841500Y-69786400D01*
%TO.N,/Battery Monitor System/VC5*%
X185541500Y-77036400D02*
X185541500Y-87936400D01*
X185541500Y-87936400D02*
X177541500Y-95936400D01*
%TO.N,/Battery Monitor System/VC3*%
X184191500Y-83436400D02*
X184191500Y-77286400D01*
X177441500Y-90186400D02*
X184191500Y-83436400D01*
%TO.N,/Battery Monitor System/VC2*%
X177441500Y-84386400D02*
X183591500Y-78236400D01*
X183591500Y-78236400D02*
X183591500Y-73536400D01*
X183591500Y-73536400D02*
X184091500Y-73036400D01*
%TO.N,/Battery Monitor System/VC1*%
X177441500Y-82386400D02*
X177441500Y-78636400D01*
X195341500Y-56586400D02*
X184141500Y-67786400D01*
X184141500Y-67786400D02*
X184141500Y-68836400D01*
X184141500Y-68836400D02*
X184141500Y-71936400D01*
X184141500Y-71936400D02*
X177441500Y-78636400D01*
%TO.N,/Battery Monitor System/VC0*%
X183541500Y-64736400D02*
X184041500Y-64736400D01*
X177491500Y-70786400D02*
X183541500Y-64736400D01*
%TO.N,Net-(D3-K)*%
X195441500Y-85536400D02*
X194641500Y-84736400D01*
X200801399Y-68636400D02*
X207391500Y-75226501D01*
X207391500Y-75226501D02*
X207391500Y-77526400D01*
X205091500Y-80936400D02*
X200491500Y-85536400D01*
X200491500Y-85536400D02*
X195441500Y-85536400D01*
X193641500Y-68636400D02*
X200801399Y-68636400D01*
%TO.N,Net-(D4-A)*%
X205141500Y-74956400D02*
X203821500Y-73636400D01*
X205141500Y-76086400D02*
X205141500Y-74956400D01*
%TO.N,/Battery Monitor System/CHG*%
X169141500Y-61836400D02*
X169141500Y-65992035D01*
X169141500Y-65992035D02*
X177035865Y-73886400D01*
X181291500Y-73886400D02*
X182741500Y-72436400D01*
X177035865Y-73886400D02*
X181291500Y-73886400D01*
%TO.N,Net-(U2-TS1)*%
X192041500Y-57586400D02*
X190342971Y-57586400D01*
X172300724Y-64136400D02*
X171915519Y-64521605D01*
X190342971Y-57586400D02*
X183792971Y-64136400D01*
X183792971Y-64136400D02*
X172300724Y-64136400D01*
%TO.N,/SCL*%
X172542599Y-63715301D02*
X171591500Y-63715301D01*
X171591500Y-63715301D02*
X171374744Y-63932057D01*
X177821500Y-58436400D02*
X172542599Y-63715301D01*
%TO.N,/SDA*%
X171291500Y-63136400D02*
X175301500Y-59126400D01*
%TD*%
%TA.AperFunction,Conductor*%
%TO.N,GNDREF*%
G36*
X194466692Y-55156585D02*
G01*
X194512447Y-55209389D01*
X194522391Y-55278547D01*
X194493366Y-55342103D01*
X194475821Y-55358748D01*
X194348292Y-55458007D01*
X194321757Y-55478661D01*
X194153333Y-55661617D01*
X194017326Y-55869793D01*
X193917436Y-56097518D01*
X193856392Y-56338575D01*
X193856390Y-56338587D01*
X193835857Y-56586394D01*
X193835857Y-56586405D01*
X193856390Y-56834212D01*
X193856392Y-56834224D01*
X193917507Y-57075560D01*
X193914882Y-57145380D01*
X193884982Y-57193681D01*
X192910723Y-58167940D01*
X192849400Y-58201425D01*
X192779708Y-58196441D01*
X192723775Y-58154569D01*
X192699358Y-58089105D01*
X192714210Y-58020832D01*
X192718040Y-58014299D01*
X192767289Y-57935922D01*
X192826868Y-57765655D01*
X192827666Y-57758571D01*
X192847065Y-57586403D01*
X192847065Y-57586396D01*
X192826869Y-57407150D01*
X192826868Y-57407145D01*
X192804880Y-57344306D01*
X192767289Y-57236878D01*
X192740146Y-57193681D01*
X192708330Y-57143045D01*
X192671316Y-57084138D01*
X192543762Y-56956584D01*
X192391023Y-56860611D01*
X192220754Y-56801031D01*
X192220749Y-56801030D01*
X192041504Y-56780835D01*
X192041496Y-56780835D01*
X191862250Y-56801030D01*
X191862245Y-56801031D01*
X191691976Y-56860611D01*
X191539236Y-56956585D01*
X191536403Y-56958845D01*
X191534224Y-56959734D01*
X191533342Y-56960289D01*
X191533244Y-56960134D01*
X191471717Y-56985255D01*
X191459088Y-56985900D01*
X190429640Y-56985900D01*
X190429624Y-56985899D01*
X190422028Y-56985899D01*
X190263914Y-56985899D01*
X190156558Y-57014665D01*
X190111181Y-57026824D01*
X190111180Y-57026825D01*
X190076037Y-57047116D01*
X190076035Y-57047117D01*
X189974261Y-57105875D01*
X189974253Y-57105881D01*
X189862449Y-57217686D01*
X188518056Y-58562078D01*
X188456733Y-58595563D01*
X188387041Y-58590579D01*
X188364403Y-58579391D01*
X188355433Y-58573755D01*
X188324353Y-58554225D01*
X188217494Y-58487081D01*
X188047225Y-58427501D01*
X188047220Y-58427500D01*
X187867975Y-58407305D01*
X187867967Y-58407305D01*
X187688721Y-58427500D01*
X187688716Y-58427501D01*
X187518447Y-58487081D01*
X187365708Y-58583054D01*
X187235017Y-58713746D01*
X187173694Y-58747231D01*
X187147336Y-58750065D01*
X183978829Y-58750065D01*
X183911790Y-58730380D01*
X183901514Y-58723010D01*
X183898680Y-58720750D01*
X183898679Y-58720749D01*
X183780478Y-58646478D01*
X183745940Y-58624776D01*
X183575671Y-58565196D01*
X183575666Y-58565195D01*
X183396421Y-58545000D01*
X183396413Y-58545000D01*
X183217167Y-58565195D01*
X183217162Y-58565196D01*
X183046893Y-58624776D01*
X182894154Y-58720749D01*
X182766601Y-58848302D01*
X182670628Y-59001041D01*
X182611048Y-59171310D01*
X182611047Y-59171315D01*
X182590852Y-59350561D01*
X182590852Y-59350568D01*
X182611047Y-59529814D01*
X182611048Y-59529819D01*
X182670628Y-59700088D01*
X182716153Y-59772540D01*
X182766601Y-59852827D01*
X182894155Y-59980381D01*
X183046895Y-60076354D01*
X183217162Y-60135933D01*
X183217167Y-60135934D01*
X183396413Y-60156130D01*
X183396417Y-60156130D01*
X183396421Y-60156130D01*
X183575666Y-60135934D01*
X183575669Y-60135933D01*
X183575672Y-60135933D01*
X183745939Y-60076354D01*
X183898679Y-59980381D01*
X183898684Y-59980375D01*
X183901514Y-59978120D01*
X183903692Y-59977230D01*
X183904575Y-59976676D01*
X183904672Y-59976830D01*
X183966200Y-59951710D01*
X183978829Y-59951065D01*
X186829709Y-59951065D01*
X186896748Y-59970750D01*
X186942503Y-60023554D01*
X186952447Y-60092712D01*
X186923422Y-60156268D01*
X186917390Y-60162746D01*
X183580555Y-63499581D01*
X183519232Y-63533066D01*
X183492874Y-63535900D01*
X173870597Y-63535900D01*
X173803558Y-63516215D01*
X173757803Y-63463411D01*
X173747859Y-63394253D01*
X173776884Y-63330697D01*
X173782916Y-63324219D01*
X174668473Y-62438662D01*
X177337970Y-59769163D01*
X177399291Y-59735680D01*
X177457738Y-59737070D01*
X177586092Y-59771463D01*
X177756819Y-59786400D01*
X177821499Y-59792059D01*
X177821500Y-59792059D01*
X177821501Y-59792059D01*
X177886181Y-59786400D01*
X178056908Y-59771463D01*
X178285163Y-59710303D01*
X178499330Y-59610435D01*
X178692901Y-59474895D01*
X178859995Y-59307801D01*
X178989925Y-59122242D01*
X179044502Y-59078617D01*
X179114000Y-59071423D01*
X179176355Y-59102946D01*
X179193075Y-59122242D01*
X179323000Y-59307795D01*
X179323005Y-59307801D01*
X179490099Y-59474895D01*
X179568539Y-59529819D01*
X179683665Y-59610432D01*
X179683667Y-59610433D01*
X179683670Y-59610435D01*
X179897837Y-59710303D01*
X180126092Y-59771463D01*
X180296819Y-59786400D01*
X180361499Y-59792059D01*
X180361500Y-59792059D01*
X180361501Y-59792059D01*
X180426181Y-59786400D01*
X180596908Y-59771463D01*
X180825163Y-59710303D01*
X181039330Y-59610435D01*
X181232901Y-59474895D01*
X181399995Y-59307801D01*
X181535535Y-59114230D01*
X181635403Y-58900063D01*
X181696563Y-58671808D01*
X181717159Y-58436400D01*
X181696563Y-58200992D01*
X181644235Y-58005698D01*
X181635405Y-57972744D01*
X181635404Y-57972743D01*
X181635403Y-57972737D01*
X181535535Y-57758571D01*
X181529925Y-57750558D01*
X181399994Y-57564997D01*
X181232902Y-57397906D01*
X181232895Y-57397901D01*
X181039334Y-57262367D01*
X181039330Y-57262365D01*
X180968227Y-57229209D01*
X180825163Y-57162497D01*
X180825159Y-57162496D01*
X180825155Y-57162494D01*
X180596913Y-57101338D01*
X180596903Y-57101336D01*
X180361501Y-57080741D01*
X180361499Y-57080741D01*
X180126096Y-57101336D01*
X180126086Y-57101338D01*
X179897844Y-57162494D01*
X179897835Y-57162498D01*
X179683671Y-57262364D01*
X179683669Y-57262365D01*
X179490097Y-57397905D01*
X179323005Y-57564997D01*
X179193075Y-57750558D01*
X179138498Y-57794183D01*
X179069000Y-57801377D01*
X179006645Y-57769854D01*
X178989925Y-57750558D01*
X178859994Y-57564997D01*
X178692902Y-57397906D01*
X178692895Y-57397901D01*
X178499334Y-57262367D01*
X178499330Y-57262365D01*
X178428227Y-57229209D01*
X178285163Y-57162497D01*
X178285159Y-57162496D01*
X178285155Y-57162494D01*
X178056913Y-57101338D01*
X178056903Y-57101336D01*
X177821501Y-57080741D01*
X177821499Y-57080741D01*
X177586096Y-57101336D01*
X177586086Y-57101338D01*
X177357844Y-57162494D01*
X177357835Y-57162498D01*
X177143671Y-57262364D01*
X177143669Y-57262365D01*
X176950097Y-57397905D01*
X176783005Y-57564997D01*
X176653075Y-57750558D01*
X176598498Y-57794183D01*
X176529000Y-57801377D01*
X176466645Y-57769854D01*
X176449925Y-57750558D01*
X176319994Y-57564997D01*
X176152902Y-57397906D01*
X176152895Y-57397901D01*
X175959334Y-57262367D01*
X175959330Y-57262365D01*
X175888227Y-57229209D01*
X175745163Y-57162497D01*
X175745159Y-57162496D01*
X175745155Y-57162494D01*
X175516913Y-57101338D01*
X175516903Y-57101336D01*
X175281501Y-57080741D01*
X175281499Y-57080741D01*
X175046096Y-57101336D01*
X175046086Y-57101338D01*
X174817844Y-57162494D01*
X174817835Y-57162498D01*
X174603671Y-57262364D01*
X174603669Y-57262365D01*
X174410097Y-57397905D01*
X174243005Y-57564997D01*
X174113075Y-57750558D01*
X174058498Y-57794183D01*
X173989000Y-57801377D01*
X173926645Y-57769854D01*
X173909925Y-57750558D01*
X173779994Y-57564997D01*
X173612902Y-57397906D01*
X173612895Y-57397901D01*
X173419334Y-57262367D01*
X173419330Y-57262365D01*
X173348227Y-57229209D01*
X173205163Y-57162497D01*
X173205159Y-57162496D01*
X173205155Y-57162494D01*
X172976913Y-57101338D01*
X172976903Y-57101336D01*
X172741501Y-57080741D01*
X172741499Y-57080741D01*
X172506096Y-57101336D01*
X172506086Y-57101338D01*
X172277844Y-57162494D01*
X172277835Y-57162498D01*
X172063671Y-57262364D01*
X172063669Y-57262365D01*
X171870100Y-57397903D01*
X171747784Y-57520219D01*
X171686461Y-57553703D01*
X171616769Y-57548719D01*
X171560836Y-57506847D01*
X171543921Y-57475870D01*
X171494854Y-57344313D01*
X171494850Y-57344306D01*
X171408690Y-57229212D01*
X171408687Y-57229209D01*
X171293593Y-57143049D01*
X171293586Y-57143045D01*
X171158879Y-57092803D01*
X171158872Y-57092801D01*
X171099344Y-57086400D01*
X170451500Y-57086400D01*
X170451500Y-58003388D01*
X170394493Y-57970475D01*
X170267326Y-57936400D01*
X170135674Y-57936400D01*
X170008507Y-57970475D01*
X169951500Y-58003388D01*
X169951500Y-57086400D01*
X169303655Y-57086400D01*
X169244127Y-57092801D01*
X169244120Y-57092803D01*
X169109413Y-57143045D01*
X169109406Y-57143049D01*
X168994312Y-57229209D01*
X168994309Y-57229212D01*
X168908149Y-57344306D01*
X168908145Y-57344313D01*
X168857903Y-57479020D01*
X168857901Y-57479027D01*
X168851500Y-57538555D01*
X168851500Y-58186400D01*
X169768488Y-58186400D01*
X169735575Y-58243407D01*
X169701500Y-58370574D01*
X169701500Y-58502226D01*
X169735575Y-58629393D01*
X169768488Y-58686400D01*
X168851500Y-58686400D01*
X168851500Y-59334244D01*
X168857901Y-59393772D01*
X168857903Y-59393779D01*
X168908145Y-59528486D01*
X168908149Y-59528493D01*
X168994309Y-59643587D01*
X168994312Y-59643590D01*
X169109406Y-59729750D01*
X169109413Y-59729754D01*
X169244120Y-59779996D01*
X169244127Y-59779998D01*
X169303655Y-59786399D01*
X169303672Y-59786400D01*
X169951500Y-59786400D01*
X169951500Y-58869412D01*
X170008507Y-58902325D01*
X170135674Y-58936400D01*
X170267326Y-58936400D01*
X170394493Y-58902325D01*
X170451500Y-58869412D01*
X170451500Y-59786400D01*
X171099328Y-59786400D01*
X171099344Y-59786399D01*
X171158872Y-59779998D01*
X171158879Y-59779996D01*
X171293586Y-59729754D01*
X171293593Y-59729750D01*
X171408687Y-59643590D01*
X171408690Y-59643587D01*
X171494850Y-59528493D01*
X171494854Y-59528486D01*
X171543922Y-59396929D01*
X171585793Y-59340995D01*
X171651257Y-59316578D01*
X171719530Y-59331430D01*
X171747785Y-59352581D01*
X171870099Y-59474895D01*
X171948539Y-59529819D01*
X172063665Y-59610432D01*
X172063667Y-59610433D01*
X172063670Y-59610435D01*
X172277837Y-59710303D01*
X172506092Y-59771463D01*
X172676819Y-59786400D01*
X172741499Y-59792059D01*
X172741500Y-59792059D01*
X172741501Y-59792059D01*
X172806181Y-59786400D01*
X172976908Y-59771463D01*
X173205163Y-59710303D01*
X173419330Y-59610435D01*
X173612901Y-59474895D01*
X173779995Y-59307801D01*
X173909925Y-59122242D01*
X173964502Y-59078617D01*
X174034000Y-59071423D01*
X174096355Y-59102946D01*
X174113075Y-59122242D01*
X174194798Y-59238955D01*
X174217125Y-59305161D01*
X174200115Y-59372928D01*
X174180904Y-59397759D01*
X171272965Y-62305698D01*
X171211642Y-62339183D01*
X171199168Y-62341237D01*
X171112250Y-62351030D01*
X170941978Y-62410610D01*
X170789237Y-62506584D01*
X170661684Y-62634137D01*
X170565711Y-62786876D01*
X170506131Y-62957145D01*
X170506130Y-62957150D01*
X170485935Y-63136396D01*
X170485935Y-63136403D01*
X170506130Y-63315649D01*
X170506131Y-63315654D01*
X170565711Y-63485923D01*
X170609122Y-63555011D01*
X170628122Y-63622248D01*
X170621170Y-63661937D01*
X170589375Y-63752804D01*
X170569179Y-63932053D01*
X170569179Y-63932060D01*
X170589374Y-64111306D01*
X170589375Y-64111311D01*
X170648955Y-64281580D01*
X170715119Y-64386878D01*
X170744928Y-64434319D01*
X170872482Y-64561873D01*
X171025222Y-64657846D01*
X171071274Y-64673960D01*
X171128050Y-64714682D01*
X171147361Y-64750047D01*
X171189728Y-64871124D01*
X171217705Y-64915649D01*
X171285703Y-65023867D01*
X171413257Y-65151421D01*
X171434400Y-65164706D01*
X171553255Y-65239388D01*
X171565997Y-65247394D01*
X171736264Y-65306973D01*
X171736269Y-65306974D01*
X171915515Y-65327170D01*
X171915519Y-65327170D01*
X171915523Y-65327170D01*
X172094768Y-65306974D01*
X172094771Y-65306973D01*
X172094774Y-65306973D01*
X172265041Y-65247394D01*
X172417781Y-65151421D01*
X172545335Y-65023867D01*
X172641308Y-64871127D01*
X172659217Y-64819944D01*
X172699939Y-64763169D01*
X172764892Y-64737422D01*
X172776259Y-64736900D01*
X182392403Y-64736900D01*
X182459442Y-64756585D01*
X182505197Y-64809389D01*
X182515141Y-64878547D01*
X182486116Y-64942103D01*
X182480084Y-64948581D01*
X177934205Y-69494458D01*
X177872882Y-69527943D01*
X177814431Y-69526552D01*
X177718197Y-69500766D01*
X177718193Y-69500765D01*
X177718192Y-69500765D01*
X177718191Y-69500764D01*
X177718186Y-69500764D01*
X177491502Y-69480932D01*
X177491498Y-69480932D01*
X177264813Y-69500764D01*
X177264802Y-69500766D01*
X177045011Y-69559658D01*
X177045002Y-69559661D01*
X176838767Y-69655831D01*
X176838765Y-69655832D01*
X176652358Y-69786354D01*
X176491454Y-69947258D01*
X176360932Y-70133665D01*
X176360931Y-70133667D01*
X176264761Y-70339902D01*
X176264758Y-70339911D01*
X176205866Y-70559702D01*
X176205864Y-70559713D01*
X176186032Y-70786398D01*
X176186032Y-70786401D01*
X176205864Y-71013086D01*
X176205866Y-71013097D01*
X176264758Y-71232888D01*
X176264761Y-71232897D01*
X176360931Y-71439132D01*
X176360932Y-71439134D01*
X176491454Y-71625541D01*
X176652358Y-71786445D01*
X176699193Y-71819239D01*
X176838766Y-71916968D01*
X177045004Y-72013139D01*
X177045006Y-72013139D01*
X177045013Y-72013142D01*
X177049503Y-72014345D01*
X177105092Y-72046439D01*
X177445053Y-72386400D01*
X177438839Y-72386400D01*
X177337106Y-72413659D01*
X177245894Y-72466320D01*
X177171420Y-72540794D01*
X177118759Y-72632006D01*
X177091500Y-72733739D01*
X177091500Y-72739952D01*
X176412474Y-72060926D01*
X176412473Y-72060926D01*
X176361366Y-72133915D01*
X176358658Y-72138607D01*
X176356518Y-72137371D01*
X176317105Y-72181977D01*
X176249878Y-72201011D01*
X176183032Y-72180678D01*
X176163398Y-72164698D01*
X169778319Y-65779619D01*
X169744834Y-65718296D01*
X169742000Y-65691938D01*
X169742000Y-62418812D01*
X169761685Y-62351773D01*
X169769055Y-62341497D01*
X169771310Y-62338667D01*
X169771316Y-62338662D01*
X169867289Y-62185922D01*
X169926868Y-62015655D01*
X169927372Y-62011182D01*
X169947065Y-61836403D01*
X169947065Y-61836396D01*
X169926869Y-61657150D01*
X169926868Y-61657145D01*
X169867289Y-61486878D01*
X169771316Y-61334138D01*
X169643762Y-61206584D01*
X169555352Y-61151032D01*
X169491023Y-61110611D01*
X169320754Y-61051031D01*
X169320749Y-61051030D01*
X169141504Y-61030835D01*
X169141496Y-61030835D01*
X168962250Y-61051030D01*
X168962245Y-61051031D01*
X168791976Y-61110611D01*
X168639237Y-61206584D01*
X168511684Y-61334137D01*
X168415711Y-61486876D01*
X168356131Y-61657145D01*
X168356130Y-61657150D01*
X168335935Y-61836396D01*
X168335935Y-61836403D01*
X168356130Y-62015649D01*
X168356131Y-62015654D01*
X168415711Y-62185923D01*
X168511685Y-62338663D01*
X168513945Y-62341497D01*
X168514834Y-62343675D01*
X168515389Y-62344558D01*
X168515234Y-62344655D01*
X168540355Y-62406183D01*
X168541000Y-62418812D01*
X168541000Y-64861903D01*
X168521315Y-64928942D01*
X168468511Y-64974697D01*
X168399353Y-64984641D01*
X168351032Y-64966899D01*
X168341026Y-64960612D01*
X168170754Y-64901031D01*
X168170749Y-64901030D01*
X167991504Y-64880835D01*
X167991496Y-64880835D01*
X167812250Y-64901030D01*
X167812245Y-64901031D01*
X167641976Y-64960611D01*
X167489237Y-65056584D01*
X167361684Y-65184137D01*
X167265711Y-65336876D01*
X167206131Y-65507145D01*
X167206130Y-65507150D01*
X167185935Y-65686396D01*
X167185935Y-65686403D01*
X167206130Y-65865649D01*
X167206131Y-65865654D01*
X167265711Y-66035923D01*
X167361685Y-66188663D01*
X167363945Y-66191497D01*
X167364834Y-66193675D01*
X167365389Y-66194558D01*
X167365234Y-66194655D01*
X167390355Y-66256183D01*
X167391000Y-66268812D01*
X167391000Y-82249730D01*
X167390999Y-82249748D01*
X167390999Y-82415454D01*
X167390998Y-82415454D01*
X167431923Y-82568186D01*
X167431924Y-82568187D01*
X167457847Y-82613086D01*
X167457850Y-82613092D01*
X167508377Y-82700608D01*
X167510981Y-82705117D01*
X167629849Y-82823985D01*
X167629855Y-82823990D01*
X168316832Y-83510968D01*
X168350317Y-83572291D01*
X168352622Y-83610090D01*
X168336285Y-83786399D01*
X168336285Y-83786400D01*
X168355102Y-83989482D01*
X168410917Y-84185647D01*
X168410922Y-84185660D01*
X168501827Y-84368221D01*
X168624737Y-84530981D01*
X168740902Y-84636878D01*
X168774672Y-84667664D01*
X168775458Y-84668380D01*
X168775460Y-84668382D01*
X168865641Y-84724219D01*
X168948863Y-84775748D01*
X169139044Y-84849424D01*
X169339524Y-84886900D01*
X169339526Y-84886900D01*
X169543474Y-84886900D01*
X169543476Y-84886900D01*
X169743956Y-84849424D01*
X169934137Y-84775748D01*
X170107541Y-84668381D01*
X170108323Y-84667667D01*
X170108781Y-84667444D01*
X170112115Y-84664927D01*
X170112607Y-84665578D01*
X170171119Y-84637044D01*
X170240507Y-84645231D01*
X170270973Y-84664809D01*
X170271188Y-84664526D01*
X170274927Y-84667350D01*
X170275416Y-84667664D01*
X170275763Y-84667980D01*
X170449084Y-84775297D01*
X170639178Y-84848939D01*
X170839572Y-84886400D01*
X171043427Y-84886400D01*
X171094214Y-84876906D01*
X171163730Y-84883937D01*
X171218408Y-84927434D01*
X171240891Y-84993588D01*
X171241000Y-84998795D01*
X171241000Y-88648060D01*
X171221315Y-88715099D01*
X171168511Y-88760854D01*
X171099353Y-88770798D01*
X171035797Y-88741773D01*
X171031060Y-88737362D01*
X171030325Y-88736746D01*
X170843982Y-88606265D01*
X170637826Y-88510134D01*
X170637817Y-88510130D01*
X170418110Y-88451260D01*
X170418099Y-88451258D01*
X170191502Y-88431434D01*
X170191498Y-88431434D01*
X169964900Y-88451258D01*
X169964889Y-88451260D01*
X169745182Y-88510130D01*
X169745173Y-88510134D01*
X169539016Y-88606266D01*
X169539012Y-88606268D01*
X169466026Y-88657373D01*
X169466026Y-88657374D01*
X170145053Y-89336400D01*
X170138839Y-89336400D01*
X170037106Y-89363659D01*
X169945894Y-89416320D01*
X169871420Y-89490794D01*
X169818759Y-89582006D01*
X169791500Y-89683739D01*
X169791500Y-89689952D01*
X169112474Y-89010926D01*
X169112473Y-89010926D01*
X169061368Y-89083912D01*
X169061366Y-89083916D01*
X168965234Y-89290073D01*
X168965230Y-89290082D01*
X168906360Y-89509789D01*
X168906358Y-89509800D01*
X168886534Y-89736397D01*
X168886534Y-89736402D01*
X168906358Y-89962999D01*
X168906360Y-89963010D01*
X168965230Y-90182717D01*
X168965235Y-90182731D01*
X169061363Y-90388878D01*
X169112474Y-90461872D01*
X169791500Y-89782846D01*
X169791500Y-89789061D01*
X169818759Y-89890794D01*
X169871420Y-89982006D01*
X169945894Y-90056480D01*
X170037106Y-90109141D01*
X170138839Y-90136400D01*
X170145051Y-90136400D01*
X169805090Y-90476361D01*
X169749512Y-90508452D01*
X169745008Y-90509659D01*
X169745003Y-90509660D01*
X169538767Y-90605831D01*
X169538765Y-90605832D01*
X169352358Y-90736354D01*
X169191454Y-90897258D01*
X169060932Y-91083665D01*
X169060931Y-91083667D01*
X168964761Y-91289902D01*
X168964758Y-91289911D01*
X168905866Y-91509702D01*
X168905864Y-91509713D01*
X168886032Y-91736398D01*
X168886032Y-91736401D01*
X168905864Y-91963086D01*
X168905866Y-91963097D01*
X168964758Y-92182888D01*
X168964761Y-92182897D01*
X169060931Y-92389132D01*
X169060932Y-92389134D01*
X169191454Y-92575541D01*
X169352358Y-92736445D01*
X169399193Y-92769239D01*
X169538766Y-92866968D01*
X169745004Y-92963139D01*
X169964808Y-93022035D01*
X170126730Y-93036201D01*
X170191498Y-93041868D01*
X170191500Y-93041868D01*
X170191502Y-93041868D01*
X170248173Y-93036909D01*
X170418192Y-93022035D01*
X170637996Y-92963139D01*
X170844234Y-92866968D01*
X171030639Y-92736447D01*
X171030640Y-92736445D01*
X171030644Y-92736443D01*
X171034789Y-92732966D01*
X171035833Y-92734210D01*
X171090642Y-92704283D01*
X171160334Y-92709267D01*
X171216267Y-92751139D01*
X171240684Y-92816603D01*
X171241000Y-92825449D01*
X171241000Y-94536302D01*
X171221315Y-94603341D01*
X171204681Y-94623983D01*
X170684205Y-95144458D01*
X170622882Y-95177943D01*
X170564431Y-95176552D01*
X170468197Y-95150766D01*
X170468193Y-95150765D01*
X170468192Y-95150765D01*
X170468191Y-95150764D01*
X170468186Y-95150764D01*
X170241502Y-95130932D01*
X170241498Y-95130932D01*
X170014813Y-95150764D01*
X170014802Y-95150766D01*
X169795011Y-95209658D01*
X169795002Y-95209661D01*
X169588767Y-95305831D01*
X169588765Y-95305832D01*
X169402358Y-95436354D01*
X169241454Y-95597258D01*
X169110932Y-95783665D01*
X169110931Y-95783667D01*
X169014761Y-95989902D01*
X169014758Y-95989911D01*
X168955866Y-96209702D01*
X168955864Y-96209713D01*
X168936032Y-96436398D01*
X168936032Y-96436401D01*
X168955864Y-96663086D01*
X168955866Y-96663097D01*
X169014758Y-96882888D01*
X169014761Y-96882897D01*
X169110931Y-97089132D01*
X169110932Y-97089134D01*
X169241454Y-97275541D01*
X169402358Y-97436445D01*
X169402361Y-97436447D01*
X169588766Y-97566968D01*
X169795004Y-97663139D01*
X169795006Y-97663139D01*
X169795013Y-97663142D01*
X169799503Y-97664345D01*
X169855092Y-97696439D01*
X170195053Y-98036400D01*
X170188839Y-98036400D01*
X170087106Y-98063659D01*
X169995894Y-98116320D01*
X169921420Y-98190794D01*
X169868759Y-98282006D01*
X169841500Y-98383739D01*
X169841500Y-98389952D01*
X169162474Y-97710926D01*
X169162473Y-97710926D01*
X169111368Y-97783912D01*
X169111366Y-97783916D01*
X169015234Y-97990073D01*
X169015230Y-97990082D01*
X168956360Y-98209789D01*
X168956358Y-98209800D01*
X168936534Y-98436397D01*
X168936534Y-98436402D01*
X168956358Y-98662999D01*
X168956360Y-98663010D01*
X169015230Y-98882717D01*
X169015235Y-98882731D01*
X169111363Y-99088878D01*
X169162474Y-99161872D01*
X169841500Y-98482846D01*
X169841500Y-98489061D01*
X169868759Y-98590794D01*
X169921420Y-98682006D01*
X169995894Y-98756480D01*
X170087106Y-98809141D01*
X170188839Y-98836400D01*
X170195051Y-98836400D01*
X169516026Y-99515425D01*
X169589013Y-99566532D01*
X169589021Y-99566536D01*
X169795168Y-99662664D01*
X169795182Y-99662669D01*
X170014889Y-99721539D01*
X170014900Y-99721541D01*
X170241498Y-99741366D01*
X170241502Y-99741366D01*
X170468099Y-99721541D01*
X170468109Y-99721539D01*
X170584907Y-99690244D01*
X170654756Y-99691907D01*
X170712619Y-99731069D01*
X170740123Y-99795298D01*
X170741000Y-99810019D01*
X170741000Y-100486302D01*
X170721315Y-100553341D01*
X170704681Y-100573983D01*
X170072965Y-101205698D01*
X170011642Y-101239183D01*
X169999168Y-101241237D01*
X169912250Y-101251030D01*
X169741978Y-101310610D01*
X169589237Y-101406584D01*
X169461684Y-101534137D01*
X169365711Y-101686876D01*
X169306131Y-101857145D01*
X169306130Y-101857150D01*
X169285935Y-102036396D01*
X169285935Y-102036403D01*
X169306130Y-102215649D01*
X169306131Y-102215654D01*
X169365711Y-102385923D01*
X169396843Y-102435469D01*
X169461684Y-102538662D01*
X169589238Y-102666216D01*
X169660919Y-102711256D01*
X169709562Y-102741821D01*
X169741978Y-102762189D01*
X169836747Y-102795350D01*
X169912245Y-102821768D01*
X169912250Y-102821769D01*
X170091496Y-102841965D01*
X170091500Y-102841965D01*
X170091504Y-102841965D01*
X170270749Y-102821769D01*
X170270752Y-102821768D01*
X170270755Y-102821768D01*
X170441022Y-102762189D01*
X170593762Y-102666216D01*
X170721316Y-102538662D01*
X170817289Y-102385922D01*
X170876868Y-102215655D01*
X170886661Y-102128729D01*
X170913726Y-102064318D01*
X170922190Y-102054943D01*
X171700006Y-101277128D01*
X171700011Y-101277124D01*
X171710214Y-101266920D01*
X171710216Y-101266920D01*
X171822020Y-101155116D01*
X171890560Y-101036400D01*
X171901077Y-101018185D01*
X171942001Y-100865457D01*
X171942001Y-100707343D01*
X171942001Y-100699748D01*
X171942000Y-100699730D01*
X171942000Y-98280861D01*
X171961685Y-98213822D01*
X171978314Y-98193185D01*
X173878464Y-96293034D01*
X173939785Y-96259551D01*
X174009477Y-96264535D01*
X174065410Y-96306407D01*
X174089363Y-96366833D01*
X174106130Y-96515650D01*
X174106131Y-96515654D01*
X174165712Y-96685925D01*
X174171992Y-96695919D01*
X174191000Y-96761893D01*
X174191000Y-106017587D01*
X174171315Y-106084626D01*
X174163950Y-106094896D01*
X174161686Y-106097734D01*
X174065711Y-106250476D01*
X174006131Y-106420745D01*
X174006130Y-106420750D01*
X173985935Y-106599996D01*
X173985935Y-106600003D01*
X174006130Y-106779249D01*
X174006131Y-106779254D01*
X174065711Y-106949523D01*
X174126015Y-107045496D01*
X174150249Y-107084064D01*
X174161685Y-107102263D01*
X174163945Y-107105097D01*
X174164834Y-107107275D01*
X174165389Y-107108158D01*
X174165234Y-107108255D01*
X174190355Y-107169783D01*
X174191000Y-107182412D01*
X174191000Y-108049730D01*
X174190999Y-108049748D01*
X174190999Y-108215454D01*
X174190998Y-108215454D01*
X174231923Y-108368185D01*
X174260858Y-108418300D01*
X174260859Y-108418304D01*
X174260860Y-108418304D01*
X174296807Y-108480568D01*
X174310979Y-108505114D01*
X174310981Y-108505117D01*
X174429849Y-108623985D01*
X174429855Y-108623990D01*
X175413181Y-109607316D01*
X175446666Y-109668639D01*
X175449500Y-109694997D01*
X175449500Y-110088900D01*
X175429815Y-110155939D01*
X175377011Y-110201694D01*
X175325502Y-110212900D01*
X175265530Y-110212900D01*
X175265523Y-110212901D01*
X175205916Y-110219308D01*
X175071071Y-110269602D01*
X175071064Y-110269606D01*
X174955855Y-110355852D01*
X174955852Y-110355855D01*
X174869606Y-110471064D01*
X174869602Y-110471071D01*
X174819308Y-110605917D01*
X174813723Y-110657873D01*
X174812901Y-110665523D01*
X174812900Y-110665535D01*
X174812900Y-112234470D01*
X174812901Y-112234476D01*
X174819308Y-112294083D01*
X174869602Y-112428928D01*
X174869606Y-112428935D01*
X174955852Y-112544144D01*
X174955855Y-112544147D01*
X175071064Y-112630393D01*
X175071071Y-112630397D01*
X175205917Y-112680691D01*
X175205916Y-112680691D01*
X175212844Y-112681435D01*
X175265527Y-112687100D01*
X176834472Y-112687099D01*
X176894083Y-112680691D01*
X177028931Y-112630396D01*
X177144146Y-112544146D01*
X177230396Y-112428931D01*
X177280691Y-112294083D01*
X177287100Y-112234473D01*
X177287099Y-110665528D01*
X177280691Y-110605917D01*
X177269631Y-110576264D01*
X177230397Y-110471071D01*
X177230393Y-110471064D01*
X177144147Y-110355855D01*
X177144144Y-110355852D01*
X177028935Y-110269606D01*
X177028928Y-110269602D01*
X176894082Y-110219308D01*
X176894083Y-110219308D01*
X176834483Y-110212901D01*
X176834481Y-110212900D01*
X176834473Y-110212900D01*
X176834465Y-110212900D01*
X176774500Y-110212900D01*
X176707461Y-110193215D01*
X176661706Y-110140411D01*
X176650500Y-110088900D01*
X176650500Y-109483960D01*
X176650501Y-109483947D01*
X176650501Y-109315844D01*
X176650501Y-109315843D01*
X176609577Y-109163116D01*
X176576753Y-109106263D01*
X176530524Y-109026190D01*
X176530518Y-109026182D01*
X175428319Y-107923983D01*
X175394834Y-107862660D01*
X175392000Y-107836302D01*
X175392000Y-107349998D01*
X180744532Y-107349998D01*
X180744532Y-107350001D01*
X180764364Y-107576686D01*
X180764366Y-107576697D01*
X180823258Y-107796488D01*
X180823261Y-107796497D01*
X180919431Y-108002732D01*
X180919432Y-108002734D01*
X181049954Y-108189141D01*
X181210858Y-108350045D01*
X181210861Y-108350047D01*
X181397266Y-108480568D01*
X181603504Y-108576739D01*
X181603506Y-108576739D01*
X181603513Y-108576742D01*
X181608003Y-108577945D01*
X181663592Y-108610039D01*
X182003553Y-108950000D01*
X181997339Y-108950000D01*
X181895606Y-108977259D01*
X181804394Y-109029920D01*
X181729920Y-109104394D01*
X181677259Y-109195606D01*
X181650000Y-109297339D01*
X181650000Y-109303552D01*
X180970974Y-108624526D01*
X180970973Y-108624526D01*
X180919868Y-108697512D01*
X180919866Y-108697516D01*
X180823734Y-108903673D01*
X180823730Y-108903682D01*
X180764860Y-109123389D01*
X180764858Y-109123400D01*
X180745034Y-109349997D01*
X180745034Y-109350002D01*
X180764858Y-109576599D01*
X180764860Y-109576610D01*
X180823730Y-109796317D01*
X180823735Y-109796331D01*
X180919863Y-110002478D01*
X180970974Y-110075472D01*
X181650000Y-109396446D01*
X181650000Y-109402661D01*
X181677259Y-109504394D01*
X181729920Y-109595606D01*
X181804394Y-109670080D01*
X181895606Y-109722741D01*
X181997339Y-109750000D01*
X182003553Y-109750000D01*
X181324526Y-110429025D01*
X181397513Y-110480132D01*
X181397521Y-110480136D01*
X181603668Y-110576264D01*
X181603682Y-110576269D01*
X181823389Y-110635139D01*
X181823400Y-110635141D01*
X182049998Y-110654966D01*
X182050002Y-110654966D01*
X182276599Y-110635141D01*
X182276610Y-110635139D01*
X182496317Y-110576269D01*
X182496331Y-110576264D01*
X182702478Y-110480136D01*
X182775471Y-110429024D01*
X182582845Y-110236398D01*
X192886032Y-110236398D01*
X192886032Y-110236401D01*
X192905864Y-110463086D01*
X192905866Y-110463097D01*
X192964758Y-110682888D01*
X192964761Y-110682897D01*
X193060931Y-110889132D01*
X193060932Y-110889134D01*
X193191454Y-111075541D01*
X193352358Y-111236445D01*
X193352361Y-111236447D01*
X193538766Y-111366968D01*
X193745004Y-111463139D01*
X193964808Y-111522035D01*
X194126730Y-111536201D01*
X194191498Y-111541868D01*
X194191500Y-111541868D01*
X194191502Y-111541868D01*
X194254011Y-111536399D01*
X194418192Y-111522035D01*
X194637996Y-111463139D01*
X194844234Y-111366968D01*
X195030639Y-111236447D01*
X195191547Y-111075539D01*
X195322068Y-110889134D01*
X195418239Y-110682896D01*
X195477135Y-110463092D01*
X195496968Y-110236400D01*
X195496968Y-110236397D01*
X197886534Y-110236397D01*
X197886534Y-110236402D01*
X197906358Y-110462999D01*
X197906360Y-110463010D01*
X197965230Y-110682717D01*
X197965235Y-110682731D01*
X198061363Y-110888878D01*
X198112474Y-110961872D01*
X198791500Y-110282846D01*
X198791500Y-110289061D01*
X198818759Y-110390794D01*
X198871420Y-110482006D01*
X198945894Y-110556480D01*
X199037106Y-110609141D01*
X199138839Y-110636400D01*
X199145053Y-110636400D01*
X198466026Y-111315425D01*
X198539013Y-111366532D01*
X198539021Y-111366536D01*
X198745168Y-111462664D01*
X198745182Y-111462669D01*
X198964889Y-111521539D01*
X198964900Y-111521541D01*
X199191498Y-111541366D01*
X199191502Y-111541366D01*
X199418099Y-111521541D01*
X199418110Y-111521539D01*
X199637817Y-111462669D01*
X199637831Y-111462664D01*
X199843978Y-111366536D01*
X199916971Y-111315424D01*
X199237947Y-110636400D01*
X199244161Y-110636400D01*
X199345894Y-110609141D01*
X199437106Y-110556480D01*
X199511580Y-110482006D01*
X199564241Y-110390794D01*
X199591500Y-110289061D01*
X199591500Y-110282847D01*
X200270524Y-110961871D01*
X200321636Y-110888878D01*
X200417764Y-110682731D01*
X200417769Y-110682717D01*
X200476639Y-110463010D01*
X200476641Y-110462999D01*
X200496466Y-110236402D01*
X200496466Y-110236397D01*
X200476641Y-110009800D01*
X200476639Y-110009789D01*
X200417769Y-109790082D01*
X200417764Y-109790068D01*
X200321636Y-109583921D01*
X200321632Y-109583913D01*
X200270525Y-109510926D01*
X199591500Y-110189951D01*
X199591500Y-110183739D01*
X199564241Y-110082006D01*
X199511580Y-109990794D01*
X199437106Y-109916320D01*
X199345894Y-109863659D01*
X199244161Y-109836400D01*
X199237948Y-109836400D01*
X199916972Y-109157374D01*
X199843978Y-109106263D01*
X199637831Y-109010135D01*
X199637817Y-109010130D01*
X199418110Y-108951260D01*
X199418099Y-108951258D01*
X199191502Y-108931434D01*
X199191498Y-108931434D01*
X198964900Y-108951258D01*
X198964889Y-108951260D01*
X198745182Y-109010130D01*
X198745173Y-109010134D01*
X198539016Y-109106266D01*
X198539012Y-109106268D01*
X198466026Y-109157373D01*
X198466026Y-109157374D01*
X199145053Y-109836400D01*
X199138839Y-109836400D01*
X199037106Y-109863659D01*
X198945894Y-109916320D01*
X198871420Y-109990794D01*
X198818759Y-110082006D01*
X198791500Y-110183739D01*
X198791500Y-110189952D01*
X198112474Y-109510926D01*
X198112473Y-109510926D01*
X198061368Y-109583912D01*
X198061366Y-109583916D01*
X197965234Y-109790073D01*
X197965230Y-109790082D01*
X197906360Y-110009789D01*
X197906358Y-110009800D01*
X197886534Y-110236397D01*
X195496968Y-110236397D01*
X195477135Y-110009708D01*
X195418239Y-109789904D01*
X195322068Y-109583666D01*
X195191547Y-109397261D01*
X195191545Y-109397258D01*
X195030641Y-109236354D01*
X194844234Y-109105832D01*
X194844232Y-109105831D01*
X194637997Y-109009661D01*
X194637988Y-109009658D01*
X194418197Y-108950766D01*
X194418193Y-108950765D01*
X194418192Y-108950765D01*
X194418191Y-108950764D01*
X194418186Y-108950764D01*
X194191502Y-108930932D01*
X194191498Y-108930932D01*
X193964813Y-108950764D01*
X193964802Y-108950766D01*
X193745011Y-109009658D01*
X193745002Y-109009661D01*
X193538767Y-109105831D01*
X193538765Y-109105832D01*
X193352358Y-109236354D01*
X193191454Y-109397258D01*
X193060932Y-109583665D01*
X193060931Y-109583667D01*
X192964761Y-109789902D01*
X192964758Y-109789911D01*
X192905866Y-110009702D01*
X192905864Y-110009713D01*
X192886032Y-110236398D01*
X182582845Y-110236398D01*
X182096447Y-109750000D01*
X182102661Y-109750000D01*
X182204394Y-109722741D01*
X182295606Y-109670080D01*
X182370080Y-109595606D01*
X182422741Y-109504394D01*
X182450000Y-109402661D01*
X182450000Y-109396447D01*
X183129024Y-110075471D01*
X183180136Y-110002478D01*
X183276264Y-109796331D01*
X183276269Y-109796317D01*
X183335139Y-109576610D01*
X183335141Y-109576599D01*
X183354966Y-109350002D01*
X183354966Y-109349997D01*
X183335141Y-109123400D01*
X183335139Y-109123389D01*
X183276269Y-108903682D01*
X183276264Y-108903668D01*
X183180136Y-108697521D01*
X183180132Y-108697513D01*
X183129025Y-108624526D01*
X182450000Y-109303551D01*
X182450000Y-109297339D01*
X182422741Y-109195606D01*
X182370080Y-109104394D01*
X182295606Y-109029920D01*
X182204394Y-108977259D01*
X182102661Y-108950000D01*
X182096448Y-108950000D01*
X182436407Y-108610039D01*
X182491996Y-108577945D01*
X182493833Y-108577452D01*
X182496496Y-108576739D01*
X182702734Y-108480568D01*
X182889139Y-108350047D01*
X183050047Y-108189139D01*
X183180568Y-108002734D01*
X183276739Y-107796496D01*
X183335635Y-107576692D01*
X183355468Y-107350000D01*
X183349216Y-107278535D01*
X203291000Y-107278535D01*
X203291000Y-110574270D01*
X203291001Y-110574276D01*
X203297408Y-110633883D01*
X203347702Y-110768728D01*
X203347706Y-110768735D01*
X203433952Y-110883944D01*
X203433955Y-110883947D01*
X203549164Y-110970193D01*
X203549171Y-110970197D01*
X203684017Y-111020491D01*
X203684016Y-111020491D01*
X203690944Y-111021235D01*
X203743627Y-111026900D01*
X207039372Y-111026899D01*
X207098983Y-111020491D01*
X207233831Y-110970196D01*
X207349046Y-110883946D01*
X207435296Y-110768731D01*
X207485591Y-110633883D01*
X207492000Y-110574273D01*
X207491999Y-107278528D01*
X207485591Y-107218917D01*
X207467265Y-107169783D01*
X207435297Y-107084071D01*
X207435293Y-107084064D01*
X207349047Y-106968855D01*
X207349044Y-106968852D01*
X207233835Y-106882606D01*
X207233828Y-106882602D01*
X207098982Y-106832308D01*
X207098983Y-106832308D01*
X207039383Y-106825901D01*
X207039381Y-106825900D01*
X207039373Y-106825900D01*
X207039364Y-106825900D01*
X203743629Y-106825900D01*
X203743623Y-106825901D01*
X203684016Y-106832308D01*
X203549171Y-106882602D01*
X203549164Y-106882606D01*
X203433955Y-106968852D01*
X203433952Y-106968855D01*
X203347706Y-107084064D01*
X203347702Y-107084071D01*
X203297408Y-107218917D01*
X203291001Y-107278516D01*
X203291001Y-107278523D01*
X203291000Y-107278535D01*
X183349216Y-107278535D01*
X183335635Y-107123308D01*
X183276739Y-106903504D01*
X183180568Y-106697266D01*
X183050047Y-106510861D01*
X183050045Y-106510858D01*
X182889141Y-106349954D01*
X182702734Y-106219432D01*
X182702732Y-106219431D01*
X182496497Y-106123261D01*
X182496488Y-106123258D01*
X182276697Y-106064366D01*
X182276693Y-106064365D01*
X182276692Y-106064365D01*
X182276691Y-106064364D01*
X182276686Y-106064364D01*
X182050002Y-106044532D01*
X182049998Y-106044532D01*
X181823313Y-106064364D01*
X181823302Y-106064366D01*
X181603511Y-106123258D01*
X181603502Y-106123261D01*
X181397267Y-106219431D01*
X181397265Y-106219432D01*
X181210858Y-106349954D01*
X181049954Y-106510858D01*
X180919432Y-106697265D01*
X180919431Y-106697267D01*
X180823261Y-106903502D01*
X180823258Y-106903511D01*
X180764366Y-107123302D01*
X180764364Y-107123313D01*
X180744532Y-107349998D01*
X175392000Y-107349998D01*
X175392000Y-107182412D01*
X175411685Y-107115373D01*
X175419055Y-107105097D01*
X175421310Y-107102267D01*
X175421316Y-107102262D01*
X175517289Y-106949522D01*
X175576868Y-106779255D01*
X175591375Y-106650500D01*
X175597065Y-106600003D01*
X175597065Y-106599996D01*
X175576869Y-106420750D01*
X175576868Y-106420745D01*
X175565196Y-106387389D01*
X175517289Y-106250478D01*
X175497781Y-106219432D01*
X175443618Y-106133232D01*
X175421316Y-106097738D01*
X175421314Y-106097736D01*
X175421313Y-106097734D01*
X175419050Y-106094896D01*
X175418159Y-106092715D01*
X175417611Y-106091842D01*
X175417764Y-106091745D01*
X175392644Y-106030209D01*
X175392000Y-106017587D01*
X175392000Y-103536399D01*
X186186285Y-103536399D01*
X186186285Y-103536400D01*
X186205102Y-103739482D01*
X186260917Y-103935647D01*
X186260922Y-103935660D01*
X186351827Y-104118221D01*
X186474737Y-104280981D01*
X186625458Y-104418380D01*
X186625460Y-104418382D01*
X186657490Y-104438214D01*
X186798863Y-104525748D01*
X186989044Y-104599424D01*
X187189524Y-104636900D01*
X187189526Y-104636900D01*
X187393474Y-104636900D01*
X187393476Y-104636900D01*
X187593956Y-104599424D01*
X187784137Y-104525748D01*
X187957541Y-104418381D01*
X188108264Y-104280979D01*
X188231173Y-104118221D01*
X188322082Y-103935650D01*
X188377897Y-103739483D01*
X188396715Y-103536400D01*
X188392082Y-103486399D01*
X194036285Y-103486399D01*
X194036285Y-103486400D01*
X194055102Y-103689482D01*
X194110917Y-103885647D01*
X194110922Y-103885660D01*
X194201827Y-104068221D01*
X194324737Y-104230981D01*
X194475458Y-104368380D01*
X194475460Y-104368382D01*
X194574641Y-104429792D01*
X194648863Y-104475748D01*
X194839044Y-104549424D01*
X195039524Y-104586900D01*
X195039526Y-104586900D01*
X195243474Y-104586900D01*
X195243476Y-104586900D01*
X195443956Y-104549424D01*
X195634137Y-104475748D01*
X195807541Y-104368381D01*
X195958264Y-104230979D01*
X196081173Y-104068221D01*
X196172082Y-103885650D01*
X196227897Y-103689483D01*
X196246715Y-103486400D01*
X196239240Y-103405735D01*
X196227897Y-103283317D01*
X196207779Y-103212611D01*
X196172082Y-103087150D01*
X196081173Y-102904579D01*
X196010286Y-102810710D01*
X195985595Y-102745350D01*
X196000160Y-102677015D01*
X196010288Y-102661256D01*
X196080745Y-102567957D01*
X196171613Y-102385469D01*
X196171616Y-102385463D01*
X196227402Y-102189392D01*
X196227403Y-102189389D01*
X196246213Y-101986400D01*
X196246213Y-101986399D01*
X196227403Y-101783410D01*
X196227402Y-101783407D01*
X196171616Y-101587336D01*
X196171613Y-101587330D01*
X196080749Y-101404849D01*
X196080747Y-101404847D01*
X196078965Y-101402487D01*
X195436355Y-102045096D01*
X195441500Y-102025896D01*
X195441500Y-101946904D01*
X195421056Y-101870604D01*
X195381560Y-101802195D01*
X195325705Y-101746340D01*
X195257296Y-101706844D01*
X195180996Y-101686400D01*
X195102004Y-101686400D01*
X195025704Y-101706844D01*
X194957295Y-101746340D01*
X194901440Y-101802195D01*
X194861944Y-101870604D01*
X194841500Y-101946904D01*
X194841500Y-102025896D01*
X194846645Y-102045099D01*
X194204033Y-101402487D01*
X194202255Y-101404842D01*
X194202254Y-101404843D01*
X194111386Y-101587330D01*
X194111383Y-101587336D01*
X194055597Y-101783407D01*
X194055596Y-101783410D01*
X194036787Y-101986399D01*
X194036787Y-101986400D01*
X194055596Y-102189389D01*
X194055597Y-102189392D01*
X194111383Y-102385463D01*
X194111386Y-102385469D01*
X194202254Y-102567956D01*
X194272712Y-102661257D01*
X194297404Y-102726618D01*
X194282839Y-102794953D01*
X194272712Y-102810710D01*
X194201828Y-102904575D01*
X194110922Y-103087139D01*
X194110917Y-103087152D01*
X194055102Y-103283317D01*
X194036285Y-103486399D01*
X188392082Y-103486399D01*
X188377897Y-103333317D01*
X188322082Y-103137150D01*
X188321896Y-103136777D01*
X188275672Y-103043946D01*
X188231173Y-102954579D01*
X188160286Y-102860710D01*
X188135595Y-102795350D01*
X188150160Y-102727015D01*
X188160288Y-102711256D01*
X188230745Y-102617957D01*
X188321613Y-102435469D01*
X188321616Y-102435463D01*
X188377402Y-102239392D01*
X188377403Y-102239389D01*
X188396213Y-102036400D01*
X188396213Y-102036399D01*
X188377403Y-101833410D01*
X188377402Y-101833407D01*
X188321616Y-101637336D01*
X188321613Y-101637330D01*
X188230749Y-101454849D01*
X188230747Y-101454847D01*
X188228965Y-101452487D01*
X187586355Y-102095096D01*
X187591500Y-102075896D01*
X187591500Y-101996904D01*
X187571056Y-101920604D01*
X187531560Y-101852195D01*
X187475705Y-101796340D01*
X187407296Y-101756844D01*
X187330996Y-101736400D01*
X187252004Y-101736400D01*
X187175704Y-101756844D01*
X187107295Y-101796340D01*
X187051440Y-101852195D01*
X187011944Y-101920604D01*
X186991500Y-101996904D01*
X186991500Y-102075896D01*
X186996645Y-102095099D01*
X186354033Y-101452487D01*
X186352255Y-101454842D01*
X186352254Y-101454843D01*
X186261386Y-101637330D01*
X186261383Y-101637336D01*
X186205597Y-101833407D01*
X186205596Y-101833410D01*
X186186787Y-102036399D01*
X186186787Y-102036400D01*
X186205596Y-102239389D01*
X186205597Y-102239392D01*
X186261383Y-102435463D01*
X186261386Y-102435469D01*
X186352254Y-102617956D01*
X186422712Y-102711257D01*
X186447404Y-102776618D01*
X186432839Y-102844953D01*
X186422712Y-102860710D01*
X186351828Y-102954575D01*
X186260922Y-103137139D01*
X186260917Y-103137152D01*
X186205102Y-103333317D01*
X186186285Y-103536399D01*
X175392000Y-103536399D01*
X175392000Y-101036397D01*
X176236032Y-101036397D01*
X176236032Y-101036400D01*
X176237411Y-101052157D01*
X176255864Y-101263086D01*
X176255866Y-101263097D01*
X176314758Y-101482888D01*
X176314761Y-101482897D01*
X176410931Y-101689132D01*
X176410932Y-101689134D01*
X176541454Y-101875541D01*
X176702358Y-102036445D01*
X176702361Y-102036447D01*
X176888766Y-102166968D01*
X177095004Y-102263139D01*
X177314808Y-102322035D01*
X177471651Y-102335757D01*
X177541498Y-102341868D01*
X177541500Y-102341868D01*
X177541502Y-102341868D01*
X177611349Y-102335757D01*
X177768192Y-102322035D01*
X177987996Y-102263139D01*
X178194234Y-102166968D01*
X178380639Y-102036447D01*
X178541547Y-101875539D01*
X178672068Y-101689134D01*
X178768239Y-101482896D01*
X178827135Y-101263092D01*
X178846968Y-101036400D01*
X178846968Y-101036397D01*
X181236534Y-101036397D01*
X181236534Y-101036398D01*
X181256358Y-101262999D01*
X181256360Y-101263010D01*
X181315230Y-101482717D01*
X181315235Y-101482731D01*
X181411363Y-101688878D01*
X181462474Y-101761872D01*
X182141500Y-101082846D01*
X182141500Y-101089061D01*
X182168759Y-101190794D01*
X182221420Y-101282006D01*
X182295894Y-101356480D01*
X182387106Y-101409141D01*
X182488839Y-101436400D01*
X182495053Y-101436400D01*
X181816026Y-102115425D01*
X181889013Y-102166532D01*
X181889021Y-102166536D01*
X182095168Y-102262664D01*
X182095182Y-102262669D01*
X182314889Y-102321539D01*
X182314900Y-102321541D01*
X182541498Y-102341366D01*
X182541502Y-102341366D01*
X182768099Y-102321541D01*
X182768110Y-102321539D01*
X182987817Y-102262669D01*
X182987831Y-102262664D01*
X183193978Y-102166536D01*
X183266971Y-102115424D01*
X182587947Y-101436400D01*
X182594161Y-101436400D01*
X182695894Y-101409141D01*
X182787106Y-101356480D01*
X182861580Y-101282006D01*
X182914241Y-101190794D01*
X182941500Y-101089061D01*
X182941500Y-101082847D01*
X183620524Y-101761871D01*
X183671636Y-101688878D01*
X183767764Y-101482731D01*
X183767769Y-101482717D01*
X183826639Y-101263010D01*
X183826641Y-101262999D01*
X183840713Y-101102158D01*
X186710811Y-101102158D01*
X187291500Y-101682846D01*
X187291501Y-101682846D01*
X187872187Y-101102158D01*
X187791434Y-101052158D01*
X194560811Y-101052158D01*
X195141500Y-101632846D01*
X195141501Y-101632846D01*
X195722187Y-101052158D01*
X195633913Y-100997501D01*
X195633911Y-100997500D01*
X195443821Y-100923860D01*
X195243428Y-100886400D01*
X195039572Y-100886400D01*
X194839178Y-100923860D01*
X194649088Y-100997500D01*
X194649081Y-100997504D01*
X194560812Y-101052157D01*
X194560811Y-101052158D01*
X187791434Y-101052158D01*
X187783913Y-101047501D01*
X187783911Y-101047500D01*
X187593821Y-100973860D01*
X187393428Y-100936400D01*
X187189572Y-100936400D01*
X186989178Y-100973860D01*
X186799088Y-101047500D01*
X186799081Y-101047504D01*
X186710812Y-101102157D01*
X186710811Y-101102158D01*
X183840713Y-101102158D01*
X183846466Y-101036398D01*
X183846466Y-101036397D01*
X183826641Y-100809800D01*
X183826639Y-100809789D01*
X183767769Y-100590082D01*
X183767764Y-100590068D01*
X183671636Y-100383921D01*
X183671632Y-100383913D01*
X183620525Y-100310926D01*
X182941500Y-100989951D01*
X182941500Y-100983739D01*
X182914241Y-100882006D01*
X182861580Y-100790794D01*
X182787106Y-100716320D01*
X182695894Y-100663659D01*
X182594161Y-100636400D01*
X182587948Y-100636400D01*
X183266972Y-99957374D01*
X183193978Y-99906263D01*
X182987831Y-99810135D01*
X182987817Y-99810130D01*
X182768110Y-99751260D01*
X182768099Y-99751258D01*
X182541502Y-99731434D01*
X182541498Y-99731434D01*
X182314900Y-99751258D01*
X182314889Y-99751260D01*
X182095182Y-99810130D01*
X182095173Y-99810134D01*
X181889016Y-99906266D01*
X181889012Y-99906268D01*
X181816026Y-99957373D01*
X181816026Y-99957374D01*
X182495053Y-100636400D01*
X182488839Y-100636400D01*
X182387106Y-100663659D01*
X182295894Y-100716320D01*
X182221420Y-100790794D01*
X182168759Y-100882006D01*
X182141500Y-100983739D01*
X182141500Y-100989952D01*
X181462474Y-100310926D01*
X181462473Y-100310926D01*
X181411368Y-100383912D01*
X181411366Y-100383916D01*
X181315234Y-100590073D01*
X181315230Y-100590082D01*
X181256360Y-100809789D01*
X181256358Y-100809800D01*
X181236534Y-101036397D01*
X178846968Y-101036397D01*
X178845374Y-101018186D01*
X178837122Y-100923860D01*
X178827135Y-100809708D01*
X178768239Y-100589904D01*
X178672068Y-100383666D01*
X178541547Y-100197261D01*
X178541545Y-100197258D01*
X178380641Y-100036354D01*
X178194234Y-99905832D01*
X178194232Y-99905831D01*
X177987997Y-99809661D01*
X177987988Y-99809658D01*
X177768197Y-99750766D01*
X177768193Y-99750765D01*
X177768192Y-99750765D01*
X177768191Y-99750764D01*
X177768186Y-99750764D01*
X177541502Y-99730932D01*
X177541498Y-99730932D01*
X177314813Y-99750764D01*
X177314802Y-99750766D01*
X177095011Y-99809658D01*
X177095002Y-99809661D01*
X176888767Y-99905831D01*
X176888765Y-99905832D01*
X176702358Y-100036354D01*
X176541454Y-100197258D01*
X176410932Y-100383665D01*
X176410931Y-100383667D01*
X176314761Y-100589902D01*
X176314758Y-100589911D01*
X176255866Y-100809702D01*
X176255864Y-100809713D01*
X176236032Y-101036397D01*
X175392000Y-101036397D01*
X175392000Y-97019340D01*
X175411685Y-96952301D01*
X175428319Y-96931659D01*
X175521316Y-96838662D01*
X175617289Y-96685922D01*
X175676868Y-96515655D01*
X175691826Y-96382897D01*
X175697065Y-96336403D01*
X175697065Y-96336396D01*
X175676869Y-96157150D01*
X175676868Y-96157145D01*
X175617288Y-95986876D01*
X175521315Y-95834137D01*
X175393762Y-95706584D01*
X175241023Y-95610611D01*
X175070754Y-95551031D01*
X175070750Y-95551030D01*
X174921933Y-95534263D01*
X174857519Y-95507196D01*
X174817964Y-95449601D01*
X174815827Y-95379764D01*
X174848134Y-95323364D01*
X176051704Y-94119794D01*
X176113025Y-94086311D01*
X176182717Y-94091295D01*
X176238650Y-94133167D01*
X176259158Y-94175383D01*
X176314759Y-94382891D01*
X176314761Y-94382897D01*
X176410931Y-94589132D01*
X176410932Y-94589134D01*
X176541454Y-94775541D01*
X176614632Y-94848719D01*
X176648117Y-94910042D01*
X176643133Y-94979734D01*
X176614632Y-95024081D01*
X176541454Y-95097258D01*
X176410932Y-95283665D01*
X176410931Y-95283667D01*
X176314761Y-95489902D01*
X176314758Y-95489911D01*
X176255866Y-95709702D01*
X176255864Y-95709713D01*
X176236032Y-95936398D01*
X176236032Y-95936401D01*
X176255864Y-96163086D01*
X176255866Y-96163097D01*
X176314758Y-96382888D01*
X176314761Y-96382897D01*
X176410931Y-96589132D01*
X176410932Y-96589134D01*
X176541454Y-96775541D01*
X176702358Y-96936445D01*
X176702361Y-96936447D01*
X176888766Y-97066968D01*
X177095004Y-97163139D01*
X177314808Y-97222035D01*
X177476730Y-97236201D01*
X177541498Y-97241868D01*
X177541500Y-97241868D01*
X177541502Y-97241868D01*
X177598173Y-97236909D01*
X177768192Y-97222035D01*
X177987996Y-97163139D01*
X178194234Y-97066968D01*
X178380639Y-96936447D01*
X178541547Y-96775539D01*
X178672068Y-96589134D01*
X178768239Y-96382896D01*
X178827135Y-96163092D01*
X178846968Y-95936400D01*
X178827135Y-95709708D01*
X178801347Y-95613466D01*
X178803010Y-95543617D01*
X178833439Y-95493694D01*
X180890734Y-93436399D01*
X203303692Y-93436399D01*
X203303693Y-93436400D01*
X204629139Y-93436400D01*
X204622243Y-93453049D01*
X204591500Y-93607607D01*
X204591500Y-93765193D01*
X204622243Y-93919751D01*
X204629139Y-93936400D01*
X203303693Y-93936400D01*
X203306197Y-93973019D01*
X203364646Y-94254288D01*
X203364650Y-94254302D01*
X203460855Y-94524995D01*
X203593027Y-94780076D01*
X203758704Y-95014785D01*
X203758704Y-95014786D01*
X203954788Y-95224741D01*
X204177635Y-95406041D01*
X204177646Y-95406048D01*
X204423107Y-95555317D01*
X204686608Y-95669771D01*
X204963237Y-95747279D01*
X204963246Y-95747281D01*
X205141499Y-95771780D01*
X205141500Y-95771780D01*
X205141500Y-94448760D01*
X205158149Y-94455657D01*
X205312707Y-94486400D01*
X205470293Y-94486400D01*
X205624851Y-94455657D01*
X205641500Y-94448760D01*
X205641500Y-95771780D01*
X205819753Y-95747281D01*
X205819762Y-95747279D01*
X206096391Y-95669771D01*
X206359892Y-95555317D01*
X206605353Y-95406048D01*
X206605364Y-95406041D01*
X206828211Y-95224741D01*
X207024295Y-95014786D01*
X207024295Y-95014785D01*
X207189972Y-94780076D01*
X207322144Y-94524995D01*
X207418349Y-94254302D01*
X207418353Y-94254288D01*
X207476802Y-93973019D01*
X207479307Y-93936400D01*
X206153861Y-93936400D01*
X206160757Y-93919751D01*
X206191500Y-93765193D01*
X206191500Y-93607607D01*
X206160757Y-93453049D01*
X206153861Y-93436400D01*
X207479307Y-93436400D01*
X207479307Y-93436399D01*
X207476802Y-93399780D01*
X207418353Y-93118511D01*
X207418349Y-93118497D01*
X207322144Y-92847804D01*
X207189972Y-92592723D01*
X207024295Y-92358014D01*
X207024295Y-92358013D01*
X206828211Y-92148058D01*
X206605364Y-91966758D01*
X206605353Y-91966751D01*
X206359892Y-91817482D01*
X206096391Y-91703028D01*
X205819762Y-91625520D01*
X205819755Y-91625519D01*
X205641500Y-91601018D01*
X205641500Y-92924039D01*
X205624851Y-92917143D01*
X205470293Y-92886400D01*
X205312707Y-92886400D01*
X205158149Y-92917143D01*
X205141500Y-92924039D01*
X205141500Y-91601018D01*
X204963244Y-91625519D01*
X204963237Y-91625520D01*
X204686608Y-91703028D01*
X204423107Y-91817482D01*
X204177646Y-91966751D01*
X204177635Y-91966758D01*
X203954788Y-92148058D01*
X203758704Y-92358013D01*
X203758704Y-92358014D01*
X203593027Y-92592723D01*
X203460855Y-92847804D01*
X203364650Y-93118497D01*
X203364646Y-93118511D01*
X203306197Y-93399780D01*
X203303692Y-93436399D01*
X180890734Y-93436399D01*
X185156494Y-89170640D01*
X194060811Y-89170640D01*
X194149085Y-89225297D01*
X194339178Y-89298939D01*
X194539572Y-89336400D01*
X194743428Y-89336400D01*
X194943822Y-89298939D01*
X195133912Y-89225299D01*
X195133916Y-89225297D01*
X195222186Y-89170641D01*
X195222186Y-89170640D01*
X194641501Y-88589953D01*
X194641500Y-88589953D01*
X194060811Y-89170640D01*
X185156494Y-89170640D01*
X185900006Y-88427128D01*
X185900011Y-88427124D01*
X185910214Y-88416920D01*
X185910216Y-88416920D01*
X186022020Y-88305116D01*
X186101077Y-88168184D01*
X186131034Y-88056381D01*
X186142000Y-88015458D01*
X186142000Y-87857343D01*
X186142000Y-77618812D01*
X186161685Y-77551773D01*
X186169055Y-77541497D01*
X186171310Y-77538667D01*
X186171316Y-77538662D01*
X186267289Y-77385922D01*
X186326868Y-77215655D01*
X186328379Y-77202246D01*
X186347065Y-77036403D01*
X186347065Y-77036396D01*
X186326869Y-76857150D01*
X186326868Y-76857145D01*
X186284443Y-76735901D01*
X186267289Y-76686878D01*
X186260165Y-76675541D01*
X186212553Y-76599766D01*
X186171316Y-76534138D01*
X186043762Y-76406584D01*
X185891023Y-76310611D01*
X185720754Y-76251031D01*
X185720749Y-76251030D01*
X185541504Y-76230835D01*
X185541501Y-76230835D01*
X185541500Y-76230835D01*
X185537475Y-76231288D01*
X185529880Y-76232144D01*
X185461058Y-76220087D01*
X185409680Y-76172736D01*
X185392000Y-76108923D01*
X185392000Y-70386496D01*
X185411685Y-70319457D01*
X185428315Y-70298819D01*
X186010035Y-69717098D01*
X186071356Y-69683615D01*
X186083811Y-69681563D01*
X186170755Y-69671768D01*
X186170758Y-69671767D01*
X186326045Y-69617430D01*
X186395824Y-69613868D01*
X186456451Y-69648596D01*
X186488679Y-69710590D01*
X186491000Y-69734471D01*
X186491000Y-74199730D01*
X186490999Y-74199748D01*
X186490999Y-74365454D01*
X186490998Y-74365454D01*
X186490999Y-74365457D01*
X186531923Y-74518185D01*
X186539279Y-74530926D01*
X186539281Y-74530934D01*
X186539284Y-74530933D01*
X186584735Y-74609658D01*
X186610979Y-74655114D01*
X186610981Y-74655117D01*
X186729849Y-74773985D01*
X186729855Y-74773990D01*
X189503130Y-77547265D01*
X189536615Y-77608588D01*
X189531631Y-77678280D01*
X189506680Y-77718927D01*
X189441232Y-77790024D01*
X189441230Y-77790026D01*
X189315282Y-77982805D01*
X189222782Y-78193685D01*
X189166253Y-78416915D01*
X189147238Y-78646394D01*
X189147238Y-78646405D01*
X189166253Y-78875884D01*
X189222782Y-79099114D01*
X189315282Y-79309994D01*
X189441228Y-79502770D01*
X189441231Y-79502773D01*
X189597192Y-79672192D01*
X189714091Y-79763178D01*
X189782959Y-79816780D01*
X189781976Y-79818041D01*
X189822683Y-79865749D01*
X189832100Y-79934981D01*
X189802592Y-79998314D01*
X189782636Y-80015605D01*
X189782959Y-80016020D01*
X189597194Y-80160606D01*
X189597189Y-80160611D01*
X189441228Y-80330029D01*
X189315282Y-80522805D01*
X189222782Y-80733685D01*
X189166253Y-80956915D01*
X189147238Y-81186394D01*
X189147238Y-81186405D01*
X189166253Y-81415884D01*
X189222782Y-81639114D01*
X189315282Y-81849994D01*
X189441228Y-82042770D01*
X189441231Y-82042773D01*
X189597192Y-82212192D01*
X189714091Y-82303178D01*
X189782959Y-82356780D01*
X189781976Y-82358041D01*
X189822683Y-82405749D01*
X189832100Y-82474981D01*
X189802592Y-82538314D01*
X189782636Y-82555605D01*
X189782959Y-82556020D01*
X189597194Y-82700606D01*
X189597189Y-82700611D01*
X189441228Y-82870029D01*
X189315282Y-83062805D01*
X189222782Y-83273685D01*
X189166253Y-83496915D01*
X189147238Y-83726394D01*
X189147238Y-83726405D01*
X189166253Y-83955884D01*
X189222782Y-84179114D01*
X189315282Y-84389994D01*
X189441228Y-84582770D01*
X189441231Y-84582773D01*
X189597192Y-84752192D01*
X189667796Y-84807145D01*
X189770265Y-84886900D01*
X189778911Y-84893629D01*
X189981431Y-85003228D01*
X190086016Y-85039132D01*
X190199225Y-85077997D01*
X190199227Y-85077997D01*
X190199229Y-85077998D01*
X190426363Y-85115900D01*
X190426364Y-85115900D01*
X190656636Y-85115900D01*
X190656637Y-85115900D01*
X190883771Y-85077998D01*
X191101569Y-85003228D01*
X191304089Y-84893629D01*
X191485808Y-84752192D01*
X191641769Y-84582773D01*
X191767717Y-84389995D01*
X191779618Y-84362862D01*
X191824570Y-84309377D01*
X191891306Y-84288685D01*
X191958634Y-84307357D01*
X191980855Y-84324990D01*
X193674845Y-86018980D01*
X193708330Y-86080303D01*
X193703346Y-86149995D01*
X193698165Y-86161932D01*
X193610921Y-86337143D01*
X193610917Y-86337152D01*
X193555102Y-86533317D01*
X193536285Y-86736399D01*
X193536285Y-86736400D01*
X193555102Y-86939482D01*
X193610917Y-87135647D01*
X193610922Y-87135660D01*
X193701827Y-87318221D01*
X193772712Y-87412088D01*
X193797404Y-87477450D01*
X193782839Y-87545784D01*
X193772712Y-87561542D01*
X193702254Y-87654843D01*
X193611386Y-87837330D01*
X193611383Y-87837336D01*
X193555597Y-88033407D01*
X193555596Y-88033410D01*
X193536787Y-88236399D01*
X193536787Y-88236400D01*
X193555596Y-88439389D01*
X193555597Y-88439392D01*
X193611383Y-88635463D01*
X193611386Y-88635469D01*
X193702251Y-88817951D01*
X193704033Y-88820311D01*
X194346645Y-88177698D01*
X194341500Y-88196904D01*
X194341500Y-88275896D01*
X194361944Y-88352196D01*
X194401440Y-88420605D01*
X194457295Y-88476460D01*
X194525704Y-88515956D01*
X194602004Y-88536400D01*
X194680996Y-88536400D01*
X194757296Y-88515956D01*
X194825705Y-88476460D01*
X194881560Y-88420605D01*
X194921056Y-88352196D01*
X194941500Y-88275896D01*
X194941500Y-88196904D01*
X194936354Y-88177701D01*
X195578965Y-88820312D01*
X195580747Y-88817953D01*
X195580748Y-88817951D01*
X195671613Y-88635469D01*
X195671616Y-88635463D01*
X195727402Y-88439392D01*
X195727403Y-88439389D01*
X195746213Y-88236400D01*
X195746213Y-88236399D01*
X195727403Y-88033410D01*
X195727402Y-88033407D01*
X195671616Y-87837336D01*
X195671613Y-87837330D01*
X195580745Y-87654843D01*
X195510287Y-87561542D01*
X195485595Y-87496181D01*
X195500160Y-87427846D01*
X195510289Y-87412086D01*
X195529860Y-87386171D01*
X195585969Y-87344536D01*
X195628812Y-87336900D01*
X199204188Y-87336900D01*
X199271227Y-87356585D01*
X199303142Y-87386173D01*
X199322398Y-87411672D01*
X199347090Y-87477033D01*
X199332525Y-87545368D01*
X199322399Y-87561125D01*
X199251827Y-87654578D01*
X199160922Y-87837139D01*
X199160917Y-87837152D01*
X199105102Y-88033317D01*
X199086285Y-88236399D01*
X199086285Y-88236400D01*
X199105102Y-88439482D01*
X199160917Y-88635647D01*
X199160922Y-88635660D01*
X199251827Y-88818221D01*
X199374737Y-88980981D01*
X199525458Y-89118380D01*
X199525460Y-89118382D01*
X199592744Y-89160042D01*
X199698863Y-89225748D01*
X199889044Y-89299424D01*
X200089524Y-89336900D01*
X200089526Y-89336900D01*
X200293474Y-89336900D01*
X200293476Y-89336900D01*
X200493956Y-89299424D01*
X200684137Y-89225748D01*
X200857541Y-89118381D01*
X201008264Y-88980979D01*
X201131173Y-88818221D01*
X201222082Y-88635650D01*
X201277897Y-88439483D01*
X201296715Y-88236400D01*
X201296715Y-88236399D01*
X204636285Y-88236399D01*
X204636285Y-88236400D01*
X204655102Y-88439482D01*
X204710917Y-88635647D01*
X204710922Y-88635660D01*
X204801827Y-88818221D01*
X204924737Y-88980981D01*
X205075458Y-89118380D01*
X205075460Y-89118382D01*
X205142744Y-89160042D01*
X205248863Y-89225748D01*
X205439044Y-89299424D01*
X205639524Y-89336900D01*
X205639526Y-89336900D01*
X205843474Y-89336900D01*
X205843476Y-89336900D01*
X206043956Y-89299424D01*
X206234137Y-89225748D01*
X206407541Y-89118381D01*
X206558264Y-88980979D01*
X206681173Y-88818221D01*
X206772082Y-88635650D01*
X206827897Y-88439483D01*
X206846715Y-88236400D01*
X206827897Y-88033317D01*
X206772082Y-87837150D01*
X206681173Y-87654579D01*
X206610286Y-87560710D01*
X206585595Y-87495350D01*
X206600160Y-87427015D01*
X206610288Y-87411256D01*
X206680745Y-87317957D01*
X206771613Y-87135469D01*
X206771616Y-87135463D01*
X206827402Y-86939392D01*
X206827403Y-86939389D01*
X206846213Y-86736400D01*
X206846213Y-86736399D01*
X206827403Y-86533410D01*
X206827402Y-86533407D01*
X206771616Y-86337336D01*
X206771613Y-86337330D01*
X206680749Y-86154849D01*
X206680747Y-86154847D01*
X206678965Y-86152487D01*
X206036355Y-86795096D01*
X206041500Y-86775896D01*
X206041500Y-86696904D01*
X206021056Y-86620604D01*
X205981560Y-86552195D01*
X205925705Y-86496340D01*
X205857296Y-86456844D01*
X205780996Y-86436400D01*
X205702004Y-86436400D01*
X205625704Y-86456844D01*
X205557295Y-86496340D01*
X205501440Y-86552195D01*
X205461944Y-86620604D01*
X205441500Y-86696904D01*
X205441500Y-86775896D01*
X205446645Y-86795099D01*
X204804033Y-86152487D01*
X204802255Y-86154842D01*
X204802254Y-86154843D01*
X204711386Y-86337330D01*
X204711383Y-86337336D01*
X204655597Y-86533407D01*
X204655596Y-86533410D01*
X204636787Y-86736399D01*
X204636787Y-86736400D01*
X204655596Y-86939389D01*
X204655597Y-86939392D01*
X204711383Y-87135463D01*
X204711386Y-87135469D01*
X204802254Y-87317956D01*
X204872712Y-87411257D01*
X204897404Y-87476618D01*
X204882839Y-87544953D01*
X204872712Y-87560710D01*
X204801828Y-87654575D01*
X204710922Y-87837139D01*
X204710917Y-87837152D01*
X204655102Y-88033317D01*
X204636285Y-88236399D01*
X201296715Y-88236399D01*
X201277897Y-88033317D01*
X201222082Y-87837150D01*
X201131173Y-87654579D01*
X201060600Y-87561125D01*
X201035909Y-87495766D01*
X201050474Y-87427431D01*
X201060601Y-87411673D01*
X201060602Y-87411672D01*
X201131173Y-87318221D01*
X201222082Y-87135650D01*
X201277897Y-86939483D01*
X201296715Y-86736400D01*
X201277897Y-86533317D01*
X201222082Y-86337150D01*
X201213644Y-86320205D01*
X201131304Y-86154843D01*
X201131173Y-86154579D01*
X201020390Y-86007878D01*
X200995698Y-85942516D01*
X201010263Y-85874182D01*
X201031660Y-85845473D01*
X201074975Y-85802158D01*
X205160811Y-85802158D01*
X205741500Y-86382846D01*
X205741501Y-86382846D01*
X206322187Y-85802158D01*
X206233913Y-85747501D01*
X206233911Y-85747500D01*
X206043821Y-85673860D01*
X205843428Y-85636400D01*
X205639572Y-85636400D01*
X205439178Y-85673860D01*
X205249088Y-85747500D01*
X205249081Y-85747504D01*
X205160812Y-85802157D01*
X205160811Y-85802158D01*
X201074975Y-85802158D01*
X205110035Y-81767098D01*
X205171356Y-81733615D01*
X205183811Y-81731563D01*
X205270755Y-81721768D01*
X205441022Y-81662189D01*
X205593762Y-81566216D01*
X205721316Y-81438662D01*
X205817289Y-81285922D01*
X205876868Y-81115655D01*
X205897065Y-80936400D01*
X205893919Y-80908482D01*
X205876869Y-80757150D01*
X205876868Y-80757145D01*
X205817288Y-80586876D01*
X205721315Y-80434137D01*
X205593762Y-80306584D01*
X205441023Y-80210611D01*
X205270754Y-80151031D01*
X205270750Y-80151030D01*
X205184929Y-80141361D01*
X205120515Y-80114294D01*
X205080960Y-80056699D01*
X205078823Y-79986862D01*
X205114781Y-79926956D01*
X205155481Y-79901959D01*
X205213826Y-79880198D01*
X205213826Y-79880197D01*
X205213831Y-79880196D01*
X205329046Y-79793946D01*
X205415296Y-79678731D01*
X205465591Y-79543883D01*
X205472000Y-79484273D01*
X205471999Y-77188528D01*
X205465591Y-77128917D01*
X205463024Y-77122035D01*
X205415298Y-76994074D01*
X205415297Y-76994073D01*
X205415296Y-76994069D01*
X205415293Y-76994065D01*
X205414076Y-76991836D01*
X205413533Y-76989342D01*
X205412197Y-76985759D01*
X205412712Y-76985566D01*
X205399222Y-76923563D01*
X205423636Y-76858098D01*
X205479567Y-76816224D01*
X205481934Y-76815368D01*
X205491022Y-76812189D01*
X205601027Y-76743067D01*
X205668264Y-76724067D01*
X205735099Y-76744434D01*
X205780314Y-76797702D01*
X205791000Y-76848061D01*
X205791000Y-78674270D01*
X205791001Y-78674276D01*
X205797408Y-78733883D01*
X205847702Y-78868728D01*
X205847706Y-78868735D01*
X205933952Y-78983944D01*
X205933955Y-78983947D01*
X206049164Y-79070193D01*
X206049171Y-79070197D01*
X206184017Y-79120491D01*
X206184016Y-79120491D01*
X206190944Y-79121235D01*
X206243627Y-79126900D01*
X208539372Y-79126899D01*
X208598983Y-79120491D01*
X208733831Y-79070196D01*
X208849046Y-78983946D01*
X208900342Y-78915424D01*
X208927834Y-78878700D01*
X208983767Y-78836829D01*
X209053459Y-78831845D01*
X209114782Y-78865331D01*
X209148266Y-78926654D01*
X209151100Y-78953011D01*
X209151100Y-127372289D01*
X209131415Y-127439328D01*
X209112620Y-127462080D01*
X201625275Y-134593291D01*
X201563154Y-134625272D01*
X201539755Y-134627500D01*
X82869700Y-134627500D01*
X82802661Y-134607815D01*
X82756906Y-134555011D01*
X82745700Y-134503500D01*
X82745700Y-124099995D01*
X86340233Y-124099995D01*
X86340233Y-124100004D01*
X86359273Y-124354079D01*
X86415968Y-124602477D01*
X86415973Y-124602494D01*
X86509058Y-124839671D01*
X86509057Y-124839671D01*
X86636454Y-125060327D01*
X86636461Y-125060338D01*
X86678452Y-125112991D01*
X86678453Y-125112992D01*
X87329152Y-124462292D01*
X87336049Y-124478942D01*
X87423599Y-124609970D01*
X87535030Y-124721401D01*
X87666058Y-124808951D01*
X87682705Y-124815846D01*
X87031813Y-125466738D01*
X87192616Y-125576371D01*
X87192624Y-125576376D01*
X87422176Y-125686921D01*
X87422174Y-125686921D01*
X87665652Y-125762024D01*
X87665658Y-125762026D01*
X87917595Y-125799999D01*
X87917604Y-125800000D01*
X88172396Y-125800000D01*
X88172404Y-125799999D01*
X88424341Y-125762026D01*
X88424347Y-125762024D01*
X88667824Y-125686921D01*
X88897376Y-125576376D01*
X88897377Y-125576375D01*
X89058185Y-125466738D01*
X88407294Y-124815846D01*
X88423942Y-124808951D01*
X88554970Y-124721401D01*
X88666401Y-124609970D01*
X88753951Y-124478942D01*
X88760846Y-124462294D01*
X89411544Y-125112992D01*
X89411546Y-125112991D01*
X89453544Y-125060330D01*
X89580941Y-124839671D01*
X89674026Y-124602494D01*
X89674031Y-124602477D01*
X89730726Y-124354079D01*
X89749767Y-124100004D01*
X89749767Y-124099995D01*
X89741052Y-123983711D01*
X94839500Y-123983711D01*
X94839500Y-124226288D01*
X94871161Y-124466785D01*
X94933947Y-124701104D01*
X95016333Y-124900000D01*
X95026776Y-124925212D01*
X95148064Y-125135289D01*
X95148066Y-125135292D01*
X95148067Y-125135293D01*
X95295733Y-125327736D01*
X95295739Y-125327743D01*
X95467256Y-125499260D01*
X95467263Y-125499266D01*
X95580321Y-125586018D01*
X95659711Y-125646936D01*
X95869788Y-125768224D01*
X96093900Y-125861054D01*
X96328211Y-125923838D01*
X96508586Y-125947584D01*
X96568711Y-125955500D01*
X96568712Y-125955500D01*
X96811289Y-125955500D01*
X96859388Y-125949167D01*
X97051789Y-125923838D01*
X97286100Y-125861054D01*
X97510212Y-125768224D01*
X97720289Y-125646936D01*
X97912738Y-125499265D01*
X98084265Y-125327738D01*
X98231936Y-125135289D01*
X98353224Y-124925212D01*
X98446054Y-124701100D01*
X98508838Y-124466789D01*
X98540500Y-124226288D01*
X98540500Y-123983712D01*
X98540500Y-123983711D01*
X150449500Y-123983711D01*
X150449500Y-124226288D01*
X150481161Y-124466785D01*
X150543947Y-124701104D01*
X150626333Y-124900000D01*
X150636776Y-124925212D01*
X150758064Y-125135289D01*
X150758066Y-125135292D01*
X150758067Y-125135293D01*
X150905733Y-125327736D01*
X150905739Y-125327743D01*
X151077256Y-125499260D01*
X151077263Y-125499266D01*
X151190321Y-125586018D01*
X151269711Y-125646936D01*
X151479788Y-125768224D01*
X151703900Y-125861054D01*
X151938211Y-125923838D01*
X152118586Y-125947584D01*
X152178711Y-125955500D01*
X152178712Y-125955500D01*
X152421289Y-125955500D01*
X152469388Y-125949167D01*
X152661789Y-125923838D01*
X152896100Y-125861054D01*
X153120212Y-125768224D01*
X153330289Y-125646936D01*
X153522738Y-125499265D01*
X153694265Y-125327738D01*
X153841936Y-125135289D01*
X153963224Y-124925212D01*
X154056054Y-124701100D01*
X154118838Y-124466789D01*
X154150500Y-124226288D01*
X154150500Y-124099995D01*
X159239732Y-124099995D01*
X159239732Y-124100004D01*
X159258777Y-124354154D01*
X159284485Y-124466789D01*
X159315492Y-124602637D01*
X159408607Y-124839888D01*
X159536041Y-125060612D01*
X159694950Y-125259877D01*
X159881783Y-125433232D01*
X160092366Y-125576805D01*
X160092371Y-125576807D01*
X160092372Y-125576808D01*
X160092373Y-125576809D01*
X160214328Y-125635538D01*
X160321992Y-125687387D01*
X160321993Y-125687387D01*
X160321996Y-125687389D01*
X160565542Y-125762513D01*
X160817565Y-125800500D01*
X161072435Y-125800500D01*
X161324458Y-125762513D01*
X161568004Y-125687389D01*
X161797634Y-125576805D01*
X162008217Y-125433232D01*
X162195050Y-125259877D01*
X162353959Y-125060612D01*
X162481393Y-124839888D01*
X162574508Y-124602637D01*
X162631222Y-124354157D01*
X162640804Y-124226288D01*
X162650268Y-124100004D01*
X162650268Y-124099995D01*
X162631222Y-123845845D01*
X162607797Y-123743214D01*
X162574508Y-123597363D01*
X162481393Y-123360112D01*
X162353959Y-123139388D01*
X162195050Y-122940123D01*
X162008217Y-122766768D01*
X161797634Y-122623195D01*
X161797630Y-122623193D01*
X161797627Y-122623191D01*
X161797626Y-122623190D01*
X161568006Y-122512612D01*
X161568008Y-122512612D01*
X161324466Y-122437489D01*
X161324462Y-122437488D01*
X161324458Y-122437487D01*
X161203231Y-122419214D01*
X161072440Y-122399500D01*
X161072435Y-122399500D01*
X160817565Y-122399500D01*
X160817559Y-122399500D01*
X160660609Y-122423157D01*
X160565542Y-122437487D01*
X160565539Y-122437488D01*
X160565533Y-122437489D01*
X160321992Y-122512612D01*
X160092373Y-122623190D01*
X160092372Y-122623191D01*
X159881782Y-122766768D01*
X159694952Y-122940121D01*
X159694950Y-122940123D01*
X159536041Y-123139388D01*
X159408608Y-123360109D01*
X159315492Y-123597362D01*
X159315490Y-123597369D01*
X159258777Y-123845845D01*
X159239732Y-124099995D01*
X154150500Y-124099995D01*
X154150500Y-123983712D01*
X154118838Y-123743211D01*
X154056054Y-123508900D01*
X153963224Y-123284788D01*
X153841936Y-123074711D01*
X153694265Y-122882262D01*
X153694260Y-122882256D01*
X153522743Y-122710739D01*
X153522736Y-122710733D01*
X153330293Y-122563067D01*
X153330292Y-122563066D01*
X153330289Y-122563064D01*
X153120212Y-122441776D01*
X153111031Y-122437973D01*
X152896104Y-122348947D01*
X152661785Y-122286161D01*
X152421289Y-122254500D01*
X152421288Y-122254500D01*
X152178712Y-122254500D01*
X152178711Y-122254500D01*
X151938214Y-122286161D01*
X151703895Y-122348947D01*
X151479794Y-122441773D01*
X151479785Y-122441777D01*
X151269706Y-122563067D01*
X151077263Y-122710733D01*
X151077256Y-122710739D01*
X150905739Y-122882256D01*
X150905733Y-122882263D01*
X150758067Y-123074706D01*
X150758064Y-123074710D01*
X150758064Y-123074711D01*
X150741817Y-123102851D01*
X150636777Y-123284785D01*
X150636773Y-123284794D01*
X150543947Y-123508895D01*
X150481161Y-123743214D01*
X150449500Y-123983711D01*
X98540500Y-123983711D01*
X98508838Y-123743211D01*
X98446054Y-123508900D01*
X98353224Y-123284788D01*
X98231936Y-123074711D01*
X98084265Y-122882262D01*
X98084260Y-122882256D01*
X97912743Y-122710739D01*
X97912736Y-122710733D01*
X97720293Y-122563067D01*
X97720292Y-122563066D01*
X97720289Y-122563064D01*
X97510212Y-122441776D01*
X97501031Y-122437973D01*
X97286104Y-122348947D01*
X97051785Y-122286161D01*
X96811289Y-122254500D01*
X96811288Y-122254500D01*
X96568712Y-122254500D01*
X96568711Y-122254500D01*
X96328214Y-122286161D01*
X96093895Y-122348947D01*
X95869794Y-122441773D01*
X95869785Y-122441777D01*
X95659706Y-122563067D01*
X95467263Y-122710733D01*
X95467256Y-122710739D01*
X95295739Y-122882256D01*
X95295733Y-122882263D01*
X95148067Y-123074706D01*
X95148064Y-123074710D01*
X95148064Y-123074711D01*
X95131817Y-123102851D01*
X95026777Y-123284785D01*
X95026773Y-123284794D01*
X94933947Y-123508895D01*
X94871161Y-123743214D01*
X94839500Y-123983711D01*
X89741052Y-123983711D01*
X89730726Y-123845920D01*
X89674031Y-123597522D01*
X89674026Y-123597505D01*
X89580941Y-123360328D01*
X89580942Y-123360328D01*
X89453545Y-123139672D01*
X89411545Y-123087006D01*
X88760846Y-123737705D01*
X88753951Y-123721058D01*
X88666401Y-123590030D01*
X88554970Y-123478599D01*
X88423942Y-123391049D01*
X88407293Y-123384152D01*
X89058185Y-122733260D01*
X88897384Y-122623628D01*
X88897376Y-122623623D01*
X88667823Y-122513078D01*
X88667825Y-122513078D01*
X88424347Y-122437975D01*
X88424341Y-122437973D01*
X88172404Y-122400000D01*
X87917595Y-122400000D01*
X87665658Y-122437973D01*
X87665652Y-122437975D01*
X87422175Y-122513078D01*
X87192622Y-122623625D01*
X87192609Y-122623632D01*
X87031813Y-122733259D01*
X87682706Y-123384152D01*
X87666058Y-123391049D01*
X87535030Y-123478599D01*
X87423599Y-123590030D01*
X87336049Y-123721058D01*
X87329152Y-123737706D01*
X86678452Y-123087006D01*
X86636457Y-123139667D01*
X86509058Y-123360328D01*
X86415973Y-123597505D01*
X86415968Y-123597522D01*
X86359273Y-123845920D01*
X86340233Y-124099995D01*
X82745700Y-124099995D01*
X82745700Y-117593216D01*
X167107485Y-117593216D01*
X167107485Y-117779583D01*
X167136640Y-117963660D01*
X167194227Y-118140898D01*
X167194229Y-118140904D01*
X167222102Y-118195606D01*
X167273938Y-118297339D01*
X167278842Y-118306962D01*
X167388378Y-118457727D01*
X167388382Y-118457732D01*
X167720167Y-118789517D01*
X167720172Y-118789521D01*
X167838234Y-118875297D01*
X167870941Y-118899060D01*
X167968833Y-118948939D01*
X168036995Y-118983670D01*
X168037001Y-118983672D01*
X168214240Y-119041259D01*
X168214243Y-119041260D01*
X168398316Y-119070415D01*
X168398317Y-119070415D01*
X168584683Y-119070415D01*
X168584684Y-119070415D01*
X168768757Y-119041260D01*
X168946004Y-118983670D01*
X169112059Y-118899060D01*
X169240426Y-118805795D01*
X169306229Y-118782317D01*
X169374283Y-118798142D01*
X169378587Y-118800688D01*
X169499084Y-118875297D01*
X169689178Y-118948939D01*
X169889572Y-118986400D01*
X170093428Y-118986400D01*
X170293822Y-118948939D01*
X170483912Y-118875299D01*
X170483916Y-118875297D01*
X170572186Y-118820641D01*
X170572186Y-118820640D01*
X169932800Y-118181254D01*
X169952004Y-118186400D01*
X170030996Y-118186400D01*
X170107296Y-118165956D01*
X170175705Y-118126460D01*
X170231560Y-118070605D01*
X170271056Y-118002196D01*
X170291500Y-117925896D01*
X170291500Y-117886400D01*
X170345053Y-117886400D01*
X170928965Y-118470312D01*
X170930747Y-118467953D01*
X170930748Y-118467951D01*
X171021613Y-118285469D01*
X171021616Y-118285463D01*
X171077402Y-118089392D01*
X171077403Y-118089389D01*
X171096213Y-117886400D01*
X171096213Y-117886399D01*
X171077403Y-117683410D01*
X171077402Y-117683407D01*
X171021616Y-117487336D01*
X171021613Y-117487330D01*
X170930749Y-117304849D01*
X170930747Y-117304847D01*
X170928965Y-117302487D01*
X170345053Y-117886400D01*
X170291500Y-117886400D01*
X170291500Y-117846904D01*
X170271056Y-117770604D01*
X170231560Y-117702195D01*
X170175705Y-117646340D01*
X170107296Y-117606844D01*
X170030996Y-117586400D01*
X169952004Y-117586400D01*
X169932801Y-117591545D01*
X169991500Y-117532847D01*
X170572187Y-116952158D01*
X170483913Y-116897501D01*
X170483911Y-116897500D01*
X170293821Y-116823860D01*
X170093428Y-116786400D01*
X169889571Y-116786400D01*
X169822299Y-116798975D01*
X169752784Y-116791944D01*
X169698106Y-116748446D01*
X169675624Y-116682292D01*
X169675515Y-116677086D01*
X169675515Y-115694415D01*
X169695200Y-115627376D01*
X169748004Y-115581621D01*
X169799515Y-115570415D01*
X176633485Y-115570415D01*
X176700524Y-115590100D01*
X176746279Y-115642904D01*
X176757485Y-115694415D01*
X176757485Y-116011475D01*
X176737800Y-116078514D01*
X176684996Y-116124269D01*
X176615838Y-116134213D01*
X176581080Y-116123857D01*
X176577769Y-116122313D01*
X176474730Y-116074265D01*
X176474726Y-116074264D01*
X176474722Y-116074262D01*
X176265646Y-116018241D01*
X176265642Y-116018240D01*
X176265641Y-116018240D01*
X176265640Y-116018239D01*
X176265635Y-116018239D01*
X176050002Y-115999374D01*
X176049998Y-115999374D01*
X175834364Y-116018239D01*
X175834353Y-116018241D01*
X175625277Y-116074262D01*
X175625268Y-116074266D01*
X175429089Y-116165745D01*
X175342516Y-116226365D01*
X175251770Y-116289906D01*
X175251768Y-116289907D01*
X175251765Y-116289910D01*
X175098710Y-116442965D01*
X174974545Y-116620289D01*
X174883066Y-116816468D01*
X174883062Y-116816477D01*
X174827041Y-117025553D01*
X174827039Y-117025564D01*
X174808174Y-117241198D01*
X174808174Y-117241201D01*
X174827039Y-117456835D01*
X174827041Y-117456846D01*
X174883062Y-117665922D01*
X174883064Y-117665926D01*
X174883065Y-117665930D01*
X174899976Y-117702195D01*
X174974545Y-117862110D01*
X174974546Y-117862112D01*
X174974547Y-117862113D01*
X175098706Y-118039430D01*
X175251770Y-118192494D01*
X175429087Y-118316653D01*
X175625270Y-118408135D01*
X175834359Y-118464160D01*
X175988388Y-118477635D01*
X176049998Y-118483026D01*
X176050000Y-118483026D01*
X176050002Y-118483026D01*
X176103910Y-118478309D01*
X176265641Y-118464160D01*
X176474730Y-118408135D01*
X176670913Y-118316653D01*
X176848230Y-118192494D01*
X177001294Y-118039430D01*
X177125453Y-117862113D01*
X177192714Y-117717871D01*
X177238885Y-117665433D01*
X177306078Y-117646281D01*
X177372959Y-117666496D01*
X177392776Y-117682596D01*
X180963297Y-121253117D01*
X180963302Y-121253121D01*
X181094807Y-121348664D01*
X181114071Y-121362660D01*
X181222621Y-121417969D01*
X181280125Y-121447270D01*
X181280131Y-121447272D01*
X181457370Y-121504859D01*
X181457373Y-121504860D01*
X181641446Y-121534015D01*
X181827814Y-121534015D01*
X181934393Y-121534015D01*
X181986797Y-121545632D01*
X182053504Y-121576739D01*
X182273308Y-121635635D01*
X182435230Y-121649801D01*
X182499998Y-121655468D01*
X182500000Y-121655468D01*
X182500002Y-121655468D01*
X182556673Y-121650509D01*
X182726692Y-121635635D01*
X182946496Y-121576739D01*
X183013202Y-121545632D01*
X183065607Y-121534015D01*
X183724553Y-121534015D01*
X183724554Y-121534015D01*
X183908627Y-121504860D01*
X184085874Y-121447270D01*
X184251929Y-121362660D01*
X184402704Y-121253116D01*
X187537045Y-118118775D01*
X187646589Y-117968000D01*
X187731199Y-117801945D01*
X187732247Y-117798719D01*
X187758285Y-117718583D01*
X187797722Y-117660907D01*
X187862080Y-117633708D01*
X187876216Y-117632900D01*
X192562188Y-117632900D01*
X192629227Y-117652585D01*
X192649869Y-117669219D01*
X192977767Y-117997117D01*
X192977772Y-117997121D01*
X193128536Y-118106657D01*
X193128538Y-118106658D01*
X193128541Y-118106660D01*
X193285274Y-118186520D01*
X193285275Y-118186521D01*
X193294588Y-118191266D01*
X193294596Y-118191270D01*
X193471842Y-118248860D01*
X193655916Y-118278015D01*
X193655917Y-118278015D01*
X199483183Y-118278015D01*
X199483184Y-118278015D01*
X199667257Y-118248860D01*
X199844504Y-118191270D01*
X200010559Y-118106660D01*
X200161334Y-117997116D01*
X200293116Y-117865334D01*
X200402660Y-117714559D01*
X200487270Y-117548504D01*
X200544860Y-117371257D01*
X200574015Y-117187184D01*
X200574015Y-117000816D01*
X200544860Y-116816743D01*
X200544774Y-116816477D01*
X200487272Y-116639501D01*
X200487270Y-116639495D01*
X200457969Y-116581991D01*
X200402660Y-116473441D01*
X200380518Y-116442965D01*
X200293121Y-116322672D01*
X200293117Y-116322667D01*
X200161332Y-116190882D01*
X200161327Y-116190878D01*
X200010562Y-116081342D01*
X200010561Y-116081341D01*
X200010559Y-116081340D01*
X199932234Y-116041431D01*
X199844504Y-115996729D01*
X199844498Y-115996727D01*
X199667259Y-115939140D01*
X199667260Y-115939140D01*
X199529202Y-115917273D01*
X199483184Y-115909985D01*
X199483183Y-115909985D01*
X194290897Y-115909985D01*
X194223858Y-115890300D01*
X194203216Y-115873666D01*
X193875317Y-115545767D01*
X193875312Y-115545763D01*
X193724547Y-115436227D01*
X193724546Y-115436226D01*
X193724544Y-115436225D01*
X193671345Y-115409118D01*
X193558489Y-115351614D01*
X193558483Y-115351612D01*
X193381244Y-115294025D01*
X193381245Y-115294025D01*
X193243187Y-115272158D01*
X193197169Y-115264870D01*
X193197168Y-115264870D01*
X190303131Y-115264870D01*
X190236092Y-115245185D01*
X190190337Y-115192381D01*
X190180393Y-115123223D01*
X190209418Y-115059667D01*
X190211882Y-115056907D01*
X190291164Y-114970785D01*
X190427173Y-114762607D01*
X190527063Y-114534881D01*
X190588108Y-114293821D01*
X190588158Y-114293216D01*
X190608643Y-114046005D01*
X190608643Y-114045994D01*
X190588109Y-113798187D01*
X190588107Y-113798175D01*
X190527063Y-113557118D01*
X190427173Y-113329393D01*
X190291166Y-113121217D01*
X190269557Y-113097744D01*
X190122744Y-112938262D01*
X189926509Y-112785526D01*
X189926507Y-112785525D01*
X189926506Y-112785524D01*
X189707811Y-112667172D01*
X189707802Y-112667169D01*
X189472616Y-112586429D01*
X189227335Y-112545500D01*
X188978665Y-112545500D01*
X188733383Y-112586429D01*
X188498197Y-112667169D01*
X188498188Y-112667172D01*
X188279493Y-112785524D01*
X188083257Y-112938261D01*
X187914833Y-113121217D01*
X187778826Y-113329393D01*
X187678936Y-113557118D01*
X187617892Y-113798175D01*
X187617890Y-113798187D01*
X187597357Y-114045994D01*
X187597357Y-114046005D01*
X187617890Y-114293812D01*
X187617892Y-114293824D01*
X187678936Y-114534881D01*
X187778826Y-114762606D01*
X187914833Y-114970782D01*
X187914836Y-114970785D01*
X187994099Y-115056888D01*
X188025021Y-115119541D01*
X188017161Y-115188968D01*
X187973014Y-115243123D01*
X187906596Y-115264814D01*
X187902869Y-115264870D01*
X186727113Y-115264870D01*
X186540745Y-115264870D01*
X186503930Y-115270701D01*
X186356668Y-115294025D01*
X186288688Y-115316113D01*
X186218847Y-115318108D01*
X186159014Y-115282027D01*
X186128187Y-115219326D01*
X186136152Y-115149912D01*
X186159138Y-115114203D01*
X186291164Y-114970785D01*
X186427173Y-114762607D01*
X186527063Y-114534881D01*
X186588108Y-114293821D01*
X186588158Y-114293216D01*
X186608643Y-114046005D01*
X186608643Y-114045994D01*
X186588109Y-113798187D01*
X186588107Y-113798175D01*
X186527063Y-113557118D01*
X186427173Y-113329393D01*
X186291166Y-113121217D01*
X186269557Y-113097744D01*
X186122744Y-112938262D01*
X185926509Y-112785526D01*
X185926507Y-112785525D01*
X185926506Y-112785524D01*
X185707811Y-112667172D01*
X185707802Y-112667169D01*
X185472616Y-112586429D01*
X185227335Y-112545500D01*
X184978665Y-112545500D01*
X184733383Y-112586429D01*
X184498197Y-112667169D01*
X184498188Y-112667172D01*
X184279493Y-112785524D01*
X184083257Y-112938261D01*
X183914833Y-113121217D01*
X183778826Y-113329393D01*
X183678936Y-113557118D01*
X183617892Y-113798175D01*
X183617890Y-113798187D01*
X183597357Y-114045994D01*
X183597357Y-114046005D01*
X183617890Y-114293812D01*
X183617892Y-114293824D01*
X183678936Y-114534881D01*
X183778826Y-114762606D01*
X183914833Y-114970782D01*
X183914836Y-114970785D01*
X184083256Y-115153738D01*
X184279491Y-115306474D01*
X184498190Y-115424828D01*
X184733386Y-115505571D01*
X184978665Y-115546500D01*
X185227335Y-115546500D01*
X185472614Y-115505571D01*
X185620737Y-115454719D01*
X185690535Y-115451570D01*
X185750957Y-115486656D01*
X185782817Y-115548838D01*
X185776002Y-115618375D01*
X185748683Y-115659680D01*
X185730812Y-115677551D01*
X185730807Y-115677557D01*
X185621271Y-115828322D01*
X185536658Y-115994380D01*
X185536656Y-115994386D01*
X185479069Y-116171624D01*
X185449914Y-116355701D01*
X185449914Y-116805643D01*
X185430229Y-116872682D01*
X185413595Y-116893324D01*
X184005223Y-118301695D01*
X183943900Y-118335180D01*
X183874208Y-118330196D01*
X183818275Y-118288324D01*
X183794014Y-118224821D01*
X183785141Y-118123400D01*
X183785139Y-118123389D01*
X183726269Y-117903682D01*
X183726264Y-117903668D01*
X183630136Y-117697521D01*
X183630132Y-117697513D01*
X183579025Y-117624526D01*
X182900000Y-118303551D01*
X182900000Y-118297339D01*
X182872741Y-118195606D01*
X182820080Y-118104394D01*
X182745606Y-118029920D01*
X182654394Y-117977259D01*
X182552661Y-117950000D01*
X182546448Y-117950000D01*
X183225472Y-117270974D01*
X183152478Y-117219863D01*
X182946331Y-117123735D01*
X182946317Y-117123730D01*
X182726610Y-117064860D01*
X182726599Y-117064858D01*
X182500002Y-117045034D01*
X182499998Y-117045034D01*
X182273400Y-117064858D01*
X182273389Y-117064860D01*
X182053682Y-117123730D01*
X182053673Y-117123734D01*
X181847516Y-117219866D01*
X181847512Y-117219868D01*
X181774526Y-117270973D01*
X181774526Y-117270974D01*
X182453553Y-117950000D01*
X182447339Y-117950000D01*
X182345606Y-117977259D01*
X182254394Y-118029920D01*
X182179920Y-118104394D01*
X182127259Y-118195606D01*
X182100000Y-118297339D01*
X182100000Y-118303552D01*
X181420974Y-117624526D01*
X181420973Y-117624526D01*
X181369868Y-117697512D01*
X181369866Y-117697516D01*
X181273734Y-117903673D01*
X181273731Y-117903680D01*
X181263603Y-117941480D01*
X181227238Y-118001140D01*
X181164391Y-118031669D01*
X181095015Y-118023374D01*
X181056147Y-117997067D01*
X179161834Y-116102754D01*
X179128349Y-116041431D01*
X179125515Y-116015073D01*
X179125515Y-114293216D01*
X179096359Y-114109139D01*
X179038772Y-113931901D01*
X179038770Y-113931895D01*
X178970637Y-113798179D01*
X178954160Y-113765841D01*
X178940164Y-113746577D01*
X178844621Y-113615072D01*
X178844617Y-113615067D01*
X178712832Y-113483282D01*
X178712827Y-113483278D01*
X178562062Y-113373742D01*
X178562061Y-113373741D01*
X178562059Y-113373740D01*
X178475024Y-113329393D01*
X178396004Y-113289129D01*
X178395998Y-113289127D01*
X178218759Y-113231540D01*
X178218760Y-113231540D01*
X178080702Y-113209673D01*
X178034684Y-113202385D01*
X169334684Y-113202385D01*
X169148316Y-113202385D01*
X169111501Y-113208216D01*
X168964239Y-113231540D01*
X168787001Y-113289127D01*
X168786995Y-113289129D01*
X168620937Y-113373742D01*
X168470172Y-113483278D01*
X168470167Y-113483282D01*
X167588382Y-114365067D01*
X167588378Y-114365072D01*
X167478842Y-114515837D01*
X167394229Y-114681895D01*
X167394227Y-114681901D01*
X167336640Y-114859139D01*
X167307485Y-115043216D01*
X167307485Y-116986124D01*
X167287800Y-117053163D01*
X167283807Y-117059005D01*
X167278838Y-117065844D01*
X167194229Y-117231895D01*
X167194227Y-117231901D01*
X167136640Y-117409139D01*
X167107485Y-117593216D01*
X82745700Y-117593216D01*
X82745700Y-111536399D01*
X167186285Y-111536399D01*
X167186285Y-111536400D01*
X167205102Y-111739482D01*
X167260917Y-111935647D01*
X167260922Y-111935660D01*
X167351827Y-112118221D01*
X167474737Y-112280981D01*
X167591084Y-112387044D01*
X167624672Y-112417664D01*
X167625458Y-112418380D01*
X167625460Y-112418382D01*
X167642504Y-112428935D01*
X167798863Y-112525748D01*
X167989044Y-112599424D01*
X168189524Y-112636900D01*
X168189526Y-112636900D01*
X168393474Y-112636900D01*
X168393476Y-112636900D01*
X168593956Y-112599424D01*
X168784137Y-112525748D01*
X168957541Y-112418381D01*
X168958323Y-112417667D01*
X168958781Y-112417444D01*
X168962115Y-112414927D01*
X168962607Y-112415578D01*
X169021119Y-112387044D01*
X169090507Y-112395231D01*
X169120973Y-112414809D01*
X169121188Y-112414526D01*
X169124927Y-112417350D01*
X169125416Y-112417664D01*
X169125763Y-112417980D01*
X169299084Y-112525297D01*
X169489178Y-112598939D01*
X169689572Y-112636400D01*
X169893428Y-112636400D01*
X170093822Y-112598939D01*
X170283912Y-112525299D01*
X170283916Y-112525297D01*
X170372186Y-112470641D01*
X170372186Y-112470640D01*
X169732800Y-111831254D01*
X169752004Y-111836400D01*
X169830996Y-111836400D01*
X169907296Y-111815956D01*
X169975705Y-111776460D01*
X170031560Y-111720605D01*
X170071056Y-111652196D01*
X170091500Y-111575896D01*
X170091500Y-111536400D01*
X170145053Y-111536400D01*
X170728965Y-112120312D01*
X170730747Y-112117953D01*
X170730748Y-112117951D01*
X170821613Y-111935469D01*
X170821616Y-111935463D01*
X170877402Y-111739392D01*
X170877403Y-111739389D01*
X170896213Y-111536400D01*
X170896213Y-111536399D01*
X170877403Y-111333410D01*
X170877402Y-111333407D01*
X170821616Y-111137336D01*
X170821613Y-111137330D01*
X170730749Y-110954849D01*
X170730747Y-110954847D01*
X170728965Y-110952487D01*
X170145053Y-111536400D01*
X170091500Y-111536400D01*
X170091500Y-111496904D01*
X170071056Y-111420604D01*
X170031560Y-111352195D01*
X169975705Y-111296340D01*
X169907296Y-111256844D01*
X169830996Y-111236400D01*
X169752004Y-111236400D01*
X169732801Y-111241545D01*
X169791500Y-111182847D01*
X170372187Y-110602158D01*
X170283913Y-110547501D01*
X170283911Y-110547500D01*
X170093821Y-110473860D01*
X169893428Y-110436400D01*
X169689572Y-110436400D01*
X169489178Y-110473860D01*
X169299084Y-110547502D01*
X169125760Y-110654821D01*
X169125753Y-110654826D01*
X169125395Y-110655153D01*
X169125186Y-110655254D01*
X169121188Y-110658274D01*
X169120596Y-110657491D01*
X169062586Y-110685761D01*
X168993200Y-110677552D01*
X168962267Y-110657670D01*
X168962115Y-110657873D01*
X168959446Y-110655858D01*
X168958339Y-110655146D01*
X168957541Y-110654419D01*
X168957539Y-110654417D01*
X168784142Y-110547055D01*
X168784135Y-110547051D01*
X168689046Y-110510214D01*
X168593956Y-110473376D01*
X168393476Y-110435900D01*
X168189524Y-110435900D01*
X167989044Y-110473376D01*
X167989041Y-110473376D01*
X167989041Y-110473377D01*
X167798864Y-110547051D01*
X167798857Y-110547055D01*
X167625460Y-110654417D01*
X167625458Y-110654419D01*
X167474737Y-110791818D01*
X167351827Y-110954578D01*
X167260922Y-111137139D01*
X167260917Y-111137152D01*
X167205102Y-111333317D01*
X167186285Y-111536399D01*
X82745700Y-111536399D01*
X82745700Y-104799995D01*
X86339732Y-104799995D01*
X86339732Y-104800004D01*
X86358777Y-105054154D01*
X86358778Y-105054157D01*
X86415492Y-105302637D01*
X86508607Y-105539888D01*
X86636041Y-105760612D01*
X86794950Y-105959877D01*
X86981783Y-106133232D01*
X87192366Y-106276805D01*
X87192371Y-106276807D01*
X87192372Y-106276808D01*
X87192373Y-106276809D01*
X87314328Y-106335538D01*
X87421992Y-106387387D01*
X87421993Y-106387387D01*
X87421996Y-106387389D01*
X87665542Y-106462513D01*
X87917565Y-106500500D01*
X88172435Y-106500500D01*
X88424458Y-106462513D01*
X88668004Y-106387389D01*
X88897634Y-106276805D01*
X89108217Y-106133232D01*
X89295050Y-105959877D01*
X89453959Y-105760612D01*
X89581393Y-105539888D01*
X89674508Y-105302637D01*
X89731222Y-105054157D01*
X89750268Y-104800000D01*
X89741179Y-104678711D01*
X94839500Y-104678711D01*
X94839500Y-104921288D01*
X94871161Y-105161785D01*
X94933947Y-105396104D01*
X95026773Y-105620205D01*
X95026776Y-105620212D01*
X95148064Y-105830289D01*
X95148066Y-105830292D01*
X95148067Y-105830293D01*
X95295733Y-106022736D01*
X95295739Y-106022743D01*
X95467256Y-106194260D01*
X95467262Y-106194265D01*
X95659711Y-106341936D01*
X95869788Y-106463224D01*
X96093900Y-106556054D01*
X96328211Y-106618838D01*
X96508586Y-106642584D01*
X96568711Y-106650500D01*
X96568712Y-106650500D01*
X96811289Y-106650500D01*
X96859388Y-106644167D01*
X97051789Y-106618838D01*
X97286100Y-106556054D01*
X97510212Y-106463224D01*
X97720289Y-106341936D01*
X97912738Y-106194265D01*
X98084265Y-106022738D01*
X98231936Y-105830289D01*
X98353224Y-105620212D01*
X98446054Y-105396100D01*
X98508838Y-105161789D01*
X98540500Y-104921288D01*
X98540500Y-104678712D01*
X98540500Y-104678711D01*
X150449500Y-104678711D01*
X150449500Y-104921288D01*
X150481161Y-105161785D01*
X150543947Y-105396104D01*
X150636773Y-105620205D01*
X150636776Y-105620212D01*
X150758064Y-105830289D01*
X150758066Y-105830292D01*
X150758067Y-105830293D01*
X150905733Y-106022736D01*
X150905739Y-106022743D01*
X151077256Y-106194260D01*
X151077262Y-106194265D01*
X151269711Y-106341936D01*
X151479788Y-106463224D01*
X151703900Y-106556054D01*
X151938211Y-106618838D01*
X152118586Y-106642584D01*
X152178711Y-106650500D01*
X152178712Y-106650500D01*
X152421289Y-106650500D01*
X152469388Y-106644167D01*
X152661789Y-106618838D01*
X152896100Y-106556054D01*
X153120212Y-106463224D01*
X153330289Y-106341936D01*
X153522738Y-106194265D01*
X153694265Y-106022738D01*
X153841936Y-105830289D01*
X153963224Y-105620212D01*
X154056054Y-105396100D01*
X154118838Y-105161789D01*
X154150500Y-104921288D01*
X154150500Y-104799995D01*
X159239732Y-104799995D01*
X159239732Y-104800004D01*
X159258777Y-105054154D01*
X159258778Y-105054157D01*
X159315492Y-105302637D01*
X159408607Y-105539888D01*
X159536041Y-105760612D01*
X159694950Y-105959877D01*
X159881783Y-106133232D01*
X160092366Y-106276805D01*
X160092371Y-106276807D01*
X160092372Y-106276808D01*
X160092373Y-106276809D01*
X160214328Y-106335538D01*
X160321992Y-106387387D01*
X160321993Y-106387387D01*
X160321996Y-106387389D01*
X160565542Y-106462513D01*
X160817565Y-106500500D01*
X161072435Y-106500500D01*
X161324458Y-106462513D01*
X161568004Y-106387389D01*
X161797634Y-106276805D01*
X162008217Y-106133232D01*
X162195050Y-105959877D01*
X162353959Y-105760612D01*
X162481393Y-105539888D01*
X162574508Y-105302637D01*
X162631222Y-105054157D01*
X162650268Y-104800000D01*
X162631222Y-104545843D01*
X162574508Y-104297363D01*
X162481393Y-104060112D01*
X162353959Y-103839388D01*
X162195050Y-103640123D01*
X162008217Y-103466768D01*
X161797634Y-103323195D01*
X161797630Y-103323193D01*
X161797627Y-103323191D01*
X161797626Y-103323190D01*
X161568006Y-103212612D01*
X161568008Y-103212612D01*
X161324466Y-103137489D01*
X161324462Y-103137488D01*
X161324458Y-103137487D01*
X161203231Y-103119214D01*
X161072440Y-103099500D01*
X161072435Y-103099500D01*
X160817565Y-103099500D01*
X160817559Y-103099500D01*
X160660609Y-103123157D01*
X160565542Y-103137487D01*
X160565539Y-103137488D01*
X160565533Y-103137489D01*
X160321992Y-103212612D01*
X160092373Y-103323190D01*
X160092372Y-103323191D01*
X159881782Y-103466768D01*
X159694952Y-103640121D01*
X159694950Y-103640123D01*
X159536041Y-103839388D01*
X159408608Y-104060109D01*
X159315492Y-104297362D01*
X159315490Y-104297369D01*
X159258777Y-104545845D01*
X159239732Y-104799995D01*
X154150500Y-104799995D01*
X154150500Y-104678712D01*
X154118838Y-104438211D01*
X154056054Y-104203900D01*
X153963224Y-103979788D01*
X153841936Y-103769711D01*
X153694265Y-103577262D01*
X153694260Y-103577256D01*
X153522743Y-103405739D01*
X153522736Y-103405733D01*
X153330293Y-103258067D01*
X153330292Y-103258066D01*
X153330289Y-103258064D01*
X153121445Y-103137488D01*
X153120214Y-103136777D01*
X153120205Y-103136773D01*
X152896104Y-103043947D01*
X152661785Y-102981161D01*
X152421289Y-102949500D01*
X152421288Y-102949500D01*
X152178712Y-102949500D01*
X152178711Y-102949500D01*
X151938214Y-102981161D01*
X151703895Y-103043947D01*
X151479794Y-103136773D01*
X151479785Y-103136777D01*
X151269706Y-103258067D01*
X151077263Y-103405733D01*
X151077256Y-103405739D01*
X150905739Y-103577256D01*
X150905733Y-103577263D01*
X150758067Y-103769706D01*
X150636777Y-103979785D01*
X150636773Y-103979794D01*
X150543947Y-104203895D01*
X150481161Y-104438214D01*
X150449500Y-104678711D01*
X98540500Y-104678711D01*
X98508838Y-104438211D01*
X98446054Y-104203900D01*
X98353224Y-103979788D01*
X98231936Y-103769711D01*
X98084265Y-103577262D01*
X98084260Y-103577256D01*
X97912743Y-103405739D01*
X97912736Y-103405733D01*
X97720293Y-103258067D01*
X97720292Y-103258066D01*
X97720289Y-103258064D01*
X97511445Y-103137488D01*
X97510214Y-103136777D01*
X97510205Y-103136773D01*
X97286104Y-103043947D01*
X97051785Y-102981161D01*
X96811289Y-102949500D01*
X96811288Y-102949500D01*
X96568712Y-102949500D01*
X96568711Y-102949500D01*
X96328214Y-102981161D01*
X96093895Y-103043947D01*
X95869794Y-103136773D01*
X95869785Y-103136777D01*
X95659706Y-103258067D01*
X95467263Y-103405733D01*
X95467256Y-103405739D01*
X95295739Y-103577256D01*
X95295733Y-103577263D01*
X95148067Y-103769706D01*
X95026777Y-103979785D01*
X95026773Y-103979794D01*
X94933947Y-104203895D01*
X94871161Y-104438214D01*
X94839500Y-104678711D01*
X89741179Y-104678711D01*
X89731222Y-104545843D01*
X89674508Y-104297363D01*
X89581393Y-104060112D01*
X89453959Y-103839388D01*
X89295050Y-103640123D01*
X89108217Y-103466768D01*
X88897634Y-103323195D01*
X88897630Y-103323193D01*
X88897627Y-103323191D01*
X88897626Y-103323190D01*
X88668006Y-103212612D01*
X88668008Y-103212612D01*
X88424466Y-103137489D01*
X88424462Y-103137488D01*
X88424458Y-103137487D01*
X88303231Y-103119214D01*
X88172440Y-103099500D01*
X88172435Y-103099500D01*
X87917565Y-103099500D01*
X87917559Y-103099500D01*
X87760609Y-103123157D01*
X87665542Y-103137487D01*
X87665539Y-103137488D01*
X87665533Y-103137489D01*
X87421992Y-103212612D01*
X87192373Y-103323190D01*
X87192372Y-103323191D01*
X86981782Y-103466768D01*
X86794952Y-103640121D01*
X86794950Y-103640123D01*
X86636041Y-103839388D01*
X86508608Y-104060109D01*
X86415492Y-104297362D01*
X86415490Y-104297369D01*
X86358777Y-104545845D01*
X86339732Y-104799995D01*
X82745700Y-104799995D01*
X82745700Y-85499995D01*
X86339732Y-85499995D01*
X86339732Y-85500004D01*
X86358777Y-85754154D01*
X86401769Y-85942516D01*
X86415492Y-86002637D01*
X86508607Y-86239888D01*
X86636041Y-86460612D01*
X86794950Y-86659877D01*
X86981783Y-86833232D01*
X87192366Y-86976805D01*
X87192371Y-86976807D01*
X87192372Y-86976808D01*
X87192373Y-86976809D01*
X87304432Y-87030773D01*
X87421992Y-87087387D01*
X87421993Y-87087387D01*
X87421996Y-87087389D01*
X87665542Y-87162513D01*
X87917565Y-87200500D01*
X88172435Y-87200500D01*
X88424458Y-87162513D01*
X88668004Y-87087389D01*
X88897634Y-86976805D01*
X89108217Y-86833232D01*
X89295050Y-86659877D01*
X89453959Y-86460612D01*
X89581393Y-86239888D01*
X89674508Y-86002637D01*
X89731222Y-85754157D01*
X89741179Y-85621288D01*
X89750268Y-85500004D01*
X89750268Y-85499995D01*
X89741179Y-85378711D01*
X94839500Y-85378711D01*
X94839500Y-85621288D01*
X94869013Y-85845470D01*
X94871162Y-85861789D01*
X94892793Y-85942516D01*
X94933947Y-86096104D01*
X95026773Y-86320205D01*
X95026777Y-86320214D01*
X95048974Y-86358661D01*
X95148064Y-86530289D01*
X95148066Y-86530292D01*
X95148067Y-86530293D01*
X95295733Y-86722736D01*
X95295739Y-86722743D01*
X95467256Y-86894260D01*
X95467263Y-86894266D01*
X95475733Y-86900765D01*
X95659711Y-87041936D01*
X95869788Y-87163224D01*
X96093900Y-87256054D01*
X96328211Y-87318838D01*
X96508586Y-87342584D01*
X96568711Y-87350500D01*
X96568712Y-87350500D01*
X96811289Y-87350500D01*
X96859388Y-87344167D01*
X97051789Y-87318838D01*
X97286100Y-87256054D01*
X97510212Y-87163224D01*
X97720289Y-87041936D01*
X97912738Y-86894265D01*
X98084265Y-86722738D01*
X98231936Y-86530289D01*
X98353224Y-86320212D01*
X98446054Y-86096100D01*
X98508838Y-85861789D01*
X98540500Y-85621288D01*
X98540500Y-85378712D01*
X98540500Y-85378711D01*
X150449500Y-85378711D01*
X150449500Y-85621288D01*
X150479013Y-85845470D01*
X150481162Y-85861789D01*
X150502793Y-85942516D01*
X150543947Y-86096104D01*
X150636773Y-86320205D01*
X150636777Y-86320214D01*
X150658974Y-86358661D01*
X150758064Y-86530289D01*
X150758066Y-86530292D01*
X150758067Y-86530293D01*
X150905733Y-86722736D01*
X150905739Y-86722743D01*
X151077256Y-86894260D01*
X151077263Y-86894266D01*
X151085733Y-86900765D01*
X151269711Y-87041936D01*
X151479788Y-87163224D01*
X151703900Y-87256054D01*
X151938211Y-87318838D01*
X152118586Y-87342584D01*
X152178711Y-87350500D01*
X152178712Y-87350500D01*
X152421289Y-87350500D01*
X152469388Y-87344167D01*
X152661789Y-87318838D01*
X152896100Y-87256054D01*
X153120212Y-87163224D01*
X153330289Y-87041936D01*
X153522738Y-86894265D01*
X153694265Y-86722738D01*
X153841936Y-86530289D01*
X153963224Y-86320212D01*
X154056054Y-86096100D01*
X154118838Y-85861789D01*
X154150500Y-85621288D01*
X154150500Y-85499995D01*
X159239732Y-85499995D01*
X159239732Y-85500004D01*
X159258777Y-85754154D01*
X159301769Y-85942516D01*
X159315492Y-86002637D01*
X159408607Y-86239888D01*
X159536041Y-86460612D01*
X159694950Y-86659877D01*
X159881783Y-86833232D01*
X160092366Y-86976805D01*
X160092371Y-86976807D01*
X160092372Y-86976808D01*
X160092373Y-86976809D01*
X160204432Y-87030773D01*
X160321992Y-87087387D01*
X160321993Y-87087387D01*
X160321996Y-87087389D01*
X160565542Y-87162513D01*
X160817565Y-87200500D01*
X161072435Y-87200500D01*
X161324458Y-87162513D01*
X161568004Y-87087389D01*
X161797634Y-86976805D01*
X162008217Y-86833232D01*
X162195050Y-86659877D01*
X162353959Y-86460612D01*
X162481393Y-86239888D01*
X162574508Y-86002637D01*
X162631222Y-85754157D01*
X162641179Y-85621288D01*
X162650268Y-85500004D01*
X162650268Y-85499995D01*
X162631222Y-85245845D01*
X162626587Y-85225539D01*
X162574508Y-84997363D01*
X162481393Y-84760112D01*
X162353959Y-84539388D01*
X162195050Y-84340123D01*
X162008217Y-84166768D01*
X161797634Y-84023195D01*
X161797630Y-84023193D01*
X161797627Y-84023191D01*
X161797626Y-84023190D01*
X161568006Y-83912612D01*
X161568008Y-83912612D01*
X161324466Y-83837489D01*
X161324462Y-83837488D01*
X161324458Y-83837487D01*
X161203231Y-83819214D01*
X161072440Y-83799500D01*
X161072435Y-83799500D01*
X160817565Y-83799500D01*
X160817559Y-83799500D01*
X160660609Y-83823157D01*
X160565542Y-83837487D01*
X160565539Y-83837488D01*
X160565533Y-83837489D01*
X160321992Y-83912612D01*
X160092373Y-84023190D01*
X160092372Y-84023191D01*
X159881782Y-84166768D01*
X159694952Y-84340121D01*
X159694950Y-84340123D01*
X159536041Y-84539388D01*
X159408608Y-84760109D01*
X159315492Y-84997362D01*
X159315490Y-84997369D01*
X159258777Y-85245845D01*
X159239732Y-85499995D01*
X154150500Y-85499995D01*
X154150500Y-85378712D01*
X154118838Y-85138211D01*
X154056054Y-84903900D01*
X153963224Y-84679788D01*
X153841936Y-84469711D01*
X153694265Y-84277262D01*
X153694260Y-84277256D01*
X153522743Y-84105739D01*
X153522736Y-84105733D01*
X153330293Y-83958067D01*
X153330292Y-83958066D01*
X153330289Y-83958064D01*
X153121445Y-83837488D01*
X153120214Y-83836777D01*
X153120205Y-83836773D01*
X152896104Y-83743947D01*
X152661785Y-83681161D01*
X152421289Y-83649500D01*
X152421288Y-83649500D01*
X152178712Y-83649500D01*
X152178711Y-83649500D01*
X151938214Y-83681161D01*
X151703895Y-83743947D01*
X151479794Y-83836773D01*
X151479785Y-83836777D01*
X151269706Y-83958067D01*
X151077263Y-84105733D01*
X151077256Y-84105739D01*
X150905739Y-84277256D01*
X150905733Y-84277263D01*
X150758067Y-84469706D01*
X150636777Y-84679785D01*
X150636773Y-84679794D01*
X150543947Y-84903895D01*
X150481161Y-85138214D01*
X150449500Y-85378711D01*
X98540500Y-85378711D01*
X98508838Y-85138211D01*
X98446054Y-84903900D01*
X98353224Y-84679788D01*
X98231936Y-84469711D01*
X98084265Y-84277262D01*
X98084260Y-84277256D01*
X97912743Y-84105739D01*
X97912736Y-84105733D01*
X97720293Y-83958067D01*
X97720292Y-83958066D01*
X97720289Y-83958064D01*
X97511445Y-83837488D01*
X97510214Y-83836777D01*
X97510205Y-83836773D01*
X97286104Y-83743947D01*
X97051785Y-83681161D01*
X96811289Y-83649500D01*
X96811288Y-83649500D01*
X96568712Y-83649500D01*
X96568711Y-83649500D01*
X96328214Y-83681161D01*
X96093895Y-83743947D01*
X95869794Y-83836773D01*
X95869785Y-83836777D01*
X95659706Y-83958067D01*
X95467263Y-84105733D01*
X95467256Y-84105739D01*
X95295739Y-84277256D01*
X95295733Y-84277263D01*
X95148067Y-84469706D01*
X95026777Y-84679785D01*
X95026773Y-84679794D01*
X94933947Y-84903895D01*
X94871161Y-85138214D01*
X94839500Y-85378711D01*
X89741179Y-85378711D01*
X89731222Y-85245845D01*
X89726587Y-85225539D01*
X89674508Y-84997363D01*
X89581393Y-84760112D01*
X89453959Y-84539388D01*
X89295050Y-84340123D01*
X89108217Y-84166768D01*
X88897634Y-84023195D01*
X88897630Y-84023193D01*
X88897627Y-84023191D01*
X88897626Y-84023190D01*
X88668006Y-83912612D01*
X88668008Y-83912612D01*
X88424466Y-83837489D01*
X88424462Y-83837488D01*
X88424458Y-83837487D01*
X88303231Y-83819214D01*
X88172440Y-83799500D01*
X88172435Y-83799500D01*
X87917565Y-83799500D01*
X87917559Y-83799500D01*
X87760609Y-83823157D01*
X87665542Y-83837487D01*
X87665539Y-83837488D01*
X87665533Y-83837489D01*
X87421992Y-83912612D01*
X87192373Y-84023190D01*
X87192372Y-84023191D01*
X86981782Y-84166768D01*
X86794952Y-84340121D01*
X86794950Y-84340123D01*
X86636041Y-84539388D01*
X86508608Y-84760109D01*
X86415492Y-84997362D01*
X86415490Y-84997369D01*
X86358777Y-85245845D01*
X86339732Y-85499995D01*
X82745700Y-85499995D01*
X82745700Y-66199995D01*
X86339732Y-66199995D01*
X86339732Y-66200004D01*
X86358777Y-66454154D01*
X86390041Y-66591132D01*
X86415492Y-66702637D01*
X86508607Y-66939888D01*
X86636041Y-67160612D01*
X86794950Y-67359877D01*
X86981783Y-67533232D01*
X87192366Y-67676805D01*
X87192371Y-67676807D01*
X87192372Y-67676808D01*
X87192373Y-67676809D01*
X87314328Y-67735538D01*
X87421992Y-67787387D01*
X87421993Y-67787387D01*
X87421996Y-67787389D01*
X87665542Y-67862513D01*
X87917565Y-67900500D01*
X88172435Y-67900500D01*
X88424458Y-67862513D01*
X88668004Y-67787389D01*
X88864532Y-67692746D01*
X88897626Y-67676809D01*
X88897626Y-67676808D01*
X88897634Y-67676805D01*
X89108217Y-67533232D01*
X89295050Y-67359877D01*
X89453959Y-67160612D01*
X89581393Y-66939888D01*
X89674508Y-66702637D01*
X89731222Y-66454157D01*
X89744727Y-66273939D01*
X89750268Y-66200004D01*
X89750268Y-66199995D01*
X89740804Y-66073711D01*
X94839500Y-66073711D01*
X94839500Y-66316288D01*
X94866857Y-66524093D01*
X94871162Y-66556789D01*
X94878854Y-66585496D01*
X94933947Y-66791104D01*
X95026773Y-67015205D01*
X95026777Y-67015214D01*
X95042420Y-67042308D01*
X95148064Y-67225289D01*
X95148066Y-67225292D01*
X95148067Y-67225293D01*
X95295733Y-67417736D01*
X95295739Y-67417743D01*
X95467256Y-67589260D01*
X95467263Y-67589266D01*
X95504121Y-67617548D01*
X95659711Y-67736936D01*
X95869788Y-67858224D01*
X96093900Y-67951054D01*
X96328211Y-68013838D01*
X96503479Y-68036912D01*
X96568711Y-68045500D01*
X96568712Y-68045500D01*
X96811289Y-68045500D01*
X96865766Y-68038328D01*
X97051789Y-68013838D01*
X97286100Y-67951054D01*
X97510212Y-67858224D01*
X97720289Y-67736936D01*
X97912738Y-67589265D01*
X98084265Y-67417738D01*
X98231936Y-67225289D01*
X98353224Y-67015212D01*
X98446054Y-66791100D01*
X98508838Y-66556789D01*
X98540500Y-66316288D01*
X98540500Y-66073712D01*
X98540500Y-66073711D01*
X150449500Y-66073711D01*
X150449500Y-66316288D01*
X150476857Y-66524093D01*
X150481162Y-66556789D01*
X150488854Y-66585496D01*
X150543947Y-66791104D01*
X150636773Y-67015205D01*
X150636777Y-67015214D01*
X150652420Y-67042308D01*
X150758064Y-67225289D01*
X150758066Y-67225292D01*
X150758067Y-67225293D01*
X150905733Y-67417736D01*
X150905739Y-67417743D01*
X151077256Y-67589260D01*
X151077263Y-67589266D01*
X151114121Y-67617548D01*
X151269711Y-67736936D01*
X151479788Y-67858224D01*
X151703900Y-67951054D01*
X151938211Y-68013838D01*
X152113479Y-68036912D01*
X152178711Y-68045500D01*
X152178712Y-68045500D01*
X152421289Y-68045500D01*
X152475766Y-68038328D01*
X152661789Y-68013838D01*
X152896100Y-67951054D01*
X153120212Y-67858224D01*
X153330289Y-67736936D01*
X153522738Y-67589265D01*
X153694265Y-67417738D01*
X153841936Y-67225289D01*
X153963224Y-67015212D01*
X154056054Y-66791100D01*
X154118838Y-66556789D01*
X154150500Y-66316288D01*
X154150500Y-66199995D01*
X159239732Y-66199995D01*
X159239732Y-66200004D01*
X159258777Y-66454154D01*
X159290041Y-66591132D01*
X159315492Y-66702637D01*
X159408607Y-66939888D01*
X159536041Y-67160612D01*
X159694950Y-67359877D01*
X159881783Y-67533232D01*
X160092366Y-67676805D01*
X160092371Y-67676807D01*
X160092372Y-67676808D01*
X160092373Y-67676809D01*
X160214328Y-67735538D01*
X160321992Y-67787387D01*
X160321993Y-67787387D01*
X160321996Y-67787389D01*
X160565542Y-67862513D01*
X160817565Y-67900500D01*
X161072435Y-67900500D01*
X161324458Y-67862513D01*
X161568004Y-67787389D01*
X161764532Y-67692746D01*
X161797626Y-67676809D01*
X161797626Y-67676808D01*
X161797634Y-67676805D01*
X162008217Y-67533232D01*
X162195050Y-67359877D01*
X162353959Y-67160612D01*
X162481393Y-66939888D01*
X162574508Y-66702637D01*
X162631222Y-66454157D01*
X162644727Y-66273939D01*
X162650268Y-66200004D01*
X162650268Y-66199995D01*
X162631222Y-65945845D01*
X162617654Y-65886400D01*
X162574508Y-65697363D01*
X162481393Y-65460112D01*
X162353959Y-65239388D01*
X162195050Y-65040123D01*
X162008217Y-64866768D01*
X161797634Y-64723195D01*
X161797630Y-64723193D01*
X161797627Y-64723191D01*
X161797626Y-64723190D01*
X161568006Y-64612612D01*
X161568008Y-64612612D01*
X161324466Y-64537489D01*
X161324462Y-64537488D01*
X161324458Y-64537487D01*
X161203231Y-64519214D01*
X161072440Y-64499500D01*
X161072435Y-64499500D01*
X160817565Y-64499500D01*
X160817559Y-64499500D01*
X160660609Y-64523157D01*
X160565542Y-64537487D01*
X160565539Y-64537488D01*
X160565533Y-64537489D01*
X160321992Y-64612612D01*
X160092373Y-64723190D01*
X160092372Y-64723191D01*
X159881782Y-64866768D01*
X159694952Y-65040121D01*
X159694950Y-65040123D01*
X159536041Y-65239388D01*
X159408608Y-65460109D01*
X159315492Y-65697362D01*
X159315490Y-65697369D01*
X159258777Y-65945845D01*
X159239732Y-66199995D01*
X154150500Y-66199995D01*
X154150500Y-66073712D01*
X154118838Y-65833211D01*
X154056054Y-65598900D01*
X153963224Y-65374788D01*
X153841936Y-65164711D01*
X153758967Y-65056584D01*
X153694266Y-64972263D01*
X153694260Y-64972256D01*
X153522743Y-64800739D01*
X153522736Y-64800733D01*
X153330293Y-64653067D01*
X153330292Y-64653066D01*
X153330289Y-64653064D01*
X153130107Y-64537489D01*
X153120214Y-64531777D01*
X153120205Y-64531773D01*
X152896104Y-64438947D01*
X152701781Y-64386878D01*
X152661789Y-64376162D01*
X152661788Y-64376161D01*
X152661785Y-64376161D01*
X152421289Y-64344500D01*
X152421288Y-64344500D01*
X152178712Y-64344500D01*
X152178711Y-64344500D01*
X151938214Y-64376161D01*
X151703895Y-64438947D01*
X151479794Y-64531773D01*
X151479785Y-64531777D01*
X151269706Y-64653067D01*
X151077263Y-64800733D01*
X151077256Y-64800739D01*
X150905739Y-64972256D01*
X150905733Y-64972263D01*
X150758067Y-65164706D01*
X150758064Y-65164710D01*
X150758064Y-65164711D01*
X150746848Y-65184137D01*
X150636777Y-65374785D01*
X150636773Y-65374794D01*
X150543947Y-65598895D01*
X150481161Y-65833214D01*
X150449500Y-66073711D01*
X98540500Y-66073711D01*
X98508838Y-65833211D01*
X98446054Y-65598900D01*
X98353224Y-65374788D01*
X98231936Y-65164711D01*
X98148967Y-65056584D01*
X98084266Y-64972263D01*
X98084260Y-64972256D01*
X97912743Y-64800739D01*
X97912736Y-64800733D01*
X97720293Y-64653067D01*
X97720292Y-64653066D01*
X97720289Y-64653064D01*
X97520107Y-64537489D01*
X97510214Y-64531777D01*
X97510205Y-64531773D01*
X97286104Y-64438947D01*
X97091781Y-64386878D01*
X97051789Y-64376162D01*
X97051788Y-64376161D01*
X97051785Y-64376161D01*
X96811289Y-64344500D01*
X96811288Y-64344500D01*
X96568712Y-64344500D01*
X96568711Y-64344500D01*
X96328214Y-64376161D01*
X96093895Y-64438947D01*
X95869794Y-64531773D01*
X95869785Y-64531777D01*
X95659706Y-64653067D01*
X95467263Y-64800733D01*
X95467256Y-64800739D01*
X95295739Y-64972256D01*
X95295733Y-64972263D01*
X95148067Y-65164706D01*
X95148064Y-65164710D01*
X95148064Y-65164711D01*
X95136848Y-65184137D01*
X95026777Y-65374785D01*
X95026773Y-65374794D01*
X94933947Y-65598895D01*
X94871161Y-65833214D01*
X94839500Y-66073711D01*
X89740804Y-66073711D01*
X89731222Y-65945845D01*
X89717654Y-65886400D01*
X89674508Y-65697363D01*
X89581393Y-65460112D01*
X89453959Y-65239388D01*
X89295050Y-65040123D01*
X89108217Y-64866768D01*
X88897634Y-64723195D01*
X88897630Y-64723193D01*
X88897627Y-64723191D01*
X88897626Y-64723190D01*
X88668006Y-64612612D01*
X88668008Y-64612612D01*
X88424466Y-64537489D01*
X88424462Y-64537488D01*
X88424458Y-64537487D01*
X88303231Y-64519214D01*
X88172440Y-64499500D01*
X88172435Y-64499500D01*
X87917565Y-64499500D01*
X87917559Y-64499500D01*
X87760609Y-64523157D01*
X87665542Y-64537487D01*
X87665539Y-64537488D01*
X87665533Y-64537489D01*
X87421992Y-64612612D01*
X87192373Y-64723190D01*
X87192372Y-64723191D01*
X86981782Y-64866768D01*
X86794952Y-65040121D01*
X86794950Y-65040123D01*
X86636041Y-65239388D01*
X86508608Y-65460109D01*
X86415492Y-65697362D01*
X86415490Y-65697369D01*
X86358777Y-65945845D01*
X86339732Y-66199995D01*
X82745700Y-66199995D01*
X82745700Y-55260900D01*
X82765385Y-55193861D01*
X82818189Y-55148106D01*
X82869700Y-55136900D01*
X194399653Y-55136900D01*
X194466692Y-55156585D01*
G37*
%TD.AperFunction*%
%TA.AperFunction,Conductor*%
G36*
X172647203Y-70347419D02*
G01*
X172653681Y-70353451D01*
X176551004Y-74250774D01*
X176551014Y-74250785D01*
X176555344Y-74255115D01*
X176555345Y-74255116D01*
X176667149Y-74366920D01*
X176667151Y-74366921D01*
X176667155Y-74366924D01*
X176751560Y-74415655D01*
X176751561Y-74415655D01*
X176804080Y-74445977D01*
X176956808Y-74486900D01*
X180442403Y-74486900D01*
X180509442Y-74506585D01*
X180555197Y-74559389D01*
X180565141Y-74628547D01*
X180536116Y-74692103D01*
X180530084Y-74698581D01*
X178897999Y-76330663D01*
X178836676Y-76364148D01*
X178766984Y-76359164D01*
X178711051Y-76317292D01*
X178690543Y-76275075D01*
X178667769Y-76190082D01*
X178667764Y-76190068D01*
X178571636Y-75983921D01*
X178571632Y-75983913D01*
X178520525Y-75910926D01*
X177841500Y-76589952D01*
X177841500Y-76583739D01*
X177814241Y-76482006D01*
X177761580Y-76390794D01*
X177687106Y-76316320D01*
X177595894Y-76263659D01*
X177494161Y-76236400D01*
X177487948Y-76236400D01*
X178166972Y-75557374D01*
X178093978Y-75506263D01*
X177887831Y-75410135D01*
X177887817Y-75410130D01*
X177668110Y-75351260D01*
X177668099Y-75351258D01*
X177441502Y-75331434D01*
X177441498Y-75331434D01*
X177214900Y-75351258D01*
X177214889Y-75351260D01*
X176995182Y-75410130D01*
X176995173Y-75410134D01*
X176789016Y-75506266D01*
X176789012Y-75506268D01*
X176716026Y-75557373D01*
X176716026Y-75557374D01*
X177395053Y-76236400D01*
X177388839Y-76236400D01*
X177287106Y-76263659D01*
X177195894Y-76316320D01*
X177121420Y-76390794D01*
X177068759Y-76482006D01*
X177041500Y-76583739D01*
X177041500Y-76589952D01*
X176362474Y-75910926D01*
X176362473Y-75910926D01*
X176311368Y-75983912D01*
X176311366Y-75983916D01*
X176215234Y-76190073D01*
X176215230Y-76190082D01*
X176156360Y-76409789D01*
X176156358Y-76409800D01*
X176136534Y-76636397D01*
X176136534Y-76636402D01*
X176156358Y-76862999D01*
X176156360Y-76863010D01*
X176215230Y-77082717D01*
X176215235Y-77082731D01*
X176311363Y-77288878D01*
X176362474Y-77361872D01*
X177041500Y-76682846D01*
X177041500Y-76689061D01*
X177068759Y-76790794D01*
X177121420Y-76882006D01*
X177195894Y-76956480D01*
X177287106Y-77009141D01*
X177388839Y-77036400D01*
X177395053Y-77036400D01*
X177055090Y-77376361D01*
X176999512Y-77408452D01*
X176995008Y-77409659D01*
X176995003Y-77409660D01*
X176788767Y-77505831D01*
X176788765Y-77505832D01*
X176602358Y-77636354D01*
X176441454Y-77797258D01*
X176310932Y-77983665D01*
X176310931Y-77983667D01*
X176214761Y-78189902D01*
X176214758Y-78189911D01*
X176155866Y-78409702D01*
X176155864Y-78409713D01*
X176136032Y-78636398D01*
X176136032Y-78636401D01*
X176155864Y-78863086D01*
X176155866Y-78863097D01*
X176214758Y-79082888D01*
X176214761Y-79082897D01*
X176310931Y-79289132D01*
X176310932Y-79289134D01*
X176441454Y-79475541D01*
X176602358Y-79636445D01*
X176602361Y-79636447D01*
X176788124Y-79766518D01*
X176831748Y-79821093D01*
X176841000Y-79868092D01*
X176841000Y-81154706D01*
X176821315Y-81221745D01*
X176788123Y-81256281D01*
X176602359Y-81386353D01*
X176441454Y-81547258D01*
X176310932Y-81733665D01*
X176310931Y-81733667D01*
X176214761Y-81939902D01*
X176214758Y-81939911D01*
X176155866Y-82159702D01*
X176155864Y-82159713D01*
X176136032Y-82386398D01*
X176136032Y-82386401D01*
X176155864Y-82613086D01*
X176155866Y-82613097D01*
X176214758Y-82832888D01*
X176214761Y-82832897D01*
X176310931Y-83039132D01*
X176310932Y-83039134D01*
X176441454Y-83225541D01*
X176514632Y-83298719D01*
X176548117Y-83360042D01*
X176543133Y-83429734D01*
X176514632Y-83474081D01*
X176441454Y-83547258D01*
X176310932Y-83733665D01*
X176310931Y-83733667D01*
X176214761Y-83939902D01*
X176214758Y-83939911D01*
X176155866Y-84159702D01*
X176155864Y-84159713D01*
X176136032Y-84386398D01*
X176136032Y-84386401D01*
X176155864Y-84613086D01*
X176155866Y-84613097D01*
X176214758Y-84832888D01*
X176214761Y-84832897D01*
X176310931Y-85039132D01*
X176310932Y-85039134D01*
X176441454Y-85225541D01*
X176602358Y-85386445D01*
X176602361Y-85386447D01*
X176788766Y-85516968D01*
X176995004Y-85613139D01*
X176995009Y-85613140D01*
X176995011Y-85613141D01*
X177047915Y-85627316D01*
X177214808Y-85672035D01*
X177376730Y-85686201D01*
X177441498Y-85691868D01*
X177441500Y-85691868D01*
X177441502Y-85691868D01*
X177498173Y-85686909D01*
X177668192Y-85672035D01*
X177887996Y-85613139D01*
X178094234Y-85516968D01*
X178280639Y-85386447D01*
X178441547Y-85225539D01*
X178572068Y-85039134D01*
X178668239Y-84832896D01*
X178727135Y-84613092D01*
X178746653Y-84389996D01*
X178746968Y-84386401D01*
X178746968Y-84386398D01*
X178733647Y-84234138D01*
X178727135Y-84159708D01*
X178701347Y-84063466D01*
X178703010Y-83993617D01*
X178733439Y-83943694D01*
X183379321Y-79297813D01*
X183440642Y-79264330D01*
X183510334Y-79269314D01*
X183566267Y-79311186D01*
X183590684Y-79376650D01*
X183591000Y-79385496D01*
X183591000Y-83136302D01*
X183571315Y-83203341D01*
X183554681Y-83223983D01*
X178898407Y-87880256D01*
X178837084Y-87913741D01*
X178767392Y-87908757D01*
X178711459Y-87866885D01*
X178690951Y-87824668D01*
X178668241Y-87739911D01*
X178668238Y-87739902D01*
X178628451Y-87654579D01*
X178572068Y-87533666D01*
X178441547Y-87347261D01*
X178441545Y-87347258D01*
X178280641Y-87186354D01*
X178094234Y-87055832D01*
X178094232Y-87055831D01*
X177887997Y-86959661D01*
X177887988Y-86959658D01*
X177668197Y-86900766D01*
X177668193Y-86900765D01*
X177668192Y-86900765D01*
X177668191Y-86900764D01*
X177668186Y-86900764D01*
X177441502Y-86880932D01*
X177441498Y-86880932D01*
X177214813Y-86900764D01*
X177214802Y-86900766D01*
X176995011Y-86959658D01*
X176995002Y-86959661D01*
X176788767Y-87055831D01*
X176788765Y-87055832D01*
X176602358Y-87186354D01*
X176441454Y-87347258D01*
X176310932Y-87533665D01*
X176310931Y-87533667D01*
X176214761Y-87739902D01*
X176214758Y-87739911D01*
X176155866Y-87959702D01*
X176155864Y-87959713D01*
X176136032Y-88186398D01*
X176136032Y-88186401D01*
X176155864Y-88413086D01*
X176155866Y-88413097D01*
X176214758Y-88632888D01*
X176214761Y-88632897D01*
X176310931Y-88839132D01*
X176310932Y-88839134D01*
X176441454Y-89025541D01*
X176514632Y-89098719D01*
X176548117Y-89160042D01*
X176543133Y-89229734D01*
X176514632Y-89274081D01*
X176441454Y-89347258D01*
X176310932Y-89533665D01*
X176310931Y-89533667D01*
X176214761Y-89739902D01*
X176214758Y-89739911D01*
X176155866Y-89959702D01*
X176155864Y-89959713D01*
X176136032Y-90186398D01*
X176136032Y-90186401D01*
X176155864Y-90413086D01*
X176155866Y-90413097D01*
X176214758Y-90632888D01*
X176214761Y-90632897D01*
X176310931Y-90839132D01*
X176310932Y-90839134D01*
X176441454Y-91025541D01*
X176602358Y-91186445D01*
X176602361Y-91186447D01*
X176788766Y-91316968D01*
X176878758Y-91358932D01*
X176931197Y-91405103D01*
X176950349Y-91472296D01*
X176930134Y-91539177D01*
X176914034Y-91558994D01*
X171740922Y-96732106D01*
X171679599Y-96765591D01*
X171609907Y-96760607D01*
X171553974Y-96718735D01*
X171529557Y-96653271D01*
X171529712Y-96633626D01*
X171546968Y-96436400D01*
X171527135Y-96209708D01*
X171501347Y-96113466D01*
X171503010Y-96043617D01*
X171533439Y-95993694D01*
X172322020Y-95205116D01*
X172401077Y-95068184D01*
X172442001Y-94915457D01*
X172442001Y-94757342D01*
X172442001Y-94749747D01*
X172442000Y-94749729D01*
X172442000Y-70441132D01*
X172461685Y-70374093D01*
X172514489Y-70328338D01*
X172583647Y-70318394D01*
X172647203Y-70347419D01*
G37*
%TD.AperFunction*%
%TA.AperFunction,Conductor*%
G36*
X169441500Y-77889061D02*
G01*
X169468759Y-77990794D01*
X169521420Y-78082006D01*
X169595894Y-78156480D01*
X169687106Y-78209141D01*
X169788839Y-78236400D01*
X169795053Y-78236400D01*
X169116026Y-78915425D01*
X169189013Y-78966532D01*
X169189021Y-78966536D01*
X169395168Y-79062664D01*
X169395182Y-79062669D01*
X169614889Y-79121539D01*
X169614900Y-79121541D01*
X169841498Y-79141366D01*
X169841502Y-79141366D01*
X170068099Y-79121541D01*
X170068110Y-79121539D01*
X170287817Y-79062669D01*
X170287831Y-79062664D01*
X170493978Y-78966536D01*
X170566971Y-78915424D01*
X169887947Y-78236400D01*
X169894161Y-78236400D01*
X169995894Y-78209141D01*
X170087106Y-78156480D01*
X170161580Y-78082006D01*
X170214241Y-77990794D01*
X170241500Y-77889061D01*
X170241500Y-77882847D01*
X170920524Y-78561871D01*
X170971636Y-78488878D01*
X171004618Y-78418149D01*
X171050790Y-78365709D01*
X171117983Y-78346557D01*
X171184864Y-78366772D01*
X171230199Y-78419937D01*
X171241000Y-78470553D01*
X171241000Y-82574004D01*
X171221315Y-82641043D01*
X171168511Y-82686798D01*
X171099353Y-82696742D01*
X171094217Y-82695893D01*
X171043430Y-82686400D01*
X170839572Y-82686400D01*
X170639178Y-82723860D01*
X170449084Y-82797502D01*
X170275760Y-82904821D01*
X170275753Y-82904826D01*
X170275395Y-82905153D01*
X170275186Y-82905254D01*
X170271188Y-82908274D01*
X170270596Y-82907491D01*
X170212586Y-82935761D01*
X170143200Y-82927552D01*
X170112267Y-82907670D01*
X170112115Y-82907873D01*
X170109446Y-82905858D01*
X170108339Y-82905146D01*
X170107541Y-82904419D01*
X170107539Y-82904417D01*
X169934142Y-82797055D01*
X169934135Y-82797051D01*
X169745205Y-82723860D01*
X169743956Y-82723376D01*
X169543476Y-82685900D01*
X169339524Y-82685900D01*
X169339522Y-82685900D01*
X169277993Y-82697401D01*
X169208478Y-82690369D01*
X169167529Y-82663193D01*
X168628319Y-82123983D01*
X168594834Y-82062660D01*
X168592000Y-82036302D01*
X168592000Y-78682280D01*
X168611685Y-78615241D01*
X168664489Y-78569486D01*
X168726807Y-78558752D01*
X168762474Y-78561872D01*
X169441500Y-77882846D01*
X169441500Y-77889061D01*
G37*
%TD.AperFunction*%
%TA.AperFunction,Conductor*%
G36*
X168797203Y-76618847D02*
G01*
X168817573Y-76641435D01*
X168837819Y-76670350D01*
X168841455Y-76675542D01*
X169002358Y-76836445D01*
X169002361Y-76836447D01*
X169188766Y-76966968D01*
X169395004Y-77063139D01*
X169395006Y-77063139D01*
X169395013Y-77063142D01*
X169399503Y-77064345D01*
X169455092Y-77096439D01*
X169795053Y-77436400D01*
X169788839Y-77436400D01*
X169687106Y-77463659D01*
X169595894Y-77516320D01*
X169521420Y-77590794D01*
X169468759Y-77682006D01*
X169441500Y-77783739D01*
X169441500Y-77789952D01*
X168762473Y-77110925D01*
X168726806Y-77114046D01*
X168658306Y-77100279D01*
X168608124Y-77051663D01*
X168592000Y-76990518D01*
X168592000Y-76712560D01*
X168611685Y-76645521D01*
X168664489Y-76599766D01*
X168733647Y-76589822D01*
X168797203Y-76618847D01*
G37*
%TD.AperFunction*%
%TA.AperFunction,Conductor*%
G36*
X171184865Y-76367955D02*
G01*
X171230200Y-76421120D01*
X171241000Y-76471735D01*
X171241000Y-77202246D01*
X171221315Y-77269285D01*
X171168511Y-77315040D01*
X171099353Y-77324984D01*
X171035797Y-77295959D01*
X171004618Y-77254651D01*
X170971634Y-77183917D01*
X170971632Y-77183913D01*
X170920525Y-77110926D01*
X170241500Y-77789951D01*
X170241500Y-77783739D01*
X170214241Y-77682006D01*
X170161580Y-77590794D01*
X170087106Y-77516320D01*
X169995894Y-77463659D01*
X169894161Y-77436400D01*
X169887948Y-77436400D01*
X170227907Y-77096439D01*
X170283496Y-77064345D01*
X170285333Y-77063852D01*
X170287996Y-77063139D01*
X170494234Y-76966968D01*
X170680639Y-76836447D01*
X170841547Y-76675539D01*
X170972068Y-76489134D01*
X171004618Y-76419329D01*
X171050790Y-76366891D01*
X171117984Y-76347739D01*
X171184865Y-76367955D01*
G37*
%TD.AperFunction*%
%TA.AperFunction,Conductor*%
G36*
X191526127Y-58206585D02*
G01*
X191536403Y-58213955D01*
X191539236Y-58216214D01*
X191539238Y-58216216D01*
X191691978Y-58312189D01*
X191738498Y-58328467D01*
X191862245Y-58371768D01*
X191862250Y-58371769D01*
X192041496Y-58391965D01*
X192041500Y-58391965D01*
X192041504Y-58391965D01*
X192220749Y-58371769D01*
X192220752Y-58371768D01*
X192220755Y-58371768D01*
X192391022Y-58312189D01*
X192469387Y-58262948D01*
X192536622Y-58243948D01*
X192603458Y-58264315D01*
X192648672Y-58317582D01*
X192657911Y-58386839D01*
X192628240Y-58450095D01*
X192623040Y-58455623D01*
X183772786Y-67305878D01*
X183660981Y-67417682D01*
X183660979Y-67417684D01*
X183640367Y-67453386D01*
X183631655Y-67468477D01*
X183581923Y-67554615D01*
X183540999Y-67707343D01*
X183540999Y-67707345D01*
X183540999Y-67875446D01*
X183541000Y-67875459D01*
X183541000Y-68253987D01*
X183521315Y-68321026D01*
X183513950Y-68331296D01*
X183511686Y-68334134D01*
X183415711Y-68486876D01*
X183356131Y-68657145D01*
X183356130Y-68657150D01*
X183335935Y-68836396D01*
X183335935Y-68836403D01*
X183356130Y-69015649D01*
X183356131Y-69015654D01*
X183415711Y-69185923D01*
X183511685Y-69338663D01*
X183513945Y-69341497D01*
X183514834Y-69343675D01*
X183515389Y-69344558D01*
X183515234Y-69344655D01*
X183540355Y-69406183D01*
X183541000Y-69418812D01*
X183541000Y-71636302D01*
X183521315Y-71703341D01*
X183504681Y-71723983D01*
X183420602Y-71808062D01*
X183359279Y-71841547D01*
X183289587Y-71836563D01*
X183249370Y-71810716D01*
X183249205Y-71810925D01*
X183247171Y-71809303D01*
X183245240Y-71808062D01*
X183243762Y-71806584D01*
X183091023Y-71710611D01*
X182920754Y-71651031D01*
X182920749Y-71651030D01*
X182741504Y-71630835D01*
X182741496Y-71630835D01*
X182562250Y-71651030D01*
X182562245Y-71651031D01*
X182391976Y-71710611D01*
X182239237Y-71806584D01*
X182111684Y-71934137D01*
X182015710Y-72086878D01*
X181956130Y-72257150D01*
X181946337Y-72344068D01*
X181919270Y-72408482D01*
X181910798Y-72417865D01*
X181079084Y-73249581D01*
X181017761Y-73283066D01*
X180991403Y-73285900D01*
X178865119Y-73285900D01*
X178798080Y-73266215D01*
X178752325Y-73213411D01*
X178742381Y-73144253D01*
X178745344Y-73129807D01*
X178776639Y-73013009D01*
X178776641Y-73012999D01*
X178796466Y-72786402D01*
X178796466Y-72786397D01*
X178776641Y-72559800D01*
X178776639Y-72559789D01*
X178717769Y-72340082D01*
X178717764Y-72340068D01*
X178621636Y-72133921D01*
X178621632Y-72133913D01*
X178570525Y-72060926D01*
X177891500Y-72739951D01*
X177891500Y-72733739D01*
X177864241Y-72632006D01*
X177811580Y-72540794D01*
X177737106Y-72466320D01*
X177645894Y-72413659D01*
X177544161Y-72386400D01*
X177537948Y-72386400D01*
X177877907Y-72046439D01*
X177933496Y-72014345D01*
X177935333Y-72013852D01*
X177937996Y-72013139D01*
X178144234Y-71916968D01*
X178330639Y-71786447D01*
X178491547Y-71625539D01*
X178622068Y-71439134D01*
X178718239Y-71232896D01*
X178777135Y-71013092D01*
X178796968Y-70786400D01*
X178777135Y-70559708D01*
X178751347Y-70463466D01*
X178753010Y-70393617D01*
X178783439Y-70343694D01*
X183616860Y-65510273D01*
X183678181Y-65476790D01*
X183745493Y-65480914D01*
X183786655Y-65495318D01*
X183862240Y-65521767D01*
X183862250Y-65521769D01*
X184041496Y-65541965D01*
X184041500Y-65541965D01*
X184041504Y-65541965D01*
X184220749Y-65521769D01*
X184220752Y-65521768D01*
X184220755Y-65521768D01*
X184391022Y-65462189D01*
X184543762Y-65366216D01*
X184671316Y-65238662D01*
X184767289Y-65085922D01*
X184826868Y-64915655D01*
X184828516Y-64901030D01*
X184847065Y-64736403D01*
X184847065Y-64736396D01*
X184826869Y-64557150D01*
X184826868Y-64557145D01*
X184806697Y-64499500D01*
X184767289Y-64386878D01*
X184767288Y-64386877D01*
X184767287Y-64386873D01*
X184674979Y-64239967D01*
X184655978Y-64172731D01*
X184676345Y-64105896D01*
X184692286Y-64086319D01*
X190555387Y-58223219D01*
X190616710Y-58189734D01*
X190643068Y-58186900D01*
X191459088Y-58186900D01*
X191526127Y-58206585D01*
G37*
%TD.AperFunction*%
%TA.AperFunction,Conductor*%
G36*
X190118119Y-71192481D02*
G01*
X190184998Y-71308320D01*
X190279580Y-71402902D01*
X190395419Y-71469781D01*
X190455557Y-71485895D01*
X189800540Y-72140912D01*
X189800540Y-72140914D01*
X189833233Y-72166360D01*
X189832289Y-72167572D01*
X189873139Y-72215443D01*
X189882560Y-72284674D01*
X189853056Y-72348009D01*
X189832681Y-72365663D01*
X189832959Y-72366020D01*
X189647194Y-72510606D01*
X189647189Y-72510611D01*
X189491228Y-72680029D01*
X189365282Y-72872805D01*
X189279556Y-73068243D01*
X189234600Y-73121729D01*
X189167864Y-73142419D01*
X189100536Y-73123744D01*
X189053993Y-73071634D01*
X189042000Y-73018433D01*
X189042000Y-71513121D01*
X189061685Y-71446082D01*
X189114489Y-71400327D01*
X189183647Y-71390383D01*
X189247203Y-71419408D01*
X189279556Y-71463311D01*
X189365723Y-71659752D01*
X189448260Y-71786085D01*
X190102004Y-71132341D01*
X190118119Y-71192481D01*
G37*
%TD.AperFunction*%
%TA.AperFunction,Conductor*%
G36*
X192176796Y-70823009D02*
G01*
X192191292Y-70835427D01*
X193180084Y-71824219D01*
X193213569Y-71885542D01*
X193208585Y-71955234D01*
X193166713Y-72011167D01*
X193101249Y-72035584D01*
X193092403Y-72035900D01*
X192513629Y-72035900D01*
X192513623Y-72035901D01*
X192454016Y-72042308D01*
X192319171Y-72092602D01*
X192319164Y-72092606D01*
X192203955Y-72178852D01*
X192203952Y-72178855D01*
X192117706Y-72294064D01*
X192117702Y-72294071D01*
X192067408Y-72428917D01*
X192061001Y-72488516D01*
X192061000Y-72488535D01*
X192061000Y-72836051D01*
X192041315Y-72903090D01*
X191988511Y-72948845D01*
X191919353Y-72958789D01*
X191855797Y-72929764D01*
X191823444Y-72885860D01*
X191817718Y-72872807D01*
X191691771Y-72680029D01*
X191563596Y-72540794D01*
X191535808Y-72510608D01*
X191416651Y-72417865D01*
X191350041Y-72366020D01*
X191350928Y-72364880D01*
X191309863Y-72316766D01*
X191300438Y-72247535D01*
X191329937Y-72184198D01*
X191350071Y-72166752D01*
X191349766Y-72166360D01*
X191382458Y-72140913D01*
X191382459Y-72140911D01*
X190727442Y-71485894D01*
X190787581Y-71469781D01*
X190903420Y-71402902D01*
X190998002Y-71308320D01*
X191064881Y-71192481D01*
X191080995Y-71132342D01*
X191734738Y-71786085D01*
X191817272Y-71659759D01*
X191817277Y-71659751D01*
X191909742Y-71448953D01*
X191966250Y-71225808D01*
X191966252Y-71225796D01*
X191985260Y-70996405D01*
X191985260Y-70996395D01*
X191980035Y-70933349D01*
X191994115Y-70864913D01*
X192042960Y-70814953D01*
X192111061Y-70799332D01*
X192176796Y-70823009D01*
G37*
%TD.AperFunction*%
%TA.AperFunction,Conductor*%
G36*
X189164864Y-63714783D02*
G01*
X189220797Y-63756655D01*
X189235086Y-63781154D01*
X189265283Y-63849996D01*
X189391228Y-64042770D01*
X189391231Y-64042773D01*
X189547192Y-64212192D01*
X189636341Y-64281579D01*
X189732959Y-64356780D01*
X189731976Y-64358041D01*
X189772683Y-64405749D01*
X189782100Y-64474981D01*
X189752592Y-64538314D01*
X189732636Y-64555605D01*
X189732959Y-64556020D01*
X189547194Y-64700606D01*
X189547189Y-64700611D01*
X189391228Y-64870029D01*
X189265282Y-65062805D01*
X189172782Y-65273685D01*
X189116253Y-65496915D01*
X189097238Y-65726394D01*
X189097238Y-65726405D01*
X189116253Y-65955884D01*
X189172782Y-66179114D01*
X189265282Y-66389994D01*
X189391228Y-66582770D01*
X189398926Y-66591132D01*
X189547192Y-66752192D01*
X189619858Y-66808750D01*
X189732959Y-66896780D01*
X189731976Y-66898041D01*
X189772683Y-66945749D01*
X189782100Y-67014981D01*
X189752592Y-67078314D01*
X189732636Y-67095605D01*
X189732959Y-67096020D01*
X189547194Y-67240606D01*
X189547189Y-67240611D01*
X189391228Y-67410029D01*
X189265282Y-67602805D01*
X189172782Y-67813685D01*
X189116253Y-68036915D01*
X189097238Y-68266394D01*
X189097238Y-68266405D01*
X189116253Y-68495884D01*
X189172782Y-68719114D01*
X189265282Y-68929994D01*
X189391228Y-69122770D01*
X189400195Y-69132511D01*
X189547192Y-69292192D01*
X189728911Y-69433629D01*
X189900617Y-69526552D01*
X189931433Y-69543229D01*
X189934931Y-69544763D01*
X189988420Y-69589716D01*
X190009114Y-69656450D01*
X189990443Y-69723779D01*
X189944147Y-69767376D01*
X189829183Y-69829592D01*
X189800540Y-69851885D01*
X189800540Y-69851887D01*
X190455557Y-70506904D01*
X190395419Y-70523019D01*
X190279580Y-70589898D01*
X190184998Y-70684480D01*
X190118119Y-70800319D01*
X190102004Y-70860458D01*
X189448259Y-70206713D01*
X189365724Y-70333044D01*
X189273257Y-70543846D01*
X189216749Y-70766991D01*
X189216747Y-70767003D01*
X189197953Y-70993815D01*
X189172800Y-71059000D01*
X189116398Y-71100238D01*
X189046654Y-71104436D01*
X188985713Y-71070262D01*
X188966989Y-71045574D01*
X188922020Y-70967684D01*
X188922016Y-70967680D01*
X188917074Y-70961239D01*
X188918137Y-70960423D01*
X188888715Y-70906541D01*
X188886663Y-70894084D01*
X188876868Y-70807145D01*
X188817289Y-70636878D01*
X188787769Y-70589898D01*
X188758833Y-70543846D01*
X188721316Y-70484138D01*
X188593762Y-70356584D01*
X188559626Y-70335135D01*
X188441023Y-70260611D01*
X188270754Y-70201031D01*
X188270749Y-70201030D01*
X188091504Y-70180835D01*
X188091496Y-70180835D01*
X187912250Y-70201030D01*
X187912239Y-70201033D01*
X187856953Y-70220378D01*
X187787174Y-70223939D01*
X187726547Y-70189209D01*
X187694321Y-70127216D01*
X187692000Y-70103336D01*
X187692000Y-66468812D01*
X187711685Y-66401773D01*
X187719055Y-66391497D01*
X187721310Y-66388667D01*
X187721316Y-66388662D01*
X187817289Y-66235922D01*
X187876868Y-66065655D01*
X187889236Y-65955884D01*
X187897065Y-65886403D01*
X187897065Y-65886396D01*
X187876869Y-65707150D01*
X187876868Y-65707145D01*
X187838991Y-65598900D01*
X187817289Y-65536878D01*
X187807795Y-65521769D01*
X187721315Y-65384137D01*
X187644837Y-65307659D01*
X187611352Y-65246336D01*
X187616336Y-65176644D01*
X187644837Y-65132297D01*
X188338188Y-64438946D01*
X189033851Y-63743282D01*
X189095172Y-63709799D01*
X189164864Y-63714783D01*
G37*
%TD.AperFunction*%
%TD*%
M02*
