%TF.GenerationSoftware,KiCad,Pcbnew,8.0.6*%
%TF.CreationDate,2024-12-31T14:32:05-08:00*%
%TF.ProjectId,Avionics Power Regulation Board,4176696f-6e69-4637-9320-506f77657220,3*%
%TF.SameCoordinates,Original*%
%TF.FileFunction,Copper,L2,Bot*%
%TF.FilePolarity,Positive*%
%FSLAX46Y46*%
G04 Gerber Fmt 4.6, Leading zero omitted, Abs format (unit mm)*
G04 Created by KiCad (PCBNEW 8.0.6) date 2024-12-31 14:32:05*
%MOMM*%
%LPD*%
G01*
G04 APERTURE LIST*
%TA.AperFunction,ComponentPad*%
%ADD10C,1.600000*%
%TD*%
%TA.AperFunction,ComponentPad*%
%ADD11C,2.000000*%
%TD*%
%TA.AperFunction,ComponentPad*%
%ADD12R,2.200000X2.200000*%
%TD*%
%TA.AperFunction,ComponentPad*%
%ADD13O,2.200000X2.200000*%
%TD*%
%TA.AperFunction,ComponentPad*%
%ADD14C,1.200000*%
%TD*%
%TA.AperFunction,ComponentPad*%
%ADD15C,2.400000*%
%TD*%
%TA.AperFunction,WasherPad*%
%ADD16C,3.500000*%
%TD*%
%TA.AperFunction,ComponentPad*%
%ADD17C,1.778000*%
%TD*%
%TA.AperFunction,ComponentPad*%
%ADD18R,1.473200X1.473200*%
%TD*%
%TA.AperFunction,ComponentPad*%
%ADD19C,1.473200*%
%TD*%
%TA.AperFunction,ComponentPad*%
%ADD20R,3.200000X3.200000*%
%TD*%
%TA.AperFunction,ComponentPad*%
%ADD21O,3.200000X3.200000*%
%TD*%
%TA.AperFunction,ComponentPad*%
%ADD22R,1.700000X1.700000*%
%TD*%
%TA.AperFunction,ComponentPad*%
%ADD23O,1.700000X1.700000*%
%TD*%
%TA.AperFunction,ViaPad*%
%ADD24C,0.600000*%
%TD*%
%TA.AperFunction,Conductor*%
%ADD25C,0.200000*%
%TD*%
%TA.AperFunction,Conductor*%
%ADD26C,1.367030*%
%TD*%
G04 APERTURE END LIST*
D10*
%TO.P,CC3,1*%
%TO.N,/Battery Monitor System/VC2*%
X115731500Y-46821400D03*
%TO.P,CC3,2*%
%TO.N,/Battery Monitor System/VC1*%
X115731500Y-44821400D03*
%TD*%
D11*
%TO.P,L1,1*%
%TO.N,Net-(D1-K)*%
X127393000Y-76481000D03*
%TO.P,L1,2*%
%TO.N,/VOUT*%
X123393000Y-76481000D03*
%TD*%
D12*
%TO.P,D3,1,K*%
%TO.N,Net-(D3-K)*%
X143395000Y-46151400D03*
D13*
%TO.P,D3,2,A*%
%TO.N,Net-(D3-A)*%
X143395000Y-35991400D03*
%TD*%
D14*
%TO.P,CSS1,1*%
%TO.N,Net-(U4-SS)*%
X125581500Y-65971400D03*
%TO.P,CSS1,2*%
%TO.N,GNDREF*%
X125581500Y-64471400D03*
%TD*%
D10*
%TO.P,C1,1*%
%TO.N,/VIN*%
X120790000Y-82785000D03*
%TO.P,C1,2*%
%TO.N,GNDREF*%
X120790000Y-80785000D03*
%TD*%
D14*
%TO.P,C5,1*%
%TO.N,/Battery Monitor System/SRN*%
X132931500Y-49171400D03*
%TO.P,C5,2*%
%TO.N,GNDREF*%
X132931500Y-50671400D03*
%TD*%
D10*
%TO.P,CC1,1*%
%TO.N,/Battery Monitor System/VC5*%
X115831500Y-58371400D03*
%TO.P,CC1,2*%
%TO.N,/Battery Monitor System/VC3*%
X115831500Y-56371400D03*
%TD*%
D15*
%TO.P,BT1,1+*%
%TO.N,Net-(BT1-Pad1+)*%
X99235000Y-86535000D03*
%TO.P,BT1,1-*%
%TO.N,GNDREF*%
X26335000Y-86535000D03*
%TO.P,BT1,2+*%
%TO.N,Net-(BT1-Pad2+)*%
X99235000Y-67235000D03*
%TO.P,BT1,2-*%
%TO.N,Net-(BT1-Pad1+)*%
X26335000Y-67235000D03*
%TO.P,BT1,3+*%
%TO.N,Net-(BT1-Pad3+)*%
X99235000Y-47935000D03*
%TO.P,BT1,3-*%
%TO.N,Net-(BT1-Pad2+)*%
X26335000Y-47935000D03*
%TO.P,BT1,4+*%
%TO.N,/Battery Monitor System/BAT +*%
X99235000Y-28635000D03*
%TO.P,BT1,4-*%
%TO.N,Net-(BT1-Pad3+)*%
X26335000Y-28635000D03*
%TD*%
D10*
%TO.P,C8,1*%
%TO.N,GNDREF*%
X108131500Y-40271400D03*
%TO.P,C8,2*%
%TO.N,Net-(U2-BAT)*%
X108131500Y-38271400D03*
%TD*%
D16*
%TO.P,H2,*%
%TO.N,*%
X145401600Y-19635800D03*
%TD*%
D10*
%TO.P,C2,1*%
%TO.N,/VOUT*%
X132481500Y-72671400D03*
%TO.P,C2,2*%
%TO.N,GNDREF*%
X137481500Y-72671400D03*
%TD*%
D17*
%TO.P,Q1,1*%
%TO.N,Net-(Q1-Pad1)*%
X128781500Y-30701400D03*
%TO.P,Q1,2*%
%TO.N,/Battery Monitor System/DSG*%
X128781500Y-28161400D03*
%TO.P,Q1,3*%
%TO.N,Net-(Q1-Pad3)*%
X128781500Y-25621400D03*
%TD*%
%TO.P,Q2,1,D*%
%TO.N,Net-(D3-A)*%
X128790000Y-38635000D03*
%TO.P,Q2,2,G*%
%TO.N,GNDREF*%
X128790000Y-36095000D03*
%TO.P,Q2,3,S*%
%TO.N,/Battery Monitor System/CHG*%
X128790000Y-33555000D03*
%TD*%
D14*
%TO.P,Cout2,1*%
%TO.N,/VIN*%
X106781500Y-80321400D03*
%TO.P,Cout2,2*%
%TO.N,GNDREF*%
X108281500Y-80321400D03*
%TD*%
%TO.P,C3,1*%
%TO.N,GNDREF*%
X144031500Y-49171400D03*
%TO.P,C3,2*%
%TO.N,/Battery Monitor System/SRP*%
X144031500Y-50671400D03*
%TD*%
D18*
%TO.P,L2,1*%
%TO.N,/REGOUT*%
X114340000Y-73885000D03*
D19*
%TO.P,L2,2*%
%TO.N,Net-(D2-A)*%
X114340000Y-79676200D03*
%TD*%
D14*
%TO.P,Cout1,1*%
%TO.N,/VIN*%
X106581500Y-73971400D03*
%TO.P,Cout1,2*%
%TO.N,GNDREF*%
X108081500Y-73971400D03*
%TD*%
D11*
%TO.P,SW1,1,1*%
%TO.N,Net-(R5-Pad1)*%
X140131500Y-23521400D03*
X133631500Y-23521400D03*
%TO.P,SW1,2,2*%
%TO.N,/Battery Monitor System/VC1*%
X140131500Y-19021400D03*
X133631500Y-19021400D03*
%TD*%
D20*
%TO.P,D1,1,K*%
%TO.N,Net-(D1-K)*%
X143681500Y-71361400D03*
D21*
%TO.P,D1,2,A*%
%TO.N,GNDREF*%
X143681500Y-56121400D03*
%TD*%
D14*
%TO.P,CIN1,1*%
%TO.N,/REGOUT*%
X133431500Y-65921400D03*
%TO.P,CIN1,2*%
%TO.N,GNDREF*%
X133431500Y-64421400D03*
%TD*%
D10*
%TO.P,CC4,1*%
%TO.N,/Battery Monitor System/VC1*%
X115731500Y-41071400D03*
%TO.P,CC4,2*%
%TO.N,GNDREF*%
X115731500Y-39071400D03*
%TD*%
D22*
%TO.P,J1,1,Pin_1*%
%TO.N,GNDREF*%
X108491500Y-20871400D03*
D23*
%TO.P,J1,2,Pin_2*%
%TO.N,/VOUT*%
X111031500Y-20871400D03*
%TO.P,J1,3,Pin_3*%
%TO.N,/SDA*%
X113571500Y-20871400D03*
%TO.P,J1,4,Pin_4*%
%TO.N,/SCL*%
X116111500Y-20871400D03*
%TO.P,J1,5,Pin_5*%
%TO.N,/ALERT*%
X118651500Y-20871400D03*
%TD*%
D10*
%TO.P,Ccomp1,1*%
%TO.N,Net-(Ccomp1-Pad1)*%
X115831500Y-63471400D03*
%TO.P,Ccomp1,2*%
%TO.N,GNDREF*%
X120831500Y-63471400D03*
%TD*%
D17*
%TO.P,Q3,1*%
%TO.N,Net-(Q1-Pad1)*%
X128831500Y-46161400D03*
%TO.P,Q3,2*%
%TO.N,Net-(D3-K)*%
X128831500Y-43621400D03*
%TO.P,Q3,3*%
%TO.N,/Battery Monitor System/BAT -*%
X128831500Y-41081400D03*
%TD*%
D10*
%TO.P,CAP1,1*%
%TO.N,Net-(U2-CAP1)*%
X108531500Y-58871400D03*
%TO.P,CAP1,2*%
%TO.N,GNDREF*%
X108531500Y-60871400D03*
%TD*%
D14*
%TO.P,C7,1*%
%TO.N,GNDREF*%
X109231500Y-46221400D03*
%TO.P,C7,2*%
%TO.N,/REGOUT*%
X107731500Y-46221400D03*
%TD*%
D16*
%TO.P,H1,*%
%TO.N,*%
X145401600Y-95023000D03*
%TD*%
D10*
%TO.P,CC5,1*%
%TO.N,GNDREF*%
X115781500Y-35221400D03*
%TO.P,CC5,2*%
%TO.N,/Battery Monitor System/VC0*%
X115781500Y-33221400D03*
%TD*%
%TO.P,CC2,1*%
%TO.N,/Battery Monitor System/VC3*%
X115731500Y-52621400D03*
%TO.P,CC2,2*%
%TO.N,/Battery Monitor System/VC2*%
X115731500Y-50621400D03*
%TD*%
%TO.P,CBY1,1*%
%TO.N,/REGOUT*%
X120340000Y-69785000D03*
%TO.P,CBY1,2*%
%TO.N,GNDREF*%
X120340000Y-71785000D03*
%TD*%
%TO.P,C6,1*%
%TO.N,/Battery Monitor System/BAT +*%
X108481500Y-54171400D03*
%TO.P,C6,2*%
%TO.N,GNDREF*%
X108481500Y-52171400D03*
%TD*%
D14*
%TO.P,C4,1*%
%TO.N,/Battery Monitor System/SRP*%
X138481500Y-49171400D03*
%TO.P,C4,2*%
%TO.N,/Battery Monitor System/SRN*%
X138481500Y-50671400D03*
%TD*%
D24*
%TO.N,Net-(BT1-Pad1+)*%
X124281500Y-31321400D03*
X108381500Y-64471400D03*
%TO.N,GNDREF*%
X110381500Y-23221400D03*
X127281500Y-18471400D03*
X127774000Y-89943000D03*
X125381500Y-25271400D03*
X126333755Y-27324445D03*
%TO.N,Net-(BT1-Pad2+)*%
X126381500Y-33421400D03*
X126731500Y-36671400D03*
%TO.N,/VIN*%
X137680000Y-79529000D03*
%TO.N,/Battery Monitor System/SRP*%
X125381500Y-28321400D03*
%TO.N,/Battery Monitor System/SRN*%
X126157971Y-21647870D03*
X121686417Y-21785565D03*
X137081500Y-47421400D03*
X130131500Y-24371400D03*
%TO.N,/REGOUT*%
X113081500Y-69035000D03*
X106281500Y-28121400D03*
X113181500Y-58771400D03*
%TO.N,Net-(U2-CAP1)*%
X109881500Y-31971400D03*
%TO.N,/Battery Monitor System/VC5*%
X123831500Y-39471400D03*
%TO.N,/Battery Monitor System/VC3*%
X122481500Y-39721400D03*
%TO.N,/Battery Monitor System/VC2*%
X122381500Y-35471400D03*
%TO.N,/Battery Monitor System/VC1*%
X122431500Y-31271400D03*
%TO.N,/Battery Monitor System/VC0*%
X122331500Y-27171400D03*
%TO.N,/Battery Monitor System/CHG*%
X107431500Y-24271400D03*
X121031500Y-34871400D03*
%TO.N,Net-(U2-TS1)*%
X130331500Y-20021400D03*
X110205519Y-26956605D03*
%TO.N,/SCL*%
X109664744Y-26367057D03*
%TO.N,/SDA*%
X109581500Y-25571400D03*
%TD*%
D25*
%TO.N,Net-(BT1-Pad1+)*%
X123081500Y-32521400D02*
X124281500Y-31321400D01*
X108381500Y-64471400D02*
X109631500Y-63221400D01*
X109631500Y-63221400D02*
X109631500Y-60415765D01*
X109631500Y-60415765D02*
X123081500Y-46965765D01*
X123081500Y-46965765D02*
X123081500Y-32521400D01*
%TO.N,GNDREF*%
X108131500Y-40271400D02*
X108131500Y-45121400D01*
X108131500Y-45121400D02*
X109231500Y-46221400D01*
X109231500Y-46221400D02*
X108481500Y-46971400D01*
X108481500Y-46971400D02*
X108481500Y-52171400D01*
%TO.N,Net-(BT1-Pad2+)*%
X126731500Y-33771400D02*
X126731500Y-36671400D01*
X126381500Y-33421400D02*
X126731500Y-33771400D01*
D26*
%TO.N,/VIN*%
X124923929Y-79782441D02*
X121921370Y-82785000D01*
X131393985Y-78883885D02*
X124923929Y-78883885D01*
X116231500Y-76821400D02*
X116231500Y-78991870D01*
X121921370Y-82785000D02*
X120790000Y-82785000D01*
X124923929Y-78883885D02*
X124923929Y-79782441D01*
X107531500Y-76821400D02*
X116231500Y-76821400D01*
X106781500Y-77571400D02*
X107531500Y-76821400D01*
X132039100Y-79529000D02*
X131393985Y-78883885D01*
X120024630Y-82785000D02*
X120790000Y-82785000D01*
X106781500Y-80321400D02*
X106781500Y-77571400D01*
X137680000Y-79529000D02*
X132039100Y-79529000D01*
X116231500Y-78991870D02*
X120024630Y-82785000D01*
D25*
%TO.N,/Battery Monitor System/SRP*%
X129253000Y-39821400D02*
X127944400Y-39821400D01*
X133781500Y-49171400D02*
X133781500Y-48819318D01*
X125381500Y-37258500D02*
X125381500Y-28321400D01*
X133283582Y-48321400D02*
X132681500Y-48321400D01*
X127944400Y-39821400D02*
X125381500Y-37258500D01*
X130020500Y-45660400D02*
X130020500Y-40588900D01*
X130020500Y-40588900D02*
X129253000Y-39821400D01*
X138481500Y-49171400D02*
X133781500Y-49171400D01*
X133781500Y-48819318D02*
X133283582Y-48321400D01*
X132681500Y-48321400D02*
X130020500Y-45660400D01*
%TO.N,/Battery Monitor System/SRN*%
X132731500Y-34671400D02*
X133281500Y-34671400D01*
X121686417Y-21785565D02*
X126020276Y-21785565D01*
X130131500Y-32071400D02*
X132731500Y-34671400D01*
X133281500Y-34671400D02*
X133351500Y-34741400D01*
X133331500Y-44721400D02*
X136031500Y-47421400D01*
X126020276Y-21785565D02*
X126157971Y-21647870D01*
X136031500Y-47421400D02*
X137081500Y-47421400D01*
X130131500Y-24371400D02*
X130131500Y-32071400D01*
X133351500Y-34741400D02*
X133351500Y-41330589D01*
X133331500Y-41350589D02*
X133331500Y-44721400D01*
X133351500Y-41330589D02*
X133331500Y-41350589D01*
%TO.N,/REGOUT*%
X114340000Y-71829900D02*
X113081500Y-70571400D01*
X106281500Y-44771400D02*
X106281500Y-28121400D01*
X113081500Y-58871400D02*
X113081500Y-70571400D01*
X113181500Y-58771400D02*
X113081500Y-58871400D01*
X114340000Y-73885000D02*
X114340000Y-71829900D01*
X107731500Y-46221400D02*
X106281500Y-44771400D01*
%TO.N,Net-(U2-CAP1)*%
X110131500Y-32221400D02*
X109881500Y-31971400D01*
X108531500Y-58871400D02*
X110131500Y-57271400D01*
X110131500Y-57271400D02*
X110131500Y-32221400D01*
%TO.N,/Battery Monitor System/VC5*%
X123831500Y-39471400D02*
X123831500Y-50371400D01*
X123831500Y-50371400D02*
X115831500Y-58371400D01*
%TO.N,/Battery Monitor System/VC3*%
X122481500Y-45871400D02*
X122481500Y-39721400D01*
X115731500Y-52621400D02*
X122481500Y-45871400D01*
%TO.N,/Battery Monitor System/VC2*%
X115731500Y-46821400D02*
X121881500Y-40671400D01*
X121881500Y-40671400D02*
X121881500Y-35971400D01*
X121881500Y-35971400D02*
X122381500Y-35471400D01*
%TO.N,/Battery Monitor System/VC1*%
X115731500Y-44821400D02*
X115731500Y-41071400D01*
X133631500Y-19021400D02*
X122431500Y-30221400D01*
X122431500Y-30221400D02*
X122431500Y-31271400D01*
X122431500Y-31271400D02*
X122431500Y-34371400D01*
X122431500Y-34371400D02*
X115731500Y-41071400D01*
%TO.N,/Battery Monitor System/VC0*%
X121831500Y-27171400D02*
X122331500Y-27171400D01*
X115781500Y-33221400D02*
X121831500Y-27171400D01*
%TO.N,/Battery Monitor System/CHG*%
X107431500Y-24271400D02*
X107431500Y-28427035D01*
X107431500Y-28427035D02*
X115325865Y-36321400D01*
X119581500Y-36321400D02*
X121031500Y-34871400D01*
X115325865Y-36321400D02*
X119581500Y-36321400D01*
%TO.N,Net-(U2-TS1)*%
X130331500Y-20021400D02*
X128632971Y-20021400D01*
X110590724Y-26571400D02*
X110205519Y-26956605D01*
X128632971Y-20021400D02*
X122082971Y-26571400D01*
X122082971Y-26571400D02*
X110590724Y-26571400D01*
%TO.N,/SCL*%
X110832599Y-26150301D02*
X109881500Y-26150301D01*
X109881500Y-26150301D02*
X109664744Y-26367057D01*
X116111500Y-20871400D02*
X110832599Y-26150301D01*
%TO.N,/SDA*%
X109581500Y-25571400D02*
X113591500Y-21561400D01*
%TD*%
%TA.AperFunction,Conductor*%
%TO.N,GNDREF*%
G36*
X132756692Y-17591585D02*
G01*
X132802447Y-17644389D01*
X132812391Y-17713547D01*
X132783366Y-17777103D01*
X132765821Y-17793748D01*
X132638292Y-17893007D01*
X132611757Y-17913661D01*
X132443333Y-18096617D01*
X132307326Y-18304793D01*
X132207436Y-18532518D01*
X132146392Y-18773575D01*
X132146390Y-18773587D01*
X132125857Y-19021394D01*
X132125857Y-19021405D01*
X132146390Y-19269212D01*
X132146392Y-19269224D01*
X132207507Y-19510560D01*
X132204882Y-19580380D01*
X132174982Y-19628681D01*
X131200723Y-20602940D01*
X131139400Y-20636425D01*
X131069708Y-20631441D01*
X131013775Y-20589569D01*
X130989358Y-20524105D01*
X131004210Y-20455832D01*
X131008040Y-20449299D01*
X131057289Y-20370922D01*
X131116868Y-20200655D01*
X131117666Y-20193571D01*
X131137065Y-20021403D01*
X131137065Y-20021396D01*
X131116869Y-19842150D01*
X131116868Y-19842145D01*
X131094880Y-19779306D01*
X131057289Y-19671878D01*
X131030146Y-19628681D01*
X130998330Y-19578045D01*
X130961316Y-19519138D01*
X130833762Y-19391584D01*
X130681023Y-19295611D01*
X130510754Y-19236031D01*
X130510749Y-19236030D01*
X130331504Y-19215835D01*
X130331496Y-19215835D01*
X130152250Y-19236030D01*
X130152245Y-19236031D01*
X129981976Y-19295611D01*
X129829236Y-19391585D01*
X129826403Y-19393845D01*
X129824224Y-19394734D01*
X129823342Y-19395289D01*
X129823244Y-19395134D01*
X129761717Y-19420255D01*
X129749088Y-19420900D01*
X128719640Y-19420900D01*
X128719624Y-19420899D01*
X128712028Y-19420899D01*
X128553914Y-19420899D01*
X128446558Y-19449665D01*
X128401181Y-19461824D01*
X128401180Y-19461825D01*
X128366037Y-19482116D01*
X128366035Y-19482117D01*
X128264261Y-19540875D01*
X128264253Y-19540881D01*
X128152449Y-19652686D01*
X126808056Y-20997078D01*
X126746733Y-21030563D01*
X126677041Y-21025579D01*
X126654403Y-21014391D01*
X126645433Y-21008755D01*
X126614353Y-20989225D01*
X126507494Y-20922081D01*
X126337225Y-20862501D01*
X126337220Y-20862500D01*
X126157975Y-20842305D01*
X126157967Y-20842305D01*
X125978721Y-20862500D01*
X125978716Y-20862501D01*
X125808447Y-20922081D01*
X125655708Y-21018054D01*
X125525017Y-21148746D01*
X125463694Y-21182231D01*
X125437336Y-21185065D01*
X122268829Y-21185065D01*
X122201790Y-21165380D01*
X122191514Y-21158010D01*
X122188680Y-21155750D01*
X122188679Y-21155749D01*
X122070478Y-21081478D01*
X122035940Y-21059776D01*
X121865671Y-21000196D01*
X121865666Y-21000195D01*
X121686421Y-20980000D01*
X121686413Y-20980000D01*
X121507167Y-21000195D01*
X121507162Y-21000196D01*
X121336893Y-21059776D01*
X121184154Y-21155749D01*
X121056601Y-21283302D01*
X120960628Y-21436041D01*
X120901048Y-21606310D01*
X120901047Y-21606315D01*
X120880852Y-21785561D01*
X120880852Y-21785568D01*
X120901047Y-21964814D01*
X120901048Y-21964819D01*
X120960628Y-22135088D01*
X121006153Y-22207540D01*
X121056601Y-22287827D01*
X121184155Y-22415381D01*
X121336895Y-22511354D01*
X121507162Y-22570933D01*
X121507167Y-22570934D01*
X121686413Y-22591130D01*
X121686417Y-22591130D01*
X121686421Y-22591130D01*
X121865666Y-22570934D01*
X121865669Y-22570933D01*
X121865672Y-22570933D01*
X122035939Y-22511354D01*
X122188679Y-22415381D01*
X122188684Y-22415375D01*
X122191514Y-22413120D01*
X122193692Y-22412230D01*
X122194575Y-22411676D01*
X122194672Y-22411830D01*
X122256200Y-22386710D01*
X122268829Y-22386065D01*
X125119709Y-22386065D01*
X125186748Y-22405750D01*
X125232503Y-22458554D01*
X125242447Y-22527712D01*
X125213422Y-22591268D01*
X125207390Y-22597746D01*
X121870555Y-25934581D01*
X121809232Y-25968066D01*
X121782874Y-25970900D01*
X112160597Y-25970900D01*
X112093558Y-25951215D01*
X112047803Y-25898411D01*
X112037859Y-25829253D01*
X112066884Y-25765697D01*
X112072916Y-25759219D01*
X112958473Y-24873662D01*
X115627970Y-22204163D01*
X115689291Y-22170680D01*
X115747738Y-22172070D01*
X115876092Y-22206463D01*
X116046819Y-22221400D01*
X116111499Y-22227059D01*
X116111500Y-22227059D01*
X116111501Y-22227059D01*
X116176181Y-22221400D01*
X116346908Y-22206463D01*
X116575163Y-22145303D01*
X116789330Y-22045435D01*
X116982901Y-21909895D01*
X117149995Y-21742801D01*
X117279925Y-21557242D01*
X117334502Y-21513617D01*
X117404000Y-21506423D01*
X117466355Y-21537946D01*
X117483075Y-21557242D01*
X117613000Y-21742795D01*
X117613005Y-21742801D01*
X117780099Y-21909895D01*
X117858539Y-21964819D01*
X117973665Y-22045432D01*
X117973667Y-22045433D01*
X117973670Y-22045435D01*
X118187837Y-22145303D01*
X118416092Y-22206463D01*
X118586819Y-22221400D01*
X118651499Y-22227059D01*
X118651500Y-22227059D01*
X118651501Y-22227059D01*
X118716181Y-22221400D01*
X118886908Y-22206463D01*
X119115163Y-22145303D01*
X119329330Y-22045435D01*
X119522901Y-21909895D01*
X119689995Y-21742801D01*
X119825535Y-21549230D01*
X119925403Y-21335063D01*
X119986563Y-21106808D01*
X120007159Y-20871400D01*
X119986563Y-20635992D01*
X119934235Y-20440698D01*
X119925405Y-20407744D01*
X119925404Y-20407743D01*
X119925403Y-20407737D01*
X119825535Y-20193571D01*
X119819925Y-20185558D01*
X119689994Y-19999997D01*
X119522902Y-19832906D01*
X119522895Y-19832901D01*
X119329334Y-19697367D01*
X119329330Y-19697365D01*
X119258227Y-19664209D01*
X119115163Y-19597497D01*
X119115159Y-19597496D01*
X119115155Y-19597494D01*
X118886913Y-19536338D01*
X118886903Y-19536336D01*
X118651501Y-19515741D01*
X118651499Y-19515741D01*
X118416096Y-19536336D01*
X118416086Y-19536338D01*
X118187844Y-19597494D01*
X118187835Y-19597498D01*
X117973671Y-19697364D01*
X117973669Y-19697365D01*
X117780097Y-19832905D01*
X117613005Y-19999997D01*
X117483075Y-20185558D01*
X117428498Y-20229183D01*
X117359000Y-20236377D01*
X117296645Y-20204854D01*
X117279925Y-20185558D01*
X117149994Y-19999997D01*
X116982902Y-19832906D01*
X116982895Y-19832901D01*
X116789334Y-19697367D01*
X116789330Y-19697365D01*
X116718227Y-19664209D01*
X116575163Y-19597497D01*
X116575159Y-19597496D01*
X116575155Y-19597494D01*
X116346913Y-19536338D01*
X116346903Y-19536336D01*
X116111501Y-19515741D01*
X116111499Y-19515741D01*
X115876096Y-19536336D01*
X115876086Y-19536338D01*
X115647844Y-19597494D01*
X115647835Y-19597498D01*
X115433671Y-19697364D01*
X115433669Y-19697365D01*
X115240097Y-19832905D01*
X115073005Y-19999997D01*
X114943075Y-20185558D01*
X114888498Y-20229183D01*
X114819000Y-20236377D01*
X114756645Y-20204854D01*
X114739925Y-20185558D01*
X114609994Y-19999997D01*
X114442902Y-19832906D01*
X114442895Y-19832901D01*
X114249334Y-19697367D01*
X114249330Y-19697365D01*
X114178227Y-19664209D01*
X114035163Y-19597497D01*
X114035159Y-19597496D01*
X114035155Y-19597494D01*
X113806913Y-19536338D01*
X113806903Y-19536336D01*
X113571501Y-19515741D01*
X113571499Y-19515741D01*
X113336096Y-19536336D01*
X113336086Y-19536338D01*
X113107844Y-19597494D01*
X113107835Y-19597498D01*
X112893671Y-19697364D01*
X112893669Y-19697365D01*
X112700097Y-19832905D01*
X112533005Y-19999997D01*
X112403075Y-20185558D01*
X112348498Y-20229183D01*
X112279000Y-20236377D01*
X112216645Y-20204854D01*
X112199925Y-20185558D01*
X112069994Y-19999997D01*
X111902902Y-19832906D01*
X111902895Y-19832901D01*
X111709334Y-19697367D01*
X111709330Y-19697365D01*
X111638227Y-19664209D01*
X111495163Y-19597497D01*
X111495159Y-19597496D01*
X111495155Y-19597494D01*
X111266913Y-19536338D01*
X111266903Y-19536336D01*
X111031501Y-19515741D01*
X111031499Y-19515741D01*
X110796096Y-19536336D01*
X110796086Y-19536338D01*
X110567844Y-19597494D01*
X110567835Y-19597498D01*
X110353671Y-19697364D01*
X110353669Y-19697365D01*
X110160100Y-19832903D01*
X110037784Y-19955219D01*
X109976461Y-19988703D01*
X109906769Y-19983719D01*
X109850836Y-19941847D01*
X109833921Y-19910870D01*
X109784854Y-19779313D01*
X109784850Y-19779306D01*
X109698690Y-19664212D01*
X109698687Y-19664209D01*
X109583593Y-19578049D01*
X109583586Y-19578045D01*
X109448879Y-19527803D01*
X109448872Y-19527801D01*
X109389344Y-19521400D01*
X108741500Y-19521400D01*
X108741500Y-20438388D01*
X108684493Y-20405475D01*
X108557326Y-20371400D01*
X108425674Y-20371400D01*
X108298507Y-20405475D01*
X108241500Y-20438388D01*
X108241500Y-19521400D01*
X107593655Y-19521400D01*
X107534127Y-19527801D01*
X107534120Y-19527803D01*
X107399413Y-19578045D01*
X107399406Y-19578049D01*
X107284312Y-19664209D01*
X107284309Y-19664212D01*
X107198149Y-19779306D01*
X107198145Y-19779313D01*
X107147903Y-19914020D01*
X107147901Y-19914027D01*
X107141500Y-19973555D01*
X107141500Y-20621400D01*
X108058488Y-20621400D01*
X108025575Y-20678407D01*
X107991500Y-20805574D01*
X107991500Y-20937226D01*
X108025575Y-21064393D01*
X108058488Y-21121400D01*
X107141500Y-21121400D01*
X107141500Y-21769244D01*
X107147901Y-21828772D01*
X107147903Y-21828779D01*
X107198145Y-21963486D01*
X107198149Y-21963493D01*
X107284309Y-22078587D01*
X107284312Y-22078590D01*
X107399406Y-22164750D01*
X107399413Y-22164754D01*
X107534120Y-22214996D01*
X107534127Y-22214998D01*
X107593655Y-22221399D01*
X107593672Y-22221400D01*
X108241500Y-22221400D01*
X108241500Y-21304412D01*
X108298507Y-21337325D01*
X108425674Y-21371400D01*
X108557326Y-21371400D01*
X108684493Y-21337325D01*
X108741500Y-21304412D01*
X108741500Y-22221400D01*
X109389328Y-22221400D01*
X109389344Y-22221399D01*
X109448872Y-22214998D01*
X109448879Y-22214996D01*
X109583586Y-22164754D01*
X109583593Y-22164750D01*
X109698687Y-22078590D01*
X109698690Y-22078587D01*
X109784850Y-21963493D01*
X109784854Y-21963486D01*
X109833922Y-21831929D01*
X109875793Y-21775995D01*
X109941257Y-21751578D01*
X110009530Y-21766430D01*
X110037785Y-21787581D01*
X110160099Y-21909895D01*
X110238539Y-21964819D01*
X110353665Y-22045432D01*
X110353667Y-22045433D01*
X110353670Y-22045435D01*
X110567837Y-22145303D01*
X110796092Y-22206463D01*
X110966819Y-22221400D01*
X111031499Y-22227059D01*
X111031500Y-22227059D01*
X111031501Y-22227059D01*
X111096181Y-22221400D01*
X111266908Y-22206463D01*
X111495163Y-22145303D01*
X111709330Y-22045435D01*
X111902901Y-21909895D01*
X112069995Y-21742801D01*
X112199925Y-21557242D01*
X112254502Y-21513617D01*
X112324000Y-21506423D01*
X112386355Y-21537946D01*
X112403075Y-21557242D01*
X112484798Y-21673955D01*
X112507125Y-21740161D01*
X112490115Y-21807928D01*
X112470904Y-21832759D01*
X109562965Y-24740698D01*
X109501642Y-24774183D01*
X109489168Y-24776237D01*
X109402250Y-24786030D01*
X109231978Y-24845610D01*
X109079237Y-24941584D01*
X108951684Y-25069137D01*
X108855711Y-25221876D01*
X108796131Y-25392145D01*
X108796130Y-25392150D01*
X108775935Y-25571396D01*
X108775935Y-25571403D01*
X108796130Y-25750649D01*
X108796131Y-25750654D01*
X108855711Y-25920923D01*
X108899122Y-25990011D01*
X108918122Y-26057248D01*
X108911170Y-26096937D01*
X108879375Y-26187804D01*
X108859179Y-26367053D01*
X108859179Y-26367060D01*
X108879374Y-26546306D01*
X108879375Y-26546311D01*
X108938955Y-26716580D01*
X109005119Y-26821878D01*
X109034928Y-26869319D01*
X109162482Y-26996873D01*
X109315222Y-27092846D01*
X109361274Y-27108960D01*
X109418050Y-27149682D01*
X109437361Y-27185047D01*
X109479728Y-27306124D01*
X109507705Y-27350649D01*
X109575703Y-27458867D01*
X109703257Y-27586421D01*
X109724400Y-27599706D01*
X109843255Y-27674388D01*
X109855997Y-27682394D01*
X110026264Y-27741973D01*
X110026269Y-27741974D01*
X110205515Y-27762170D01*
X110205519Y-27762170D01*
X110205523Y-27762170D01*
X110384768Y-27741974D01*
X110384771Y-27741973D01*
X110384774Y-27741973D01*
X110555041Y-27682394D01*
X110707781Y-27586421D01*
X110835335Y-27458867D01*
X110931308Y-27306127D01*
X110949217Y-27254944D01*
X110989939Y-27198169D01*
X111054892Y-27172422D01*
X111066259Y-27171900D01*
X120682403Y-27171900D01*
X120749442Y-27191585D01*
X120795197Y-27244389D01*
X120805141Y-27313547D01*
X120776116Y-27377103D01*
X120770084Y-27383581D01*
X116224205Y-31929458D01*
X116162882Y-31962943D01*
X116104431Y-31961552D01*
X116008197Y-31935766D01*
X116008193Y-31935765D01*
X116008192Y-31935765D01*
X116008191Y-31935764D01*
X116008186Y-31935764D01*
X115781502Y-31915932D01*
X115781498Y-31915932D01*
X115554813Y-31935764D01*
X115554802Y-31935766D01*
X115335011Y-31994658D01*
X115335002Y-31994661D01*
X115128767Y-32090831D01*
X115128765Y-32090832D01*
X114942358Y-32221354D01*
X114781454Y-32382258D01*
X114650932Y-32568665D01*
X114650931Y-32568667D01*
X114554761Y-32774902D01*
X114554758Y-32774911D01*
X114495866Y-32994702D01*
X114495864Y-32994713D01*
X114476032Y-33221398D01*
X114476032Y-33221401D01*
X114495864Y-33448086D01*
X114495866Y-33448097D01*
X114554758Y-33667888D01*
X114554761Y-33667897D01*
X114650931Y-33874132D01*
X114650932Y-33874134D01*
X114781454Y-34060541D01*
X114942358Y-34221445D01*
X114989193Y-34254239D01*
X115128766Y-34351968D01*
X115335004Y-34448139D01*
X115335006Y-34448139D01*
X115335013Y-34448142D01*
X115339503Y-34449345D01*
X115395092Y-34481439D01*
X115735053Y-34821400D01*
X115728839Y-34821400D01*
X115627106Y-34848659D01*
X115535894Y-34901320D01*
X115461420Y-34975794D01*
X115408759Y-35067006D01*
X115381500Y-35168739D01*
X115381500Y-35174952D01*
X114702474Y-34495926D01*
X114702473Y-34495926D01*
X114651366Y-34568915D01*
X114648658Y-34573607D01*
X114646518Y-34572371D01*
X114607105Y-34616977D01*
X114539878Y-34636011D01*
X114473032Y-34615678D01*
X114453398Y-34599698D01*
X108068319Y-28214619D01*
X108034834Y-28153296D01*
X108032000Y-28126938D01*
X108032000Y-24853812D01*
X108051685Y-24786773D01*
X108059055Y-24776497D01*
X108061310Y-24773667D01*
X108061316Y-24773662D01*
X108157289Y-24620922D01*
X108216868Y-24450655D01*
X108217372Y-24446182D01*
X108237065Y-24271403D01*
X108237065Y-24271396D01*
X108216869Y-24092150D01*
X108216868Y-24092145D01*
X108157289Y-23921878D01*
X108061316Y-23769138D01*
X107933762Y-23641584D01*
X107845352Y-23586032D01*
X107781023Y-23545611D01*
X107610754Y-23486031D01*
X107610749Y-23486030D01*
X107431504Y-23465835D01*
X107431496Y-23465835D01*
X107252250Y-23486030D01*
X107252245Y-23486031D01*
X107081976Y-23545611D01*
X106929237Y-23641584D01*
X106801684Y-23769137D01*
X106705711Y-23921876D01*
X106646131Y-24092145D01*
X106646130Y-24092150D01*
X106625935Y-24271396D01*
X106625935Y-24271403D01*
X106646130Y-24450649D01*
X106646131Y-24450654D01*
X106705711Y-24620923D01*
X106801685Y-24773663D01*
X106803945Y-24776497D01*
X106804834Y-24778675D01*
X106805389Y-24779558D01*
X106805234Y-24779655D01*
X106830355Y-24841183D01*
X106831000Y-24853812D01*
X106831000Y-27296903D01*
X106811315Y-27363942D01*
X106758511Y-27409697D01*
X106689353Y-27419641D01*
X106641032Y-27401899D01*
X106631026Y-27395612D01*
X106460754Y-27336031D01*
X106460749Y-27336030D01*
X106281504Y-27315835D01*
X106281496Y-27315835D01*
X106102250Y-27336030D01*
X106102245Y-27336031D01*
X105931976Y-27395611D01*
X105779237Y-27491584D01*
X105651684Y-27619137D01*
X105555711Y-27771876D01*
X105496131Y-27942145D01*
X105496130Y-27942150D01*
X105475935Y-28121396D01*
X105475935Y-28121403D01*
X105496130Y-28300649D01*
X105496131Y-28300654D01*
X105555711Y-28470923D01*
X105651685Y-28623663D01*
X105653945Y-28626497D01*
X105654834Y-28628675D01*
X105655389Y-28629558D01*
X105655234Y-28629655D01*
X105680355Y-28691183D01*
X105681000Y-28703812D01*
X105681000Y-44684730D01*
X105680999Y-44684748D01*
X105680999Y-44850454D01*
X105680998Y-44850454D01*
X105721923Y-45003186D01*
X105721924Y-45003187D01*
X105747847Y-45048086D01*
X105747850Y-45048092D01*
X105798377Y-45135608D01*
X105800981Y-45140117D01*
X105919849Y-45258985D01*
X105919855Y-45258990D01*
X106606832Y-45945968D01*
X106640317Y-46007291D01*
X106642622Y-46045090D01*
X106626285Y-46221399D01*
X106626285Y-46221400D01*
X106645102Y-46424482D01*
X106700917Y-46620647D01*
X106700922Y-46620660D01*
X106791827Y-46803221D01*
X106914737Y-46965981D01*
X107030902Y-47071878D01*
X107064672Y-47102664D01*
X107065458Y-47103380D01*
X107065460Y-47103382D01*
X107164641Y-47164792D01*
X107238863Y-47210748D01*
X107429044Y-47284424D01*
X107629524Y-47321900D01*
X107629526Y-47321900D01*
X107833474Y-47321900D01*
X107833476Y-47321900D01*
X108033956Y-47284424D01*
X108224137Y-47210748D01*
X108397541Y-47103381D01*
X108398323Y-47102667D01*
X108398781Y-47102444D01*
X108402115Y-47099927D01*
X108402607Y-47100578D01*
X108461119Y-47072044D01*
X108530507Y-47080231D01*
X108560973Y-47099809D01*
X108561188Y-47099526D01*
X108564927Y-47102350D01*
X108565416Y-47102664D01*
X108565763Y-47102980D01*
X108739084Y-47210297D01*
X108929178Y-47283939D01*
X109129572Y-47321400D01*
X109333427Y-47321400D01*
X109384214Y-47311906D01*
X109453730Y-47318937D01*
X109508408Y-47362434D01*
X109530891Y-47428588D01*
X109531000Y-47433795D01*
X109531000Y-51083060D01*
X109511315Y-51150099D01*
X109458511Y-51195854D01*
X109389353Y-51205798D01*
X109325797Y-51176773D01*
X109321060Y-51172362D01*
X109320325Y-51171746D01*
X109133982Y-51041265D01*
X108927826Y-50945134D01*
X108927817Y-50945130D01*
X108708110Y-50886260D01*
X108708099Y-50886258D01*
X108481502Y-50866434D01*
X108481498Y-50866434D01*
X108254900Y-50886258D01*
X108254889Y-50886260D01*
X108035182Y-50945130D01*
X108035173Y-50945134D01*
X107829016Y-51041266D01*
X107829012Y-51041268D01*
X107756026Y-51092373D01*
X107756026Y-51092374D01*
X108435053Y-51771400D01*
X108428839Y-51771400D01*
X108327106Y-51798659D01*
X108235894Y-51851320D01*
X108161420Y-51925794D01*
X108108759Y-52017006D01*
X108081500Y-52118739D01*
X108081500Y-52124952D01*
X107402474Y-51445926D01*
X107402473Y-51445926D01*
X107351368Y-51518912D01*
X107351366Y-51518916D01*
X107255234Y-51725073D01*
X107255230Y-51725082D01*
X107196360Y-51944789D01*
X107196358Y-51944800D01*
X107176534Y-52171397D01*
X107176534Y-52171402D01*
X107196358Y-52397999D01*
X107196360Y-52398010D01*
X107255230Y-52617717D01*
X107255235Y-52617731D01*
X107351363Y-52823878D01*
X107402474Y-52896872D01*
X108081500Y-52217846D01*
X108081500Y-52224061D01*
X108108759Y-52325794D01*
X108161420Y-52417006D01*
X108235894Y-52491480D01*
X108327106Y-52544141D01*
X108428839Y-52571400D01*
X108435051Y-52571400D01*
X108095090Y-52911361D01*
X108039512Y-52943452D01*
X108035008Y-52944659D01*
X108035003Y-52944660D01*
X107828767Y-53040831D01*
X107828765Y-53040832D01*
X107642358Y-53171354D01*
X107481454Y-53332258D01*
X107350932Y-53518665D01*
X107350931Y-53518667D01*
X107254761Y-53724902D01*
X107254758Y-53724911D01*
X107195866Y-53944702D01*
X107195864Y-53944713D01*
X107176032Y-54171398D01*
X107176032Y-54171401D01*
X107195864Y-54398086D01*
X107195866Y-54398097D01*
X107254758Y-54617888D01*
X107254761Y-54617897D01*
X107350931Y-54824132D01*
X107350932Y-54824134D01*
X107481454Y-55010541D01*
X107642358Y-55171445D01*
X107689193Y-55204239D01*
X107828766Y-55301968D01*
X108035004Y-55398139D01*
X108254808Y-55457035D01*
X108416730Y-55471201D01*
X108481498Y-55476868D01*
X108481500Y-55476868D01*
X108481502Y-55476868D01*
X108538173Y-55471909D01*
X108708192Y-55457035D01*
X108927996Y-55398139D01*
X109134234Y-55301968D01*
X109320639Y-55171447D01*
X109320640Y-55171445D01*
X109320644Y-55171443D01*
X109324789Y-55167966D01*
X109325833Y-55169210D01*
X109380642Y-55139283D01*
X109450334Y-55144267D01*
X109506267Y-55186139D01*
X109530684Y-55251603D01*
X109531000Y-55260449D01*
X109531000Y-56971302D01*
X109511315Y-57038341D01*
X109494681Y-57058983D01*
X108974205Y-57579458D01*
X108912882Y-57612943D01*
X108854431Y-57611552D01*
X108758197Y-57585766D01*
X108758193Y-57585765D01*
X108758192Y-57585765D01*
X108758191Y-57585764D01*
X108758186Y-57585764D01*
X108531502Y-57565932D01*
X108531498Y-57565932D01*
X108304813Y-57585764D01*
X108304802Y-57585766D01*
X108085011Y-57644658D01*
X108085002Y-57644661D01*
X107878767Y-57740831D01*
X107878765Y-57740832D01*
X107692358Y-57871354D01*
X107531454Y-58032258D01*
X107400932Y-58218665D01*
X107400931Y-58218667D01*
X107304761Y-58424902D01*
X107304758Y-58424911D01*
X107245866Y-58644702D01*
X107245864Y-58644713D01*
X107226032Y-58871398D01*
X107226032Y-58871401D01*
X107245864Y-59098086D01*
X107245866Y-59098097D01*
X107304758Y-59317888D01*
X107304761Y-59317897D01*
X107400931Y-59524132D01*
X107400932Y-59524134D01*
X107531454Y-59710541D01*
X107692358Y-59871445D01*
X107692361Y-59871447D01*
X107878766Y-60001968D01*
X108085004Y-60098139D01*
X108085006Y-60098139D01*
X108085013Y-60098142D01*
X108089503Y-60099345D01*
X108145092Y-60131439D01*
X108485053Y-60471400D01*
X108478839Y-60471400D01*
X108377106Y-60498659D01*
X108285894Y-60551320D01*
X108211420Y-60625794D01*
X108158759Y-60717006D01*
X108131500Y-60818739D01*
X108131500Y-60824952D01*
X107452474Y-60145926D01*
X107452473Y-60145926D01*
X107401368Y-60218912D01*
X107401366Y-60218916D01*
X107305234Y-60425073D01*
X107305230Y-60425082D01*
X107246360Y-60644789D01*
X107246358Y-60644800D01*
X107226534Y-60871397D01*
X107226534Y-60871402D01*
X107246358Y-61097999D01*
X107246360Y-61098010D01*
X107305230Y-61317717D01*
X107305235Y-61317731D01*
X107401363Y-61523878D01*
X107452474Y-61596872D01*
X108131500Y-60917846D01*
X108131500Y-60924061D01*
X108158759Y-61025794D01*
X108211420Y-61117006D01*
X108285894Y-61191480D01*
X108377106Y-61244141D01*
X108478839Y-61271400D01*
X108485051Y-61271400D01*
X107806026Y-61950425D01*
X107879013Y-62001532D01*
X107879021Y-62001536D01*
X108085168Y-62097664D01*
X108085182Y-62097669D01*
X108304889Y-62156539D01*
X108304900Y-62156541D01*
X108531498Y-62176366D01*
X108531502Y-62176366D01*
X108758099Y-62156541D01*
X108758109Y-62156539D01*
X108874907Y-62125244D01*
X108944756Y-62126907D01*
X109002619Y-62166069D01*
X109030123Y-62230298D01*
X109031000Y-62245019D01*
X109031000Y-62921302D01*
X109011315Y-62988341D01*
X108994681Y-63008983D01*
X108362965Y-63640698D01*
X108301642Y-63674183D01*
X108289168Y-63676237D01*
X108202250Y-63686030D01*
X108031978Y-63745610D01*
X107879237Y-63841584D01*
X107751684Y-63969137D01*
X107655711Y-64121876D01*
X107596131Y-64292145D01*
X107596130Y-64292150D01*
X107575935Y-64471396D01*
X107575935Y-64471403D01*
X107596130Y-64650649D01*
X107596131Y-64650654D01*
X107655711Y-64820923D01*
X107686843Y-64870469D01*
X107751684Y-64973662D01*
X107879238Y-65101216D01*
X107950919Y-65146256D01*
X107999562Y-65176821D01*
X108031978Y-65197189D01*
X108126747Y-65230350D01*
X108202245Y-65256768D01*
X108202250Y-65256769D01*
X108381496Y-65276965D01*
X108381500Y-65276965D01*
X108381504Y-65276965D01*
X108560749Y-65256769D01*
X108560752Y-65256768D01*
X108560755Y-65256768D01*
X108731022Y-65197189D01*
X108883762Y-65101216D01*
X109011316Y-64973662D01*
X109107289Y-64820922D01*
X109166868Y-64650655D01*
X109176661Y-64563729D01*
X109203726Y-64499318D01*
X109212190Y-64489943D01*
X109990006Y-63712128D01*
X109990011Y-63712124D01*
X110000214Y-63701920D01*
X110000216Y-63701920D01*
X110112020Y-63590116D01*
X110180560Y-63471400D01*
X110191077Y-63453185D01*
X110232001Y-63300457D01*
X110232001Y-63142343D01*
X110232001Y-63134748D01*
X110232000Y-63134730D01*
X110232000Y-60715861D01*
X110251685Y-60648822D01*
X110268314Y-60628185D01*
X112168464Y-58728034D01*
X112229785Y-58694551D01*
X112299477Y-58699535D01*
X112355410Y-58741407D01*
X112379363Y-58801833D01*
X112396130Y-58950650D01*
X112396131Y-58950654D01*
X112455712Y-59120925D01*
X112461992Y-59130919D01*
X112481000Y-59196893D01*
X112481000Y-68452587D01*
X112461315Y-68519626D01*
X112453950Y-68529896D01*
X112451686Y-68532734D01*
X112355711Y-68685476D01*
X112296131Y-68855745D01*
X112296130Y-68855750D01*
X112275935Y-69034996D01*
X112275935Y-69035003D01*
X112296130Y-69214249D01*
X112296131Y-69214254D01*
X112355711Y-69384523D01*
X112416015Y-69480496D01*
X112440249Y-69519064D01*
X112451685Y-69537263D01*
X112453945Y-69540097D01*
X112454834Y-69542275D01*
X112455389Y-69543158D01*
X112455234Y-69543255D01*
X112480355Y-69604783D01*
X112481000Y-69617412D01*
X112481000Y-70484730D01*
X112480999Y-70484748D01*
X112480999Y-70650454D01*
X112480998Y-70650454D01*
X112521923Y-70803185D01*
X112550858Y-70853300D01*
X112550859Y-70853304D01*
X112550860Y-70853304D01*
X112586807Y-70915568D01*
X112600979Y-70940114D01*
X112600981Y-70940117D01*
X112719849Y-71058985D01*
X112719855Y-71058990D01*
X113703181Y-72042316D01*
X113736666Y-72103639D01*
X113739500Y-72129997D01*
X113739500Y-72523900D01*
X113719815Y-72590939D01*
X113667011Y-72636694D01*
X113615502Y-72647900D01*
X113555530Y-72647900D01*
X113555523Y-72647901D01*
X113495916Y-72654308D01*
X113361071Y-72704602D01*
X113361064Y-72704606D01*
X113245855Y-72790852D01*
X113245852Y-72790855D01*
X113159606Y-72906064D01*
X113159602Y-72906071D01*
X113109308Y-73040917D01*
X113103723Y-73092873D01*
X113102901Y-73100523D01*
X113102900Y-73100535D01*
X113102900Y-74669470D01*
X113102901Y-74669476D01*
X113109308Y-74729083D01*
X113159602Y-74863928D01*
X113159606Y-74863935D01*
X113245852Y-74979144D01*
X113245855Y-74979147D01*
X113361064Y-75065393D01*
X113361071Y-75065397D01*
X113495917Y-75115691D01*
X113495916Y-75115691D01*
X113502844Y-75116435D01*
X113555527Y-75122100D01*
X115124472Y-75122099D01*
X115184083Y-75115691D01*
X115318931Y-75065396D01*
X115434146Y-74979146D01*
X115520396Y-74863931D01*
X115570691Y-74729083D01*
X115577100Y-74669473D01*
X115577099Y-73100528D01*
X115570691Y-73040917D01*
X115559631Y-73011264D01*
X115520397Y-72906071D01*
X115520393Y-72906064D01*
X115434147Y-72790855D01*
X115434144Y-72790852D01*
X115318935Y-72704606D01*
X115318928Y-72704602D01*
X115184082Y-72654308D01*
X115184083Y-72654308D01*
X115124483Y-72647901D01*
X115124481Y-72647900D01*
X115124473Y-72647900D01*
X115124465Y-72647900D01*
X115064500Y-72647900D01*
X114997461Y-72628215D01*
X114951706Y-72575411D01*
X114940500Y-72523900D01*
X114940500Y-71918960D01*
X114940501Y-71918947D01*
X114940501Y-71750844D01*
X114940501Y-71750843D01*
X114899577Y-71598116D01*
X114866753Y-71541263D01*
X114820524Y-71461190D01*
X114820518Y-71461182D01*
X113718319Y-70358983D01*
X113684834Y-70297660D01*
X113682000Y-70271302D01*
X113682000Y-69784998D01*
X119034532Y-69784998D01*
X119034532Y-69785001D01*
X119054364Y-70011686D01*
X119054366Y-70011697D01*
X119113258Y-70231488D01*
X119113261Y-70231497D01*
X119209431Y-70437732D01*
X119209432Y-70437734D01*
X119339954Y-70624141D01*
X119500858Y-70785045D01*
X119500861Y-70785047D01*
X119687266Y-70915568D01*
X119893504Y-71011739D01*
X119893506Y-71011739D01*
X119893513Y-71011742D01*
X119898003Y-71012945D01*
X119953592Y-71045039D01*
X120293553Y-71385000D01*
X120287339Y-71385000D01*
X120185606Y-71412259D01*
X120094394Y-71464920D01*
X120019920Y-71539394D01*
X119967259Y-71630606D01*
X119940000Y-71732339D01*
X119940000Y-71738552D01*
X119260974Y-71059526D01*
X119260973Y-71059526D01*
X119209868Y-71132512D01*
X119209866Y-71132516D01*
X119113734Y-71338673D01*
X119113730Y-71338682D01*
X119054860Y-71558389D01*
X119054858Y-71558400D01*
X119035034Y-71784997D01*
X119035034Y-71785002D01*
X119054858Y-72011599D01*
X119054860Y-72011610D01*
X119113730Y-72231317D01*
X119113735Y-72231331D01*
X119209863Y-72437478D01*
X119260974Y-72510472D01*
X119940000Y-71831446D01*
X119940000Y-71837661D01*
X119967259Y-71939394D01*
X120019920Y-72030606D01*
X120094394Y-72105080D01*
X120185606Y-72157741D01*
X120287339Y-72185000D01*
X120293553Y-72185000D01*
X119614526Y-72864025D01*
X119687513Y-72915132D01*
X119687521Y-72915136D01*
X119893668Y-73011264D01*
X119893682Y-73011269D01*
X120113389Y-73070139D01*
X120113400Y-73070141D01*
X120339998Y-73089966D01*
X120340002Y-73089966D01*
X120566599Y-73070141D01*
X120566610Y-73070139D01*
X120786317Y-73011269D01*
X120786331Y-73011264D01*
X120992478Y-72915136D01*
X121065471Y-72864024D01*
X120872845Y-72671398D01*
X131176032Y-72671398D01*
X131176032Y-72671401D01*
X131195864Y-72898086D01*
X131195866Y-72898097D01*
X131254758Y-73117888D01*
X131254761Y-73117897D01*
X131350931Y-73324132D01*
X131350932Y-73324134D01*
X131481454Y-73510541D01*
X131642358Y-73671445D01*
X131642361Y-73671447D01*
X131828766Y-73801968D01*
X132035004Y-73898139D01*
X132254808Y-73957035D01*
X132416730Y-73971201D01*
X132481498Y-73976868D01*
X132481500Y-73976868D01*
X132481502Y-73976868D01*
X132544011Y-73971399D01*
X132708192Y-73957035D01*
X132927996Y-73898139D01*
X133134234Y-73801968D01*
X133320639Y-73671447D01*
X133481547Y-73510539D01*
X133612068Y-73324134D01*
X133708239Y-73117896D01*
X133767135Y-72898092D01*
X133786968Y-72671400D01*
X133786968Y-72671397D01*
X136176534Y-72671397D01*
X136176534Y-72671402D01*
X136196358Y-72897999D01*
X136196360Y-72898010D01*
X136255230Y-73117717D01*
X136255235Y-73117731D01*
X136351363Y-73323878D01*
X136402474Y-73396872D01*
X137081500Y-72717846D01*
X137081500Y-72724061D01*
X137108759Y-72825794D01*
X137161420Y-72917006D01*
X137235894Y-72991480D01*
X137327106Y-73044141D01*
X137428839Y-73071400D01*
X137435053Y-73071400D01*
X136756026Y-73750425D01*
X136829013Y-73801532D01*
X136829021Y-73801536D01*
X137035168Y-73897664D01*
X137035182Y-73897669D01*
X137254889Y-73956539D01*
X137254900Y-73956541D01*
X137481498Y-73976366D01*
X137481502Y-73976366D01*
X137708099Y-73956541D01*
X137708110Y-73956539D01*
X137927817Y-73897669D01*
X137927831Y-73897664D01*
X138133978Y-73801536D01*
X138206971Y-73750424D01*
X137527947Y-73071400D01*
X137534161Y-73071400D01*
X137635894Y-73044141D01*
X137727106Y-72991480D01*
X137801580Y-72917006D01*
X137854241Y-72825794D01*
X137881500Y-72724061D01*
X137881500Y-72717847D01*
X138560524Y-73396871D01*
X138611636Y-73323878D01*
X138707764Y-73117731D01*
X138707769Y-73117717D01*
X138766639Y-72898010D01*
X138766641Y-72897999D01*
X138786466Y-72671402D01*
X138786466Y-72671397D01*
X138766641Y-72444800D01*
X138766639Y-72444789D01*
X138707769Y-72225082D01*
X138707764Y-72225068D01*
X138611636Y-72018921D01*
X138611632Y-72018913D01*
X138560525Y-71945926D01*
X137881500Y-72624951D01*
X137881500Y-72618739D01*
X137854241Y-72517006D01*
X137801580Y-72425794D01*
X137727106Y-72351320D01*
X137635894Y-72298659D01*
X137534161Y-72271400D01*
X137527948Y-72271400D01*
X138206972Y-71592374D01*
X138133978Y-71541263D01*
X137927831Y-71445135D01*
X137927817Y-71445130D01*
X137708110Y-71386260D01*
X137708099Y-71386258D01*
X137481502Y-71366434D01*
X137481498Y-71366434D01*
X137254900Y-71386258D01*
X137254889Y-71386260D01*
X137035182Y-71445130D01*
X137035173Y-71445134D01*
X136829016Y-71541266D01*
X136829012Y-71541268D01*
X136756026Y-71592373D01*
X136756026Y-71592374D01*
X137435053Y-72271400D01*
X137428839Y-72271400D01*
X137327106Y-72298659D01*
X137235894Y-72351320D01*
X137161420Y-72425794D01*
X137108759Y-72517006D01*
X137081500Y-72618739D01*
X137081500Y-72624952D01*
X136402474Y-71945926D01*
X136402473Y-71945926D01*
X136351368Y-72018912D01*
X136351366Y-72018916D01*
X136255234Y-72225073D01*
X136255230Y-72225082D01*
X136196360Y-72444789D01*
X136196358Y-72444800D01*
X136176534Y-72671397D01*
X133786968Y-72671397D01*
X133767135Y-72444708D01*
X133708239Y-72224904D01*
X133612068Y-72018666D01*
X133481547Y-71832261D01*
X133481545Y-71832258D01*
X133320641Y-71671354D01*
X133134234Y-71540832D01*
X133134232Y-71540831D01*
X132927997Y-71444661D01*
X132927988Y-71444658D01*
X132708197Y-71385766D01*
X132708193Y-71385765D01*
X132708192Y-71385765D01*
X132708191Y-71385764D01*
X132708186Y-71385764D01*
X132481502Y-71365932D01*
X132481498Y-71365932D01*
X132254813Y-71385764D01*
X132254802Y-71385766D01*
X132035011Y-71444658D01*
X132035002Y-71444661D01*
X131828767Y-71540831D01*
X131828765Y-71540832D01*
X131642358Y-71671354D01*
X131481454Y-71832258D01*
X131350932Y-72018665D01*
X131350931Y-72018667D01*
X131254761Y-72224902D01*
X131254758Y-72224911D01*
X131195866Y-72444702D01*
X131195864Y-72444713D01*
X131176032Y-72671398D01*
X120872845Y-72671398D01*
X120386447Y-72185000D01*
X120392661Y-72185000D01*
X120494394Y-72157741D01*
X120585606Y-72105080D01*
X120660080Y-72030606D01*
X120712741Y-71939394D01*
X120740000Y-71837661D01*
X120740000Y-71831447D01*
X121419024Y-72510471D01*
X121470136Y-72437478D01*
X121566264Y-72231331D01*
X121566269Y-72231317D01*
X121625139Y-72011610D01*
X121625141Y-72011599D01*
X121644966Y-71785002D01*
X121644966Y-71784997D01*
X121625141Y-71558400D01*
X121625139Y-71558389D01*
X121566269Y-71338682D01*
X121566264Y-71338668D01*
X121470136Y-71132521D01*
X121470132Y-71132513D01*
X121419025Y-71059526D01*
X120740000Y-71738551D01*
X120740000Y-71732339D01*
X120712741Y-71630606D01*
X120660080Y-71539394D01*
X120585606Y-71464920D01*
X120494394Y-71412259D01*
X120392661Y-71385000D01*
X120386448Y-71385000D01*
X120726407Y-71045039D01*
X120781996Y-71012945D01*
X120783833Y-71012452D01*
X120786496Y-71011739D01*
X120992734Y-70915568D01*
X121179139Y-70785047D01*
X121340047Y-70624139D01*
X121470568Y-70437734D01*
X121566739Y-70231496D01*
X121625635Y-70011692D01*
X121645468Y-69785000D01*
X121639216Y-69713535D01*
X141581000Y-69713535D01*
X141581000Y-73009270D01*
X141581001Y-73009276D01*
X141587408Y-73068883D01*
X141637702Y-73203728D01*
X141637706Y-73203735D01*
X141723952Y-73318944D01*
X141723955Y-73318947D01*
X141839164Y-73405193D01*
X141839171Y-73405197D01*
X141974017Y-73455491D01*
X141974016Y-73455491D01*
X141980944Y-73456235D01*
X142033627Y-73461900D01*
X145329372Y-73461899D01*
X145388983Y-73455491D01*
X145523831Y-73405196D01*
X145639046Y-73318946D01*
X145725296Y-73203731D01*
X145775591Y-73068883D01*
X145782000Y-73009273D01*
X145781999Y-69713528D01*
X145775591Y-69653917D01*
X145757265Y-69604783D01*
X145725297Y-69519071D01*
X145725293Y-69519064D01*
X145639047Y-69403855D01*
X145639044Y-69403852D01*
X145523835Y-69317606D01*
X145523828Y-69317602D01*
X145388982Y-69267308D01*
X145388983Y-69267308D01*
X145329383Y-69260901D01*
X145329381Y-69260900D01*
X145329373Y-69260900D01*
X145329364Y-69260900D01*
X142033629Y-69260900D01*
X142033623Y-69260901D01*
X141974016Y-69267308D01*
X141839171Y-69317602D01*
X141839164Y-69317606D01*
X141723955Y-69403852D01*
X141723952Y-69403855D01*
X141637706Y-69519064D01*
X141637702Y-69519071D01*
X141587408Y-69653917D01*
X141581001Y-69713516D01*
X141581001Y-69713523D01*
X141581000Y-69713535D01*
X121639216Y-69713535D01*
X121625635Y-69558308D01*
X121566739Y-69338504D01*
X121470568Y-69132266D01*
X121340047Y-68945861D01*
X121340045Y-68945858D01*
X121179141Y-68784954D01*
X120992734Y-68654432D01*
X120992732Y-68654431D01*
X120786497Y-68558261D01*
X120786488Y-68558258D01*
X120566697Y-68499366D01*
X120566693Y-68499365D01*
X120566692Y-68499365D01*
X120566691Y-68499364D01*
X120566686Y-68499364D01*
X120340002Y-68479532D01*
X120339998Y-68479532D01*
X120113313Y-68499364D01*
X120113302Y-68499366D01*
X119893511Y-68558258D01*
X119893502Y-68558261D01*
X119687267Y-68654431D01*
X119687265Y-68654432D01*
X119500858Y-68784954D01*
X119339954Y-68945858D01*
X119209432Y-69132265D01*
X119209431Y-69132267D01*
X119113261Y-69338502D01*
X119113258Y-69338511D01*
X119054366Y-69558302D01*
X119054364Y-69558313D01*
X119034532Y-69784998D01*
X113682000Y-69784998D01*
X113682000Y-69617412D01*
X113701685Y-69550373D01*
X113709055Y-69540097D01*
X113711310Y-69537267D01*
X113711316Y-69537262D01*
X113807289Y-69384522D01*
X113866868Y-69214255D01*
X113881375Y-69085500D01*
X113887065Y-69035003D01*
X113887065Y-69034996D01*
X113866869Y-68855750D01*
X113866868Y-68855745D01*
X113855196Y-68822389D01*
X113807289Y-68685478D01*
X113787781Y-68654432D01*
X113733618Y-68568232D01*
X113711316Y-68532738D01*
X113711314Y-68532736D01*
X113711313Y-68532734D01*
X113709050Y-68529896D01*
X113708159Y-68527715D01*
X113707611Y-68526842D01*
X113707764Y-68526745D01*
X113682644Y-68465209D01*
X113682000Y-68452587D01*
X113682000Y-65971399D01*
X124476285Y-65971399D01*
X124476285Y-65971400D01*
X124495102Y-66174482D01*
X124550917Y-66370647D01*
X124550922Y-66370660D01*
X124641827Y-66553221D01*
X124764737Y-66715981D01*
X124915458Y-66853380D01*
X124915460Y-66853382D01*
X124947490Y-66873214D01*
X125088863Y-66960748D01*
X125279044Y-67034424D01*
X125479524Y-67071900D01*
X125479526Y-67071900D01*
X125683474Y-67071900D01*
X125683476Y-67071900D01*
X125883956Y-67034424D01*
X126074137Y-66960748D01*
X126247541Y-66853381D01*
X126398264Y-66715979D01*
X126521173Y-66553221D01*
X126612082Y-66370650D01*
X126667897Y-66174483D01*
X126686715Y-65971400D01*
X126682082Y-65921399D01*
X132326285Y-65921399D01*
X132326285Y-65921400D01*
X132345102Y-66124482D01*
X132400917Y-66320647D01*
X132400922Y-66320660D01*
X132491827Y-66503221D01*
X132614737Y-66665981D01*
X132765458Y-66803380D01*
X132765460Y-66803382D01*
X132864641Y-66864792D01*
X132938863Y-66910748D01*
X133129044Y-66984424D01*
X133329524Y-67021900D01*
X133329526Y-67021900D01*
X133533474Y-67021900D01*
X133533476Y-67021900D01*
X133733956Y-66984424D01*
X133924137Y-66910748D01*
X134097541Y-66803381D01*
X134248264Y-66665979D01*
X134371173Y-66503221D01*
X134462082Y-66320650D01*
X134517897Y-66124483D01*
X134536715Y-65921400D01*
X134529240Y-65840735D01*
X134517897Y-65718317D01*
X134497779Y-65647611D01*
X134462082Y-65522150D01*
X134371173Y-65339579D01*
X134300286Y-65245710D01*
X134275595Y-65180350D01*
X134290160Y-65112015D01*
X134300288Y-65096256D01*
X134370745Y-65002957D01*
X134461613Y-64820469D01*
X134461616Y-64820463D01*
X134517402Y-64624392D01*
X134517403Y-64624389D01*
X134536213Y-64421400D01*
X134536213Y-64421399D01*
X134517403Y-64218410D01*
X134517402Y-64218407D01*
X134461616Y-64022336D01*
X134461613Y-64022330D01*
X134370749Y-63839849D01*
X134370747Y-63839847D01*
X134368965Y-63837487D01*
X133726355Y-64480096D01*
X133731500Y-64460896D01*
X133731500Y-64381904D01*
X133711056Y-64305604D01*
X133671560Y-64237195D01*
X133615705Y-64181340D01*
X133547296Y-64141844D01*
X133470996Y-64121400D01*
X133392004Y-64121400D01*
X133315704Y-64141844D01*
X133247295Y-64181340D01*
X133191440Y-64237195D01*
X133151944Y-64305604D01*
X133131500Y-64381904D01*
X133131500Y-64460896D01*
X133136645Y-64480099D01*
X132494033Y-63837487D01*
X132492255Y-63839842D01*
X132492254Y-63839843D01*
X132401386Y-64022330D01*
X132401383Y-64022336D01*
X132345597Y-64218407D01*
X132345596Y-64218410D01*
X132326787Y-64421399D01*
X132326787Y-64421400D01*
X132345596Y-64624389D01*
X132345597Y-64624392D01*
X132401383Y-64820463D01*
X132401386Y-64820469D01*
X132492254Y-65002956D01*
X132562712Y-65096257D01*
X132587404Y-65161618D01*
X132572839Y-65229953D01*
X132562712Y-65245710D01*
X132491828Y-65339575D01*
X132400922Y-65522139D01*
X132400917Y-65522152D01*
X132345102Y-65718317D01*
X132326285Y-65921399D01*
X126682082Y-65921399D01*
X126667897Y-65768317D01*
X126612082Y-65572150D01*
X126611896Y-65571777D01*
X126565672Y-65478946D01*
X126521173Y-65389579D01*
X126450286Y-65295710D01*
X126425595Y-65230350D01*
X126440160Y-65162015D01*
X126450288Y-65146256D01*
X126520745Y-65052957D01*
X126611613Y-64870469D01*
X126611616Y-64870463D01*
X126667402Y-64674392D01*
X126667403Y-64674389D01*
X126686213Y-64471400D01*
X126686213Y-64471399D01*
X126667403Y-64268410D01*
X126667402Y-64268407D01*
X126611616Y-64072336D01*
X126611613Y-64072330D01*
X126520749Y-63889849D01*
X126520747Y-63889847D01*
X126518965Y-63887487D01*
X125876355Y-64530096D01*
X125881500Y-64510896D01*
X125881500Y-64431904D01*
X125861056Y-64355604D01*
X125821560Y-64287195D01*
X125765705Y-64231340D01*
X125697296Y-64191844D01*
X125620996Y-64171400D01*
X125542004Y-64171400D01*
X125465704Y-64191844D01*
X125397295Y-64231340D01*
X125341440Y-64287195D01*
X125301944Y-64355604D01*
X125281500Y-64431904D01*
X125281500Y-64510896D01*
X125286645Y-64530099D01*
X124644033Y-63887487D01*
X124642255Y-63889842D01*
X124642254Y-63889843D01*
X124551386Y-64072330D01*
X124551383Y-64072336D01*
X124495597Y-64268407D01*
X124495596Y-64268410D01*
X124476787Y-64471399D01*
X124476787Y-64471400D01*
X124495596Y-64674389D01*
X124495597Y-64674392D01*
X124551383Y-64870463D01*
X124551386Y-64870469D01*
X124642254Y-65052956D01*
X124712712Y-65146257D01*
X124737404Y-65211618D01*
X124722839Y-65279953D01*
X124712712Y-65295710D01*
X124641828Y-65389575D01*
X124550922Y-65572139D01*
X124550917Y-65572152D01*
X124495102Y-65768317D01*
X124476285Y-65971399D01*
X113682000Y-65971399D01*
X113682000Y-63471397D01*
X114526032Y-63471397D01*
X114526032Y-63471400D01*
X114527411Y-63487157D01*
X114545864Y-63698086D01*
X114545866Y-63698097D01*
X114604758Y-63917888D01*
X114604761Y-63917897D01*
X114700931Y-64124132D01*
X114700932Y-64124134D01*
X114831454Y-64310541D01*
X114992358Y-64471445D01*
X114992361Y-64471447D01*
X115178766Y-64601968D01*
X115385004Y-64698139D01*
X115604808Y-64757035D01*
X115761651Y-64770757D01*
X115831498Y-64776868D01*
X115831500Y-64776868D01*
X115831502Y-64776868D01*
X115901349Y-64770757D01*
X116058192Y-64757035D01*
X116277996Y-64698139D01*
X116484234Y-64601968D01*
X116670639Y-64471447D01*
X116831547Y-64310539D01*
X116962068Y-64124134D01*
X117058239Y-63917896D01*
X117117135Y-63698092D01*
X117136968Y-63471400D01*
X117136968Y-63471397D01*
X119526534Y-63471397D01*
X119526534Y-63471398D01*
X119546358Y-63697999D01*
X119546360Y-63698010D01*
X119605230Y-63917717D01*
X119605235Y-63917731D01*
X119701363Y-64123878D01*
X119752474Y-64196872D01*
X120431500Y-63517846D01*
X120431500Y-63524061D01*
X120458759Y-63625794D01*
X120511420Y-63717006D01*
X120585894Y-63791480D01*
X120677106Y-63844141D01*
X120778839Y-63871400D01*
X120785053Y-63871400D01*
X120106026Y-64550425D01*
X120179013Y-64601532D01*
X120179021Y-64601536D01*
X120385168Y-64697664D01*
X120385182Y-64697669D01*
X120604889Y-64756539D01*
X120604900Y-64756541D01*
X120831498Y-64776366D01*
X120831502Y-64776366D01*
X121058099Y-64756541D01*
X121058110Y-64756539D01*
X121277817Y-64697669D01*
X121277831Y-64697664D01*
X121483978Y-64601536D01*
X121556971Y-64550424D01*
X120877947Y-63871400D01*
X120884161Y-63871400D01*
X120985894Y-63844141D01*
X121077106Y-63791480D01*
X121151580Y-63717006D01*
X121204241Y-63625794D01*
X121231500Y-63524061D01*
X121231500Y-63517847D01*
X121910524Y-64196871D01*
X121961636Y-64123878D01*
X122057764Y-63917731D01*
X122057769Y-63917717D01*
X122116639Y-63698010D01*
X122116641Y-63697999D01*
X122130713Y-63537158D01*
X125000811Y-63537158D01*
X125581500Y-64117846D01*
X125581501Y-64117846D01*
X126162187Y-63537158D01*
X126081434Y-63487158D01*
X132850811Y-63487158D01*
X133431500Y-64067846D01*
X133431501Y-64067846D01*
X134012187Y-63487158D01*
X133923913Y-63432501D01*
X133923911Y-63432500D01*
X133733821Y-63358860D01*
X133533428Y-63321400D01*
X133329572Y-63321400D01*
X133129178Y-63358860D01*
X132939088Y-63432500D01*
X132939081Y-63432504D01*
X132850812Y-63487157D01*
X132850811Y-63487158D01*
X126081434Y-63487158D01*
X126073913Y-63482501D01*
X126073911Y-63482500D01*
X125883821Y-63408860D01*
X125683428Y-63371400D01*
X125479572Y-63371400D01*
X125279178Y-63408860D01*
X125089088Y-63482500D01*
X125089081Y-63482504D01*
X125000812Y-63537157D01*
X125000811Y-63537158D01*
X122130713Y-63537158D01*
X122136466Y-63471398D01*
X122136466Y-63471397D01*
X122116641Y-63244800D01*
X122116639Y-63244789D01*
X122057769Y-63025082D01*
X122057764Y-63025068D01*
X121961636Y-62818921D01*
X121961632Y-62818913D01*
X121910525Y-62745926D01*
X121231500Y-63424951D01*
X121231500Y-63418739D01*
X121204241Y-63317006D01*
X121151580Y-63225794D01*
X121077106Y-63151320D01*
X120985894Y-63098659D01*
X120884161Y-63071400D01*
X120877948Y-63071400D01*
X121556972Y-62392374D01*
X121483978Y-62341263D01*
X121277831Y-62245135D01*
X121277817Y-62245130D01*
X121058110Y-62186260D01*
X121058099Y-62186258D01*
X120831502Y-62166434D01*
X120831498Y-62166434D01*
X120604900Y-62186258D01*
X120604889Y-62186260D01*
X120385182Y-62245130D01*
X120385173Y-62245134D01*
X120179016Y-62341266D01*
X120179012Y-62341268D01*
X120106026Y-62392373D01*
X120106026Y-62392374D01*
X120785053Y-63071400D01*
X120778839Y-63071400D01*
X120677106Y-63098659D01*
X120585894Y-63151320D01*
X120511420Y-63225794D01*
X120458759Y-63317006D01*
X120431500Y-63418739D01*
X120431500Y-63424952D01*
X119752474Y-62745926D01*
X119752473Y-62745926D01*
X119701368Y-62818912D01*
X119701366Y-62818916D01*
X119605234Y-63025073D01*
X119605230Y-63025082D01*
X119546360Y-63244789D01*
X119546358Y-63244800D01*
X119526534Y-63471397D01*
X117136968Y-63471397D01*
X117135374Y-63453186D01*
X117127122Y-63358860D01*
X117117135Y-63244708D01*
X117058239Y-63024904D01*
X116962068Y-62818666D01*
X116831547Y-62632261D01*
X116831545Y-62632258D01*
X116670641Y-62471354D01*
X116484234Y-62340832D01*
X116484232Y-62340831D01*
X116277997Y-62244661D01*
X116277988Y-62244658D01*
X116058197Y-62185766D01*
X116058193Y-62185765D01*
X116058192Y-62185765D01*
X116058191Y-62185764D01*
X116058186Y-62185764D01*
X115831502Y-62165932D01*
X115831498Y-62165932D01*
X115604813Y-62185764D01*
X115604802Y-62185766D01*
X115385011Y-62244658D01*
X115385002Y-62244661D01*
X115178767Y-62340831D01*
X115178765Y-62340832D01*
X114992358Y-62471354D01*
X114831454Y-62632258D01*
X114700932Y-62818665D01*
X114700931Y-62818667D01*
X114604761Y-63024902D01*
X114604758Y-63024911D01*
X114545866Y-63244702D01*
X114545864Y-63244713D01*
X114526032Y-63471397D01*
X113682000Y-63471397D01*
X113682000Y-59454340D01*
X113701685Y-59387301D01*
X113718319Y-59366659D01*
X113811316Y-59273662D01*
X113907289Y-59120922D01*
X113966868Y-58950655D01*
X113981826Y-58817897D01*
X113987065Y-58771403D01*
X113987065Y-58771396D01*
X113966869Y-58592150D01*
X113966868Y-58592145D01*
X113907288Y-58421876D01*
X113811315Y-58269137D01*
X113683762Y-58141584D01*
X113531023Y-58045611D01*
X113360754Y-57986031D01*
X113360750Y-57986030D01*
X113211933Y-57969263D01*
X113147519Y-57942196D01*
X113107964Y-57884601D01*
X113105827Y-57814764D01*
X113138134Y-57758364D01*
X114341704Y-56554794D01*
X114403025Y-56521311D01*
X114472717Y-56526295D01*
X114528650Y-56568167D01*
X114549158Y-56610383D01*
X114604759Y-56817891D01*
X114604761Y-56817897D01*
X114700931Y-57024132D01*
X114700932Y-57024134D01*
X114831454Y-57210541D01*
X114904632Y-57283719D01*
X114938117Y-57345042D01*
X114933133Y-57414734D01*
X114904632Y-57459081D01*
X114831454Y-57532258D01*
X114700932Y-57718665D01*
X114700931Y-57718667D01*
X114604761Y-57924902D01*
X114604758Y-57924911D01*
X114545866Y-58144702D01*
X114545864Y-58144713D01*
X114526032Y-58371398D01*
X114526032Y-58371401D01*
X114545864Y-58598086D01*
X114545866Y-58598097D01*
X114604758Y-58817888D01*
X114604761Y-58817897D01*
X114700931Y-59024132D01*
X114700932Y-59024134D01*
X114831454Y-59210541D01*
X114992358Y-59371445D01*
X114992361Y-59371447D01*
X115178766Y-59501968D01*
X115385004Y-59598139D01*
X115604808Y-59657035D01*
X115766730Y-59671201D01*
X115831498Y-59676868D01*
X115831500Y-59676868D01*
X115831502Y-59676868D01*
X115888173Y-59671909D01*
X116058192Y-59657035D01*
X116277996Y-59598139D01*
X116484234Y-59501968D01*
X116670639Y-59371447D01*
X116831547Y-59210539D01*
X116962068Y-59024134D01*
X117058239Y-58817896D01*
X117117135Y-58598092D01*
X117136968Y-58371400D01*
X117117135Y-58144708D01*
X117091347Y-58048466D01*
X117093010Y-57978617D01*
X117123439Y-57928694D01*
X119180734Y-55871399D01*
X141593692Y-55871399D01*
X141593693Y-55871400D01*
X142919139Y-55871400D01*
X142912243Y-55888049D01*
X142881500Y-56042607D01*
X142881500Y-56200193D01*
X142912243Y-56354751D01*
X142919139Y-56371400D01*
X141593693Y-56371400D01*
X141596197Y-56408019D01*
X141654646Y-56689288D01*
X141654650Y-56689302D01*
X141750855Y-56959995D01*
X141883027Y-57215076D01*
X142048704Y-57449785D01*
X142048704Y-57449786D01*
X142244788Y-57659741D01*
X142467635Y-57841041D01*
X142467646Y-57841048D01*
X142713107Y-57990317D01*
X142976608Y-58104771D01*
X143253237Y-58182279D01*
X143253246Y-58182281D01*
X143431499Y-58206780D01*
X143431500Y-58206780D01*
X143431500Y-56883760D01*
X143448149Y-56890657D01*
X143602707Y-56921400D01*
X143760293Y-56921400D01*
X143914851Y-56890657D01*
X143931500Y-56883760D01*
X143931500Y-58206780D01*
X144109753Y-58182281D01*
X144109762Y-58182279D01*
X144386391Y-58104771D01*
X144649892Y-57990317D01*
X144895353Y-57841048D01*
X144895364Y-57841041D01*
X145118211Y-57659741D01*
X145314295Y-57449786D01*
X145314295Y-57449785D01*
X145479972Y-57215076D01*
X145612144Y-56959995D01*
X145708349Y-56689302D01*
X145708353Y-56689288D01*
X145766802Y-56408019D01*
X145769307Y-56371400D01*
X144443861Y-56371400D01*
X144450757Y-56354751D01*
X144481500Y-56200193D01*
X144481500Y-56042607D01*
X144450757Y-55888049D01*
X144443861Y-55871400D01*
X145769307Y-55871400D01*
X145769307Y-55871399D01*
X145766802Y-55834780D01*
X145708353Y-55553511D01*
X145708349Y-55553497D01*
X145612144Y-55282804D01*
X145479972Y-55027723D01*
X145314295Y-54793014D01*
X145314295Y-54793013D01*
X145118211Y-54583058D01*
X144895364Y-54401758D01*
X144895353Y-54401751D01*
X144649892Y-54252482D01*
X144386391Y-54138028D01*
X144109762Y-54060520D01*
X144109755Y-54060519D01*
X143931500Y-54036018D01*
X143931500Y-55359039D01*
X143914851Y-55352143D01*
X143760293Y-55321400D01*
X143602707Y-55321400D01*
X143448149Y-55352143D01*
X143431500Y-55359039D01*
X143431500Y-54036018D01*
X143253244Y-54060519D01*
X143253237Y-54060520D01*
X142976608Y-54138028D01*
X142713107Y-54252482D01*
X142467646Y-54401751D01*
X142467635Y-54401758D01*
X142244788Y-54583058D01*
X142048704Y-54793013D01*
X142048704Y-54793014D01*
X141883027Y-55027723D01*
X141750855Y-55282804D01*
X141654650Y-55553497D01*
X141654646Y-55553511D01*
X141596197Y-55834780D01*
X141593692Y-55871399D01*
X119180734Y-55871399D01*
X123446494Y-51605640D01*
X132350811Y-51605640D01*
X132439085Y-51660297D01*
X132629178Y-51733939D01*
X132829572Y-51771400D01*
X133033428Y-51771400D01*
X133233822Y-51733939D01*
X133423912Y-51660299D01*
X133423916Y-51660297D01*
X133512186Y-51605641D01*
X133512186Y-51605640D01*
X132931501Y-51024953D01*
X132931500Y-51024953D01*
X132350811Y-51605640D01*
X123446494Y-51605640D01*
X124190006Y-50862128D01*
X124190011Y-50862124D01*
X124200214Y-50851920D01*
X124200216Y-50851920D01*
X124312020Y-50740116D01*
X124391077Y-50603184D01*
X124421034Y-50491381D01*
X124432000Y-50450458D01*
X124432000Y-50292343D01*
X124432000Y-40053812D01*
X124451685Y-39986773D01*
X124459055Y-39976497D01*
X124461310Y-39973667D01*
X124461316Y-39973662D01*
X124557289Y-39820922D01*
X124616868Y-39650655D01*
X124618379Y-39637246D01*
X124637065Y-39471403D01*
X124637065Y-39471396D01*
X124616869Y-39292150D01*
X124616868Y-39292145D01*
X124593651Y-39225794D01*
X124557289Y-39121878D01*
X124550165Y-39110541D01*
X124502553Y-39034766D01*
X124461316Y-38969138D01*
X124333762Y-38841584D01*
X124181023Y-38745611D01*
X124010754Y-38686031D01*
X124010749Y-38686030D01*
X123831504Y-38665835D01*
X123831501Y-38665835D01*
X123831500Y-38665835D01*
X123827475Y-38666288D01*
X123819880Y-38667144D01*
X123751058Y-38655087D01*
X123699680Y-38607736D01*
X123682000Y-38543923D01*
X123682000Y-32821496D01*
X123701685Y-32754457D01*
X123718315Y-32733819D01*
X124300035Y-32152098D01*
X124361356Y-32118615D01*
X124373811Y-32116563D01*
X124460755Y-32106768D01*
X124460758Y-32106767D01*
X124616045Y-32052430D01*
X124685824Y-32048868D01*
X124746451Y-32083596D01*
X124778679Y-32145590D01*
X124781000Y-32169471D01*
X124781000Y-37171830D01*
X124780999Y-37171848D01*
X124780999Y-37337554D01*
X124780998Y-37337554D01*
X124786523Y-37358172D01*
X124820683Y-37485658D01*
X124821924Y-37490287D01*
X124838081Y-37518271D01*
X124838082Y-37518273D01*
X124900977Y-37627212D01*
X124900981Y-37627217D01*
X125019849Y-37746085D01*
X125019855Y-37746090D01*
X127459539Y-40185774D01*
X127459549Y-40185785D01*
X127463879Y-40190115D01*
X127463880Y-40190116D01*
X127571685Y-40297921D01*
X127605169Y-40359242D01*
X127600185Y-40428934D01*
X127597559Y-40435410D01*
X127512784Y-40628681D01*
X127512782Y-40628685D01*
X127456253Y-40851915D01*
X127437238Y-41081394D01*
X127437238Y-41081405D01*
X127456253Y-41310884D01*
X127512782Y-41534114D01*
X127605282Y-41744994D01*
X127731228Y-41937770D01*
X127731231Y-41937773D01*
X127887192Y-42107192D01*
X128004091Y-42198178D01*
X128072959Y-42251780D01*
X128071976Y-42253041D01*
X128112683Y-42300749D01*
X128122100Y-42369981D01*
X128092592Y-42433314D01*
X128072636Y-42450605D01*
X128072959Y-42451020D01*
X127887194Y-42595606D01*
X127887189Y-42595611D01*
X127731228Y-42765029D01*
X127605282Y-42957805D01*
X127512782Y-43168685D01*
X127456253Y-43391915D01*
X127437238Y-43621394D01*
X127437238Y-43621405D01*
X127456253Y-43850884D01*
X127512782Y-44074114D01*
X127605282Y-44284994D01*
X127731228Y-44477770D01*
X127731231Y-44477773D01*
X127887192Y-44647192D01*
X127947141Y-44693852D01*
X128072959Y-44791780D01*
X128071976Y-44793041D01*
X128112683Y-44840749D01*
X128122100Y-44909981D01*
X128092592Y-44973314D01*
X128072636Y-44990605D01*
X128072959Y-44991020D01*
X127887194Y-45135606D01*
X127887189Y-45135611D01*
X127731228Y-45305029D01*
X127605282Y-45497805D01*
X127512782Y-45708685D01*
X127456253Y-45931915D01*
X127437238Y-46161394D01*
X127437238Y-46161405D01*
X127456253Y-46390884D01*
X127512782Y-46614114D01*
X127605282Y-46824994D01*
X127731228Y-47017770D01*
X127731231Y-47017773D01*
X127887192Y-47187192D01*
X127990871Y-47267888D01*
X128060265Y-47321900D01*
X128068911Y-47328629D01*
X128271431Y-47438228D01*
X128376016Y-47474132D01*
X128489225Y-47512997D01*
X128489227Y-47512997D01*
X128489229Y-47512998D01*
X128716363Y-47550900D01*
X128716364Y-47550900D01*
X128946636Y-47550900D01*
X128946637Y-47550900D01*
X129173771Y-47512998D01*
X129391569Y-47438228D01*
X129594089Y-47328629D01*
X129775808Y-47187192D01*
X129931769Y-47017773D01*
X130057717Y-46824995D01*
X130069618Y-46797862D01*
X130114570Y-46744377D01*
X130181306Y-46723685D01*
X130248634Y-46742357D01*
X130270855Y-46759990D01*
X131964845Y-48453980D01*
X131998330Y-48515303D01*
X131993346Y-48584995D01*
X131988165Y-48596932D01*
X131900921Y-48772143D01*
X131900917Y-48772152D01*
X131845102Y-48968317D01*
X131826285Y-49171399D01*
X131826285Y-49171400D01*
X131845102Y-49374482D01*
X131900917Y-49570647D01*
X131900922Y-49570660D01*
X131991827Y-49753221D01*
X132062712Y-49847088D01*
X132087404Y-49912450D01*
X132072839Y-49980784D01*
X132062712Y-49996542D01*
X131992254Y-50089843D01*
X131901386Y-50272330D01*
X131901383Y-50272336D01*
X131845597Y-50468407D01*
X131845596Y-50468410D01*
X131826787Y-50671399D01*
X131826787Y-50671400D01*
X131845596Y-50874389D01*
X131845597Y-50874392D01*
X131901383Y-51070463D01*
X131901386Y-51070469D01*
X131992251Y-51252951D01*
X131994033Y-51255311D01*
X132636645Y-50612698D01*
X132631500Y-50631904D01*
X132631500Y-50710896D01*
X132651944Y-50787196D01*
X132691440Y-50855605D01*
X132747295Y-50911460D01*
X132815704Y-50950956D01*
X132892004Y-50971400D01*
X132970996Y-50971400D01*
X133047296Y-50950956D01*
X133115705Y-50911460D01*
X133171560Y-50855605D01*
X133211056Y-50787196D01*
X133231500Y-50710896D01*
X133231500Y-50631904D01*
X133226354Y-50612701D01*
X133868965Y-51255312D01*
X133870747Y-51252953D01*
X133870748Y-51252951D01*
X133961613Y-51070469D01*
X133961616Y-51070463D01*
X134017402Y-50874392D01*
X134017403Y-50874389D01*
X134036213Y-50671400D01*
X134036213Y-50671399D01*
X134017403Y-50468410D01*
X134017402Y-50468407D01*
X133961616Y-50272336D01*
X133961613Y-50272330D01*
X133870745Y-50089843D01*
X133800287Y-49996542D01*
X133775595Y-49931181D01*
X133790160Y-49862846D01*
X133800289Y-49847086D01*
X133819860Y-49821171D01*
X133875969Y-49779536D01*
X133918812Y-49771900D01*
X137494188Y-49771900D01*
X137561227Y-49791585D01*
X137593142Y-49821173D01*
X137612398Y-49846672D01*
X137637090Y-49912033D01*
X137622525Y-49980368D01*
X137612399Y-49996125D01*
X137541827Y-50089578D01*
X137450922Y-50272139D01*
X137450917Y-50272152D01*
X137395102Y-50468317D01*
X137376285Y-50671399D01*
X137376285Y-50671400D01*
X137395102Y-50874482D01*
X137450917Y-51070647D01*
X137450922Y-51070660D01*
X137541827Y-51253221D01*
X137664737Y-51415981D01*
X137815458Y-51553380D01*
X137815460Y-51553382D01*
X137882744Y-51595042D01*
X137988863Y-51660748D01*
X138179044Y-51734424D01*
X138379524Y-51771900D01*
X138379526Y-51771900D01*
X138583474Y-51771900D01*
X138583476Y-51771900D01*
X138783956Y-51734424D01*
X138974137Y-51660748D01*
X139147541Y-51553381D01*
X139298264Y-51415979D01*
X139421173Y-51253221D01*
X139512082Y-51070650D01*
X139567897Y-50874483D01*
X139586715Y-50671400D01*
X139586715Y-50671399D01*
X142926285Y-50671399D01*
X142926285Y-50671400D01*
X142945102Y-50874482D01*
X143000917Y-51070647D01*
X143000922Y-51070660D01*
X143091827Y-51253221D01*
X143214737Y-51415981D01*
X143365458Y-51553380D01*
X143365460Y-51553382D01*
X143432744Y-51595042D01*
X143538863Y-51660748D01*
X143729044Y-51734424D01*
X143929524Y-51771900D01*
X143929526Y-51771900D01*
X144133474Y-51771900D01*
X144133476Y-51771900D01*
X144333956Y-51734424D01*
X144524137Y-51660748D01*
X144697541Y-51553381D01*
X144848264Y-51415979D01*
X144971173Y-51253221D01*
X145062082Y-51070650D01*
X145117897Y-50874483D01*
X145136715Y-50671400D01*
X145117897Y-50468317D01*
X145062082Y-50272150D01*
X144971173Y-50089579D01*
X144900286Y-49995710D01*
X144875595Y-49930350D01*
X144890160Y-49862015D01*
X144900288Y-49846256D01*
X144970745Y-49752957D01*
X145061613Y-49570469D01*
X145061616Y-49570463D01*
X145117402Y-49374392D01*
X145117403Y-49374389D01*
X145136213Y-49171400D01*
X145136213Y-49171399D01*
X145117403Y-48968410D01*
X145117402Y-48968407D01*
X145061616Y-48772336D01*
X145061613Y-48772330D01*
X144970749Y-48589849D01*
X144970747Y-48589847D01*
X144968965Y-48587487D01*
X144326355Y-49230096D01*
X144331500Y-49210896D01*
X144331500Y-49131904D01*
X144311056Y-49055604D01*
X144271560Y-48987195D01*
X144215705Y-48931340D01*
X144147296Y-48891844D01*
X144070996Y-48871400D01*
X143992004Y-48871400D01*
X143915704Y-48891844D01*
X143847295Y-48931340D01*
X143791440Y-48987195D01*
X143751944Y-49055604D01*
X143731500Y-49131904D01*
X143731500Y-49210896D01*
X143736645Y-49230099D01*
X143094033Y-48587487D01*
X143092255Y-48589842D01*
X143092254Y-48589843D01*
X143001386Y-48772330D01*
X143001383Y-48772336D01*
X142945597Y-48968407D01*
X142945596Y-48968410D01*
X142926787Y-49171399D01*
X142926787Y-49171400D01*
X142945596Y-49374389D01*
X142945597Y-49374392D01*
X143001383Y-49570463D01*
X143001386Y-49570469D01*
X143092254Y-49752956D01*
X143162712Y-49846257D01*
X143187404Y-49911618D01*
X143172839Y-49979953D01*
X143162712Y-49995710D01*
X143091828Y-50089575D01*
X143000922Y-50272139D01*
X143000917Y-50272152D01*
X142945102Y-50468317D01*
X142926285Y-50671399D01*
X139586715Y-50671399D01*
X139567897Y-50468317D01*
X139512082Y-50272150D01*
X139421173Y-50089579D01*
X139350600Y-49996125D01*
X139325909Y-49930766D01*
X139340474Y-49862431D01*
X139350601Y-49846673D01*
X139350602Y-49846672D01*
X139421173Y-49753221D01*
X139512082Y-49570650D01*
X139567897Y-49374483D01*
X139586715Y-49171400D01*
X139567897Y-48968317D01*
X139512082Y-48772150D01*
X139503644Y-48755205D01*
X139421304Y-48589843D01*
X139421173Y-48589579D01*
X139318774Y-48453980D01*
X139298262Y-48426818D01*
X139147541Y-48289419D01*
X139147539Y-48289417D01*
X139063137Y-48237158D01*
X143450811Y-48237158D01*
X144031500Y-48817846D01*
X144031501Y-48817846D01*
X144612187Y-48237158D01*
X144523913Y-48182501D01*
X144523911Y-48182500D01*
X144333821Y-48108860D01*
X144133428Y-48071400D01*
X143929572Y-48071400D01*
X143729178Y-48108860D01*
X143539088Y-48182500D01*
X143539081Y-48182504D01*
X143450812Y-48237157D01*
X143450811Y-48237158D01*
X139063137Y-48237158D01*
X138974142Y-48182055D01*
X138974135Y-48182051D01*
X138879046Y-48145214D01*
X138783956Y-48108376D01*
X138583476Y-48070900D01*
X138379524Y-48070900D01*
X138179044Y-48108376D01*
X138179041Y-48108376D01*
X138179041Y-48108377D01*
X137988864Y-48182051D01*
X137988857Y-48182055D01*
X137815460Y-48289417D01*
X137815458Y-48289419D01*
X137664737Y-48426818D01*
X137593142Y-48521627D01*
X137537033Y-48563263D01*
X137494188Y-48570900D01*
X134403065Y-48570900D01*
X134336026Y-48551215D01*
X134295677Y-48508899D01*
X134262021Y-48450603D01*
X134145885Y-48334467D01*
X134145874Y-48334457D01*
X133771172Y-47959755D01*
X133771170Y-47959752D01*
X133652299Y-47840881D01*
X133652291Y-47840875D01*
X133564371Y-47790115D01*
X133564370Y-47790115D01*
X133531128Y-47770923D01*
X133515367Y-47761823D01*
X133362639Y-47720899D01*
X133204525Y-47720899D01*
X133196929Y-47720899D01*
X133196913Y-47720900D01*
X132981597Y-47720900D01*
X132914558Y-47701215D01*
X132893916Y-47684581D01*
X130657319Y-45447984D01*
X130623834Y-45386661D01*
X130621000Y-45360303D01*
X130621000Y-40677959D01*
X130621001Y-40677946D01*
X130621001Y-40509845D01*
X130621001Y-40509843D01*
X130580077Y-40357115D01*
X130531736Y-40273387D01*
X130501020Y-40220184D01*
X130389216Y-40108380D01*
X130389215Y-40108379D01*
X130384885Y-40104049D01*
X130384874Y-40104039D01*
X129914819Y-39633984D01*
X129881334Y-39572661D01*
X129886318Y-39502969D01*
X129898688Y-39478486D01*
X130016217Y-39298595D01*
X130108717Y-39087716D01*
X130165246Y-38864488D01*
X130174623Y-38751320D01*
X130184262Y-38635005D01*
X130184262Y-38634994D01*
X130166357Y-38418921D01*
X130165246Y-38405512D01*
X130108717Y-38182284D01*
X130016217Y-37971405D01*
X129933721Y-37845135D01*
X129890271Y-37778629D01*
X129820744Y-37703103D01*
X129734308Y-37609208D01*
X129581515Y-37490285D01*
X129548541Y-37464620D01*
X129549428Y-37463480D01*
X129508363Y-37415366D01*
X129498938Y-37346135D01*
X129528437Y-37282798D01*
X129548571Y-37265352D01*
X129548266Y-37264960D01*
X129580958Y-37239513D01*
X129580959Y-37239511D01*
X128925942Y-36584494D01*
X128986081Y-36568381D01*
X129101920Y-36501502D01*
X129196502Y-36406920D01*
X129263381Y-36291081D01*
X129279495Y-36230942D01*
X129933238Y-36884685D01*
X130015772Y-36758359D01*
X130015777Y-36758351D01*
X130108242Y-36547553D01*
X130164750Y-36324408D01*
X130164752Y-36324396D01*
X130183760Y-36095005D01*
X130183760Y-36094994D01*
X130164752Y-35865603D01*
X130164750Y-35865591D01*
X130108242Y-35642446D01*
X130015774Y-35431642D01*
X129933238Y-35305313D01*
X129279494Y-35959057D01*
X129263381Y-35898919D01*
X129196502Y-35783080D01*
X129101920Y-35688498D01*
X128986081Y-35621619D01*
X128925941Y-35605504D01*
X129580958Y-34950486D01*
X129580958Y-34950484D01*
X129548267Y-34925040D01*
X129549209Y-34923829D01*
X129508355Y-34875947D01*
X129498941Y-34806714D01*
X129528450Y-34743382D01*
X129548820Y-34725738D01*
X129548541Y-34725380D01*
X129629528Y-34662345D01*
X129734308Y-34580792D01*
X129890269Y-34411373D01*
X130016217Y-34218595D01*
X130108717Y-34007716D01*
X130165246Y-33784488D01*
X130184262Y-33555000D01*
X130182987Y-33539616D01*
X130165246Y-33325517D01*
X130165246Y-33325512D01*
X130149944Y-33265086D01*
X130152569Y-33195267D01*
X130192525Y-33137950D01*
X130257126Y-33111333D01*
X130325862Y-33123867D01*
X130357831Y-33146966D01*
X132246639Y-35035774D01*
X132246649Y-35035785D01*
X132250979Y-35040115D01*
X132250980Y-35040116D01*
X132362784Y-35151920D01*
X132449595Y-35202039D01*
X132449597Y-35202041D01*
X132483131Y-35221402D01*
X132499715Y-35230977D01*
X132652442Y-35271900D01*
X132652443Y-35271900D01*
X132652446Y-35271900D01*
X132659093Y-35273681D01*
X132718753Y-35310046D01*
X132749283Y-35372892D01*
X132751000Y-35393456D01*
X132751000Y-41180562D01*
X132746775Y-41212655D01*
X132730999Y-41271532D01*
X132730999Y-41439635D01*
X132731000Y-41439648D01*
X132731000Y-44634730D01*
X132730999Y-44634748D01*
X132730999Y-44800454D01*
X132730998Y-44800454D01*
X132771923Y-44953185D01*
X132795585Y-44994167D01*
X132795586Y-44994171D01*
X132795587Y-44994171D01*
X132850979Y-45090114D01*
X132850981Y-45090117D01*
X132969849Y-45208985D01*
X132969854Y-45208989D01*
X135662784Y-47901920D01*
X135662786Y-47901921D01*
X135662790Y-47901924D01*
X135750714Y-47952686D01*
X135799716Y-47980977D01*
X135952443Y-48021901D01*
X135952445Y-48021901D01*
X136118154Y-48021901D01*
X136118170Y-48021900D01*
X136499088Y-48021900D01*
X136566127Y-48041585D01*
X136576403Y-48048955D01*
X136579236Y-48051214D01*
X136579238Y-48051216D01*
X136731978Y-48147189D01*
X136851907Y-48189154D01*
X136902245Y-48206768D01*
X136902250Y-48206769D01*
X137081496Y-48226965D01*
X137081500Y-48226965D01*
X137081504Y-48226965D01*
X137260749Y-48206769D01*
X137260752Y-48206768D01*
X137260755Y-48206768D01*
X137431022Y-48147189D01*
X137583762Y-48051216D01*
X137711316Y-47923662D01*
X137807289Y-47770922D01*
X137866868Y-47600655D01*
X137872474Y-47550900D01*
X137887065Y-47421403D01*
X137887065Y-47421396D01*
X137866869Y-47242150D01*
X137866868Y-47242145D01*
X137818314Y-47103385D01*
X137807289Y-47071878D01*
X137792346Y-47048097D01*
X137711315Y-46919137D01*
X137583762Y-46791584D01*
X137431023Y-46695611D01*
X137260754Y-46636031D01*
X137260749Y-46636030D01*
X137081504Y-46615835D01*
X137081496Y-46615835D01*
X136902250Y-46636030D01*
X136902245Y-46636031D01*
X136731976Y-46695611D01*
X136579236Y-46791585D01*
X136576403Y-46793845D01*
X136574224Y-46794734D01*
X136573342Y-46795289D01*
X136573244Y-46795134D01*
X136511717Y-46820255D01*
X136499088Y-46820900D01*
X136331598Y-46820900D01*
X136264559Y-46801215D01*
X136243917Y-46784581D01*
X134462871Y-45003535D01*
X141794500Y-45003535D01*
X141794500Y-47299270D01*
X141794501Y-47299276D01*
X141800908Y-47358883D01*
X141851202Y-47493728D01*
X141851206Y-47493735D01*
X141937452Y-47608944D01*
X141937455Y-47608947D01*
X142052664Y-47695193D01*
X142052671Y-47695197D01*
X142187517Y-47745491D01*
X142187516Y-47745491D01*
X142194444Y-47746235D01*
X142247127Y-47751900D01*
X144542872Y-47751899D01*
X144602483Y-47745491D01*
X144737331Y-47695196D01*
X144852546Y-47608946D01*
X144938796Y-47493731D01*
X144989091Y-47358883D01*
X144995500Y-47299273D01*
X144995499Y-45003528D01*
X144989091Y-44943917D01*
X144972695Y-44899958D01*
X144938797Y-44809071D01*
X144938793Y-44809064D01*
X144852547Y-44693855D01*
X144852544Y-44693852D01*
X144737335Y-44607606D01*
X144737328Y-44607602D01*
X144602482Y-44557308D01*
X144602483Y-44557308D01*
X144542883Y-44550901D01*
X144542881Y-44550900D01*
X144542873Y-44550900D01*
X144542864Y-44550900D01*
X142247129Y-44550900D01*
X142247123Y-44550901D01*
X142187516Y-44557308D01*
X142052671Y-44607602D01*
X142052664Y-44607606D01*
X141937455Y-44693852D01*
X141937452Y-44693855D01*
X141851206Y-44809064D01*
X141851202Y-44809071D01*
X141800908Y-44943917D01*
X141794501Y-45003516D01*
X141794501Y-45003523D01*
X141794500Y-45003535D01*
X134462871Y-45003535D01*
X133968319Y-44508983D01*
X133934834Y-44447660D01*
X133932000Y-44421302D01*
X133932000Y-41500613D01*
X133936225Y-41468520D01*
X133943961Y-41439648D01*
X133952000Y-41409647D01*
X133952000Y-41251532D01*
X133952000Y-35991400D01*
X141789551Y-35991400D01*
X141809317Y-36242551D01*
X141868126Y-36487510D01*
X141964533Y-36720259D01*
X142096160Y-36935053D01*
X142096161Y-36935056D01*
X142111623Y-36953159D01*
X142259776Y-37126624D01*
X142391950Y-37239511D01*
X142451343Y-37290238D01*
X142451346Y-37290239D01*
X142666140Y-37421866D01*
X142878885Y-37509987D01*
X142898889Y-37518273D01*
X143143852Y-37577083D01*
X143395000Y-37596849D01*
X143646148Y-37577083D01*
X143891111Y-37518273D01*
X144123859Y-37421866D01*
X144338659Y-37290236D01*
X144530224Y-37126624D01*
X144693836Y-36935059D01*
X144825466Y-36720259D01*
X144921873Y-36487511D01*
X144980683Y-36242548D01*
X145000449Y-35991400D01*
X144980683Y-35740252D01*
X144921873Y-35495289D01*
X144895510Y-35431642D01*
X144825466Y-35262540D01*
X144693839Y-35047746D01*
X144693838Y-35047743D01*
X144610772Y-34950486D01*
X144530224Y-34856176D01*
X144373392Y-34722229D01*
X144338656Y-34692561D01*
X144338653Y-34692560D01*
X144123859Y-34560933D01*
X143891110Y-34464526D01*
X143646151Y-34405717D01*
X143395000Y-34385951D01*
X143143848Y-34405717D01*
X142898889Y-34464526D01*
X142666140Y-34560933D01*
X142451346Y-34692560D01*
X142451343Y-34692561D01*
X142259776Y-34856176D01*
X142096161Y-35047743D01*
X142096160Y-35047746D01*
X141964533Y-35262540D01*
X141868126Y-35495289D01*
X141809317Y-35740248D01*
X141789551Y-35991400D01*
X133952000Y-35991400D01*
X133952000Y-34830459D01*
X133952001Y-34830446D01*
X133952001Y-34662345D01*
X133952001Y-34662343D01*
X133911077Y-34509615D01*
X133876922Y-34450457D01*
X133832020Y-34372684D01*
X133720216Y-34260880D01*
X133650216Y-34190880D01*
X133650214Y-34190879D01*
X133650209Y-34190875D01*
X133561423Y-34139615D01*
X133561422Y-34139615D01*
X133513285Y-34111823D01*
X133360557Y-34070899D01*
X133202443Y-34070899D01*
X133194847Y-34070899D01*
X133194831Y-34070900D01*
X133031597Y-34070900D01*
X132964558Y-34051215D01*
X132943916Y-34034581D01*
X130768319Y-31858984D01*
X130734834Y-31797661D01*
X130732000Y-31771303D01*
X130732000Y-24953812D01*
X130751685Y-24886773D01*
X130759055Y-24876497D01*
X130761310Y-24873667D01*
X130761316Y-24873662D01*
X130857289Y-24720922D01*
X130916868Y-24550655D01*
X130916869Y-24550649D01*
X130937065Y-24371403D01*
X130937065Y-24371396D01*
X130916869Y-24192150D01*
X130916868Y-24192145D01*
X130857288Y-24021876D01*
X130794455Y-23921878D01*
X130761316Y-23869138D01*
X130633762Y-23741584D01*
X130481023Y-23645611D01*
X130310754Y-23586031D01*
X130310750Y-23586030D01*
X130211934Y-23574897D01*
X130147520Y-23547831D01*
X130129364Y-23521394D01*
X132125857Y-23521394D01*
X132125857Y-23521405D01*
X132146390Y-23769212D01*
X132146392Y-23769224D01*
X132207436Y-24010281D01*
X132307326Y-24238006D01*
X132443333Y-24446182D01*
X132443336Y-24446185D01*
X132611756Y-24629138D01*
X132807991Y-24781874D01*
X133026690Y-24900228D01*
X133261886Y-24980971D01*
X133507165Y-25021900D01*
X133755835Y-25021900D01*
X134001114Y-24980971D01*
X134236310Y-24900228D01*
X134455009Y-24781874D01*
X134651244Y-24629138D01*
X134819664Y-24446185D01*
X134955673Y-24238007D01*
X135055563Y-24010281D01*
X135116608Y-23769221D01*
X135126851Y-23645611D01*
X135137143Y-23521405D01*
X135137143Y-23521394D01*
X138625857Y-23521394D01*
X138625857Y-23521405D01*
X138646390Y-23769212D01*
X138646392Y-23769224D01*
X138707436Y-24010281D01*
X138807326Y-24238006D01*
X138943333Y-24446182D01*
X138943336Y-24446185D01*
X139111756Y-24629138D01*
X139307991Y-24781874D01*
X139526690Y-24900228D01*
X139761886Y-24980971D01*
X140007165Y-25021900D01*
X140255835Y-25021900D01*
X140501114Y-24980971D01*
X140736310Y-24900228D01*
X140955009Y-24781874D01*
X141151244Y-24629138D01*
X141319664Y-24446185D01*
X141455673Y-24238007D01*
X141555563Y-24010281D01*
X141616608Y-23769221D01*
X141626851Y-23645611D01*
X141637143Y-23521405D01*
X141637143Y-23521394D01*
X141616609Y-23273587D01*
X141616607Y-23273575D01*
X141555563Y-23032518D01*
X141455673Y-22804793D01*
X141319666Y-22596617D01*
X141256234Y-22527712D01*
X141151244Y-22413662D01*
X140955009Y-22260926D01*
X140955007Y-22260925D01*
X140955006Y-22260924D01*
X140736311Y-22142572D01*
X140736302Y-22142569D01*
X140501116Y-22061829D01*
X140255835Y-22020900D01*
X140007165Y-22020900D01*
X139761883Y-22061829D01*
X139526697Y-22142569D01*
X139526688Y-22142572D01*
X139307993Y-22260924D01*
X139113596Y-22412230D01*
X139111756Y-22413662D01*
X139110174Y-22415381D01*
X138943333Y-22596617D01*
X138807326Y-22804793D01*
X138707436Y-23032518D01*
X138646392Y-23273575D01*
X138646390Y-23273587D01*
X138625857Y-23521394D01*
X135137143Y-23521394D01*
X135116609Y-23273587D01*
X135116607Y-23273575D01*
X135055563Y-23032518D01*
X134955673Y-22804793D01*
X134819666Y-22596617D01*
X134756234Y-22527712D01*
X134651244Y-22413662D01*
X134455009Y-22260926D01*
X134455007Y-22260925D01*
X134455006Y-22260924D01*
X134236311Y-22142572D01*
X134236302Y-22142569D01*
X134001116Y-22061829D01*
X133755835Y-22020900D01*
X133507165Y-22020900D01*
X133261883Y-22061829D01*
X133026697Y-22142569D01*
X133026688Y-22142572D01*
X132807993Y-22260924D01*
X132613596Y-22412230D01*
X132611756Y-22413662D01*
X132610174Y-22415381D01*
X132443333Y-22596617D01*
X132307326Y-22804793D01*
X132207436Y-23032518D01*
X132146392Y-23273575D01*
X132146390Y-23273587D01*
X132125857Y-23521394D01*
X130129364Y-23521394D01*
X130107965Y-23490236D01*
X130105828Y-23420399D01*
X130138135Y-23363998D01*
X133027952Y-20474181D01*
X133089273Y-20440698D01*
X133155892Y-20444582D01*
X133227850Y-20469286D01*
X133261885Y-20480971D01*
X133507165Y-20521900D01*
X133755835Y-20521900D01*
X134001114Y-20480971D01*
X134236310Y-20400228D01*
X134455009Y-20281874D01*
X134651244Y-20129138D01*
X134819664Y-19946185D01*
X134955673Y-19738007D01*
X135055563Y-19510281D01*
X135116608Y-19269221D01*
X135119358Y-19236031D01*
X135137143Y-19021405D01*
X135137143Y-19021394D01*
X135116609Y-18773587D01*
X135116607Y-18773575D01*
X135055563Y-18532518D01*
X134955673Y-18304793D01*
X134819666Y-18096617D01*
X134798057Y-18073144D01*
X134651244Y-17913662D01*
X134497183Y-17793751D01*
X134456372Y-17737043D01*
X134452697Y-17667270D01*
X134487328Y-17606587D01*
X134549270Y-17574260D01*
X134573347Y-17571900D01*
X139189653Y-17571900D01*
X139256692Y-17591585D01*
X139302447Y-17644389D01*
X139312391Y-17713547D01*
X139283366Y-17777103D01*
X139265821Y-17793748D01*
X139138292Y-17893007D01*
X139111757Y-17913661D01*
X138943333Y-18096617D01*
X138807326Y-18304793D01*
X138707436Y-18532518D01*
X138646392Y-18773575D01*
X138646390Y-18773587D01*
X138625857Y-19021394D01*
X138625857Y-19021405D01*
X138646390Y-19269212D01*
X138646392Y-19269224D01*
X138707436Y-19510281D01*
X138807326Y-19738006D01*
X138943333Y-19946182D01*
X138943336Y-19946185D01*
X139111756Y-20129138D01*
X139307991Y-20281874D01*
X139307993Y-20281875D01*
X139473420Y-20371400D01*
X139526690Y-20400228D01*
X139761886Y-20480971D01*
X140007165Y-20521900D01*
X140255835Y-20521900D01*
X140501114Y-20480971D01*
X140736310Y-20400228D01*
X140955009Y-20281874D01*
X141151244Y-20129138D01*
X141319664Y-19946185D01*
X141455673Y-19738007D01*
X141555563Y-19510281D01*
X141616608Y-19269221D01*
X141619358Y-19236031D01*
X141637143Y-19021405D01*
X141637143Y-19021394D01*
X141616609Y-18773587D01*
X141616607Y-18773575D01*
X141555563Y-18532518D01*
X141455673Y-18304793D01*
X141319666Y-18096617D01*
X141298057Y-18073144D01*
X141151244Y-17913662D01*
X140997183Y-17793751D01*
X140956372Y-17737043D01*
X140952697Y-17667270D01*
X140987328Y-17606587D01*
X141049270Y-17574260D01*
X141073347Y-17571900D01*
X143130638Y-17571900D01*
X143197677Y-17591585D01*
X143218319Y-17608219D01*
X143651971Y-18041871D01*
X143685456Y-18103194D01*
X143680472Y-18172886D01*
X143657519Y-18211310D01*
X143612327Y-18262841D01*
X143448428Y-18508134D01*
X143317949Y-18772719D01*
X143223121Y-19052069D01*
X143223118Y-19052083D01*
X143165568Y-19341409D01*
X143165564Y-19341436D01*
X143146271Y-19635792D01*
X143146271Y-19635807D01*
X143165564Y-19930163D01*
X143165565Y-19930173D01*
X143165566Y-19930180D01*
X143220201Y-20204854D01*
X143223118Y-20219516D01*
X143223121Y-20219530D01*
X143317949Y-20498880D01*
X143448425Y-20763460D01*
X143448429Y-20763467D01*
X143612325Y-21008755D01*
X143806841Y-21230558D01*
X144028644Y-21425074D01*
X144150392Y-21506423D01*
X144273935Y-21588972D01*
X144538523Y-21719452D01*
X144817878Y-21814281D01*
X145107220Y-21871834D01*
X145135488Y-21873686D01*
X145401593Y-21891129D01*
X145401600Y-21891129D01*
X145401607Y-21891129D01*
X145637275Y-21875681D01*
X145695980Y-21871834D01*
X145985322Y-21814281D01*
X146264677Y-21719452D01*
X146529265Y-21588972D01*
X146695821Y-21477682D01*
X146774544Y-21425082D01*
X146774544Y-21425081D01*
X146774557Y-21425073D01*
X146826092Y-21379877D01*
X146889467Y-21350478D01*
X146958683Y-21360008D01*
X146995527Y-21385427D01*
X147404781Y-21794681D01*
X147438266Y-21856004D01*
X147441100Y-21882362D01*
X147441100Y-89807289D01*
X147421415Y-89874328D01*
X147402620Y-89897080D01*
X139915275Y-97028291D01*
X139853154Y-97060272D01*
X139829755Y-97062500D01*
X21159700Y-97062500D01*
X21092661Y-97042815D01*
X21046906Y-96990011D01*
X21035700Y-96938500D01*
X21035700Y-86534995D01*
X24630233Y-86534995D01*
X24630233Y-86535004D01*
X24649273Y-86789079D01*
X24705968Y-87037477D01*
X24705973Y-87037494D01*
X24799058Y-87274671D01*
X24799057Y-87274671D01*
X24926454Y-87495327D01*
X24926461Y-87495338D01*
X24968452Y-87547991D01*
X24968453Y-87547992D01*
X25619152Y-86897292D01*
X25626049Y-86913942D01*
X25713599Y-87044970D01*
X25825030Y-87156401D01*
X25956058Y-87243951D01*
X25972705Y-87250846D01*
X25321813Y-87901738D01*
X25482616Y-88011371D01*
X25482624Y-88011376D01*
X25712176Y-88121921D01*
X25712174Y-88121921D01*
X25955652Y-88197024D01*
X25955658Y-88197026D01*
X26207595Y-88234999D01*
X26207604Y-88235000D01*
X26462396Y-88235000D01*
X26462404Y-88234999D01*
X26714341Y-88197026D01*
X26714347Y-88197024D01*
X26957824Y-88121921D01*
X27187376Y-88011376D01*
X27187377Y-88011375D01*
X27348185Y-87901738D01*
X26697294Y-87250846D01*
X26713942Y-87243951D01*
X26844970Y-87156401D01*
X26956401Y-87044970D01*
X27043951Y-86913942D01*
X27050846Y-86897294D01*
X27701544Y-87547992D01*
X27701546Y-87547991D01*
X27743544Y-87495330D01*
X27870941Y-87274671D01*
X27964026Y-87037494D01*
X27964031Y-87037477D01*
X28020726Y-86789079D01*
X28039767Y-86535004D01*
X28039767Y-86534995D01*
X28031052Y-86418711D01*
X33129500Y-86418711D01*
X33129500Y-86661288D01*
X33161161Y-86901785D01*
X33223947Y-87136104D01*
X33306333Y-87335000D01*
X33316776Y-87360212D01*
X33438064Y-87570289D01*
X33438066Y-87570292D01*
X33438067Y-87570293D01*
X33585733Y-87762736D01*
X33585739Y-87762743D01*
X33757256Y-87934260D01*
X33757263Y-87934266D01*
X33870321Y-88021018D01*
X33949711Y-88081936D01*
X34159788Y-88203224D01*
X34383900Y-88296054D01*
X34618211Y-88358838D01*
X34798586Y-88382584D01*
X34858711Y-88390500D01*
X34858712Y-88390500D01*
X35101289Y-88390500D01*
X35149388Y-88384167D01*
X35341789Y-88358838D01*
X35576100Y-88296054D01*
X35800212Y-88203224D01*
X36010289Y-88081936D01*
X36202738Y-87934265D01*
X36374265Y-87762738D01*
X36521936Y-87570289D01*
X36643224Y-87360212D01*
X36736054Y-87136100D01*
X36798838Y-86901789D01*
X36830500Y-86661288D01*
X36830500Y-86418712D01*
X36830500Y-86418711D01*
X88739500Y-86418711D01*
X88739500Y-86661288D01*
X88771161Y-86901785D01*
X88833947Y-87136104D01*
X88916333Y-87335000D01*
X88926776Y-87360212D01*
X89048064Y-87570289D01*
X89048066Y-87570292D01*
X89048067Y-87570293D01*
X89195733Y-87762736D01*
X89195739Y-87762743D01*
X89367256Y-87934260D01*
X89367263Y-87934266D01*
X89480321Y-88021018D01*
X89559711Y-88081936D01*
X89769788Y-88203224D01*
X89993900Y-88296054D01*
X90228211Y-88358838D01*
X90408586Y-88382584D01*
X90468711Y-88390500D01*
X90468712Y-88390500D01*
X90711289Y-88390500D01*
X90759388Y-88384167D01*
X90951789Y-88358838D01*
X91186100Y-88296054D01*
X91410212Y-88203224D01*
X91620289Y-88081936D01*
X91812738Y-87934265D01*
X91984265Y-87762738D01*
X92131936Y-87570289D01*
X92253224Y-87360212D01*
X92346054Y-87136100D01*
X92408838Y-86901789D01*
X92440500Y-86661288D01*
X92440500Y-86534995D01*
X97529732Y-86534995D01*
X97529732Y-86535004D01*
X97548777Y-86789154D01*
X97574485Y-86901789D01*
X97605492Y-87037637D01*
X97698607Y-87274888D01*
X97826041Y-87495612D01*
X97984950Y-87694877D01*
X98171783Y-87868232D01*
X98382366Y-88011805D01*
X98382371Y-88011807D01*
X98382372Y-88011808D01*
X98382373Y-88011809D01*
X98504328Y-88070538D01*
X98611992Y-88122387D01*
X98611993Y-88122387D01*
X98611996Y-88122389D01*
X98855542Y-88197513D01*
X99107565Y-88235500D01*
X99362435Y-88235500D01*
X99614458Y-88197513D01*
X99858004Y-88122389D01*
X100087634Y-88011805D01*
X100298217Y-87868232D01*
X100485050Y-87694877D01*
X100643959Y-87495612D01*
X100771393Y-87274888D01*
X100864508Y-87037637D01*
X100921222Y-86789157D01*
X100930804Y-86661288D01*
X100940268Y-86535004D01*
X100940268Y-86534995D01*
X100921222Y-86280845D01*
X100897797Y-86178214D01*
X100864508Y-86032363D01*
X100771393Y-85795112D01*
X100643959Y-85574388D01*
X100485050Y-85375123D01*
X100298217Y-85201768D01*
X100087634Y-85058195D01*
X100087630Y-85058193D01*
X100087627Y-85058191D01*
X100087626Y-85058190D01*
X99858006Y-84947612D01*
X99858008Y-84947612D01*
X99614466Y-84872489D01*
X99614462Y-84872488D01*
X99614458Y-84872487D01*
X99493231Y-84854214D01*
X99362440Y-84834500D01*
X99362435Y-84834500D01*
X99107565Y-84834500D01*
X99107559Y-84834500D01*
X98950609Y-84858157D01*
X98855542Y-84872487D01*
X98855539Y-84872488D01*
X98855533Y-84872489D01*
X98611992Y-84947612D01*
X98382373Y-85058190D01*
X98382372Y-85058191D01*
X98171782Y-85201768D01*
X97984952Y-85375121D01*
X97984950Y-85375123D01*
X97826041Y-85574388D01*
X97698608Y-85795109D01*
X97605492Y-86032362D01*
X97605490Y-86032369D01*
X97548777Y-86280845D01*
X97529732Y-86534995D01*
X92440500Y-86534995D01*
X92440500Y-86418712D01*
X92408838Y-86178211D01*
X92346054Y-85943900D01*
X92253224Y-85719788D01*
X92131936Y-85509711D01*
X91984265Y-85317262D01*
X91984260Y-85317256D01*
X91812743Y-85145739D01*
X91812736Y-85145733D01*
X91620293Y-84998067D01*
X91620292Y-84998066D01*
X91620289Y-84998064D01*
X91410212Y-84876776D01*
X91401031Y-84872973D01*
X91186104Y-84783947D01*
X90951785Y-84721161D01*
X90711289Y-84689500D01*
X90711288Y-84689500D01*
X90468712Y-84689500D01*
X90468711Y-84689500D01*
X90228214Y-84721161D01*
X89993895Y-84783947D01*
X89769794Y-84876773D01*
X89769785Y-84876777D01*
X89559706Y-84998067D01*
X89367263Y-85145733D01*
X89367256Y-85145739D01*
X89195739Y-85317256D01*
X89195733Y-85317263D01*
X89048067Y-85509706D01*
X89048064Y-85509710D01*
X89048064Y-85509711D01*
X89031817Y-85537851D01*
X88926777Y-85719785D01*
X88926773Y-85719794D01*
X88833947Y-85943895D01*
X88771161Y-86178214D01*
X88739500Y-86418711D01*
X36830500Y-86418711D01*
X36798838Y-86178211D01*
X36736054Y-85943900D01*
X36643224Y-85719788D01*
X36521936Y-85509711D01*
X36374265Y-85317262D01*
X36374260Y-85317256D01*
X36202743Y-85145739D01*
X36202736Y-85145733D01*
X36010293Y-84998067D01*
X36010292Y-84998066D01*
X36010289Y-84998064D01*
X35800212Y-84876776D01*
X35791031Y-84872973D01*
X35576104Y-84783947D01*
X35341785Y-84721161D01*
X35101289Y-84689500D01*
X35101288Y-84689500D01*
X34858712Y-84689500D01*
X34858711Y-84689500D01*
X34618214Y-84721161D01*
X34383895Y-84783947D01*
X34159794Y-84876773D01*
X34159785Y-84876777D01*
X33949706Y-84998067D01*
X33757263Y-85145733D01*
X33757256Y-85145739D01*
X33585739Y-85317256D01*
X33585733Y-85317263D01*
X33438067Y-85509706D01*
X33438064Y-85509710D01*
X33438064Y-85509711D01*
X33421817Y-85537851D01*
X33316777Y-85719785D01*
X33316773Y-85719794D01*
X33223947Y-85943895D01*
X33161161Y-86178214D01*
X33129500Y-86418711D01*
X28031052Y-86418711D01*
X28020726Y-86280920D01*
X27964031Y-86032522D01*
X27964026Y-86032505D01*
X27870941Y-85795328D01*
X27870942Y-85795328D01*
X27743545Y-85574672D01*
X27701545Y-85522006D01*
X27050846Y-86172705D01*
X27043951Y-86156058D01*
X26956401Y-86025030D01*
X26844970Y-85913599D01*
X26713942Y-85826049D01*
X26697293Y-85819152D01*
X27348185Y-85168260D01*
X27187384Y-85058628D01*
X27187376Y-85058623D01*
X26957823Y-84948078D01*
X26957825Y-84948078D01*
X26714347Y-84872975D01*
X26714341Y-84872973D01*
X26462404Y-84835000D01*
X26207595Y-84835000D01*
X25955658Y-84872973D01*
X25955652Y-84872975D01*
X25712175Y-84948078D01*
X25482622Y-85058625D01*
X25482609Y-85058632D01*
X25321813Y-85168259D01*
X25972706Y-85819152D01*
X25956058Y-85826049D01*
X25825030Y-85913599D01*
X25713599Y-86025030D01*
X25626049Y-86156058D01*
X25619152Y-86172706D01*
X24968452Y-85522006D01*
X24926457Y-85574667D01*
X24799058Y-85795328D01*
X24705973Y-86032505D01*
X24705968Y-86032522D01*
X24649273Y-86280920D01*
X24630233Y-86534995D01*
X21035700Y-86534995D01*
X21035700Y-77478216D01*
X105597485Y-77478216D01*
X105597485Y-80414584D01*
X105604421Y-80458374D01*
X105626640Y-80598660D01*
X105684227Y-80775898D01*
X105684229Y-80775904D01*
X105715697Y-80837661D01*
X105767533Y-80939394D01*
X105768842Y-80941962D01*
X105878378Y-81092727D01*
X105878382Y-81092732D01*
X106010167Y-81224517D01*
X106010172Y-81224521D01*
X106128234Y-81310297D01*
X106160941Y-81334060D01*
X106258833Y-81383939D01*
X106326995Y-81418670D01*
X106327001Y-81418672D01*
X106504240Y-81476259D01*
X106504243Y-81476260D01*
X106688316Y-81505415D01*
X106688317Y-81505415D01*
X106874683Y-81505415D01*
X106874684Y-81505415D01*
X107058757Y-81476260D01*
X107236004Y-81418670D01*
X107402059Y-81334060D01*
X107530426Y-81240795D01*
X107596229Y-81217317D01*
X107664283Y-81233142D01*
X107668587Y-81235688D01*
X107789084Y-81310297D01*
X107979178Y-81383939D01*
X108179572Y-81421400D01*
X108383428Y-81421400D01*
X108583822Y-81383939D01*
X108773912Y-81310299D01*
X108773916Y-81310297D01*
X108862186Y-81255641D01*
X108862186Y-81255640D01*
X108222800Y-80616254D01*
X108242004Y-80621400D01*
X108320996Y-80621400D01*
X108397296Y-80600956D01*
X108465705Y-80561460D01*
X108521560Y-80505605D01*
X108561056Y-80437196D01*
X108581500Y-80360896D01*
X108581500Y-80321400D01*
X108635053Y-80321400D01*
X109218965Y-80905312D01*
X109220747Y-80902953D01*
X109220748Y-80902951D01*
X109311613Y-80720469D01*
X109311616Y-80720463D01*
X109367402Y-80524392D01*
X109367403Y-80524389D01*
X109386213Y-80321400D01*
X109386213Y-80321399D01*
X109367403Y-80118410D01*
X109367402Y-80118407D01*
X109311616Y-79922336D01*
X109311613Y-79922330D01*
X109220749Y-79739849D01*
X109220747Y-79739847D01*
X109218965Y-79737487D01*
X108635053Y-80321400D01*
X108581500Y-80321400D01*
X108581500Y-80281904D01*
X108561056Y-80205604D01*
X108521560Y-80137195D01*
X108465705Y-80081340D01*
X108397296Y-80041844D01*
X108320996Y-80021400D01*
X108242004Y-80021400D01*
X108222801Y-80026545D01*
X108281500Y-79967847D01*
X108862187Y-79387158D01*
X108773913Y-79332501D01*
X108773911Y-79332500D01*
X108583821Y-79258860D01*
X108383428Y-79221400D01*
X108179571Y-79221400D01*
X108112299Y-79233975D01*
X108042784Y-79226944D01*
X107988106Y-79183446D01*
X107965624Y-79117292D01*
X107965515Y-79112086D01*
X107965515Y-78129415D01*
X107985200Y-78062376D01*
X108038004Y-78016621D01*
X108089515Y-78005415D01*
X114923485Y-78005415D01*
X114990524Y-78025100D01*
X115036279Y-78077904D01*
X115047485Y-78129415D01*
X115047485Y-78446475D01*
X115027800Y-78513514D01*
X114974996Y-78559269D01*
X114905838Y-78569213D01*
X114871080Y-78558857D01*
X114867769Y-78557313D01*
X114764730Y-78509265D01*
X114764726Y-78509264D01*
X114764722Y-78509262D01*
X114555646Y-78453241D01*
X114555642Y-78453240D01*
X114555641Y-78453240D01*
X114555640Y-78453239D01*
X114555635Y-78453239D01*
X114340002Y-78434374D01*
X114339998Y-78434374D01*
X114124364Y-78453239D01*
X114124353Y-78453241D01*
X113915277Y-78509262D01*
X113915268Y-78509266D01*
X113719089Y-78600745D01*
X113632516Y-78661365D01*
X113541770Y-78724906D01*
X113541768Y-78724907D01*
X113541765Y-78724910D01*
X113388710Y-78877965D01*
X113264545Y-79055289D01*
X113173066Y-79251468D01*
X113173062Y-79251477D01*
X113117041Y-79460553D01*
X113117039Y-79460564D01*
X113098174Y-79676198D01*
X113098174Y-79676201D01*
X113117039Y-79891835D01*
X113117041Y-79891846D01*
X113173062Y-80100922D01*
X113173064Y-80100926D01*
X113173065Y-80100930D01*
X113189976Y-80137195D01*
X113264545Y-80297110D01*
X113264546Y-80297112D01*
X113264547Y-80297113D01*
X113388706Y-80474430D01*
X113541770Y-80627494D01*
X113719087Y-80751653D01*
X113915270Y-80843135D01*
X114124359Y-80899160D01*
X114278388Y-80912635D01*
X114339998Y-80918026D01*
X114340000Y-80918026D01*
X114340002Y-80918026D01*
X114393910Y-80913309D01*
X114555641Y-80899160D01*
X114764730Y-80843135D01*
X114960913Y-80751653D01*
X115138230Y-80627494D01*
X115291294Y-80474430D01*
X115415453Y-80297113D01*
X115482714Y-80152871D01*
X115528885Y-80100433D01*
X115596078Y-80081281D01*
X115662959Y-80101496D01*
X115682776Y-80117596D01*
X119253297Y-83688117D01*
X119253302Y-83688121D01*
X119384807Y-83783664D01*
X119404071Y-83797660D01*
X119512621Y-83852969D01*
X119570125Y-83882270D01*
X119570131Y-83882272D01*
X119747370Y-83939859D01*
X119747373Y-83939860D01*
X119931446Y-83969015D01*
X120117814Y-83969015D01*
X120224393Y-83969015D01*
X120276797Y-83980632D01*
X120343504Y-84011739D01*
X120563308Y-84070635D01*
X120725230Y-84084801D01*
X120789998Y-84090468D01*
X120790000Y-84090468D01*
X120790002Y-84090468D01*
X120846673Y-84085509D01*
X121016692Y-84070635D01*
X121236496Y-84011739D01*
X121303202Y-83980632D01*
X121355607Y-83969015D01*
X122014553Y-83969015D01*
X122014554Y-83969015D01*
X122198627Y-83939860D01*
X122375874Y-83882270D01*
X122541929Y-83797660D01*
X122692704Y-83688116D01*
X125827045Y-80553775D01*
X125936589Y-80403000D01*
X126021199Y-80236945D01*
X126031382Y-80205604D01*
X126048285Y-80153583D01*
X126087722Y-80095907D01*
X126152080Y-80068708D01*
X126166216Y-80067900D01*
X130852188Y-80067900D01*
X130919227Y-80087585D01*
X130939869Y-80104219D01*
X131267767Y-80432117D01*
X131267772Y-80432121D01*
X131418536Y-80541657D01*
X131418538Y-80541658D01*
X131418541Y-80541660D01*
X131575274Y-80621520D01*
X131575275Y-80621521D01*
X131584588Y-80626266D01*
X131584596Y-80626270D01*
X131761842Y-80683860D01*
X131945916Y-80713015D01*
X131945917Y-80713015D01*
X137773183Y-80713015D01*
X137773184Y-80713015D01*
X137957257Y-80683860D01*
X138134504Y-80626270D01*
X138300559Y-80541660D01*
X138451334Y-80432116D01*
X138583116Y-80300334D01*
X138692660Y-80149559D01*
X138777270Y-79983504D01*
X138834860Y-79806257D01*
X138864015Y-79622184D01*
X138864015Y-79435816D01*
X138834860Y-79251743D01*
X138834774Y-79251477D01*
X138777272Y-79074501D01*
X138777270Y-79074495D01*
X138747969Y-79016991D01*
X138692660Y-78908441D01*
X138670518Y-78877965D01*
X138583121Y-78757672D01*
X138583117Y-78757667D01*
X138451332Y-78625882D01*
X138451327Y-78625878D01*
X138300562Y-78516342D01*
X138300561Y-78516341D01*
X138300559Y-78516340D01*
X138222234Y-78476431D01*
X138134504Y-78431729D01*
X138134498Y-78431727D01*
X137957259Y-78374140D01*
X137957260Y-78374140D01*
X137819202Y-78352273D01*
X137773184Y-78344985D01*
X137773183Y-78344985D01*
X132580897Y-78344985D01*
X132513858Y-78325300D01*
X132493216Y-78308666D01*
X132165317Y-77980767D01*
X132165312Y-77980763D01*
X132014547Y-77871227D01*
X132014546Y-77871226D01*
X132014544Y-77871225D01*
X131961345Y-77844118D01*
X131848489Y-77786614D01*
X131848483Y-77786612D01*
X131671244Y-77729025D01*
X131671245Y-77729025D01*
X131533187Y-77707158D01*
X131487169Y-77699870D01*
X131487168Y-77699870D01*
X128593131Y-77699870D01*
X128526092Y-77680185D01*
X128480337Y-77627381D01*
X128470393Y-77558223D01*
X128499418Y-77494667D01*
X128501882Y-77491907D01*
X128581164Y-77405785D01*
X128717173Y-77197607D01*
X128817063Y-76969881D01*
X128878108Y-76728821D01*
X128878158Y-76728216D01*
X128898643Y-76481005D01*
X128898643Y-76480994D01*
X128878109Y-76233187D01*
X128878107Y-76233175D01*
X128817063Y-75992118D01*
X128717173Y-75764393D01*
X128581166Y-75556217D01*
X128559557Y-75532744D01*
X128412744Y-75373262D01*
X128216509Y-75220526D01*
X128216507Y-75220525D01*
X128216506Y-75220524D01*
X127997811Y-75102172D01*
X127997802Y-75102169D01*
X127762616Y-75021429D01*
X127517335Y-74980500D01*
X127268665Y-74980500D01*
X127023383Y-75021429D01*
X126788197Y-75102169D01*
X126788188Y-75102172D01*
X126569493Y-75220524D01*
X126373257Y-75373261D01*
X126204833Y-75556217D01*
X126068826Y-75764393D01*
X125968936Y-75992118D01*
X125907892Y-76233175D01*
X125907890Y-76233187D01*
X125887357Y-76480994D01*
X125887357Y-76481005D01*
X125907890Y-76728812D01*
X125907892Y-76728824D01*
X125968936Y-76969881D01*
X126068826Y-77197606D01*
X126204833Y-77405782D01*
X126204836Y-77405785D01*
X126284099Y-77491888D01*
X126315021Y-77554541D01*
X126307161Y-77623968D01*
X126263014Y-77678123D01*
X126196596Y-77699814D01*
X126192869Y-77699870D01*
X125017113Y-77699870D01*
X124830745Y-77699870D01*
X124793930Y-77705701D01*
X124646668Y-77729025D01*
X124578688Y-77751113D01*
X124508847Y-77753108D01*
X124449014Y-77717027D01*
X124418187Y-77654326D01*
X124426152Y-77584912D01*
X124449138Y-77549203D01*
X124581164Y-77405785D01*
X124717173Y-77197607D01*
X124817063Y-76969881D01*
X124878108Y-76728821D01*
X124878158Y-76728216D01*
X124898643Y-76481005D01*
X124898643Y-76480994D01*
X124878109Y-76233187D01*
X124878107Y-76233175D01*
X124817063Y-75992118D01*
X124717173Y-75764393D01*
X124581166Y-75556217D01*
X124559557Y-75532744D01*
X124412744Y-75373262D01*
X124216509Y-75220526D01*
X124216507Y-75220525D01*
X124216506Y-75220524D01*
X123997811Y-75102172D01*
X123997802Y-75102169D01*
X123762616Y-75021429D01*
X123517335Y-74980500D01*
X123268665Y-74980500D01*
X123023383Y-75021429D01*
X122788197Y-75102169D01*
X122788188Y-75102172D01*
X122569493Y-75220524D01*
X122373257Y-75373261D01*
X122204833Y-75556217D01*
X122068826Y-75764393D01*
X121968936Y-75992118D01*
X121907892Y-76233175D01*
X121907890Y-76233187D01*
X121887357Y-76480994D01*
X121887357Y-76481005D01*
X121907890Y-76728812D01*
X121907892Y-76728824D01*
X121968936Y-76969881D01*
X122068826Y-77197606D01*
X122204833Y-77405782D01*
X122204836Y-77405785D01*
X122373256Y-77588738D01*
X122569491Y-77741474D01*
X122788190Y-77859828D01*
X123023386Y-77940571D01*
X123268665Y-77981500D01*
X123517335Y-77981500D01*
X123762614Y-77940571D01*
X123910737Y-77889719D01*
X123980535Y-77886570D01*
X124040957Y-77921656D01*
X124072817Y-77983838D01*
X124066002Y-78053375D01*
X124038683Y-78094680D01*
X124020812Y-78112551D01*
X124020807Y-78112557D01*
X123911271Y-78263322D01*
X123826658Y-78429380D01*
X123826656Y-78429386D01*
X123769069Y-78606624D01*
X123739914Y-78790701D01*
X123739914Y-79240643D01*
X123720229Y-79307682D01*
X123703595Y-79328324D01*
X122295223Y-80736695D01*
X122233900Y-80770180D01*
X122164208Y-80765196D01*
X122108275Y-80723324D01*
X122084014Y-80659821D01*
X122075141Y-80558400D01*
X122075139Y-80558389D01*
X122016269Y-80338682D01*
X122016264Y-80338668D01*
X121920136Y-80132521D01*
X121920132Y-80132513D01*
X121869025Y-80059526D01*
X121190000Y-80738551D01*
X121190000Y-80732339D01*
X121162741Y-80630606D01*
X121110080Y-80539394D01*
X121035606Y-80464920D01*
X120944394Y-80412259D01*
X120842661Y-80385000D01*
X120836448Y-80385000D01*
X121515472Y-79705974D01*
X121442478Y-79654863D01*
X121236331Y-79558735D01*
X121236317Y-79558730D01*
X121016610Y-79499860D01*
X121016599Y-79499858D01*
X120790002Y-79480034D01*
X120789998Y-79480034D01*
X120563400Y-79499858D01*
X120563389Y-79499860D01*
X120343682Y-79558730D01*
X120343673Y-79558734D01*
X120137516Y-79654866D01*
X120137512Y-79654868D01*
X120064526Y-79705973D01*
X120064526Y-79705974D01*
X120743553Y-80385000D01*
X120737339Y-80385000D01*
X120635606Y-80412259D01*
X120544394Y-80464920D01*
X120469920Y-80539394D01*
X120417259Y-80630606D01*
X120390000Y-80732339D01*
X120390000Y-80738552D01*
X119710974Y-80059526D01*
X119710973Y-80059526D01*
X119659868Y-80132512D01*
X119659866Y-80132516D01*
X119563734Y-80338673D01*
X119563731Y-80338680D01*
X119553603Y-80376480D01*
X119517238Y-80436140D01*
X119454391Y-80466669D01*
X119385015Y-80458374D01*
X119346147Y-80432067D01*
X117451834Y-78537754D01*
X117418349Y-78476431D01*
X117415515Y-78450073D01*
X117415515Y-76728216D01*
X117386359Y-76544139D01*
X117328772Y-76366901D01*
X117328770Y-76366895D01*
X117260637Y-76233179D01*
X117244160Y-76200841D01*
X117230164Y-76181577D01*
X117134621Y-76050072D01*
X117134617Y-76050067D01*
X117002832Y-75918282D01*
X117002827Y-75918278D01*
X116852062Y-75808742D01*
X116852061Y-75808741D01*
X116852059Y-75808740D01*
X116765024Y-75764393D01*
X116686004Y-75724129D01*
X116685998Y-75724127D01*
X116508759Y-75666540D01*
X116508760Y-75666540D01*
X116370702Y-75644673D01*
X116324684Y-75637385D01*
X107624684Y-75637385D01*
X107438316Y-75637385D01*
X107401501Y-75643216D01*
X107254239Y-75666540D01*
X107077001Y-75724127D01*
X107076995Y-75724129D01*
X106910937Y-75808742D01*
X106760172Y-75918278D01*
X106760167Y-75918282D01*
X105878382Y-76800067D01*
X105878378Y-76800072D01*
X105768842Y-76950837D01*
X105684229Y-77116895D01*
X105684227Y-77116901D01*
X105626640Y-77294139D01*
X105608957Y-77405785D01*
X105597485Y-77478216D01*
X21035700Y-77478216D01*
X21035700Y-73971399D01*
X105476285Y-73971399D01*
X105476285Y-73971400D01*
X105495102Y-74174482D01*
X105550917Y-74370647D01*
X105550922Y-74370660D01*
X105641827Y-74553221D01*
X105764737Y-74715981D01*
X105881084Y-74822044D01*
X105914672Y-74852664D01*
X105915458Y-74853380D01*
X105915460Y-74853382D01*
X105932504Y-74863935D01*
X106088863Y-74960748D01*
X106279044Y-75034424D01*
X106479524Y-75071900D01*
X106479526Y-75071900D01*
X106683474Y-75071900D01*
X106683476Y-75071900D01*
X106883956Y-75034424D01*
X107074137Y-74960748D01*
X107247541Y-74853381D01*
X107248323Y-74852667D01*
X107248781Y-74852444D01*
X107252115Y-74849927D01*
X107252607Y-74850578D01*
X107311119Y-74822044D01*
X107380507Y-74830231D01*
X107410973Y-74849809D01*
X107411188Y-74849526D01*
X107414927Y-74852350D01*
X107415416Y-74852664D01*
X107415763Y-74852980D01*
X107589084Y-74960297D01*
X107779178Y-75033939D01*
X107979572Y-75071400D01*
X108183428Y-75071400D01*
X108383822Y-75033939D01*
X108573912Y-74960299D01*
X108573916Y-74960297D01*
X108662186Y-74905641D01*
X108662186Y-74905640D01*
X108022800Y-74266254D01*
X108042004Y-74271400D01*
X108120996Y-74271400D01*
X108197296Y-74250956D01*
X108265705Y-74211460D01*
X108321560Y-74155605D01*
X108361056Y-74087196D01*
X108381500Y-74010896D01*
X108381500Y-73971400D01*
X108435053Y-73971400D01*
X109018965Y-74555312D01*
X109020747Y-74552953D01*
X109020748Y-74552951D01*
X109111613Y-74370469D01*
X109111616Y-74370463D01*
X109167402Y-74174392D01*
X109167403Y-74174389D01*
X109186213Y-73971400D01*
X109186213Y-73971399D01*
X109167403Y-73768410D01*
X109167402Y-73768407D01*
X109111616Y-73572336D01*
X109111613Y-73572330D01*
X109020749Y-73389849D01*
X109020747Y-73389847D01*
X109018965Y-73387487D01*
X108435053Y-73971400D01*
X108381500Y-73971400D01*
X108381500Y-73931904D01*
X108361056Y-73855604D01*
X108321560Y-73787195D01*
X108265705Y-73731340D01*
X108197296Y-73691844D01*
X108120996Y-73671400D01*
X108042004Y-73671400D01*
X108022801Y-73676545D01*
X108081500Y-73617847D01*
X108662187Y-73037158D01*
X108573913Y-72982501D01*
X108573911Y-72982500D01*
X108383821Y-72908860D01*
X108183428Y-72871400D01*
X107979572Y-72871400D01*
X107779178Y-72908860D01*
X107589084Y-72982502D01*
X107415760Y-73089821D01*
X107415753Y-73089826D01*
X107415395Y-73090153D01*
X107415186Y-73090254D01*
X107411188Y-73093274D01*
X107410596Y-73092491D01*
X107352586Y-73120761D01*
X107283200Y-73112552D01*
X107252267Y-73092670D01*
X107252115Y-73092873D01*
X107249446Y-73090858D01*
X107248339Y-73090146D01*
X107247541Y-73089419D01*
X107247539Y-73089417D01*
X107074142Y-72982055D01*
X107074135Y-72982051D01*
X106979046Y-72945214D01*
X106883956Y-72908376D01*
X106683476Y-72870900D01*
X106479524Y-72870900D01*
X106279044Y-72908376D01*
X106279041Y-72908376D01*
X106279041Y-72908377D01*
X106088864Y-72982051D01*
X106088857Y-72982055D01*
X105915460Y-73089417D01*
X105915458Y-73089419D01*
X105764737Y-73226818D01*
X105641827Y-73389578D01*
X105550922Y-73572139D01*
X105550917Y-73572152D01*
X105495102Y-73768317D01*
X105476285Y-73971399D01*
X21035700Y-73971399D01*
X21035700Y-67234995D01*
X24629732Y-67234995D01*
X24629732Y-67235004D01*
X24648777Y-67489154D01*
X24648778Y-67489157D01*
X24705492Y-67737637D01*
X24798607Y-67974888D01*
X24926041Y-68195612D01*
X25084950Y-68394877D01*
X25271783Y-68568232D01*
X25482366Y-68711805D01*
X25482371Y-68711807D01*
X25482372Y-68711808D01*
X25482373Y-68711809D01*
X25604328Y-68770538D01*
X25711992Y-68822387D01*
X25711993Y-68822387D01*
X25711996Y-68822389D01*
X25955542Y-68897513D01*
X26207565Y-68935500D01*
X26462435Y-68935500D01*
X26714458Y-68897513D01*
X26958004Y-68822389D01*
X27187634Y-68711805D01*
X27398217Y-68568232D01*
X27585050Y-68394877D01*
X27743959Y-68195612D01*
X27871393Y-67974888D01*
X27964508Y-67737637D01*
X28021222Y-67489157D01*
X28040268Y-67235000D01*
X28031179Y-67113711D01*
X33129500Y-67113711D01*
X33129500Y-67356288D01*
X33161161Y-67596785D01*
X33223947Y-67831104D01*
X33316773Y-68055205D01*
X33316776Y-68055212D01*
X33438064Y-68265289D01*
X33438066Y-68265292D01*
X33438067Y-68265293D01*
X33585733Y-68457736D01*
X33585739Y-68457743D01*
X33757256Y-68629260D01*
X33757262Y-68629265D01*
X33949711Y-68776936D01*
X34159788Y-68898224D01*
X34383900Y-68991054D01*
X34618211Y-69053838D01*
X34798586Y-69077584D01*
X34858711Y-69085500D01*
X34858712Y-69085500D01*
X35101289Y-69085500D01*
X35149388Y-69079167D01*
X35341789Y-69053838D01*
X35576100Y-68991054D01*
X35800212Y-68898224D01*
X36010289Y-68776936D01*
X36202738Y-68629265D01*
X36374265Y-68457738D01*
X36521936Y-68265289D01*
X36643224Y-68055212D01*
X36736054Y-67831100D01*
X36798838Y-67596789D01*
X36830500Y-67356288D01*
X36830500Y-67113712D01*
X36830500Y-67113711D01*
X88739500Y-67113711D01*
X88739500Y-67356288D01*
X88771161Y-67596785D01*
X88833947Y-67831104D01*
X88926773Y-68055205D01*
X88926776Y-68055212D01*
X89048064Y-68265289D01*
X89048066Y-68265292D01*
X89048067Y-68265293D01*
X89195733Y-68457736D01*
X89195739Y-68457743D01*
X89367256Y-68629260D01*
X89367262Y-68629265D01*
X89559711Y-68776936D01*
X89769788Y-68898224D01*
X89993900Y-68991054D01*
X90228211Y-69053838D01*
X90408586Y-69077584D01*
X90468711Y-69085500D01*
X90468712Y-69085500D01*
X90711289Y-69085500D01*
X90759388Y-69079167D01*
X90951789Y-69053838D01*
X91186100Y-68991054D01*
X91410212Y-68898224D01*
X91620289Y-68776936D01*
X91812738Y-68629265D01*
X91984265Y-68457738D01*
X92131936Y-68265289D01*
X92253224Y-68055212D01*
X92346054Y-67831100D01*
X92408838Y-67596789D01*
X92440500Y-67356288D01*
X92440500Y-67234995D01*
X97529732Y-67234995D01*
X97529732Y-67235004D01*
X97548777Y-67489154D01*
X97548778Y-67489157D01*
X97605492Y-67737637D01*
X97698607Y-67974888D01*
X97826041Y-68195612D01*
X97984950Y-68394877D01*
X98171783Y-68568232D01*
X98382366Y-68711805D01*
X98382371Y-68711807D01*
X98382372Y-68711808D01*
X98382373Y-68711809D01*
X98504328Y-68770538D01*
X98611992Y-68822387D01*
X98611993Y-68822387D01*
X98611996Y-68822389D01*
X98855542Y-68897513D01*
X99107565Y-68935500D01*
X99362435Y-68935500D01*
X99614458Y-68897513D01*
X99858004Y-68822389D01*
X100087634Y-68711805D01*
X100298217Y-68568232D01*
X100485050Y-68394877D01*
X100643959Y-68195612D01*
X100771393Y-67974888D01*
X100864508Y-67737637D01*
X100921222Y-67489157D01*
X100940268Y-67235000D01*
X100921222Y-66980843D01*
X100864508Y-66732363D01*
X100771393Y-66495112D01*
X100643959Y-66274388D01*
X100485050Y-66075123D01*
X100298217Y-65901768D01*
X100087634Y-65758195D01*
X100087630Y-65758193D01*
X100087627Y-65758191D01*
X100087626Y-65758190D01*
X99858006Y-65647612D01*
X99858008Y-65647612D01*
X99614466Y-65572489D01*
X99614462Y-65572488D01*
X99614458Y-65572487D01*
X99493231Y-65554214D01*
X99362440Y-65534500D01*
X99362435Y-65534500D01*
X99107565Y-65534500D01*
X99107559Y-65534500D01*
X98950609Y-65558157D01*
X98855542Y-65572487D01*
X98855539Y-65572488D01*
X98855533Y-65572489D01*
X98611992Y-65647612D01*
X98382373Y-65758190D01*
X98382372Y-65758191D01*
X98171782Y-65901768D01*
X97984952Y-66075121D01*
X97984950Y-66075123D01*
X97826041Y-66274388D01*
X97698608Y-66495109D01*
X97605492Y-66732362D01*
X97605490Y-66732369D01*
X97548777Y-66980845D01*
X97529732Y-67234995D01*
X92440500Y-67234995D01*
X92440500Y-67113712D01*
X92408838Y-66873211D01*
X92346054Y-66638900D01*
X92253224Y-66414788D01*
X92131936Y-66204711D01*
X91984265Y-66012262D01*
X91984260Y-66012256D01*
X91812743Y-65840739D01*
X91812736Y-65840733D01*
X91620293Y-65693067D01*
X91620292Y-65693066D01*
X91620289Y-65693064D01*
X91411445Y-65572488D01*
X91410214Y-65571777D01*
X91410205Y-65571773D01*
X91186104Y-65478947D01*
X90951785Y-65416161D01*
X90711289Y-65384500D01*
X90711288Y-65384500D01*
X90468712Y-65384500D01*
X90468711Y-65384500D01*
X90228214Y-65416161D01*
X89993895Y-65478947D01*
X89769794Y-65571773D01*
X89769785Y-65571777D01*
X89559706Y-65693067D01*
X89367263Y-65840733D01*
X89367256Y-65840739D01*
X89195739Y-66012256D01*
X89195733Y-66012263D01*
X89048067Y-66204706D01*
X88926777Y-66414785D01*
X88926773Y-66414794D01*
X88833947Y-66638895D01*
X88771161Y-66873214D01*
X88739500Y-67113711D01*
X36830500Y-67113711D01*
X36798838Y-66873211D01*
X36736054Y-66638900D01*
X36643224Y-66414788D01*
X36521936Y-66204711D01*
X36374265Y-66012262D01*
X36374260Y-66012256D01*
X36202743Y-65840739D01*
X36202736Y-65840733D01*
X36010293Y-65693067D01*
X36010292Y-65693066D01*
X36010289Y-65693064D01*
X35801445Y-65572488D01*
X35800214Y-65571777D01*
X35800205Y-65571773D01*
X35576104Y-65478947D01*
X35341785Y-65416161D01*
X35101289Y-65384500D01*
X35101288Y-65384500D01*
X34858712Y-65384500D01*
X34858711Y-65384500D01*
X34618214Y-65416161D01*
X34383895Y-65478947D01*
X34159794Y-65571773D01*
X34159785Y-65571777D01*
X33949706Y-65693067D01*
X33757263Y-65840733D01*
X33757256Y-65840739D01*
X33585739Y-66012256D01*
X33585733Y-66012263D01*
X33438067Y-66204706D01*
X33316777Y-66414785D01*
X33316773Y-66414794D01*
X33223947Y-66638895D01*
X33161161Y-66873214D01*
X33129500Y-67113711D01*
X28031179Y-67113711D01*
X28021222Y-66980843D01*
X27964508Y-66732363D01*
X27871393Y-66495112D01*
X27743959Y-66274388D01*
X27585050Y-66075123D01*
X27398217Y-65901768D01*
X27187634Y-65758195D01*
X27187630Y-65758193D01*
X27187627Y-65758191D01*
X27187626Y-65758190D01*
X26958006Y-65647612D01*
X26958008Y-65647612D01*
X26714466Y-65572489D01*
X26714462Y-65572488D01*
X26714458Y-65572487D01*
X26593231Y-65554214D01*
X26462440Y-65534500D01*
X26462435Y-65534500D01*
X26207565Y-65534500D01*
X26207559Y-65534500D01*
X26050609Y-65558157D01*
X25955542Y-65572487D01*
X25955539Y-65572488D01*
X25955533Y-65572489D01*
X25711992Y-65647612D01*
X25482373Y-65758190D01*
X25482372Y-65758191D01*
X25271782Y-65901768D01*
X25084952Y-66075121D01*
X25084950Y-66075123D01*
X24926041Y-66274388D01*
X24798608Y-66495109D01*
X24705492Y-66732362D01*
X24705490Y-66732369D01*
X24648777Y-66980845D01*
X24629732Y-67234995D01*
X21035700Y-67234995D01*
X21035700Y-47934995D01*
X24629732Y-47934995D01*
X24629732Y-47935004D01*
X24648777Y-48189154D01*
X24703022Y-48426818D01*
X24705492Y-48437637D01*
X24798607Y-48674888D01*
X24926041Y-48895612D01*
X25084950Y-49094877D01*
X25271783Y-49268232D01*
X25482366Y-49411805D01*
X25482371Y-49411807D01*
X25482372Y-49411808D01*
X25482373Y-49411809D01*
X25594432Y-49465773D01*
X25711992Y-49522387D01*
X25711993Y-49522387D01*
X25711996Y-49522389D01*
X25955542Y-49597513D01*
X26207565Y-49635500D01*
X26462435Y-49635500D01*
X26714458Y-49597513D01*
X26958004Y-49522389D01*
X27187634Y-49411805D01*
X27398217Y-49268232D01*
X27585050Y-49094877D01*
X27743959Y-48895612D01*
X27871393Y-48674888D01*
X27964508Y-48437637D01*
X28021222Y-48189157D01*
X28031559Y-48051214D01*
X28040268Y-47935004D01*
X28040268Y-47934995D01*
X28031179Y-47813711D01*
X33129500Y-47813711D01*
X33129500Y-48056288D01*
X33161161Y-48296785D01*
X33223947Y-48531104D01*
X33316773Y-48755205D01*
X33316777Y-48755214D01*
X33338974Y-48793661D01*
X33438064Y-48965289D01*
X33438066Y-48965292D01*
X33438067Y-48965293D01*
X33585733Y-49157736D01*
X33585739Y-49157743D01*
X33757256Y-49329260D01*
X33757263Y-49329266D01*
X33765733Y-49335765D01*
X33949711Y-49476936D01*
X34159788Y-49598224D01*
X34383900Y-49691054D01*
X34618211Y-49753838D01*
X34798586Y-49777584D01*
X34858711Y-49785500D01*
X34858712Y-49785500D01*
X35101289Y-49785500D01*
X35149388Y-49779167D01*
X35341789Y-49753838D01*
X35576100Y-49691054D01*
X35800212Y-49598224D01*
X36010289Y-49476936D01*
X36202738Y-49329265D01*
X36374265Y-49157738D01*
X36521936Y-48965289D01*
X36643224Y-48755212D01*
X36736054Y-48531100D01*
X36798838Y-48296789D01*
X36830500Y-48056288D01*
X36830500Y-47813712D01*
X36830500Y-47813711D01*
X88739500Y-47813711D01*
X88739500Y-48056288D01*
X88771161Y-48296785D01*
X88833947Y-48531104D01*
X88926773Y-48755205D01*
X88926777Y-48755214D01*
X88948974Y-48793661D01*
X89048064Y-48965289D01*
X89048066Y-48965292D01*
X89048067Y-48965293D01*
X89195733Y-49157736D01*
X89195739Y-49157743D01*
X89367256Y-49329260D01*
X89367263Y-49329266D01*
X89375733Y-49335765D01*
X89559711Y-49476936D01*
X89769788Y-49598224D01*
X89993900Y-49691054D01*
X90228211Y-49753838D01*
X90408586Y-49777584D01*
X90468711Y-49785500D01*
X90468712Y-49785500D01*
X90711289Y-49785500D01*
X90759388Y-49779167D01*
X90951789Y-49753838D01*
X91186100Y-49691054D01*
X91410212Y-49598224D01*
X91620289Y-49476936D01*
X91812738Y-49329265D01*
X91984265Y-49157738D01*
X92131936Y-48965289D01*
X92253224Y-48755212D01*
X92346054Y-48531100D01*
X92408838Y-48296789D01*
X92440500Y-48056288D01*
X92440500Y-47934995D01*
X97529732Y-47934995D01*
X97529732Y-47935004D01*
X97548777Y-48189154D01*
X97603022Y-48426818D01*
X97605492Y-48437637D01*
X97698607Y-48674888D01*
X97826041Y-48895612D01*
X97984950Y-49094877D01*
X98171783Y-49268232D01*
X98382366Y-49411805D01*
X98382371Y-49411807D01*
X98382372Y-49411808D01*
X98382373Y-49411809D01*
X98494432Y-49465773D01*
X98611992Y-49522387D01*
X98611993Y-49522387D01*
X98611996Y-49522389D01*
X98855542Y-49597513D01*
X99107565Y-49635500D01*
X99362435Y-49635500D01*
X99614458Y-49597513D01*
X99858004Y-49522389D01*
X100087634Y-49411805D01*
X100298217Y-49268232D01*
X100485050Y-49094877D01*
X100643959Y-48895612D01*
X100771393Y-48674888D01*
X100864508Y-48437637D01*
X100921222Y-48189157D01*
X100931559Y-48051214D01*
X100940268Y-47935004D01*
X100940268Y-47934995D01*
X100922298Y-47695197D01*
X100921222Y-47680843D01*
X100864508Y-47432363D01*
X100771393Y-47195112D01*
X100643959Y-46974388D01*
X100485050Y-46775123D01*
X100298217Y-46601768D01*
X100087634Y-46458195D01*
X100087630Y-46458193D01*
X100087627Y-46458191D01*
X100087626Y-46458190D01*
X99858006Y-46347612D01*
X99858008Y-46347612D01*
X99614466Y-46272489D01*
X99614462Y-46272488D01*
X99614458Y-46272487D01*
X99493231Y-46254214D01*
X99362440Y-46234500D01*
X99362435Y-46234500D01*
X99107565Y-46234500D01*
X99107559Y-46234500D01*
X98950609Y-46258157D01*
X98855542Y-46272487D01*
X98855539Y-46272488D01*
X98855533Y-46272489D01*
X98611992Y-46347612D01*
X98382373Y-46458190D01*
X98382372Y-46458191D01*
X98171782Y-46601768D01*
X97984952Y-46775121D01*
X97984950Y-46775123D01*
X97826041Y-46974388D01*
X97698608Y-47195109D01*
X97605492Y-47432362D01*
X97605490Y-47432369D01*
X97548777Y-47680845D01*
X97529732Y-47934995D01*
X92440500Y-47934995D01*
X92440500Y-47813712D01*
X92437393Y-47790115D01*
X92420335Y-47660539D01*
X92408838Y-47573211D01*
X92346054Y-47338900D01*
X92253224Y-47114788D01*
X92131936Y-46904711D01*
X91984265Y-46712262D01*
X91984260Y-46712256D01*
X91812743Y-46540739D01*
X91812736Y-46540733D01*
X91620293Y-46393067D01*
X91620292Y-46393066D01*
X91620289Y-46393064D01*
X91411445Y-46272488D01*
X91410214Y-46271777D01*
X91410205Y-46271773D01*
X91186104Y-46178947D01*
X90951785Y-46116161D01*
X90711289Y-46084500D01*
X90711288Y-46084500D01*
X90468712Y-46084500D01*
X90468711Y-46084500D01*
X90228214Y-46116161D01*
X89993895Y-46178947D01*
X89769794Y-46271773D01*
X89769785Y-46271777D01*
X89559706Y-46393067D01*
X89367263Y-46540733D01*
X89367256Y-46540739D01*
X89195739Y-46712256D01*
X89195733Y-46712263D01*
X89048067Y-46904706D01*
X88926777Y-47114785D01*
X88926773Y-47114794D01*
X88833947Y-47338895D01*
X88771161Y-47573214D01*
X88739500Y-47813711D01*
X36830500Y-47813711D01*
X36827393Y-47790115D01*
X36810335Y-47660539D01*
X36798838Y-47573211D01*
X36736054Y-47338900D01*
X36643224Y-47114788D01*
X36521936Y-46904711D01*
X36374265Y-46712262D01*
X36374260Y-46712256D01*
X36202743Y-46540739D01*
X36202736Y-46540733D01*
X36010293Y-46393067D01*
X36010292Y-46393066D01*
X36010289Y-46393064D01*
X35801445Y-46272488D01*
X35800214Y-46271777D01*
X35800205Y-46271773D01*
X35576104Y-46178947D01*
X35341785Y-46116161D01*
X35101289Y-46084500D01*
X35101288Y-46084500D01*
X34858712Y-46084500D01*
X34858711Y-46084500D01*
X34618214Y-46116161D01*
X34383895Y-46178947D01*
X34159794Y-46271773D01*
X34159785Y-46271777D01*
X33949706Y-46393067D01*
X33757263Y-46540733D01*
X33757256Y-46540739D01*
X33585739Y-46712256D01*
X33585733Y-46712263D01*
X33438067Y-46904706D01*
X33316777Y-47114785D01*
X33316773Y-47114794D01*
X33223947Y-47338895D01*
X33161161Y-47573214D01*
X33129500Y-47813711D01*
X28031179Y-47813711D01*
X28022298Y-47695197D01*
X28021222Y-47680843D01*
X27964508Y-47432363D01*
X27871393Y-47195112D01*
X27743959Y-46974388D01*
X27585050Y-46775123D01*
X27398217Y-46601768D01*
X27187634Y-46458195D01*
X27187630Y-46458193D01*
X27187627Y-46458191D01*
X27187626Y-46458190D01*
X26958006Y-46347612D01*
X26958008Y-46347612D01*
X26714466Y-46272489D01*
X26714462Y-46272488D01*
X26714458Y-46272487D01*
X26593231Y-46254214D01*
X26462440Y-46234500D01*
X26462435Y-46234500D01*
X26207565Y-46234500D01*
X26207559Y-46234500D01*
X26050609Y-46258157D01*
X25955542Y-46272487D01*
X25955539Y-46272488D01*
X25955533Y-46272489D01*
X25711992Y-46347612D01*
X25482373Y-46458190D01*
X25482372Y-46458191D01*
X25271782Y-46601768D01*
X25084952Y-46775121D01*
X25084950Y-46775123D01*
X24926041Y-46974388D01*
X24798608Y-47195109D01*
X24705492Y-47432362D01*
X24705490Y-47432369D01*
X24648777Y-47680845D01*
X24629732Y-47934995D01*
X21035700Y-47934995D01*
X21035700Y-28634995D01*
X24629732Y-28634995D01*
X24629732Y-28635004D01*
X24648777Y-28889154D01*
X24680041Y-29026132D01*
X24705492Y-29137637D01*
X24798607Y-29374888D01*
X24926041Y-29595612D01*
X25084950Y-29794877D01*
X25271783Y-29968232D01*
X25482366Y-30111805D01*
X25482371Y-30111807D01*
X25482372Y-30111808D01*
X25482373Y-30111809D01*
X25604328Y-30170538D01*
X25711992Y-30222387D01*
X25711993Y-30222387D01*
X25711996Y-30222389D01*
X25955542Y-30297513D01*
X26207565Y-30335500D01*
X26462435Y-30335500D01*
X26714458Y-30297513D01*
X26958004Y-30222389D01*
X27187634Y-30111805D01*
X27398217Y-29968232D01*
X27585050Y-29794877D01*
X27743959Y-29595612D01*
X27871393Y-29374888D01*
X27964508Y-29137637D01*
X28021222Y-28889157D01*
X28034727Y-28708939D01*
X28040268Y-28635004D01*
X28040268Y-28634995D01*
X28030804Y-28508711D01*
X33129500Y-28508711D01*
X33129500Y-28751288D01*
X33156857Y-28959093D01*
X33161162Y-28991789D01*
X33168854Y-29020496D01*
X33223947Y-29226104D01*
X33308984Y-29431400D01*
X33316776Y-29450212D01*
X33438064Y-29660289D01*
X33438066Y-29660292D01*
X33438067Y-29660293D01*
X33585733Y-29852736D01*
X33585739Y-29852743D01*
X33757256Y-30024260D01*
X33757263Y-30024266D01*
X33870321Y-30111018D01*
X33949711Y-30171936D01*
X34159788Y-30293224D01*
X34383900Y-30386054D01*
X34618211Y-30448838D01*
X34779981Y-30470135D01*
X34858711Y-30480500D01*
X34858712Y-30480500D01*
X35101289Y-30480500D01*
X35155766Y-30473328D01*
X35341789Y-30448838D01*
X35576100Y-30386054D01*
X35800212Y-30293224D01*
X36010289Y-30171936D01*
X36202738Y-30024265D01*
X36374265Y-29852738D01*
X36521936Y-29660289D01*
X36643224Y-29450212D01*
X36736054Y-29226100D01*
X36798838Y-28991789D01*
X36830500Y-28751288D01*
X36830500Y-28508712D01*
X36830500Y-28508711D01*
X88739500Y-28508711D01*
X88739500Y-28751288D01*
X88766857Y-28959093D01*
X88771162Y-28991789D01*
X88778854Y-29020496D01*
X88833947Y-29226104D01*
X88918984Y-29431400D01*
X88926776Y-29450212D01*
X89048064Y-29660289D01*
X89048066Y-29660292D01*
X89048067Y-29660293D01*
X89195733Y-29852736D01*
X89195739Y-29852743D01*
X89367256Y-30024260D01*
X89367263Y-30024266D01*
X89480321Y-30111018D01*
X89559711Y-30171936D01*
X89769788Y-30293224D01*
X89993900Y-30386054D01*
X90228211Y-30448838D01*
X90389981Y-30470135D01*
X90468711Y-30480500D01*
X90468712Y-30480500D01*
X90711289Y-30480500D01*
X90765766Y-30473328D01*
X90951789Y-30448838D01*
X91186100Y-30386054D01*
X91410212Y-30293224D01*
X91620289Y-30171936D01*
X91812738Y-30024265D01*
X91984265Y-29852738D01*
X92131936Y-29660289D01*
X92253224Y-29450212D01*
X92346054Y-29226100D01*
X92408838Y-28991789D01*
X92440500Y-28751288D01*
X92440500Y-28634995D01*
X97529732Y-28634995D01*
X97529732Y-28635004D01*
X97548777Y-28889154D01*
X97580041Y-29026132D01*
X97605492Y-29137637D01*
X97698607Y-29374888D01*
X97826041Y-29595612D01*
X97984950Y-29794877D01*
X98171783Y-29968232D01*
X98382366Y-30111805D01*
X98382371Y-30111807D01*
X98382372Y-30111808D01*
X98382373Y-30111809D01*
X98504328Y-30170538D01*
X98611992Y-30222387D01*
X98611993Y-30222387D01*
X98611996Y-30222389D01*
X98855542Y-30297513D01*
X99107565Y-30335500D01*
X99362435Y-30335500D01*
X99614458Y-30297513D01*
X99858004Y-30222389D01*
X100087634Y-30111805D01*
X100298217Y-29968232D01*
X100485050Y-29794877D01*
X100643959Y-29595612D01*
X100771393Y-29374888D01*
X100864508Y-29137637D01*
X100921222Y-28889157D01*
X100934727Y-28708939D01*
X100940268Y-28635004D01*
X100940268Y-28634995D01*
X100921222Y-28380845D01*
X100907654Y-28321400D01*
X100864508Y-28132363D01*
X100771393Y-27895112D01*
X100643959Y-27674388D01*
X100485050Y-27475123D01*
X100298217Y-27301768D01*
X100087634Y-27158195D01*
X100087630Y-27158193D01*
X100087627Y-27158191D01*
X100087626Y-27158190D01*
X99858006Y-27047612D01*
X99858008Y-27047612D01*
X99614466Y-26972489D01*
X99614462Y-26972488D01*
X99614458Y-26972487D01*
X99493231Y-26954214D01*
X99362440Y-26934500D01*
X99362435Y-26934500D01*
X99107565Y-26934500D01*
X99107559Y-26934500D01*
X98950609Y-26958157D01*
X98855542Y-26972487D01*
X98855539Y-26972488D01*
X98855533Y-26972489D01*
X98611992Y-27047612D01*
X98382373Y-27158190D01*
X98382372Y-27158191D01*
X98171782Y-27301768D01*
X97984952Y-27475121D01*
X97984950Y-27475123D01*
X97826041Y-27674388D01*
X97698608Y-27895109D01*
X97605492Y-28132362D01*
X97605490Y-28132369D01*
X97548777Y-28380845D01*
X97529732Y-28634995D01*
X92440500Y-28634995D01*
X92440500Y-28508712D01*
X92408838Y-28268211D01*
X92346054Y-28033900D01*
X92253224Y-27809788D01*
X92131936Y-27599711D01*
X92048967Y-27491584D01*
X91984266Y-27407263D01*
X91984260Y-27407256D01*
X91812743Y-27235739D01*
X91812736Y-27235733D01*
X91620293Y-27088067D01*
X91620292Y-27088066D01*
X91620289Y-27088064D01*
X91420107Y-26972489D01*
X91410214Y-26966777D01*
X91410205Y-26966773D01*
X91186104Y-26873947D01*
X90991781Y-26821878D01*
X90951789Y-26811162D01*
X90951788Y-26811161D01*
X90951785Y-26811161D01*
X90711289Y-26779500D01*
X90711288Y-26779500D01*
X90468712Y-26779500D01*
X90468711Y-26779500D01*
X90228214Y-26811161D01*
X89993895Y-26873947D01*
X89769794Y-26966773D01*
X89769785Y-26966777D01*
X89559706Y-27088067D01*
X89367263Y-27235733D01*
X89367256Y-27235739D01*
X89195739Y-27407256D01*
X89195733Y-27407263D01*
X89048067Y-27599706D01*
X89048064Y-27599710D01*
X89048064Y-27599711D01*
X89036848Y-27619137D01*
X88926777Y-27809785D01*
X88926773Y-27809794D01*
X88833947Y-28033895D01*
X88771161Y-28268214D01*
X88739500Y-28508711D01*
X36830500Y-28508711D01*
X36798838Y-28268211D01*
X36736054Y-28033900D01*
X36643224Y-27809788D01*
X36521936Y-27599711D01*
X36438967Y-27491584D01*
X36374266Y-27407263D01*
X36374260Y-27407256D01*
X36202743Y-27235739D01*
X36202736Y-27235733D01*
X36010293Y-27088067D01*
X36010292Y-27088066D01*
X36010289Y-27088064D01*
X35810107Y-26972489D01*
X35800214Y-26966777D01*
X35800205Y-26966773D01*
X35576104Y-26873947D01*
X35381781Y-26821878D01*
X35341789Y-26811162D01*
X35341788Y-26811161D01*
X35341785Y-26811161D01*
X35101289Y-26779500D01*
X35101288Y-26779500D01*
X34858712Y-26779500D01*
X34858711Y-26779500D01*
X34618214Y-26811161D01*
X34383895Y-26873947D01*
X34159794Y-26966773D01*
X34159785Y-26966777D01*
X33949706Y-27088067D01*
X33757263Y-27235733D01*
X33757256Y-27235739D01*
X33585739Y-27407256D01*
X33585733Y-27407263D01*
X33438067Y-27599706D01*
X33438064Y-27599710D01*
X33438064Y-27599711D01*
X33426848Y-27619137D01*
X33316777Y-27809785D01*
X33316773Y-27809794D01*
X33223947Y-28033895D01*
X33161161Y-28268214D01*
X33129500Y-28508711D01*
X28030804Y-28508711D01*
X28021222Y-28380845D01*
X28007654Y-28321400D01*
X27964508Y-28132363D01*
X27871393Y-27895112D01*
X27743959Y-27674388D01*
X27585050Y-27475123D01*
X27398217Y-27301768D01*
X27187634Y-27158195D01*
X27187630Y-27158193D01*
X27187627Y-27158191D01*
X27187626Y-27158190D01*
X26958006Y-27047612D01*
X26958008Y-27047612D01*
X26714466Y-26972489D01*
X26714462Y-26972488D01*
X26714458Y-26972487D01*
X26593231Y-26954214D01*
X26462440Y-26934500D01*
X26462435Y-26934500D01*
X26207565Y-26934500D01*
X26207559Y-26934500D01*
X26050609Y-26958157D01*
X25955542Y-26972487D01*
X25955539Y-26972488D01*
X25955533Y-26972489D01*
X25711992Y-27047612D01*
X25482373Y-27158190D01*
X25482372Y-27158191D01*
X25271782Y-27301768D01*
X25084952Y-27475121D01*
X25084950Y-27475123D01*
X24926041Y-27674388D01*
X24798608Y-27895109D01*
X24705492Y-28132362D01*
X24705490Y-28132369D01*
X24648777Y-28380845D01*
X24629732Y-28634995D01*
X21035700Y-28634995D01*
X21035700Y-17695900D01*
X21055385Y-17628861D01*
X21108189Y-17583106D01*
X21159700Y-17571900D01*
X132689653Y-17571900D01*
X132756692Y-17591585D01*
G37*
%TD.AperFunction*%
%TA.AperFunction,Conductor*%
G36*
X110937203Y-32782419D02*
G01*
X110943681Y-32788451D01*
X114841004Y-36685774D01*
X114841014Y-36685785D01*
X114845344Y-36690115D01*
X114845345Y-36690116D01*
X114957149Y-36801920D01*
X114957151Y-36801921D01*
X114957155Y-36801924D01*
X115041560Y-36850655D01*
X115041561Y-36850655D01*
X115094080Y-36880977D01*
X115246808Y-36921900D01*
X118732403Y-36921900D01*
X118799442Y-36941585D01*
X118845197Y-36994389D01*
X118855141Y-37063547D01*
X118826116Y-37127103D01*
X118820084Y-37133581D01*
X117187999Y-38765663D01*
X117126676Y-38799148D01*
X117056984Y-38794164D01*
X117001051Y-38752292D01*
X116980543Y-38710075D01*
X116957769Y-38625082D01*
X116957764Y-38625068D01*
X116861636Y-38418921D01*
X116861632Y-38418913D01*
X116810525Y-38345926D01*
X116131500Y-39024952D01*
X116131500Y-39018739D01*
X116104241Y-38917006D01*
X116051580Y-38825794D01*
X115977106Y-38751320D01*
X115885894Y-38698659D01*
X115784161Y-38671400D01*
X115777948Y-38671400D01*
X116456972Y-37992374D01*
X116383978Y-37941263D01*
X116177831Y-37845135D01*
X116177817Y-37845130D01*
X115958110Y-37786260D01*
X115958099Y-37786258D01*
X115731502Y-37766434D01*
X115731498Y-37766434D01*
X115504900Y-37786258D01*
X115504889Y-37786260D01*
X115285182Y-37845130D01*
X115285173Y-37845134D01*
X115079016Y-37941266D01*
X115079012Y-37941268D01*
X115006026Y-37992373D01*
X115006026Y-37992374D01*
X115685053Y-38671400D01*
X115678839Y-38671400D01*
X115577106Y-38698659D01*
X115485894Y-38751320D01*
X115411420Y-38825794D01*
X115358759Y-38917006D01*
X115331500Y-39018739D01*
X115331500Y-39024952D01*
X114652474Y-38345926D01*
X114652473Y-38345926D01*
X114601368Y-38418912D01*
X114601366Y-38418916D01*
X114505234Y-38625073D01*
X114505230Y-38625082D01*
X114446360Y-38844789D01*
X114446358Y-38844800D01*
X114426534Y-39071397D01*
X114426534Y-39071402D01*
X114446358Y-39297999D01*
X114446360Y-39298010D01*
X114505230Y-39517717D01*
X114505235Y-39517731D01*
X114601363Y-39723878D01*
X114652474Y-39796872D01*
X115331500Y-39117846D01*
X115331500Y-39124061D01*
X115358759Y-39225794D01*
X115411420Y-39317006D01*
X115485894Y-39391480D01*
X115577106Y-39444141D01*
X115678839Y-39471400D01*
X115685053Y-39471400D01*
X115345090Y-39811361D01*
X115289512Y-39843452D01*
X115285008Y-39844659D01*
X115285003Y-39844660D01*
X115078767Y-39940831D01*
X115078765Y-39940832D01*
X114892358Y-40071354D01*
X114731454Y-40232258D01*
X114600932Y-40418665D01*
X114600931Y-40418667D01*
X114504761Y-40624902D01*
X114504758Y-40624911D01*
X114445866Y-40844702D01*
X114445864Y-40844713D01*
X114426032Y-41071398D01*
X114426032Y-41071401D01*
X114445864Y-41298086D01*
X114445866Y-41298097D01*
X114504758Y-41517888D01*
X114504761Y-41517897D01*
X114600931Y-41724132D01*
X114600932Y-41724134D01*
X114731454Y-41910541D01*
X114892358Y-42071445D01*
X114892361Y-42071447D01*
X115078124Y-42201518D01*
X115121748Y-42256093D01*
X115131000Y-42303092D01*
X115131000Y-43589706D01*
X115111315Y-43656745D01*
X115078123Y-43691281D01*
X114892359Y-43821353D01*
X114731454Y-43982258D01*
X114600932Y-44168665D01*
X114600931Y-44168667D01*
X114504761Y-44374902D01*
X114504758Y-44374911D01*
X114445866Y-44594702D01*
X114445864Y-44594713D01*
X114426032Y-44821398D01*
X114426032Y-44821401D01*
X114445864Y-45048086D01*
X114445866Y-45048097D01*
X114504758Y-45267888D01*
X114504761Y-45267897D01*
X114600931Y-45474132D01*
X114600932Y-45474134D01*
X114731454Y-45660541D01*
X114804632Y-45733719D01*
X114838117Y-45795042D01*
X114833133Y-45864734D01*
X114804632Y-45909081D01*
X114731454Y-45982258D01*
X114600932Y-46168665D01*
X114600931Y-46168667D01*
X114504761Y-46374902D01*
X114504758Y-46374911D01*
X114445866Y-46594702D01*
X114445864Y-46594713D01*
X114426032Y-46821398D01*
X114426032Y-46821401D01*
X114445864Y-47048086D01*
X114445866Y-47048097D01*
X114504758Y-47267888D01*
X114504761Y-47267897D01*
X114600931Y-47474132D01*
X114600932Y-47474134D01*
X114731454Y-47660541D01*
X114892358Y-47821445D01*
X114892361Y-47821447D01*
X115078766Y-47951968D01*
X115285004Y-48048139D01*
X115285009Y-48048140D01*
X115285011Y-48048141D01*
X115337915Y-48062316D01*
X115504808Y-48107035D01*
X115666730Y-48121201D01*
X115731498Y-48126868D01*
X115731500Y-48126868D01*
X115731502Y-48126868D01*
X115788173Y-48121909D01*
X115958192Y-48107035D01*
X116177996Y-48048139D01*
X116384234Y-47951968D01*
X116570639Y-47821447D01*
X116731547Y-47660539D01*
X116862068Y-47474134D01*
X116958239Y-47267896D01*
X117017135Y-47048092D01*
X117036653Y-46824996D01*
X117036968Y-46821401D01*
X117036968Y-46821398D01*
X117020750Y-46636030D01*
X117017135Y-46594708D01*
X116991347Y-46498466D01*
X116993010Y-46428617D01*
X117023439Y-46378694D01*
X121669321Y-41732813D01*
X121730642Y-41699330D01*
X121800334Y-41704314D01*
X121856267Y-41746186D01*
X121880684Y-41811650D01*
X121881000Y-41820496D01*
X121881000Y-45571302D01*
X121861315Y-45638341D01*
X121844681Y-45658983D01*
X117188407Y-50315256D01*
X117127084Y-50348741D01*
X117057392Y-50343757D01*
X117001459Y-50301885D01*
X116980951Y-50259668D01*
X116958241Y-50174911D01*
X116958238Y-50174902D01*
X116918451Y-50089579D01*
X116862068Y-49968666D01*
X116731547Y-49782261D01*
X116731545Y-49782258D01*
X116570641Y-49621354D01*
X116384234Y-49490832D01*
X116384232Y-49490831D01*
X116177997Y-49394661D01*
X116177988Y-49394658D01*
X115958197Y-49335766D01*
X115958193Y-49335765D01*
X115958192Y-49335765D01*
X115958191Y-49335764D01*
X115958186Y-49335764D01*
X115731502Y-49315932D01*
X115731498Y-49315932D01*
X115504813Y-49335764D01*
X115504802Y-49335766D01*
X115285011Y-49394658D01*
X115285002Y-49394661D01*
X115078767Y-49490831D01*
X115078765Y-49490832D01*
X114892358Y-49621354D01*
X114731454Y-49782258D01*
X114600932Y-49968665D01*
X114600931Y-49968667D01*
X114504761Y-50174902D01*
X114504758Y-50174911D01*
X114445866Y-50394702D01*
X114445864Y-50394713D01*
X114426032Y-50621398D01*
X114426032Y-50621401D01*
X114445864Y-50848086D01*
X114445866Y-50848097D01*
X114504758Y-51067888D01*
X114504761Y-51067897D01*
X114600931Y-51274132D01*
X114600932Y-51274134D01*
X114731454Y-51460541D01*
X114804632Y-51533719D01*
X114838117Y-51595042D01*
X114833133Y-51664734D01*
X114804632Y-51709081D01*
X114731454Y-51782258D01*
X114600932Y-51968665D01*
X114600931Y-51968667D01*
X114504761Y-52174902D01*
X114504758Y-52174911D01*
X114445866Y-52394702D01*
X114445864Y-52394713D01*
X114426032Y-52621398D01*
X114426032Y-52621401D01*
X114445864Y-52848086D01*
X114445866Y-52848097D01*
X114504758Y-53067888D01*
X114504761Y-53067897D01*
X114600931Y-53274132D01*
X114600932Y-53274134D01*
X114731454Y-53460541D01*
X114892358Y-53621445D01*
X114892361Y-53621447D01*
X115078766Y-53751968D01*
X115168758Y-53793932D01*
X115221197Y-53840103D01*
X115240349Y-53907296D01*
X115220134Y-53974177D01*
X115204034Y-53993994D01*
X110030922Y-59167106D01*
X109969599Y-59200591D01*
X109899907Y-59195607D01*
X109843974Y-59153735D01*
X109819557Y-59088271D01*
X109819712Y-59068626D01*
X109836968Y-58871400D01*
X109817135Y-58644708D01*
X109791347Y-58548466D01*
X109793010Y-58478617D01*
X109823439Y-58428694D01*
X110612020Y-57640116D01*
X110691077Y-57503184D01*
X110732001Y-57350457D01*
X110732001Y-57192342D01*
X110732001Y-57184747D01*
X110732000Y-57184729D01*
X110732000Y-32876132D01*
X110751685Y-32809093D01*
X110804489Y-32763338D01*
X110873647Y-32753394D01*
X110937203Y-32782419D01*
G37*
%TD.AperFunction*%
%TA.AperFunction,Conductor*%
G36*
X107731500Y-40324061D02*
G01*
X107758759Y-40425794D01*
X107811420Y-40517006D01*
X107885894Y-40591480D01*
X107977106Y-40644141D01*
X108078839Y-40671400D01*
X108085053Y-40671400D01*
X107406026Y-41350425D01*
X107479013Y-41401532D01*
X107479021Y-41401536D01*
X107685168Y-41497664D01*
X107685182Y-41497669D01*
X107904889Y-41556539D01*
X107904900Y-41556541D01*
X108131498Y-41576366D01*
X108131502Y-41576366D01*
X108358099Y-41556541D01*
X108358110Y-41556539D01*
X108577817Y-41497669D01*
X108577831Y-41497664D01*
X108783978Y-41401536D01*
X108856971Y-41350424D01*
X108177947Y-40671400D01*
X108184161Y-40671400D01*
X108285894Y-40644141D01*
X108377106Y-40591480D01*
X108451580Y-40517006D01*
X108504241Y-40425794D01*
X108531500Y-40324061D01*
X108531500Y-40317847D01*
X109210524Y-40996871D01*
X109261636Y-40923878D01*
X109294618Y-40853149D01*
X109340790Y-40800709D01*
X109407983Y-40781557D01*
X109474864Y-40801772D01*
X109520199Y-40854937D01*
X109531000Y-40905553D01*
X109531000Y-45009004D01*
X109511315Y-45076043D01*
X109458511Y-45121798D01*
X109389353Y-45131742D01*
X109384217Y-45130893D01*
X109333430Y-45121400D01*
X109129572Y-45121400D01*
X108929178Y-45158860D01*
X108739084Y-45232502D01*
X108565760Y-45339821D01*
X108565753Y-45339826D01*
X108565395Y-45340153D01*
X108565186Y-45340254D01*
X108561188Y-45343274D01*
X108560596Y-45342491D01*
X108502586Y-45370761D01*
X108433200Y-45362552D01*
X108402267Y-45342670D01*
X108402115Y-45342873D01*
X108399446Y-45340858D01*
X108398339Y-45340146D01*
X108397541Y-45339419D01*
X108397539Y-45339417D01*
X108224142Y-45232055D01*
X108224135Y-45232051D01*
X108035205Y-45158860D01*
X108033956Y-45158376D01*
X107833476Y-45120900D01*
X107629524Y-45120900D01*
X107629522Y-45120900D01*
X107567993Y-45132401D01*
X107498478Y-45125369D01*
X107457529Y-45098193D01*
X106918319Y-44558983D01*
X106884834Y-44497660D01*
X106882000Y-44471302D01*
X106882000Y-41117280D01*
X106901685Y-41050241D01*
X106954489Y-41004486D01*
X107016807Y-40993752D01*
X107052474Y-40996872D01*
X107731500Y-40317846D01*
X107731500Y-40324061D01*
G37*
%TD.AperFunction*%
%TA.AperFunction,Conductor*%
G36*
X107087203Y-39053847D02*
G01*
X107107573Y-39076435D01*
X107127819Y-39105350D01*
X107131455Y-39110542D01*
X107292358Y-39271445D01*
X107292361Y-39271447D01*
X107478766Y-39401968D01*
X107685004Y-39498139D01*
X107685006Y-39498139D01*
X107685013Y-39498142D01*
X107689503Y-39499345D01*
X107745092Y-39531439D01*
X108085053Y-39871400D01*
X108078839Y-39871400D01*
X107977106Y-39898659D01*
X107885894Y-39951320D01*
X107811420Y-40025794D01*
X107758759Y-40117006D01*
X107731500Y-40218739D01*
X107731500Y-40224952D01*
X107052473Y-39545925D01*
X107016806Y-39549046D01*
X106948306Y-39535279D01*
X106898124Y-39486663D01*
X106882000Y-39425518D01*
X106882000Y-39147560D01*
X106901685Y-39080521D01*
X106954489Y-39034766D01*
X107023647Y-39024822D01*
X107087203Y-39053847D01*
G37*
%TD.AperFunction*%
%TA.AperFunction,Conductor*%
G36*
X109474865Y-38802955D02*
G01*
X109520200Y-38856120D01*
X109531000Y-38906735D01*
X109531000Y-39637246D01*
X109511315Y-39704285D01*
X109458511Y-39750040D01*
X109389353Y-39759984D01*
X109325797Y-39730959D01*
X109294618Y-39689651D01*
X109261634Y-39618917D01*
X109261632Y-39618913D01*
X109210525Y-39545926D01*
X108531500Y-40224951D01*
X108531500Y-40218739D01*
X108504241Y-40117006D01*
X108451580Y-40025794D01*
X108377106Y-39951320D01*
X108285894Y-39898659D01*
X108184161Y-39871400D01*
X108177948Y-39871400D01*
X108517907Y-39531439D01*
X108573496Y-39499345D01*
X108575333Y-39498852D01*
X108577996Y-39498139D01*
X108784234Y-39401968D01*
X108970639Y-39271447D01*
X109131547Y-39110539D01*
X109262068Y-38924134D01*
X109294618Y-38854329D01*
X109340790Y-38801891D01*
X109407984Y-38782739D01*
X109474865Y-38802955D01*
G37*
%TD.AperFunction*%
%TA.AperFunction,Conductor*%
G36*
X128316619Y-36291081D02*
G01*
X128383498Y-36406920D01*
X128478080Y-36501502D01*
X128593919Y-36568381D01*
X128654057Y-36584495D01*
X127999040Y-37239512D01*
X127999040Y-37239514D01*
X128031733Y-37264960D01*
X128030789Y-37266172D01*
X128071639Y-37314043D01*
X128081060Y-37383274D01*
X128051556Y-37446609D01*
X128031181Y-37464263D01*
X128031459Y-37464620D01*
X127845694Y-37609206D01*
X127845689Y-37609211D01*
X127689728Y-37778629D01*
X127563782Y-37971405D01*
X127471282Y-38182284D01*
X127460849Y-38223487D01*
X127425309Y-38283642D01*
X127362888Y-38315034D01*
X127293405Y-38307696D01*
X127252962Y-38280727D01*
X126659858Y-37687623D01*
X126626373Y-37626300D01*
X126631357Y-37556608D01*
X126673229Y-37500675D01*
X126733655Y-37476722D01*
X126768515Y-37472794D01*
X126910749Y-37456769D01*
X126910752Y-37456768D01*
X126910755Y-37456768D01*
X127081022Y-37397189D01*
X127233762Y-37301216D01*
X127361316Y-37173662D01*
X127457289Y-37020922D01*
X127477561Y-36962986D01*
X127518282Y-36906210D01*
X127583234Y-36880462D01*
X127607396Y-36880602D01*
X127646761Y-36884684D01*
X128300504Y-36230941D01*
X128316619Y-36291081D01*
G37*
%TD.AperFunction*%
%TA.AperFunction,Conductor*%
G36*
X127537203Y-34186249D02*
G01*
X127560151Y-34214841D01*
X127560978Y-34214302D01*
X127689728Y-34411370D01*
X127723576Y-34448139D01*
X127845692Y-34580792D01*
X127869983Y-34599698D01*
X128031459Y-34725380D01*
X128030570Y-34726521D01*
X128071632Y-34774624D01*
X128081063Y-34843855D01*
X128051568Y-34907194D01*
X128031429Y-34924651D01*
X128031733Y-34925041D01*
X127999040Y-34950485D01*
X127999040Y-34950487D01*
X128654058Y-35605504D01*
X128593919Y-35621619D01*
X128478080Y-35688498D01*
X128383498Y-35783080D01*
X128316619Y-35898919D01*
X128300504Y-35959058D01*
X127646759Y-35305313D01*
X127561420Y-35435937D01*
X127560119Y-35435087D01*
X127515822Y-35479707D01*
X127447604Y-35494807D01*
X127382051Y-35470629D01*
X127339977Y-35414848D01*
X127332000Y-35371092D01*
X127332000Y-34279962D01*
X127351685Y-34212923D01*
X127404489Y-34167168D01*
X127473647Y-34157224D01*
X127537203Y-34186249D01*
G37*
%TD.AperFunction*%
%TA.AperFunction,Conductor*%
G36*
X129816127Y-20641585D02*
G01*
X129826403Y-20648955D01*
X129829236Y-20651214D01*
X129829238Y-20651216D01*
X129981978Y-20747189D01*
X130028498Y-20763467D01*
X130152245Y-20806768D01*
X130152250Y-20806769D01*
X130331496Y-20826965D01*
X130331500Y-20826965D01*
X130331504Y-20826965D01*
X130510749Y-20806769D01*
X130510752Y-20806768D01*
X130510755Y-20806768D01*
X130681022Y-20747189D01*
X130759387Y-20697948D01*
X130826622Y-20678948D01*
X130893458Y-20699315D01*
X130938672Y-20752582D01*
X130947911Y-20821839D01*
X130918240Y-20885095D01*
X130913040Y-20890623D01*
X122062786Y-29740878D01*
X121950981Y-29852682D01*
X121950979Y-29852684D01*
X121930367Y-29888386D01*
X121921655Y-29903477D01*
X121871923Y-29989615D01*
X121830999Y-30142343D01*
X121830999Y-30142345D01*
X121830999Y-30310446D01*
X121831000Y-30310459D01*
X121831000Y-30688987D01*
X121811315Y-30756026D01*
X121803950Y-30766296D01*
X121801686Y-30769134D01*
X121705711Y-30921876D01*
X121646131Y-31092145D01*
X121646130Y-31092150D01*
X121625935Y-31271396D01*
X121625935Y-31271403D01*
X121646130Y-31450649D01*
X121646131Y-31450654D01*
X121705711Y-31620923D01*
X121801685Y-31773663D01*
X121803945Y-31776497D01*
X121804834Y-31778675D01*
X121805389Y-31779558D01*
X121805234Y-31779655D01*
X121830355Y-31841183D01*
X121831000Y-31853812D01*
X121831000Y-34071302D01*
X121811315Y-34138341D01*
X121794681Y-34158983D01*
X121710602Y-34243062D01*
X121649279Y-34276547D01*
X121579587Y-34271563D01*
X121539370Y-34245716D01*
X121539205Y-34245925D01*
X121537171Y-34244303D01*
X121535240Y-34243062D01*
X121533762Y-34241584D01*
X121381023Y-34145611D01*
X121210754Y-34086031D01*
X121210749Y-34086030D01*
X121031504Y-34065835D01*
X121031496Y-34065835D01*
X120852250Y-34086030D01*
X120852245Y-34086031D01*
X120681976Y-34145611D01*
X120529237Y-34241584D01*
X120401684Y-34369137D01*
X120305710Y-34521878D01*
X120246130Y-34692150D01*
X120236337Y-34779068D01*
X120209270Y-34843482D01*
X120200798Y-34852865D01*
X119369084Y-35684581D01*
X119307761Y-35718066D01*
X119281403Y-35720900D01*
X117155119Y-35720900D01*
X117088080Y-35701215D01*
X117042325Y-35648411D01*
X117032381Y-35579253D01*
X117035344Y-35564807D01*
X117066639Y-35448009D01*
X117066641Y-35447999D01*
X117086466Y-35221402D01*
X117086466Y-35221397D01*
X117066641Y-34994800D01*
X117066639Y-34994789D01*
X117007769Y-34775082D01*
X117007764Y-34775068D01*
X116911636Y-34568921D01*
X116911632Y-34568913D01*
X116860525Y-34495926D01*
X116181500Y-35174951D01*
X116181500Y-35168739D01*
X116154241Y-35067006D01*
X116101580Y-34975794D01*
X116027106Y-34901320D01*
X115935894Y-34848659D01*
X115834161Y-34821400D01*
X115827948Y-34821400D01*
X116167907Y-34481439D01*
X116223496Y-34449345D01*
X116225333Y-34448852D01*
X116227996Y-34448139D01*
X116434234Y-34351968D01*
X116620639Y-34221447D01*
X116781547Y-34060539D01*
X116912068Y-33874134D01*
X117008239Y-33667896D01*
X117067135Y-33448092D01*
X117086968Y-33221400D01*
X117067135Y-32994708D01*
X117041347Y-32898466D01*
X117043010Y-32828617D01*
X117073439Y-32778694D01*
X121906860Y-27945273D01*
X121968181Y-27911790D01*
X122035493Y-27915914D01*
X122076655Y-27930318D01*
X122152240Y-27956767D01*
X122152250Y-27956769D01*
X122331496Y-27976965D01*
X122331500Y-27976965D01*
X122331504Y-27976965D01*
X122510749Y-27956769D01*
X122510752Y-27956768D01*
X122510755Y-27956768D01*
X122681022Y-27897189D01*
X122833762Y-27801216D01*
X122961316Y-27673662D01*
X123057289Y-27520922D01*
X123116868Y-27350655D01*
X123118516Y-27336030D01*
X123137065Y-27171403D01*
X123137065Y-27171396D01*
X123116869Y-26992150D01*
X123116868Y-26992145D01*
X123096697Y-26934500D01*
X123057289Y-26821878D01*
X123057288Y-26821877D01*
X123057287Y-26821873D01*
X122964979Y-26674967D01*
X122945978Y-26607731D01*
X122966345Y-26540896D01*
X122982286Y-26521319D01*
X128845387Y-20658219D01*
X128906710Y-20624734D01*
X128933068Y-20621900D01*
X129749088Y-20621900D01*
X129816127Y-20641585D01*
G37*
%TD.AperFunction*%
%TA.AperFunction,Conductor*%
G36*
X127454864Y-26149783D02*
G01*
X127510797Y-26191655D01*
X127525086Y-26216154D01*
X127555283Y-26284996D01*
X127681228Y-26477770D01*
X127681231Y-26477773D01*
X127837192Y-26647192D01*
X127926341Y-26716579D01*
X128022959Y-26791780D01*
X128021976Y-26793041D01*
X128062683Y-26840749D01*
X128072100Y-26909981D01*
X128042592Y-26973314D01*
X128022636Y-26990605D01*
X128022959Y-26991020D01*
X127837194Y-27135606D01*
X127837189Y-27135611D01*
X127681228Y-27305029D01*
X127555282Y-27497805D01*
X127462782Y-27708685D01*
X127406253Y-27931915D01*
X127387238Y-28161394D01*
X127387238Y-28161405D01*
X127406253Y-28390884D01*
X127462782Y-28614114D01*
X127555282Y-28824994D01*
X127681228Y-29017770D01*
X127688926Y-29026132D01*
X127837192Y-29187192D01*
X127954091Y-29278178D01*
X128022959Y-29331780D01*
X128021976Y-29333041D01*
X128062683Y-29380749D01*
X128072100Y-29449981D01*
X128042592Y-29513314D01*
X128022636Y-29530605D01*
X128022959Y-29531020D01*
X127837194Y-29675606D01*
X127837189Y-29675611D01*
X127681228Y-29845029D01*
X127555282Y-30037805D01*
X127462782Y-30248685D01*
X127406253Y-30471915D01*
X127387238Y-30701394D01*
X127387238Y-30701405D01*
X127406253Y-30930884D01*
X127462782Y-31154114D01*
X127555282Y-31364994D01*
X127681228Y-31557770D01*
X127681231Y-31557773D01*
X127837192Y-31727192D01*
X128018911Y-31868629D01*
X128221431Y-31978228D01*
X128261401Y-31991949D01*
X128320905Y-32012378D01*
X128377920Y-32052763D01*
X128404051Y-32117563D01*
X128391000Y-32186203D01*
X128342911Y-32236891D01*
X128320905Y-32246940D01*
X128229938Y-32278169D01*
X128229930Y-32278172D01*
X128027408Y-32387772D01*
X127845694Y-32529206D01*
X127845689Y-32529211D01*
X127689728Y-32698629D01*
X127563782Y-32891405D01*
X127471282Y-33102285D01*
X127416877Y-33317128D01*
X127381337Y-33377284D01*
X127318917Y-33408676D01*
X127249434Y-33401338D01*
X127194948Y-33357599D01*
X127173451Y-33300570D01*
X127166869Y-33242150D01*
X127166868Y-33242145D01*
X127133563Y-33146966D01*
X127107289Y-33071878D01*
X127011316Y-32919138D01*
X126883762Y-32791584D01*
X126822983Y-32753394D01*
X126731023Y-32695611D01*
X126560754Y-32636031D01*
X126560749Y-32636030D01*
X126381504Y-32615835D01*
X126381496Y-32615835D01*
X126202250Y-32636030D01*
X126202239Y-32636033D01*
X126146953Y-32655378D01*
X126077174Y-32658939D01*
X126016547Y-32624209D01*
X125984321Y-32562216D01*
X125982000Y-32538336D01*
X125982000Y-28903812D01*
X126001685Y-28836773D01*
X126009055Y-28826497D01*
X126011310Y-28823667D01*
X126011316Y-28823662D01*
X126107289Y-28670922D01*
X126166868Y-28500655D01*
X126179236Y-28390884D01*
X126187065Y-28321403D01*
X126187065Y-28321396D01*
X126166869Y-28142150D01*
X126166868Y-28142145D01*
X126128991Y-28033900D01*
X126107289Y-27971878D01*
X126097795Y-27956769D01*
X126011315Y-27819137D01*
X125934837Y-27742659D01*
X125901352Y-27681336D01*
X125906336Y-27611644D01*
X125934837Y-27567297D01*
X126628188Y-26873946D01*
X127323851Y-26178282D01*
X127385172Y-26144799D01*
X127454864Y-26149783D01*
G37*
%TD.AperFunction*%
%TD*%
M02*
