%TF.GenerationSoftware,KiCad,Pcbnew,8.0.6*%
%TF.CreationDate,2024-12-10T13:42:45-08:00*%
%TF.ProjectId,Avionics Power Regulation Board,4176696f-6e69-4637-9320-506f77657220,2*%
%TF.SameCoordinates,Original*%
%TF.FileFunction,Legend,Bot*%
%TF.FilePolarity,Positive*%
%FSLAX46Y46*%
G04 Gerber Fmt 4.6, Leading zero omitted, Abs format (unit mm)*
G04 Created by KiCad (PCBNEW 8.0.6) date 2024-12-10 13:42:45*
%MOMM*%
%LPD*%
G01*
G04 APERTURE LIST*
%ADD10C,0.000000*%
G04 APERTURE END LIST*
D10*
%TO.C,G\u002A\u002A\u002A*%
G36*
X125290908Y-91538938D02*
G01*
X125292617Y-91547422D01*
X125294384Y-91567451D01*
X125296001Y-91596044D01*
X125297261Y-91630223D01*
X125299718Y-91717614D01*
X125274098Y-91717614D01*
X125267840Y-91717402D01*
X125243749Y-91713460D01*
X125221216Y-91705866D01*
X125204543Y-91696366D01*
X125198030Y-91686708D01*
X125198762Y-91681909D01*
X125206146Y-91668764D01*
X125212217Y-91661606D01*
X125222512Y-91646281D01*
X125233634Y-91626964D01*
X125255024Y-91590278D01*
X125270603Y-91564453D01*
X125281214Y-91548166D01*
X125287697Y-91540097D01*
X125290895Y-91538925D01*
X125290908Y-91538938D01*
G37*
G36*
X122732059Y-91540459D02*
G01*
X122742794Y-91553702D01*
X122757680Y-91577775D01*
X122765937Y-91591851D01*
X122783647Y-91622027D01*
X122799439Y-91648916D01*
X122808147Y-91664787D01*
X122814711Y-91682969D01*
X122811692Y-91692883D01*
X122799075Y-91696203D01*
X122797641Y-91696299D01*
X122781574Y-91699667D01*
X122761317Y-91706198D01*
X122757678Y-91707526D01*
X122739692Y-91712890D01*
X122728585Y-91714285D01*
X122725720Y-91707979D01*
X122722902Y-91689223D01*
X122720670Y-91660325D01*
X122719264Y-91623596D01*
X122718980Y-91609654D01*
X122718934Y-91572642D01*
X122720710Y-91549234D01*
X122724891Y-91538738D01*
X122732059Y-91540459D01*
G37*
G36*
X121765622Y-99674915D02*
G01*
X121803504Y-99694974D01*
X121809737Y-99699461D01*
X121835517Y-99724575D01*
X121849365Y-99753081D01*
X121851416Y-99786394D01*
X121841806Y-99825931D01*
X121820672Y-99873104D01*
X121804280Y-99902356D01*
X121781559Y-99934522D01*
X121758279Y-99956975D01*
X121744936Y-99966249D01*
X121716042Y-99978462D01*
X121686127Y-99978492D01*
X121651223Y-99966699D01*
X121643372Y-99962847D01*
X121610833Y-99938368D01*
X121589901Y-99906497D01*
X121581049Y-99868966D01*
X121584746Y-99827510D01*
X121601466Y-99783861D01*
X121631464Y-99734658D01*
X121663015Y-99698453D01*
X121695686Y-99676518D01*
X121729785Y-99668717D01*
X121765622Y-99674915D01*
G37*
G36*
X125395733Y-100080133D02*
G01*
X125404925Y-100100579D01*
X125410251Y-100116632D01*
X125413862Y-100144894D01*
X125406702Y-100163951D01*
X125388855Y-100173426D01*
X125385484Y-100174138D01*
X125363737Y-100179805D01*
X125339868Y-100187209D01*
X125317331Y-100194203D01*
X125298077Y-100197147D01*
X125283286Y-100193741D01*
X125268111Y-100183752D01*
X125266599Y-100182515D01*
X125252285Y-100162427D01*
X125249171Y-100139042D01*
X125258038Y-100117500D01*
X125259483Y-100115864D01*
X125277245Y-100104040D01*
X125306216Y-100092543D01*
X125343505Y-100082555D01*
X125345132Y-100082195D01*
X125365666Y-100076973D01*
X125380571Y-100072100D01*
X125387648Y-100071680D01*
X125395733Y-100080133D01*
G37*
G36*
X123690944Y-91386582D02*
G01*
X123697894Y-91396802D01*
X123705513Y-91412780D01*
X123711657Y-91429864D01*
X123714181Y-91443402D01*
X123714480Y-91447186D01*
X123718863Y-91458015D01*
X123721326Y-91461279D01*
X123728949Y-91476189D01*
X123737627Y-91497258D01*
X123745583Y-91519640D01*
X123751038Y-91538489D01*
X123752216Y-91548957D01*
X123747453Y-91552729D01*
X123729087Y-91556347D01*
X123698118Y-91557591D01*
X123646899Y-91557591D01*
X123652192Y-91533951D01*
X123652768Y-91531389D01*
X123658381Y-91506911D01*
X123664410Y-91481216D01*
X123665225Y-91477744D01*
X123671459Y-91449306D01*
X123677067Y-91421138D01*
X123678649Y-91413246D01*
X123683373Y-91394980D01*
X123687485Y-91385471D01*
X123690944Y-91386582D01*
G37*
G36*
X122636801Y-93657791D02*
G01*
X122682418Y-93662465D01*
X122718686Y-93670701D01*
X122726250Y-93673274D01*
X122798771Y-93703608D01*
X122860495Y-93741276D01*
X122913910Y-93788072D01*
X122961500Y-93845787D01*
X122990594Y-93891153D01*
X123025161Y-93965556D01*
X123045471Y-94042552D01*
X123051461Y-94121672D01*
X123043068Y-94202444D01*
X123020230Y-94284398D01*
X123017676Y-94291169D01*
X122985555Y-94354602D01*
X122941403Y-94413048D01*
X122887178Y-94464879D01*
X122824841Y-94508462D01*
X122756351Y-94542169D01*
X122683669Y-94564369D01*
X122624908Y-94573652D01*
X122570181Y-94574333D01*
X122514006Y-94566258D01*
X122456666Y-94552042D01*
X122391746Y-94528524D01*
X122335867Y-94498003D01*
X122286258Y-94458893D01*
X122240149Y-94409609D01*
X122233346Y-94401212D01*
X122189143Y-94336229D01*
X122158360Y-94268493D01*
X122140177Y-94195730D01*
X122133768Y-94115665D01*
X122134706Y-94080245D01*
X122146695Y-94001208D01*
X122172255Y-93927184D01*
X122211202Y-93858526D01*
X122263354Y-93795589D01*
X122328528Y-93738727D01*
X122328594Y-93738677D01*
X122353097Y-93720856D01*
X122373929Y-93707597D01*
X122395481Y-93696678D01*
X122422142Y-93685874D01*
X122458300Y-93672959D01*
X122491296Y-93664724D01*
X122536495Y-93658961D01*
X122586578Y-93656637D01*
X122636801Y-93657791D01*
G37*
G36*
X129038579Y-91956463D02*
G01*
X129038579Y-95854967D01*
X129038579Y-95940036D01*
X129038579Y-100081270D01*
X129038579Y-100428886D01*
X129038579Y-100651137D01*
X129038579Y-100940752D01*
X124037864Y-100940752D01*
X119037148Y-100940752D01*
X119037148Y-100395758D01*
X122261802Y-100395758D01*
X122268331Y-100405667D01*
X122284042Y-100414761D01*
X122310634Y-100424227D01*
X122349811Y-100435253D01*
X122425374Y-100455281D01*
X122485481Y-100416158D01*
X122499212Y-100407237D01*
X122521482Y-100392866D01*
X122544183Y-100378379D01*
X122569705Y-100362273D01*
X122600436Y-100343040D01*
X122638768Y-100319177D01*
X122687090Y-100289179D01*
X122698649Y-100282414D01*
X122714311Y-100274856D01*
X122722009Y-100273475D01*
X122722369Y-100276381D01*
X122719958Y-100290576D01*
X122714328Y-100313324D01*
X122706417Y-100341221D01*
X122697160Y-100370867D01*
X122687494Y-100398857D01*
X122681222Y-100419581D01*
X122675953Y-100444385D01*
X122675771Y-100445564D01*
X122671396Y-100462754D01*
X122665955Y-100472091D01*
X122664884Y-100472982D01*
X122660614Y-100484719D01*
X122659723Y-100502665D01*
X122662043Y-100520070D01*
X122667405Y-100530184D01*
X122675488Y-100533773D01*
X122695359Y-100540374D01*
X122727252Y-100549736D01*
X122772228Y-100562183D01*
X122790337Y-100567566D01*
X122806024Y-100573077D01*
X122813689Y-100573346D01*
X122826522Y-100565004D01*
X122836996Y-100549808D01*
X122841329Y-100532145D01*
X122842714Y-100521170D01*
X122848151Y-100502850D01*
X122848645Y-100501602D01*
X122850535Y-100496110D01*
X123263043Y-100496110D01*
X123269634Y-100540682D01*
X123289249Y-100581788D01*
X123322551Y-100621861D01*
X123328616Y-100627797D01*
X123349539Y-100646422D01*
X123367144Y-100659447D01*
X123378133Y-100664349D01*
X123385374Y-100665236D01*
X123398238Y-100671362D01*
X123398784Y-100671825D01*
X123410383Y-100676893D01*
X123431628Y-100683219D01*
X123458359Y-100689546D01*
X123466920Y-100691256D01*
X123524733Y-100698661D01*
X123584002Y-100699922D01*
X123640951Y-100695313D01*
X123691807Y-100685108D01*
X123732794Y-100669583D01*
X123740671Y-100665063D01*
X123772108Y-100637662D01*
X123798094Y-100599377D01*
X123816680Y-100552920D01*
X123818405Y-100546418D01*
X123820307Y-100529202D01*
X123815059Y-100517257D01*
X123800812Y-100509359D01*
X123775720Y-100504285D01*
X123737932Y-100500812D01*
X123719684Y-100499469D01*
X123689818Y-100496883D01*
X123666685Y-100494383D01*
X123654178Y-100492362D01*
X123643786Y-100493482D01*
X123634466Y-100507184D01*
X123631149Y-100515146D01*
X123615061Y-100538587D01*
X123591825Y-100551370D01*
X123558683Y-100555243D01*
X123549530Y-100555070D01*
X123515998Y-100551139D01*
X123489646Y-100542799D01*
X123472909Y-100531077D01*
X123468224Y-100517005D01*
X123469999Y-100510436D01*
X123479266Y-100498963D01*
X123497584Y-100489748D01*
X123526787Y-100482026D01*
X123568706Y-100475032D01*
X123574381Y-100474232D01*
X123608877Y-100469380D01*
X123641867Y-100464746D01*
X123666901Y-100461238D01*
X123699871Y-100453453D01*
X123738625Y-100437363D01*
X123772823Y-100416238D01*
X123797470Y-100392701D01*
X123812247Y-100368548D01*
X123826589Y-100332216D01*
X123834644Y-100294777D01*
X123834708Y-100262206D01*
X123826149Y-100228490D01*
X123803923Y-100186817D01*
X123773234Y-100155529D01*
X124170540Y-100155529D01*
X124170667Y-100181628D01*
X124171940Y-100210124D01*
X124174157Y-100236780D01*
X124177118Y-100257362D01*
X124178770Y-100262206D01*
X124180621Y-100267636D01*
X124185805Y-100268424D01*
X124203542Y-100268492D01*
X124231424Y-100267553D01*
X124266983Y-100265696D01*
X124307754Y-100263011D01*
X124335682Y-100261045D01*
X124377908Y-100258253D01*
X124415448Y-100255980D01*
X124445030Y-100254418D01*
X124463379Y-100253764D01*
X124476660Y-100253754D01*
X124490323Y-100255762D01*
X124496174Y-100262850D01*
X124498459Y-100277946D01*
X124498582Y-100279382D01*
X124497660Y-100298262D01*
X124492819Y-100310499D01*
X124488666Y-100313034D01*
X124474454Y-100317086D01*
X124450117Y-100321097D01*
X124414553Y-100325206D01*
X124366658Y-100329554D01*
X124305328Y-100334280D01*
X124274137Y-100337004D01*
X124252013Y-100340401D01*
X124239729Y-100344814D01*
X124234835Y-100350818D01*
X124234490Y-100352484D01*
X124233819Y-100367570D01*
X124234523Y-100391764D01*
X124236499Y-100420678D01*
X124241529Y-100478868D01*
X124321315Y-100476794D01*
X124343846Y-100476021D01*
X124383384Y-100473925D01*
X124419806Y-100471176D01*
X124447397Y-100468165D01*
X124475634Y-100464713D01*
X124496532Y-100464764D01*
X124508171Y-100470396D01*
X124513207Y-100483038D01*
X124514295Y-100504116D01*
X124514295Y-100538718D01*
X124479887Y-100543434D01*
X124475805Y-100543956D01*
X124452622Y-100546388D01*
X124419717Y-100549342D01*
X124380872Y-100552491D01*
X124339867Y-100555510D01*
X124293508Y-100558844D01*
X124257952Y-100561808D01*
X124232959Y-100564666D01*
X124216517Y-100567806D01*
X124206613Y-100571616D01*
X124201237Y-100576484D01*
X124198375Y-100582798D01*
X124196914Y-100596954D01*
X124197972Y-100620734D01*
X124201096Y-100648836D01*
X124205632Y-100676545D01*
X124210924Y-100699147D01*
X124216318Y-100711926D01*
X124222238Y-100717410D01*
X124233328Y-100721632D01*
X124239781Y-100720784D01*
X124257892Y-100718178D01*
X124281535Y-100714640D01*
X124287848Y-100713720D01*
X124303917Y-100711675D01*
X124324317Y-100709480D01*
X124350501Y-100707014D01*
X124383925Y-100704154D01*
X124426044Y-100700779D01*
X124478311Y-100696766D01*
X124542182Y-100691994D01*
X124619111Y-100686340D01*
X124624424Y-100685942D01*
X124659697Y-100682743D01*
X124689401Y-100679132D01*
X124710551Y-100675524D01*
X124720161Y-100672332D01*
X124721581Y-100669811D01*
X124722894Y-100662995D01*
X124723498Y-100651137D01*
X124723335Y-100633056D01*
X124722346Y-100607569D01*
X124720471Y-100573494D01*
X124717651Y-100529648D01*
X124713828Y-100474850D01*
X124708941Y-100407917D01*
X124702933Y-100327666D01*
X124699400Y-100284335D01*
X124695069Y-100236872D01*
X124690596Y-100192420D01*
X124688876Y-100177312D01*
X125047598Y-100177312D01*
X125048824Y-100185465D01*
X125056250Y-100215137D01*
X125066449Y-100241192D01*
X125077394Y-100258646D01*
X125097175Y-100281853D01*
X125119722Y-100302327D01*
X125141460Y-100316919D01*
X125158814Y-100322482D01*
X125176038Y-100326946D01*
X125191648Y-100340007D01*
X125198030Y-100357075D01*
X125197138Y-100365224D01*
X125193320Y-100384981D01*
X125187517Y-100409290D01*
X125185986Y-100415274D01*
X125177874Y-100448816D01*
X125168418Y-100490138D01*
X125158808Y-100533948D01*
X125150235Y-100574954D01*
X125149673Y-100583282D01*
X125156722Y-100596078D01*
X125173517Y-100600494D01*
X125198030Y-100595650D01*
X125220606Y-100587815D01*
X125263450Y-100573899D01*
X125294409Y-100565397D01*
X125312762Y-100562516D01*
X125326331Y-100559293D01*
X125343392Y-100549523D01*
X125352044Y-100540038D01*
X125359316Y-100525476D01*
X125365865Y-100503515D01*
X125372394Y-100471794D01*
X125379606Y-100427952D01*
X125379950Y-100425725D01*
X125387726Y-100380756D01*
X125395481Y-100348319D01*
X125403948Y-100326500D01*
X125413860Y-100313386D01*
X125425950Y-100307064D01*
X125435077Y-100304980D01*
X125453599Y-100305333D01*
X125464694Y-100316153D01*
X125471124Y-100339418D01*
X125471751Y-100342985D01*
X125477992Y-100370414D01*
X125485553Y-100395220D01*
X125488235Y-100402785D01*
X125496663Y-100428770D01*
X125504621Y-100455794D01*
X125505916Y-100460413D01*
X125514436Y-100484864D01*
X125524146Y-100497262D01*
X125537935Y-100499655D01*
X125558693Y-100494089D01*
X125578535Y-100487374D01*
X125610952Y-100477311D01*
X125641422Y-100468790D01*
X125666012Y-100462890D01*
X125680791Y-100460684D01*
X125687057Y-100459283D01*
X125697218Y-100447994D01*
X125701430Y-100428886D01*
X125698330Y-100406197D01*
X125693535Y-100390730D01*
X125673492Y-100323237D01*
X125652238Y-100246965D01*
X125648919Y-100234790D01*
X125640295Y-100203591D01*
X125632780Y-100176977D01*
X125627704Y-100159680D01*
X125623776Y-100146498D01*
X125616485Y-100121013D01*
X125608815Y-100093358D01*
X125603220Y-100073146D01*
X125596146Y-100048405D01*
X125591050Y-100031531D01*
X125586701Y-100017066D01*
X125579066Y-99989501D01*
X125570793Y-99958024D01*
X125563418Y-99928516D01*
X125558478Y-99906861D01*
X125550193Y-99889099D01*
X125533455Y-99881824D01*
X125508045Y-99886065D01*
X125483639Y-99893782D01*
X125449944Y-99903800D01*
X125412912Y-99914365D01*
X125376854Y-99924272D01*
X125346079Y-99932315D01*
X125324900Y-99937288D01*
X125320477Y-99938223D01*
X125296578Y-99944257D01*
X125277620Y-99950431D01*
X125270364Y-99953081D01*
X125248512Y-99959902D01*
X125223488Y-99966715D01*
X125177193Y-99981406D01*
X125126424Y-100007364D01*
X125113104Y-100018724D01*
X125087698Y-100040392D01*
X125061397Y-100080030D01*
X125047902Y-100125823D01*
X125047598Y-100177312D01*
X124688876Y-100177312D01*
X124686534Y-100156733D01*
X124677705Y-100086085D01*
X124634187Y-100086689D01*
X124624737Y-100086897D01*
X124588852Y-100088442D01*
X124543950Y-100091138D01*
X124493954Y-100094679D01*
X124442791Y-100098757D01*
X124394384Y-100103065D01*
X124352659Y-100107297D01*
X124321541Y-100111145D01*
X124295151Y-100114348D01*
X124258105Y-100117426D01*
X124226054Y-100118672D01*
X124208392Y-100119307D01*
X124185765Y-100122530D01*
X124173988Y-100127909D01*
X124171760Y-100136060D01*
X124170540Y-100155529D01*
X123773234Y-100155529D01*
X123769246Y-100151463D01*
X123721455Y-100121606D01*
X123711461Y-100116757D01*
X123680205Y-100104155D01*
X123646804Y-100095251D01*
X123607135Y-100089122D01*
X123557073Y-100084848D01*
X123513743Y-100084532D01*
X123459042Y-100091814D01*
X123410610Y-100107130D01*
X123370022Y-100129550D01*
X123338854Y-100158142D01*
X123318684Y-100191977D01*
X123311086Y-100230123D01*
X123310969Y-100240649D01*
X123312713Y-100254640D01*
X123319926Y-100260453D01*
X123335945Y-100262426D01*
X123354634Y-100264232D01*
X123382695Y-100267647D01*
X123412749Y-100271823D01*
X123434653Y-100274811D01*
X123459657Y-100276397D01*
X123476245Y-100273383D01*
X123487957Y-100264865D01*
X123498334Y-100249938D01*
X123514730Y-100233247D01*
X123540749Y-100223349D01*
X123571417Y-100222924D01*
X123602895Y-100232607D01*
X123623013Y-100244924D01*
X123633198Y-100258706D01*
X123629562Y-100271515D01*
X123612492Y-100282937D01*
X123582379Y-100292558D01*
X123539610Y-100299964D01*
X123506879Y-100304152D01*
X123459538Y-100310612D01*
X123424364Y-100316095D01*
X123399882Y-100320868D01*
X123384613Y-100325198D01*
X123377082Y-100329352D01*
X123372190Y-100332856D01*
X123356886Y-100337030D01*
X123352180Y-100337775D01*
X123335198Y-100347336D01*
X123315619Y-100365216D01*
X123296458Y-100387981D01*
X123280727Y-100412195D01*
X123271442Y-100434423D01*
X123268813Y-100445638D01*
X123263043Y-100496110D01*
X122850535Y-100496110D01*
X122854308Y-100485144D01*
X122862109Y-100460177D01*
X122870514Y-100431589D01*
X122871509Y-100428099D01*
X122879823Y-100399389D01*
X122887185Y-100374630D01*
X122892102Y-100358851D01*
X122894703Y-100350762D01*
X122901401Y-100329292D01*
X122910288Y-100300370D01*
X122920154Y-100267929D01*
X122928026Y-100242002D01*
X122941490Y-100197928D01*
X122955840Y-100151196D01*
X122969056Y-100108390D01*
X122969721Y-100106244D01*
X122981521Y-100066415D01*
X122988212Y-100037973D01*
X122989632Y-100018724D01*
X122985619Y-100006472D01*
X122976013Y-99999023D01*
X122960652Y-99994183D01*
X122950034Y-99991518D01*
X122925942Y-99984935D01*
X122899519Y-99977265D01*
X122882755Y-99972307D01*
X122859908Y-99965759D01*
X122844966Y-99961740D01*
X122842761Y-99961494D01*
X122826054Y-99966136D01*
X122798795Y-99980145D01*
X122761317Y-100003353D01*
X122743721Y-100014852D01*
X122702675Y-100041684D01*
X122659720Y-100069774D01*
X122621705Y-100094642D01*
X122610821Y-100101745D01*
X122577246Y-100123249D01*
X122553718Y-100137416D01*
X122538749Y-100145028D01*
X122530857Y-100146869D01*
X122528557Y-100143719D01*
X122529886Y-100137289D01*
X122534823Y-100120225D01*
X122542155Y-100097479D01*
X122548731Y-100077066D01*
X122559152Y-100042511D01*
X122568370Y-100009710D01*
X122575101Y-99985987D01*
X122584123Y-99957387D01*
X122591885Y-99935954D01*
X122596265Y-99923318D01*
X122598718Y-99899893D01*
X122591640Y-99884389D01*
X122575593Y-99878782D01*
X122574991Y-99878776D01*
X122555792Y-99875668D01*
X122534259Y-99868571D01*
X122514233Y-99860611D01*
X122482324Y-99850264D01*
X122455212Y-99844223D01*
X122437023Y-99843551D01*
X122435116Y-99844052D01*
X122423618Y-99854752D01*
X122414413Y-99878867D01*
X122411351Y-99890281D01*
X122404098Y-99916449D01*
X122395512Y-99946170D01*
X122384828Y-99982025D01*
X122371284Y-100026591D01*
X122354115Y-100082448D01*
X122349730Y-100096671D01*
X122333704Y-100148844D01*
X122321379Y-100189386D01*
X122312219Y-100220112D01*
X122305688Y-100242840D01*
X122301252Y-100259385D01*
X122298374Y-100271566D01*
X122292692Y-100290893D01*
X122284222Y-100312671D01*
X122283741Y-100313759D01*
X122276827Y-100332704D01*
X122273975Y-100346879D01*
X122271952Y-100358664D01*
X122265632Y-100376478D01*
X122262753Y-100383844D01*
X122261802Y-100395758D01*
X119037148Y-100395758D01*
X119037148Y-99835140D01*
X121390315Y-99835140D01*
X121390354Y-99844415D01*
X121391301Y-99876991D01*
X121394106Y-99900769D01*
X121399572Y-99920397D01*
X121408500Y-99940524D01*
X121434265Y-99980998D01*
X121474362Y-100024677D01*
X121524176Y-100065211D01*
X121581179Y-100100571D01*
X121642842Y-100128727D01*
X121658980Y-100133699D01*
X121695714Y-100140629D01*
X121737112Y-100144570D01*
X121776999Y-100145046D01*
X121809200Y-100141579D01*
X121845473Y-100129398D01*
X121890327Y-100102591D01*
X121933044Y-100064544D01*
X121971672Y-100017056D01*
X122004259Y-99961925D01*
X122029318Y-99899808D01*
X122042483Y-99835890D01*
X122041694Y-99775182D01*
X122027110Y-99718282D01*
X121998887Y-99665784D01*
X121957185Y-99618286D01*
X121902160Y-99576382D01*
X121835469Y-99539512D01*
X121767733Y-99513700D01*
X121703641Y-99501731D01*
X121643443Y-99503566D01*
X121587391Y-99519166D01*
X121535734Y-99548491D01*
X121488723Y-99591501D01*
X121446608Y-99648157D01*
X121429212Y-99677246D01*
X121409923Y-99715741D01*
X121397995Y-99751619D01*
X121391951Y-99789784D01*
X121390315Y-99835140D01*
X119037148Y-99835140D01*
X119037148Y-96061754D01*
X120056744Y-96061754D01*
X120057212Y-96108829D01*
X120058296Y-96150134D01*
X120060070Y-96188156D01*
X120062612Y-96225378D01*
X120065998Y-96264285D01*
X120070305Y-96307362D01*
X120074236Y-96345013D01*
X120080681Y-96406194D01*
X120085985Y-96455497D01*
X120090353Y-96494619D01*
X120093991Y-96525262D01*
X120097105Y-96549123D01*
X120099900Y-96567903D01*
X120102582Y-96583300D01*
X120105357Y-96597013D01*
X120106572Y-96602787D01*
X120111820Y-96629183D01*
X120118113Y-96662357D01*
X120124343Y-96696508D01*
X120130859Y-96731840D01*
X120138579Y-96770121D01*
X120147453Y-96809998D01*
X120158409Y-96855607D01*
X120172372Y-96911085D01*
X120174622Y-96919915D01*
X120182603Y-96951505D01*
X120189555Y-96979387D01*
X120194180Y-96998370D01*
X120195480Y-97003686D01*
X120203661Y-97033546D01*
X120215278Y-97072258D01*
X120229554Y-97117548D01*
X120245713Y-97167141D01*
X120262978Y-97218765D01*
X120280572Y-97270144D01*
X120297718Y-97319006D01*
X120313641Y-97363075D01*
X120327564Y-97400078D01*
X120338709Y-97427741D01*
X120346301Y-97443789D01*
X120350331Y-97451785D01*
X120353700Y-97463285D01*
X120354146Y-97466024D01*
X120359662Y-97481610D01*
X120370780Y-97507650D01*
X120386624Y-97542380D01*
X120406320Y-97584035D01*
X120428992Y-97630850D01*
X120453766Y-97681063D01*
X120479765Y-97732908D01*
X120506116Y-97784621D01*
X120531943Y-97834438D01*
X120556371Y-97880595D01*
X120578525Y-97921327D01*
X120597529Y-97954870D01*
X120633281Y-98014256D01*
X120674411Y-98079346D01*
X120718460Y-98146411D01*
X120763430Y-98212514D01*
X120807321Y-98274719D01*
X120848134Y-98330086D01*
X120883871Y-98375680D01*
X120890501Y-98383821D01*
X120910182Y-98408491D01*
X120926578Y-98429744D01*
X120936676Y-98443701D01*
X120936954Y-98444119D01*
X120948050Y-98459000D01*
X120965148Y-98480088D01*
X120984665Y-98502960D01*
X120988436Y-98507268D01*
X121012140Y-98534494D01*
X121039160Y-98565703D01*
X121064355Y-98594962D01*
X121085271Y-98618208D01*
X121114584Y-98649209D01*
X121150219Y-98685905D01*
X121190129Y-98726270D01*
X121232268Y-98768277D01*
X121274589Y-98809899D01*
X121315045Y-98849111D01*
X121351590Y-98883885D01*
X121382177Y-98912195D01*
X121404759Y-98932015D01*
X121405267Y-98932438D01*
X121430597Y-98953766D01*
X121455216Y-98974877D01*
X121473860Y-98991258D01*
X121480086Y-98996721D01*
X121502197Y-99015211D01*
X121532030Y-99039392D01*
X121566869Y-99067137D01*
X121604000Y-99096322D01*
X121640710Y-99124821D01*
X121674284Y-99150507D01*
X121702008Y-99171257D01*
X121721168Y-99184943D01*
X121722830Y-99186066D01*
X121742586Y-99199450D01*
X121770481Y-99218377D01*
X121803043Y-99240490D01*
X121836801Y-99263432D01*
X121846446Y-99269947D01*
X121928179Y-99322401D01*
X122020308Y-99377317D01*
X122119738Y-99433049D01*
X122223373Y-99487950D01*
X122328118Y-99540376D01*
X122430878Y-99588680D01*
X122528557Y-99631217D01*
X122535584Y-99634139D01*
X122569870Y-99648434D01*
X122599703Y-99660937D01*
X122622087Y-99670388D01*
X122634026Y-99675531D01*
X122637357Y-99676889D01*
X122654514Y-99683063D01*
X122681837Y-99692375D01*
X122716639Y-99703953D01*
X122756239Y-99716927D01*
X122797952Y-99730426D01*
X122839093Y-99743580D01*
X122876979Y-99755518D01*
X122908927Y-99765369D01*
X122932251Y-99772264D01*
X123007736Y-99793096D01*
X123091067Y-99814531D01*
X123165011Y-99831599D01*
X123166327Y-99831883D01*
X123184610Y-99835890D01*
X123201141Y-99839513D01*
X123236739Y-99847508D01*
X123265613Y-99854183D01*
X123284284Y-99858196D01*
X123310172Y-99862545D01*
X123328785Y-99864235D01*
X123347130Y-99866105D01*
X123370022Y-99872044D01*
X123373230Y-99873213D01*
X123382173Y-99875914D01*
X123394076Y-99878610D01*
X123410583Y-99881536D01*
X123433334Y-99884930D01*
X123463971Y-99889026D01*
X123504137Y-99894060D01*
X123555473Y-99900268D01*
X123619622Y-99907886D01*
X123620214Y-99907955D01*
X123653068Y-99911600D01*
X123685001Y-99914562D01*
X123717945Y-99916903D01*
X123753835Y-99918685D01*
X123794604Y-99919968D01*
X123842185Y-99920813D01*
X123898512Y-99921282D01*
X123965518Y-99921435D01*
X124045137Y-99921334D01*
X124053346Y-99921314D01*
X124142180Y-99920883D01*
X124218679Y-99920037D01*
X124284877Y-99918671D01*
X124342811Y-99916679D01*
X124394517Y-99913955D01*
X124442029Y-99910395D01*
X124487383Y-99905892D01*
X124532614Y-99900341D01*
X124579759Y-99893638D01*
X124616191Y-99887967D01*
X124682283Y-99876855D01*
X124751942Y-99864277D01*
X124821575Y-99850931D01*
X124887587Y-99837512D01*
X124946381Y-99824718D01*
X124994364Y-99813246D01*
X125007300Y-99809897D01*
X125047774Y-99799013D01*
X125092493Y-99786508D01*
X125139173Y-99773070D01*
X125155883Y-99768138D01*
X125855117Y-99768138D01*
X125858334Y-99782014D01*
X125866351Y-99804021D01*
X125877890Y-99830501D01*
X125880444Y-99835928D01*
X125893343Y-99861697D01*
X125903206Y-99876935D01*
X125912064Y-99884202D01*
X125921943Y-99886056D01*
X125929576Y-99884438D01*
X125949590Y-99877246D01*
X125978134Y-99865296D01*
X126012629Y-99849684D01*
X126050496Y-99831503D01*
X126078907Y-99817553D01*
X126112286Y-99801377D01*
X126139346Y-99788512D01*
X126157852Y-99780017D01*
X126165571Y-99776949D01*
X126166291Y-99777209D01*
X126172647Y-99785210D01*
X126181794Y-99800909D01*
X126191291Y-99819571D01*
X126198700Y-99836462D01*
X126201581Y-99846847D01*
X126200732Y-99849760D01*
X126189724Y-99860980D01*
X126167639Y-99874843D01*
X126136550Y-99889974D01*
X126133986Y-99891102D01*
X126091886Y-99910610D01*
X126055386Y-99929337D01*
X126026469Y-99946136D01*
X126007112Y-99959864D01*
X125999299Y-99969373D01*
X126000829Y-99981351D01*
X126008133Y-100002272D01*
X126019254Y-100027092D01*
X126032058Y-100051455D01*
X126044411Y-100071005D01*
X126054178Y-100081386D01*
X126057167Y-100082268D01*
X126069630Y-100080511D01*
X126090646Y-100072878D01*
X126121529Y-100058845D01*
X126163594Y-100037890D01*
X126180856Y-100029116D01*
X126213515Y-100012821D01*
X126240534Y-99999744D01*
X126259489Y-99991046D01*
X126267957Y-99987889D01*
X126268563Y-99988125D01*
X126275078Y-99996520D01*
X126286185Y-100015148D01*
X126300498Y-100041573D01*
X126316626Y-100073355D01*
X126329233Y-100098669D01*
X126345859Y-100129388D01*
X126359930Y-100148920D01*
X126373641Y-100158506D01*
X126389188Y-100159386D01*
X126408766Y-100152799D01*
X126434570Y-100139988D01*
X126452478Y-100130888D01*
X126479976Y-100117710D01*
X126502096Y-100107989D01*
X126507510Y-100105625D01*
X126524862Y-100095274D01*
X126534072Y-100085306D01*
X126534307Y-100081270D01*
X126532426Y-100073208D01*
X126527880Y-100060466D01*
X126520237Y-100042121D01*
X126509063Y-100017251D01*
X126493927Y-99984933D01*
X126474394Y-99944243D01*
X126450033Y-99894260D01*
X126420410Y-99834060D01*
X126385092Y-99762721D01*
X126343648Y-99679320D01*
X126329901Y-99652165D01*
X126310131Y-99614981D01*
X126293565Y-99586188D01*
X126281150Y-99567401D01*
X126273831Y-99560234D01*
X126271519Y-99560512D01*
X126257552Y-99565459D01*
X126233453Y-99575718D01*
X126201164Y-99590333D01*
X126162630Y-99608349D01*
X126119792Y-99628811D01*
X126074594Y-99650764D01*
X126028979Y-99673253D01*
X125984889Y-99695322D01*
X125944268Y-99716017D01*
X125909059Y-99734383D01*
X125881205Y-99749464D01*
X125862649Y-99760305D01*
X125855333Y-99765952D01*
X125855117Y-99768138D01*
X125155883Y-99768138D01*
X125185532Y-99759387D01*
X125229286Y-99746146D01*
X125268153Y-99734035D01*
X125299848Y-99723742D01*
X125322090Y-99715955D01*
X125332594Y-99711360D01*
X125341277Y-99707206D01*
X125358053Y-99702264D01*
X125367447Y-99699751D01*
X125390243Y-99692409D01*
X125418838Y-99682396D01*
X125448553Y-99671411D01*
X125474707Y-99661159D01*
X125492617Y-99653340D01*
X125505784Y-99647575D01*
X125528211Y-99638567D01*
X125554444Y-99628543D01*
X125591874Y-99613523D01*
X125640569Y-99592196D01*
X125696243Y-99566513D01*
X125755994Y-99537905D01*
X125816921Y-99507807D01*
X125876124Y-99477655D01*
X125930699Y-99448880D01*
X125977747Y-99422919D01*
X126014366Y-99401204D01*
X126021897Y-99396552D01*
X126037169Y-99387686D01*
X126044745Y-99384166D01*
X126051625Y-99380953D01*
X126069117Y-99370859D01*
X126095239Y-99355007D01*
X126128145Y-99334547D01*
X126165986Y-99310628D01*
X126206917Y-99284399D01*
X126249089Y-99257010D01*
X126312748Y-99213978D01*
X126406281Y-99146403D01*
X126501470Y-99072947D01*
X126594034Y-98996838D01*
X126677461Y-98925918D01*
X126756044Y-98925918D01*
X126794372Y-98925404D01*
X126819524Y-98923092D01*
X126832433Y-98917840D01*
X126834246Y-98908508D01*
X126826109Y-98893952D01*
X126809169Y-98873031D01*
X126799409Y-98861084D01*
X126788112Y-98845318D01*
X126783711Y-98836212D01*
X126784004Y-98835384D01*
X126791138Y-98826064D01*
X126806665Y-98808509D01*
X126829060Y-98784371D01*
X126856795Y-98755304D01*
X126888343Y-98722959D01*
X126955885Y-98652684D01*
X127027801Y-98574196D01*
X127095445Y-98496638D01*
X127155227Y-98424028D01*
X127169983Y-98405321D01*
X127199816Y-98366847D01*
X127230138Y-98327025D01*
X127258559Y-98289036D01*
X127282688Y-98256059D01*
X127300135Y-98231274D01*
X127305111Y-98223929D01*
X127353597Y-98151686D01*
X127395573Y-98087623D01*
X127433027Y-98028553D01*
X127467947Y-97971285D01*
X127502319Y-97912631D01*
X127538132Y-97849401D01*
X127541939Y-97842456D01*
X127555397Y-97816947D01*
X127572724Y-97783238D01*
X127592159Y-97744847D01*
X127611937Y-97705291D01*
X127630295Y-97668090D01*
X127645470Y-97636761D01*
X127655700Y-97614822D01*
X127659671Y-97605913D01*
X127673490Y-97574859D01*
X127686428Y-97545721D01*
X127691354Y-97534615D01*
X127702576Y-97509330D01*
X127711456Y-97489349D01*
X127712884Y-97486081D01*
X127721103Y-97466346D01*
X127732065Y-97439143D01*
X127743802Y-97409338D01*
X127747269Y-97400455D01*
X127758275Y-97372639D01*
X127767468Y-97349945D01*
X127773141Y-97336600D01*
X127775623Y-97330504D01*
X127782597Y-97311206D01*
X127791843Y-97284079D01*
X127802039Y-97252952D01*
X127807977Y-97234610D01*
X127817654Y-97205348D01*
X127825526Y-97182304D01*
X127830301Y-97169303D01*
X127834235Y-97158570D01*
X127841349Y-97136809D01*
X127849167Y-97111113D01*
X127854796Y-97091924D01*
X127863980Y-97060650D01*
X127871598Y-97034739D01*
X127877372Y-97014912D01*
X127897955Y-96939388D01*
X127915051Y-96867442D01*
X127915667Y-96864656D01*
X127922349Y-96835689D01*
X127928567Y-96810655D01*
X127933049Y-96794704D01*
X127934719Y-96788752D01*
X127939370Y-96768160D01*
X127945023Y-96739620D01*
X127950804Y-96707419D01*
X127953093Y-96694085D01*
X127959340Y-96658453D01*
X127965244Y-96625731D01*
X127969778Y-96601639D01*
X127974144Y-96578451D01*
X127988351Y-96486414D01*
X127999804Y-96382662D01*
X128008555Y-96266541D01*
X128014656Y-96137401D01*
X128018158Y-95994590D01*
X128019142Y-95919463D01*
X128019601Y-95854967D01*
X128019404Y-95799354D01*
X128018438Y-95749774D01*
X128016587Y-95703381D01*
X128013739Y-95657325D01*
X128009779Y-95608758D01*
X128004593Y-95554833D01*
X127998068Y-95492700D01*
X127990145Y-95426027D01*
X127977269Y-95334853D01*
X127961989Y-95241170D01*
X127944862Y-95147813D01*
X127926443Y-95057623D01*
X127907290Y-94973435D01*
X127887959Y-94898090D01*
X127869005Y-94834424D01*
X127864285Y-94819141D01*
X127856782Y-94793474D01*
X127848866Y-94765323D01*
X127841802Y-94741146D01*
X127835157Y-94721128D01*
X127830697Y-94710770D01*
X127830239Y-94710060D01*
X127825169Y-94697295D01*
X127820138Y-94678276D01*
X127819825Y-94676837D01*
X127814440Y-94656513D01*
X127809033Y-94641907D01*
X127806284Y-94635749D01*
X127799203Y-94617379D01*
X127791132Y-94594389D01*
X127784982Y-94576804D01*
X127773291Y-94545245D01*
X127759397Y-94509131D01*
X127744746Y-94472104D01*
X127730783Y-94437805D01*
X127718957Y-94409874D01*
X127710713Y-94391953D01*
X127710623Y-94391777D01*
X127703263Y-94375325D01*
X127700206Y-94364526D01*
X127699029Y-94359379D01*
X127692160Y-94341653D01*
X127680025Y-94314283D01*
X127663624Y-94279269D01*
X127643960Y-94238605D01*
X127622034Y-94194289D01*
X127598849Y-94148318D01*
X127575405Y-94102689D01*
X127552704Y-94059399D01*
X127531748Y-94020446D01*
X127513538Y-93987825D01*
X127499077Y-93963534D01*
X127494422Y-93956008D01*
X127485525Y-93940627D01*
X127481993Y-93932877D01*
X127480464Y-93927938D01*
X127471827Y-93911306D01*
X127456553Y-93885522D01*
X127435765Y-93852261D01*
X127410588Y-93813194D01*
X127382146Y-93769995D01*
X127351563Y-93724336D01*
X127319963Y-93677891D01*
X127288469Y-93632332D01*
X127258206Y-93589332D01*
X127230297Y-93550564D01*
X127205867Y-93517700D01*
X127186040Y-93492413D01*
X127181485Y-93486792D01*
X127168628Y-93470740D01*
X127153159Y-93451287D01*
X127130087Y-93422713D01*
X127069226Y-93351171D01*
X127000094Y-93274339D01*
X126925034Y-93194626D01*
X126846392Y-93114447D01*
X126766515Y-93036212D01*
X126687747Y-92962334D01*
X126612434Y-92895225D01*
X126593527Y-92879023D01*
X126458834Y-92770641D01*
X126314152Y-92665477D01*
X126162206Y-92565176D01*
X126005720Y-92471382D01*
X125847418Y-92385740D01*
X125690023Y-92309895D01*
X125536260Y-92245491D01*
X125532931Y-92244208D01*
X125499075Y-92230977D01*
X125469655Y-92219167D01*
X125447726Y-92210022D01*
X125436344Y-92204788D01*
X125428249Y-92201235D01*
X125410522Y-92197682D01*
X125403183Y-92196896D01*
X125390421Y-92191564D01*
X125390018Y-92191242D01*
X125378959Y-92185846D01*
X125358450Y-92178004D01*
X125332594Y-92169296D01*
X125331388Y-92168912D01*
X125304197Y-92160049D01*
X125281153Y-92152147D01*
X125267130Y-92146875D01*
X125256511Y-92142990D01*
X125234715Y-92136133D01*
X125208940Y-92128784D01*
X125188997Y-92123228D01*
X125162585Y-92115449D01*
X125143476Y-92109330D01*
X125120870Y-92102215D01*
X125096197Y-92095545D01*
X125090550Y-92094170D01*
X125064714Y-92087753D01*
X125038007Y-92080977D01*
X124982787Y-92067296D01*
X124841402Y-92036327D01*
X124693643Y-92009188D01*
X124545147Y-91986861D01*
X124401552Y-91970325D01*
X124399442Y-91970127D01*
X124360336Y-91967409D01*
X124309344Y-91965194D01*
X124248867Y-91963481D01*
X124181309Y-91962270D01*
X124109071Y-91961559D01*
X124034556Y-91961349D01*
X123960166Y-91961637D01*
X123888304Y-91962424D01*
X123821371Y-91963709D01*
X123761771Y-91965491D01*
X123711904Y-91967770D01*
X123674175Y-91970544D01*
X123594039Y-91979110D01*
X123486267Y-91993130D01*
X123377359Y-92010372D01*
X123263169Y-92031507D01*
X123139553Y-92057208D01*
X123116454Y-92062212D01*
X123084901Y-92068997D01*
X123059542Y-92074399D01*
X123051683Y-92076126D01*
X123027245Y-92082195D01*
X123008625Y-92087760D01*
X122994663Y-92092243D01*
X122970540Y-92099333D01*
X122943161Y-92106929D01*
X122923393Y-92112361D01*
X122850351Y-92133989D01*
X122772348Y-92159112D01*
X122695708Y-92185640D01*
X122626752Y-92211483D01*
X122626588Y-92211548D01*
X122608575Y-92218412D01*
X122582524Y-92228082D01*
X122554015Y-92238485D01*
X122525301Y-92249248D01*
X122496036Y-92260889D01*
X122474003Y-92270355D01*
X122473928Y-92270390D01*
X122452288Y-92280290D01*
X122423578Y-92293282D01*
X122393992Y-92306564D01*
X122356743Y-92323629D01*
X122284166Y-92358737D01*
X122206338Y-92398378D01*
X122127002Y-92440543D01*
X122049900Y-92483226D01*
X121978778Y-92524420D01*
X121917378Y-92562116D01*
X121862643Y-92597041D01*
X121793724Y-92569477D01*
X121731160Y-92545578D01*
X121658634Y-92519783D01*
X121581650Y-92493976D01*
X121505095Y-92469795D01*
X121433854Y-92448877D01*
X121415117Y-92443598D01*
X121382550Y-92434309D01*
X121354826Y-92426279D01*
X121342518Y-92422848D01*
X121321576Y-92417857D01*
X121308523Y-92415896D01*
X121303635Y-92415406D01*
X121286106Y-92411680D01*
X121263897Y-92405490D01*
X121250623Y-92401515D01*
X121206207Y-92390057D01*
X121166664Y-92382613D01*
X121134190Y-92379429D01*
X121110982Y-92380756D01*
X121099236Y-92386841D01*
X121098760Y-92388657D01*
X121098270Y-92402612D01*
X121098877Y-92427720D01*
X121100408Y-92461524D01*
X121102689Y-92501572D01*
X121105545Y-92545407D01*
X121108802Y-92590574D01*
X121112287Y-92634621D01*
X121115825Y-92675090D01*
X121119243Y-92709527D01*
X121122365Y-92735479D01*
X121125019Y-92750489D01*
X121129884Y-92775261D01*
X121131952Y-92799439D01*
X121133041Y-92814045D01*
X121136808Y-92842098D01*
X121142768Y-92879111D01*
X121150395Y-92922242D01*
X121159168Y-92968648D01*
X121168562Y-93015487D01*
X121178055Y-93059916D01*
X121187122Y-93099093D01*
X121190526Y-93115531D01*
X121192848Y-93135898D01*
X121191646Y-93147504D01*
X121185849Y-93154880D01*
X121171798Y-93170800D01*
X121151889Y-93192478D01*
X121128356Y-93217443D01*
X121088686Y-93259767D01*
X120951266Y-93418243D01*
X120820352Y-93587829D01*
X120697301Y-93766471D01*
X120583474Y-93952112D01*
X120480228Y-94142697D01*
X120388922Y-94336170D01*
X120385001Y-94345106D01*
X120373805Y-94370312D01*
X120364571Y-94390724D01*
X120359080Y-94403425D01*
X120348988Y-94427915D01*
X120336191Y-94459639D01*
X120322042Y-94495191D01*
X120307895Y-94531164D01*
X120295105Y-94564153D01*
X120285026Y-94590752D01*
X120280900Y-94602280D01*
X120272001Y-94628606D01*
X120263142Y-94656216D01*
X120258157Y-94671923D01*
X120248913Y-94699765D01*
X120241162Y-94721680D01*
X120239148Y-94727229D01*
X120230684Y-94753100D01*
X120222950Y-94779870D01*
X120213331Y-94815638D01*
X120201689Y-94857156D01*
X120192013Y-94889535D01*
X120185028Y-94910274D01*
X120183211Y-94915466D01*
X120177137Y-94936726D01*
X120171429Y-94961190D01*
X120167516Y-94979734D01*
X120160752Y-95010735D01*
X120153794Y-95041726D01*
X120144463Y-95083183D01*
X120122785Y-95186011D01*
X120104862Y-95282760D01*
X120090365Y-95376367D01*
X120078968Y-95469767D01*
X120070339Y-95565898D01*
X120064153Y-95667695D01*
X120060079Y-95778093D01*
X120057790Y-95900031D01*
X120057346Y-95940358D01*
X120056814Y-96006425D01*
X120056744Y-96061754D01*
X119037148Y-96061754D01*
X119037148Y-95940036D01*
X119037148Y-91977067D01*
X122503384Y-91977067D01*
X122507775Y-91991632D01*
X122511434Y-91995319D01*
X122522980Y-92000002D01*
X122540901Y-91998476D01*
X122568562Y-91990689D01*
X122574122Y-91988912D01*
X122602355Y-91980408D01*
X122630389Y-91972570D01*
X122657634Y-91965389D01*
X122679501Y-91958866D01*
X122692569Y-91952407D01*
X122699625Y-91943766D01*
X122703456Y-91930698D01*
X122706847Y-91910957D01*
X122714205Y-91868216D01*
X122761401Y-91854418D01*
X122784526Y-91847576D01*
X122817845Y-91837515D01*
X122845778Y-91828869D01*
X122847288Y-91828394D01*
X122874691Y-91821576D01*
X122893750Y-91822809D01*
X122908946Y-91833604D01*
X122924758Y-91855468D01*
X122931500Y-91865473D01*
X122944482Y-91878844D01*
X122960010Y-91884312D01*
X122981719Y-91882665D01*
X123013245Y-91874694D01*
X123027937Y-91870459D01*
X123059739Y-91861313D01*
X123090455Y-91852501D01*
X123109206Y-91846314D01*
X123120019Y-91841415D01*
X124878128Y-91841415D01*
X124880314Y-91846581D01*
X124885338Y-91849820D01*
X124892631Y-91852187D01*
X124901624Y-91854735D01*
X124906560Y-91856232D01*
X124932568Y-91863495D01*
X124963529Y-91871440D01*
X124995643Y-91879176D01*
X125025111Y-91885807D01*
X125048132Y-91890441D01*
X125060906Y-91892184D01*
X125065837Y-91890733D01*
X125078961Y-91879235D01*
X125093322Y-91858809D01*
X125099533Y-91848492D01*
X125110212Y-91834091D01*
X125119770Y-91828839D01*
X125131816Y-91830039D01*
X125132029Y-91830091D01*
X125152830Y-91835122D01*
X125176208Y-91840741D01*
X125218685Y-91851422D01*
X125256499Y-91862164D01*
X125283162Y-91871306D01*
X125297091Y-91878355D01*
X125299117Y-91880648D01*
X125304879Y-91895732D01*
X125307248Y-91916715D01*
X125307385Y-91922809D01*
X125309472Y-91943193D01*
X125313245Y-91956013D01*
X125316177Y-91958499D01*
X125331035Y-91965489D01*
X125354834Y-91973876D01*
X125384053Y-91982352D01*
X125410771Y-91989364D01*
X125442931Y-91997628D01*
X125464810Y-92002731D01*
X125478729Y-92004997D01*
X125487011Y-92004752D01*
X125491975Y-92002320D01*
X125495944Y-91998027D01*
X125496480Y-91997289D01*
X125500164Y-91982739D01*
X125501129Y-91956463D01*
X125499474Y-91920769D01*
X125495300Y-91877964D01*
X125488705Y-91830357D01*
X125486415Y-91813398D01*
X125483075Y-91776730D01*
X125481719Y-91743072D01*
X125481266Y-91726023D01*
X125478577Y-91689396D01*
X125474292Y-91655787D01*
X125473471Y-91650526D01*
X125470153Y-91623780D01*
X125466526Y-91587716D01*
X125462976Y-91546402D01*
X125459890Y-91503907D01*
X125458650Y-91486208D01*
X125455511Y-91449462D01*
X125452137Y-91418902D01*
X125448858Y-91397309D01*
X125446007Y-91387464D01*
X125441801Y-91384230D01*
X125425870Y-91376846D01*
X125404080Y-91369731D01*
X125387573Y-91365140D01*
X125356017Y-91356024D01*
X125325321Y-91346835D01*
X125305234Y-91340997D01*
X125276912Y-91333641D01*
X125255033Y-91328936D01*
X125254482Y-91328840D01*
X125247890Y-91327377D01*
X125242369Y-91326346D01*
X125237055Y-91326786D01*
X125231086Y-91329736D01*
X125223598Y-91336235D01*
X125213729Y-91347323D01*
X125200617Y-91364038D01*
X125183397Y-91387419D01*
X125161207Y-91418506D01*
X125133185Y-91458338D01*
X125098467Y-91507953D01*
X125056191Y-91568392D01*
X125031061Y-91604270D01*
X124990066Y-91662786D01*
X124956460Y-91710946D01*
X124929674Y-91749802D01*
X124909138Y-91780408D01*
X124894285Y-91803819D01*
X124884544Y-91821087D01*
X124879519Y-91832867D01*
X124879348Y-91833268D01*
X124878128Y-91841415D01*
X123120019Y-91841415D01*
X123125863Y-91838767D01*
X123132279Y-91832867D01*
X123132034Y-91831793D01*
X123126298Y-91820741D01*
X123114101Y-91800822D01*
X123103114Y-91783916D01*
X123391362Y-91783916D01*
X123393905Y-91790879D01*
X123399082Y-91795807D01*
X123410729Y-91801174D01*
X123430076Y-91803747D01*
X123470820Y-91800932D01*
X123511995Y-91797443D01*
X123546350Y-91793837D01*
X123571314Y-91790388D01*
X123584319Y-91787369D01*
X123586266Y-91786222D01*
X123595123Y-91772886D01*
X123601128Y-91749875D01*
X123602113Y-91744224D01*
X123608962Y-91722820D01*
X123618246Y-91711189D01*
X123629395Y-91708550D01*
X123652041Y-91705895D01*
X123682636Y-91703635D01*
X123717818Y-91702078D01*
X123805103Y-91699429D01*
X123823287Y-91738431D01*
X123841472Y-91777432D01*
X123899662Y-91773025D01*
X123901746Y-91772868D01*
X123935245Y-91770714D01*
X123967798Y-91769175D01*
X123992631Y-91768574D01*
X124014328Y-91766981D01*
X124029429Y-91759887D01*
X124030668Y-91754275D01*
X124355641Y-91754275D01*
X124358396Y-91772254D01*
X124365319Y-91783269D01*
X124376889Y-91789409D01*
X124393586Y-91792766D01*
X124422592Y-91796513D01*
X124472298Y-91801537D01*
X124510322Y-91803259D01*
X124535840Y-91801659D01*
X124548029Y-91796715D01*
X124549716Y-91793376D01*
X124553862Y-91776936D01*
X124557754Y-91751583D01*
X124560730Y-91721251D01*
X124560996Y-91717654D01*
X124564362Y-91676838D01*
X124568494Y-91632620D01*
X124572557Y-91593960D01*
X124573188Y-91588379D01*
X124576804Y-91555235D01*
X124581212Y-91513438D01*
X124585913Y-91467772D01*
X124590408Y-91423026D01*
X124591676Y-91410212D01*
X124595903Y-91367525D01*
X124599896Y-91327205D01*
X124603258Y-91293288D01*
X124605587Y-91269812D01*
X124607168Y-91246724D01*
X124605783Y-91227714D01*
X124600319Y-91217888D01*
X124593288Y-91214753D01*
X124573768Y-91210290D01*
X124546455Y-91206168D01*
X124515043Y-91202712D01*
X124483224Y-91200251D01*
X124454691Y-91199111D01*
X124433137Y-91199620D01*
X124422254Y-91202105D01*
X124415480Y-91211667D01*
X124409339Y-91228955D01*
X124407788Y-91238970D01*
X124404922Y-91262304D01*
X124401282Y-91295063D01*
X124397150Y-91334435D01*
X124392807Y-91377610D01*
X124388536Y-91421778D01*
X124384617Y-91464128D01*
X124381333Y-91501850D01*
X124378964Y-91532133D01*
X124377197Y-91552300D01*
X124373649Y-91585715D01*
X124369071Y-91624530D01*
X124364020Y-91663832D01*
X124360719Y-91689060D01*
X124356576Y-91727241D01*
X124355937Y-91745728D01*
X124355641Y-91754275D01*
X124030668Y-91754275D01*
X124032556Y-91745728D01*
X124024764Y-91723010D01*
X124022573Y-91718238D01*
X124013827Y-91698591D01*
X124001262Y-91669895D01*
X123986213Y-91635210D01*
X123970016Y-91597597D01*
X123968196Y-91593355D01*
X123938015Y-91523255D01*
X123904065Y-91444782D01*
X123868346Y-91362554D01*
X123832861Y-91281188D01*
X123827220Y-91268242D01*
X123811328Y-91232240D01*
X123798626Y-91207164D01*
X123786728Y-91191313D01*
X123773252Y-91182992D01*
X123755811Y-91180500D01*
X123732021Y-91182140D01*
X123699498Y-91186215D01*
X123693827Y-91186909D01*
X123659996Y-91190458D01*
X123628086Y-91192957D01*
X123604337Y-91193902D01*
X123594258Y-91194289D01*
X123574647Y-91197526D01*
X123563839Y-91202995D01*
X123562565Y-91204881D01*
X123556888Y-91216435D01*
X123549833Y-91235858D01*
X123540695Y-91265233D01*
X123528769Y-91306646D01*
X123523155Y-91326013D01*
X123514036Y-91355823D01*
X123506222Y-91379627D01*
X123504070Y-91386057D01*
X123498288Y-91406834D01*
X123495968Y-91421204D01*
X123495943Y-91422118D01*
X123492715Y-91437708D01*
X123485717Y-91457330D01*
X123485276Y-91458373D01*
X123477954Y-91478112D01*
X123468813Y-91505793D01*
X123459724Y-91535770D01*
X123455736Y-91549578D01*
X123439107Y-91606840D01*
X123425738Y-91652311D01*
X123415956Y-91684882D01*
X123414592Y-91689344D01*
X123403069Y-91727632D01*
X123395591Y-91754611D01*
X123391807Y-91772600D01*
X123391362Y-91783916D01*
X123103114Y-91783916D01*
X123096977Y-91774474D01*
X123076459Y-91744135D01*
X123054997Y-91712909D01*
X123024822Y-91668888D01*
X122994684Y-91624809D01*
X122968698Y-91586686D01*
X122949308Y-91558327D01*
X122923459Y-91520883D01*
X122898897Y-91485648D01*
X122879043Y-91457550D01*
X122871118Y-91446383D01*
X122855852Y-91424342D01*
X122845280Y-91408320D01*
X122841329Y-91401195D01*
X122839447Y-91395685D01*
X122830106Y-91380879D01*
X122815793Y-91362093D01*
X122799735Y-91343242D01*
X122785155Y-91328242D01*
X122775278Y-91321007D01*
X122770927Y-91320226D01*
X122752392Y-91321462D01*
X122730244Y-91327006D01*
X122718960Y-91330840D01*
X122679409Y-91343566D01*
X122647738Y-91352273D01*
X122619479Y-91358220D01*
X122602727Y-91361516D01*
X122583180Y-91367837D01*
X122570358Y-91377922D01*
X122562508Y-91394467D01*
X122557874Y-91420167D01*
X122554703Y-91457717D01*
X122553287Y-91476598D01*
X122550018Y-91512040D01*
X122546419Y-91543164D01*
X122543047Y-91564865D01*
X122541065Y-91576464D01*
X122537620Y-91607232D01*
X122536087Y-91637602D01*
X122535539Y-91652236D01*
X122533227Y-91683245D01*
X122529556Y-91720096D01*
X122525001Y-91757619D01*
X122522111Y-91780929D01*
X122518054Y-91820530D01*
X122515240Y-91857097D01*
X122514151Y-91884958D01*
X122513379Y-91907970D01*
X122510735Y-91936316D01*
X122506884Y-91957130D01*
X122503384Y-91977067D01*
X119037148Y-91977067D01*
X119037148Y-90939321D01*
X124037864Y-90939321D01*
X129038579Y-90939321D01*
X129038579Y-91246724D01*
X129038579Y-91956463D01*
G37*
G36*
X126049144Y-92637035D02*
G01*
X126082654Y-92657625D01*
X126115902Y-92678228D01*
X126146546Y-92697401D01*
X126172242Y-92713700D01*
X126190647Y-92725681D01*
X126199416Y-92731901D01*
X126204884Y-92736230D01*
X126220843Y-92747961D01*
X126243762Y-92764332D01*
X126270696Y-92783221D01*
X126309642Y-92810803D01*
X126442854Y-92912383D01*
X126576841Y-93025260D01*
X126709349Y-93147297D01*
X126838122Y-93276353D01*
X126960907Y-93410289D01*
X126974862Y-93426941D01*
X127075451Y-93546967D01*
X127087545Y-93562442D01*
X127093287Y-93570002D01*
X127108357Y-93589843D01*
X127133036Y-93622914D01*
X127159781Y-93659185D01*
X127186789Y-93696185D01*
X127212260Y-93731443D01*
X127234392Y-93762487D01*
X127251382Y-93786848D01*
X127261430Y-93802053D01*
X127266740Y-93810646D01*
X127278779Y-93829961D01*
X127294985Y-93855870D01*
X127313375Y-93885197D01*
X127324066Y-93902411D01*
X127340071Y-93928803D01*
X127349281Y-93943990D01*
X127375259Y-93987878D01*
X127397809Y-94027035D01*
X127412501Y-94053065D01*
X127428157Y-94080794D01*
X127440297Y-94102285D01*
X127447104Y-94114321D01*
X127447764Y-94115496D01*
X127456212Y-94131351D01*
X127468582Y-94155425D01*
X127483562Y-94185069D01*
X127499839Y-94217632D01*
X127512879Y-94243965D01*
X127516099Y-94250467D01*
X127531032Y-94280924D01*
X127543323Y-94306353D01*
X127551660Y-94324106D01*
X127554731Y-94331533D01*
X127554947Y-94332568D01*
X127559224Y-94343664D01*
X127567853Y-94363540D01*
X127579352Y-94388746D01*
X127598980Y-94432747D01*
X127626174Y-94498474D01*
X127654512Y-94571626D01*
X127682562Y-94648480D01*
X127708891Y-94725317D01*
X127712552Y-94736410D01*
X127731315Y-94794216D01*
X127747417Y-94845985D01*
X127753663Y-94867339D01*
X127761783Y-94895098D01*
X127775340Y-94944939D01*
X127789014Y-94998889D01*
X127803730Y-95060332D01*
X127820415Y-95132648D01*
X127822079Y-95140064D01*
X127828376Y-95170242D01*
X127835020Y-95205631D01*
X127842260Y-95247768D01*
X127850344Y-95298188D01*
X127859520Y-95358429D01*
X127870037Y-95430028D01*
X127882143Y-95514521D01*
X127886118Y-95548880D01*
X127890222Y-95598940D01*
X127892370Y-95634187D01*
X127893853Y-95658526D01*
X127896921Y-95724982D01*
X127899337Y-95795650D01*
X127901012Y-95867876D01*
X127901856Y-95939001D01*
X127901781Y-96006371D01*
X127900698Y-96067327D01*
X127897724Y-96146039D01*
X127891947Y-96240715D01*
X127883511Y-96335683D01*
X127872057Y-96434359D01*
X127857225Y-96540160D01*
X127838654Y-96656503D01*
X127836148Y-96670779D01*
X127826612Y-96718952D01*
X127814196Y-96775576D01*
X127799869Y-96836603D01*
X127791276Y-96871151D01*
X127784601Y-96897988D01*
X127769358Y-96955684D01*
X127755109Y-97005644D01*
X127750455Y-97021412D01*
X127742543Y-97049221D01*
X127736663Y-97071107D01*
X127730212Y-97093946D01*
X127717817Y-97132664D01*
X127701655Y-97179780D01*
X127682765Y-97232496D01*
X127662189Y-97288011D01*
X127640968Y-97343526D01*
X127622012Y-97391509D01*
X127620143Y-97396241D01*
X127600755Y-97443357D01*
X127583844Y-97482075D01*
X127574532Y-97502550D01*
X127560024Y-97534636D01*
X127547700Y-97562087D01*
X127546233Y-97565354D01*
X127530045Y-97599854D01*
X127508832Y-97643128D01*
X127484413Y-97691637D01*
X127458605Y-97741839D01*
X127433225Y-97790196D01*
X127410092Y-97833167D01*
X127391023Y-97867213D01*
X127384744Y-97878020D01*
X127298437Y-98018349D01*
X127203773Y-98158434D01*
X127102908Y-98295454D01*
X126997999Y-98426591D01*
X126891203Y-98549024D01*
X126784677Y-98659933D01*
X126726169Y-98717631D01*
X126717734Y-98696302D01*
X126711825Y-98679035D01*
X126704002Y-98652908D01*
X126696133Y-98624057D01*
X126692498Y-98610009D01*
X126669833Y-98523051D01*
X126650158Y-98448853D01*
X126633115Y-98386209D01*
X126618345Y-98333911D01*
X126605493Y-98290755D01*
X126594199Y-98255534D01*
X126584106Y-98227040D01*
X126574857Y-98204070D01*
X126566095Y-98185415D01*
X126559962Y-98173239D01*
X126549541Y-98152367D01*
X126537211Y-98127563D01*
X126535616Y-98124349D01*
X126519960Y-98093236D01*
X126507436Y-98069963D01*
X126495113Y-98049680D01*
X126480063Y-98027541D01*
X126459357Y-97998696D01*
X126458925Y-97998101D01*
X126417075Y-97945993D01*
X126368367Y-97894284D01*
X126317119Y-97847244D01*
X126267651Y-97809143D01*
X126259827Y-97803726D01*
X126232784Y-97783300D01*
X126218662Y-97769359D01*
X126217242Y-97762186D01*
X126228305Y-97762064D01*
X126251632Y-97769277D01*
X126287003Y-97784109D01*
X126332898Y-97808489D01*
X126388087Y-97845761D01*
X126441844Y-97890107D01*
X126452706Y-97899843D01*
X126496034Y-97936296D01*
X126539551Y-97969549D01*
X126579886Y-97997121D01*
X126613670Y-98016534D01*
X126615811Y-98017585D01*
X126646183Y-98030518D01*
X126673634Y-98036844D01*
X126706411Y-98038519D01*
X126729890Y-98038162D01*
X126745721Y-98036363D01*
X126752916Y-98032226D01*
X126754616Y-98024862D01*
X126752652Y-98015702D01*
X126742843Y-98001434D01*
X126732472Y-97990000D01*
X126716523Y-97968826D01*
X126697260Y-97941129D01*
X126676742Y-97909958D01*
X126657030Y-97878366D01*
X126640182Y-97849401D01*
X126634240Y-97838625D01*
X126619306Y-97811439D01*
X126600651Y-97777393D01*
X126580351Y-97740285D01*
X126560484Y-97703914D01*
X126543126Y-97672077D01*
X126530355Y-97648572D01*
X126530122Y-97648142D01*
X126506041Y-97605735D01*
X126475976Y-97555822D01*
X126442513Y-97502461D01*
X126408243Y-97449707D01*
X126375753Y-97401616D01*
X126354460Y-97371804D01*
X127069661Y-97371804D01*
X127079159Y-97387809D01*
X127081673Y-97391801D01*
X127086826Y-97405528D01*
X127082170Y-97416329D01*
X127080287Y-97418809D01*
X127077023Y-97431365D01*
X127085449Y-97438737D01*
X127103290Y-97438535D01*
X127117197Y-97437451D01*
X127132584Y-97445383D01*
X127142367Y-97454417D01*
X127151341Y-97454524D01*
X127154673Y-97441722D01*
X127154722Y-97440612D01*
X127160664Y-97425302D01*
X127173518Y-97409363D01*
X127176411Y-97406548D01*
X127186576Y-97391509D01*
X127185166Y-97380730D01*
X127172273Y-97376606D01*
X127162961Y-97371858D01*
X127153350Y-97358421D01*
X127153285Y-97358278D01*
X127145006Y-97343842D01*
X127136058Y-97341775D01*
X127121513Y-97350916D01*
X127107980Y-97357746D01*
X127087391Y-97361827D01*
X127080601Y-97361994D01*
X127069799Y-97364281D01*
X127069661Y-97371804D01*
X126354460Y-97371804D01*
X126347632Y-97362245D01*
X126344454Y-97357996D01*
X126280653Y-97279074D01*
X126213169Y-97206821D01*
X126143968Y-97143054D01*
X126075013Y-97089590D01*
X126008266Y-97048245D01*
X125993997Y-97041033D01*
X125961640Y-97026489D01*
X125925187Y-97011813D01*
X125888102Y-96998242D01*
X125853849Y-96987016D01*
X125825894Y-96979372D01*
X125807700Y-96976548D01*
X125803905Y-96976616D01*
X125790012Y-96979507D01*
X125789549Y-96986260D01*
X125802176Y-96996318D01*
X125827551Y-97009122D01*
X125839320Y-97014768D01*
X125874109Y-97034699D01*
X125913464Y-97060661D01*
X125953240Y-97089688D01*
X125989291Y-97118811D01*
X126017472Y-97145063D01*
X126026149Y-97154381D01*
X126062834Y-97198883D01*
X126099948Y-97251015D01*
X126134144Y-97305841D01*
X126162077Y-97358421D01*
X126174520Y-97384686D01*
X126198568Y-97436228D01*
X126216360Y-97475702D01*
X126228159Y-97503722D01*
X126234229Y-97520901D01*
X126234833Y-97527852D01*
X126233879Y-97528120D01*
X126223086Y-97525582D01*
X126203439Y-97518385D01*
X126178335Y-97507739D01*
X126166773Y-97502589D01*
X126130404Y-97487206D01*
X126099395Y-97476185D01*
X126069763Y-97468673D01*
X126037528Y-97463815D01*
X125998709Y-97460760D01*
X125949323Y-97458652D01*
X125934207Y-97458172D01*
X125866806Y-97457188D01*
X125813411Y-97458568D01*
X125774111Y-97462303D01*
X125748993Y-97468388D01*
X125738147Y-97476813D01*
X125736914Y-97483291D01*
X125741119Y-97490959D01*
X125747378Y-97493638D01*
X125767706Y-97505384D01*
X125794851Y-97523502D01*
X125825916Y-97545870D01*
X125858004Y-97570367D01*
X125888218Y-97594873D01*
X125913660Y-97617266D01*
X125955893Y-97660774D01*
X126010745Y-97734006D01*
X126054047Y-97815697D01*
X126085963Y-97906180D01*
X126106659Y-98005787D01*
X126108810Y-98020540D01*
X126118818Y-98087075D01*
X126127473Y-98140637D01*
X126134995Y-98182466D01*
X126141604Y-98213802D01*
X126147521Y-98235887D01*
X126153754Y-98256472D01*
X126156842Y-98270976D01*
X126155109Y-98277167D01*
X126147462Y-98274653D01*
X126132804Y-98263041D01*
X126110041Y-98241936D01*
X126078078Y-98210946D01*
X126063049Y-98196609D01*
X126001045Y-98144218D01*
X125932254Y-98096727D01*
X125854089Y-98052478D01*
X125763964Y-98009816D01*
X125751671Y-98004700D01*
X125731983Y-97997644D01*
X125719958Y-97994876D01*
X125716491Y-97994565D01*
X125703193Y-97988832D01*
X125697211Y-97985546D01*
X125677505Y-97978486D01*
X125646962Y-97969566D01*
X125607671Y-97959381D01*
X125561718Y-97948527D01*
X125535149Y-97942814D01*
X125484572Y-97933499D01*
X125436360Y-97926499D01*
X125392486Y-97921949D01*
X125354925Y-97919980D01*
X125325651Y-97920726D01*
X125306639Y-97924319D01*
X125299862Y-97930893D01*
X125301635Y-97936348D01*
X125310642Y-97952989D01*
X125325951Y-97977727D01*
X125346079Y-98008421D01*
X125369542Y-98042932D01*
X125394857Y-98079120D01*
X125420539Y-98114845D01*
X125445107Y-98147969D01*
X125467075Y-98176350D01*
X125484960Y-98197850D01*
X125509885Y-98226806D01*
X125525973Y-98248120D01*
X125531859Y-98261209D01*
X125527606Y-98267104D01*
X125513279Y-98266838D01*
X125488944Y-98261445D01*
X125456288Y-98250958D01*
X125396810Y-98223103D01*
X125334403Y-98183938D01*
X125270743Y-98134806D01*
X125207507Y-98077049D01*
X125146369Y-98012009D01*
X125089005Y-97941030D01*
X125076543Y-97924144D01*
X125050427Y-97887502D01*
X125026558Y-97852445D01*
X125007158Y-97822277D01*
X124994447Y-97800303D01*
X124993652Y-97798762D01*
X124978036Y-97771176D01*
X124966890Y-97757380D01*
X124960231Y-97757386D01*
X124958074Y-97771208D01*
X124958487Y-97776796D01*
X124962445Y-97797980D01*
X124969384Y-97825066D01*
X124977805Y-97852532D01*
X124986210Y-97874859D01*
X124988456Y-97880121D01*
X124996235Y-97899300D01*
X125005151Y-97922138D01*
X125009010Y-97932066D01*
X125017458Y-97952830D01*
X125023459Y-97966304D01*
X125037554Y-97993969D01*
X125055558Y-98028151D01*
X125070940Y-98055370D01*
X125085863Y-98079393D01*
X125102487Y-98103983D01*
X125122382Y-98131992D01*
X125172511Y-98196957D01*
X125221951Y-98252297D01*
X125273369Y-98301088D01*
X125332046Y-98349642D01*
X125433458Y-98423651D01*
X125545886Y-98495052D01*
X125667188Y-98562423D01*
X125699177Y-98579051D01*
X125763733Y-98612850D01*
X125817243Y-98641341D01*
X125861079Y-98665349D01*
X125896612Y-98685700D01*
X125925215Y-98703221D01*
X125948258Y-98718738D01*
X125967114Y-98733077D01*
X125983155Y-98747064D01*
X125997753Y-98761527D01*
X126006700Y-98770300D01*
X126022089Y-98782805D01*
X126032303Y-98787717D01*
X126035204Y-98786695D01*
X126039906Y-98775320D01*
X126040910Y-98753127D01*
X126038614Y-98722346D01*
X126033415Y-98685207D01*
X126025711Y-98643942D01*
X126015900Y-98600780D01*
X126004381Y-98557952D01*
X125991550Y-98517688D01*
X125977806Y-98482219D01*
X125968036Y-98461781D01*
X125935545Y-98408604D01*
X125894184Y-98355630D01*
X125847273Y-98306850D01*
X125798129Y-98266251D01*
X125786264Y-98255914D01*
X125781959Y-98246405D01*
X125789363Y-98243641D01*
X125807219Y-98249888D01*
X125820579Y-98257174D01*
X125868529Y-98290573D01*
X125921049Y-98337608D01*
X125978037Y-98398180D01*
X126039387Y-98472187D01*
X126045822Y-98480348D01*
X126097477Y-98544644D01*
X126147001Y-98604193D01*
X126193139Y-98657571D01*
X126234634Y-98703353D01*
X126270232Y-98740114D01*
X126298676Y-98766428D01*
X126307377Y-98773685D01*
X126346561Y-98804575D01*
X126385557Y-98832740D01*
X126415330Y-98852238D01*
X126421716Y-98856420D01*
X126452386Y-98873859D01*
X126474917Y-98883298D01*
X126486332Y-98886690D01*
X126500615Y-98892911D01*
X126506501Y-98900568D01*
X126503326Y-98911096D01*
X126490425Y-98925932D01*
X126467132Y-98946511D01*
X126432782Y-98974269D01*
X126403672Y-98997185D01*
X126317830Y-99061572D01*
X126277302Y-99091971D01*
X126151518Y-99178204D01*
X126040305Y-99247229D01*
X126022542Y-99258254D01*
X125886599Y-99334491D01*
X125739914Y-99409286D01*
X125704382Y-99426627D01*
X125657544Y-99449410D01*
X125620103Y-99467447D01*
X125589815Y-99481753D01*
X125564437Y-99493347D01*
X125541726Y-99503246D01*
X125519438Y-99512465D01*
X125495330Y-99522023D01*
X125467159Y-99532937D01*
X125449245Y-99539853D01*
X125417504Y-99552157D01*
X125390478Y-99562694D01*
X125372600Y-99569740D01*
X125357458Y-99575537D01*
X125324367Y-99587422D01*
X125284033Y-99601301D01*
X125240570Y-99615806D01*
X125198094Y-99629572D01*
X125160721Y-99641232D01*
X125132566Y-99649420D01*
X125108399Y-99656110D01*
X125083592Y-99663297D01*
X125067102Y-99668448D01*
X125053361Y-99672499D01*
X125028820Y-99679078D01*
X124997077Y-99687234D01*
X124961632Y-99696051D01*
X124956543Y-99697292D01*
X124825156Y-99726524D01*
X124688004Y-99752050D01*
X124549772Y-99773151D01*
X124415146Y-99789108D01*
X124288809Y-99799204D01*
X124274720Y-99799936D01*
X124222717Y-99801717D01*
X124161475Y-99802720D01*
X124093634Y-99802991D01*
X124021839Y-99802577D01*
X123948731Y-99801523D01*
X123876952Y-99799874D01*
X123809147Y-99797677D01*
X123747956Y-99794977D01*
X123696023Y-99791820D01*
X123655991Y-99788252D01*
X123596782Y-99781327D01*
X123483367Y-99766530D01*
X123379186Y-99750529D01*
X123280657Y-99732648D01*
X123184198Y-99712208D01*
X123086229Y-99688532D01*
X122983167Y-99660942D01*
X122972557Y-99657986D01*
X122948054Y-99651162D01*
X122921340Y-99643725D01*
X122905927Y-99639203D01*
X122869284Y-99627475D01*
X122824094Y-99612150D01*
X122773151Y-99594252D01*
X122719248Y-99574806D01*
X122665178Y-99554839D01*
X122613734Y-99535374D01*
X122567711Y-99517438D01*
X122529901Y-99502054D01*
X122503098Y-99490248D01*
X122478067Y-99478321D01*
X122349181Y-99415536D01*
X122231829Y-99355692D01*
X122124049Y-99297537D01*
X122086052Y-99275642D01*
X123593686Y-99275642D01*
X123595767Y-99286209D01*
X123609133Y-99298749D01*
X123632163Y-99311400D01*
X123664966Y-99325910D01*
X123659979Y-99372484D01*
X123658446Y-99391044D01*
X123658718Y-99413532D01*
X123662470Y-99423681D01*
X123667490Y-99423488D01*
X123681142Y-99416218D01*
X123698402Y-99402597D01*
X123715810Y-99388311D01*
X123735593Y-99378797D01*
X123755019Y-99380185D01*
X123778655Y-99391864D01*
X123782661Y-99394177D01*
X123801875Y-99402385D01*
X123816605Y-99404566D01*
X123817449Y-99404422D01*
X123823852Y-99402056D01*
X123825167Y-99395986D01*
X123820996Y-99383072D01*
X123810937Y-99360178D01*
X123791787Y-99318007D01*
X123827006Y-99282250D01*
X123828779Y-99280443D01*
X123846732Y-99260282D01*
X123853238Y-99247229D01*
X123847620Y-99240357D01*
X123829207Y-99238739D01*
X123797323Y-99241449D01*
X123757702Y-99246106D01*
X123738727Y-99206029D01*
X123729119Y-99187864D01*
X123718290Y-99172042D01*
X123710541Y-99165953D01*
X123709859Y-99165984D01*
X123700838Y-99173626D01*
X123694762Y-99192957D01*
X123692459Y-99221434D01*
X123690980Y-99236604D01*
X123683494Y-99249748D01*
X123667114Y-99257843D01*
X123639022Y-99263087D01*
X123627439Y-99264762D01*
X123608003Y-99268411D01*
X123597515Y-99271599D01*
X123593686Y-99275642D01*
X122086052Y-99275642D01*
X122023876Y-99239815D01*
X121929346Y-99181275D01*
X121838497Y-99120661D01*
X121749365Y-99056721D01*
X121659985Y-98988202D01*
X121635852Y-98968611D01*
X124885258Y-98968611D01*
X124888786Y-98976052D01*
X124899299Y-98991651D01*
X124914353Y-99011476D01*
X124927905Y-99029888D01*
X124939135Y-99048335D01*
X124943448Y-99060018D01*
X124939827Y-99070593D01*
X124929326Y-99089000D01*
X124914353Y-99110554D01*
X124900024Y-99130266D01*
X124889341Y-99146440D01*
X124885258Y-99154710D01*
X124887543Y-99157184D01*
X124901268Y-99157127D01*
X124926123Y-99151929D01*
X124960645Y-99141841D01*
X124996027Y-99130507D01*
X125017536Y-99153685D01*
X125021268Y-99157827D01*
X125037609Y-99178344D01*
X125049624Y-99196866D01*
X125056360Y-99208014D01*
X125066688Y-99216442D01*
X125076800Y-99212020D01*
X125079241Y-99202804D01*
X125080984Y-99183270D01*
X125081649Y-99157654D01*
X125081662Y-99150530D01*
X125082342Y-99126738D01*
X125085022Y-99112662D01*
X125091019Y-99104367D01*
X125101652Y-99097915D01*
X125120979Y-99089802D01*
X125144792Y-99082713D01*
X125154310Y-99080188D01*
X125171917Y-99071652D01*
X125179322Y-99061572D01*
X125174480Y-99052063D01*
X125166413Y-99047831D01*
X125147460Y-99040132D01*
X125123474Y-99031732D01*
X125081649Y-99018115D01*
X125081649Y-98961535D01*
X125081610Y-98955362D01*
X125080478Y-98929030D01*
X125078102Y-98909559D01*
X125074910Y-98900790D01*
X125074389Y-98900608D01*
X125066444Y-98905425D01*
X125053416Y-98919401D01*
X125037846Y-98939855D01*
X125036516Y-98941743D01*
X125020592Y-98963118D01*
X125007202Y-98979057D01*
X124999124Y-98986232D01*
X124991895Y-98986315D01*
X124973850Y-98982787D01*
X124950722Y-98976038D01*
X124940813Y-98972820D01*
X124909818Y-98964515D01*
X124891365Y-98963119D01*
X124885258Y-98968611D01*
X121635852Y-98968611D01*
X121568395Y-98913849D01*
X121472631Y-98832409D01*
X121465751Y-98826405D01*
X121414646Y-98779843D01*
X121357354Y-98724771D01*
X121296312Y-98663741D01*
X121250226Y-98616117D01*
X121903784Y-98616117D01*
X121905771Y-98625087D01*
X121918375Y-98636641D01*
X121942583Y-98651653D01*
X121979387Y-98670995D01*
X121996550Y-98679586D01*
X122024994Y-98694438D01*
X122043086Y-98706759D01*
X122052479Y-98719580D01*
X122054823Y-98735932D01*
X122051772Y-98758847D01*
X122044977Y-98791356D01*
X122039774Y-98819230D01*
X122035682Y-98848184D01*
X122034067Y-98869547D01*
X122034133Y-98874465D01*
X122035918Y-98890375D01*
X122039396Y-98896757D01*
X122046203Y-98892361D01*
X122061448Y-98879895D01*
X122082762Y-98861311D01*
X122107842Y-98838567D01*
X122132176Y-98816682D01*
X122154352Y-98797863D01*
X122170819Y-98785126D01*
X122179161Y-98780443D01*
X122187751Y-98783357D01*
X122206578Y-98791925D01*
X122232605Y-98804785D01*
X122262963Y-98820564D01*
X122289549Y-98834173D01*
X122316449Y-98846527D01*
X122334941Y-98853210D01*
X122342956Y-98853374D01*
X122342059Y-98845510D01*
X122335729Y-98827130D01*
X122324909Y-98801333D01*
X122310725Y-98771002D01*
X122297586Y-98743480D01*
X122285343Y-98716281D01*
X122277035Y-98695972D01*
X122273975Y-98685601D01*
X122273975Y-98685559D01*
X122278957Y-98676554D01*
X122292345Y-98659829D01*
X122312112Y-98637759D01*
X122336229Y-98612717D01*
X122356537Y-98592012D01*
X122378561Y-98567600D01*
X122389045Y-98551327D01*
X122387545Y-98542224D01*
X122373617Y-98539324D01*
X122346819Y-98541658D01*
X122306707Y-98548258D01*
X122286100Y-98551882D01*
X122256430Y-98556836D01*
X122233583Y-98560327D01*
X122221301Y-98561764D01*
X122214114Y-98558264D01*
X122203003Y-98544622D01*
X122188044Y-98519641D01*
X122168505Y-98482219D01*
X122167511Y-98480241D01*
X122151708Y-98449864D01*
X122137832Y-98425061D01*
X122127350Y-98408339D01*
X122121729Y-98402207D01*
X122115171Y-98408273D01*
X122107952Y-98426127D01*
X122101309Y-98452939D01*
X122096114Y-98485855D01*
X122094177Y-98501717D01*
X122088803Y-98536316D01*
X122081326Y-98560272D01*
X122069271Y-98575989D01*
X122050160Y-98585869D01*
X122021519Y-98592317D01*
X121980872Y-98597737D01*
X121968258Y-98599319D01*
X121940597Y-98603292D01*
X121919914Y-98606968D01*
X121909952Y-98609716D01*
X121903784Y-98616117D01*
X121250226Y-98616117D01*
X121233957Y-98599305D01*
X121172729Y-98534017D01*
X121115063Y-98470429D01*
X121063399Y-98411094D01*
X121020173Y-98358564D01*
X120963682Y-98284933D01*
X120937042Y-98248327D01*
X121329591Y-98248327D01*
X121332485Y-98255796D01*
X121347761Y-98256095D01*
X121375991Y-98250134D01*
X121385956Y-98247683D01*
X121409295Y-98243468D01*
X121424556Y-98245521D01*
X121436135Y-98255310D01*
X121448425Y-98274299D01*
X121450756Y-98278245D01*
X121468124Y-98304722D01*
X121480852Y-98317593D01*
X121489389Y-98316860D01*
X121494183Y-98302527D01*
X121495681Y-98274594D01*
X121496156Y-98261689D01*
X121496336Y-98260516D01*
X123366966Y-98260516D01*
X123368429Y-98270360D01*
X123383411Y-98278624D01*
X123396449Y-98285883D01*
X123406010Y-98296628D01*
X123413303Y-98305372D01*
X123425635Y-98306436D01*
X123435147Y-98296737D01*
X123441402Y-98289986D01*
X123456311Y-98285827D01*
X123471491Y-98282943D01*
X123479158Y-98273633D01*
X123474129Y-98260348D01*
X123469552Y-98248866D01*
X123470444Y-98227935D01*
X123471075Y-98224987D01*
X123472586Y-98210052D01*
X123466734Y-98206844D01*
X123451242Y-98213669D01*
X123436883Y-98217372D01*
X123423083Y-98209319D01*
X123410039Y-98201792D01*
X123398624Y-98204898D01*
X123394135Y-98219665D01*
X123390622Y-98231287D01*
X123379588Y-98245821D01*
X123378732Y-98246601D01*
X123366966Y-98260516D01*
X121496336Y-98260516D01*
X121499388Y-98240661D01*
X121504824Y-98229104D01*
X121511497Y-98225365D01*
X121529844Y-98218396D01*
X121553426Y-98211519D01*
X121569723Y-98206723D01*
X121587598Y-98199412D01*
X121595673Y-98193155D01*
X121594010Y-98188698D01*
X121582529Y-98179337D01*
X121563437Y-98169173D01*
X121553171Y-98164477D01*
X121530541Y-98151697D01*
X121518418Y-98137681D01*
X121514280Y-98118203D01*
X121515602Y-98089037D01*
X121516850Y-98065739D01*
X121514434Y-98049953D01*
X121506855Y-98046978D01*
X121493147Y-98056580D01*
X121472341Y-98078524D01*
X121470187Y-98080956D01*
X121450334Y-98100754D01*
X121433945Y-98109341D01*
X121417003Y-98107667D01*
X121395491Y-98096682D01*
X121382852Y-98089964D01*
X121363142Y-98083340D01*
X121348601Y-98083029D01*
X121342932Y-98089534D01*
X121346364Y-98101405D01*
X121357323Y-98122047D01*
X121373846Y-98146736D01*
X121382667Y-98160394D01*
X121386575Y-98169833D01*
X121386564Y-98169995D01*
X121381753Y-98178424D01*
X121369885Y-98194296D01*
X121353418Y-98214314D01*
X121338506Y-98232781D01*
X121329591Y-98248327D01*
X120937042Y-98248327D01*
X120901967Y-98200132D01*
X120840172Y-98111183D01*
X120780802Y-98021777D01*
X120726362Y-97935607D01*
X120679359Y-97856365D01*
X120667308Y-97835026D01*
X120581831Y-97673220D01*
X120502084Y-97503876D01*
X120447519Y-97372863D01*
X122970867Y-97372863D01*
X123017136Y-97416558D01*
X123037938Y-97435891D01*
X123067522Y-97462958D01*
X123103714Y-97495806D01*
X123144367Y-97532509D01*
X123187333Y-97571140D01*
X123230464Y-97609771D01*
X123271613Y-97646474D01*
X123308630Y-97679323D01*
X123339370Y-97706389D01*
X123361683Y-97725747D01*
X123373743Y-97736113D01*
X123404789Y-97763113D01*
X123441462Y-97795307D01*
X123480992Y-97830240D01*
X123520614Y-97865455D01*
X123557559Y-97898496D01*
X123589059Y-97926906D01*
X123612348Y-97948228D01*
X123630560Y-97964945D01*
X123658670Y-97990384D01*
X123690302Y-98018734D01*
X123721455Y-98046394D01*
X123723733Y-98048405D01*
X123750468Y-98072040D01*
X123773432Y-98092389D01*
X123790245Y-98107341D01*
X123798526Y-98114784D01*
X123803644Y-98119424D01*
X123818293Y-98132550D01*
X123839236Y-98151234D01*
X123863792Y-98173083D01*
X123876986Y-98184819D01*
X123886337Y-98193155D01*
X123907800Y-98212289D01*
X123937621Y-98238945D01*
X123961503Y-98260369D01*
X123974455Y-98272004D01*
X123976273Y-98273633D01*
X124001983Y-98296669D01*
X124033063Y-98324460D01*
X124063130Y-98351291D01*
X124080197Y-98366517D01*
X124112459Y-98395362D01*
X124143585Y-98423259D01*
X124168708Y-98445850D01*
X124168921Y-98446041D01*
X124186383Y-98461698D01*
X124212773Y-98485250D01*
X124246162Y-98514979D01*
X124284618Y-98549169D01*
X124287048Y-98551327D01*
X124326210Y-98586101D01*
X124369009Y-98624057D01*
X124411395Y-98661739D01*
X124454014Y-98699850D01*
X124493878Y-98735709D01*
X124528947Y-98767473D01*
X124557182Y-98793303D01*
X124576541Y-98811357D01*
X124590541Y-98824385D01*
X124611762Y-98842951D01*
X124628044Y-98855711D01*
X124636682Y-98860455D01*
X124640276Y-98860124D01*
X124643637Y-98857900D01*
X124645269Y-98852238D01*
X124644931Y-98841609D01*
X124642384Y-98824482D01*
X124637387Y-98799330D01*
X124629701Y-98764622D01*
X124619085Y-98718831D01*
X124605301Y-98660426D01*
X124592106Y-98604828D01*
X124576443Y-98539132D01*
X124562360Y-98480410D01*
X124550204Y-98430099D01*
X124540325Y-98389638D01*
X124533069Y-98360465D01*
X124528784Y-98344017D01*
X124527706Y-98340063D01*
X124522089Y-98318070D01*
X124514900Y-98288544D01*
X124507425Y-98256732D01*
X124503272Y-98238784D01*
X124494027Y-98199123D01*
X124483820Y-98155618D01*
X124474205Y-98114893D01*
X124469677Y-98095773D01*
X124458630Y-98048989D01*
X124447241Y-98000609D01*
X124437365Y-97958507D01*
X124432359Y-97937298D01*
X124423427Y-97900238D01*
X124415149Y-97866746D01*
X124408826Y-97842127D01*
X124400785Y-97811099D01*
X124391680Y-97774348D01*
X124382678Y-97736654D01*
X124374472Y-97701026D01*
X124367753Y-97670474D01*
X124363213Y-97648007D01*
X124361546Y-97636635D01*
X124360126Y-97628894D01*
X124348631Y-97609860D01*
X124328114Y-97590132D01*
X124301622Y-97572947D01*
X124284913Y-97563672D01*
X124254278Y-97545323D01*
X124215465Y-97521073D01*
X124170044Y-97491983D01*
X124119586Y-97459111D01*
X124065659Y-97423518D01*
X124009835Y-97386264D01*
X123953683Y-97348407D01*
X123898772Y-97311008D01*
X123846674Y-97275127D01*
X123798957Y-97241823D01*
X123757192Y-97212156D01*
X123722948Y-97187185D01*
X123697795Y-97167971D01*
X123683304Y-97155572D01*
X123681134Y-97153515D01*
X123666232Y-97141324D01*
X123647448Y-97127737D01*
X123645072Y-97126121D01*
X123635563Y-97119533D01*
X123625475Y-97112227D01*
X123613009Y-97102811D01*
X123596366Y-97089894D01*
X123573748Y-97072081D01*
X123543356Y-97047980D01*
X123503392Y-97016200D01*
X123385450Y-96919830D01*
X123216909Y-96773707D01*
X123190699Y-96750317D01*
X123163651Y-96726625D01*
X123144464Y-96710792D01*
X123131484Y-96701699D01*
X123123060Y-96698230D01*
X123117535Y-96699269D01*
X123113257Y-96703697D01*
X123107063Y-96713632D01*
X123102751Y-96725175D01*
X123102571Y-96727184D01*
X123099988Y-96743862D01*
X123094674Y-96772858D01*
X123086933Y-96812649D01*
X123077071Y-96861712D01*
X123070100Y-96895629D01*
X123065394Y-96918522D01*
X123052206Y-96981554D01*
X123037813Y-97049286D01*
X123034858Y-97063167D01*
X123027456Y-97098556D01*
X123023975Y-97115608D01*
X123020841Y-97130957D01*
X123016164Y-97154756D01*
X123011745Y-97177123D01*
X123004927Y-97209795D01*
X122997892Y-97242041D01*
X122991927Y-97269193D01*
X122984557Y-97303928D01*
X122978671Y-97332910D01*
X122970867Y-97372863D01*
X120447519Y-97372863D01*
X120430901Y-97332963D01*
X120420194Y-97304853D01*
X120401786Y-97254568D01*
X120382433Y-97199751D01*
X120363367Y-97144023D01*
X120347591Y-97096362D01*
X121024787Y-97096362D01*
X121037733Y-97103934D01*
X121048464Y-97111723D01*
X121056827Y-97129883D01*
X121057393Y-97132493D01*
X121064744Y-97147828D01*
X121076257Y-97149230D01*
X121091881Y-97136689D01*
X121103109Y-97127920D01*
X121122103Y-97126567D01*
X121124123Y-97127012D01*
X121136729Y-97125186D01*
X121139350Y-97115608D01*
X121130736Y-97101855D01*
X121130208Y-97101312D01*
X121125845Y-97090799D01*
X121130736Y-97074599D01*
X121134548Y-97066075D01*
X121138120Y-97053927D01*
X121132177Y-97050659D01*
X121114435Y-97053285D01*
X121102998Y-97054936D01*
X121089844Y-97052849D01*
X121081447Y-97042704D01*
X121079052Y-97038544D01*
X121069151Y-97028435D01*
X121062003Y-97032243D01*
X121059255Y-97049466D01*
X121059219Y-97052037D01*
X121054903Y-97068933D01*
X121041071Y-97078381D01*
X121040861Y-97078461D01*
X121025896Y-97087370D01*
X121024787Y-97096362D01*
X120347591Y-97096362D01*
X120345819Y-97091008D01*
X120331023Y-97044328D01*
X120320211Y-97007606D01*
X120288582Y-96887138D01*
X120271861Y-96814694D01*
X121170519Y-96814694D01*
X121174940Y-96824834D01*
X121191399Y-96834146D01*
X121219201Y-96841128D01*
X121242337Y-96848992D01*
X121258301Y-96864180D01*
X121262359Y-96883890D01*
X121262220Y-96885232D01*
X121261782Y-96899807D01*
X121262059Y-96920177D01*
X121262227Y-96923830D01*
X121266205Y-96942055D01*
X121274987Y-96946604D01*
X121288474Y-96937489D01*
X121306563Y-96914721D01*
X121322155Y-96895535D01*
X121341530Y-96883352D01*
X121364679Y-96882605D01*
X121395162Y-96892398D01*
X121400772Y-96894623D01*
X121421950Y-96899692D01*
X121432028Y-96895629D01*
X121430381Y-96883285D01*
X121416385Y-96863508D01*
X121398718Y-96842492D01*
X121386430Y-96823099D01*
X121383686Y-96806596D01*
X121390017Y-96788995D01*
X121404953Y-96766306D01*
X121417405Y-96747573D01*
X121425855Y-96731749D01*
X121427319Y-96723918D01*
X121423439Y-96723054D01*
X121408812Y-96725323D01*
X121388228Y-96731536D01*
X121375183Y-96736037D01*
X121348966Y-96742622D01*
X121330032Y-96741307D01*
X121314303Y-96731183D01*
X121297702Y-96711340D01*
X121283490Y-96693216D01*
X121269899Y-96680809D01*
X121261355Y-96681834D01*
X121256917Y-96696604D01*
X121255647Y-96725436D01*
X121255602Y-96731726D01*
X121252989Y-96760452D01*
X121244481Y-96778860D01*
X121227472Y-96790317D01*
X121199359Y-96798187D01*
X121178830Y-96805229D01*
X121170519Y-96814694D01*
X120271861Y-96814694D01*
X120256331Y-96747407D01*
X120229594Y-96608857D01*
X120211802Y-96494639D01*
X122224457Y-96494639D01*
X122227327Y-96504374D01*
X122237598Y-96520344D01*
X122256206Y-96543925D01*
X122284089Y-96576491D01*
X122297251Y-96591867D01*
X122315101Y-96614003D01*
X122327384Y-96630926D01*
X122331997Y-96639856D01*
X122329150Y-96647728D01*
X122319950Y-96665690D01*
X122305891Y-96690568D01*
X122288522Y-96719522D01*
X122274803Y-96742068D01*
X122257799Y-96771668D01*
X122248373Y-96791462D01*
X122246093Y-96802813D01*
X122250528Y-96807085D01*
X122261246Y-96805642D01*
X122275240Y-96800893D01*
X122298953Y-96791949D01*
X122327851Y-96780579D01*
X122357750Y-96768456D01*
X122384466Y-96757253D01*
X122403815Y-96748642D01*
X122407006Y-96747195D01*
X122420170Y-96744648D01*
X122429580Y-96752401D01*
X122430055Y-96753041D01*
X122439704Y-96765016D01*
X122455513Y-96783774D01*
X122474310Y-96805545D01*
X122476497Y-96808055D01*
X122494546Y-96829280D01*
X122508729Y-96846805D01*
X122516139Y-96857049D01*
X122519840Y-96862169D01*
X122531982Y-96872284D01*
X122544864Y-96878020D01*
X122552940Y-96876455D01*
X122553638Y-96869605D01*
X122553136Y-96850782D01*
X122551349Y-96823357D01*
X122548444Y-96790510D01*
X122546030Y-96762915D01*
X122544191Y-96732935D01*
X122543723Y-96710488D01*
X122544765Y-96699035D01*
X122550016Y-96694017D01*
X122566737Y-96684406D01*
X122591828Y-96672717D01*
X122622247Y-96660465D01*
X122632588Y-96656536D01*
X122671597Y-96640346D01*
X122696911Y-96627047D01*
X122708939Y-96616389D01*
X122708089Y-96608123D01*
X122706932Y-96607293D01*
X122695001Y-96602854D01*
X122676139Y-96598280D01*
X122648397Y-96592340D01*
X122612934Y-96583795D01*
X122580381Y-96575063D01*
X122556428Y-96567601D01*
X122549427Y-96564685D01*
X122543107Y-96559748D01*
X122538345Y-96551123D01*
X122534608Y-96536646D01*
X122531367Y-96514155D01*
X122528091Y-96481484D01*
X122524247Y-96436471D01*
X122521149Y-96408515D01*
X122516413Y-96387282D01*
X122510690Y-96380099D01*
X122504005Y-96385466D01*
X122491479Y-96400971D01*
X122475094Y-96424167D01*
X122456682Y-96452599D01*
X122439362Y-96480047D01*
X122423605Y-96504255D01*
X122412022Y-96521210D01*
X122406324Y-96528333D01*
X122406258Y-96528369D01*
X122397230Y-96527785D01*
X122377165Y-96524006D01*
X122348976Y-96517642D01*
X122315581Y-96509305D01*
X122314365Y-96508989D01*
X122281248Y-96500794D01*
X122253568Y-96494700D01*
X122234189Y-96491287D01*
X122225976Y-96491138D01*
X122224457Y-96494639D01*
X120211802Y-96494639D01*
X120207391Y-96466322D01*
X120188743Y-96314636D01*
X120186019Y-96287370D01*
X120182835Y-96246561D01*
X120180390Y-96201393D01*
X120178617Y-96149829D01*
X120177452Y-96089833D01*
X120176830Y-96019369D01*
X120176687Y-95936400D01*
X120176884Y-95867427D01*
X120177606Y-95792826D01*
X120179025Y-95727658D01*
X120179194Y-95723346D01*
X120573156Y-95723346D01*
X120574855Y-95726894D01*
X120585474Y-95740312D01*
X120604071Y-95760317D01*
X120628691Y-95784855D01*
X120657380Y-95811873D01*
X120672749Y-95826029D01*
X120699049Y-95850587D01*
X120720127Y-95870709D01*
X120734130Y-95884614D01*
X120739210Y-95890525D01*
X120736192Y-95898663D01*
X120728792Y-95913456D01*
X120722620Y-95925576D01*
X120711503Y-95948796D01*
X120699697Y-95974587D01*
X120691797Y-95992156D01*
X120676597Y-96025530D01*
X120662835Y-96055300D01*
X120655095Y-96072702D01*
X120647563Y-96092035D01*
X120644651Y-96103070D01*
X120646172Y-96106886D01*
X120656900Y-96107696D01*
X120676389Y-96100410D01*
X120702841Y-96085567D01*
X120734721Y-96066147D01*
X120768015Y-96046919D01*
X120799881Y-96029408D01*
X120827575Y-96015084D01*
X120848349Y-96005413D01*
X120859458Y-96001863D01*
X120862677Y-96002942D01*
X120876318Y-96011626D01*
X120897458Y-96027600D01*
X120923897Y-96049159D01*
X120953433Y-96074601D01*
X120956545Y-96077348D01*
X120992270Y-96108303D01*
X121018600Y-96129705D01*
X121036483Y-96142113D01*
X121046870Y-96146087D01*
X121050709Y-96142187D01*
X121048948Y-96130973D01*
X121047160Y-96124171D01*
X121042351Y-96103005D01*
X121037356Y-96078238D01*
X121036585Y-96074215D01*
X121031132Y-96047347D01*
X121023998Y-96013858D01*
X121016520Y-95980042D01*
X121014792Y-95972163D01*
X121960966Y-95972163D01*
X121969135Y-95978182D01*
X121990095Y-95977281D01*
X122009272Y-95975424D01*
X122021202Y-95979242D01*
X122030937Y-95990899D01*
X122038624Y-96000904D01*
X122051033Y-96008831D01*
X122059746Y-96003471D01*
X122063035Y-95985134D01*
X122065561Y-95965193D01*
X122076749Y-95948977D01*
X122097222Y-95943673D01*
X122109740Y-95941042D01*
X122113411Y-95932920D01*
X122106099Y-95921851D01*
X122088494Y-95910454D01*
X122074250Y-95902558D01*
X122065171Y-95891355D01*
X122063035Y-95873744D01*
X122062443Y-95863255D01*
X122057273Y-95851191D01*
X122046549Y-95852442D01*
X122029989Y-95866950D01*
X122022308Y-95874414D01*
X122007683Y-95881513D01*
X121987331Y-95880546D01*
X121972965Y-95879026D01*
X121962987Y-95882149D01*
X121963505Y-95892992D01*
X121973745Y-95913432D01*
X121974066Y-95913991D01*
X121981731Y-95929178D01*
X121981624Y-95938733D01*
X121973745Y-95949144D01*
X121965614Y-95959267D01*
X121960966Y-95972163D01*
X121014792Y-95972163D01*
X121013907Y-95968131D01*
X121008702Y-95941592D01*
X121005756Y-95922069D01*
X121005646Y-95913125D01*
X121013029Y-95907184D01*
X121030342Y-95895758D01*
X121054733Y-95880589D01*
X121083376Y-95863373D01*
X121113443Y-95845812D01*
X121142108Y-95829602D01*
X121166543Y-95816443D01*
X121185888Y-95805759D01*
X121200415Y-95794862D01*
X121202677Y-95786530D01*
X121192103Y-95780032D01*
X121168126Y-95774633D01*
X121130175Y-95769600D01*
X121091724Y-95765271D01*
X121048596Y-95760363D01*
X121016824Y-95756494D01*
X120994599Y-95753265D01*
X120980115Y-95750277D01*
X120971564Y-95747130D01*
X120967137Y-95743423D01*
X120965027Y-95738758D01*
X120963427Y-95732734D01*
X120962834Y-95730569D01*
X120958492Y-95712599D01*
X120952632Y-95686232D01*
X120946348Y-95656359D01*
X120939956Y-95625439D01*
X120930810Y-95583104D01*
X120923531Y-95552606D01*
X120917696Y-95532377D01*
X120912883Y-95520849D01*
X120908669Y-95516454D01*
X120905762Y-95518032D01*
X120897459Y-95529836D01*
X120886282Y-95550718D01*
X120873811Y-95577888D01*
X120869712Y-95587410D01*
X120853913Y-95623485D01*
X120837946Y-95659159D01*
X120824714Y-95687926D01*
X120819394Y-95699141D01*
X120809295Y-95718581D01*
X120801252Y-95728461D01*
X120792481Y-95731418D01*
X120780199Y-95730089D01*
X120776885Y-95729565D01*
X120756100Y-95727074D01*
X120727266Y-95724346D01*
X120695567Y-95721884D01*
X120689318Y-95721446D01*
X120655808Y-95718855D01*
X120624779Y-95716111D01*
X120602251Y-95713739D01*
X120597423Y-95713162D01*
X120580317Y-95712130D01*
X120573379Y-95715145D01*
X120573156Y-95723346D01*
X120179194Y-95723346D01*
X120181320Y-95669093D01*
X120184672Y-95614304D01*
X120189258Y-95560460D01*
X120195260Y-95504734D01*
X120202856Y-95444297D01*
X120212226Y-95376319D01*
X120215843Y-95351682D01*
X120230772Y-95261510D01*
X120248692Y-95167147D01*
X120268368Y-95074833D01*
X120288563Y-94990810D01*
X120295090Y-94965659D01*
X120307975Y-94917326D01*
X120318354Y-94880393D01*
X120325842Y-94856245D01*
X120332722Y-94833679D01*
X120339094Y-94808965D01*
X120342200Y-94797301D01*
X120349748Y-94772451D01*
X120359928Y-94741025D01*
X120371435Y-94707133D01*
X120378285Y-94687495D01*
X120391457Y-94650360D01*
X120398651Y-94630878D01*
X120937230Y-94630878D01*
X120949689Y-94641422D01*
X120959733Y-94651911D01*
X120966055Y-94670726D01*
X120968333Y-94692491D01*
X120989650Y-94678438D01*
X120989887Y-94678282D01*
X121009072Y-94669195D01*
X121023722Y-94671211D01*
X121027614Y-94673242D01*
X121039280Y-94677203D01*
X121043005Y-94671275D01*
X121040747Y-94653412D01*
X121039543Y-94634403D01*
X121044055Y-94623888D01*
X121044943Y-94623313D01*
X121052254Y-94612605D01*
X121047901Y-94602506D01*
X121033859Y-94598026D01*
X121021043Y-94595148D01*
X121006651Y-94583479D01*
X121006392Y-94583067D01*
X120993923Y-94570611D01*
X120982726Y-94572226D01*
X120974824Y-94587646D01*
X120967794Y-94601153D01*
X120952864Y-94612924D01*
X120939239Y-94620813D01*
X120937230Y-94630878D01*
X120398651Y-94630878D01*
X120403061Y-94618935D01*
X120415198Y-94587602D01*
X120429971Y-94550747D01*
X120430099Y-94550431D01*
X120439075Y-94527633D01*
X120448268Y-94503467D01*
X120455022Y-94486417D01*
X120466194Y-94459902D01*
X120478454Y-94432040D01*
X120478937Y-94430967D01*
X120489151Y-94407933D01*
X120496412Y-94390896D01*
X120499175Y-94383474D01*
X120499844Y-94380589D01*
X120505699Y-94365852D01*
X120516689Y-94341401D01*
X120528311Y-94316699D01*
X121154232Y-94316699D01*
X121160166Y-94332362D01*
X121175636Y-94353244D01*
X121185465Y-94365747D01*
X121195595Y-94389244D01*
X121192223Y-94412264D01*
X121175340Y-94437728D01*
X121159525Y-94458956D01*
X121154290Y-94473908D01*
X121161049Y-94480737D01*
X121179704Y-94479353D01*
X121210155Y-94469666D01*
X121224087Y-94464516D01*
X121237991Y-94461438D01*
X121248051Y-94464760D01*
X121260129Y-94475121D01*
X121276365Y-94492840D01*
X121290580Y-94512559D01*
X121294307Y-94518536D01*
X121305997Y-94531644D01*
X121314377Y-94530605D01*
X121319423Y-94515441D01*
X121321111Y-94486173D01*
X121321223Y-94472933D01*
X121323334Y-94449396D01*
X121330241Y-94434888D01*
X121344670Y-94425525D01*
X121369346Y-94417422D01*
X121370696Y-94417030D01*
X121392643Y-94408516D01*
X121407569Y-94398881D01*
X121413234Y-94390088D01*
X121407397Y-94384100D01*
X121400749Y-94381990D01*
X121382474Y-94376206D01*
X121359298Y-94368882D01*
X121321111Y-94356823D01*
X121321111Y-94306491D01*
X121320068Y-94277573D01*
X121316121Y-94260878D01*
X121308331Y-94258005D01*
X121295759Y-94268655D01*
X121277468Y-94292528D01*
X121265179Y-94308706D01*
X121252076Y-94323118D01*
X121243832Y-94328733D01*
X121240534Y-94328381D01*
X121225288Y-94324603D01*
X121204731Y-94317986D01*
X121196403Y-94315168D01*
X121176466Y-94309379D01*
X121163810Y-94307075D01*
X121158312Y-94308125D01*
X121154232Y-94316699D01*
X120528311Y-94316699D01*
X120531729Y-94309435D01*
X120549732Y-94272152D01*
X120569611Y-94231750D01*
X120590280Y-94190428D01*
X120610651Y-94150385D01*
X120629639Y-94113817D01*
X120646156Y-94082925D01*
X120659117Y-94059905D01*
X120668818Y-94043165D01*
X120677624Y-94027231D01*
X120681019Y-94020004D01*
X120681204Y-94019435D01*
X120686311Y-94010046D01*
X120697309Y-93991311D01*
X120712701Y-93965677D01*
X120730994Y-93935595D01*
X120750693Y-93903511D01*
X120770303Y-93871874D01*
X120788330Y-93843132D01*
X120803280Y-93819733D01*
X120814460Y-93802823D01*
X120843307Y-93760967D01*
X120861040Y-93736128D01*
X121363548Y-93736128D01*
X121365002Y-93743149D01*
X121368782Y-93755040D01*
X121375757Y-93774739D01*
X121386795Y-93805185D01*
X121390952Y-93816649D01*
X121401519Y-93845906D01*
X121410239Y-93870207D01*
X121415547Y-93885197D01*
X121419296Y-93895593D01*
X121427727Y-93918061D01*
X121437489Y-93943387D01*
X121444470Y-93961353D01*
X121457521Y-93995275D01*
X121469611Y-94027035D01*
X121493520Y-94088531D01*
X121546324Y-94214880D01*
X121606982Y-94349373D01*
X121626535Y-94390088D01*
X121674527Y-94490020D01*
X121736713Y-94612605D01*
X121747988Y-94634832D01*
X121826397Y-94781816D01*
X121908783Y-94928983D01*
X121981314Y-95051259D01*
X122086902Y-95217265D01*
X122202411Y-95386851D01*
X122326296Y-95557958D01*
X122457011Y-95728526D01*
X122503976Y-95786530D01*
X122593011Y-95896494D01*
X122624180Y-95932920D01*
X122732750Y-96059803D01*
X122874683Y-96216393D01*
X122897414Y-96240564D01*
X122981926Y-96328028D01*
X123072327Y-96418229D01*
X123166716Y-96509428D01*
X123263192Y-96599887D01*
X123281322Y-96616389D01*
X123359852Y-96687868D01*
X123454795Y-96771633D01*
X123546121Y-96849444D01*
X123631927Y-96919562D01*
X123710312Y-96980251D01*
X123809412Y-97053476D01*
X123994268Y-97184852D01*
X124173158Y-97304896D01*
X124347153Y-97414316D01*
X124517323Y-97513818D01*
X124518285Y-97514358D01*
X124550326Y-97531486D01*
X124579313Y-97545467D01*
X124602094Y-97554874D01*
X124615519Y-97558281D01*
X124621232Y-97557508D01*
X124642047Y-97547578D01*
X124667333Y-97527368D01*
X124672316Y-97522798D01*
X124692208Y-97505067D01*
X124720521Y-97480266D01*
X124755305Y-97450070D01*
X124794614Y-97416151D01*
X124836500Y-97380184D01*
X124879016Y-97343843D01*
X124920212Y-97308801D01*
X124958143Y-97276734D01*
X124990859Y-97249315D01*
X125026358Y-97219466D01*
X125091119Y-97163798D01*
X125164594Y-97099256D01*
X125166152Y-97097880D01*
X125184290Y-97082150D01*
X125210010Y-97060167D01*
X125240113Y-97034654D01*
X125271400Y-97008334D01*
X125277644Y-97003097D01*
X125316900Y-96969980D01*
X125363545Y-96930383D01*
X125414552Y-96886895D01*
X125466899Y-96842101D01*
X125517559Y-96798590D01*
X125563509Y-96758949D01*
X125601724Y-96725765D01*
X125604118Y-96723676D01*
X125628189Y-96702738D01*
X125650371Y-96683535D01*
X125666135Y-96669990D01*
X125666882Y-96669354D01*
X125675250Y-96661863D01*
X125680486Y-96654569D01*
X125682286Y-96645159D01*
X125680346Y-96631322D01*
X125674360Y-96610745D01*
X125664025Y-96581116D01*
X125649035Y-96540122D01*
X125644809Y-96528589D01*
X125634165Y-96499360D01*
X125625415Y-96475085D01*
X125620130Y-96460111D01*
X125618476Y-96455451D01*
X125610792Y-96435181D01*
X125600105Y-96407992D01*
X125588331Y-96378676D01*
X125577386Y-96352022D01*
X125569189Y-96332820D01*
X125565892Y-96325168D01*
X125557459Y-96305235D01*
X125545321Y-96276355D01*
X125530544Y-96241062D01*
X125514192Y-96201892D01*
X125500879Y-96170699D01*
X125476623Y-96116208D01*
X125448537Y-96055225D01*
X125417995Y-95990583D01*
X125386371Y-95925116D01*
X125355040Y-95861659D01*
X125325375Y-95803046D01*
X125298750Y-95752111D01*
X125276540Y-95711687D01*
X125267309Y-95695429D01*
X125254113Y-95671792D01*
X125245044Y-95655019D01*
X125241672Y-95647979D01*
X125241662Y-95647896D01*
X125237724Y-95640007D01*
X125227226Y-95621096D01*
X125210982Y-95592581D01*
X125189806Y-95555882D01*
X125164511Y-95512417D01*
X125135912Y-95463605D01*
X125108096Y-95416951D01*
X125039514Y-95306493D01*
X124964070Y-95190446D01*
X124884044Y-95072143D01*
X124857749Y-95034703D01*
X125061019Y-95034703D01*
X125063490Y-95051461D01*
X125078012Y-95075105D01*
X125082135Y-95080618D01*
X125092178Y-95095242D01*
X125096197Y-95103121D01*
X125097356Y-95105830D01*
X125104928Y-95118517D01*
X125117999Y-95138734D01*
X125134742Y-95163615D01*
X125143487Y-95176533D01*
X125161334Y-95203719D01*
X125181545Y-95235600D01*
X125205091Y-95273761D01*
X125232948Y-95319788D01*
X125266088Y-95375267D01*
X125305484Y-95441783D01*
X125310197Y-95449771D01*
X125331569Y-95486229D01*
X125349311Y-95517112D01*
X125366007Y-95547040D01*
X125384243Y-95580635D01*
X125406604Y-95622517D01*
X125415484Y-95639102D01*
X125429383Y-95664561D01*
X125440100Y-95683557D01*
X125445846Y-95692882D01*
X125449756Y-95699302D01*
X125459686Y-95717869D01*
X125474097Y-95746010D01*
X125491991Y-95781684D01*
X125512368Y-95822851D01*
X125534231Y-95867471D01*
X125556580Y-95913504D01*
X125578419Y-95958911D01*
X125598747Y-96001649D01*
X125616567Y-96039681D01*
X125630880Y-96070964D01*
X125642959Y-96098518D01*
X125661169Y-96141315D01*
X125683965Y-96195851D01*
X125710949Y-96261180D01*
X125741728Y-96336355D01*
X125744599Y-96343244D01*
X125756172Y-96368339D01*
X125766542Y-96387081D01*
X125773753Y-96395837D01*
X125773770Y-96395845D01*
X125783430Y-96400102D01*
X125804265Y-96408863D01*
X125833979Y-96421178D01*
X125870275Y-96436095D01*
X125910859Y-96452661D01*
X125944558Y-96466378D01*
X125991854Y-96485645D01*
X126037324Y-96504184D01*
X126077084Y-96520410D01*
X126107251Y-96532740D01*
X126107377Y-96532792D01*
X126155672Y-96552539D01*
X126213879Y-96576307D01*
X126278442Y-96602645D01*
X126345804Y-96630105D01*
X126382761Y-96645159D01*
X126412410Y-96657236D01*
X126474704Y-96682588D01*
X126529129Y-96704714D01*
X126569975Y-96721315D01*
X126601323Y-96734088D01*
X126625410Y-96743960D01*
X126645377Y-96752223D01*
X126664366Y-96760171D01*
X126685515Y-96769096D01*
X126691737Y-96771697D01*
X126715059Y-96781200D01*
X126740069Y-96791140D01*
X126748414Y-96794433D01*
X126774271Y-96804884D01*
X126795582Y-96813811D01*
X126853643Y-96838323D01*
X126899724Y-96856437D01*
X126933402Y-96867984D01*
X126954515Y-96872907D01*
X126962897Y-96871151D01*
X126960926Y-96863982D01*
X126952055Y-96846363D01*
X126937307Y-96820703D01*
X126917908Y-96789123D01*
X126895082Y-96753746D01*
X126874724Y-96722821D01*
X126853786Y-96690847D01*
X126836788Y-96664707D01*
X126825096Y-96646497D01*
X126820072Y-96638318D01*
X126819126Y-96636615D01*
X126811592Y-96624387D01*
X126798844Y-96604437D01*
X126783025Y-96580128D01*
X126772845Y-96564599D01*
X126727314Y-96494944D01*
X126678818Y-96420460D01*
X126629185Y-96343976D01*
X126580246Y-96268320D01*
X126533831Y-96196320D01*
X126491771Y-96130804D01*
X126455895Y-96074601D01*
X126445783Y-96058735D01*
X126416629Y-96013263D01*
X126384083Y-95962806D01*
X126351435Y-95912454D01*
X126321972Y-95867299D01*
X126305041Y-95841450D01*
X126246232Y-95751523D01*
X126190298Y-95665775D01*
X126156284Y-95613485D01*
X127248968Y-95613485D01*
X127256371Y-95626380D01*
X127276509Y-95645815D01*
X127288761Y-95656663D01*
X127304012Y-95672891D01*
X127309524Y-95687213D01*
X127306380Y-95704320D01*
X127295659Y-95728901D01*
X127287201Y-95748325D01*
X127281326Y-95765626D01*
X127280737Y-95773937D01*
X127284609Y-95774679D01*
X127299533Y-95770055D01*
X127322817Y-95758724D01*
X127352174Y-95741714D01*
X127353158Y-95741109D01*
X127364273Y-95735292D01*
X127373642Y-95735134D01*
X127385559Y-95741869D01*
X127404314Y-95756734D01*
X127412997Y-95763716D01*
X127433955Y-95778531D01*
X127446370Y-95782802D01*
X127451285Y-95776603D01*
X127449741Y-95760011D01*
X127445161Y-95737553D01*
X127441012Y-95713723D01*
X127440898Y-95698301D01*
X127445747Y-95687739D01*
X127456484Y-95678490D01*
X127474036Y-95667008D01*
X127490669Y-95655287D01*
X127505410Y-95642539D01*
X127511088Y-95634187D01*
X127508751Y-95630653D01*
X127494166Y-95625568D01*
X127467599Y-95622230D01*
X127447878Y-95620456D01*
X127429155Y-95617899D01*
X127420536Y-95615511D01*
X127418220Y-95610675D01*
X127413041Y-95594886D01*
X127406916Y-95572682D01*
X127402128Y-95556571D01*
X127394740Y-95538698D01*
X127388400Y-95530603D01*
X127382185Y-95534255D01*
X127372307Y-95548224D01*
X127361523Y-95569400D01*
X127343117Y-95611020D01*
X127296175Y-95606210D01*
X127273697Y-95604645D01*
X127254633Y-95606463D01*
X127248968Y-95613485D01*
X126156284Y-95613485D01*
X126138272Y-95585795D01*
X126091186Y-95513171D01*
X126050075Y-95449494D01*
X126015969Y-95396352D01*
X126009337Y-95385997D01*
X125989268Y-95354820D01*
X125965158Y-95317537D01*
X125938203Y-95275980D01*
X125909598Y-95231980D01*
X125880538Y-95187369D01*
X125852217Y-95143977D01*
X125825831Y-95103638D01*
X125802575Y-95068182D01*
X125783642Y-95039441D01*
X125770230Y-95019247D01*
X125763532Y-95009430D01*
X125762879Y-95008585D01*
X125757940Y-95004274D01*
X125750071Y-95000934D01*
X125737985Y-94998564D01*
X125720393Y-94997161D01*
X125696010Y-94996724D01*
X125663547Y-94997252D01*
X125621717Y-94998741D01*
X125569233Y-95001192D01*
X125504808Y-95004601D01*
X125427153Y-95008967D01*
X125398316Y-95010574D01*
X125342253Y-95013482D01*
X125287656Y-95016057D01*
X125237789Y-95018157D01*
X125195915Y-95019641D01*
X125165298Y-95020366D01*
X125138504Y-95020878D01*
X125107961Y-95021935D01*
X125084781Y-95023286D01*
X125072557Y-95024762D01*
X125070656Y-95025344D01*
X125061019Y-95034703D01*
X124857749Y-95034703D01*
X124801715Y-94954920D01*
X124782218Y-94928212D01*
X126201810Y-94928212D01*
X126205241Y-94933544D01*
X126219112Y-94942961D01*
X126239997Y-94952537D01*
X126278184Y-94967129D01*
X126279024Y-95009883D01*
X126279468Y-95028708D01*
X126280174Y-95049873D01*
X126280842Y-95061729D01*
X126282509Y-95067901D01*
X126288618Y-95068995D01*
X126300107Y-95059346D01*
X126318190Y-95038187D01*
X126328972Y-95025257D01*
X126342809Y-95010255D01*
X126351371Y-95003014D01*
X126354272Y-95002590D01*
X126368493Y-95005540D01*
X126387740Y-95013138D01*
X126414389Y-95023854D01*
X126433101Y-95026347D01*
X126440900Y-95019229D01*
X126437761Y-95002525D01*
X126423660Y-94976262D01*
X126418174Y-94967286D01*
X126409071Y-94950679D01*
X126405475Y-94941347D01*
X126407456Y-94936677D01*
X126416695Y-94923182D01*
X126430933Y-94905496D01*
X126432249Y-94903954D01*
X126449724Y-94881438D01*
X126455969Y-94867339D01*
X126450442Y-94860971D01*
X126432601Y-94861645D01*
X126401903Y-94868675D01*
X126396201Y-94870143D01*
X126375864Y-94873173D01*
X126361099Y-94868929D01*
X126348219Y-94855347D01*
X126333539Y-94830358D01*
X126331149Y-94826172D01*
X126319171Y-94810512D01*
X126308250Y-94802977D01*
X126306141Y-94802687D01*
X126300046Y-94805411D01*
X126297082Y-94816629D01*
X126296257Y-94839346D01*
X126295839Y-94854176D01*
X126293852Y-94874715D01*
X126290802Y-94886194D01*
X126284290Y-94890939D01*
X126266930Y-94898637D01*
X126243634Y-94906400D01*
X126225823Y-94912388D01*
X126208373Y-94920892D01*
X126201810Y-94928212D01*
X124782218Y-94928212D01*
X124719362Y-94842110D01*
X124639264Y-94737048D01*
X124605231Y-94693865D01*
X124493777Y-94557099D01*
X124377167Y-94420583D01*
X124256766Y-94285699D01*
X124133935Y-94153831D01*
X124071102Y-94089184D01*
X125030733Y-94089184D01*
X125030953Y-94090315D01*
X125037010Y-94101760D01*
X125050259Y-94122028D01*
X125069215Y-94148995D01*
X125092392Y-94180535D01*
X125118305Y-94214520D01*
X125119842Y-94216571D01*
X125128652Y-94232635D01*
X125130226Y-94244491D01*
X125125784Y-94252197D01*
X125114189Y-94269618D01*
X125097488Y-94293521D01*
X125077591Y-94321123D01*
X125056003Y-94351588D01*
X125041826Y-94374227D01*
X125035663Y-94388571D01*
X125036754Y-94396017D01*
X125039298Y-94397992D01*
X125051536Y-94399352D01*
X125072316Y-94392630D01*
X125073032Y-94392335D01*
X125094426Y-94384361D01*
X125123460Y-94374558D01*
X125154065Y-94364977D01*
X125208296Y-94348755D01*
X125229210Y-94373376D01*
X125236338Y-94382052D01*
X125254898Y-94406208D01*
X125272448Y-94430729D01*
X125280757Y-94442612D01*
X125296739Y-94464161D01*
X125309495Y-94479827D01*
X125321551Y-94491300D01*
X125330225Y-94496193D01*
X125330681Y-94495921D01*
X125332853Y-94486582D01*
X125334616Y-94465918D01*
X125335799Y-94436627D01*
X125336231Y-94401406D01*
X125336254Y-94390140D01*
X125336897Y-94351162D01*
X125338527Y-94324809D01*
X125341288Y-94309546D01*
X125345323Y-94303836D01*
X125345881Y-94303662D01*
X125358030Y-94299612D01*
X125379256Y-94292344D01*
X125405332Y-94283304D01*
X125405658Y-94283190D01*
X125434179Y-94273375D01*
X125460155Y-94264649D01*
X125477999Y-94258888D01*
X125492733Y-94253185D01*
X125502642Y-94243965D01*
X125498228Y-94233757D01*
X125479434Y-94222476D01*
X125446204Y-94210033D01*
X125440479Y-94208175D01*
X125409564Y-94197796D01*
X125381652Y-94187919D01*
X125362185Y-94180460D01*
X125336231Y-94169616D01*
X125336231Y-94078323D01*
X125335996Y-94041749D01*
X125335068Y-94014600D01*
X125333196Y-93997857D01*
X125330132Y-93989380D01*
X125325628Y-93987030D01*
X125325589Y-93987030D01*
X125317544Y-93992842D01*
X125303577Y-94008483D01*
X125285643Y-94031582D01*
X125265694Y-94059767D01*
X125265524Y-94060018D01*
X125245553Y-94088161D01*
X125227560Y-94111176D01*
X125213513Y-94126696D01*
X125205379Y-94132354D01*
X125198495Y-94131088D01*
X125179569Y-94125831D01*
X125152820Y-94117445D01*
X125121655Y-94106961D01*
X125106725Y-94101809D01*
X125073931Y-94090906D01*
X125051974Y-94084591D01*
X125038814Y-94082464D01*
X125032414Y-94084129D01*
X125030733Y-94089184D01*
X124071102Y-94089184D01*
X124010039Y-94026359D01*
X123887431Y-93905642D01*
X126732795Y-93905642D01*
X126736082Y-93911664D01*
X126747963Y-93924803D01*
X126765527Y-93940939D01*
X126779502Y-93954061D01*
X126793029Y-93970145D01*
X126798259Y-93981380D01*
X126797418Y-93987120D01*
X126791694Y-94005018D01*
X126782339Y-94026681D01*
X126777092Y-94038583D01*
X126771705Y-94055858D01*
X126772013Y-94065041D01*
X126777648Y-94065539D01*
X126792993Y-94060628D01*
X126813395Y-94050653D01*
X126828489Y-94042700D01*
X126847715Y-94034038D01*
X126859401Y-94030672D01*
X126865668Y-94032632D01*
X126881258Y-94041870D01*
X126900092Y-94056130D01*
X126912540Y-94066352D01*
X126926590Y-94077327D01*
X126933082Y-94081589D01*
X126934931Y-94081235D01*
X126939679Y-94072292D01*
X126939354Y-94053510D01*
X126934255Y-94027855D01*
X126924680Y-93998296D01*
X126926940Y-93991275D01*
X126940652Y-93978331D01*
X126965088Y-93961855D01*
X126966825Y-93960795D01*
X126988239Y-93946855D01*
X127003427Y-93935394D01*
X127009198Y-93928803D01*
X127003741Y-93922090D01*
X126984576Y-93917195D01*
X126951367Y-93914990D01*
X126927990Y-93913044D01*
X126912817Y-93906177D01*
X126903466Y-93891213D01*
X126896423Y-93864951D01*
X126895438Y-93860741D01*
X126887344Y-93839970D01*
X126877181Y-93828436D01*
X126867147Y-93827668D01*
X126859439Y-93839198D01*
X126858809Y-93841061D01*
X126852059Y-93857685D01*
X126842696Y-93877923D01*
X126830192Y-93903381D01*
X126781494Y-93900816D01*
X126758722Y-93900296D01*
X126739637Y-93901850D01*
X126732795Y-93905642D01*
X123887431Y-93905642D01*
X123886440Y-93904666D01*
X123764502Y-93790134D01*
X123645589Y-93684145D01*
X123543275Y-93598324D01*
X124535776Y-93598324D01*
X124536691Y-93605345D01*
X124543982Y-93612966D01*
X124552703Y-93624623D01*
X124557938Y-93642653D01*
X124557938Y-93642790D01*
X124562705Y-93656151D01*
X124573182Y-93659731D01*
X124583892Y-93651635D01*
X124583967Y-93651517D01*
X124594658Y-93646918D01*
X124614261Y-93647678D01*
X124619185Y-93648466D01*
X124633213Y-93649491D01*
X124637326Y-93644148D01*
X124635131Y-93629253D01*
X124635128Y-93629238D01*
X124633760Y-93610961D01*
X124636794Y-93598660D01*
X124640660Y-93592578D01*
X124647862Y-93576945D01*
X124649698Y-93570002D01*
X124645957Y-93565755D01*
X124631483Y-93567535D01*
X124628238Y-93568128D01*
X124611524Y-93567294D01*
X124599906Y-93556275D01*
X124598966Y-93554864D01*
X124592936Y-93547424D01*
X124586612Y-93546770D01*
X124576677Y-93554085D01*
X124559815Y-93570548D01*
X124558317Y-93572046D01*
X124542549Y-93588393D01*
X124535776Y-93598324D01*
X123543275Y-93598324D01*
X123531063Y-93588081D01*
X123422288Y-93503324D01*
X123410502Y-93494486D01*
X123389266Y-93478514D01*
X123360825Y-93457098D01*
X123327389Y-93431903D01*
X123291171Y-93404593D01*
X123286464Y-93401061D01*
X124093859Y-93401061D01*
X124103404Y-93414680D01*
X124125149Y-93435767D01*
X124139851Y-93450357D01*
X124154546Y-93472011D01*
X124156788Y-93491521D01*
X124147201Y-93511026D01*
X124144506Y-93515074D01*
X124137784Y-93532727D01*
X124136661Y-93549952D01*
X124141809Y-93560572D01*
X124147127Y-93560163D01*
X124162019Y-93553942D01*
X124181793Y-93542817D01*
X124196014Y-93534231D01*
X124212558Y-93525066D01*
X124221037Y-93521508D01*
X124227276Y-93524819D01*
X124241716Y-93535353D01*
X124260550Y-93550603D01*
X124276996Y-93564109D01*
X124291700Y-93575372D01*
X124298776Y-93579699D01*
X124299247Y-93579687D01*
X124305651Y-93573969D01*
X124305685Y-93557135D01*
X124299362Y-93528197D01*
X124288760Y-93488776D01*
X124308897Y-93470592D01*
X124309648Y-93469916D01*
X124328725Y-93454030D01*
X124346564Y-93440971D01*
X124348163Y-93439898D01*
X124360487Y-93426941D01*
X124359410Y-93415824D01*
X124345991Y-93408053D01*
X124321291Y-93405128D01*
X124307088Y-93404717D01*
X124279923Y-93399732D01*
X124264530Y-93388511D01*
X124259614Y-93370322D01*
X124259507Y-93364358D01*
X124255824Y-93335741D01*
X124247784Y-93320534D01*
X124236564Y-93319020D01*
X124223341Y-93331483D01*
X124209292Y-93358206D01*
X124192563Y-93398569D01*
X124142490Y-93393635D01*
X124113228Y-93391700D01*
X124096978Y-93393779D01*
X124093859Y-93401061D01*
X123286464Y-93401061D01*
X123235249Y-93362630D01*
X123156672Y-93304639D01*
X123084572Y-93252875D01*
X123016128Y-93205434D01*
X122948520Y-93160414D01*
X122878929Y-93115911D01*
X122804534Y-93070023D01*
X122722516Y-93020847D01*
X122704995Y-93010472D01*
X122666525Y-92987808D01*
X122633184Y-92968321D01*
X122606814Y-92953080D01*
X122589255Y-92943153D01*
X122582351Y-92939607D01*
X122580465Y-92938969D01*
X122569187Y-92932972D01*
X122552052Y-92922708D01*
X122544140Y-92917935D01*
X122520894Y-92904580D01*
X122491492Y-92888242D01*
X122460423Y-92871435D01*
X122439218Y-92860293D01*
X122415994Y-92849025D01*
X122400857Y-92843623D01*
X122391109Y-92843220D01*
X122384049Y-92846951D01*
X122380743Y-92849717D01*
X122364006Y-92863853D01*
X122340653Y-92883687D01*
X122314065Y-92906336D01*
X122287622Y-92928918D01*
X122264706Y-92948549D01*
X122248698Y-92962348D01*
X122242212Y-92967943D01*
X122224218Y-92983385D01*
X122197364Y-93006385D01*
X122162966Y-93035819D01*
X122122339Y-93070562D01*
X122076801Y-93109491D01*
X122027666Y-93151482D01*
X121976250Y-93195411D01*
X121923869Y-93240153D01*
X121871839Y-93284585D01*
X121821476Y-93327582D01*
X121774096Y-93368021D01*
X121731014Y-93404777D01*
X121693547Y-93436727D01*
X121663009Y-93462746D01*
X121640717Y-93481710D01*
X121639027Y-93483146D01*
X121566743Y-93544786D01*
X121505337Y-93597626D01*
X121454877Y-93641607D01*
X121415433Y-93676665D01*
X121387074Y-93702739D01*
X121369871Y-93719767D01*
X121363892Y-93727688D01*
X121363552Y-93731037D01*
X121363548Y-93736128D01*
X120861040Y-93736128D01*
X120877870Y-93712555D01*
X120915804Y-93660770D01*
X120954763Y-93608795D01*
X120992404Y-93559811D01*
X121026379Y-93517003D01*
X121055907Y-93480901D01*
X121090949Y-93438783D01*
X121124569Y-93399092D01*
X121155474Y-93363306D01*
X121182372Y-93332902D01*
X121203971Y-93309356D01*
X121218978Y-93294146D01*
X121226103Y-93288748D01*
X121230780Y-93292380D01*
X121236195Y-93305114D01*
X121243360Y-93333679D01*
X121258423Y-93391857D01*
X121272488Y-93443710D01*
X121285097Y-93487669D01*
X121295791Y-93522164D01*
X121304113Y-93545628D01*
X121309603Y-93556489D01*
X121310443Y-93557211D01*
X121316097Y-93558046D01*
X121325642Y-93554000D01*
X121340446Y-93544083D01*
X121361873Y-93527305D01*
X121391291Y-93502675D01*
X121430065Y-93469204D01*
X121434221Y-93465587D01*
X121469473Y-93435004D01*
X121502170Y-93406793D01*
X121530214Y-93382754D01*
X121551503Y-93364687D01*
X121563939Y-93354394D01*
X121569275Y-93350110D01*
X121579503Y-93341678D01*
X121592972Y-93330312D01*
X121610968Y-93314902D01*
X121634773Y-93294342D01*
X121665674Y-93267525D01*
X121704955Y-93233344D01*
X121753900Y-93190692D01*
X121757604Y-93187468D01*
X121786126Y-93162849D01*
X121818516Y-93135157D01*
X121848459Y-93109793D01*
X121852914Y-93106039D01*
X121879582Y-93083439D01*
X121912678Y-93055244D01*
X121948420Y-93024681D01*
X121983024Y-92994980D01*
X121984363Y-92993828D01*
X122023493Y-92960206D01*
X122068093Y-92921945D01*
X122112772Y-92883667D01*
X122152139Y-92849992D01*
X122168462Y-92835862D01*
X122195832Y-92811245D01*
X122217760Y-92790313D01*
X122232324Y-92774931D01*
X122237606Y-92766965D01*
X122236259Y-92762731D01*
X122230616Y-92757379D01*
X122218843Y-92750305D01*
X122199116Y-92740543D01*
X122169610Y-92727123D01*
X122128499Y-92709078D01*
X122127625Y-92708698D01*
X122103580Y-92698206D01*
X122081220Y-92688411D01*
X122059716Y-92679429D01*
X122035603Y-92670066D01*
X122033360Y-92669223D01*
X122016979Y-92661849D01*
X122008455Y-92655886D01*
X122009937Y-92652532D01*
X122021981Y-92642428D01*
X122044587Y-92627084D01*
X122076332Y-92607374D01*
X122115790Y-92584174D01*
X122142439Y-92569135D01*
X123510515Y-92569135D01*
X123510582Y-92569751D01*
X123517737Y-92577733D01*
X123532977Y-92586974D01*
X123551005Y-92594723D01*
X123566526Y-92598229D01*
X123566980Y-92598254D01*
X123580831Y-92600897D01*
X123603500Y-92606913D01*
X123630316Y-92615068D01*
X123645753Y-92620141D01*
X123664621Y-92627732D01*
X123677323Y-92636917D01*
X123685119Y-92650284D01*
X123689264Y-92670426D01*
X123691017Y-92699933D01*
X123691635Y-92741397D01*
X123691650Y-92742928D01*
X123692214Y-92776102D01*
X123693442Y-92797410D01*
X123695836Y-92809433D01*
X123699898Y-92814753D01*
X123706129Y-92815953D01*
X123714226Y-92814015D01*
X123724679Y-92803495D01*
X123726914Y-92798750D01*
X123736148Y-92782814D01*
X123749926Y-92761056D01*
X123766193Y-92736496D01*
X123782896Y-92712153D01*
X123797981Y-92691046D01*
X123809393Y-92676193D01*
X123815079Y-92670614D01*
X123815176Y-92670617D01*
X123827356Y-92672838D01*
X123849398Y-92678269D01*
X123877346Y-92685788D01*
X123907247Y-92694273D01*
X123935145Y-92702603D01*
X123957086Y-92709655D01*
X123969115Y-92714308D01*
X123980670Y-92718681D01*
X123992489Y-92715125D01*
X123994151Y-92712725D01*
X123994250Y-92707367D01*
X123990394Y-92698642D01*
X123988771Y-92696140D01*
X125450974Y-92696140D01*
X125462811Y-92707367D01*
X125463764Y-92708271D01*
X125490799Y-92723141D01*
X125532623Y-92743073D01*
X125532623Y-92790423D01*
X125533447Y-92814440D01*
X125537320Y-92832600D01*
X125545090Y-92836908D01*
X125557548Y-92827632D01*
X125575485Y-92805042D01*
X125592850Y-92783842D01*
X125608571Y-92774379D01*
X125627013Y-92775735D01*
X125652640Y-92786858D01*
X125678204Y-92797867D01*
X125694604Y-92799906D01*
X125700141Y-92792366D01*
X125694684Y-92775444D01*
X125678098Y-92749335D01*
X125670296Y-92738205D01*
X125660220Y-92722344D01*
X125656277Y-92713821D01*
X125659665Y-92707204D01*
X125670192Y-92692389D01*
X125685372Y-92673221D01*
X125703595Y-92649063D01*
X125713064Y-92631247D01*
X125712534Y-92621794D01*
X125701738Y-92621542D01*
X125689282Y-92625147D01*
X125657914Y-92634109D01*
X125636968Y-92639314D01*
X125623699Y-92640825D01*
X125615360Y-92638703D01*
X125609205Y-92633013D01*
X125602488Y-92623817D01*
X125592465Y-92610224D01*
X125571951Y-92584760D01*
X125557969Y-92571616D01*
X125550206Y-92570472D01*
X125547783Y-92575853D01*
X125544191Y-92592706D01*
X125541425Y-92615779D01*
X125539408Y-92631742D01*
X125534460Y-92652267D01*
X125528517Y-92663593D01*
X125523958Y-92666244D01*
X125506635Y-92672018D01*
X125483944Y-92676566D01*
X125468053Y-92679595D01*
X125452410Y-92686623D01*
X125450974Y-92696140D01*
X123988771Y-92696140D01*
X123981527Y-92684974D01*
X123966593Y-92664789D01*
X123944536Y-92636513D01*
X123914300Y-92598571D01*
X123903974Y-92584979D01*
X123893022Y-92568345D01*
X123888784Y-92558565D01*
X123892019Y-92550912D01*
X123902064Y-92533545D01*
X123917290Y-92509454D01*
X123936031Y-92481359D01*
X123953334Y-92455711D01*
X123968862Y-92431998D01*
X123979392Y-92415098D01*
X123983277Y-92407582D01*
X123982837Y-92405146D01*
X123974215Y-92399191D01*
X123958535Y-92398752D01*
X123941025Y-92404240D01*
X123938364Y-92405544D01*
X123919775Y-92413445D01*
X123893297Y-92423617D01*
X123863743Y-92434195D01*
X123806003Y-92454087D01*
X123780095Y-92425875D01*
X123772865Y-92417855D01*
X123751316Y-92392792D01*
X123732365Y-92369366D01*
X123728088Y-92363824D01*
X123708839Y-92339124D01*
X123696272Y-92323836D01*
X123688601Y-92316109D01*
X123684042Y-92314093D01*
X123680807Y-92315937D01*
X123680560Y-92316274D01*
X123678448Y-92326707D01*
X123676650Y-92348402D01*
X123675348Y-92378404D01*
X123674725Y-92413757D01*
X123674175Y-92506066D01*
X123637806Y-92519624D01*
X123619427Y-92526293D01*
X123587207Y-92537514D01*
X123555976Y-92547954D01*
X123533551Y-92556080D01*
X123516884Y-92563804D01*
X123510515Y-92569135D01*
X122142439Y-92569135D01*
X122161537Y-92558357D01*
X122212148Y-92530799D01*
X122349659Y-92460545D01*
X122563807Y-92364162D01*
X122782006Y-92281561D01*
X123004988Y-92212449D01*
X123015587Y-92209516D01*
X123040094Y-92202740D01*
X123066815Y-92195357D01*
X123090187Y-92189138D01*
X123124583Y-92180439D01*
X123157738Y-92172456D01*
X123185474Y-92165876D01*
X123215290Y-92158563D01*
X123237749Y-92152800D01*
X123251875Y-92149439D01*
X123280778Y-92143797D01*
X123310487Y-92139111D01*
X123323375Y-92137338D01*
X123355353Y-92132789D01*
X123392960Y-92127310D01*
X123430504Y-92121725D01*
X123433753Y-92121236D01*
X123505548Y-92110594D01*
X123567625Y-92101885D01*
X123622677Y-92094916D01*
X123673402Y-92089499D01*
X123722496Y-92085444D01*
X123772655Y-92082561D01*
X123826575Y-92080659D01*
X123886952Y-92079549D01*
X123956483Y-92079042D01*
X124037864Y-92078946D01*
X124105183Y-92079051D01*
X124170159Y-92079380D01*
X124224458Y-92080006D01*
X124270143Y-92081010D01*
X124309276Y-92082471D01*
X124343922Y-92084468D01*
X124376142Y-92087081D01*
X124408000Y-92090388D01*
X124441558Y-92094470D01*
X124462393Y-92097138D01*
X124509218Y-92103128D01*
X124554532Y-92108920D01*
X124594029Y-92113962D01*
X124623402Y-92117705D01*
X124631002Y-92118698D01*
X124663029Y-92123400D01*
X124691389Y-92128302D01*
X124710687Y-92132490D01*
X124710962Y-92132564D01*
X124735106Y-92137415D01*
X124757502Y-92139452D01*
X124772881Y-92140765D01*
X124798439Y-92144867D01*
X124826603Y-92150780D01*
X124848835Y-92156018D01*
X124887038Y-92164967D01*
X124921626Y-92173016D01*
X124945438Y-92178649D01*
X124972015Y-92185194D01*
X124990727Y-92190098D01*
X125003739Y-92193757D01*
X125028793Y-92200803D01*
X125056191Y-92208510D01*
X125071483Y-92212895D01*
X125102590Y-92222083D01*
X125139521Y-92233214D01*
X125179452Y-92245413D01*
X125219561Y-92257808D01*
X125257024Y-92269523D01*
X125289021Y-92279684D01*
X125312727Y-92287418D01*
X125325321Y-92291851D01*
X125326937Y-92292501D01*
X125342587Y-92298528D01*
X125366580Y-92307541D01*
X125394421Y-92317848D01*
X125396435Y-92318590D01*
X125427513Y-92330359D01*
X125457259Y-92342123D01*
X125479489Y-92351441D01*
X125488636Y-92355411D01*
X125505694Y-92362267D01*
X125514497Y-92364979D01*
X125519920Y-92366639D01*
X125535498Y-92373080D01*
X125556721Y-92382715D01*
X125578109Y-92392588D01*
X125610541Y-92407191D01*
X125641730Y-92420903D01*
X125647929Y-92423627D01*
X125677357Y-92437231D01*
X125714161Y-92454984D01*
X125755410Y-92475397D01*
X125798177Y-92496983D01*
X125839531Y-92518252D01*
X125876545Y-92537717D01*
X125906290Y-92553889D01*
X125925836Y-92565279D01*
X125934530Y-92570655D01*
X125950135Y-92579641D01*
X125958040Y-92583192D01*
X125959365Y-92583692D01*
X125970484Y-92589788D01*
X125990716Y-92601673D01*
X126017717Y-92617904D01*
X126039636Y-92631247D01*
X126049144Y-92637035D01*
G37*
%TD*%
M02*
