%TF.GenerationSoftware,KiCad,Pcbnew,8.0.6*%
%TF.CreationDate,2024-12-10T15:52:01-08:00*%
%TF.ProjectId,Avionics Power Regulation Board,4176696f-6e69-4637-9320-506f77657220,2*%
%TF.SameCoordinates,Original*%
%TF.FileFunction,Copper,L1,Top*%
%TF.FilePolarity,Positive*%
%FSLAX46Y46*%
G04 Gerber Fmt 4.6, Leading zero omitted, Abs format (unit mm)*
G04 Created by KiCad (PCBNEW 8.0.6) date 2024-12-10 15:52:01*
%MOMM*%
%LPD*%
G01*
G04 APERTURE LIST*
G04 Aperture macros list*
%AMRoundRect*
0 Rectangle with rounded corners*
0 $1 Rounding radius*
0 $2 $3 $4 $5 $6 $7 $8 $9 X,Y pos of 4 corners*
0 Add a 4 corners polygon primitive as box body*
4,1,4,$2,$3,$4,$5,$6,$7,$8,$9,$2,$3,0*
0 Add four circle primitives for the rounded corners*
1,1,$1+$1,$2,$3*
1,1,$1+$1,$4,$5*
1,1,$1+$1,$6,$7*
1,1,$1+$1,$8,$9*
0 Add four rect primitives between the rounded corners*
20,1,$1+$1,$2,$3,$4,$5,0*
20,1,$1+$1,$4,$5,$6,$7,0*
20,1,$1+$1,$6,$7,$8,$9,0*
20,1,$1+$1,$8,$9,$2,$3,0*%
G04 Aperture macros list end*
%TA.AperFunction,ComponentPad*%
%ADD10C,1.600000*%
%TD*%
%TA.AperFunction,SMDPad,CuDef*%
%ADD11RoundRect,0.100000X-0.637500X-0.100000X0.637500X-0.100000X0.637500X0.100000X-0.637500X0.100000X0*%
%TD*%
%TA.AperFunction,ComponentPad*%
%ADD12C,2.000000*%
%TD*%
%TA.AperFunction,SMDPad,CuDef*%
%ADD13RoundRect,0.250000X0.350000X0.450000X-0.350000X0.450000X-0.350000X-0.450000X0.350000X-0.450000X0*%
%TD*%
%TA.AperFunction,SMDPad,CuDef*%
%ADD14RoundRect,0.250000X-0.300000X2.050000X-0.300000X-2.050000X0.300000X-2.050000X0.300000X2.050000X0*%
%TD*%
%TA.AperFunction,SMDPad,CuDef*%
%ADD15RoundRect,0.250000X-2.375000X2.025000X-2.375000X-2.025000X2.375000X-2.025000X2.375000X2.025000X0*%
%TD*%
%TA.AperFunction,SMDPad,CuDef*%
%ADD16RoundRect,0.250002X-5.149998X4.449998X-5.149998X-4.449998X5.149998X-4.449998X5.149998X4.449998X0*%
%TD*%
%TA.AperFunction,ComponentPad*%
%ADD17C,1.200000*%
%TD*%
%TA.AperFunction,ComponentPad*%
%ADD18C,1.778000*%
%TD*%
%TA.AperFunction,ComponentPad*%
%ADD19C,2.400000*%
%TD*%
%TA.AperFunction,SMDPad,CuDef*%
%ADD20RoundRect,0.250000X-0.350000X-0.450000X0.350000X-0.450000X0.350000X0.450000X-0.350000X0.450000X0*%
%TD*%
%TA.AperFunction,ComponentPad*%
%ADD21R,2.200000X2.200000*%
%TD*%
%TA.AperFunction,ComponentPad*%
%ADD22O,2.200000X2.200000*%
%TD*%
%TA.AperFunction,WasherPad*%
%ADD23C,3.500000*%
%TD*%
%TA.AperFunction,ComponentPad*%
%ADD24R,1.473200X1.473200*%
%TD*%
%TA.AperFunction,ComponentPad*%
%ADD25C,1.473200*%
%TD*%
%TA.AperFunction,SMDPad,CuDef*%
%ADD26RoundRect,0.250000X0.450000X-0.350000X0.450000X0.350000X-0.450000X0.350000X-0.450000X-0.350000X0*%
%TD*%
%TA.AperFunction,SMDPad,CuDef*%
%ADD27RoundRect,0.250000X-0.300000X-0.300000X0.300000X-0.300000X0.300000X0.300000X-0.300000X0.300000X0*%
%TD*%
%TA.AperFunction,ComponentPad*%
%ADD28R,3.200000X3.200000*%
%TD*%
%TA.AperFunction,ComponentPad*%
%ADD29O,3.200000X3.200000*%
%TD*%
%TA.AperFunction,SMDPad,CuDef*%
%ADD30RoundRect,0.250000X-0.450000X0.350000X-0.450000X-0.350000X0.450000X-0.350000X0.450000X0.350000X0*%
%TD*%
%TA.AperFunction,ComponentPad*%
%ADD31R,1.700000X1.700000*%
%TD*%
%TA.AperFunction,ComponentPad*%
%ADD32O,1.700000X1.700000*%
%TD*%
%TA.AperFunction,SMDPad,CuDef*%
%ADD33RoundRect,0.125000X-0.687500X-0.125000X0.687500X-0.125000X0.687500X0.125000X-0.687500X0.125000X0*%
%TD*%
%TA.AperFunction,ViaPad*%
%ADD34C,0.600000*%
%TD*%
%TA.AperFunction,Conductor*%
%ADD35C,0.200000*%
%TD*%
%TA.AperFunction,Conductor*%
%ADD36C,1.367030*%
%TD*%
G04 APERTURE END LIST*
D10*
%TO.P,CC3,1*%
%TO.N,/Battery Monitor System/VC2*%
X177441500Y-84386400D03*
%TO.P,CC3,2*%
%TO.N,/Battery Monitor System/VC1*%
X177441500Y-82386400D03*
%TD*%
D11*
%TO.P,U2,1,DSG*%
%TO.N,/Battery Monitor System/DSG*%
X170291500Y-61186400D03*
%TO.P,U2,2,CHG*%
%TO.N,/Battery Monitor System/CHG*%
X170291500Y-61836400D03*
%TO.P,U2,3,VSS*%
%TO.N,GNDREF*%
X170291500Y-62486400D03*
%TO.P,U2,4,SDA*%
%TO.N,/SDA*%
X170291500Y-63136400D03*
%TO.P,U2,5,SCL*%
%TO.N,/SCL*%
X170291500Y-63786400D03*
%TO.P,U2,6,TS1*%
%TO.N,Net-(U2-TS1)*%
X170291500Y-64436400D03*
%TO.P,U2,7,CAP1*%
%TO.N,Net-(U2-CAP1)*%
X170291500Y-65086400D03*
%TO.P,U2,8,REGOUT*%
%TO.N,/REGOUT*%
X170291500Y-65736400D03*
%TO.P,U2,9,REGSRC*%
%TO.N,/Battery Monitor System/BAT +*%
X170291500Y-66386400D03*
%TO.P,U2,10,BAT*%
%TO.N,Net-(U2-BAT)*%
X170291500Y-67036400D03*
%TO.P,U2,11,NC*%
%TO.N,unconnected-(U2-NC-Pad11)*%
X176016500Y-67036400D03*
%TO.P,U2,12,VC5*%
%TO.N,/Battery Monitor System/VC5*%
X176016500Y-66386400D03*
%TO.P,U2,13,VC4*%
%TO.N,/Battery Monitor System/VC3*%
X176016500Y-65736400D03*
%TO.P,U2,14,VC3*%
X176016500Y-65086400D03*
%TO.P,U2,15,VC2*%
%TO.N,/Battery Monitor System/VC2*%
X176016500Y-64436400D03*
%TO.P,U2,16,VC1*%
%TO.N,/Battery Monitor System/VC1*%
X176016500Y-63786400D03*
%TO.P,U2,17,VC0*%
%TO.N,/Battery Monitor System/VC0*%
X176016500Y-63136400D03*
%TO.P,U2,18,SRP*%
%TO.N,/Battery Monitor System/SRP*%
X176016500Y-62486400D03*
%TO.P,U2,19,SRN*%
%TO.N,/Battery Monitor System/SRN*%
X176016500Y-61836400D03*
%TO.P,U2,20,ALERT*%
%TO.N,/ALERT*%
X176016500Y-61186400D03*
%TD*%
D12*
%TO.P,L1,1*%
%TO.N,Net-(D1-K)*%
X189103000Y-114046000D03*
%TO.P,L1,2*%
%TO.N,/VOUT*%
X185103000Y-114046000D03*
%TD*%
D13*
%TO.P,RC1,1*%
%TO.N,/Battery Monitor System/BAT +*%
X186191500Y-78686400D03*
%TO.P,RC1,2*%
%TO.N,/Battery Monitor System/VC5*%
X184191500Y-78686400D03*
%TD*%
D14*
%TO.P,U1,1,VIN*%
%TO.N,/VIN*%
X199126000Y-120275000D03*
%TO.P,U1,2,OUT*%
%TO.N,Net-(D1-K)*%
X197426000Y-120275000D03*
%TO.P,U1,3,GND*%
%TO.N,GNDREF*%
X195726000Y-120275000D03*
D15*
X198501000Y-127000000D03*
X192951000Y-127000000D03*
D16*
X195726000Y-129425000D03*
D15*
X198501000Y-131850000D03*
X192951000Y-131850000D03*
D14*
%TO.P,U1,4,FB*%
%TO.N,/VOUT*%
X194026000Y-120275000D03*
%TO.P,U1,5,~{ON}/OFF*%
%TO.N,GNDREF*%
X192326000Y-120275000D03*
%TD*%
D13*
%TO.P,RC2,1*%
%TO.N,Net-(BT1-Pad3+)*%
X186079000Y-75386400D03*
%TO.P,RC2,2*%
%TO.N,/Battery Monitor System/VC3*%
X184079000Y-75386400D03*
%TD*%
D17*
%TO.P,CSS1,1*%
%TO.N,Net-(U4-SS)*%
X187291500Y-103536400D03*
%TO.P,CSS1,2*%
%TO.N,GNDREF*%
X187291500Y-102036400D03*
%TD*%
D18*
%TO.P,Q2,1*%
%TO.N,Net-(D4-A)*%
X190591500Y-76076400D03*
%TO.P,Q2,2*%
%TO.N,/Battery Monitor System/CHG*%
X190591500Y-73536400D03*
%TO.P,Q2,3*%
%TO.N,GNDREF*%
X190591500Y-70996400D03*
%TD*%
D10*
%TO.P,C1,1*%
%TO.N,/VIN*%
X182500000Y-120350000D03*
%TO.P,C1,2*%
%TO.N,GNDREF*%
X182500000Y-118350000D03*
%TD*%
D13*
%TO.P,RC3,1*%
%TO.N,Net-(BT1-Pad2+)*%
X186079000Y-71236400D03*
%TO.P,RC3,2*%
%TO.N,/Battery Monitor System/VC2*%
X184079000Y-71236400D03*
%TD*%
D17*
%TO.P,C5,1*%
%TO.N,/Battery Monitor System/SRN*%
X194641500Y-86736400D03*
%TO.P,C5,2*%
%TO.N,GNDREF*%
X194641500Y-88236400D03*
%TD*%
D10*
%TO.P,CC1,1*%
%TO.N,/Battery Monitor System/VC5*%
X177541500Y-95936400D03*
%TO.P,CC1,2*%
%TO.N,/Battery Monitor System/VC3*%
X177541500Y-93936400D03*
%TD*%
D19*
%TO.P,BT1,1+*%
%TO.N,Net-(BT1-Pad1+)*%
X160945000Y-124100000D03*
%TO.P,BT1,1-*%
%TO.N,GNDREF*%
X88045000Y-124100000D03*
%TO.P,BT1,2+*%
%TO.N,Net-(BT1-Pad2+)*%
X160945000Y-104800000D03*
%TO.P,BT1,2-*%
%TO.N,Net-(BT1-Pad1+)*%
X88045000Y-104800000D03*
%TO.P,BT1,3+*%
%TO.N,Net-(BT1-Pad3+)*%
X160945000Y-85500000D03*
%TO.P,BT1,3-*%
%TO.N,Net-(BT1-Pad2+)*%
X88045000Y-85500000D03*
%TO.P,BT1,4+*%
%TO.N,/Battery Monitor System/BAT +*%
X160945000Y-66200000D03*
%TO.P,BT1,4-*%
%TO.N,Net-(BT1-Pad3+)*%
X88045000Y-66200000D03*
%TD*%
D20*
%TO.P,R4,1*%
%TO.N,/Battery Monitor System/SRN*%
X183891500Y-58286400D03*
%TO.P,R4,2*%
%TO.N,Net-(D3-A)*%
X185891500Y-58286400D03*
%TD*%
D10*
%TO.P,C8,1*%
%TO.N,GNDREF*%
X169841500Y-77836400D03*
%TO.P,C8,2*%
%TO.N,Net-(U2-BAT)*%
X169841500Y-75836400D03*
%TD*%
D20*
%TO.P,Rcomp1,1*%
%TO.N,Net-(U4-COMP)*%
X172491500Y-101836400D03*
%TO.P,Rcomp1,2*%
%TO.N,Net-(Ccomp1-Pad1)*%
X174491500Y-101836400D03*
%TD*%
D21*
%TO.P,D4,1,K*%
%TO.N,/Battery Monitor System/CHG*%
X193661500Y-73636400D03*
D22*
%TO.P,D4,2,A*%
%TO.N,Net-(D4-A)*%
X203821500Y-73636400D03*
%TD*%
D23*
%TO.P,H2,*%
%TO.N,*%
X207111600Y-57200800D03*
%TD*%
D13*
%TO.P,RF1,1*%
%TO.N,Net-(U2-BAT)*%
X169891500Y-71086400D03*
%TO.P,RF1,2*%
%TO.N,/Battery Monitor System/BAT +*%
X167891500Y-71086400D03*
%TD*%
D10*
%TO.P,C2,1*%
%TO.N,/VOUT*%
X194191500Y-110236400D03*
%TO.P,C2,2*%
%TO.N,GNDREF*%
X199191500Y-110236400D03*
%TD*%
D20*
%TO.P,R1,1*%
%TO.N,/VIN*%
X167841500Y-107136400D03*
%TO.P,R1,2*%
%TO.N,Net-(U4-FB)*%
X169841500Y-107136400D03*
%TD*%
D21*
%TO.P,D5,1,K*%
%TO.N,Net-(D5-K)*%
X203871500Y-78336400D03*
D22*
%TO.P,D5,2,A*%
%TO.N,Net-(D4-A)*%
X193711500Y-78336400D03*
%TD*%
D13*
%TO.P,RC4,1*%
%TO.N,Net-(BT1-Pad1+)*%
X186079000Y-67086400D03*
%TO.P,RC4,2*%
%TO.N,/Battery Monitor System/VC1*%
X184079000Y-67086400D03*
%TD*%
%TO.P,RC5,1*%
%TO.N,GNDREF*%
X185891500Y-63136400D03*
%TO.P,RC5,2*%
%TO.N,/Battery Monitor System/VC0*%
X183891500Y-63136400D03*
%TD*%
D18*
%TO.P,Q1,1*%
%TO.N,Net-(D3-K)*%
X190491500Y-68266400D03*
%TO.P,Q1,2*%
%TO.N,/Battery Monitor System/DSG*%
X190491500Y-65726400D03*
%TO.P,Q1,3*%
%TO.N,Net-(D3-A)*%
X190491500Y-63186400D03*
%TD*%
D21*
%TO.P,D3,1,K*%
%TO.N,Net-(D3-K)*%
X193641500Y-68636400D03*
D22*
%TO.P,D3,2,A*%
%TO.N,Net-(D3-A)*%
X203801500Y-68636400D03*
%TD*%
D17*
%TO.P,Cout2,1*%
%TO.N,/VIN*%
X168491500Y-117886400D03*
%TO.P,Cout2,2*%
%TO.N,GNDREF*%
X169991500Y-117886400D03*
%TD*%
%TO.P,C3,1*%
%TO.N,GNDREF*%
X205741500Y-86736400D03*
%TO.P,C3,2*%
%TO.N,/Battery Monitor System/SRP*%
X205741500Y-88236400D03*
%TD*%
D24*
%TO.P,L2,1*%
%TO.N,/REGOUT*%
X176050000Y-111450000D03*
D25*
%TO.P,L2,2*%
%TO.N,Net-(D2-A)*%
X176050000Y-117241200D03*
%TD*%
D26*
%TO.P,R9,1*%
%TO.N,Net-(D5-K)*%
X203141500Y-83736400D03*
%TO.P,R9,2*%
%TO.N,Net-(D4-A)*%
X203141500Y-81736400D03*
%TD*%
D17*
%TO.P,Cout1,1*%
%TO.N,/VIN*%
X168291500Y-111536400D03*
%TO.P,Cout1,2*%
%TO.N,GNDREF*%
X169791500Y-111536400D03*
%TD*%
D27*
%TO.P,D2,1,K*%
%TO.N,/VIN*%
X169141500Y-122986400D03*
%TO.P,D2,2,A*%
%TO.N,Net-(D2-A)*%
X171941500Y-122986400D03*
%TD*%
D12*
%TO.P,SW1,1,1*%
%TO.N,Net-(R5-Pad1)*%
X201841500Y-61086400D03*
X195341500Y-61086400D03*
%TO.P,SW1,2,2*%
%TO.N,/Battery Monitor System/VC1*%
X201841500Y-56586400D03*
X195341500Y-56586400D03*
%TD*%
D20*
%TO.P,R3,1*%
%TO.N,/Battery Monitor System/SRP*%
X183891500Y-60536400D03*
%TO.P,R3,2*%
%TO.N,GNDREF*%
X185891500Y-60536400D03*
%TD*%
D28*
%TO.P,D1,1,K*%
%TO.N,Net-(D1-K)*%
X205391500Y-108926400D03*
D29*
%TO.P,D1,2,A*%
%TO.N,GNDREF*%
X205391500Y-93686400D03*
%TD*%
D13*
%TO.P,R6,1*%
%TO.N,Net-(D3-A)*%
X185891500Y-55986400D03*
%TO.P,R6,2*%
%TO.N,/Battery Monitor System/DSG*%
X183891500Y-55986400D03*
%TD*%
D30*
%TO.P,R8,1*%
%TO.N,Net-(D6-A)*%
X198591500Y-81686400D03*
%TO.P,R8,2*%
%TO.N,Net-(D5-K)*%
X198591500Y-83686400D03*
%TD*%
D20*
%TO.P,R5,1*%
%TO.N,Net-(R5-Pad1)*%
X190041500Y-59236400D03*
%TO.P,R5,2*%
%TO.N,Net-(U2-TS1)*%
X192041500Y-59236400D03*
%TD*%
D30*
%TO.P,RSNS1,1*%
%TO.N,GNDREF*%
X203741500Y-63786400D03*
%TO.P,RSNS1,2*%
%TO.N,Net-(D3-A)*%
X203741500Y-65786400D03*
%TD*%
D13*
%TO.P,R2,1*%
%TO.N,Net-(U4-FB)*%
X169841500Y-104786400D03*
%TO.P,R2,2*%
%TO.N,GNDREF*%
X167841500Y-104786400D03*
%TD*%
D17*
%TO.P,CIN1,1*%
%TO.N,/REGOUT*%
X195141500Y-103486400D03*
%TO.P,CIN1,2*%
%TO.N,GNDREF*%
X195141500Y-101986400D03*
%TD*%
D10*
%TO.P,CC4,1*%
%TO.N,/Battery Monitor System/VC1*%
X177441500Y-78636400D03*
%TO.P,CC4,2*%
%TO.N,GNDREF*%
X177441500Y-76636400D03*
%TD*%
D31*
%TO.P,J1,1,Pin_1*%
%TO.N,GNDREF*%
X170201500Y-58436400D03*
D32*
%TO.P,J1,2,Pin_2*%
%TO.N,/VOUT*%
X172741500Y-58436400D03*
%TO.P,J1,3,Pin_3*%
%TO.N,/SDA*%
X175281500Y-58436400D03*
%TO.P,J1,4,Pin_4*%
%TO.N,/SCL*%
X177821500Y-58436400D03*
%TO.P,J1,5,Pin_5*%
%TO.N,/ALERT*%
X180361500Y-58436400D03*
%TD*%
D10*
%TO.P,Ccomp1,1*%
%TO.N,Net-(Ccomp1-Pad1)*%
X177541500Y-101036400D03*
%TO.P,Ccomp1,2*%
%TO.N,GNDREF*%
X182541500Y-101036400D03*
%TD*%
D18*
%TO.P,Q3,1*%
%TO.N,Net-(D3-K)*%
X190541500Y-83726400D03*
%TO.P,Q3,2*%
%TO.N,Net-(D5-K)*%
X190541500Y-81186400D03*
%TO.P,Q3,3*%
%TO.N,Net-(D6-A)*%
X190541500Y-78646400D03*
%TD*%
D20*
%TO.P,R7,1*%
%TO.N,GNDREF*%
X190041500Y-56036400D03*
%TO.P,R7,2*%
%TO.N,Net-(U2-TS1)*%
X192041500Y-56036400D03*
%TD*%
D33*
%TO.P,U4,1,COMP*%
%TO.N,Net-(U4-COMP)*%
X172579000Y-104061400D03*
%TO.P,U4,2,FB*%
%TO.N,Net-(U4-FB)*%
X172579000Y-104711400D03*
%TO.P,U4,3,EN*%
%TO.N,/REGOUT*%
X172579000Y-105361400D03*
%TO.P,U4,4,GND*%
%TO.N,GNDREF*%
X172579000Y-106011400D03*
%TO.P,U4,5,SW*%
%TO.N,Net-(D2-A)*%
X176804000Y-106011400D03*
%TO.P,U4,6,VIN*%
%TO.N,/REGOUT*%
X176804000Y-105361400D03*
%TO.P,U4,7,FREQ*%
X176804000Y-104711400D03*
%TO.P,U4,8,SS*%
%TO.N,Net-(U4-SS)*%
X176804000Y-104061400D03*
%TD*%
D10*
%TO.P,CAP1,1*%
%TO.N,Net-(U2-CAP1)*%
X170241500Y-96436400D03*
%TO.P,CAP1,2*%
%TO.N,GNDREF*%
X170241500Y-98436400D03*
%TD*%
D17*
%TO.P,C7,1*%
%TO.N,GNDREF*%
X170941500Y-83786400D03*
%TO.P,C7,2*%
%TO.N,/REGOUT*%
X169441500Y-83786400D03*
%TD*%
D23*
%TO.P,H1,*%
%TO.N,*%
X207111600Y-132588000D03*
%TD*%
D10*
%TO.P,CC5,1*%
%TO.N,GNDREF*%
X177491500Y-72786400D03*
%TO.P,CC5,2*%
%TO.N,/Battery Monitor System/VC0*%
X177491500Y-70786400D03*
%TD*%
%TO.P,CC2,1*%
%TO.N,/Battery Monitor System/VC3*%
X177441500Y-90186400D03*
%TO.P,CC2,2*%
%TO.N,/Battery Monitor System/VC2*%
X177441500Y-88186400D03*
%TD*%
%TO.P,CBY1,1*%
%TO.N,/REGOUT*%
X182050000Y-107350000D03*
%TO.P,CBY1,2*%
%TO.N,GNDREF*%
X182050000Y-109350000D03*
%TD*%
%TO.P,C6,1*%
%TO.N,/Battery Monitor System/BAT +*%
X170191500Y-91736400D03*
%TO.P,C6,2*%
%TO.N,GNDREF*%
X170191500Y-89736400D03*
%TD*%
D21*
%TO.P,D6,1,K*%
%TO.N,Net-(D3-K)*%
X207391500Y-77526400D03*
D22*
%TO.P,D6,2,A*%
%TO.N,Net-(D6-A)*%
X207391500Y-67366400D03*
%TD*%
D17*
%TO.P,C4,1*%
%TO.N,/Battery Monitor System/SRP*%
X200191500Y-86736400D03*
%TO.P,C4,2*%
%TO.N,/Battery Monitor System/SRN*%
X200191500Y-88236400D03*
%TD*%
D34*
%TO.N,Net-(BT1-Pad1+)*%
X185991500Y-68886400D03*
X170091500Y-102036400D03*
%TO.N,GNDREF*%
X172091500Y-60786400D03*
X188991500Y-56036400D03*
X189484000Y-127508000D03*
X187091500Y-62836400D03*
%TO.N,Net-(BT1-Pad2+)*%
X188091500Y-70986400D03*
X188441500Y-74236400D03*
%TO.N,/VIN*%
X199390000Y-117094000D03*
%TO.N,/Battery Monitor System/SRP*%
X187091500Y-65886400D03*
%TO.N,/Battery Monitor System/SRN*%
X187867971Y-59212870D03*
X183396417Y-59350565D03*
X198791500Y-84986400D03*
X191841500Y-61936400D03*
%TO.N,/REGOUT*%
X174791500Y-106600000D03*
X167991500Y-65686400D03*
X174891500Y-96336400D03*
%TO.N,Net-(U2-CAP1)*%
X171591500Y-69536400D03*
%TO.N,/Battery Monitor System/VC5*%
X185541500Y-77036400D03*
%TO.N,/Battery Monitor System/VC3*%
X184191500Y-77286400D03*
%TO.N,/Battery Monitor System/VC2*%
X184091500Y-73036400D03*
%TO.N,/Battery Monitor System/VC1*%
X184141500Y-68836400D03*
%TO.N,/Battery Monitor System/VC0*%
X184041500Y-64736400D03*
%TO.N,Net-(D3-K)*%
X194641500Y-84736400D03*
X205091500Y-80936400D03*
%TO.N,Net-(D4-A)*%
X205141500Y-76086400D03*
%TO.N,/Battery Monitor System/CHG*%
X169141500Y-61836400D03*
X182741500Y-72436400D03*
%TO.N,Net-(U2-TS1)*%
X192041500Y-57586400D03*
X171915519Y-64521605D03*
%TO.N,/SCL*%
X171374744Y-63932057D03*
%TO.N,/SDA*%
X171291500Y-63136400D03*
%TD*%
D35*
%TO.N,Net-(BT1-Pad1+)*%
X160945000Y-124100000D02*
X158990000Y-126055000D01*
X169006756Y-102036400D02*
X170091500Y-102036400D01*
X109300000Y-126055000D02*
X88045000Y-104800000D01*
X185991500Y-68886400D02*
X185991500Y-67173900D01*
X160945000Y-124100000D02*
X160945000Y-110098156D01*
X158990000Y-126055000D02*
X109300000Y-126055000D01*
X185991500Y-67173900D02*
X186079000Y-67086400D01*
X160945000Y-110098156D02*
X169006756Y-102036400D01*
%TO.N,Net-(BT1-Pad3+)*%
X172481400Y-97036400D02*
X160945000Y-85500000D01*
X160945000Y-85500000D02*
X143590000Y-68145000D01*
X187091500Y-87942035D02*
X177997135Y-97036400D01*
X187091500Y-76398900D02*
X187091500Y-87942035D01*
X143590000Y-68145000D02*
X89990000Y-68145000D01*
X177997135Y-97036400D02*
X172481400Y-97036400D01*
X89990000Y-68145000D02*
X88045000Y-66200000D01*
X186079000Y-75386400D02*
X187091500Y-76398900D01*
%TO.N,/Battery Monitor System/BAT +*%
X167891500Y-71086400D02*
X167891500Y-66486400D01*
X173091500Y-80336400D02*
X169491500Y-80336400D01*
X184541500Y-80336400D02*
X173091500Y-80336400D01*
X170291500Y-66386400D02*
X167991500Y-66386400D01*
X167891500Y-66486400D02*
X167991500Y-66386400D01*
X161131400Y-66386400D02*
X160945000Y-66200000D01*
X170191500Y-91736400D02*
X173091500Y-88836400D01*
X167991500Y-66386400D02*
X161131400Y-66386400D01*
X186191500Y-78686400D02*
X184541500Y-80336400D01*
X167891500Y-78736400D02*
X167891500Y-71086400D01*
X173091500Y-88836400D02*
X173091500Y-80336400D01*
X169491500Y-80336400D02*
X167891500Y-78736400D01*
%TO.N,GNDREF*%
X195726000Y-120275000D02*
X195726000Y-117975000D01*
X171092970Y-62486400D02*
X170291500Y-62486400D01*
X172579000Y-106011400D02*
X169791500Y-108798900D01*
X195726000Y-124225000D02*
X192951000Y-127000000D01*
X193491256Y-117675000D02*
X192326000Y-118840256D01*
X185891500Y-63136400D02*
X186791500Y-63136400D01*
X168991500Y-105936400D02*
X168991500Y-107998900D01*
X187641500Y-63386400D02*
X187091500Y-62836400D01*
X169791500Y-108798900D02*
X169791500Y-111536400D01*
X205151500Y-65196400D02*
X203741500Y-63786400D01*
X192326000Y-118840256D02*
X192326000Y-120275000D01*
X172091500Y-60786400D02*
X172091500Y-61487870D01*
X190591500Y-70996400D02*
X187641500Y-68046400D01*
X195426000Y-117675000D02*
X193491256Y-117675000D01*
X190591500Y-70996400D02*
X203350689Y-70996400D01*
X172091500Y-61487870D02*
X171092970Y-62486400D01*
X203350689Y-70996400D02*
X205151500Y-69195589D01*
X168991500Y-107998900D02*
X169791500Y-108798900D01*
X185891500Y-60536400D02*
X185891500Y-63136400D01*
X192951000Y-127000000D02*
X189992000Y-127000000D01*
X190041500Y-56036400D02*
X188991500Y-56036400D01*
X187641500Y-68046400D02*
X187641500Y-63386400D01*
X205151500Y-69195589D02*
X205151500Y-65196400D01*
X192326000Y-126375000D02*
X192951000Y-127000000D01*
X186791500Y-63136400D02*
X187091500Y-62836400D01*
X177441500Y-72836400D02*
X177491500Y-72786400D01*
X167841500Y-104786400D02*
X168991500Y-105936400D01*
X177441500Y-76636400D02*
X177441500Y-72836400D01*
X195726000Y-120275000D02*
X195726000Y-124225000D01*
X195726000Y-117975000D02*
X195426000Y-117675000D01*
X189992000Y-127000000D02*
X189484000Y-127508000D01*
%TO.N,Net-(BT1-Pad2+)*%
X105395000Y-102850000D02*
X158995000Y-102850000D01*
X188441500Y-74236400D02*
X188441500Y-87157721D01*
X164908600Y-100836400D02*
X160945000Y-104800000D01*
X88045000Y-85500000D02*
X105395000Y-102850000D01*
X158995000Y-102850000D02*
X160945000Y-104800000D01*
X187841500Y-71236400D02*
X188091500Y-70986400D01*
X188441500Y-87157721D02*
X174762821Y-100836400D01*
X174762821Y-100836400D02*
X164908600Y-100836400D01*
X186079000Y-71236400D02*
X187841500Y-71236400D01*
D36*
%TO.N,/VIN*%
X168291500Y-113236400D02*
X167841500Y-112786400D01*
X168491500Y-117886400D02*
X168291500Y-117686400D01*
D35*
X168291500Y-111586400D02*
X168491500Y-111786400D01*
D36*
X169141500Y-122986400D02*
X168491500Y-122336400D01*
X199126000Y-117358000D02*
X199390000Y-117094000D01*
D35*
X168291500Y-107586400D02*
X167841500Y-107136400D01*
X168291500Y-111536400D02*
X168291500Y-111586400D01*
D36*
X168291500Y-113236400D02*
X168291500Y-111536400D01*
X168291500Y-117686400D02*
X168291500Y-113236400D01*
X167841500Y-112786400D02*
X167841500Y-107136400D01*
X199126000Y-120275000D02*
X199126000Y-117358000D01*
X168491500Y-122336400D02*
X168491500Y-117886400D01*
%TO.N,/VOUT*%
X193030000Y-123571000D02*
X192151000Y-123571000D01*
X194026000Y-120275000D02*
X194026000Y-122575000D01*
X172741500Y-57036400D02*
X172191500Y-56486400D01*
X194026000Y-122575000D02*
X193030000Y-123571000D01*
X172741500Y-58436400D02*
X172741500Y-57036400D01*
D35*
%TO.N,/Battery Monitor System/SRP*%
X184791500Y-63621144D02*
X184791500Y-61436400D01*
X182041500Y-62486400D02*
X176016500Y-62486400D01*
X187091500Y-65886400D02*
X187056756Y-65886400D01*
X184791500Y-61436400D02*
X183891500Y-60536400D01*
X182141500Y-62286400D02*
X182141500Y-62386400D01*
X200191500Y-86736400D02*
X204241500Y-86736400D01*
X204241500Y-86736400D02*
X205741500Y-88236400D01*
X183891500Y-60536400D02*
X182141500Y-62286400D01*
X182141500Y-62386400D02*
X182041500Y-62486400D01*
X187056756Y-65886400D02*
X184791500Y-63621144D01*
%TO.N,/Battery Monitor System/SRN*%
X187867971Y-59212870D02*
X188199470Y-59212870D01*
X176016500Y-61836400D02*
X181006756Y-61836400D01*
X183891500Y-58951656D02*
X183891500Y-58286400D01*
X198791500Y-86636400D02*
X198691500Y-86736400D01*
X198691500Y-86736400D02*
X200191500Y-88236400D01*
X183399128Y-59444028D02*
X183399128Y-59353276D01*
X188199470Y-59212870D02*
X190923000Y-61936400D01*
X183399128Y-59353276D02*
X183396417Y-59350565D01*
X198791500Y-84986400D02*
X198791500Y-86636400D01*
X183399128Y-59444028D02*
X183891500Y-58951656D01*
X181006756Y-61836400D02*
X183399128Y-59444028D01*
X190923000Y-61936400D02*
X191841500Y-61936400D01*
X194641500Y-86736400D02*
X198691500Y-86736400D01*
%TO.N,/REGOUT*%
X176804000Y-104711400D02*
X176804000Y-105361400D01*
X176804000Y-105361400D02*
X175991501Y-105361400D01*
X175991501Y-105361400D02*
X174791500Y-106561401D01*
X168041500Y-65736400D02*
X170291500Y-65736400D01*
X174791500Y-106561401D02*
X174791500Y-106600000D01*
X174791500Y-106600000D02*
X174791500Y-106606894D01*
X192591500Y-103486400D02*
X188441500Y-107636400D01*
X167991500Y-65686400D02*
X168041500Y-65736400D01*
X173091500Y-96336400D02*
X174891500Y-96336400D01*
X169441500Y-83786400D02*
X168841500Y-84386400D01*
X195141500Y-103486400D02*
X192591500Y-103486400D01*
X181691500Y-107686400D02*
X179366500Y-105361400D01*
X173546006Y-105361400D02*
X172579000Y-105361400D01*
X174791500Y-106606894D02*
X173546006Y-105361400D01*
X181741500Y-107636400D02*
X181691500Y-107686400D01*
X188441500Y-107636400D02*
X181741500Y-107636400D01*
X170291500Y-65736400D02*
X169554001Y-65736400D01*
X179366500Y-105361400D02*
X176804000Y-105361400D01*
X168841500Y-92086400D02*
X173091500Y-96336400D01*
X168841500Y-84386400D02*
X168841500Y-92086400D01*
%TO.N,Net-(U2-CAP1)*%
X171591500Y-65648901D02*
X171028999Y-65086400D01*
X171028999Y-65086400D02*
X170291500Y-65086400D01*
X171591500Y-69536400D02*
X171591500Y-65648901D01*
%TO.N,/Battery Monitor System/VC5*%
X181441500Y-66286400D02*
X181341500Y-66386400D01*
X184440029Y-77886400D02*
X183942971Y-77886400D01*
X181341500Y-66386400D02*
X176016500Y-66386400D01*
X184979000Y-77898900D02*
X184979000Y-77347429D01*
X184191500Y-78686400D02*
X184979000Y-77898900D01*
X185230471Y-77347429D02*
X185541500Y-77036400D01*
X184979000Y-77347429D02*
X185230471Y-77347429D01*
X183942971Y-77886400D02*
X181691500Y-75634929D01*
X181691500Y-66286400D02*
X181441500Y-66286400D01*
X184979000Y-77347429D02*
X184440029Y-77886400D01*
X181691500Y-75634929D02*
X181691500Y-66286400D01*
%TO.N,/Battery Monitor System/VC3*%
X184079000Y-77173900D02*
X184191500Y-77286400D01*
X176016500Y-65086400D02*
X176016500Y-65736400D01*
X176016500Y-65086400D02*
X182041500Y-65086400D01*
X177541500Y-93936400D02*
X177541500Y-90286400D01*
X177541500Y-90286400D02*
X177441500Y-90186400D01*
X184079000Y-75386400D02*
X184079000Y-77173900D01*
X182141500Y-65186400D02*
X182141500Y-73448900D01*
X182141500Y-73448900D02*
X184079000Y-75386400D01*
X182041500Y-65086400D02*
X182141500Y-65186400D01*
%TO.N,/Battery Monitor System/VC2*%
X177441500Y-88186400D02*
X177441500Y-84386400D01*
X184079000Y-71236400D02*
X184079000Y-73023900D01*
X184079000Y-71236400D02*
X182541500Y-69698900D01*
X182441500Y-64436400D02*
X176016500Y-64436400D01*
X182541500Y-64336400D02*
X182441500Y-64436400D01*
X182541500Y-69698900D02*
X182541500Y-64336400D01*
X184079000Y-73023900D02*
X184091500Y-73036400D01*
%TO.N,/Battery Monitor System/VC1*%
X182991500Y-63536400D02*
X182741500Y-63786400D01*
X184079000Y-67086400D02*
X184079000Y-68773900D01*
X184079000Y-68773900D02*
X184141500Y-68836400D01*
X195341500Y-56586400D02*
X201841500Y-56586400D01*
X182991500Y-65998900D02*
X182991500Y-63536400D01*
X184079000Y-67086400D02*
X182991500Y-65998900D01*
X182741500Y-63786400D02*
X176016500Y-63786400D01*
%TO.N,/Battery Monitor System/VC0*%
X183891500Y-64586400D02*
X184041500Y-64736400D01*
X183891500Y-63136400D02*
X183891500Y-64586400D01*
X183891500Y-63136400D02*
X176016500Y-63136400D01*
%TO.N,Net-(Ccomp1-Pad1)*%
X176741500Y-101836400D02*
X177541500Y-101036400D01*
X174491500Y-101836400D02*
X176741500Y-101836400D01*
%TO.N,Net-(U4-SS)*%
X187291500Y-103536400D02*
X177329000Y-103536400D01*
X177329000Y-103536400D02*
X176804000Y-104061400D01*
%TO.N,Net-(D1-K)*%
X197426000Y-117101900D02*
X197991500Y-116536400D01*
X189103000Y-114046000D02*
X191593400Y-116536400D01*
X197991500Y-116536400D02*
X205391500Y-109136400D01*
X197426000Y-120275000D02*
X197426000Y-117101900D01*
X191593400Y-116536400D02*
X197991500Y-116536400D01*
X205391500Y-109136400D02*
X205391500Y-108926400D01*
%TO.N,Net-(D2-A)*%
X174791500Y-120406400D02*
X172211500Y-122986400D01*
X177600000Y-106807400D02*
X177600000Y-113150000D01*
X175423950Y-119773950D02*
X176804000Y-118393900D01*
X172211500Y-122986400D02*
X171941500Y-122986400D01*
X176050000Y-119147900D02*
X175423950Y-119773950D01*
X176804000Y-113946000D02*
X177600000Y-113150000D01*
X176804000Y-118393900D02*
X176804000Y-113946000D01*
X176050000Y-117241200D02*
X176050000Y-119147900D01*
X176804000Y-106011400D02*
X177600000Y-106807400D01*
X174791500Y-120406400D02*
X175423950Y-119773950D01*
%TO.N,Net-(D3-K)*%
X193641500Y-68636400D02*
X190861500Y-68636400D01*
X207391500Y-78636400D02*
X205091500Y-80936400D01*
X207391500Y-77526400D02*
X207391500Y-78636400D01*
X194641500Y-84736400D02*
X191551500Y-84736400D01*
X190861500Y-68636400D02*
X190491500Y-68266400D01*
X191551500Y-84736400D02*
X190541500Y-83726400D01*
%TO.N,Net-(D3-A)*%
X203741500Y-65786400D02*
X203741500Y-68576400D01*
X198351500Y-63186400D02*
X190491500Y-63186400D01*
X185971218Y-58286400D02*
X185891500Y-58286400D01*
X203741500Y-68576400D02*
X203801500Y-68636400D01*
X190491500Y-63186400D02*
X190491500Y-62806682D01*
X185891500Y-55986400D02*
X185891500Y-58286400D01*
X190491500Y-62806682D02*
X185971218Y-58286400D01*
X203801500Y-68636400D02*
X198351500Y-63186400D01*
%TO.N,Net-(D4-A)*%
X205391500Y-76336400D02*
X205141500Y-76086400D01*
X198411500Y-73636400D02*
X193711500Y-78336400D01*
X203821500Y-73636400D02*
X198411500Y-73636400D01*
X205391500Y-79486400D02*
X205391500Y-76336400D01*
X191451500Y-76076400D02*
X190591500Y-76076400D01*
X203141500Y-81736400D02*
X205391500Y-79486400D01*
X193711500Y-78336400D02*
X191451500Y-76076400D01*
%TO.N,/Battery Monitor System/CHG*%
X190641500Y-73536400D02*
X190741500Y-73636400D01*
X183842971Y-73636400D02*
X190491500Y-73636400D01*
X190491500Y-73636400D02*
X190591500Y-73536400D01*
X182741500Y-72534929D02*
X183842971Y-73636400D01*
X190591500Y-73536400D02*
X190641500Y-73536400D01*
X170291500Y-61836400D02*
X169141500Y-61836400D01*
X182741500Y-72436400D02*
X182741500Y-72534929D01*
X190741500Y-73636400D02*
X193661500Y-73636400D01*
%TO.N,Net-(D5-K)*%
X199606756Y-83686400D02*
X202141500Y-81151656D01*
X192491500Y-83736400D02*
X190541500Y-81786400D01*
X192541500Y-83686400D02*
X192491500Y-83736400D01*
X203576756Y-79716400D02*
X203871500Y-79716400D01*
X198591500Y-83686400D02*
X192541500Y-83686400D01*
X202141500Y-82736400D02*
X202141500Y-81151656D01*
X203871500Y-79716400D02*
X203871500Y-78336400D01*
X198591500Y-83686400D02*
X199606756Y-83686400D01*
X202141500Y-81151656D02*
X203576756Y-79716400D01*
X203141500Y-83736400D02*
X202141500Y-82736400D01*
X190541500Y-81786400D02*
X190541500Y-81186400D01*
%TO.N,Net-(D6-A)*%
X207391500Y-67366400D02*
X207391500Y-72046299D01*
X198591500Y-81686400D02*
X198591500Y-80846299D01*
X199701399Y-79736400D02*
X191631500Y-79736400D01*
X198591500Y-80846299D02*
X199701399Y-79736400D01*
X191631500Y-79736400D02*
X190541500Y-78646400D01*
X207391500Y-72046299D02*
X199701399Y-79736400D01*
%TO.N,/Battery Monitor System/DSG*%
X172617846Y-60186400D02*
X170591500Y-60186400D01*
X173911500Y-57166400D02*
X173911500Y-58892746D01*
X186476244Y-59286400D02*
X185306756Y-59286400D01*
X185306756Y-59286400D02*
X184791500Y-58771144D01*
X189302500Y-64537400D02*
X189302500Y-62112656D01*
X184791500Y-56886400D02*
X183891500Y-55986400D01*
X182291500Y-55986400D02*
X183891500Y-55986400D01*
X170291500Y-61186400D02*
X170291500Y-60486400D01*
X184791500Y-58771144D02*
X184791500Y-56886400D01*
X175091500Y-55986400D02*
X182291500Y-55986400D01*
X173911500Y-58892746D02*
X172617846Y-60186400D01*
X190491500Y-65726400D02*
X189302500Y-64537400D01*
X189302500Y-62112656D02*
X186476244Y-59286400D01*
X173911500Y-57166400D02*
X175091500Y-55986400D01*
X170591500Y-60186400D02*
X170291500Y-60486400D01*
%TO.N,Net-(U4-FB)*%
X169841500Y-104786400D02*
X172504000Y-104786400D01*
X169841500Y-107136400D02*
X169841500Y-104786400D01*
X172504000Y-104786400D02*
X172579000Y-104711400D01*
%TO.N,Net-(R5-Pad1)*%
X190041500Y-59236400D02*
X191891500Y-61086400D01*
X195341500Y-61086400D02*
X201841500Y-61086400D01*
X191891500Y-61086400D02*
X195341500Y-61086400D01*
%TO.N,Net-(U2-TS1)*%
X192041500Y-59236400D02*
X192041500Y-56036400D01*
X171905067Y-64532057D02*
X170387157Y-64532057D01*
X171915519Y-64521605D02*
X171905067Y-64532057D01*
X170387157Y-64532057D02*
X170291500Y-64436400D01*
%TO.N,Net-(U4-COMP)*%
X172491500Y-101836400D02*
X172491500Y-103973900D01*
X172491500Y-103973900D02*
X172579000Y-104061400D01*
%TO.N,Net-(U2-BAT)*%
X170291500Y-67036400D02*
X169891500Y-67436400D01*
X169841500Y-75836400D02*
X169841500Y-71136400D01*
X169891500Y-67436400D02*
X169891500Y-71086400D01*
X169841500Y-71136400D02*
X169891500Y-71086400D01*
%TO.N,/SCL*%
X170291500Y-63786400D02*
X171229087Y-63786400D01*
X171229087Y-63786400D02*
X171374744Y-63932057D01*
%TO.N,/SDA*%
X170291500Y-63136400D02*
X171291500Y-63136400D01*
%TO.N,/ALERT*%
X180361500Y-58436400D02*
X177611500Y-61186400D01*
X177611500Y-61186400D02*
X176016500Y-61186400D01*
%TD*%
%TA.AperFunction,Conductor*%
%TO.N,/VOUT*%
G36*
X182778569Y-55156585D02*
G01*
X182824324Y-55209389D01*
X182834268Y-55278547D01*
X182829249Y-55299865D01*
X182828918Y-55300865D01*
X182789164Y-55358323D01*
X182724657Y-55385167D01*
X182711199Y-55385900D01*
X175178169Y-55385900D01*
X175178153Y-55385899D01*
X175170557Y-55385899D01*
X175012443Y-55385899D01*
X174935247Y-55406584D01*
X174859716Y-55426822D01*
X174828670Y-55444747D01*
X174828669Y-55444746D01*
X174722787Y-55505877D01*
X174722782Y-55505881D01*
X173430981Y-56797682D01*
X173430979Y-56797685D01*
X173380861Y-56884494D01*
X173380859Y-56884496D01*
X173351925Y-56934609D01*
X173351923Y-56934613D01*
X173351923Y-56934615D01*
X173319143Y-57056949D01*
X173317085Y-57064631D01*
X173280719Y-57124291D01*
X173217872Y-57154819D01*
X173165216Y-57152311D01*
X172991500Y-57105764D01*
X172991500Y-58003388D01*
X172934493Y-57970475D01*
X172807326Y-57936400D01*
X172675674Y-57936400D01*
X172548507Y-57970475D01*
X172491500Y-58003388D01*
X172491500Y-57105764D01*
X172491499Y-57105764D01*
X172278013Y-57162967D01*
X172278007Y-57162970D01*
X172063922Y-57262799D01*
X172063920Y-57262800D01*
X171870426Y-57398286D01*
X171748365Y-57520347D01*
X171687042Y-57553831D01*
X171617350Y-57548847D01*
X171561417Y-57506975D01*
X171544502Y-57475998D01*
X171495297Y-57344071D01*
X171495293Y-57344064D01*
X171409047Y-57228855D01*
X171409044Y-57228852D01*
X171293835Y-57142606D01*
X171293828Y-57142602D01*
X171158982Y-57092308D01*
X171158983Y-57092308D01*
X171099383Y-57085901D01*
X171099381Y-57085900D01*
X171099373Y-57085900D01*
X171099364Y-57085900D01*
X169303629Y-57085900D01*
X169303623Y-57085901D01*
X169244016Y-57092308D01*
X169109171Y-57142602D01*
X169109164Y-57142606D01*
X168993955Y-57228852D01*
X168993952Y-57228855D01*
X168907706Y-57344064D01*
X168907702Y-57344071D01*
X168857408Y-57478917D01*
X168851001Y-57538516D01*
X168851000Y-57538535D01*
X168851000Y-59334270D01*
X168851001Y-59334276D01*
X168857408Y-59393883D01*
X168907702Y-59528728D01*
X168907706Y-59528735D01*
X168993952Y-59643944D01*
X168993955Y-59643947D01*
X169109164Y-59730193D01*
X169109171Y-59730197D01*
X169244017Y-59780491D01*
X169244016Y-59780491D01*
X169250944Y-59781235D01*
X169303627Y-59786900D01*
X169842403Y-59786899D01*
X169909441Y-59806583D01*
X169955196Y-59859387D01*
X169965140Y-59928546D01*
X169936115Y-59992102D01*
X169930089Y-59998574D01*
X169922792Y-60005872D01*
X169922786Y-60005878D01*
X169810981Y-60117682D01*
X169810977Y-60117687D01*
X169789403Y-60155057D01*
X169785617Y-60161615D01*
X169761942Y-60202620D01*
X169731924Y-60254612D01*
X169693416Y-60398323D01*
X169657050Y-60457983D01*
X169594203Y-60488511D01*
X169589825Y-60489167D01*
X169497246Y-60501354D01*
X169497237Y-60501356D01*
X169351160Y-60561863D01*
X169225718Y-60658118D01*
X169129463Y-60783560D01*
X169068956Y-60929637D01*
X169068954Y-60929644D01*
X169067000Y-60944486D01*
X169038731Y-61008382D01*
X168980404Y-61046850D01*
X168968982Y-61049224D01*
X168969041Y-61049480D01*
X168962253Y-61051029D01*
X168791978Y-61110610D01*
X168639237Y-61206584D01*
X168511684Y-61334137D01*
X168415711Y-61486876D01*
X168356131Y-61657145D01*
X168356130Y-61657150D01*
X168335935Y-61836396D01*
X168335935Y-61836403D01*
X168356130Y-62015649D01*
X168356131Y-62015654D01*
X168415711Y-62185923D01*
X168443180Y-62229639D01*
X168511684Y-62338662D01*
X168639238Y-62466216D01*
X168766166Y-62545970D01*
X168791978Y-62562189D01*
X168962248Y-62621769D01*
X168969034Y-62623318D01*
X168968486Y-62625715D01*
X169022349Y-62648341D01*
X169061911Y-62705931D01*
X169067002Y-62728318D01*
X169068956Y-62743163D01*
X169077566Y-62763950D01*
X169085033Y-62833419D01*
X169077566Y-62858850D01*
X169068957Y-62879634D01*
X169068955Y-62879639D01*
X169053500Y-62997038D01*
X169053500Y-63275763D01*
X169068953Y-63393153D01*
X169068957Y-63393165D01*
X169077566Y-63413950D01*
X169085033Y-63483419D01*
X169077566Y-63508850D01*
X169068957Y-63529634D01*
X169068955Y-63529639D01*
X169053500Y-63647038D01*
X169053500Y-63925763D01*
X169068953Y-64043153D01*
X169068957Y-64043165D01*
X169077566Y-64063950D01*
X169085033Y-64133419D01*
X169077566Y-64158850D01*
X169068957Y-64179634D01*
X169068955Y-64179639D01*
X169053500Y-64297038D01*
X169053500Y-64575763D01*
X169068953Y-64693153D01*
X169068957Y-64693165D01*
X169077566Y-64713950D01*
X169085033Y-64783419D01*
X169077566Y-64808850D01*
X169068957Y-64829634D01*
X169068955Y-64829639D01*
X169053500Y-64947038D01*
X169053500Y-65011900D01*
X169033815Y-65078939D01*
X168981011Y-65124694D01*
X168929500Y-65135900D01*
X168624440Y-65135900D01*
X168557401Y-65116215D01*
X168536759Y-65099581D01*
X168493762Y-65056584D01*
X168341023Y-64960611D01*
X168170754Y-64901031D01*
X168170749Y-64901030D01*
X167991504Y-64880835D01*
X167991496Y-64880835D01*
X167812250Y-64901030D01*
X167812245Y-64901031D01*
X167641976Y-64960611D01*
X167489237Y-65056584D01*
X167361684Y-65184137D01*
X167265711Y-65336876D01*
X167206131Y-65507145D01*
X167206130Y-65507150D01*
X167187131Y-65675783D01*
X167160065Y-65740197D01*
X167102470Y-65779752D01*
X167063911Y-65785900D01*
X162693334Y-65785900D01*
X162626295Y-65766215D01*
X162580540Y-65713411D01*
X162574843Y-65698450D01*
X162574509Y-65697369D01*
X162574508Y-65697363D01*
X162481393Y-65460112D01*
X162353959Y-65239388D01*
X162195050Y-65040123D01*
X162008217Y-64866768D01*
X161797634Y-64723195D01*
X161797630Y-64723193D01*
X161797627Y-64723191D01*
X161797626Y-64723190D01*
X161568006Y-64612612D01*
X161568008Y-64612612D01*
X161324466Y-64537489D01*
X161324462Y-64537488D01*
X161324458Y-64537487D01*
X161203231Y-64519214D01*
X161072440Y-64499500D01*
X161072435Y-64499500D01*
X160817565Y-64499500D01*
X160817559Y-64499500D01*
X160670937Y-64521601D01*
X160565542Y-64537487D01*
X160565539Y-64537488D01*
X160565533Y-64537489D01*
X160321992Y-64612612D01*
X160092373Y-64723190D01*
X160092372Y-64723191D01*
X159881782Y-64866768D01*
X159694952Y-65040121D01*
X159694950Y-65040123D01*
X159536041Y-65239388D01*
X159408608Y-65460109D01*
X159315492Y-65697362D01*
X159315490Y-65697369D01*
X159258777Y-65945845D01*
X159239732Y-66199995D01*
X159239732Y-66200004D01*
X159258777Y-66454154D01*
X159306232Y-66662070D01*
X159315492Y-66702637D01*
X159408607Y-66939888D01*
X159536041Y-67160612D01*
X159694950Y-67359877D01*
X159881783Y-67533232D01*
X160092366Y-67676805D01*
X160092371Y-67676807D01*
X160092372Y-67676808D01*
X160092373Y-67676809D01*
X160185060Y-67721444D01*
X160321992Y-67787387D01*
X160321993Y-67787387D01*
X160321996Y-67787389D01*
X160565542Y-67862513D01*
X160817565Y-67900500D01*
X161072435Y-67900500D01*
X161324458Y-67862513D01*
X161568004Y-67787389D01*
X161797634Y-67676805D01*
X162008217Y-67533232D01*
X162195050Y-67359877D01*
X162353959Y-67160612D01*
X162418455Y-67048901D01*
X162469021Y-67000685D01*
X162525842Y-66986900D01*
X167167000Y-66986900D01*
X167234039Y-67006585D01*
X167279794Y-67059389D01*
X167291000Y-67110900D01*
X167291000Y-69840491D01*
X167271315Y-69907530D01*
X167227231Y-69946041D01*
X167228313Y-69947795D01*
X167222167Y-69951585D01*
X167222166Y-69951586D01*
X167144353Y-69999581D01*
X167072842Y-70043689D01*
X166948789Y-70167742D01*
X166856687Y-70317063D01*
X166856685Y-70317068D01*
X166837086Y-70376215D01*
X166801501Y-70483603D01*
X166801501Y-70483604D01*
X166801500Y-70483604D01*
X166791000Y-70586383D01*
X166791000Y-71586401D01*
X166791001Y-71586419D01*
X166801500Y-71689196D01*
X166801501Y-71689199D01*
X166856685Y-71855731D01*
X166856687Y-71855736D01*
X166868002Y-71874081D01*
X166948788Y-72005056D01*
X167072844Y-72129112D01*
X167222166Y-72221214D01*
X167222167Y-72221214D01*
X167228313Y-72225005D01*
X167227206Y-72226799D01*
X167271837Y-72266087D01*
X167291000Y-72332308D01*
X167291000Y-78649730D01*
X167290999Y-78649748D01*
X167290999Y-78815454D01*
X167290998Y-78815454D01*
X167331923Y-78968185D01*
X167346973Y-78994253D01*
X167359019Y-79015116D01*
X167410979Y-79105114D01*
X167410981Y-79105117D01*
X167529849Y-79223985D01*
X167529854Y-79223989D01*
X169122784Y-80816920D01*
X169122786Y-80816921D01*
X169122790Y-80816924D01*
X169259709Y-80895973D01*
X169259716Y-80895977D01*
X169412443Y-80936901D01*
X169412445Y-80936901D01*
X169578154Y-80936901D01*
X169578170Y-80936900D01*
X172367000Y-80936900D01*
X172434039Y-80956585D01*
X172479794Y-81009389D01*
X172491000Y-81060900D01*
X172491000Y-88536302D01*
X172471315Y-88603341D01*
X172454681Y-88623983D01*
X171648407Y-89430256D01*
X171587084Y-89463741D01*
X171517392Y-89458757D01*
X171461459Y-89416885D01*
X171440951Y-89374668D01*
X171418241Y-89289911D01*
X171418238Y-89289902D01*
X171410861Y-89274082D01*
X171322068Y-89083666D01*
X171204287Y-88915456D01*
X171191545Y-88897258D01*
X171030641Y-88736354D01*
X170844234Y-88605832D01*
X170844232Y-88605831D01*
X170637997Y-88509661D01*
X170637988Y-88509658D01*
X170418197Y-88450766D01*
X170418193Y-88450765D01*
X170418192Y-88450765D01*
X170418191Y-88450764D01*
X170418186Y-88450764D01*
X170191502Y-88430932D01*
X170191498Y-88430932D01*
X169964813Y-88450764D01*
X169964802Y-88450766D01*
X169745011Y-88509658D01*
X169744997Y-88509663D01*
X169618404Y-88568695D01*
X169549327Y-88579187D01*
X169485543Y-88550667D01*
X169447304Y-88492190D01*
X169442000Y-88456313D01*
X169442000Y-85008837D01*
X169461685Y-84941798D01*
X169514489Y-84896043D01*
X169543215Y-84886948D01*
X169543472Y-84886900D01*
X169543476Y-84886900D01*
X169743956Y-84849424D01*
X169934137Y-84775748D01*
X170107541Y-84668381D01*
X170107956Y-84668002D01*
X170108200Y-84667883D01*
X170112115Y-84664927D01*
X170112693Y-84665692D01*
X170170758Y-84637381D01*
X170240145Y-84645574D01*
X170270680Y-84665197D01*
X170270885Y-84664927D01*
X170274462Y-84667628D01*
X170275042Y-84668001D01*
X170275459Y-84668381D01*
X170448863Y-84775748D01*
X170639044Y-84849424D01*
X170839524Y-84886900D01*
X170839526Y-84886900D01*
X171043474Y-84886900D01*
X171043476Y-84886900D01*
X171243956Y-84849424D01*
X171434137Y-84775748D01*
X171607541Y-84668381D01*
X171758264Y-84530979D01*
X171881173Y-84368221D01*
X171972082Y-84185650D01*
X172027897Y-83989483D01*
X172046715Y-83786400D01*
X172041828Y-83733665D01*
X172027897Y-83583317D01*
X172003312Y-83496912D01*
X171972082Y-83387150D01*
X171950131Y-83343067D01*
X171895625Y-83233603D01*
X171881173Y-83204579D01*
X171777080Y-83066737D01*
X171758262Y-83041818D01*
X171607541Y-82904419D01*
X171607539Y-82904417D01*
X171434142Y-82797055D01*
X171434135Y-82797051D01*
X171339046Y-82760214D01*
X171243956Y-82723376D01*
X171043476Y-82685900D01*
X170839524Y-82685900D01*
X170639044Y-82723376D01*
X170639041Y-82723376D01*
X170639041Y-82723377D01*
X170448864Y-82797051D01*
X170448857Y-82797055D01*
X170275461Y-82904417D01*
X170275456Y-82904420D01*
X170275035Y-82904805D01*
X170274788Y-82904925D01*
X170270885Y-82907873D01*
X170270308Y-82907109D01*
X170212229Y-82935420D01*
X170142843Y-82927220D01*
X170112318Y-82907603D01*
X170112115Y-82907873D01*
X170108551Y-82905181D01*
X170107965Y-82904805D01*
X170107543Y-82904420D01*
X170107538Y-82904417D01*
X169934142Y-82797055D01*
X169934135Y-82797051D01*
X169839046Y-82760214D01*
X169743956Y-82723376D01*
X169543476Y-82685900D01*
X169339524Y-82685900D01*
X169139044Y-82723376D01*
X169139041Y-82723376D01*
X169139041Y-82723377D01*
X168948864Y-82797051D01*
X168948857Y-82797055D01*
X168775460Y-82904417D01*
X168775458Y-82904419D01*
X168624737Y-83041818D01*
X168501827Y-83204578D01*
X168410922Y-83387139D01*
X168410917Y-83387152D01*
X168355102Y-83583317D01*
X168336285Y-83786399D01*
X168336285Y-83786400D01*
X168348962Y-83923215D01*
X168354528Y-83983277D01*
X168341113Y-84051847D01*
X168338453Y-84056702D01*
X168310145Y-84105733D01*
X168292429Y-84136419D01*
X168281923Y-84154615D01*
X168240999Y-84307343D01*
X168240999Y-84307345D01*
X168240999Y-84475446D01*
X168241000Y-84475459D01*
X168241000Y-91647403D01*
X168221315Y-91714442D01*
X168168511Y-91760197D01*
X168099353Y-91770141D01*
X168035797Y-91741116D01*
X168029319Y-91735084D01*
X162553663Y-86259428D01*
X162520178Y-86198105D01*
X162525162Y-86128413D01*
X162525885Y-86126522D01*
X162574508Y-86002637D01*
X162631222Y-85754157D01*
X162643953Y-85584270D01*
X162650268Y-85500004D01*
X162650268Y-85499995D01*
X162631222Y-85245845D01*
X162626587Y-85225539D01*
X162574508Y-84997363D01*
X162481393Y-84760112D01*
X162353959Y-84539388D01*
X162195050Y-84340123D01*
X162008217Y-84166768D01*
X161797634Y-84023195D01*
X161797630Y-84023193D01*
X161797627Y-84023191D01*
X161797626Y-84023190D01*
X161568006Y-83912612D01*
X161568008Y-83912612D01*
X161324466Y-83837489D01*
X161324462Y-83837488D01*
X161324458Y-83837487D01*
X161203231Y-83819214D01*
X161072440Y-83799500D01*
X161072435Y-83799500D01*
X160817565Y-83799500D01*
X160817559Y-83799500D01*
X160660609Y-83823157D01*
X160565542Y-83837487D01*
X160565539Y-83837488D01*
X160565533Y-83837489D01*
X160321993Y-83912611D01*
X160317681Y-83914304D01*
X160317139Y-83912923D01*
X160254585Y-83923215D01*
X160190454Y-83895483D01*
X160182061Y-83887826D01*
X144077590Y-67783355D01*
X144077588Y-67783352D01*
X143958717Y-67664481D01*
X143958716Y-67664480D01*
X143828439Y-67589265D01*
X143828431Y-67589260D01*
X143821787Y-67585424D01*
X143821786Y-67585423D01*
X143821785Y-67585423D01*
X143669057Y-67544499D01*
X143510943Y-67544499D01*
X143503347Y-67544499D01*
X143503331Y-67544500D01*
X98238444Y-67544500D01*
X98171405Y-67524815D01*
X98125650Y-67472011D01*
X98115706Y-67402853D01*
X98140068Y-67345014D01*
X98142921Y-67341294D01*
X98231936Y-67225289D01*
X98353224Y-67015212D01*
X98446054Y-66791100D01*
X98508838Y-66556789D01*
X98540500Y-66316288D01*
X98540500Y-66073712D01*
X98540500Y-66073711D01*
X150449500Y-66073711D01*
X150449500Y-66316288D01*
X150478817Y-66538982D01*
X150481162Y-66556789D01*
X150493751Y-66603772D01*
X150543947Y-66791104D01*
X150636773Y-67015205D01*
X150636777Y-67015214D01*
X150655169Y-67047070D01*
X150758064Y-67225289D01*
X150758066Y-67225292D01*
X150758067Y-67225293D01*
X150905733Y-67417736D01*
X150905739Y-67417743D01*
X151077256Y-67589260D01*
X151077263Y-67589266D01*
X151110506Y-67614774D01*
X151269711Y-67736936D01*
X151479788Y-67858224D01*
X151703900Y-67951054D01*
X151938211Y-68013838D01*
X152113479Y-68036912D01*
X152178711Y-68045500D01*
X152178712Y-68045500D01*
X152421289Y-68045500D01*
X152469388Y-68039167D01*
X152661789Y-68013838D01*
X152896100Y-67951054D01*
X153120212Y-67858224D01*
X153330289Y-67736936D01*
X153522738Y-67589265D01*
X153694265Y-67417738D01*
X153841936Y-67225289D01*
X153963224Y-67015212D01*
X154056054Y-66791100D01*
X154118838Y-66556789D01*
X154150500Y-66316288D01*
X154150500Y-66073712D01*
X154146547Y-66043689D01*
X154133666Y-65945843D01*
X154118838Y-65833211D01*
X154056054Y-65598900D01*
X153963224Y-65374788D01*
X153841936Y-65164711D01*
X153758967Y-65056584D01*
X153694266Y-64972263D01*
X153694260Y-64972256D01*
X153522740Y-64800736D01*
X153522736Y-64800733D01*
X153330293Y-64653067D01*
X153330292Y-64653066D01*
X153330289Y-64653064D01*
X153130107Y-64537489D01*
X153120214Y-64531777D01*
X153120205Y-64531773D01*
X152896104Y-64438947D01*
X152661785Y-64376161D01*
X152421289Y-64344500D01*
X152421288Y-64344500D01*
X152178712Y-64344500D01*
X152178711Y-64344500D01*
X151938214Y-64376161D01*
X151703895Y-64438947D01*
X151479794Y-64531773D01*
X151479785Y-64531777D01*
X151269706Y-64653067D01*
X151077263Y-64800733D01*
X151077260Y-64800736D01*
X150905739Y-64972256D01*
X150905733Y-64972263D01*
X150758067Y-65164706D01*
X150636777Y-65374785D01*
X150636773Y-65374794D01*
X150543947Y-65598895D01*
X150481161Y-65833214D01*
X150449500Y-66073711D01*
X98540500Y-66073711D01*
X98536547Y-66043689D01*
X98523666Y-65945843D01*
X98508838Y-65833211D01*
X98446054Y-65598900D01*
X98353224Y-65374788D01*
X98231936Y-65164711D01*
X98148967Y-65056584D01*
X98084266Y-64972263D01*
X98084260Y-64972256D01*
X97912740Y-64800736D01*
X97912736Y-64800733D01*
X97720293Y-64653067D01*
X97720292Y-64653066D01*
X97720289Y-64653064D01*
X97520107Y-64537489D01*
X97510214Y-64531777D01*
X97510205Y-64531773D01*
X97286104Y-64438947D01*
X97051785Y-64376161D01*
X96811289Y-64344500D01*
X96811288Y-64344500D01*
X96568712Y-64344500D01*
X96568711Y-64344500D01*
X96328214Y-64376161D01*
X96093895Y-64438947D01*
X95869794Y-64531773D01*
X95869785Y-64531777D01*
X95659706Y-64653067D01*
X95467263Y-64800733D01*
X95467260Y-64800736D01*
X95295739Y-64972256D01*
X95295733Y-64972263D01*
X95148067Y-65164706D01*
X95026777Y-65374785D01*
X95026773Y-65374794D01*
X94933947Y-65598895D01*
X94871161Y-65833214D01*
X94839500Y-66073711D01*
X94839500Y-66316288D01*
X94868817Y-66538982D01*
X94871162Y-66556789D01*
X94883751Y-66603772D01*
X94933947Y-66791104D01*
X95026773Y-67015205D01*
X95026777Y-67015214D01*
X95045169Y-67047070D01*
X95148064Y-67225289D01*
X95148066Y-67225292D01*
X95148067Y-67225293D01*
X95239932Y-67345014D01*
X95265126Y-67410183D01*
X95251088Y-67478628D01*
X95202274Y-67528617D01*
X95141556Y-67544500D01*
X90290097Y-67544500D01*
X90223058Y-67524815D01*
X90202416Y-67508181D01*
X89653663Y-66959428D01*
X89620178Y-66898105D01*
X89625162Y-66828413D01*
X89625885Y-66826522D01*
X89674508Y-66702637D01*
X89731222Y-66454157D01*
X89740322Y-66332718D01*
X89750268Y-66200004D01*
X89750268Y-66199995D01*
X89731222Y-65945845D01*
X89717540Y-65885901D01*
X89674508Y-65697363D01*
X89581393Y-65460112D01*
X89453959Y-65239388D01*
X89295050Y-65040123D01*
X89108217Y-64866768D01*
X88897634Y-64723195D01*
X88897630Y-64723193D01*
X88897627Y-64723191D01*
X88897626Y-64723190D01*
X88668006Y-64612612D01*
X88668008Y-64612612D01*
X88424466Y-64537489D01*
X88424462Y-64537488D01*
X88424458Y-64537487D01*
X88303231Y-64519214D01*
X88172440Y-64499500D01*
X88172435Y-64499500D01*
X87917565Y-64499500D01*
X87917559Y-64499500D01*
X87770937Y-64521601D01*
X87665542Y-64537487D01*
X87665539Y-64537488D01*
X87665533Y-64537489D01*
X87421992Y-64612612D01*
X87192373Y-64723190D01*
X87192372Y-64723191D01*
X86981782Y-64866768D01*
X86794952Y-65040121D01*
X86794950Y-65040123D01*
X86636041Y-65239388D01*
X86508608Y-65460109D01*
X86415492Y-65697362D01*
X86415490Y-65697369D01*
X86358777Y-65945845D01*
X86339732Y-66199995D01*
X86339732Y-66200004D01*
X86358777Y-66454154D01*
X86406232Y-66662070D01*
X86415492Y-66702637D01*
X86508607Y-66939888D01*
X86636041Y-67160612D01*
X86794950Y-67359877D01*
X86981783Y-67533232D01*
X87192366Y-67676805D01*
X87192371Y-67676807D01*
X87192372Y-67676808D01*
X87192373Y-67676809D01*
X87285060Y-67721444D01*
X87421992Y-67787387D01*
X87421993Y-67787387D01*
X87421996Y-67787389D01*
X87665542Y-67862513D01*
X87917565Y-67900500D01*
X88172435Y-67900500D01*
X88424458Y-67862513D01*
X88668004Y-67787389D01*
X88668021Y-67787380D01*
X88672330Y-67785691D01*
X88672877Y-67787085D01*
X88735360Y-67776777D01*
X88799502Y-67804480D01*
X88807938Y-67812173D01*
X89505139Y-68509374D01*
X89505149Y-68509385D01*
X89509479Y-68513715D01*
X89509480Y-68513716D01*
X89621284Y-68625520D01*
X89621286Y-68625521D01*
X89621290Y-68625524D01*
X89758209Y-68704573D01*
X89758216Y-68704577D01*
X89870019Y-68734534D01*
X89910942Y-68745500D01*
X89910943Y-68745500D01*
X143289903Y-68745500D01*
X143356942Y-68765185D01*
X143377584Y-68781819D01*
X159336336Y-84740571D01*
X159369821Y-84801894D01*
X159364837Y-84871586D01*
X159364116Y-84873469D01*
X159315492Y-84997363D01*
X159315490Y-84997369D01*
X159315489Y-84997374D01*
X159258777Y-85245845D01*
X159239732Y-85499995D01*
X159239732Y-85500004D01*
X159258777Y-85754154D01*
X159313022Y-85991818D01*
X159315492Y-86002637D01*
X159375125Y-86154579D01*
X159408608Y-86239890D01*
X159416317Y-86253243D01*
X159536041Y-86460612D01*
X159694950Y-86659877D01*
X159881783Y-86833232D01*
X160092366Y-86976805D01*
X160092371Y-86976807D01*
X160092372Y-86976808D01*
X160092373Y-86976809D01*
X160144069Y-87001704D01*
X160321992Y-87087387D01*
X160321993Y-87087387D01*
X160321996Y-87087389D01*
X160565542Y-87162513D01*
X160817565Y-87200500D01*
X161072435Y-87200500D01*
X161324458Y-87162513D01*
X161568004Y-87087389D01*
X161568021Y-87087380D01*
X161572330Y-87085691D01*
X161572877Y-87087085D01*
X161635360Y-87076777D01*
X161699502Y-87104480D01*
X161707938Y-87112173D01*
X169676890Y-95081125D01*
X169710375Y-95142448D01*
X169705391Y-95212140D01*
X169663519Y-95268073D01*
X169641615Y-95281188D01*
X169588764Y-95305833D01*
X169402358Y-95436354D01*
X169241454Y-95597258D01*
X169110932Y-95783665D01*
X169110931Y-95783667D01*
X169014761Y-95989902D01*
X169014758Y-95989911D01*
X168955866Y-96209702D01*
X168955864Y-96209713D01*
X168936032Y-96436398D01*
X168936032Y-96436401D01*
X168955864Y-96663086D01*
X168955866Y-96663097D01*
X169014758Y-96882888D01*
X169014761Y-96882897D01*
X169110931Y-97089132D01*
X169110932Y-97089134D01*
X169241454Y-97275541D01*
X169314632Y-97348719D01*
X169348117Y-97410042D01*
X169343133Y-97479734D01*
X169314632Y-97524081D01*
X169241454Y-97597258D01*
X169110932Y-97783665D01*
X169110931Y-97783667D01*
X169014761Y-97989902D01*
X169014758Y-97989911D01*
X168955866Y-98209702D01*
X168955864Y-98209713D01*
X168936032Y-98436398D01*
X168936032Y-98436401D01*
X168955864Y-98663086D01*
X168955866Y-98663097D01*
X169014758Y-98882888D01*
X169014761Y-98882897D01*
X169110931Y-99089132D01*
X169110932Y-99089134D01*
X169241454Y-99275541D01*
X169402358Y-99436445D01*
X169402361Y-99436447D01*
X169588766Y-99566968D01*
X169795004Y-99663139D01*
X170014808Y-99722035D01*
X170176730Y-99736201D01*
X170241498Y-99741868D01*
X170241500Y-99741868D01*
X170241502Y-99741868D01*
X170298173Y-99736909D01*
X170468192Y-99722035D01*
X170687996Y-99663139D01*
X170894234Y-99566968D01*
X171080639Y-99436447D01*
X171241547Y-99275539D01*
X171372068Y-99089134D01*
X171468239Y-98882896D01*
X171527135Y-98663092D01*
X171546968Y-98436400D01*
X171527135Y-98209708D01*
X171468239Y-97989904D01*
X171372068Y-97783666D01*
X171261624Y-97625934D01*
X171241548Y-97597262D01*
X171240259Y-97595973D01*
X171168365Y-97524079D01*
X171134882Y-97462759D01*
X171139866Y-97393067D01*
X171168365Y-97348720D01*
X171241547Y-97275539D01*
X171372068Y-97089134D01*
X171396713Y-97036282D01*
X171442882Y-96983847D01*
X171510076Y-96964694D01*
X171576957Y-96984909D01*
X171596774Y-97001009D01*
X171996539Y-97400774D01*
X171996549Y-97400785D01*
X172000879Y-97405115D01*
X172000880Y-97405116D01*
X172112684Y-97516920D01*
X172112686Y-97516921D01*
X172112690Y-97516924D01*
X172249609Y-97595973D01*
X172249616Y-97595977D01*
X172361419Y-97625934D01*
X172402342Y-97636900D01*
X172402343Y-97636900D01*
X176813724Y-97636900D01*
X176880763Y-97656585D01*
X176926518Y-97709389D01*
X176936462Y-97778547D01*
X176907437Y-97842103D01*
X176901405Y-97848581D01*
X174550405Y-100199581D01*
X174489082Y-100233066D01*
X174462724Y-100235900D01*
X164995269Y-100235900D01*
X164995253Y-100235899D01*
X164987657Y-100235899D01*
X164829543Y-100235899D01*
X164722187Y-100264665D01*
X164676810Y-100276824D01*
X164676809Y-100276825D01*
X164626696Y-100305759D01*
X164626695Y-100305760D01*
X164583289Y-100330820D01*
X164539885Y-100355879D01*
X164539882Y-100355881D01*
X164428078Y-100467686D01*
X161707937Y-103187826D01*
X161646614Y-103221311D01*
X161576922Y-103216327D01*
X161570523Y-103213600D01*
X161568008Y-103212612D01*
X161324466Y-103137489D01*
X161324462Y-103137488D01*
X161324458Y-103137487D01*
X161203231Y-103119214D01*
X161072440Y-103099500D01*
X161072435Y-103099500D01*
X160817565Y-103099500D01*
X160817559Y-103099500D01*
X160660609Y-103123157D01*
X160565542Y-103137487D01*
X160565539Y-103137488D01*
X160565533Y-103137489D01*
X160321993Y-103212611D01*
X160317681Y-103214304D01*
X160317139Y-103212923D01*
X160254585Y-103223215D01*
X160190454Y-103195483D01*
X160182061Y-103187826D01*
X159482590Y-102488355D01*
X159482588Y-102488352D01*
X159363717Y-102369481D01*
X159363716Y-102369480D01*
X159272677Y-102316919D01*
X159272676Y-102316918D01*
X159226790Y-102290425D01*
X159226789Y-102290424D01*
X159214263Y-102287067D01*
X159074057Y-102249499D01*
X158915943Y-102249499D01*
X158908347Y-102249499D01*
X158908331Y-102249500D01*
X105695097Y-102249500D01*
X105628058Y-102229815D01*
X105607416Y-102213181D01*
X89653663Y-86259428D01*
X89620178Y-86198105D01*
X89625162Y-86128413D01*
X89625885Y-86126522D01*
X89674508Y-86002637D01*
X89731222Y-85754157D01*
X89743953Y-85584270D01*
X89750268Y-85500004D01*
X89750268Y-85499995D01*
X89741179Y-85378711D01*
X94839500Y-85378711D01*
X94839500Y-85621288D01*
X94871161Y-85861785D01*
X94933947Y-86096104D01*
X95026773Y-86320205D01*
X95026776Y-86320212D01*
X95148064Y-86530289D01*
X95148066Y-86530292D01*
X95148067Y-86530293D01*
X95295733Y-86722736D01*
X95295739Y-86722743D01*
X95467256Y-86894260D01*
X95467262Y-86894265D01*
X95659711Y-87041936D01*
X95869788Y-87163224D01*
X96093900Y-87256054D01*
X96328211Y-87318838D01*
X96508586Y-87342584D01*
X96568711Y-87350500D01*
X96568712Y-87350500D01*
X96811289Y-87350500D01*
X96859388Y-87344167D01*
X97051789Y-87318838D01*
X97286100Y-87256054D01*
X97510212Y-87163224D01*
X97720289Y-87041936D01*
X97912738Y-86894265D01*
X98084265Y-86722738D01*
X98231936Y-86530289D01*
X98353224Y-86320212D01*
X98446054Y-86096100D01*
X98508838Y-85861789D01*
X98540500Y-85621288D01*
X98540500Y-85378712D01*
X98540500Y-85378711D01*
X150449500Y-85378711D01*
X150449500Y-85621288D01*
X150481161Y-85861785D01*
X150543947Y-86096104D01*
X150636773Y-86320205D01*
X150636776Y-86320212D01*
X150758064Y-86530289D01*
X150758066Y-86530292D01*
X150758067Y-86530293D01*
X150905733Y-86722736D01*
X150905739Y-86722743D01*
X151077256Y-86894260D01*
X151077262Y-86894265D01*
X151269711Y-87041936D01*
X151479788Y-87163224D01*
X151703900Y-87256054D01*
X151938211Y-87318838D01*
X152118586Y-87342584D01*
X152178711Y-87350500D01*
X152178712Y-87350500D01*
X152421289Y-87350500D01*
X152469388Y-87344167D01*
X152661789Y-87318838D01*
X152896100Y-87256054D01*
X153120212Y-87163224D01*
X153330289Y-87041936D01*
X153522738Y-86894265D01*
X153694265Y-86722738D01*
X153841936Y-86530289D01*
X153963224Y-86320212D01*
X154056054Y-86096100D01*
X154118838Y-85861789D01*
X154150500Y-85621288D01*
X154150500Y-85378712D01*
X154118838Y-85138211D01*
X154056054Y-84903900D01*
X154047406Y-84883023D01*
X154033489Y-84849424D01*
X153963224Y-84679788D01*
X153841936Y-84469711D01*
X153718269Y-84308545D01*
X153694266Y-84277263D01*
X153694260Y-84277256D01*
X153522743Y-84105739D01*
X153522736Y-84105733D01*
X153330293Y-83958067D01*
X153330292Y-83958066D01*
X153330289Y-83958064D01*
X153121445Y-83837488D01*
X153120214Y-83836777D01*
X153120205Y-83836773D01*
X152896104Y-83743947D01*
X152661785Y-83681161D01*
X152421289Y-83649500D01*
X152421288Y-83649500D01*
X152178712Y-83649500D01*
X152178711Y-83649500D01*
X151938214Y-83681161D01*
X151703895Y-83743947D01*
X151479794Y-83836773D01*
X151479785Y-83836777D01*
X151269706Y-83958067D01*
X151077263Y-84105733D01*
X151077256Y-84105739D01*
X150905739Y-84277256D01*
X150905733Y-84277263D01*
X150758067Y-84469706D01*
X150636777Y-84679785D01*
X150636773Y-84679794D01*
X150543947Y-84903895D01*
X150481161Y-85138214D01*
X150449500Y-85378711D01*
X98540500Y-85378711D01*
X98508838Y-85138211D01*
X98446054Y-84903900D01*
X98437406Y-84883023D01*
X98423489Y-84849424D01*
X98353224Y-84679788D01*
X98231936Y-84469711D01*
X98108269Y-84308545D01*
X98084266Y-84277263D01*
X98084260Y-84277256D01*
X97912743Y-84105739D01*
X97912736Y-84105733D01*
X97720293Y-83958067D01*
X97720292Y-83958066D01*
X97720289Y-83958064D01*
X97511445Y-83837488D01*
X97510214Y-83836777D01*
X97510205Y-83836773D01*
X97286104Y-83743947D01*
X97051785Y-83681161D01*
X96811289Y-83649500D01*
X96811288Y-83649500D01*
X96568712Y-83649500D01*
X96568711Y-83649500D01*
X96328214Y-83681161D01*
X96093895Y-83743947D01*
X95869794Y-83836773D01*
X95869785Y-83836777D01*
X95659706Y-83958067D01*
X95467263Y-84105733D01*
X95467256Y-84105739D01*
X95295739Y-84277256D01*
X95295733Y-84277263D01*
X95148067Y-84469706D01*
X95026777Y-84679785D01*
X95026773Y-84679794D01*
X94933947Y-84903895D01*
X94871161Y-85138214D01*
X94839500Y-85378711D01*
X89741179Y-85378711D01*
X89731222Y-85245845D01*
X89726587Y-85225539D01*
X89674508Y-84997363D01*
X89581393Y-84760112D01*
X89453959Y-84539388D01*
X89295050Y-84340123D01*
X89108217Y-84166768D01*
X88897634Y-84023195D01*
X88897630Y-84023193D01*
X88897627Y-84023191D01*
X88897626Y-84023190D01*
X88668006Y-83912612D01*
X88668008Y-83912612D01*
X88424466Y-83837489D01*
X88424462Y-83837488D01*
X88424458Y-83837487D01*
X88303231Y-83819214D01*
X88172440Y-83799500D01*
X88172435Y-83799500D01*
X87917565Y-83799500D01*
X87917559Y-83799500D01*
X87760609Y-83823157D01*
X87665542Y-83837487D01*
X87665539Y-83837488D01*
X87665533Y-83837489D01*
X87421992Y-83912612D01*
X87192373Y-84023190D01*
X87192372Y-84023191D01*
X86981782Y-84166768D01*
X86794952Y-84340121D01*
X86794950Y-84340123D01*
X86636041Y-84539388D01*
X86508608Y-84760109D01*
X86415492Y-84997362D01*
X86415490Y-84997369D01*
X86358777Y-85245845D01*
X86339732Y-85499995D01*
X86339732Y-85500004D01*
X86358777Y-85754154D01*
X86413022Y-85991818D01*
X86415492Y-86002637D01*
X86475125Y-86154579D01*
X86508608Y-86239890D01*
X86516317Y-86253243D01*
X86636041Y-86460612D01*
X86794950Y-86659877D01*
X86981783Y-86833232D01*
X87192366Y-86976805D01*
X87192371Y-86976807D01*
X87192372Y-86976808D01*
X87192373Y-86976809D01*
X87244069Y-87001704D01*
X87421992Y-87087387D01*
X87421993Y-87087387D01*
X87421996Y-87087389D01*
X87665542Y-87162513D01*
X87917565Y-87200500D01*
X88172435Y-87200500D01*
X88424458Y-87162513D01*
X88668004Y-87087389D01*
X88668021Y-87087380D01*
X88672330Y-87085691D01*
X88672877Y-87087085D01*
X88735360Y-87076777D01*
X88799502Y-87104480D01*
X88807938Y-87112173D01*
X104910139Y-103214374D01*
X104910149Y-103214385D01*
X104914479Y-103218715D01*
X104914480Y-103218716D01*
X105026284Y-103330520D01*
X105113095Y-103380639D01*
X105113097Y-103380641D01*
X105163213Y-103409576D01*
X105163215Y-103409577D01*
X105315942Y-103450500D01*
X105315943Y-103450500D01*
X150751556Y-103450500D01*
X150818595Y-103470185D01*
X150864350Y-103522989D01*
X150874294Y-103592147D01*
X150849932Y-103649986D01*
X150758067Y-103769706D01*
X150636777Y-103979785D01*
X150636773Y-103979794D01*
X150543947Y-104203895D01*
X150481161Y-104438214D01*
X150449500Y-104678711D01*
X150449500Y-104921288D01*
X150481161Y-105161785D01*
X150543947Y-105396104D01*
X150622201Y-105585025D01*
X150636776Y-105620212D01*
X150758064Y-105830289D01*
X150758066Y-105830292D01*
X150758067Y-105830293D01*
X150905733Y-106022736D01*
X150905739Y-106022743D01*
X151077256Y-106194260D01*
X151077263Y-106194266D01*
X151084182Y-106199575D01*
X151269711Y-106341936D01*
X151479788Y-106463224D01*
X151675269Y-106544195D01*
X151697282Y-106553313D01*
X151703900Y-106556054D01*
X151938211Y-106618838D01*
X152118586Y-106642584D01*
X152178711Y-106650500D01*
X152178712Y-106650500D01*
X152421289Y-106650500D01*
X152478880Y-106642918D01*
X152661789Y-106618838D01*
X152896100Y-106556054D01*
X153120212Y-106463224D01*
X153330289Y-106341936D01*
X153522738Y-106194265D01*
X153694265Y-106022738D01*
X153841936Y-105830289D01*
X153963224Y-105620212D01*
X154056054Y-105396100D01*
X154118838Y-105161789D01*
X154150500Y-104921288D01*
X154150500Y-104678712D01*
X154118838Y-104438211D01*
X154056054Y-104203900D01*
X153963224Y-103979788D01*
X153841936Y-103769711D01*
X153750068Y-103649986D01*
X153724874Y-103584817D01*
X153738912Y-103516372D01*
X153787726Y-103466383D01*
X153848444Y-103450500D01*
X158694903Y-103450500D01*
X158761942Y-103470185D01*
X158782584Y-103486819D01*
X159336336Y-104040571D01*
X159369821Y-104101894D01*
X159364837Y-104171586D01*
X159364116Y-104173469D01*
X159315492Y-104297363D01*
X159315490Y-104297369D01*
X159315489Y-104297374D01*
X159258777Y-104545845D01*
X159239732Y-104799995D01*
X159239732Y-104800004D01*
X159258777Y-105054154D01*
X159311787Y-105286408D01*
X159315492Y-105302637D01*
X159408607Y-105539888D01*
X159536041Y-105760612D01*
X159694950Y-105959877D01*
X159881783Y-106133232D01*
X160092366Y-106276805D01*
X160092371Y-106276807D01*
X160092372Y-106276808D01*
X160092373Y-106276809D01*
X160172318Y-106315308D01*
X160321992Y-106387387D01*
X160321993Y-106387387D01*
X160321996Y-106387389D01*
X160565542Y-106462513D01*
X160817565Y-106500500D01*
X161072435Y-106500500D01*
X161324458Y-106462513D01*
X161568004Y-106387389D01*
X161764044Y-106292981D01*
X161797626Y-106276809D01*
X161797626Y-106276808D01*
X161797634Y-106276805D01*
X162008217Y-106133232D01*
X162195050Y-105959877D01*
X162353959Y-105760612D01*
X162481393Y-105539888D01*
X162574508Y-105302637D01*
X162631222Y-105054157D01*
X162649759Y-104806795D01*
X162650268Y-104800004D01*
X162650268Y-104799995D01*
X162631222Y-104545845D01*
X162626635Y-104525748D01*
X162574508Y-104297363D01*
X162530762Y-104185900D01*
X162525916Y-104173553D01*
X162519747Y-104103956D01*
X162552185Y-104042073D01*
X162553602Y-104040631D01*
X165121016Y-101473219D01*
X165182339Y-101439734D01*
X165208697Y-101436900D01*
X168457658Y-101436900D01*
X168524697Y-101456585D01*
X168570452Y-101509389D01*
X168580396Y-101578547D01*
X168551371Y-101642103D01*
X168545339Y-101648581D01*
X160464481Y-109729438D01*
X160464479Y-109729441D01*
X160425767Y-109796494D01*
X160425766Y-109796496D01*
X160385423Y-109866370D01*
X160385423Y-109866371D01*
X160344499Y-110019099D01*
X160344499Y-110019101D01*
X160344499Y-110187202D01*
X160344500Y-110187215D01*
X160344500Y-122423859D01*
X160324815Y-122490898D01*
X160274302Y-122535579D01*
X160092370Y-122623192D01*
X159881782Y-122766768D01*
X159694952Y-122940121D01*
X159694950Y-122940123D01*
X159536041Y-123139388D01*
X159408608Y-123360109D01*
X159315492Y-123597362D01*
X159315490Y-123597369D01*
X159258777Y-123845845D01*
X159239732Y-124099995D01*
X159239732Y-124100004D01*
X159258777Y-124354154D01*
X159315489Y-124602625D01*
X159315492Y-124602637D01*
X159336306Y-124655670D01*
X159364083Y-124726444D01*
X159370251Y-124796041D01*
X159337813Y-124857925D01*
X159336335Y-124859427D01*
X158777584Y-125418181D01*
X158716261Y-125451666D01*
X158689903Y-125454500D01*
X153848444Y-125454500D01*
X153781405Y-125434815D01*
X153735650Y-125382011D01*
X153725706Y-125312853D01*
X153750068Y-125255014D01*
X153752921Y-125251294D01*
X153841936Y-125135289D01*
X153963224Y-124925212D01*
X154056054Y-124701100D01*
X154118838Y-124466789D01*
X154150500Y-124226288D01*
X154150500Y-123983712D01*
X154149519Y-123976264D01*
X154132350Y-123845845D01*
X154118838Y-123743211D01*
X154056054Y-123508900D01*
X153963224Y-123284788D01*
X153841936Y-123074711D01*
X153718531Y-122913886D01*
X153694266Y-122882263D01*
X153694260Y-122882256D01*
X153522743Y-122710739D01*
X153522736Y-122710733D01*
X153330293Y-122563067D01*
X153330292Y-122563066D01*
X153330289Y-122563064D01*
X153120212Y-122441776D01*
X153120205Y-122441773D01*
X152896104Y-122348947D01*
X152661785Y-122286161D01*
X152421289Y-122254500D01*
X152421288Y-122254500D01*
X152178712Y-122254500D01*
X152178711Y-122254500D01*
X151938214Y-122286161D01*
X151703895Y-122348947D01*
X151479794Y-122441773D01*
X151479785Y-122441777D01*
X151269706Y-122563067D01*
X151077263Y-122710733D01*
X151077256Y-122710739D01*
X150905739Y-122882256D01*
X150905733Y-122882263D01*
X150758067Y-123074706D01*
X150758064Y-123074710D01*
X150758064Y-123074711D01*
X150755251Y-123079583D01*
X150636777Y-123284785D01*
X150636773Y-123284794D01*
X150543947Y-123508895D01*
X150481161Y-123743214D01*
X150449500Y-123983711D01*
X150449500Y-124226288D01*
X150481161Y-124466785D01*
X150543947Y-124701104D01*
X150608905Y-124857925D01*
X150636776Y-124925212D01*
X150758064Y-125135289D01*
X150758066Y-125135292D01*
X150758067Y-125135293D01*
X150849932Y-125255014D01*
X150875126Y-125320183D01*
X150861088Y-125388628D01*
X150812274Y-125438617D01*
X150751556Y-125454500D01*
X109600097Y-125454500D01*
X109533058Y-125434815D01*
X109512416Y-125418181D01*
X89653663Y-105559428D01*
X89620178Y-105498105D01*
X89625162Y-105428413D01*
X89625885Y-105426522D01*
X89674508Y-105302637D01*
X89731222Y-105054157D01*
X89749759Y-104806795D01*
X89750268Y-104800004D01*
X89750268Y-104799995D01*
X89741179Y-104678711D01*
X94839500Y-104678711D01*
X94839500Y-104921288D01*
X94871161Y-105161785D01*
X94933947Y-105396104D01*
X95012201Y-105585025D01*
X95026776Y-105620212D01*
X95148064Y-105830289D01*
X95148066Y-105830292D01*
X95148067Y-105830293D01*
X95295733Y-106022736D01*
X95295739Y-106022743D01*
X95467256Y-106194260D01*
X95467263Y-106194266D01*
X95474182Y-106199575D01*
X95659711Y-106341936D01*
X95869788Y-106463224D01*
X96065269Y-106544195D01*
X96087282Y-106553313D01*
X96093900Y-106556054D01*
X96328211Y-106618838D01*
X96508586Y-106642584D01*
X96568711Y-106650500D01*
X96568712Y-106650500D01*
X96811289Y-106650500D01*
X96868880Y-106642918D01*
X97051789Y-106618838D01*
X97286100Y-106556054D01*
X97510212Y-106463224D01*
X97720289Y-106341936D01*
X97912738Y-106194265D01*
X98084265Y-106022738D01*
X98231936Y-105830289D01*
X98353224Y-105620212D01*
X98446054Y-105396100D01*
X98508838Y-105161789D01*
X98540500Y-104921288D01*
X98540500Y-104678712D01*
X98508838Y-104438211D01*
X98446054Y-104203900D01*
X98353224Y-103979788D01*
X98231936Y-103769711D01*
X98167709Y-103686009D01*
X98084266Y-103577263D01*
X98084260Y-103577256D01*
X97912743Y-103405739D01*
X97912736Y-103405733D01*
X97720293Y-103258067D01*
X97720292Y-103258066D01*
X97720289Y-103258064D01*
X97511445Y-103137488D01*
X97510214Y-103136777D01*
X97510205Y-103136773D01*
X97286104Y-103043947D01*
X97051785Y-102981161D01*
X96811289Y-102949500D01*
X96811288Y-102949500D01*
X96568712Y-102949500D01*
X96568711Y-102949500D01*
X96328214Y-102981161D01*
X96093895Y-103043947D01*
X95869794Y-103136773D01*
X95869785Y-103136777D01*
X95659706Y-103258067D01*
X95467263Y-103405733D01*
X95467256Y-103405739D01*
X95295739Y-103577256D01*
X95295733Y-103577263D01*
X95148067Y-103769706D01*
X95026777Y-103979785D01*
X95026773Y-103979794D01*
X94933947Y-104203895D01*
X94871161Y-104438214D01*
X94839500Y-104678711D01*
X89741179Y-104678711D01*
X89731222Y-104545845D01*
X89726634Y-104525744D01*
X89674508Y-104297363D01*
X89581393Y-104060112D01*
X89453959Y-103839388D01*
X89295050Y-103640123D01*
X89108217Y-103466768D01*
X88897634Y-103323195D01*
X88897630Y-103323193D01*
X88897627Y-103323191D01*
X88897626Y-103323190D01*
X88668006Y-103212612D01*
X88668008Y-103212612D01*
X88424466Y-103137489D01*
X88424462Y-103137488D01*
X88424458Y-103137487D01*
X88303231Y-103119214D01*
X88172440Y-103099500D01*
X88172435Y-103099500D01*
X87917565Y-103099500D01*
X87917559Y-103099500D01*
X87760609Y-103123157D01*
X87665542Y-103137487D01*
X87665539Y-103137488D01*
X87665533Y-103137489D01*
X87421992Y-103212612D01*
X87192373Y-103323190D01*
X87192372Y-103323191D01*
X86981782Y-103466768D01*
X86794952Y-103640121D01*
X86794950Y-103640123D01*
X86636041Y-103839388D01*
X86508608Y-104060109D01*
X86415492Y-104297362D01*
X86415490Y-104297369D01*
X86358777Y-104545845D01*
X86339732Y-104799995D01*
X86339732Y-104800004D01*
X86358777Y-105054154D01*
X86411787Y-105286408D01*
X86415492Y-105302637D01*
X86508607Y-105539888D01*
X86636041Y-105760612D01*
X86794950Y-105959877D01*
X86981783Y-106133232D01*
X87192366Y-106276805D01*
X87192371Y-106276807D01*
X87192372Y-106276808D01*
X87192373Y-106276809D01*
X87272318Y-106315308D01*
X87421992Y-106387387D01*
X87421993Y-106387387D01*
X87421996Y-106387389D01*
X87665542Y-106462513D01*
X87917565Y-106500500D01*
X88172435Y-106500500D01*
X88424458Y-106462513D01*
X88668004Y-106387389D01*
X88668021Y-106387380D01*
X88672330Y-106385691D01*
X88672877Y-106387085D01*
X88735360Y-106376777D01*
X88799502Y-106404480D01*
X88807938Y-106412173D01*
X108815139Y-126419374D01*
X108815149Y-126419385D01*
X108819479Y-126423715D01*
X108819480Y-126423716D01*
X108931284Y-126535520D01*
X109018095Y-126585639D01*
X109018097Y-126585641D01*
X109068213Y-126614576D01*
X109068215Y-126614577D01*
X109220942Y-126655500D01*
X109220943Y-126655500D01*
X158903331Y-126655500D01*
X158903347Y-126655501D01*
X158910943Y-126655501D01*
X159069054Y-126655501D01*
X159069057Y-126655501D01*
X159221785Y-126614577D01*
X159271904Y-126585639D01*
X159358716Y-126535520D01*
X159470520Y-126423716D01*
X159470520Y-126423714D01*
X159480728Y-126413507D01*
X159480730Y-126413504D01*
X160182062Y-125712171D01*
X160243383Y-125678688D01*
X160313075Y-125683672D01*
X160319471Y-125686397D01*
X160321991Y-125687387D01*
X160321993Y-125687387D01*
X160321996Y-125687389D01*
X160565542Y-125762513D01*
X160817565Y-125800500D01*
X161072435Y-125800500D01*
X161324458Y-125762513D01*
X161568004Y-125687389D01*
X161797634Y-125576805D01*
X162008217Y-125433232D01*
X162195050Y-125259877D01*
X162353959Y-125060612D01*
X162481393Y-124839888D01*
X162574508Y-124602637D01*
X162631222Y-124354157D01*
X162644991Y-124170415D01*
X162650268Y-124100004D01*
X162650268Y-124099995D01*
X162631222Y-123845845D01*
X162611111Y-123757734D01*
X162574508Y-123597363D01*
X162481393Y-123360112D01*
X162353959Y-123139388D01*
X162195050Y-122940123D01*
X162008217Y-122766768D01*
X161797634Y-122623195D01*
X161797631Y-122623194D01*
X161797629Y-122623192D01*
X161615698Y-122535579D01*
X161563839Y-122488757D01*
X161545500Y-122423859D01*
X161545500Y-110398252D01*
X161565185Y-110331213D01*
X161581814Y-110310576D01*
X166547548Y-105344841D01*
X166608869Y-105311358D01*
X166678561Y-105316342D01*
X166734494Y-105358214D01*
X166752933Y-105393519D01*
X166806686Y-105555734D01*
X166898788Y-105705056D01*
X167022844Y-105829112D01*
X167066212Y-105855861D01*
X167112936Y-105907809D01*
X167124159Y-105976772D01*
X167096315Y-106040854D01*
X167066213Y-106066937D01*
X167037934Y-106084380D01*
X167022842Y-106093689D01*
X166898789Y-106217742D01*
X166806687Y-106367063D01*
X166806685Y-106367068D01*
X166794288Y-106404480D01*
X166751501Y-106533603D01*
X166751501Y-106533604D01*
X166751500Y-106533604D01*
X166741000Y-106636383D01*
X166741000Y-106672197D01*
X166734931Y-106710515D01*
X166686640Y-106859141D01*
X166657485Y-107043216D01*
X166657485Y-112879583D01*
X166686640Y-113063660D01*
X166744227Y-113240898D01*
X166744229Y-113240904D01*
X166828842Y-113406962D01*
X166938378Y-113557727D01*
X166938382Y-113557732D01*
X167071166Y-113690516D01*
X167104651Y-113751839D01*
X167107485Y-113778197D01*
X167107485Y-117779583D01*
X167136640Y-117963660D01*
X167194227Y-118140898D01*
X167194229Y-118140904D01*
X167272197Y-118293921D01*
X167278840Y-118306959D01*
X167283801Y-118313788D01*
X167307283Y-118379592D01*
X167307485Y-118386674D01*
X167307485Y-122429583D01*
X167336640Y-122613660D01*
X167394227Y-122790898D01*
X167394229Y-122790904D01*
X167440780Y-122882263D01*
X167458842Y-122917712D01*
X167478842Y-122956962D01*
X167588378Y-123107727D01*
X167588382Y-123107732D01*
X168370167Y-123889517D01*
X168370172Y-123889521D01*
X168482611Y-123971212D01*
X168520941Y-123999060D01*
X168595202Y-124036898D01*
X168686995Y-124083670D01*
X168687001Y-124083672D01*
X168864240Y-124141259D01*
X168864243Y-124141260D01*
X169048316Y-124170415D01*
X169048317Y-124170415D01*
X169234683Y-124170415D01*
X169234684Y-124170415D01*
X169418757Y-124141260D01*
X169596004Y-124083670D01*
X169762059Y-123999060D01*
X169912834Y-123889516D01*
X170044616Y-123757734D01*
X170154160Y-123606959D01*
X170238770Y-123440904D01*
X170296360Y-123263657D01*
X170325515Y-123079584D01*
X170325515Y-122893216D01*
X170296360Y-122709143D01*
X170296359Y-122709139D01*
X170238772Y-122531901D01*
X170238770Y-122531895D01*
X170209469Y-122474391D01*
X170154160Y-122365841D01*
X170096270Y-122286162D01*
X170044621Y-122215072D01*
X170044617Y-122215067D01*
X169711834Y-121882284D01*
X169678349Y-121820961D01*
X169675515Y-121794603D01*
X169675515Y-119096222D01*
X169695200Y-119029183D01*
X169748004Y-118983428D01*
X169817162Y-118973484D01*
X169822266Y-118974327D01*
X169889524Y-118986900D01*
X169889526Y-118986900D01*
X170093474Y-118986900D01*
X170093476Y-118986900D01*
X170293956Y-118949424D01*
X170484137Y-118875748D01*
X170657541Y-118768381D01*
X170808264Y-118630979D01*
X170931173Y-118468221D01*
X171022082Y-118285650D01*
X171077897Y-118089483D01*
X171096715Y-117886400D01*
X171077897Y-117683317D01*
X171022082Y-117487150D01*
X171021011Y-117485000D01*
X170953766Y-117349953D01*
X170931173Y-117304579D01*
X170842520Y-117187183D01*
X170808262Y-117141818D01*
X170657541Y-117004419D01*
X170657539Y-117004417D01*
X170484142Y-116897055D01*
X170484135Y-116897051D01*
X170338690Y-116840706D01*
X170293956Y-116823376D01*
X170093476Y-116785900D01*
X169889524Y-116785900D01*
X169739966Y-116813857D01*
X169689038Y-116823377D01*
X169644308Y-116840706D01*
X169574685Y-116846567D01*
X169512945Y-116813857D01*
X169478690Y-116752961D01*
X169475515Y-116725079D01*
X169475515Y-112746222D01*
X169495200Y-112679183D01*
X169548004Y-112633428D01*
X169617162Y-112623484D01*
X169622266Y-112624327D01*
X169689524Y-112636900D01*
X169689526Y-112636900D01*
X169893474Y-112636900D01*
X169893476Y-112636900D01*
X170093956Y-112599424D01*
X170284137Y-112525748D01*
X170457541Y-112418381D01*
X170608264Y-112280979D01*
X170731173Y-112118221D01*
X170822082Y-111935650D01*
X170877897Y-111739483D01*
X170896715Y-111536400D01*
X170877897Y-111333317D01*
X170822082Y-111137150D01*
X170785268Y-111063218D01*
X170763993Y-111020491D01*
X170731173Y-110954579D01*
X170608264Y-110791821D01*
X170608262Y-110791818D01*
X170457542Y-110654420D01*
X170457541Y-110654419D01*
X170450721Y-110650196D01*
X170404087Y-110598169D01*
X170392000Y-110544770D01*
X170392000Y-109098996D01*
X170411685Y-109031957D01*
X170428314Y-109011320D01*
X172641416Y-106798217D01*
X172702739Y-106764733D01*
X172729097Y-106761899D01*
X173329650Y-106761899D01*
X173329662Y-106761899D01*
X173365127Y-106759109D01*
X173516890Y-106715018D01*
X173652920Y-106634570D01*
X173723750Y-106563739D01*
X173785071Y-106530256D01*
X173854763Y-106535240D01*
X173899111Y-106563741D01*
X173961673Y-106626303D01*
X173995158Y-106687626D01*
X173997212Y-106700099D01*
X174006130Y-106779249D01*
X174065710Y-106949521D01*
X174150249Y-107084064D01*
X174161684Y-107102262D01*
X174289238Y-107229816D01*
X174441978Y-107325789D01*
X174612245Y-107385368D01*
X174612250Y-107385369D01*
X174791496Y-107405565D01*
X174791500Y-107405565D01*
X174791504Y-107405565D01*
X174970749Y-107385369D01*
X174970752Y-107385368D01*
X174970755Y-107385368D01*
X175141022Y-107325789D01*
X175293762Y-107229816D01*
X175421316Y-107102262D01*
X175517289Y-106949522D01*
X175576868Y-106779255D01*
X175580273Y-106749025D01*
X175607339Y-106684613D01*
X175664933Y-106645057D01*
X175734770Y-106642918D01*
X175766615Y-106656177D01*
X175793704Y-106672197D01*
X175866110Y-106715018D01*
X176017873Y-106759109D01*
X176053337Y-106761900D01*
X176653902Y-106761899D01*
X176720941Y-106781583D01*
X176741583Y-106798218D01*
X176963181Y-107019816D01*
X176996666Y-107081139D01*
X176999500Y-107107497D01*
X176999500Y-110092596D01*
X176979815Y-110159635D01*
X176927011Y-110205390D01*
X176862248Y-110215886D01*
X176853587Y-110214955D01*
X176834473Y-110212900D01*
X176834468Y-110212900D01*
X175265529Y-110212900D01*
X175265523Y-110212901D01*
X175205916Y-110219308D01*
X175071071Y-110269602D01*
X175071064Y-110269606D01*
X174955855Y-110355852D01*
X174955852Y-110355855D01*
X174869606Y-110471064D01*
X174869602Y-110471071D01*
X174819308Y-110605917D01*
X174812901Y-110665516D01*
X174812900Y-110665535D01*
X174812900Y-112234470D01*
X174812901Y-112234476D01*
X174819308Y-112294083D01*
X174869602Y-112428928D01*
X174869606Y-112428935D01*
X174955852Y-112544144D01*
X174955855Y-112544147D01*
X175071064Y-112630393D01*
X175071071Y-112630397D01*
X175205917Y-112680691D01*
X175205916Y-112680691D01*
X175212844Y-112681435D01*
X175265527Y-112687100D01*
X176834472Y-112687099D01*
X176862246Y-112684113D01*
X176931005Y-112696519D01*
X176982142Y-112744130D01*
X176999500Y-112807403D01*
X176999500Y-112849902D01*
X176979815Y-112916941D01*
X176963181Y-112937583D01*
X176323481Y-113577282D01*
X176323479Y-113577285D01*
X176273361Y-113664094D01*
X176273359Y-113664096D01*
X176244425Y-113714209D01*
X176244424Y-113714210D01*
X176228544Y-113773472D01*
X176203499Y-113866943D01*
X176203499Y-113866945D01*
X176203499Y-114035046D01*
X176203500Y-114035059D01*
X176203500Y-115877481D01*
X176183815Y-115944520D01*
X176131011Y-115990275D01*
X176068694Y-116001009D01*
X176050004Y-115999374D01*
X176049998Y-115999374D01*
X175834364Y-116018239D01*
X175834353Y-116018241D01*
X175625277Y-116074262D01*
X175625268Y-116074266D01*
X175429089Y-116165745D01*
X175332305Y-116233514D01*
X175251770Y-116289906D01*
X175251768Y-116289907D01*
X175251765Y-116289910D01*
X175098710Y-116442965D01*
X174974545Y-116620289D01*
X174925681Y-116725079D01*
X174884284Y-116813857D01*
X174883066Y-116816468D01*
X174883062Y-116816477D01*
X174827041Y-117025553D01*
X174827039Y-117025564D01*
X174808174Y-117241198D01*
X174808174Y-117241201D01*
X174827039Y-117456835D01*
X174827041Y-117456846D01*
X174883062Y-117665922D01*
X174883064Y-117665926D01*
X174883065Y-117665930D01*
X174897678Y-117697267D01*
X174974545Y-117862110D01*
X174974546Y-117862112D01*
X174974547Y-117862113D01*
X175098706Y-118039430D01*
X175251770Y-118192494D01*
X175396626Y-118293923D01*
X175440248Y-118348498D01*
X175449500Y-118395496D01*
X175449500Y-118847803D01*
X175429815Y-118914842D01*
X175413181Y-118935484D01*
X174422784Y-119925881D01*
X172443190Y-121905473D01*
X172381867Y-121938958D01*
X172342908Y-121941150D01*
X172291512Y-121935900D01*
X171591498Y-121935900D01*
X171591480Y-121935901D01*
X171488703Y-121946400D01*
X171488700Y-121946401D01*
X171322168Y-122001585D01*
X171322163Y-122001587D01*
X171172842Y-122093689D01*
X171048789Y-122217742D01*
X170956687Y-122367063D01*
X170956685Y-122367068D01*
X170931929Y-122441777D01*
X170901501Y-122533603D01*
X170901501Y-122533604D01*
X170901500Y-122533604D01*
X170891000Y-122636383D01*
X170891000Y-123336401D01*
X170891001Y-123336419D01*
X170901500Y-123439196D01*
X170901501Y-123439199D01*
X170956685Y-123605731D01*
X170956687Y-123605736D01*
X170957443Y-123606962D01*
X171048788Y-123755056D01*
X171172844Y-123879112D01*
X171322166Y-123971214D01*
X171488703Y-124026399D01*
X171591491Y-124036900D01*
X172291508Y-124036899D01*
X172291516Y-124036898D01*
X172291519Y-124036898D01*
X172347802Y-124031148D01*
X172394297Y-124026399D01*
X172560834Y-123971214D01*
X172710156Y-123879112D01*
X172834212Y-123755056D01*
X172926314Y-123605734D01*
X172981499Y-123439197D01*
X172992000Y-123336409D01*
X172991999Y-123106496D01*
X173011683Y-123039457D01*
X173028313Y-123018820D01*
X175272019Y-120775116D01*
X175904469Y-120142666D01*
X176408506Y-119638627D01*
X176408511Y-119638624D01*
X176418714Y-119628420D01*
X176418716Y-119628420D01*
X176530520Y-119516616D01*
X176530520Y-119516614D01*
X176540724Y-119506411D01*
X176540728Y-119506406D01*
X177162506Y-118884628D01*
X177162511Y-118884624D01*
X177172714Y-118874420D01*
X177172716Y-118874420D01*
X177284520Y-118762616D01*
X177363577Y-118625684D01*
X177404500Y-118472957D01*
X177404500Y-118349998D01*
X181194532Y-118349998D01*
X181194532Y-118350001D01*
X181214364Y-118576686D01*
X181214366Y-118576697D01*
X181273258Y-118796488D01*
X181273261Y-118796497D01*
X181369431Y-119002732D01*
X181369432Y-119002734D01*
X181499954Y-119189141D01*
X181573132Y-119262319D01*
X181606617Y-119323642D01*
X181601633Y-119393334D01*
X181573132Y-119437681D01*
X181499954Y-119510858D01*
X181369432Y-119697265D01*
X181369431Y-119697267D01*
X181273261Y-119903502D01*
X181273258Y-119903511D01*
X181214366Y-120123302D01*
X181214364Y-120123313D01*
X181194532Y-120349998D01*
X181194532Y-120350001D01*
X181214364Y-120576686D01*
X181214366Y-120576697D01*
X181273258Y-120796488D01*
X181273261Y-120796497D01*
X181369431Y-121002732D01*
X181369432Y-121002734D01*
X181499954Y-121189141D01*
X181660858Y-121350045D01*
X181660861Y-121350047D01*
X181847266Y-121480568D01*
X182053504Y-121576739D01*
X182273308Y-121635635D01*
X182435230Y-121649801D01*
X182499998Y-121655468D01*
X182500000Y-121655468D01*
X182500002Y-121655468D01*
X182556673Y-121650509D01*
X182726692Y-121635635D01*
X182946496Y-121576739D01*
X183152734Y-121480568D01*
X183339139Y-121350047D01*
X183500047Y-121189139D01*
X183630568Y-121002734D01*
X183726739Y-120796496D01*
X183785635Y-120576692D01*
X183805468Y-120350000D01*
X183785635Y-120123308D01*
X183726739Y-119903504D01*
X183630568Y-119697266D01*
X183500047Y-119510861D01*
X183426865Y-119437679D01*
X183393382Y-119376359D01*
X183398366Y-119306667D01*
X183426865Y-119262320D01*
X183500047Y-119189139D01*
X183630568Y-119002734D01*
X183726739Y-118796496D01*
X183785635Y-118576692D01*
X183805468Y-118350000D01*
X183785635Y-118123308D01*
X183727318Y-117905666D01*
X183726741Y-117903511D01*
X183726738Y-117903502D01*
X183707438Y-117862113D01*
X183630568Y-117697266D01*
X183500047Y-117510861D01*
X183500045Y-117510858D01*
X183339141Y-117349954D01*
X183152734Y-117219432D01*
X183152732Y-117219431D01*
X182946497Y-117123261D01*
X182946488Y-117123258D01*
X182726697Y-117064366D01*
X182726693Y-117064365D01*
X182726692Y-117064365D01*
X182726691Y-117064364D01*
X182726686Y-117064364D01*
X182500002Y-117044532D01*
X182499998Y-117044532D01*
X182273313Y-117064364D01*
X182273302Y-117064366D01*
X182053511Y-117123258D01*
X182053502Y-117123261D01*
X181847267Y-117219431D01*
X181847265Y-117219432D01*
X181660858Y-117349954D01*
X181499954Y-117510858D01*
X181369432Y-117697265D01*
X181369431Y-117697267D01*
X181273261Y-117903502D01*
X181273258Y-117903511D01*
X181214366Y-118123302D01*
X181214364Y-118123313D01*
X181194532Y-118349998D01*
X177404500Y-118349998D01*
X177404500Y-114246096D01*
X177424185Y-114179057D01*
X177440815Y-114158419D01*
X177553240Y-114045994D01*
X183597859Y-114045994D01*
X183597859Y-114046005D01*
X183618385Y-114293729D01*
X183618387Y-114293738D01*
X183679412Y-114534717D01*
X183779266Y-114762364D01*
X183879564Y-114915882D01*
X184620037Y-114175409D01*
X184637075Y-114238993D01*
X184702901Y-114353007D01*
X184795993Y-114446099D01*
X184910007Y-114511925D01*
X184973590Y-114528962D01*
X184232942Y-115269609D01*
X184279768Y-115306055D01*
X184279770Y-115306056D01*
X184498385Y-115424364D01*
X184498396Y-115424369D01*
X184733506Y-115505083D01*
X184978707Y-115546000D01*
X185227293Y-115546000D01*
X185472493Y-115505083D01*
X185707603Y-115424369D01*
X185707614Y-115424364D01*
X185926228Y-115306057D01*
X185926231Y-115306055D01*
X185973056Y-115269609D01*
X185232409Y-114528962D01*
X185295993Y-114511925D01*
X185410007Y-114446099D01*
X185503099Y-114353007D01*
X185568925Y-114238993D01*
X185585962Y-114175409D01*
X186326434Y-114915882D01*
X186426731Y-114762369D01*
X186526587Y-114534717D01*
X186587612Y-114293738D01*
X186587614Y-114293729D01*
X186608141Y-114046005D01*
X186608141Y-114045994D01*
X186587614Y-113798270D01*
X186587612Y-113798261D01*
X186526587Y-113557282D01*
X186426731Y-113329630D01*
X186326434Y-113176116D01*
X185585962Y-113916589D01*
X185568925Y-113853007D01*
X185503099Y-113738993D01*
X185410007Y-113645901D01*
X185295993Y-113580075D01*
X185232410Y-113563037D01*
X185973057Y-112822390D01*
X185973056Y-112822389D01*
X185926229Y-112785943D01*
X185707614Y-112667635D01*
X185707603Y-112667630D01*
X185472493Y-112586916D01*
X185227293Y-112546000D01*
X184978707Y-112546000D01*
X184733506Y-112586916D01*
X184498396Y-112667630D01*
X184498390Y-112667632D01*
X184279761Y-112785949D01*
X184232942Y-112822388D01*
X184232942Y-112822390D01*
X184973590Y-113563037D01*
X184910007Y-113580075D01*
X184795993Y-113645901D01*
X184702901Y-113738993D01*
X184637075Y-113853007D01*
X184620037Y-113916589D01*
X183879564Y-113176116D01*
X183779267Y-113329632D01*
X183679412Y-113557282D01*
X183618387Y-113798261D01*
X183618385Y-113798270D01*
X183597859Y-114045994D01*
X177553240Y-114045994D01*
X177968713Y-113630521D01*
X177968716Y-113630520D01*
X178080520Y-113518716D01*
X178130639Y-113431904D01*
X178159577Y-113381785D01*
X178200501Y-113229057D01*
X178200501Y-113070943D01*
X178200501Y-113063348D01*
X178200500Y-113063330D01*
X178200500Y-106896459D01*
X178200501Y-106896446D01*
X178200501Y-106728345D01*
X178200501Y-106728343D01*
X178159577Y-106575615D01*
X178116209Y-106500500D01*
X178090014Y-106455129D01*
X178073542Y-106387231D01*
X178078325Y-106358540D01*
X178114209Y-106235027D01*
X178117000Y-106199563D01*
X178117000Y-106085900D01*
X178136685Y-106018861D01*
X178189489Y-105973106D01*
X178241000Y-105961900D01*
X179066403Y-105961900D01*
X179133442Y-105981585D01*
X179154084Y-105998219D01*
X180752512Y-107596648D01*
X180784605Y-107652233D01*
X180823261Y-107796496D01*
X180823263Y-107796500D01*
X180919431Y-108002732D01*
X180919432Y-108002734D01*
X181049954Y-108189141D01*
X181123132Y-108262319D01*
X181156617Y-108323642D01*
X181151633Y-108393334D01*
X181123132Y-108437681D01*
X181049954Y-108510858D01*
X180919432Y-108697265D01*
X180919431Y-108697267D01*
X180823261Y-108903502D01*
X180823258Y-108903511D01*
X180764366Y-109123302D01*
X180764364Y-109123313D01*
X180744532Y-109349998D01*
X180744532Y-109350001D01*
X180764364Y-109576686D01*
X180764366Y-109576697D01*
X180823258Y-109796488D01*
X180823261Y-109796496D01*
X180919431Y-110002732D01*
X180919432Y-110002734D01*
X181049954Y-110189141D01*
X181210858Y-110350045D01*
X181210861Y-110350047D01*
X181397266Y-110480568D01*
X181603504Y-110576739D01*
X181823308Y-110635635D01*
X181985230Y-110649801D01*
X182049998Y-110655468D01*
X182050000Y-110655468D01*
X182050002Y-110655468D01*
X182110248Y-110650197D01*
X182276692Y-110635635D01*
X182496496Y-110576739D01*
X182702734Y-110480568D01*
X182889139Y-110350047D01*
X183002789Y-110236397D01*
X192886534Y-110236397D01*
X192886534Y-110236402D01*
X192906358Y-110462999D01*
X192906360Y-110463010D01*
X192965230Y-110682717D01*
X192965235Y-110682731D01*
X193061363Y-110888878D01*
X193112474Y-110961872D01*
X193791500Y-110282846D01*
X193791500Y-110289061D01*
X193818759Y-110390794D01*
X193871420Y-110482006D01*
X193945894Y-110556480D01*
X194037106Y-110609141D01*
X194138839Y-110636400D01*
X194145053Y-110636400D01*
X193466026Y-111315425D01*
X193539013Y-111366532D01*
X193539021Y-111366536D01*
X193745168Y-111462664D01*
X193745182Y-111462669D01*
X193964889Y-111521539D01*
X193964900Y-111521541D01*
X194191498Y-111541366D01*
X194191502Y-111541366D01*
X194418099Y-111521541D01*
X194418110Y-111521539D01*
X194637817Y-111462669D01*
X194637831Y-111462664D01*
X194843978Y-111366536D01*
X194916971Y-111315424D01*
X194237947Y-110636400D01*
X194244161Y-110636400D01*
X194345894Y-110609141D01*
X194437106Y-110556480D01*
X194511580Y-110482006D01*
X194564241Y-110390794D01*
X194591500Y-110289061D01*
X194591500Y-110282847D01*
X195270524Y-110961871D01*
X195321636Y-110888878D01*
X195417764Y-110682731D01*
X195417769Y-110682717D01*
X195476639Y-110463010D01*
X195476641Y-110462999D01*
X195496466Y-110236402D01*
X195496466Y-110236398D01*
X197886032Y-110236398D01*
X197886032Y-110236401D01*
X197905864Y-110463086D01*
X197905866Y-110463097D01*
X197964758Y-110682888D01*
X197964761Y-110682897D01*
X198060931Y-110889132D01*
X198060932Y-110889134D01*
X198191454Y-111075541D01*
X198352358Y-111236445D01*
X198352361Y-111236447D01*
X198538766Y-111366968D01*
X198745004Y-111463139D01*
X198964808Y-111522035D01*
X199126730Y-111536201D01*
X199191498Y-111541868D01*
X199191500Y-111541868D01*
X199191502Y-111541868D01*
X199254011Y-111536399D01*
X199418192Y-111522035D01*
X199637996Y-111463139D01*
X199844234Y-111366968D01*
X200030639Y-111236447D01*
X200191547Y-111075539D01*
X200322068Y-110889134D01*
X200418239Y-110682896D01*
X200477135Y-110463092D01*
X200494134Y-110268784D01*
X200496968Y-110236401D01*
X200496968Y-110236398D01*
X200483460Y-110082006D01*
X200477135Y-110009708D01*
X200418239Y-109789904D01*
X200322068Y-109583666D01*
X200191547Y-109397261D01*
X200191545Y-109397258D01*
X200030641Y-109236354D01*
X199844234Y-109105832D01*
X199844232Y-109105831D01*
X199637997Y-109009661D01*
X199637988Y-109009658D01*
X199418197Y-108950766D01*
X199418193Y-108950765D01*
X199418192Y-108950765D01*
X199418191Y-108950764D01*
X199418186Y-108950764D01*
X199191502Y-108930932D01*
X199191498Y-108930932D01*
X198964813Y-108950764D01*
X198964802Y-108950766D01*
X198745011Y-109009658D01*
X198745002Y-109009661D01*
X198538767Y-109105831D01*
X198538765Y-109105832D01*
X198352358Y-109236354D01*
X198191454Y-109397258D01*
X198060932Y-109583665D01*
X198060931Y-109583667D01*
X197964761Y-109789902D01*
X197964758Y-109789911D01*
X197905866Y-110009702D01*
X197905864Y-110009713D01*
X197886032Y-110236398D01*
X195496466Y-110236398D01*
X195496466Y-110236397D01*
X195476641Y-110009800D01*
X195476639Y-110009789D01*
X195417769Y-109790082D01*
X195417764Y-109790068D01*
X195321636Y-109583921D01*
X195321632Y-109583913D01*
X195270525Y-109510926D01*
X194591500Y-110189951D01*
X194591500Y-110183739D01*
X194564241Y-110082006D01*
X194511580Y-109990794D01*
X194437106Y-109916320D01*
X194345894Y-109863659D01*
X194244161Y-109836400D01*
X194237948Y-109836400D01*
X194916972Y-109157374D01*
X194843978Y-109106263D01*
X194637831Y-109010135D01*
X194637817Y-109010130D01*
X194418110Y-108951260D01*
X194418099Y-108951258D01*
X194191502Y-108931434D01*
X194191498Y-108931434D01*
X193964900Y-108951258D01*
X193964889Y-108951260D01*
X193745182Y-109010130D01*
X193745173Y-109010134D01*
X193539016Y-109106266D01*
X193539012Y-109106268D01*
X193466026Y-109157373D01*
X193466026Y-109157374D01*
X194145053Y-109836400D01*
X194138839Y-109836400D01*
X194037106Y-109863659D01*
X193945894Y-109916320D01*
X193871420Y-109990794D01*
X193818759Y-110082006D01*
X193791500Y-110183739D01*
X193791500Y-110189952D01*
X193112474Y-109510926D01*
X193112473Y-109510926D01*
X193061368Y-109583912D01*
X193061366Y-109583916D01*
X192965234Y-109790073D01*
X192965230Y-109790082D01*
X192906360Y-110009789D01*
X192906358Y-110009800D01*
X192886534Y-110236397D01*
X183002789Y-110236397D01*
X183050047Y-110189139D01*
X183180568Y-110002734D01*
X183276739Y-109796496D01*
X183335635Y-109576692D01*
X183355468Y-109350000D01*
X183335635Y-109123308D01*
X183276739Y-108903504D01*
X183180568Y-108697266D01*
X183050047Y-108510861D01*
X183050045Y-108510858D01*
X182987768Y-108448581D01*
X182954283Y-108387258D01*
X182959267Y-108317566D01*
X183001139Y-108261633D01*
X183066603Y-108237216D01*
X183075449Y-108236900D01*
X188354831Y-108236900D01*
X188354847Y-108236901D01*
X188362443Y-108236901D01*
X188520554Y-108236901D01*
X188520557Y-108236901D01*
X188673285Y-108195977D01*
X188686920Y-108188104D01*
X188723591Y-108166933D01*
X188723602Y-108166925D01*
X188723614Y-108166919D01*
X188810216Y-108116920D01*
X188922020Y-108005116D01*
X188922020Y-108005114D01*
X188932224Y-107994911D01*
X188932227Y-107994906D01*
X192803916Y-104123219D01*
X192865239Y-104089734D01*
X192891597Y-104086900D01*
X194154188Y-104086900D01*
X194221227Y-104106585D01*
X194253142Y-104136173D01*
X194324737Y-104230981D01*
X194475458Y-104368380D01*
X194475460Y-104368382D01*
X194560427Y-104420991D01*
X194648863Y-104475748D01*
X194839044Y-104549424D01*
X195039524Y-104586900D01*
X195039526Y-104586900D01*
X195243474Y-104586900D01*
X195243476Y-104586900D01*
X195443956Y-104549424D01*
X195634137Y-104475748D01*
X195807541Y-104368381D01*
X195958264Y-104230979D01*
X196081173Y-104068221D01*
X196172082Y-103885650D01*
X196227897Y-103689483D01*
X196246715Y-103486400D01*
X196245212Y-103470185D01*
X196227897Y-103283317D01*
X196210796Y-103223215D01*
X196172082Y-103087150D01*
X196156511Y-103055880D01*
X196125711Y-102994023D01*
X196081173Y-102904579D01*
X196010600Y-102811125D01*
X195985909Y-102745766D01*
X196000474Y-102677431D01*
X196010598Y-102661676D01*
X196081173Y-102568221D01*
X196172082Y-102385650D01*
X196227897Y-102189483D01*
X196246715Y-101986400D01*
X196234738Y-101857150D01*
X196227897Y-101783317D01*
X196201099Y-101689134D01*
X196172082Y-101587150D01*
X196167798Y-101578547D01*
X196097267Y-101436900D01*
X196081173Y-101404579D01*
X195958264Y-101241821D01*
X195958262Y-101241818D01*
X195807541Y-101104419D01*
X195807539Y-101104417D01*
X195634142Y-100997055D01*
X195634135Y-100997051D01*
X195476284Y-100935900D01*
X195443956Y-100923376D01*
X195243476Y-100885900D01*
X195039524Y-100885900D01*
X194839044Y-100923376D01*
X194839041Y-100923376D01*
X194839041Y-100923377D01*
X194648864Y-100997051D01*
X194648857Y-100997055D01*
X194475460Y-101104417D01*
X194475458Y-101104419D01*
X194324737Y-101241818D01*
X194201827Y-101404578D01*
X194110922Y-101587139D01*
X194110917Y-101587152D01*
X194055102Y-101783317D01*
X194036285Y-101986399D01*
X194036285Y-101986400D01*
X194055102Y-102189482D01*
X194110917Y-102385647D01*
X194110922Y-102385660D01*
X194201828Y-102568224D01*
X194272398Y-102661674D01*
X194297090Y-102727035D01*
X194282525Y-102795370D01*
X194272399Y-102811125D01*
X194253143Y-102836625D01*
X194197035Y-102878262D01*
X194154188Y-102885900D01*
X192512442Y-102885900D01*
X192359714Y-102926823D01*
X192320438Y-102949500D01*
X192320437Y-102949500D01*
X192222787Y-103005877D01*
X192222782Y-103005881D01*
X192110978Y-103117686D01*
X188229084Y-106999581D01*
X188167761Y-107033066D01*
X188141403Y-107035900D01*
X183407363Y-107035900D01*
X183340324Y-107016215D01*
X183294569Y-106963411D01*
X183287588Y-106943993D01*
X183276741Y-106903511D01*
X183276738Y-106903502D01*
X183243540Y-106832309D01*
X183180568Y-106697266D01*
X183050047Y-106510861D01*
X183050045Y-106510858D01*
X182889141Y-106349954D01*
X182702734Y-106219432D01*
X182702732Y-106219431D01*
X182496497Y-106123261D01*
X182496488Y-106123258D01*
X182276697Y-106064366D01*
X182276693Y-106064365D01*
X182276692Y-106064365D01*
X182276691Y-106064364D01*
X182276686Y-106064364D01*
X182050002Y-106044532D01*
X182049998Y-106044532D01*
X181823313Y-106064364D01*
X181823302Y-106064366D01*
X181603511Y-106123258D01*
X181603502Y-106123261D01*
X181397267Y-106219431D01*
X181397265Y-106219432D01*
X181292226Y-106292981D01*
X181226019Y-106315308D01*
X181158252Y-106298297D01*
X181133422Y-106279087D01*
X179854090Y-104999755D01*
X179854088Y-104999752D01*
X179735217Y-104880881D01*
X179735216Y-104880880D01*
X179648404Y-104830760D01*
X179648404Y-104830759D01*
X179648400Y-104830758D01*
X179598285Y-104801823D01*
X179445557Y-104760899D01*
X179287443Y-104760899D01*
X179279847Y-104760899D01*
X179279831Y-104760900D01*
X178240999Y-104760900D01*
X178173960Y-104741215D01*
X178128205Y-104688411D01*
X178116999Y-104636900D01*
X178116999Y-104523248D01*
X178116998Y-104523224D01*
X178114209Y-104487779D01*
X178114209Y-104487773D01*
X178094808Y-104420995D01*
X178094808Y-104351804D01*
X178114209Y-104285027D01*
X178116873Y-104251172D01*
X178141756Y-104185884D01*
X178197986Y-104144412D01*
X178240491Y-104136900D01*
X186304188Y-104136900D01*
X186371227Y-104156585D01*
X186403142Y-104186173D01*
X186474737Y-104280981D01*
X186625458Y-104418380D01*
X186625460Y-104418382D01*
X186657490Y-104438214D01*
X186798863Y-104525748D01*
X186989044Y-104599424D01*
X187189524Y-104636900D01*
X187189526Y-104636900D01*
X187393474Y-104636900D01*
X187393476Y-104636900D01*
X187593956Y-104599424D01*
X187784137Y-104525748D01*
X187957541Y-104418381D01*
X188090298Y-104297357D01*
X188108262Y-104280981D01*
X188131979Y-104249575D01*
X188231173Y-104118221D01*
X188322082Y-103935650D01*
X188377897Y-103739483D01*
X188396715Y-103536400D01*
X188377897Y-103333317D01*
X188322082Y-103137150D01*
X188321896Y-103136777D01*
X188256718Y-103005881D01*
X188231173Y-102954579D01*
X188160600Y-102861125D01*
X188135909Y-102795766D01*
X188150474Y-102727431D01*
X188160598Y-102711676D01*
X188231173Y-102618221D01*
X188322082Y-102435650D01*
X188377897Y-102239483D01*
X188396715Y-102036400D01*
X188377897Y-101833317D01*
X188322082Y-101637150D01*
X188316964Y-101626872D01*
X188258465Y-101509389D01*
X188231173Y-101454579D01*
X188108264Y-101291821D01*
X188108262Y-101291818D01*
X187957541Y-101154419D01*
X187957539Y-101154417D01*
X187784142Y-101047055D01*
X187784135Y-101047051D01*
X187655071Y-100997052D01*
X187593956Y-100973376D01*
X187393476Y-100935900D01*
X187189524Y-100935900D01*
X186989044Y-100973376D01*
X186989041Y-100973376D01*
X186989041Y-100973377D01*
X186798864Y-101047051D01*
X186798857Y-101047055D01*
X186625460Y-101154417D01*
X186625458Y-101154419D01*
X186474737Y-101291818D01*
X186351827Y-101454578D01*
X186260922Y-101637139D01*
X186260917Y-101637152D01*
X186205102Y-101833317D01*
X186186285Y-102036399D01*
X186186285Y-102036400D01*
X186205102Y-102239482D01*
X186260917Y-102435647D01*
X186260922Y-102435660D01*
X186351828Y-102618224D01*
X186422398Y-102711674D01*
X186447090Y-102777035D01*
X186432525Y-102845370D01*
X186422399Y-102861125D01*
X186403143Y-102886625D01*
X186347035Y-102928262D01*
X186304188Y-102935900D01*
X177408057Y-102935900D01*
X177249943Y-102935900D01*
X177097215Y-102976823D01*
X177097214Y-102976823D01*
X177097212Y-102976824D01*
X177097209Y-102976825D01*
X177047096Y-103005759D01*
X177047095Y-103005760D01*
X177030625Y-103015269D01*
X176960285Y-103055879D01*
X176960282Y-103055881D01*
X176898480Y-103117684D01*
X176848480Y-103167684D01*
X176848478Y-103167686D01*
X176794853Y-103221311D01*
X176741582Y-103274582D01*
X176680259Y-103308066D01*
X176653901Y-103310900D01*
X176053349Y-103310900D01*
X176053324Y-103310901D01*
X176017872Y-103313691D01*
X175866114Y-103357780D01*
X175866109Y-103357782D01*
X175730083Y-103438227D01*
X175730074Y-103438234D01*
X175618334Y-103549974D01*
X175618327Y-103549983D01*
X175537882Y-103686009D01*
X175537880Y-103686014D01*
X175493792Y-103837766D01*
X175493790Y-103837779D01*
X175491000Y-103873229D01*
X175491000Y-104249550D01*
X175491001Y-104249575D01*
X175493790Y-104285025D01*
X175493791Y-104285027D01*
X175513191Y-104351807D01*
X175513191Y-104420991D01*
X175493792Y-104487766D01*
X175493790Y-104487779D01*
X175491000Y-104523229D01*
X175491000Y-104899550D01*
X175491001Y-104899575D01*
X175494288Y-104941344D01*
X175492918Y-104941451D01*
X175486342Y-105003834D01*
X175459364Y-105044299D01*
X174856433Y-105647230D01*
X174795110Y-105680715D01*
X174725418Y-105675731D01*
X174681071Y-105647230D01*
X174033596Y-104999755D01*
X174033594Y-104999752D01*
X173928318Y-104894476D01*
X173894833Y-104833153D01*
X173891999Y-104806795D01*
X173891999Y-104523249D01*
X173891998Y-104523224D01*
X173889209Y-104487779D01*
X173889209Y-104487773D01*
X173869808Y-104420995D01*
X173869808Y-104351804D01*
X173889209Y-104285027D01*
X173892000Y-104249563D01*
X173891999Y-103873238D01*
X173889209Y-103837773D01*
X173845118Y-103686010D01*
X173764670Y-103549980D01*
X173764668Y-103549978D01*
X173764665Y-103549974D01*
X173652925Y-103438234D01*
X173652916Y-103438227D01*
X173516890Y-103357782D01*
X173516885Y-103357780D01*
X173365133Y-103313692D01*
X173365120Y-103313690D01*
X173329670Y-103310900D01*
X173329663Y-103310900D01*
X173216000Y-103310900D01*
X173148961Y-103291215D01*
X173103206Y-103238411D01*
X173092000Y-103186900D01*
X173092000Y-103082308D01*
X173111685Y-103015269D01*
X173155771Y-102976763D01*
X173154687Y-102975005D01*
X173160832Y-102971214D01*
X173160834Y-102971214D01*
X173310156Y-102879112D01*
X173403819Y-102785449D01*
X173465142Y-102751964D01*
X173534834Y-102756948D01*
X173579181Y-102785449D01*
X173672844Y-102879112D01*
X173822166Y-102971214D01*
X173988703Y-103026399D01*
X174091491Y-103036900D01*
X174891508Y-103036899D01*
X174891516Y-103036898D01*
X174891519Y-103036898D01*
X174947802Y-103031148D01*
X174994297Y-103026399D01*
X175160834Y-102971214D01*
X175310156Y-102879112D01*
X175434212Y-102755056D01*
X175526314Y-102605734D01*
X175554095Y-102521895D01*
X175593868Y-102464451D01*
X175658384Y-102437628D01*
X175671801Y-102436900D01*
X176654831Y-102436900D01*
X176654847Y-102436901D01*
X176662443Y-102436901D01*
X176820554Y-102436901D01*
X176820557Y-102436901D01*
X176973285Y-102395977D01*
X177067004Y-102341868D01*
X177110216Y-102316920D01*
X177110216Y-102316919D01*
X177117255Y-102312856D01*
X177117980Y-102314112D01*
X177174863Y-102292112D01*
X177217289Y-102295904D01*
X177314808Y-102322035D01*
X177476730Y-102336201D01*
X177541498Y-102341868D01*
X177541500Y-102341868D01*
X177541502Y-102341868D01*
X177603988Y-102336401D01*
X177768192Y-102322035D01*
X177987996Y-102263139D01*
X178194234Y-102166968D01*
X178380639Y-102036447D01*
X178541547Y-101875539D01*
X178672068Y-101689134D01*
X178768239Y-101482896D01*
X178827135Y-101263092D01*
X178846968Y-101036400D01*
X178846968Y-101036398D01*
X181236032Y-101036398D01*
X181236032Y-101036401D01*
X181255864Y-101263086D01*
X181255866Y-101263097D01*
X181314758Y-101482888D01*
X181314761Y-101482897D01*
X181410931Y-101689132D01*
X181410932Y-101689134D01*
X181541454Y-101875541D01*
X181702358Y-102036445D01*
X181702361Y-102036447D01*
X181888766Y-102166968D01*
X182095004Y-102263139D01*
X182314808Y-102322035D01*
X182476730Y-102336201D01*
X182541498Y-102341868D01*
X182541500Y-102341868D01*
X182541502Y-102341868D01*
X182603988Y-102336401D01*
X182768192Y-102322035D01*
X182987996Y-102263139D01*
X183194234Y-102166968D01*
X183380639Y-102036447D01*
X183541547Y-101875539D01*
X183672068Y-101689134D01*
X183768239Y-101482896D01*
X183827135Y-101263092D01*
X183846968Y-101036400D01*
X183843525Y-100997052D01*
X183838175Y-100935900D01*
X183827135Y-100809708D01*
X183768239Y-100589904D01*
X183672068Y-100383666D01*
X183544994Y-100202184D01*
X183541545Y-100197258D01*
X183380641Y-100036354D01*
X183194234Y-99905832D01*
X183194232Y-99905831D01*
X182987997Y-99809661D01*
X182987988Y-99809658D01*
X182768197Y-99750766D01*
X182768193Y-99750765D01*
X182768192Y-99750765D01*
X182768191Y-99750764D01*
X182768186Y-99750764D01*
X182541502Y-99730932D01*
X182541498Y-99730932D01*
X182314813Y-99750764D01*
X182314802Y-99750766D01*
X182095011Y-99809658D01*
X182095002Y-99809661D01*
X181888767Y-99905831D01*
X181888765Y-99905832D01*
X181702358Y-100036354D01*
X181541454Y-100197258D01*
X181410932Y-100383665D01*
X181410931Y-100383667D01*
X181314761Y-100589902D01*
X181314758Y-100589911D01*
X181255866Y-100809702D01*
X181255864Y-100809713D01*
X181236032Y-101036398D01*
X178846968Y-101036398D01*
X178843525Y-100997052D01*
X178838175Y-100935900D01*
X178827135Y-100809708D01*
X178768239Y-100589904D01*
X178672068Y-100383666D01*
X178544994Y-100202184D01*
X178541545Y-100197258D01*
X178380641Y-100036354D01*
X178194234Y-99905832D01*
X178194232Y-99905831D01*
X177987997Y-99809661D01*
X177987988Y-99809658D01*
X177768197Y-99750766D01*
X177768193Y-99750765D01*
X177768192Y-99750765D01*
X177768191Y-99750764D01*
X177768186Y-99750764D01*
X177541502Y-99730932D01*
X177541498Y-99730932D01*
X177314813Y-99750764D01*
X177314802Y-99750766D01*
X177095011Y-99809658D01*
X177095002Y-99809661D01*
X176888763Y-99905833D01*
X176885461Y-99907740D01*
X176817561Y-99924209D01*
X176751535Y-99901354D01*
X176708346Y-99846431D01*
X176701708Y-99776878D01*
X176733727Y-99714776D01*
X176735743Y-99712712D01*
X182762055Y-93686400D01*
X203286092Y-93686400D01*
X203305701Y-93973080D01*
X203364166Y-94254434D01*
X203364167Y-94254437D01*
X203460394Y-94525193D01*
X203460393Y-94525193D01*
X203592598Y-94780335D01*
X203758312Y-95015100D01*
X203766701Y-95024082D01*
X203954447Y-95225108D01*
X204177353Y-95406455D01*
X204415095Y-95551030D01*
X204422882Y-95555765D01*
X204609737Y-95636926D01*
X204686442Y-95670244D01*
X204963142Y-95747771D01*
X205213420Y-95782171D01*
X205247821Y-95786900D01*
X205247822Y-95786900D01*
X205535179Y-95786900D01*
X205565870Y-95782681D01*
X205819858Y-95747771D01*
X206096558Y-95670244D01*
X206233847Y-95610611D01*
X206360117Y-95555765D01*
X206360120Y-95555763D01*
X206360125Y-95555761D01*
X206605647Y-95406455D01*
X206828553Y-95225108D01*
X207024689Y-95015098D01*
X207190401Y-94780336D01*
X207322604Y-94525197D01*
X207418834Y-94254432D01*
X207477298Y-93973086D01*
X207496908Y-93686400D01*
X207477298Y-93399714D01*
X207418834Y-93118368D01*
X207411331Y-93097258D01*
X207322605Y-92847606D01*
X207322606Y-92847606D01*
X207190401Y-92592464D01*
X207024687Y-92357699D01*
X206946054Y-92273505D01*
X206828553Y-92147692D01*
X206605647Y-91966345D01*
X206605646Y-91966344D01*
X206360117Y-91817034D01*
X206096563Y-91702558D01*
X206096561Y-91702557D01*
X206096558Y-91702556D01*
X205967078Y-91666277D01*
X205819864Y-91625030D01*
X205819859Y-91625029D01*
X205819858Y-91625029D01*
X205677518Y-91605464D01*
X205535179Y-91585900D01*
X205535178Y-91585900D01*
X205247822Y-91585900D01*
X205247821Y-91585900D01*
X204963142Y-91625029D01*
X204963135Y-91625030D01*
X204755361Y-91683245D01*
X204686442Y-91702556D01*
X204686439Y-91702556D01*
X204686436Y-91702558D01*
X204686435Y-91702558D01*
X204422882Y-91817034D01*
X204177353Y-91966344D01*
X203954450Y-92147689D01*
X203758312Y-92357699D01*
X203592598Y-92592464D01*
X203460394Y-92847606D01*
X203364167Y-93118362D01*
X203364166Y-93118365D01*
X203305701Y-93399719D01*
X203286092Y-93686400D01*
X182762055Y-93686400D01*
X188800006Y-87648449D01*
X188800011Y-87648445D01*
X188810214Y-87638241D01*
X188810216Y-87638241D01*
X188922020Y-87526437D01*
X189001077Y-87389505D01*
X189039247Y-87247052D01*
X189042000Y-87236779D01*
X189042000Y-87078664D01*
X189042000Y-84358355D01*
X189061685Y-84291316D01*
X189114489Y-84245561D01*
X189183647Y-84235617D01*
X189247203Y-84264642D01*
X189279556Y-84308545D01*
X189315282Y-84389994D01*
X189441228Y-84582770D01*
X189469136Y-84613086D01*
X189597192Y-84752192D01*
X189692532Y-84826398D01*
X189770265Y-84886900D01*
X189778911Y-84893629D01*
X189981431Y-85003228D01*
X190086016Y-85039132D01*
X190199225Y-85077997D01*
X190199227Y-85077997D01*
X190199229Y-85077998D01*
X190426363Y-85115900D01*
X190426364Y-85115900D01*
X190656636Y-85115900D01*
X190656637Y-85115900D01*
X190883771Y-85077998D01*
X190929736Y-85062217D01*
X190999533Y-85059066D01*
X191057681Y-85091817D01*
X191182784Y-85216920D01*
X191182786Y-85216921D01*
X191182790Y-85216924D01*
X191319709Y-85295973D01*
X191319716Y-85295977D01*
X191472443Y-85336901D01*
X191472445Y-85336901D01*
X191638154Y-85336901D01*
X191638170Y-85336900D01*
X194059088Y-85336900D01*
X194126127Y-85356585D01*
X194136403Y-85363955D01*
X194139236Y-85366214D01*
X194139238Y-85366216D01*
X194291978Y-85462189D01*
X194291983Y-85462192D01*
X194298253Y-85465212D01*
X194296852Y-85468119D01*
X194342109Y-85500380D01*
X194368044Y-85565258D01*
X194354787Y-85633859D01*
X194306546Y-85684401D01*
X194289394Y-85692609D01*
X194148873Y-85747047D01*
X194148857Y-85747055D01*
X193975460Y-85854417D01*
X193975458Y-85854419D01*
X193824737Y-85991818D01*
X193701827Y-86154578D01*
X193610922Y-86337139D01*
X193610917Y-86337152D01*
X193555102Y-86533317D01*
X193536285Y-86736399D01*
X193536285Y-86736400D01*
X193555102Y-86939482D01*
X193610917Y-87135647D01*
X193610922Y-87135660D01*
X193701828Y-87318224D01*
X193772398Y-87411674D01*
X193797090Y-87477035D01*
X193782525Y-87545370D01*
X193772398Y-87561126D01*
X193701828Y-87654575D01*
X193610922Y-87837139D01*
X193610917Y-87837152D01*
X193555102Y-88033317D01*
X193536285Y-88236399D01*
X193536285Y-88236400D01*
X193555102Y-88439482D01*
X193610917Y-88635647D01*
X193610922Y-88635660D01*
X193701827Y-88818221D01*
X193824737Y-88980981D01*
X193975458Y-89118380D01*
X193975460Y-89118382D01*
X194015328Y-89143067D01*
X194148863Y-89225748D01*
X194339044Y-89299424D01*
X194539524Y-89336900D01*
X194539526Y-89336900D01*
X194743474Y-89336900D01*
X194743476Y-89336900D01*
X194943956Y-89299424D01*
X195134137Y-89225748D01*
X195307541Y-89118381D01*
X195458264Y-88980979D01*
X195581173Y-88818221D01*
X195672082Y-88635650D01*
X195727897Y-88439483D01*
X195746715Y-88236400D01*
X195727897Y-88033317D01*
X195672082Y-87837150D01*
X195581173Y-87654579D01*
X195581172Y-87654578D01*
X195581171Y-87654575D01*
X195510601Y-87561125D01*
X195485909Y-87495764D01*
X195500474Y-87427430D01*
X195510599Y-87411674D01*
X195519700Y-87399623D01*
X195529860Y-87386171D01*
X195585970Y-87344536D01*
X195628812Y-87336900D01*
X198391403Y-87336900D01*
X198458442Y-87356585D01*
X198479084Y-87373219D01*
X199066832Y-87960967D01*
X199100317Y-88022290D01*
X199102622Y-88060089D01*
X199086285Y-88236398D01*
X199086285Y-88236400D01*
X199105102Y-88439482D01*
X199160917Y-88635647D01*
X199160922Y-88635660D01*
X199251827Y-88818221D01*
X199374737Y-88980981D01*
X199525458Y-89118380D01*
X199525460Y-89118382D01*
X199565328Y-89143067D01*
X199698863Y-89225748D01*
X199889044Y-89299424D01*
X200089524Y-89336900D01*
X200089526Y-89336900D01*
X200293474Y-89336900D01*
X200293476Y-89336900D01*
X200493956Y-89299424D01*
X200684137Y-89225748D01*
X200857541Y-89118381D01*
X201008264Y-88980979D01*
X201131173Y-88818221D01*
X201222082Y-88635650D01*
X201277897Y-88439483D01*
X201296715Y-88236400D01*
X201277897Y-88033317D01*
X201222082Y-87837150D01*
X201131173Y-87654579D01*
X201131172Y-87654578D01*
X201131171Y-87654575D01*
X201060601Y-87561125D01*
X201035909Y-87495764D01*
X201050474Y-87427430D01*
X201060599Y-87411674D01*
X201069700Y-87399623D01*
X201079860Y-87386171D01*
X201135970Y-87344536D01*
X201178812Y-87336900D01*
X203941403Y-87336900D01*
X204008442Y-87356585D01*
X204029084Y-87373219D01*
X204616832Y-87960967D01*
X204650317Y-88022290D01*
X204652622Y-88060089D01*
X204636285Y-88236398D01*
X204636285Y-88236400D01*
X204655102Y-88439482D01*
X204710917Y-88635647D01*
X204710922Y-88635660D01*
X204801827Y-88818221D01*
X204924737Y-88980981D01*
X205075458Y-89118380D01*
X205075460Y-89118382D01*
X205115328Y-89143067D01*
X205248863Y-89225748D01*
X205439044Y-89299424D01*
X205639524Y-89336900D01*
X205639526Y-89336900D01*
X205843474Y-89336900D01*
X205843476Y-89336900D01*
X206043956Y-89299424D01*
X206234137Y-89225748D01*
X206407541Y-89118381D01*
X206558264Y-88980979D01*
X206681173Y-88818221D01*
X206772082Y-88635650D01*
X206827897Y-88439483D01*
X206846715Y-88236400D01*
X206827897Y-88033317D01*
X206772082Y-87837150D01*
X206681173Y-87654579D01*
X206610600Y-87561125D01*
X206585909Y-87495766D01*
X206600474Y-87427431D01*
X206610598Y-87411676D01*
X206681173Y-87318221D01*
X206772082Y-87135650D01*
X206827897Y-86939483D01*
X206846715Y-86736400D01*
X206827897Y-86533317D01*
X206772082Y-86337150D01*
X206763644Y-86320205D01*
X206706657Y-86205758D01*
X206681173Y-86154579D01*
X206558264Y-85991821D01*
X206558262Y-85991818D01*
X206407541Y-85854419D01*
X206407539Y-85854417D01*
X206234142Y-85747055D01*
X206234135Y-85747051D01*
X206072415Y-85684401D01*
X206043956Y-85673376D01*
X205843476Y-85635900D01*
X205639524Y-85635900D01*
X205439044Y-85673376D01*
X205439041Y-85673376D01*
X205439041Y-85673377D01*
X205248864Y-85747051D01*
X205248857Y-85747055D01*
X205075460Y-85854417D01*
X205075458Y-85854419D01*
X204924737Y-85991818D01*
X204801825Y-86154580D01*
X204778647Y-86201128D01*
X204731144Y-86252365D01*
X204663481Y-86269785D01*
X204605649Y-86253243D01*
X204523404Y-86205760D01*
X204523404Y-86205759D01*
X204523400Y-86205758D01*
X204473285Y-86176823D01*
X204320557Y-86135899D01*
X204162443Y-86135899D01*
X204154847Y-86135899D01*
X204154831Y-86135900D01*
X201178812Y-86135900D01*
X201111773Y-86116215D01*
X201079858Y-86086627D01*
X201008262Y-85991818D01*
X200857541Y-85854419D01*
X200857539Y-85854417D01*
X200684142Y-85747055D01*
X200684135Y-85747051D01*
X200522415Y-85684401D01*
X200493956Y-85673376D01*
X200293476Y-85635900D01*
X200089524Y-85635900D01*
X199889044Y-85673376D01*
X199889041Y-85673376D01*
X199889041Y-85673377D01*
X199698864Y-85747051D01*
X199698857Y-85747055D01*
X199581277Y-85819857D01*
X199513916Y-85838412D01*
X199447217Y-85817604D01*
X199402356Y-85764039D01*
X199392000Y-85714430D01*
X199392000Y-85568812D01*
X199411685Y-85501773D01*
X199419055Y-85491497D01*
X199421310Y-85488667D01*
X199421316Y-85488662D01*
X199517289Y-85335922D01*
X199576868Y-85165655D01*
X199582474Y-85115900D01*
X199597065Y-84986403D01*
X199597065Y-84986396D01*
X199576869Y-84807150D01*
X199576866Y-84807137D01*
X199539161Y-84699383D01*
X199535599Y-84629604D01*
X199568521Y-84570746D01*
X199634212Y-84505056D01*
X199726314Y-84355734D01*
X199734261Y-84331748D01*
X199774033Y-84274305D01*
X199819873Y-84250978D01*
X199838541Y-84245977D01*
X199888870Y-84216919D01*
X199975472Y-84166920D01*
X200087276Y-84055116D01*
X200087276Y-84055114D01*
X200097480Y-84044911D01*
X200097483Y-84044906D01*
X201343894Y-82798495D01*
X201405216Y-82765012D01*
X201474908Y-82769996D01*
X201530841Y-82811868D01*
X201551348Y-82854082D01*
X201581923Y-82968185D01*
X201589297Y-82980957D01*
X201592151Y-82985900D01*
X201660977Y-83105112D01*
X201660981Y-83105117D01*
X201779849Y-83223985D01*
X201779855Y-83223990D01*
X201904681Y-83348816D01*
X201938166Y-83410139D01*
X201941000Y-83436497D01*
X201941000Y-84136401D01*
X201941001Y-84136419D01*
X201951500Y-84239196D01*
X201951501Y-84239199D01*
X202000279Y-84386398D01*
X202006686Y-84405734D01*
X202098788Y-84555056D01*
X202222844Y-84679112D01*
X202372166Y-84771214D01*
X202538703Y-84826399D01*
X202641491Y-84836900D01*
X203641508Y-84836899D01*
X203641516Y-84836898D01*
X203641519Y-84836898D01*
X203697802Y-84831148D01*
X203744297Y-84826399D01*
X203910834Y-84771214D01*
X204060156Y-84679112D01*
X204184212Y-84555056D01*
X204276314Y-84405734D01*
X204331499Y-84239197D01*
X204342000Y-84136409D01*
X204341999Y-83336392D01*
X204331499Y-83233603D01*
X204276314Y-83067066D01*
X204184212Y-82917744D01*
X204090549Y-82824081D01*
X204057064Y-82762758D01*
X204062048Y-82693066D01*
X204090549Y-82648719D01*
X204126182Y-82613086D01*
X204184212Y-82555056D01*
X204276314Y-82405734D01*
X204331499Y-82239197D01*
X204342000Y-82136409D01*
X204341999Y-81618337D01*
X204361683Y-81551300D01*
X204414487Y-81505545D01*
X204483646Y-81495601D01*
X204547202Y-81524626D01*
X204553680Y-81530658D01*
X204589238Y-81566216D01*
X204672191Y-81618339D01*
X204705257Y-81639116D01*
X204741978Y-81662189D01*
X204837510Y-81695617D01*
X204912245Y-81721768D01*
X204912250Y-81721769D01*
X205091496Y-81741965D01*
X205091500Y-81741965D01*
X205091504Y-81741965D01*
X205270749Y-81721769D01*
X205270752Y-81721768D01*
X205270755Y-81721768D01*
X205441022Y-81662189D01*
X205593762Y-81566216D01*
X205721316Y-81438662D01*
X205817289Y-81285922D01*
X205876868Y-81115655D01*
X205886661Y-81028729D01*
X205913726Y-80964318D01*
X205922190Y-80954943D01*
X207713916Y-79163218D01*
X207775239Y-79129733D01*
X207801597Y-79126899D01*
X208539371Y-79126899D01*
X208539372Y-79126899D01*
X208598983Y-79120491D01*
X208733831Y-79070196D01*
X208849046Y-78983946D01*
X208891935Y-78926654D01*
X208927834Y-78878700D01*
X208983767Y-78836829D01*
X209053459Y-78831845D01*
X209114782Y-78865331D01*
X209148266Y-78926654D01*
X209151100Y-78953011D01*
X209151100Y-127395655D01*
X209131415Y-127462694D01*
X209112494Y-127485565D01*
X204367811Y-131991900D01*
X201723368Y-134503500D01*
X201628702Y-134593410D01*
X201566537Y-134625305D01*
X201543308Y-134627500D01*
X201484230Y-134627500D01*
X201417191Y-134607815D01*
X201371436Y-134555011D01*
X201361492Y-134485853D01*
X201390517Y-134422297D01*
X201396549Y-134415819D01*
X201468712Y-134343656D01*
X201560814Y-134194334D01*
X201615999Y-134027797D01*
X201626500Y-133925009D01*
X201626500Y-131991900D01*
X201626499Y-129075014D01*
X201626500Y-129075009D01*
X201626499Y-124924992D01*
X201619801Y-124859427D01*
X201615999Y-124822203D01*
X201615998Y-124822200D01*
X201602547Y-124781608D01*
X201560814Y-124655666D01*
X201468712Y-124506344D01*
X201344656Y-124382288D01*
X201195334Y-124290186D01*
X201028797Y-124235001D01*
X201028795Y-124235000D01*
X200926016Y-124224500D01*
X200926009Y-124224500D01*
X200926007Y-124224500D01*
X196450500Y-124224500D01*
X196383461Y-124204815D01*
X196337706Y-124152011D01*
X196326500Y-124100500D01*
X196326500Y-123090638D01*
X196346185Y-123023599D01*
X196385401Y-122985100D01*
X196494656Y-122917712D01*
X196494664Y-122917703D01*
X196499085Y-122914209D01*
X196563879Y-122888066D01*
X196632522Y-122901103D01*
X196652915Y-122914209D01*
X196657339Y-122917707D01*
X196657344Y-122917712D01*
X196806666Y-123009814D01*
X196973203Y-123064999D01*
X197075991Y-123075500D01*
X197776008Y-123075499D01*
X197776016Y-123075498D01*
X197776019Y-123075498D01*
X197832302Y-123069748D01*
X197878797Y-123064999D01*
X198045334Y-123009814D01*
X198194656Y-122917712D01*
X198194664Y-122917703D01*
X198199085Y-122914209D01*
X198263879Y-122888066D01*
X198332522Y-122901103D01*
X198352915Y-122914209D01*
X198357339Y-122917707D01*
X198357344Y-122917712D01*
X198506666Y-123009814D01*
X198673203Y-123064999D01*
X198775991Y-123075500D01*
X199476008Y-123075499D01*
X199476016Y-123075498D01*
X199476019Y-123075498D01*
X199532302Y-123069748D01*
X199578797Y-123064999D01*
X199745334Y-123009814D01*
X199894656Y-122917712D01*
X200018712Y-122793656D01*
X200110814Y-122644334D01*
X200165999Y-122477797D01*
X200176500Y-122375009D01*
X200176499Y-120851064D01*
X200190015Y-120794769D01*
X200200029Y-120775116D01*
X200223270Y-120729504D01*
X200280860Y-120552257D01*
X200310015Y-120368184D01*
X200310015Y-117882364D01*
X200329700Y-117815325D01*
X200333697Y-117809479D01*
X200372302Y-117756342D01*
X200402659Y-117714559D01*
X200487270Y-117548504D01*
X200489973Y-117540187D01*
X200544859Y-117371261D01*
X200544858Y-117371261D01*
X200544860Y-117371258D01*
X200574015Y-117187184D01*
X200574015Y-117000816D01*
X200544860Y-116816743D01*
X200544774Y-116816477D01*
X200487273Y-116639504D01*
X200487271Y-116639501D01*
X200487270Y-116639496D01*
X200402659Y-116473441D01*
X200380517Y-116442965D01*
X200293119Y-116322669D01*
X200161330Y-116190880D01*
X200010562Y-116081343D01*
X200010561Y-116081342D01*
X200010559Y-116081341D01*
X199844504Y-115996730D01*
X199844500Y-115996729D01*
X199844497Y-115996727D01*
X199686664Y-115945445D01*
X199628989Y-115906008D01*
X199601790Y-115841649D01*
X199613704Y-115772803D01*
X199637298Y-115739836D01*
X204313916Y-111063217D01*
X204375239Y-111029733D01*
X204401597Y-111026899D01*
X207039371Y-111026899D01*
X207039372Y-111026899D01*
X207098983Y-111020491D01*
X207233831Y-110970196D01*
X207349046Y-110883946D01*
X207435296Y-110768731D01*
X207485591Y-110633883D01*
X207492000Y-110574273D01*
X207491999Y-107278528D01*
X207485591Y-107218917D01*
X207435296Y-107084069D01*
X207435295Y-107084068D01*
X207435293Y-107084064D01*
X207349047Y-106968855D01*
X207349044Y-106968852D01*
X207233835Y-106882606D01*
X207233828Y-106882602D01*
X207098982Y-106832308D01*
X207098983Y-106832308D01*
X207039383Y-106825901D01*
X207039381Y-106825900D01*
X207039373Y-106825900D01*
X207039364Y-106825900D01*
X203743629Y-106825900D01*
X203743623Y-106825901D01*
X203684016Y-106832308D01*
X203549171Y-106882602D01*
X203549164Y-106882606D01*
X203433955Y-106968852D01*
X203433952Y-106968855D01*
X203347706Y-107084064D01*
X203347702Y-107084071D01*
X203297408Y-107218917D01*
X203291001Y-107278516D01*
X203291001Y-107278523D01*
X203291000Y-107278535D01*
X203291000Y-110336302D01*
X203271315Y-110403341D01*
X203254681Y-110423983D01*
X197779084Y-115899581D01*
X197717761Y-115933066D01*
X197691403Y-115935900D01*
X191893497Y-115935900D01*
X191826458Y-115916215D01*
X191805816Y-115899581D01*
X190559516Y-114653281D01*
X190526031Y-114591958D01*
X190526992Y-114535159D01*
X190527061Y-114534884D01*
X190527063Y-114534881D01*
X190588108Y-114293821D01*
X190592651Y-114238993D01*
X190608643Y-114046005D01*
X190608643Y-114045994D01*
X190588109Y-113798187D01*
X190588107Y-113798175D01*
X190527063Y-113557118D01*
X190427173Y-113329393D01*
X190291166Y-113121217D01*
X190238178Y-113063657D01*
X190122744Y-112938262D01*
X189926509Y-112785526D01*
X189926507Y-112785525D01*
X189926506Y-112785524D01*
X189707811Y-112667172D01*
X189707802Y-112667169D01*
X189472616Y-112586429D01*
X189227335Y-112545500D01*
X188978665Y-112545500D01*
X188733383Y-112586429D01*
X188498197Y-112667169D01*
X188498188Y-112667172D01*
X188279493Y-112785524D01*
X188083257Y-112938261D01*
X187914833Y-113121217D01*
X187778826Y-113329393D01*
X187678936Y-113557118D01*
X187617892Y-113798175D01*
X187617890Y-113798187D01*
X187597357Y-114045994D01*
X187597357Y-114046005D01*
X187617890Y-114293812D01*
X187617892Y-114293824D01*
X187678936Y-114534881D01*
X187778826Y-114762606D01*
X187914833Y-114970782D01*
X187914836Y-114970785D01*
X188083256Y-115153738D01*
X188279491Y-115306474D01*
X188279493Y-115306475D01*
X188497332Y-115424364D01*
X188498190Y-115424828D01*
X188618216Y-115466033D01*
X188731964Y-115505083D01*
X188733386Y-115505571D01*
X188978665Y-115546500D01*
X189227335Y-115546500D01*
X189472608Y-115505572D01*
X189472607Y-115505572D01*
X189472614Y-115505571D01*
X189578607Y-115469182D01*
X189648402Y-115466033D01*
X189706548Y-115498783D01*
X191108539Y-116900774D01*
X191108549Y-116900785D01*
X191112879Y-116905115D01*
X191112880Y-116905116D01*
X191224684Y-117016920D01*
X191224686Y-117016921D01*
X191224690Y-117016924D01*
X191361609Y-117095973D01*
X191361616Y-117095977D01*
X191473419Y-117125934D01*
X191514342Y-117136900D01*
X191514343Y-117136900D01*
X192880758Y-117136900D01*
X192947797Y-117156585D01*
X192993552Y-117209389D01*
X193003496Y-117278547D01*
X192974471Y-117342103D01*
X192968452Y-117348567D01*
X192873859Y-117443161D01*
X192868751Y-117448269D01*
X192807427Y-117481753D01*
X192768468Y-117483945D01*
X192676011Y-117474500D01*
X191975998Y-117474500D01*
X191975980Y-117474501D01*
X191873203Y-117485000D01*
X191873200Y-117485001D01*
X191706668Y-117540185D01*
X191706663Y-117540187D01*
X191557342Y-117632289D01*
X191433289Y-117756342D01*
X191341187Y-117905663D01*
X191341186Y-117905666D01*
X191286001Y-118072203D01*
X191286001Y-118072204D01*
X191286000Y-118072204D01*
X191275500Y-118174983D01*
X191275500Y-122375001D01*
X191275501Y-122375018D01*
X191286000Y-122477796D01*
X191286001Y-122477799D01*
X191334180Y-122623191D01*
X191341186Y-122644334D01*
X191433288Y-122793656D01*
X191557344Y-122917712D01*
X191706666Y-123009814D01*
X191873203Y-123064999D01*
X191975991Y-123075500D01*
X192676008Y-123075499D01*
X192676016Y-123075498D01*
X192676019Y-123075498D01*
X192732302Y-123069748D01*
X192778797Y-123064999D01*
X192945334Y-123009814D01*
X193094656Y-122917712D01*
X193094661Y-122917706D01*
X193099497Y-122913884D01*
X193164293Y-122887745D01*
X193232935Y-122900787D01*
X193253317Y-122913886D01*
X193257653Y-122917314D01*
X193406875Y-123009356D01*
X193406880Y-123009358D01*
X193573302Y-123064505D01*
X193573309Y-123064506D01*
X193676019Y-123074999D01*
X193776000Y-123074998D01*
X193776000Y-120149000D01*
X193795685Y-120081961D01*
X193848489Y-120036206D01*
X193900000Y-120025000D01*
X194152000Y-120025000D01*
X194219039Y-120044685D01*
X194264794Y-120097489D01*
X194276000Y-120149000D01*
X194276000Y-123074999D01*
X194375972Y-123074999D01*
X194375986Y-123074998D01*
X194478697Y-123064505D01*
X194645119Y-123009358D01*
X194645124Y-123009356D01*
X194794346Y-122917314D01*
X194798683Y-122913886D01*
X194863479Y-122887745D01*
X194932121Y-122900786D01*
X194952503Y-122913884D01*
X194957342Y-122917710D01*
X194957344Y-122917712D01*
X195066597Y-122985099D01*
X195113321Y-123037047D01*
X195125500Y-123090638D01*
X195125500Y-123924902D01*
X195105815Y-123991941D01*
X195089181Y-124012583D01*
X194913582Y-124188181D01*
X194852259Y-124221666D01*
X194825901Y-124224500D01*
X190525998Y-124224500D01*
X190525981Y-124224501D01*
X190423203Y-124235000D01*
X190423200Y-124235001D01*
X190256668Y-124290185D01*
X190256663Y-124290187D01*
X190107342Y-124382289D01*
X189983289Y-124506342D01*
X189891183Y-124655670D01*
X189849453Y-124781608D01*
X189836002Y-124822199D01*
X189836000Y-124822210D01*
X189825500Y-124924983D01*
X189825500Y-126331139D01*
X189805815Y-126398178D01*
X189763500Y-126438526D01*
X189623287Y-126519477D01*
X189623282Y-126519481D01*
X189511478Y-126631286D01*
X189511477Y-126631287D01*
X189465464Y-126677299D01*
X189404141Y-126710783D01*
X189391668Y-126712837D01*
X189304750Y-126722630D01*
X189134478Y-126782210D01*
X188981737Y-126878184D01*
X188854184Y-127005737D01*
X188758211Y-127158476D01*
X188698631Y-127328745D01*
X188698630Y-127328750D01*
X188678435Y-127507996D01*
X188678435Y-127508003D01*
X188698630Y-127687249D01*
X188698631Y-127687254D01*
X188758211Y-127857523D01*
X188854184Y-128010262D01*
X188981738Y-128137816D01*
X189134478Y-128233789D01*
X189297269Y-128290752D01*
X189304745Y-128293368D01*
X189304750Y-128293369D01*
X189483996Y-128313565D01*
X189484000Y-128313565D01*
X189484004Y-128313565D01*
X189663251Y-128293369D01*
X189670037Y-128291820D01*
X189670491Y-128293809D01*
X189730316Y-128290752D01*
X189790946Y-128325477D01*
X189823177Y-128387468D01*
X189825500Y-128411357D01*
X189825500Y-133925001D01*
X189825501Y-133925018D01*
X189836000Y-134027796D01*
X189836001Y-134027799D01*
X189891185Y-134194331D01*
X189891187Y-134194336D01*
X189983289Y-134343657D01*
X190055451Y-134415819D01*
X190088936Y-134477142D01*
X190083952Y-134546834D01*
X190042080Y-134602767D01*
X189976616Y-134627184D01*
X189967770Y-134627500D01*
X82869700Y-134627500D01*
X82802661Y-134607815D01*
X82756906Y-134555011D01*
X82745700Y-134503500D01*
X82745700Y-124099995D01*
X86339732Y-124099995D01*
X86339732Y-124100004D01*
X86358777Y-124354154D01*
X86393513Y-124506344D01*
X86415492Y-124602637D01*
X86501666Y-124822204D01*
X86508608Y-124839890D01*
X86519888Y-124859427D01*
X86636041Y-125060612D01*
X86794950Y-125259877D01*
X86981783Y-125433232D01*
X87192366Y-125576805D01*
X87192371Y-125576807D01*
X87192372Y-125576808D01*
X87192373Y-125576809D01*
X87314328Y-125635538D01*
X87421992Y-125687387D01*
X87421993Y-125687387D01*
X87421996Y-125687389D01*
X87665542Y-125762513D01*
X87917565Y-125800500D01*
X88172435Y-125800500D01*
X88424458Y-125762513D01*
X88668004Y-125687389D01*
X88897634Y-125576805D01*
X89108217Y-125433232D01*
X89295050Y-125259877D01*
X89453959Y-125060612D01*
X89581393Y-124839888D01*
X89674508Y-124602637D01*
X89731222Y-124354157D01*
X89744991Y-124170415D01*
X89750268Y-124100004D01*
X89750268Y-124099995D01*
X89741554Y-123983711D01*
X94839500Y-123983711D01*
X94839500Y-124226288D01*
X94871161Y-124466785D01*
X94933947Y-124701104D01*
X94998905Y-124857925D01*
X95026776Y-124925212D01*
X95148064Y-125135289D01*
X95148066Y-125135292D01*
X95148067Y-125135293D01*
X95295733Y-125327736D01*
X95295739Y-125327743D01*
X95467256Y-125499260D01*
X95467263Y-125499266D01*
X95580321Y-125586018D01*
X95659711Y-125646936D01*
X95869788Y-125768224D01*
X96093900Y-125861054D01*
X96328211Y-125923838D01*
X96508586Y-125947584D01*
X96568711Y-125955500D01*
X96568712Y-125955500D01*
X96811289Y-125955500D01*
X96859388Y-125949167D01*
X97051789Y-125923838D01*
X97286100Y-125861054D01*
X97510212Y-125768224D01*
X97720289Y-125646936D01*
X97912738Y-125499265D01*
X98084265Y-125327738D01*
X98231936Y-125135289D01*
X98353224Y-124925212D01*
X98446054Y-124701100D01*
X98508838Y-124466789D01*
X98540500Y-124226288D01*
X98540500Y-123983712D01*
X98539519Y-123976264D01*
X98522350Y-123845845D01*
X98508838Y-123743211D01*
X98446054Y-123508900D01*
X98353224Y-123284788D01*
X98231936Y-123074711D01*
X98108531Y-122913886D01*
X98084266Y-122882263D01*
X98084260Y-122882256D01*
X97912743Y-122710739D01*
X97912736Y-122710733D01*
X97720293Y-122563067D01*
X97720292Y-122563066D01*
X97720289Y-122563064D01*
X97510212Y-122441776D01*
X97510205Y-122441773D01*
X97286104Y-122348947D01*
X97051785Y-122286161D01*
X96811289Y-122254500D01*
X96811288Y-122254500D01*
X96568712Y-122254500D01*
X96568711Y-122254500D01*
X96328214Y-122286161D01*
X96093895Y-122348947D01*
X95869794Y-122441773D01*
X95869785Y-122441777D01*
X95659706Y-122563067D01*
X95467263Y-122710733D01*
X95467256Y-122710739D01*
X95295739Y-122882256D01*
X95295733Y-122882263D01*
X95148067Y-123074706D01*
X95148064Y-123074710D01*
X95148064Y-123074711D01*
X95145251Y-123079583D01*
X95026777Y-123284785D01*
X95026773Y-123284794D01*
X94933947Y-123508895D01*
X94871161Y-123743214D01*
X94839500Y-123983711D01*
X89741554Y-123983711D01*
X89731222Y-123845845D01*
X89711111Y-123757734D01*
X89674508Y-123597363D01*
X89581393Y-123360112D01*
X89453959Y-123139388D01*
X89295050Y-122940123D01*
X89108217Y-122766768D01*
X88897634Y-122623195D01*
X88897628Y-122623192D01*
X88897627Y-122623191D01*
X88897626Y-122623190D01*
X88668006Y-122512612D01*
X88668008Y-122512612D01*
X88424466Y-122437489D01*
X88424462Y-122437488D01*
X88424458Y-122437487D01*
X88303231Y-122419214D01*
X88172440Y-122399500D01*
X88172435Y-122399500D01*
X87917565Y-122399500D01*
X87917559Y-122399500D01*
X87760609Y-122423157D01*
X87665542Y-122437487D01*
X87665539Y-122437488D01*
X87665533Y-122437489D01*
X87421992Y-122512612D01*
X87192373Y-122623190D01*
X87192372Y-122623191D01*
X86981782Y-122766768D01*
X86794952Y-122940121D01*
X86794950Y-122940123D01*
X86636041Y-123139388D01*
X86508608Y-123360109D01*
X86415492Y-123597362D01*
X86415490Y-123597369D01*
X86358777Y-123845845D01*
X86339732Y-124099995D01*
X82745700Y-124099995D01*
X82745700Y-55260900D01*
X82765385Y-55193861D01*
X82818189Y-55148106D01*
X82869700Y-55136900D01*
X182711530Y-55136900D01*
X182778569Y-55156585D01*
G37*
%TD.AperFunction*%
%TD*%
M02*
