%TF.GenerationSoftware,KiCad,Pcbnew,8.0.6*%
%TF.CreationDate,2024-12-31T14:32:05-08:00*%
%TF.ProjectId,Avionics Power Regulation Board,4176696f-6e69-4637-9320-506f77657220,3*%
%TF.SameCoordinates,Original*%
%TF.FileFunction,Soldermask,Top*%
%TF.FilePolarity,Negative*%
%FSLAX46Y46*%
G04 Gerber Fmt 4.6, Leading zero omitted, Abs format (unit mm)*
G04 Created by KiCad (PCBNEW 8.0.6) date 2024-12-31 14:32:05*
%MOMM*%
%LPD*%
G01*
G04 APERTURE LIST*
G04 Aperture macros list*
%AMRoundRect*
0 Rectangle with rounded corners*
0 $1 Rounding radius*
0 $2 $3 $4 $5 $6 $7 $8 $9 X,Y pos of 4 corners*
0 Add a 4 corners polygon primitive as box body*
4,1,4,$2,$3,$4,$5,$6,$7,$8,$9,$2,$3,0*
0 Add four circle primitives for the rounded corners*
1,1,$1+$1,$2,$3*
1,1,$1+$1,$4,$5*
1,1,$1+$1,$6,$7*
1,1,$1+$1,$8,$9*
0 Add four rect primitives between the rounded corners*
20,1,$1+$1,$2,$3,$4,$5,0*
20,1,$1+$1,$4,$5,$6,$7,0*
20,1,$1+$1,$6,$7,$8,$9,0*
20,1,$1+$1,$8,$9,$2,$3,0*%
G04 Aperture macros list end*
%ADD10C,1.600000*%
%ADD11RoundRect,0.100000X-0.637500X-0.100000X0.637500X-0.100000X0.637500X0.100000X-0.637500X0.100000X0*%
%ADD12C,2.000000*%
%ADD13RoundRect,0.250000X0.350000X0.450000X-0.350000X0.450000X-0.350000X-0.450000X0.350000X-0.450000X0*%
%ADD14RoundRect,0.250000X-0.300000X2.050000X-0.300000X-2.050000X0.300000X-2.050000X0.300000X2.050000X0*%
%ADD15RoundRect,0.250002X-5.149998X4.449998X-5.149998X-4.449998X5.149998X-4.449998X5.149998X4.449998X0*%
%ADD16R,2.200000X2.200000*%
%ADD17O,2.200000X2.200000*%
%ADD18C,1.200000*%
%ADD19C,3.200000*%
%ADD20C,2.604000*%
%ADD21RoundRect,0.250000X-0.350000X-0.450000X0.350000X-0.450000X0.350000X0.450000X-0.350000X0.450000X0*%
%ADD22C,3.500000*%
%ADD23C,1.982000*%
%ADD24R,1.473200X1.473200*%
%ADD25C,1.473200*%
%ADD26RoundRect,0.250000X0.450000X-0.350000X0.450000X0.350000X-0.450000X0.350000X-0.450000X-0.350000X0*%
%ADD27RoundRect,0.250000X-0.300000X-0.300000X0.300000X-0.300000X0.300000X0.300000X-0.300000X0.300000X0*%
%ADD28R,3.200000X3.200000*%
%ADD29O,3.200000X3.200000*%
%ADD30RoundRect,0.250000X-0.450000X0.350000X-0.450000X-0.350000X0.450000X-0.350000X0.450000X0.350000X0*%
%ADD31R,1.700000X1.700000*%
%ADD32O,1.700000X1.700000*%
%ADD33RoundRect,0.125000X-0.687500X-0.125000X0.687500X-0.125000X0.687500X0.125000X-0.687500X0.125000X0*%
G04 APERTURE END LIST*
D10*
%TO.C,CC3*%
X115731500Y-46821400D03*
X115731500Y-44821400D03*
%TD*%
D11*
%TO.C,U2*%
X108581500Y-23621400D03*
X108581500Y-24271400D03*
X108581500Y-24921400D03*
X108581500Y-25571400D03*
X108581500Y-26221400D03*
X108581500Y-26871400D03*
X108581500Y-27521400D03*
X108581500Y-28171400D03*
X108581500Y-28821400D03*
X108581500Y-29471400D03*
X114306500Y-29471400D03*
X114306500Y-28821400D03*
X114306500Y-28171400D03*
X114306500Y-27521400D03*
X114306500Y-26871400D03*
X114306500Y-26221400D03*
X114306500Y-25571400D03*
X114306500Y-24921400D03*
X114306500Y-24271400D03*
X114306500Y-23621400D03*
%TD*%
D12*
%TO.C,L1*%
X127393000Y-76481000D03*
X123393000Y-76481000D03*
%TD*%
D13*
%TO.C,RC1*%
X124481500Y-41121400D03*
X122481500Y-41121400D03*
%TD*%
D14*
%TO.C,U1*%
X137416000Y-82710000D03*
X135716000Y-82710000D03*
X134016000Y-82710000D03*
D15*
X134016000Y-91860000D03*
D14*
X132316000Y-82710000D03*
X130616000Y-82710000D03*
%TD*%
D13*
%TO.C,RC2*%
X124369000Y-37821400D03*
X122369000Y-37821400D03*
%TD*%
D16*
%TO.C,D3*%
X143395000Y-46151400D03*
D17*
X143395000Y-35991400D03*
%TD*%
D18*
%TO.C,CSS1*%
X125581500Y-65971400D03*
X125581500Y-64471400D03*
%TD*%
D10*
%TO.C,C1*%
X120790000Y-82785000D03*
X120790000Y-80785000D03*
%TD*%
D13*
%TO.C,RC3*%
X124369000Y-33671400D03*
X122369000Y-33671400D03*
%TD*%
D18*
%TO.C,C5*%
X132931500Y-49171400D03*
X132931500Y-50671400D03*
%TD*%
D10*
%TO.C,CC1*%
X115831500Y-58371400D03*
X115831500Y-56371400D03*
%TD*%
D19*
%TO.C,BT1*%
X90590000Y-86540000D03*
X90590000Y-67235000D03*
X90590000Y-47935000D03*
X90590000Y-28630000D03*
X34980000Y-86540000D03*
X34980000Y-67235000D03*
X34980000Y-47935000D03*
X34980000Y-28630000D03*
D20*
X99235000Y-86535000D03*
X26335000Y-86535000D03*
X99235000Y-67235000D03*
X26335000Y-67235000D03*
X99235000Y-47935000D03*
X26335000Y-47935000D03*
X99235000Y-28635000D03*
X26335000Y-28635000D03*
%TD*%
D21*
%TO.C,R4*%
X122181500Y-20721400D03*
X124181500Y-20721400D03*
%TD*%
D10*
%TO.C,C8*%
X108131500Y-40271400D03*
X108131500Y-38271400D03*
%TD*%
D21*
%TO.C,Rcomp1*%
X110781500Y-64271400D03*
X112781500Y-64271400D03*
%TD*%
D22*
%TO.C,H2*%
X145401600Y-19635800D03*
%TD*%
D13*
%TO.C,RF1*%
X108181500Y-33521400D03*
X106181500Y-33521400D03*
%TD*%
D10*
%TO.C,C2*%
X132481500Y-72671400D03*
X137481500Y-72671400D03*
%TD*%
D21*
%TO.C,R1*%
X106131500Y-69571400D03*
X108131500Y-69571400D03*
%TD*%
D13*
%TO.C,RC4*%
X124369000Y-29521400D03*
X122369000Y-29521400D03*
%TD*%
%TO.C,RC5*%
X124181500Y-25571400D03*
X122181500Y-25571400D03*
%TD*%
D23*
%TO.C,Q1*%
X128781500Y-30701400D03*
X128781500Y-28161400D03*
X128781500Y-25621400D03*
%TD*%
%TO.C,Q2*%
X128790000Y-38635000D03*
X128790000Y-36095000D03*
X128790000Y-33555000D03*
%TD*%
D18*
%TO.C,Cout2*%
X106781500Y-80321400D03*
X108281500Y-80321400D03*
%TD*%
%TO.C,C3*%
X144031500Y-49171400D03*
X144031500Y-50671400D03*
%TD*%
D24*
%TO.C,L2*%
X114340000Y-73885000D03*
D25*
X114340000Y-79676200D03*
%TD*%
D26*
%TO.C,R9*%
X139585000Y-46171400D03*
X139585000Y-44171400D03*
%TD*%
D18*
%TO.C,Cout1*%
X106581500Y-73971400D03*
X108081500Y-73971400D03*
%TD*%
D27*
%TO.C,D2*%
X107431500Y-85421400D03*
X110231500Y-85421400D03*
%TD*%
D12*
%TO.C,SW1*%
X140131500Y-23521400D03*
X133631500Y-23521400D03*
X140131500Y-19021400D03*
X133631500Y-19021400D03*
%TD*%
D21*
%TO.C,R3*%
X122181500Y-22971400D03*
X124181500Y-22971400D03*
%TD*%
D28*
%TO.C,D1*%
X143681500Y-71361400D03*
D29*
X143681500Y-56121400D03*
%TD*%
D13*
%TO.C,R6*%
X124181500Y-18421400D03*
X122181500Y-18421400D03*
%TD*%
D30*
%TO.C,R8*%
X136881500Y-44121400D03*
X136881500Y-46121400D03*
%TD*%
D21*
%TO.C,R5*%
X128331500Y-21671400D03*
X130331500Y-21671400D03*
%TD*%
D26*
%TO.C,RSNS1*%
X131330000Y-27935000D03*
X131330000Y-25935000D03*
%TD*%
D13*
%TO.C,R2*%
X108131500Y-67221400D03*
X106131500Y-67221400D03*
%TD*%
D18*
%TO.C,CIN1*%
X133431500Y-65921400D03*
X133431500Y-64421400D03*
%TD*%
D10*
%TO.C,CC4*%
X115731500Y-41071400D03*
X115731500Y-39071400D03*
%TD*%
D31*
%TO.C,J1*%
X108491500Y-20871400D03*
D32*
X111031500Y-20871400D03*
X113571500Y-20871400D03*
X116111500Y-20871400D03*
X118651500Y-20871400D03*
%TD*%
D10*
%TO.C,Ccomp1*%
X115831500Y-63471400D03*
X120831500Y-63471400D03*
%TD*%
D23*
%TO.C,Q3*%
X128831500Y-46161400D03*
X128831500Y-43621400D03*
X128831500Y-41081400D03*
%TD*%
D21*
%TO.C,R7*%
X128331500Y-18471400D03*
X130331500Y-18471400D03*
%TD*%
D33*
%TO.C,U4*%
X110869000Y-66496400D03*
X110869000Y-67146400D03*
X110869000Y-67796400D03*
X110869000Y-68446400D03*
X115094000Y-68446400D03*
X115094000Y-67796400D03*
X115094000Y-67146400D03*
X115094000Y-66496400D03*
%TD*%
D10*
%TO.C,CAP1*%
X108531500Y-58871400D03*
X108531500Y-60871400D03*
%TD*%
D18*
%TO.C,C7*%
X109231500Y-46221400D03*
X107731500Y-46221400D03*
%TD*%
D22*
%TO.C,H1*%
X145401600Y-95023000D03*
%TD*%
D10*
%TO.C,CC5*%
X115781500Y-35221400D03*
X115781500Y-33221400D03*
%TD*%
%TO.C,CC2*%
X115731500Y-52621400D03*
X115731500Y-50621400D03*
%TD*%
%TO.C,CBY1*%
X120340000Y-69785000D03*
X120340000Y-71785000D03*
%TD*%
%TO.C,C6*%
X108481500Y-54171400D03*
X108481500Y-52171400D03*
%TD*%
D18*
%TO.C,C4*%
X138481500Y-49171400D03*
X138481500Y-50671400D03*
%TD*%
M02*
