M48
; DRILL file {KiCad 8.0.6} date 2024-12-31T14:32:02-0800
; FORMAT={-:-/ absolute / inch / decimal}
; #@! TF.CreationDate,2024-12-31T14:32:02-08:00
; #@! TF.GenerationSoftware,Kicad,Pcbnew,8.0.6
; #@! TF.FileFunction,Plated,1,2,PTH
FMAT,2
INCH
; #@! TA.AperFunction,Plated,PTH,ViaDrill
T1C0.0118
; #@! TA.AperFunction,Plated,PTH,ComponentDrill
T2C0.0236
; #@! TA.AperFunction,Plated,PTH,ComponentDrill
T3C0.0315
; #@! TA.AperFunction,Plated,PTH,ComponentDrill
T4C0.0380
; #@! TA.AperFunction,Plated,PTH,ComponentDrill
T5C0.0394
; #@! TA.AperFunction,Plated,PTH,ComponentDrill
T6C0.0400
; #@! TA.AperFunction,Plated,PTH,ComponentDrill
T7C0.0433
; #@! TA.AperFunction,Plated,PTH,ComponentDrill
T8C0.0630
%
G90
G05
T1
X4.1843Y-1.1071
X4.2296Y-0.9556
X4.267Y-2.5382
X4.3142Y-1.0067
X4.3175Y-1.0381
X4.326Y-1.2587
X4.3388Y-1.0613
X4.3457Y-0.9142
X4.452Y-2.7179
X4.456Y-2.3138
X4.765Y-1.3729
X4.7908Y-0.8577
X4.8162Y-1.0697
X4.8182Y-1.3965
X4.8201Y-1.2312
X4.8221Y-1.5638
X4.8753Y-1.554
X4.893Y-1.2331
X4.9363Y-0.9949
X4.9363Y-1.115
X4.9668Y-0.8523
X4.9738Y-1.0758
X4.9756Y-1.3158
X4.9894Y-1.4438
X5.0111Y-0.7272
X5.0305Y-3.5411
X5.1233Y-0.9595
X5.1312Y-0.7882
X5.3969Y-1.867
X5.4205Y-3.1311
T2
X4.1961Y-2.9123
X4.204Y-3.1623
X4.2414Y-1.8197
X4.2552Y-2.9123
X4.2631Y-3.1623
X4.3005Y-1.8197
X4.9442Y-2.5382
X4.9442Y-2.5973
X5.2335Y-1.9359
X5.2335Y-1.9949
X5.2532Y-2.5363
X5.2532Y-2.5953
X5.452Y-1.9359
X5.452Y-1.9949
X5.6705Y-1.9359
X5.6705Y-1.9949
T3
X4.2571Y-1.5067
X4.2571Y-1.5855
X4.2709Y-2.054
X4.2709Y-2.1327
X4.2729Y-2.3178
X4.2729Y-2.3965
X4.5564Y-1.5382
X4.5564Y-1.617
X4.5564Y-1.7646
X4.5564Y-1.8434
X4.5564Y-1.993
X4.5564Y-2.0717
X4.5583Y-1.3079
X4.5583Y-1.3867
X4.5603Y-2.2193
X4.5603Y-2.2981
X4.5603Y-2.4989
X4.7378Y-2.7474
X4.7378Y-2.8262
X4.7555Y-3.1805
X4.7555Y-3.2593
X4.7571Y-2.4989
X5.2158Y-2.8611
X5.4127Y-2.8611
T4
X4.5016Y-2.9089
X4.5016Y-3.1369
T5
X4.2713Y-0.8217
X4.3713Y-0.8217
X4.4713Y-0.8217
X4.5713Y-0.8217
X4.6713Y-0.8217
X4.858Y-3.0111
X5.0155Y-3.0111
T6
X5.0701Y-1.0087
X5.0701Y-1.1087
X5.0701Y-1.2087
X5.0705Y-1.3211
X5.0705Y-1.4211
X5.0705Y-1.5211
X5.0721Y-1.6174
X5.0721Y-1.7174
X5.0721Y-1.8174
T7
X5.2611Y-0.7489
X5.2611Y-0.926
X5.517Y-0.7489
X5.517Y-0.926
X5.6455Y-1.417
X5.6455Y-1.817
T8
X1.0368Y-1.1274
X1.0368Y-1.8872
X1.0368Y-2.647
X1.0368Y-3.4069
X3.9069Y-1.1274
X3.9069Y-1.8872
X3.9069Y-2.647
X3.9069Y-3.4069
X5.6568Y-2.2095
X5.6568Y-2.8095
M30
