M48
; DRILL file {KiCad 8.0.6} date 2024-12-11T14:47:27-0800
; FORMAT={-:-/ absolute / inch / decimal}
; #@! TF.CreationDate,2024-12-11T14:47:27-08:00
; #@! TF.GenerationSoftware,Kicad,Pcbnew,8.0.6
; #@! TF.FileFunction,Plated,1,2,PTH
FMAT,2
INCH
; #@! TA.AperFunction,Plated,PTH,ViaDrill
T1C0.0118
; #@! TA.AperFunction,Plated,PTH,ComponentDrill
T2C0.0236
; #@! TA.AperFunction,Plated,PTH,ComponentDrill
T3C0.0315
; #@! TA.AperFunction,Plated,PTH,ComponentDrill
T4C0.0380
; #@! TA.AperFunction,Plated,PTH,ComponentDrill
T5C0.0394
; #@! TA.AperFunction,Plated,PTH,ComponentDrill
T6C0.0400
; #@! TA.AperFunction,Plated,PTH,ComponentDrill
T7C0.0433
; #@! TA.AperFunction,Plated,PTH,ComponentDrill
T8C0.0630
%
G90
G05
T1
X6.6138Y-2.5861
X6.6591Y-2.4345
X6.6965Y-4.0172
X6.7438Y-2.4857
X6.747Y-2.517
X6.7556Y-2.7377
X6.7683Y-2.5402
X6.7753Y-2.3932
X6.8816Y-4.1969
X6.8855Y-3.7928
X7.1945Y-2.8518
X7.2203Y-2.3366
X7.2457Y-2.5487
X7.2477Y-2.8754
X7.2497Y-2.7101
X7.2516Y-3.0428
X7.3048Y-3.0329
X7.3225Y-2.7121
X7.3658Y-2.4739
X7.3658Y-2.594
X7.3964Y-2.3312
X7.4052Y-2.7947
X7.419Y-2.9227
X7.4406Y-2.2062
X7.46Y-5.02
X7.5528Y-2.4384
X7.5607Y-2.2672
X7.6631Y-3.3361
X7.8264Y-3.3459
X7.85Y-4.61
X8.0745Y-3.1865
X8.0764Y-2.9955
T2
X6.6256Y-4.3912
X6.6335Y-4.6412
X6.6709Y-3.2987
X6.6847Y-4.3912
X6.6926Y-4.6412
X6.73Y-3.2987
X7.3737Y-4.0172
X7.3737Y-4.0762
X7.6631Y-3.4148
X7.6631Y-3.4739
X7.6827Y-4.0152
X7.6827Y-4.0743
X7.8816Y-3.4148
X7.8816Y-3.4739
X8.1001Y-3.4148
X8.1001Y-3.4739
T3
X6.6867Y-2.9857
X6.6867Y-3.0644
X6.7005Y-3.5329
X6.7005Y-3.6117
X6.7024Y-3.7967
X6.7024Y-3.8754
X6.9859Y-3.0172
X6.9859Y-3.0959
X6.9859Y-3.2436
X6.9859Y-3.3223
X6.9859Y-3.4719
X6.9859Y-3.5506
X6.9879Y-2.7869
X6.9879Y-2.8656
X6.9898Y-3.6983
X6.9898Y-3.777
X6.9898Y-3.9778
X7.1673Y-4.2264
X7.1673Y-4.3051
X7.185Y-4.6594
X7.185Y-4.7382
X7.1867Y-3.9778
X7.6453Y-4.34
X7.8422Y-4.34
T4
X6.9311Y-4.3878
X6.9311Y-4.6158
T5
X6.7008Y-2.3006
X6.8008Y-2.3006
X6.9008Y-2.3006
X7.0008Y-2.3006
X7.1008Y-2.3006
X7.2875Y-4.49
X7.445Y-4.49
T6
X7.4997Y-2.4877
X7.4997Y-2.5877
X7.4997Y-2.6877
X7.5016Y-3.0963
X7.5016Y-3.1963
X7.5016Y-3.2963
X7.5036Y-2.7951
X7.5036Y-2.8951
X7.5036Y-2.9951
T7
X7.6237Y-2.7022
X7.6245Y-2.8991
X7.6264Y-3.0841
X7.6906Y-2.2278
X7.6906Y-2.405
X7.9465Y-2.2278
X7.9465Y-2.405
X8.0237Y-2.7022
X8.0245Y-2.8991
X8.0264Y-3.0841
X8.165Y-2.6522
X8.165Y-3.0522
T8
X3.4663Y-2.6063
X3.4663Y-3.3661
X3.4663Y-4.126
X3.4663Y-4.8858
X6.3364Y-2.6063
X6.3364Y-3.3661
X6.3364Y-4.126
X6.3364Y-4.8858
X8.0863Y-3.6884
X8.0863Y-4.2884
M30
