%TF.GenerationSoftware,KiCad,Pcbnew,8.0.6*%
%TF.CreationDate,2024-12-31T14:32:05-08:00*%
%TF.ProjectId,Avionics Power Regulation Board,4176696f-6e69-4637-9320-506f77657220,3*%
%TF.SameCoordinates,Original*%
%TF.FileFunction,Paste,Top*%
%TF.FilePolarity,Positive*%
%FSLAX46Y46*%
G04 Gerber Fmt 4.6, Leading zero omitted, Abs format (unit mm)*
G04 Created by KiCad (PCBNEW 8.0.6) date 2024-12-31 14:32:05*
%MOMM*%
%LPD*%
G01*
G04 APERTURE LIST*
G04 Aperture macros list*
%AMRoundRect*
0 Rectangle with rounded corners*
0 $1 Rounding radius*
0 $2 $3 $4 $5 $6 $7 $8 $9 X,Y pos of 4 corners*
0 Add a 4 corners polygon primitive as box body*
4,1,4,$2,$3,$4,$5,$6,$7,$8,$9,$2,$3,0*
0 Add four circle primitives for the rounded corners*
1,1,$1+$1,$2,$3*
1,1,$1+$1,$4,$5*
1,1,$1+$1,$6,$7*
1,1,$1+$1,$8,$9*
0 Add four rect primitives between the rounded corners*
20,1,$1+$1,$2,$3,$4,$5,0*
20,1,$1+$1,$4,$5,$6,$7,0*
20,1,$1+$1,$6,$7,$8,$9,0*
20,1,$1+$1,$8,$9,$2,$3,0*%
G04 Aperture macros list end*
%ADD10RoundRect,0.100000X-0.637500X-0.100000X0.637500X-0.100000X0.637500X0.100000X-0.637500X0.100000X0*%
%ADD11RoundRect,0.250000X0.350000X0.450000X-0.350000X0.450000X-0.350000X-0.450000X0.350000X-0.450000X0*%
%ADD12RoundRect,0.250000X-0.300000X2.050000X-0.300000X-2.050000X0.300000X-2.050000X0.300000X2.050000X0*%
%ADD13RoundRect,0.250000X-2.375000X2.025000X-2.375000X-2.025000X2.375000X-2.025000X2.375000X2.025000X0*%
%ADD14RoundRect,0.250000X-0.350000X-0.450000X0.350000X-0.450000X0.350000X0.450000X-0.350000X0.450000X0*%
%ADD15RoundRect,0.250000X0.450000X-0.350000X0.450000X0.350000X-0.450000X0.350000X-0.450000X-0.350000X0*%
%ADD16RoundRect,0.250000X-0.300000X-0.300000X0.300000X-0.300000X0.300000X0.300000X-0.300000X0.300000X0*%
%ADD17RoundRect,0.250000X-0.450000X0.350000X-0.450000X-0.350000X0.450000X-0.350000X0.450000X0.350000X0*%
%ADD18RoundRect,0.125000X-0.687500X-0.125000X0.687500X-0.125000X0.687500X0.125000X-0.687500X0.125000X0*%
G04 APERTURE END LIST*
D10*
%TO.C,U2*%
X108581500Y-23621400D03*
X108581500Y-24271400D03*
X108581500Y-24921400D03*
X108581500Y-25571400D03*
X108581500Y-26221400D03*
X108581500Y-26871400D03*
X108581500Y-27521400D03*
X108581500Y-28171400D03*
X108581500Y-28821400D03*
X108581500Y-29471400D03*
X114306500Y-29471400D03*
X114306500Y-28821400D03*
X114306500Y-28171400D03*
X114306500Y-27521400D03*
X114306500Y-26871400D03*
X114306500Y-26221400D03*
X114306500Y-25571400D03*
X114306500Y-24921400D03*
X114306500Y-24271400D03*
X114306500Y-23621400D03*
%TD*%
D11*
%TO.C,RC1*%
X124481500Y-41121400D03*
X122481500Y-41121400D03*
%TD*%
D12*
%TO.C,U1*%
X137416000Y-82710000D03*
X135716000Y-82710000D03*
X134016000Y-82710000D03*
D13*
X136791000Y-89435000D03*
X131241000Y-89435000D03*
X136791000Y-94285000D03*
X131241000Y-94285000D03*
D12*
X132316000Y-82710000D03*
X130616000Y-82710000D03*
%TD*%
D11*
%TO.C,RC2*%
X124369000Y-37821400D03*
X122369000Y-37821400D03*
%TD*%
%TO.C,RC3*%
X124369000Y-33671400D03*
X122369000Y-33671400D03*
%TD*%
D14*
%TO.C,R4*%
X122181500Y-20721400D03*
X124181500Y-20721400D03*
%TD*%
%TO.C,Rcomp1*%
X110781500Y-64271400D03*
X112781500Y-64271400D03*
%TD*%
D11*
%TO.C,RF1*%
X108181500Y-33521400D03*
X106181500Y-33521400D03*
%TD*%
D14*
%TO.C,R1*%
X106131500Y-69571400D03*
X108131500Y-69571400D03*
%TD*%
D11*
%TO.C,RC4*%
X124369000Y-29521400D03*
X122369000Y-29521400D03*
%TD*%
%TO.C,RC5*%
X124181500Y-25571400D03*
X122181500Y-25571400D03*
%TD*%
D15*
%TO.C,R9*%
X139585000Y-46171400D03*
X139585000Y-44171400D03*
%TD*%
D16*
%TO.C,D2*%
X107431500Y-85421400D03*
X110231500Y-85421400D03*
%TD*%
D14*
%TO.C,R3*%
X122181500Y-22971400D03*
X124181500Y-22971400D03*
%TD*%
D11*
%TO.C,R6*%
X124181500Y-18421400D03*
X122181500Y-18421400D03*
%TD*%
D17*
%TO.C,R8*%
X136881500Y-44121400D03*
X136881500Y-46121400D03*
%TD*%
D14*
%TO.C,R5*%
X128331500Y-21671400D03*
X130331500Y-21671400D03*
%TD*%
D15*
%TO.C,RSNS1*%
X131330000Y-27935000D03*
X131330000Y-25935000D03*
%TD*%
D11*
%TO.C,R2*%
X108131500Y-67221400D03*
X106131500Y-67221400D03*
%TD*%
D14*
%TO.C,R7*%
X128331500Y-18471400D03*
X130331500Y-18471400D03*
%TD*%
D18*
%TO.C,U4*%
X110869000Y-66496400D03*
X110869000Y-67146400D03*
X110869000Y-67796400D03*
X110869000Y-68446400D03*
X115094000Y-68446400D03*
X115094000Y-67796400D03*
X115094000Y-67146400D03*
X115094000Y-66496400D03*
%TD*%
M02*
